<?xml version="1.0" encoding="UTF-8"?><svg xmlns="http://www.w3.org/2000/svg" viewBox="0 0 300 300"><defs><style>.cls-1{fill:#f1f2f2;}.cls-2{fill:#010101;}</style></defs><g id="Fondos"><rect class="cls-2" x="0" y=".5" width="300" height="300"/></g><g id="Texto"><g id="original-wordmark"><path id="path4" class="cls-1" d="m108.25,174.55v-48.13h2.61v7.57c.31-.34.59-.69.85-1.07,2.18-4.52,6.78-7.38,11.8-7.32,5.95-.18,10.79,2.03,13.63,7.32,3.67,6.68,3.88,14.72.57,21.58-2.65,5.94-9.19,8.89-16.19,7.8-4.43-.38-8.36-2.97-10.45-6.9v19.14h-2.83Zm2.61-31.1c.23,2.35.32,4.02.59,5.65,1.03,6.43,4.83,10.26,10.81,10.95,5.78.95,11.43-2.32,13.49-7.8,2.32-5.54,2.15-11.8-.46-17.21-2.19-4.9-7.36-7.76-12.67-7-4.98.36-9.18,3.84-10.47,8.66-.56,2.22-.98,4.48-1.28,6.75Z"/><path id="path6" class="cls-1" d="m193.35,149.98c-.82,7.01-6.7,12.33-13.76,12.44-10.95.55-16.09-6.72-16.9-15.11-.57-4.56.17-9.18,2.13-13.33,2.8-5.84,9.06-9.2,15.48-8.3,6.1.52,11.18,4.88,12.62,10.82.56,2.64.97,5.31,1.23,8h-28.78c-.53,7.61,3.55,13.72,9.35,15.2,7.22,1.78,13.38-1.35,15.62-8.21.5-1.76,1.4-2.01,3-1.51Zm-27.98-7.91h25.72c-.16-8.1-5.21-13.97-12.05-14.06-7.75-.12-13.33,5.53-13.67,14.06Z"/><path id="path8" class="cls-1" d="m198.65,150.16h2.52c.19,3.79,2.48,7.15,5.94,8.71,4.31,1.94,9.27,1.81,13.47-.36,2.32-1.04,3.73-3.42,3.55-5.95.13-2.45-1.38-4.69-3.7-5.49-2.77-1.03-5.72-1.6-8.55-2.51-2.94-.84-5.82-1.89-8.6-3.15-4.55-2.22-4.83-10.88.32-13.61,5.36-3.03,11.89-3.13,17.35-.27,3.33,1.84,5.17,5.55,4.62,9.31h-2.17c0-.11-.2-.2-.2-.3-.27-6.91-6.06-9.05-12.28-8.44-1.86.23-3.66.78-5.33,1.62-2.06.94-3.3,3.08-3.09,5.33,0,2.25,1.43,4.26,3.55,5.01,2.74,1,5.6,1.64,8.41,2.42,2.26.62,4.6,1.03,6.79,1.78,3.16,1.04,5.35,3.91,5.51,7.23.54,3.64-1.31,7.23-4.6,8.89-5.94,3.36-15.71,2.47-20.07-1.78-2.23-2.24-3.47-5.28-3.45-8.44Z"/><path id="path10" class="cls-1" d="m258.76,136.85h-2.36c0-.32-.12-.6-.16-.87-.08-3.65-2.7-6.75-6.29-7.43-3.29-.94-6.79-.77-9.97.48-2.58.74-4.37,3.09-4.39,5.78-.09,2.65,1.69,4.99,4.27,5.62,3.55,1.1,7.2,1.78,10.81,2.77,1.17.28,2.32.63,3.45,1.05,4.62,1.65,7.03,6.74,5.37,11.36-.84,2.34-2.61,4.22-4.89,5.19-5.07,2.3-10.88,2.36-16,.16-4.26-1.84-6.93-6.14-6.68-10.77h2.31c1.45,7.01,8.31,11.51,15.32,10.06,1.57-.33,3.07-.94,4.41-1.81,2.2-1.14,3.53-3.46,3.41-5.94.11-2.45-1.42-4.68-3.75-5.46-2.77-1.03-5.72-1.58-8.55-2.49-2.96-.82-5.85-1.86-8.66-3.11-4.44-2.19-4.8-10.77.27-13.51,5.44-3.16,12.13-3.23,17.63-.2,3.16,1.89,4.91,5.46,4.46,9.12Z"/><path id="path12" class="cls-1" d="m103.93,161.55c-1.93.73-4.09-.09-5.05-1.92-2.9-4.34-6.1-8.48-9.17-12.71l-1.33-1.78c-3.66,4.91-7.32,9.62-10.66,14.5-.9,1.74-2.95,2.55-4.8,1.88l13.74-18.43-12.78-16.65c1.9-.68,4.01.06,5.07,1.78,2.97,4.34,6.26,8.48,9.53,12.87,3.29-4.35,6.54-8.51,9.58-12.81.91-1.72,2.95-2.48,4.76-1.78l-4.96,6.58c-2.22,2.93-4.41,5.88-6.72,8.74-.73.65-.79,1.78-.14,2.51.04.05.09.09.14.14,4.25,5.63,8.46,11.29,12.8,17.08Z"/><path id="path14" class="cls-1" d="m162.27,126.27v2.49c-7.1-.47-13.24,4.91-13.7,12.02-.03.43-.03.87-.02,1.3v19.55h-2.54v-35.21h2.49v7.22c3.07-5.26,7.82-7.22,13.77-7.36Z"/><path id="path16" class="cls-1" d="m40,142.87c.37-1.78.6-3.71,1.12-5.53,3.07-10.93,15.61-15.48,24.23-8.71,5.05,3.96,6.31,9.58,6.06,15.91h-28.44c-.46,11.3,7.7,18.13,18.13,14.65,3.44-1.23,6.02-4.11,6.88-7.66.55-1.78,1.44-2.08,3.13-1.56-.56,4.38-3.1,8.27-6.9,10.54-6.34,3.47-14.2,2.46-19.46-2.49-2.54-2.86-4.08-6.46-4.37-10.27,0-.6-.23-1.21-.36-1.78-.01-1.05-.02-2.09-.02-3.09Zm3-.76h25.72c-.16-8.19-5.33-14.01-12.23-14.06-7.68-.11-13.17,5.58-13.51,14.02l.02.04Z"/></g></g></svg>