<?xml version="1.0" encoding="UTF-8"?><svg xmlns="http://www.w3.org/2000/svg" viewBox="0 0 300 300"><defs><style>.cls-1{fill:#101215;}.cls-2{fill:#70ceef;}.cls-3{fill:#70cff0;}</style></defs><g id="Fondos"><rect class="cls-1" x="0" y=".5" width="300" height="300"/></g><g id="Texto"><g><path class="cls-2" d="m223.44,143.94c-1.45-2.86-3.58-5.17-6.01-7.21-3.63-3.06-7.73-5.38-12.02-7.38-3.63-1.7-7.39-3.09-11.22-4.27-.56-.17-.71-.38-.57-.98.42-1.87.78-3.76,1.08-5.66.63-3.91,1.04-7.84,1.01-11.96.05-3.8-.32-7.71-1.43-11.52-.79-2.7-1.94-5.21-3.82-7.35-2.73-3.12-6.28-4.35-10.32-4.34-2.17,0-4.29.44-6.36,1.08-5.52,1.7-10.39,4.62-15.04,7.97-2.97,2.15-5.78,4.5-8.45,7.01-.26.25-.42.25-.68,0-.89-.81-1.8-1.58-2.71-2.37-3.26-2.85-6.72-5.45-10.43-7.69-4.84-2.91-9.88-5.32-15.63-5.81-2.21-.19-4.36.03-6.44.78-3.34,1.2-5.62,3.58-7.24,6.67-2.08,3.98-2.77,8.3-3.01,12.69-.2,3.55-.04,7.11.38,10.65.4,3.37.97,6.72,1.73,10.03.11.46-.02.64-.45.78-1.43.46-2.85.93-4.26,1.44-5.91,2.14-11.58,4.75-16.69,8.45-2.97,2.15-5.65,4.6-7.61,7.74-2.71,4.34-3.05,8.81-.69,13.41,1.64,3.2,4.09,5.7,6.87,7.89,4.53,3.58,9.62,6.16,14.95,8.31,2.48,1,4.99,1.92,7.56,2.68.45.13.56.33.45.79-.29,1.27-.53,2.55-.78,3.83-.73,3.78-1.17,7.6-1.34,11.45-.14,3.3-.04,6.59.49,9.86.51,3.19,1.35,6.27,3.01,9.08,2.36,4,5.81,6.33,10.48,6.7,2.9.23,5.72-.3,8.47-1.18,4.15-1.34,7.96-3.38,11.59-5.76,4.04-2.65,7.79-5.67,11.3-8.98.4-.37.62-.38.96.02.26.3.61.54.91.81,3.69,3.35,7.6,6.4,11.85,9,4.06,2.49,8.3,4.56,13,5.53,2.91.61,5.82.73,8.7-.15,4.19-1.29,6.75-4.3,8.44-8.17,1.69-3.86,2.24-7.97,2.44-12.13.15-3.21-.04-6.43-.39-9.62-.39-3.48-.97-6.93-1.77-10.35-.11-.45.02-.62.46-.75,1.83-.54,3.62-1.18,5.4-1.85,5.75-2.18,11.27-4.81,16.2-8.55,2.68-2.03,5.09-4.33,6.89-7.21,2.7-4.34,3.07-8.81.72-13.42Zm-68.35-39.82c3.45-3.13,7.03-6.07,10.96-8.58,3.19-2.03,6.49-3.83,10.17-4.83,1.85-.5,3.72-.82,5.64-.51,2.14.34,3.58,1.6,4.6,3.44,1.1,1.97,1.64,4.12,2.02,6.32.38,2.22.4,4.47.51,6.49-.1,4.72-.57,9.17-1.45,13.58-.16.79-.32,1.59-.47,2.39-.08.41-.2.6-.7.48-4.12-1.05-8.31-1.78-12.51-2.42-1.84-.28-3.69-.46-5.53-.68-.53-.06-.92-.25-1.27-.72-3.2-4.32-6.54-8.52-10.22-12.45-.58-.63-1.16-1.26-1.76-1.88-.22-.23-.27-.38,0-.63Zm-40.18,65.79c1.02-3.52,2.24-6.96,3.53-10.39.13-.35.27-.7.46-1.18,2.56,5.02,5.36,9.75,8.39,14.44-3.41-.47-6.69-1.1-9.97-1.8-.69-.15-1.37-.34-2.06-.47-.4-.07-.47-.22-.36-.61Zm.48-40.45c3.23-.7,6.47-1.35,9.73-1.9.66-.11,1.33-.19,2.14-.3-3.03,4.74-5.77,9.49-8.35,14.54-.49-1.26-.94-2.35-1.35-3.45-.97-2.65-1.84-5.33-2.69-8.02-.18-.56-.04-.74.52-.86Zm10.84,28.11c-1.21-2.27-2.34-4.58-3.49-6.88-.2-.41-.2-.74,0-1.15,3.75-7.94,8.13-15.52,13.07-22.77.24-.35.48-.52.93-.55,3.55-.3,7.1-.42,10.65-.55,2.96-.11,5.92.04,8.87.1,2.37.05,4.75.18,7.11.44.32.03.5.17.67.42,3.78,5.47,7.25,11.13,10.33,17.02,1.01,1.94,1.97,3.9,2.93,5.86.15.31.18.56.03.89-3.67,7.78-7.95,15.22-12.73,22.38-.57.86-1.24,1.15-2.18,1.2-3.23.17-6.46.41-9.7.43-.92,0-1.84.05-3.13.09-2.57-.08-5.5-.15-8.43-.28-1.52-.07-3.03-.23-4.54-.34-.32-.02-.49-.17-.66-.42-3.51-5.13-6.79-10.4-9.71-15.9Zm54.83.64c.36.91.67,1.68.97,2.46,1.15,3.04,2.19,6.11,3.12,9.23.13.43-.05.52-.37.59-2.76.64-5.54,1.24-8.34,1.7-1.2.2-2.39.4-3.77.63,3.09-4.79,5.81-9.56,8.39-14.6Zm0-16.54c-.83-1.54-1.6-3-2.39-4.44-1.73-3.16-3.6-6.23-5.55-9.26-.12-.19-.4-.4-.28-.6.14-.24.42-.02.64.01,3.66.51,7.29,1.23,10.89,2.08,1.01.24.84.08.58.97-1.1,3.78-2.41,7.49-3.89,11.25Zm-31.61-31.99c.39-.42.58-.34.92.03,2.71,2.86,5.26,5.85,7.73,8.92.06.08.11.18.23.4-5.62-.31-11.14-.35-16.76,0,.39-.76.91-1.31,1.38-1.9,2.07-2.57,4.23-5.05,6.49-7.45Zm-37.07-13.7c.41-1.2.97-2.33,1.73-3.36,1.23-1.68,2.95-2.34,4.95-2.4,2.69-.09,5.2.68,7.66,1.67,4.32,1.76,8.19,4.29,11.88,7.1,2.13,1.62,4.16,3.37,6.16,5.15.26.23.25.36.02.6-3.73,3.94-7.21,8.09-10.49,12.41-.53.7-1.06,1.4-1.56,2.12-.19.27-.4.41-.73.45-1.55.19-3.09.39-4.64.59-3.56.47-7.09,1.09-10.6,1.86-1.11.24-2.21.49-3.31.77-.35.09-.5.05-.58-.33-.63-2.88-1.16-5.78-1.51-8.7-.29-2.38-.52-4.77-.42-6.87-.05-3.96.26-7.57,1.44-11.06Zm-3.17,69.13c-.31.98-.63,1.95-.89,2.95-.11.43-.27.51-.69.37-3.32-1.07-6.59-2.27-9.77-3.72-3.44-1.57-6.75-3.38-9.75-5.68-2.15-1.65-4.16-3.45-5.47-5.89-.52-.97-.92-1.98-.85-2.78.01-2.41,1.03-4.06,2.3-5.57,2.58-3.09,5.89-5.27,9.36-7.22,4.48-2.52,9.25-4.35,14.13-5.93.54-.18.56.13.66.46,1.39,4.68,3.04,9.26,4.9,13.78.51,1.23,1.02,2.45,1.57,3.66.19.41.17.74,0,1.14-2.08,4.72-3.92,9.54-5.49,14.46Zm35.57,30.88c-4.38,4-9.01,7.65-14.24,10.5-2.67,1.45-5.43,2.63-8.42,3.21-1.5.29-3.03.35-4.53.02-2-.44-3.26-1.79-4.18-3.52-1.05-1.97-1.59-4.11-1.93-6.29-.35-2.2-.48-4.42-.41-6.36-.05-4.52.47-8.7,1.26-12.84.21-1.09.45-2.17.65-3.27.06-.35.21-.4.53-.33,2.91.71,5.84,1.31,8.78,1.82,2.53.44,5.06.81,7.61,1.1.74.09,1.49.18,2.23.25.27.02.43.16.57.36,2.32,3.21,4.79,6.31,7.36,9.32,1.53,1.79,3.14,3.52,4.73,5.25.28.3.31.47,0,.77Zm6.14-6.13c-.87.91-.88.92-1.75.01-2.66-2.76-5.12-5.69-7.61-8.83,5.66.22,11.16.25,16.65,0,.12.24-.04.35-.14.48-2.26,2.88-4.61,5.69-7.15,8.33Zm36.22,15.34c-.71,1.64-1.68,3.09-3.33,3.95-1.04.54-2.15.68-3.31.63-3.13-.03-6.01-1.04-8.8-2.34-4.47-2.09-8.49-4.89-12.31-7.99-1.4-1.14-2.73-2.34-4.1-3.51-.32-.27-.33-.46-.03-.77,4.37-4.55,8.34-9.43,12.05-14.53.4-.55.98-.39,1.46-.44,3.63-.41,7.24-.96,10.84-1.63,2.31-.43,4.61-.92,6.89-1.48.33-.08.51-.09.61.36.65,2.96,1.16,5.95,1.54,8.96.31,2.45.44,4.91.42,7.36-.02,3.9-.34,7.78-1.92,11.44Zm29.01-50.3c-2.06,2.58-4.64,4.54-7.42,6.27-5.14,3.21-10.72,5.42-16.46,7.28-.46.15-.47-.12-.54-.37-.56-1.98-1.2-3.93-1.87-5.87-1.38-3.99-2.93-7.9-4.65-11.75-.15-.34-.17-.61-.02-.96,1.92-4.37,3.66-8.81,5.14-13.35.45-1.36.84-2.74,1.26-4.1.1-.34.15-.63.68-.47,6.12,1.97,12.04,4.36,17.44,7.9,2.34,1.53,4.53,3.25,6.29,5.44,1.2,1.49,2.12,3.11,2.22,5.02-.1,1.94-.94,3.51-2.08,4.94Z"/><path class="cls-3" d="m163.91,150c.13,7.56-6.25,13.99-13.95,13.96-7.43-.03-13.98-5.89-13.96-13.98.02-7.79,6.14-13.91,13.95-13.93,8.04-.03,14.05,6.53,13.96,13.95Z"/></g></g></svg>