<?xml version="1.0" encoding="UTF-8"?><svg xmlns="http://www.w3.org/2000/svg" xmlns:xlink="http://www.w3.org/1999/xlink" viewBox="0 0 300 300"><defs><style>.cls-1{fill:url(#linear-gradient-2);}.cls-2{fill:#4b4b4b;opacity:.66;}.cls-3,.cls-4{fill:#fff;}.cls-4,.cls-5{fill-rule:evenodd;}.cls-5{fill:url(#linear-gradient);}.cls-6{fill:#679e63;}.cls-7{clip-path:url(#clippath);}.cls-8{clip-rule:evenodd;}.cls-8,.cls-9{fill:none;}</style><linearGradient id="linear-gradient" x1="99.48" y1="145.56" x2="144.68" y2="145.56" gradientUnits="userSpaceOnUse"><stop offset="0" stop-color="#fff"/><stop offset=".19" stop-color="#e8e8e8"/><stop offset=".54" stop-color="#c2c2c2"/><stop offset=".82" stop-color="#ababab"/><stop offset="1" stop-color="#a3a3a3"/></linearGradient><clipPath id="clippath"><path class="cls-8" d="m123.3,120.16c-.75-.43-1.68-.43-2.44,0l-20.17,11.64c-.75.43-1.22,1.24-1.22,2.11v23.29c0,.87.46,1.67,1.22,2.11l20.17,11.65c.75.44,1.68.44,2.44,0l20.16-11.65c.75-.44,1.22-1.24,1.22-2.11v-23.3c0-.87-.46-1.67-1.22-2.11l-20.16-11.64Z"/></clipPath><linearGradient id="linear-gradient-2" x1="99.16" y1="145.52" x2="145.79" y2="145.52" gradientUnits="userSpaceOnUse"><stop offset="0" stop-color="#a3a3a3"/><stop offset=".18" stop-color="#ababab"/><stop offset=".46" stop-color="#c2c2c2"/><stop offset=".81" stop-color="#e8e8e8"/><stop offset=".99" stop-color="#fff"/></linearGradient></defs><g id="Fondos"><rect class="cls-6" width="300" height="300"/></g><g id="Texto"><g><g><path class="cls-3" d="m148.78,220c-.7,0-1.4-.18-2.01-.54l-6.4-3.79c-.96-.53-.49-.72-.17-.83,1.28-.44,1.53-.54,2.89-1.32.14-.08.33-.05.48.04l4.92,2.92c.18.1.43.1.59,0l19.17-11.06c.18-.1.29-.31.29-.52v-22.12c0-.22-.11-.42-.3-.53l-19.16-11.05c-.18-.1-.41-.1-.59,0l-19.16,11.06c-.19.11-.3.32-.3.53v22.12c0,.21.12.41.3.51l5.25,3.03c2.85,1.42,4.59-.25,4.59-1.94v-21.84c0-.31.25-.55.56-.55h2.43c.3,0,.56.24.56.55v21.84c0,3.8-2.07,5.98-5.68,5.98-1.11,0-1.98,0-4.42-1.2l-5.03-2.89c-1.24-.72-2.01-2.06-2.01-3.5v-22.12c0-1.44.77-2.78,2.01-3.49l19.17-11.08c1.21-.69,2.83-.69,4.03,0l19.17,11.08c1.24.72,2.01,2.06,2.01,3.49v22.12c0,1.44-.77,2.77-2.01,3.5l-19.17,11.07c-.61.35-1.31.54-2.02.54Z"/><path class="cls-3" d="m154.7,204.76c-8.39,0-10.15-3.85-10.15-7.08,0-.31.25-.55.55-.55h2.48c.28,0,.51.2.55.47.37,2.52,1.49,3.8,6.56,3.8,4.04,0,5.76-.91,5.76-3.06,0-1.24-.49-2.15-6.76-2.77-5.24-.52-8.49-1.68-8.49-5.87,0-3.87,3.26-6.17,8.73-6.17,6.14,0,9.18,2.13,9.56,6.7.01.16-.04.31-.15.43-.11.11-.25.18-.41.18h-2.49c-.26,0-.49-.18-.54-.43-.6-2.66-2.05-3.5-5.99-3.5-4.41,0-4.92,1.54-4.92,2.69,0,1.39.6,1.8,6.56,2.59,5.89.78,8.69,1.88,8.69,6.02s-3.48,6.57-9.56,6.57Z"/></g><path class="cls-3" d="m182.34,181.56c0,2.03-1.66,3.69-3.69,3.69s-3.69-1.64-3.69-3.69,1.72-3.7,3.69-3.7,3.69,1.6,3.69,3.7Zm-6.79-.01c0,1.72,1.39,3.11,3.09,3.11s3.11-1.42,3.11-3.11-1.41-3.09-3.11-3.09-3.09,1.35-3.09,3.09Zm1.71-2.06h1.43c.49,0,1.45,0,1.45,1.1,0,.76-.49.92-.78,1.02.57.04.61.41.68.94.04.33.1.9.21,1.09h-.88c-.02-.19-.16-1.25-.16-1.31-.06-.23-.14-.35-.43-.35h-.72v1.66h-.8v-4.14Zm.78,1.82h.64c.53,0,.63-.37.63-.59,0-.57-.39-.57-.61-.57h-.66v1.15Z"/><path class="cls-4" d="m89.42,133.45c0-.88-.46-1.7-1.23-2.13l-20.32-11.7c-.34-.2-.73-.31-1.12-.32h-.21c-.39.02-.77.12-1.12.32l-20.32,11.7c-.76.44-1.23,1.25-1.23,2.13l.04,31.49c0,.44.23.85.61,1.06.38.23.84.23,1.22,0l12.08-6.92c.76-.45,1.23-1.25,1.23-2.13v-14.71c0-.88.46-1.69,1.23-2.12l5.14-2.96c.38-.22.8-.33,1.23-.33s.85.11,1.22.33l5.14,2.96c.76.44,1.23,1.25,1.23,2.12v14.71c0,.88.47,1.68,1.23,2.13l12.07,6.92c.38.23.85.23,1.23,0,.37-.21.61-.62.61-1.06l.04-31.49Z"/><path class="cls-4" d="m187.21,90.16c-.38-.21-.84-.21-1.22.01-.37.22-.61.62-.61,1.06v31.19c0,.31-.16.59-.43.74-.27.15-.59.15-.86,0l-5.09-2.93c-.76-.44-1.69-.44-2.45,0l-20.33,11.73c-.76.44-1.23,1.25-1.23,2.13v23.47c0,.88.47,1.69,1.23,2.13l20.33,11.74c.76.44,1.7.44,2.46,0l20.33-11.74c.76-.44,1.23-1.25,1.23-2.13v-58.51c0-.89-.48-1.71-1.26-2.14l-12.1-6.75Zm-1.89,59.69c0,.22-.12.42-.31.53l-6.98,4.02c-.19.11-.42.11-.61,0l-6.98-4.02c-.19-.11-.31-.31-.31-.53v-8.06c0-.22.12-.42.31-.53l6.98-4.03c.19-.11.42-.11.61,0l6.98,4.03c.19.11.31.31.31.53v8.06Z"/><g><path class="cls-4" d="m254.91,141.58c.76-.44,1.22-1.25,1.22-2.12v-5.69c0-.87-.47-1.68-1.22-2.12l-20.2-11.73c-.76-.44-1.7-.44-2.46,0l-20.32,11.73c-.76.44-1.23,1.25-1.23,2.13v23.47c0,.88.47,1.7,1.24,2.13l20.2,11.51c.74.43,1.66.43,2.41.01l12.22-6.79c.39-.22.63-.62.63-1.06,0-.44-.23-.85-.62-1.07l-20.45-11.74c-.38-.22-.62-.63-.62-1.06v-7.35c0-.44.23-.84.61-1.06l6.37-3.67c.38-.22.85-.22,1.23,0l6.37,3.67c.38.22.61.62.61,1.06v5.79c0,.44.23.85.62,1.06.38.22.85.22,1.23,0l12.17-7.08Z"/><path class="cls-4" d="m233.18,140.48c.15-.08.33-.08.47,0l3.9,2.25c.15.08.24.24.24.41v4.5c0,.17-.09.32-.24.41l-3.9,2.25c-.15.08-.33.08-.47,0l-3.9-2.25c-.15-.08-.24-.24-.24-.41v-4.5c0-.17.09-.32.24-.41l3.9-2.25Z"/></g><g><path class="cls-5" d="m120.86,120.16c.75-.43,1.68-.43,2.44,0l20.17,11.64c.75.43,1.22,1.24,1.22,2.11v23.29c0,.87-.46,1.67-1.22,2.11l-20.17,11.65c-.75.44-1.68.44-2.44,0l-20.16-11.65c-.75-.44-1.22-1.24-1.22-2.11v-23.3c0-.87.46-1.67,1.22-2.11l20.16-11.64Z"/><g class="cls-7"><g><path class="cls-9" d="m120.83,120.16l-20.19,11.64c-.75.43-1.27,1.24-1.27,2.11v23.3c0,.57.21,1.1.57,1.53l22.69-38.82c-.61-.15-1.26-.07-1.81.25Z"/><path class="cls-9" d="m122.77,171.16c.16-.05.32-.12.47-.21l20.12-11.65c.75-.44,1.12-1.24,1.12-2.11v-23.29c0-.58-.17-1.14-.51-1.57l-21.2,38.83Z"/><path class="cls-2" d="m143.36,131.8l-20.08-11.64c-.2-.12-.42-.2-.64-.25l-22.69,38.82c.19.23.42.43.69.58l20.2,11.65c.6.35,1.3.41,1.94.21l21.2-38.83c-.17-.21-.37-.4-.62-.54Z"/></g><g><path class="cls-9" d="m100.88,131.66l-.23.13c-.75.43-1.27,1.24-1.27,2.11v23.3c0,.87.5,1.67,1.25,2.11l20.2,11.65c.54.31,1.17.4,1.75.26l-21.71-39.55Z"/><path class="cls-9" d="m144.49,133.91c0-.87-.37-1.67-1.13-2.11l-20.08-11.64c-.18-.1-.37-.18-.56-.23l21.77,37.18v-23.2Z"/><path class="cls-1" d="m123.24,170.96l20.12-11.65c.75-.44,1.12-1.24,1.12-2.11v-.09l-21.77-37.18c-.63-.18-1.31-.1-1.89.23l-19.96,11.51,21.71,39.55c.23-.05.45-.14.66-.26Z"/></g></g></g></g></g></svg>