<?xml version="1.0" encoding="UTF-8"?><svg xmlns="http://www.w3.org/2000/svg" viewBox="0 0 300 300"><defs><style>.cls-1{fill:#f6df19;}.cls-2{fill:#010101;}</style></defs><g id="Fondos"><rect class="cls-1" width="300" height="300"/></g><g id="Texto"><path class="cls-2" d="m206.77,230.16c4.28,6.99,9.85,12.12,19.69,12.12,8.27,0,13.56-4.13,13.56-9.85,0-6.85-5.43-9.27-14.53-13.25l-4.99-2.14c-14.4-6.14-23.97-13.82-23.97-30.08,0-14.97,11.41-26.37,29.23-26.37,12.69,0,21.82,4.42,28.39,15.98l-15.54,9.98c-3.42-6.14-7.11-8.55-12.85-8.55s-9.55,3.71-9.55,8.55c0,5.99,3.71,8.41,12.27,12.12l4.99,2.14c16.96,7.27,26.54,14.69,26.54,31.36,0,17.97-14.12,27.82-33.08,27.82s-30.52-8.83-36.38-20.41l16.22-9.42Zm-70.52,1.73c3.14,5.56,5.99,10.27,12.85,10.27s10.7-2.57,10.7-12.54v-67.88h19.96v68.15c0,20.67-12.12,30.08-29.81,30.08-15.98,0-25.24-8.27-29.95-18.23l16.25-9.84Z"/></g></svg>