<?xml version="1.0" encoding="UTF-8"?><svg xmlns="http://www.w3.org/2000/svg" viewBox="0 0 300 300"><defs><style>.cls-1{fill:#fff;}.cls-2{fill:#f0672b;}</style></defs><g id="Fondos"><rect class="cls-2" width="300" height="300"/></g><g id="Texto"><g><path class="cls-1" d="m150.23,258.4c.15-.07.3-.17.46-.21,11.48-3.18,22.95-6.36,34.43-9.53,8.93-2.47,17.86-4.95,26.8-7.4.66-.18,1.02-.4,1.09-1.23.7-8.33,1.48-16.65,2.23-24.97,1-11.1,1.99-22.19,2.97-33.29.95-10.71,1.88-21.42,2.83-32.14,1.02-11.48,2.08-22.96,3.1-34.45.88-9.9,1.72-19.81,2.66-29.71.11-1.18-.2-1.29-1.22-1.29-50.36.02-100.72.02-151.08.02-.21,0-.43.02-.64,0-.66-.08-.75.22-.67.81.15,1.05.21,2.1.31,3.16.59,6.74,1.17,13.49,1.78,20.23.74,8.29,1.51,16.57,2.24,24.86.67,7.52,1.31,15.03,1.98,22.55.81,9.1,1.65,18.19,2.46,27.28.74,8.32,1.45,16.65,2.2,24.97.96,10.71,1.94,21.42,2.88,32.13.06.7.33.92.96,1.1,17.36,4.78,34.71,9.58,52.06,14.4,3.19.88,6.41,1.65,9.54,2.72m11.47-201.66c.08-.02.15-.03.23-.05,2.19,3.36,4.38,6.73,6.61,10.15,2.25-3.46,4.42-6.79,6.59-10.12.08.04.16.08.24.11,0,.38,0,.77,0,1.15,0,3.99.01,7.97-.01,11.96,0,.63.07.92.84.91,2.68-.06,5.37-.04,8.05,0,.68,0,.89-.15.89-.86-.03-9.17-.02-18.34,0-27.52,0-.71-.21-.87-.89-.87-2.86.04-5.72.04-8.58,0-.63,0-.93.24-1.23.73-1.76,2.93-3.55,5.84-5.33,8.75-.15.24-.2.6-.59.66-1.91-3.14-3.82-6.26-5.73-9.39-.24-.39-.4-.76-1-.75-3,.04-6,.03-9,0-.49,0-.66.1-.66.63.02,9.31.01,18.63,0,27.94,0,.48.1.67.63.66,2.75-.03,5.51-.04,8.26,0,.71.01.69-.33.69-.83-.01-4.02,0-8.04,0-12.07,0-.41,0-.82,0-1.22Zm-73.58-.56c0,4.59.02,9.17-.02,13.76,0,.76.2.93.93.91,2.68-.05,5.37-.03,8.05,0,.58,0,.87-.04.86-.77-.05-2.65,0-5.29-.04-7.94-.01-.77.11-1.1,1.01-1.07,2.33.07,4.66.05,6.99,0,.72-.01.96.14.94.91-.05,2.68,0,5.36-.04,8.04,0,.65.16.83.82.82,2.72-.04,5.44-.04,8.16,0,.67.01.81-.19.8-.82-.02-9.21-.02-18.42,0-27.63,0-.68-.2-.81-.83-.8-2.68.04-5.37.05-8.05,0-.78-.02-.91.25-.9.95.04,2.61-.01,5.22.04,7.83.01.77-.24.93-.95.92-2.37-.04-4.73-.05-7.1,0-.74.01-.95-.19-.94-.94.04-2.65,0-5.29.03-7.94,0-.65-.15-.84-.81-.83-2.68.04-5.37.05-8.05,0-.75-.01-.93.19-.92.93.04,4.55.02,9.1.02,13.65Zm46.21-14.56c-4.2,0-8.4.01-12.6-.01-.65,0-.92.11-.91.85.05,2.71.04,5.43,0,8.14,0,.59.15.78.76.77,2.29-.03,4.59.03,6.88-.04.87-.03,1.01.27,1,1.05-.03,5.85,0,11.71-.04,17.56,0,.76.2.92.93.91,2.61-.05,5.22-.06,7.83,0,.84.02,1.03-.22,1.02-1.03-.04-5.85,0-11.7-.04-17.56,0-.73.16-.95.91-.93,2.26.06,4.52-.03,6.77.04.88.03,1.02-.28,1.01-1.06-.05-2.54-.06-5.08,0-7.61.02-.85-.16-1.12-1.07-1.11-4.16.06-8.33.02-12.49.02Zm55.59,14.5c0,4.62.02,9.24-.02,13.86,0,.7.19.87.88.87,7.31-.03,14.62-.02,21.92,0,.65,0,.83-.17.82-.82-.04-2.64-.04-5.29,0-7.93.01-.74-.2-.95-.94-.94-3.85.04-7.7-.02-11.54.04-1.05.02-1.42-.18-1.4-1.34.07-5.75.02-11.5.05-17.25,0-.74-.1-1.03-.95-1.01-2.61.07-5.22.06-7.84,0-.78-.02-1.01.16-1,.98.04,4.51.02,9.03.02,13.54Z"/><path class="cls-1" d="m149.6,258.4c-3.13-1.07-6.35-1.84-9.54-2.72-17.35-4.82-34.7-9.61-52.06-14.4-.63-.17-.89-.39-.96-1.1-.94-10.71-1.92-21.42-2.88-32.13-.74-8.32-1.45-16.65-2.2-24.97-.81-9.1-1.65-18.19-2.46-27.28-.67-7.52-1.31-15.03-1.98-22.55-.74-8.29-1.5-16.57-2.24-24.86-.6-6.74-1.18-13.49-1.78-20.23-.09-1.05-.16-2.11-.31-3.16-.08-.59,0-.89.67-.81.21.03.42,0,.64,0,50.36,0,100.72,0,151.08-.02,1.02,0,1.33.11,1.22,1.29-.94,9.9-1.77,19.81-2.66,29.71-1.03,11.48-2.08,22.96-3.1,34.45-.96,10.71-1.88,21.42-2.83,32.14-.98,11.1-1.97,22.19-2.97,33.29-.75,8.32-1.53,16.64-2.23,24.97-.07.83-.43,1.04-1.09,1.23-8.93,2.46-17.86,4.93-26.8,7.4-11.48,3.18-22.95,6.35-34.43,9.53-.16.04-.31.14-.46.21h-.64Zm.43-53.37c-.24-.03-.49-.04-.72-.1-6.6-1.76-13.2-3.54-19.81-5.26-.86-.22-1.06-.61-1.12-1.43-.36-4.5-.8-8.98-1.18-13.48-.04-.51-.17-.74-.74-.73-5.96.02-11.93.02-17.89,0-.55,0-.76.16-.7.73.11.98.17,1.97.26,2.95.76,8.49,1.54,16.98,2.28,25.47.06.73.28,1.08,1.05,1.3,12.87,3.55,25.72,7.14,38.58,10.72,0,6.28.02,12.56-.03,18.84,0,.97.34,1.01,1.09.8,6.69-1.89,13.39-3.77,20.09-5.65,6.36-1.78,12.72-3.55,19.08-5.33,3.21-.9,6.43-1.79,9.64-2.69.42-.12.92-.15.98-.78.13-1.43.29-2.86.42-4.29.17-1.92.29-3.84.47-5.76.25-2.72.55-5.43.8-8.15.18-1.92.29-3.84.46-5.76.26-3,.55-6,.82-8.99.16-1.74.29-3.49.46-5.24.26-2.79.56-5.57.81-8.36.17-1.92.29-3.84.45-5.76.26-3,.55-6,.82-8.99.16-1.74.3-3.49.46-5.24.27-2.93.55-5.86.82-8.78.16-1.81.3-3.63.46-5.45.26-2.86.55-5.71.81-8.57.17-1.85.29-3.7.46-5.55.26-2.96.55-5.93.82-8.89.16-1.78.3-3.56.46-5.34.26-2.86.55-5.71.81-8.57.17-1.88.3-3.77.47-5.66.26-2.93.51-5.86.81-8.78.1-.98-.3-1.16-1.2-1.16-20.13.02-40.25.02-60.38,0-.93,0-1.19.24-1.18,1.18.04,6,.02,11.99.02,17.99-.49.02-.99.05-1.48.05-15.25,0-30.49,0-45.74,0-.59,0-1.15-.15-1.06.87.92,9.68,1.81,19.36,2.68,29.04.81,8.98,1.62,17.96,2.38,26.95.08,1,.43,1.23,1.4,1.22,13.48-.04,26.96-.03,40.45-.02.46,0,.91.04,1.37.06,0,10.2,0,20.4,0,30.6Z"/><path class="cls-1" d="m161.07,56.74c0,.41,0,.82,0,1.22,0,4.02,0,8.04,0,12.07,0,.5.02.84-.69.83-2.75-.04-5.51-.03-8.26,0-.53,0-.63-.18-.63-.66.01-9.31.01-18.63,0-27.94,0-.53.18-.64.66-.63,3,.02,6,.03,9,0,.6,0,.77.36,1,.75,1.9,3.13,3.81,6.25,5.73,9.39.39-.06.44-.41.59-.66,1.78-2.91,3.57-5.82,5.33-8.75.3-.49.6-.74,1.23-.73,2.86.04,5.72.04,8.58,0,.68,0,.89.16.89.87-.02,9.17-.02,18.34,0,27.52,0,.71-.21.87-.89.86-2.68-.04-5.37-.05-8.05,0-.76.02-.84-.28-.84-.91.02-3.99.01-7.97.01-11.96,0-.38,0-.77,0-1.15-.08-.04-.16-.08-.24-.11-2.17,3.33-4.34,6.66-6.59,10.12-2.23-3.43-4.42-6.79-6.61-10.15-.08.02-.15.03-.23.05Z"/><path class="cls-1" d="m87.48,56.19c0-4.55.02-9.1-.02-13.65,0-.74.17-.94.92-.93,2.68.05,5.37.04,8.05,0,.67,0,.82.18.81.83-.04,2.65.01,5.29-.03,7.94-.01.74.19.95.94.94,2.37-.05,4.73-.04,7.1,0,.72.01.97-.15.95-.92-.05-2.61,0-5.22-.04-7.83-.01-.71.12-.97.9-.95,2.68.05,5.37.04,8.05,0,.63,0,.83.12.83.8-.03,9.21-.02,18.42,0,27.63,0,.64-.13.83-.8.82-2.72-.04-5.44-.04-8.16,0-.66,0-.83-.17-.82-.82.04-2.68-.02-5.36.04-8.04.02-.77-.22-.92-.94-.91-2.33.05-4.66.07-6.99,0-.89-.03-1.02.29-1.01,1.07.04,2.65-.01,5.29.04,7.94.01.73-.28.77-.86.77-2.68-.03-5.37-.04-8.05,0-.73.01-.94-.16-.93-.91.04-4.59.02-9.17.02-13.76Z"/><path class="cls-1" d="m133.7,41.63c4.16,0,8.33.03,12.49-.02.91-.01,1.09.26,1.07,1.11-.06,2.54-.05,5.08,0,7.61.01.78-.13,1.09-1.01,1.06-2.26-.07-4.52.01-6.77-.04-.76-.02-.92.2-.91.93.03,5.85,0,11.71.04,17.56,0,.82-.18,1.05-1.02,1.03-2.61-.06-5.22-.05-7.83,0-.73.01-.93-.15-.93-.91.04-5.85,0-11.7.04-17.56,0-.78-.13-1.08-1-1.05-2.29.07-4.59,0-6.88.04-.61,0-.77-.18-.76-.77.03-2.71.04-5.43,0-8.14-.01-.74.25-.85.91-.85,4.2.03,8.4.01,12.6.01Z"/><path class="cls-1" d="m189.29,56.12c0-4.51.02-9.03-.02-13.54,0-.81.22-.99,1-.98,2.61.05,5.23.06,7.84,0,.86-.02.96.27.95,1.01-.03,5.75.02,11.5-.05,17.25-.01,1.16.35,1.36,1.4,1.34,3.85-.06,7.7,0,11.54-.04.74,0,.96.2.94.94-.04,2.64-.04,5.29,0,7.93,0,.65-.17.83-.82.82-7.31-.02-14.62-.02-21.92,0-.69,0-.89-.17-.88-.87.03-4.62.02-9.24.02-13.86Z"/><path class="cls-1" d="m150.02,116.24c0-6,.02-11.99-.02-17.99,0-.94.25-1.18,1.18-1.18,20.13.03,40.25.03,60.38,0,.9,0,1.3.18,1.2,1.16-.3,2.92-.55,5.85-.81,8.78-.17,1.88-.3,3.77-.47,5.66-.26,2.86-.54,5.71-.81,8.57-.16,1.78-.3,3.56-.46,5.34-.27,2.96-.55,5.93-.82,8.89-.16,1.85-.29,3.7-.46,5.55-.26,2.86-.54,5.71-.81,8.57-.17,1.81-.3,3.63-.46,5.45-.27,2.93-.55,5.86-.82,8.78-.16,1.74-.3,3.49-.46,5.24-.27,3-.56,6-.82,8.99-.17,1.92-.28,3.85-.45,5.76-.25,2.79-.55,5.57-.81,8.36-.16,1.74-.3,3.49-.46,5.24-.27,3-.56,6-.82,8.99-.17,1.92-.28,3.85-.46,5.76-.25,2.72-.55,5.43-.8,8.15-.18,1.92-.3,3.84-.47,5.76-.12,1.43-.29,2.86-.42,4.29-.06.63-.56.66-.98.78-3.21.9-6.43,1.79-9.64,2.69-6.36,1.77-12.72,3.55-19.08,5.33-6.7,1.88-13.39,3.76-20.09,5.65-.75.21-1.1.17-1.09-.8.05-6.28.03-12.56.03-18.84,0-.04.01-.08.02-.12,12.43-3.43,24.85-6.87,37.28-10.3,1.94-.54,2-.54,2.19-2.55.64-6.74,1.23-13.48,1.84-20.21.53-5.86,1.04-11.72,1.57-17.59.53-5.97,1.09-11.93,1.61-17.9.12-1.35.08-1.36-1.31-1.36-14.05,0-28.1,0-42.15,0-.35,0-.7.03-1.06.05.01-.04.02-.08.02-.12,0-6.5,0-13.01-.01-19.51,0-.05,0-.1.02-.15.07.01.14.03.21.03,15.12,0,30.23,0,45.35.02.63,0,.83-.17.88-.82.51-5.76,1.05-11.51,1.63-17.27.09-.88-.11-1.13-1.03-1.12-15.4.03-30.8.02-46.19.02-.28,0-.56.03-.84.04v-.09Z"/><path class="cls-2" d="m150.03,135.43s-.02.1-.02.15c-.42-.03-.84-.07-1.26-.07-6.39,0-12.78,0-19.17,0-1.94,0-3.88.03-5.83-.01-.7-.01-.96.19-.86.9.11.8.15,1.61.22,2.42.47,5.12.96,10.25,1.38,15.37.07.87.42.99,1.17.99,7.77-.02,15.54-.01,23.3-.02.35,0,.7-.04,1.05-.06,0,.04,0,.08-.02.12,0,6.38,0,12.75,0,19.13l.02.09c-.46-.02-.91-.06-1.37-.06-13.48,0-26.96-.01-40.45.02-.98,0-1.32-.23-1.4-1.22-.76-8.99-1.57-17.97-2.38-26.95-.88-9.68-1.76-19.37-2.68-29.04-.1-1.03.46-.87,1.06-.87,15.25,0,30.49,0,45.74,0,.49,0,.99-.03,1.48-.05,0,0,0,.09,0,.09,0,6.37,0,12.73,0,19.1Z"/><path class="cls-2" d="m150.04,225.08s0,.08-.02.12c-12.86-3.58-25.71-7.17-38.58-10.72-.76-.21-.98-.56-1.05-1.3-.74-8.49-1.52-16.98-2.28-25.47-.09-.98-.15-1.97-.26-2.95-.07-.57.14-.73.7-.73,5.96.02,11.93.02,17.89,0,.57,0,.7.22.74.73.39,4.49.83,8.98,1.18,13.48.07.82.26,1.21,1.12,1.43,6.61,1.72,13.21,3.5,19.81,5.26.23.06.48.07.72.1l-.02.09c.01,6.65.02,13.3.03,19.95Z"/><path class="cls-1" d="m150.03,205.03c0-10.2,0-20.4,0-30.6,0,0-.02-.09-.02-.09.39.02.77.05,1.16.05,7.06,0,14.11.02,21.17-.02.98,0,1.37.14,1.23,1.25-.3,2.41-.45,4.84-.67,7.26-.47,5.23-.97,10.45-1.41,15.68-.06.7-.35.93-.98,1.09-6.84,1.81-13.68,3.65-20.51,5.48l.02-.09Z"/><path class="cls-2" d="m150.01,205.12c6.84-1.83,13.67-3.67,20.51-5.48.63-.17.92-.39.98-1.09.44-5.23.94-10.45,1.41-15.68.22-2.42.37-4.85.67-7.26.14-1.1-.25-1.25-1.23-1.25-7.06.04-14.11.02-21.17.02-.39,0-.77-.03-1.16-.05,0-6.38,0-12.75,0-19.13.35-.02.7-.05,1.06-.05,14.05,0,28.1,0,42.15,0,1.39,0,1.43,0,1.31,1.36-.52,5.97-1.08,11.93-1.61,17.9-.53,5.86-1.04,11.72-1.57,17.59-.6,6.74-1.2,13.48-1.84,20.21-.19,2.01-.24,2.02-2.19,2.55-12.42,3.44-24.85,6.87-37.28,10.3-.01-6.65-.02-13.3-.03-19.95Z"/><path class="cls-2" d="m150.03,135.43c0-6.37,0-12.73,0-19.1.28-.01.56-.04.84-.04,15.4,0,30.8,0,46.19-.02.91,0,1.12.24,1.03,1.12-.58,5.75-1.12,11.51-1.63,17.27-.06.65-.25.82-.88.82-15.12-.02-30.23-.02-45.35-.02-.07,0-.14-.02-.21-.03Z"/><path class="cls-1" d="m150.02,155.09c-.35.02-.7.06-1.05.06-7.77,0-15.54,0-23.3.02-.75,0-1.1-.11-1.17-.99-.42-5.13-.91-10.25-1.38-15.37-.07-.81-.11-1.62-.22-2.42-.1-.71.16-.91.86-.9,1.94.04,3.88.01,5.83.01,6.39,0,12.78,0,19.17,0,.42,0,.84.05,1.26.07,0,6.5,0,13.01.01,19.51Z"/></g></g></svg>