<?xml version="1.0" encoding="UTF-8"?><svg xmlns="http://www.w3.org/2000/svg" viewBox="0 0 300 300"><defs><style>.cls-1{fill:#fff;}.cls-2{fill:#010101;isolation:isolate;opacity:.05;}.cls-3{fill:#2363af;}.cls-4{fill:none;}</style></defs><g id="Fondos"><rect class="cls-3" width="300" height="300"/></g><g id="Texto"><g><path class="cls-4" d="m18.54,18.54h262.93v262.93H18.54V18.54Z"/><path class="cls-1" d="m216.49,246.74l-66.5,17.9-66.5-17.9-15.34-166.24h163.68l-15.35,166.24Z"/><path class="cls-1" d="m150,93.97v156.4l.15.04,53.81-14.49,12.42-141.95h-66.38Z"/><path class="cls-1" d="m112.26,56.08v-9.89h14.44v-10.83h-25.26v30.6h25.26v-9.88h-14.44Zm40.41-9.89h10.09v-10.83h-25.27v10.83c3.38,3.38,5.14,5,10.03,9.89-2.86,0-10.03.01-10.03,0v9.88h25.27v-9.88l-10.09-9.89h0Zm35.81,0h10.09v-10.83h-25.27v10.83c3.38,3.38,5.14,5,10.03,9.89-2.86,0-10.03.01-10.03,0v9.88h25.27v-9.88l-10.09-9.89h0Z"/><path class="cls-1" d="m149.94,135.53l-47.59,19.82,1.58,19.62,46.01-19.67,48.95-20.93,2.03-20.08-50.98,21.23h0Z"/><path class="cls-3" d="m102.35,155.35l1.58,19.62,46.01-19.67v-19.77l-47.59,19.82Z"/><path class="cls-3" d="m200.92,114.3l-50.98,21.23v19.77l48.95-20.93,2.03-20.07Z"/><path class="cls-3" d="m102.42,155.35l1.58,19.62,70.6.23-1.58,26.17-23.23,6.54-22.33-5.64-1.35-16.24h-20.75l2.71,31.35,41.96,12.41,41.73-12.18,5.41-62.25h-94.74Z"/><path class="cls-3" d="m149.94,155.35h-47.59l1.58,19.62,46.01.15v-19.77h0Zm0,52.49l-.23.06-22.33-5.64-1.35-16.24h-20.75l2.71,31.35,41.95,12.41v-21.94Z"/><path class="cls-3" d="m98.06,114.3h102.86l-2.03,20.08h-98.35l-2.48-20.08h0Z"/><path class="cls-2" d="m149.94,114.3h-51.88l2.48,20.08h49.4v-20.08h0Z"/></g></g></svg>