<?xml version="1.0" encoding="UTF-8"?><svg xmlns="http://www.w3.org/2000/svg" viewBox="0 0 300 300"><defs><style>.cls-1{fill:#fff;fill-rule:evenodd;}.cls-2{fill:#7756a3;}</style></defs><g id="Fondos"><rect class="cls-2" x="-.42" y="-.31" width="300" height="300"/></g><g id="Texto"><path class="cls-1" d="m94.86,74.86c-10.76,0-18.73,9.42-18.37,19.64.34,9.82-.1,22.53-3.3,32.9-3.21,10.4-8.64,16.99-17.51,17.83v9.55c8.87.85,14.3,7.43,17.51,17.83,3.2,10.37,3.65,23.08,3.3,32.9-.36,10.22,7.61,19.64,18.37,19.64h110.3c10.76,0,18.73-9.42,18.37-19.64-.34-9.82.1-22.53,3.3-32.9,3.21-10.4,8.63-16.99,17.5-17.83v-9.55c-8.87-.85-14.28-7.43-17.5-17.83-3.2-10.37-3.65-23.08-3.3-32.9.36-10.22-7.61-19.64-18.37-19.64h-110.3,0Zm88.72,92.51c0,14.07-10.49,22.6-27.91,22.6h-29.65c-1.77,0-3.2-1.43-3.2-3.2h0v-73.54c0-1.77,1.43-3.2,3.2-3.2h29.48c14.52,0,24.05,7.87,24.05,19.94,0,8.48-6.41,16.07-14.58,17.39v.44c11.12,1.22,18.61,8.92,18.61,19.56h0Zm-31.14-47.2h-16.9v23.88h14.24c11.01,0,17.08-4.43,17.08-12.35,0-7.42-5.22-11.52-14.41-11.52h0Zm-16.9,33.35v26.31h17.53c11.46,0,17.53-4.6,17.53-13.24s-6.24-13.07-18.27-13.07h-16.79Z"/></g></svg>