<?xml version="1.0" encoding="UTF-8"?><svg xmlns="http://www.w3.org/2000/svg" viewBox="0 0 300 300"><defs><style>.cls-1{fill:#fff;}</style></defs><g id="Fondos"><rect width="300" height="300"/></g><g id="Texto"><g><path class="cls-1" d="m201.42,92.72c.04.26-.19.38-.31.54-2.13,2.71-4.27,5.41-6.4,8.12-5.77,7.34-11.63,14.62-17.28,22.05-5.7,7.5-11.21,15.14-16.77,22.75-.5.68-.68.58-1.1-.03-1.18-1.72-2.42-3.39-3.64-5.08-4.38-6.09-8.77-12.17-13.16-18.26-.18-.25-.29-.59-.73-.58-1.18.02-2.36,0-3.66,0,.25.37.41.62.59.86,6.19,8.59,12.38,17.18,18.59,25.75.36.49.35.79,0,1.28-6.69,9.12-13.36,18.25-20.02,27.39-.17.23-.46.4-.41.78,1.04,0,2.07-.04,3.1.01.59.03.94-.16,1.3-.64,6.02-8.3,12.06-16.59,18.1-24.87.16-.22.26-.5.57-.61.16.22.33.43.49.66,6,8.28,12,16.56,18.01,24.83.17.23.27.61.63.61,1.28.02,2.57,0,3.97,0-.27-.38-.42-.61-.58-.83-6.61-9.11-13.21-18.22-19.84-27.32-.38-.52-.36-.83,0-1.34,4.97-7.13,9.91-14.29,14.86-21.43,7.73-11.17,15.47-22.33,23.2-33.5.23-.34.67-.62.51-1.15.05.04.1.09.15.13.03-.04.05-.08.08-.12-.08,0-.15,0-.23-.01Zm-104.13,57.56c0,9.04,0,18.08-.02,27.12,0,.7.13.92.89.91,11.71-.03,23.42-.02,35.14-.02.66,0,1.55.22,1.93-.11.46-.4.06-1.31.16-1.99.1-.72-.13-.91-.88-.91-10.99.03-21.98.01-32.97.03-.64,0-.83-.14-.83-.81.03-7.65.03-15.3,0-22.95,0-.76.22-.91.93-.91,9.74.02,19.47.02,29.21.01.66,0,1.52.28,1.94-.12.43-.4.06-1.27.14-1.92.1-.75-.15-.96-.93-.96-10.13.03-20.25.01-30.38.04-.75,0-.92-.2-.91-.93.03-6.9.03-13.8,0-20.69,0-.69.17-.87.86-.87,10.43.02,20.87.02,31.3,0,.68,0,1.58.31,2-.14.41-.44.05-1.33.13-2.01.09-.73-.22-.85-.88-.85-11.99.02-23.98.02-35.97,0-.68,0-.87.15-.87.85.03,9.07.02,18.14.02,27.2Zm13.94,57.01c0-.58-.27-.86-.47-1.16-13.6-20.26-27.21-40.53-40.81-60.79-5.01-7.47-10.04-14.93-15.03-22.41-.35-.53-.71-.75-1.34-.7-.83.06-1.67.08-2.5,0-.83-.08-.99.21-.99,1,.02,17.52.02,35.04.02,52.56,0,.8-.28,1.88.13,2.34.47.53,1.57.08,2.38.19.81.11.99-.17.99-.98.02-16.6.08-33.21.14-49.81,0-.25-.09-.53.12-.81.19.26.35.48.5.71,7.31,10.61,14.61,21.23,21.93,31.84,4.6,6.68,9.11,13.42,13.87,19.99,5.25,7.24,10.74,14.32,16.12,21.46,1.62,2.15,3.24,4.31,4.96,6.59Zm96.74-55.54c0-8.56,0-17.13-.02-25.69,0-.71.19-.85.87-.85,5.59.03,11.18.02,16.77.01.69,0,1.58.29,2.01-.12.43-.41.04-1.32.14-2,.11-.77-.21-.89-.91-.89-13.29.02-26.59.02-39.88.02-.69,0-1.61-.23-2.01.12-.46.41-.07,1.36-.16,2.07-.08.65.15.82.8.81,6.01-.03,12.02,0,18.02-.03.71,0,.91.13.91.89-.03,14.82-.02,29.64-.02,44.47,0,2.36.01,4.73-.01,7.09,0,.5.09.69.63.65.66-.05,1.34-.06,2,0,.69.06.87-.16.87-.86-.03-8.56-.02-17.13-.02-25.69Zm37.15,10.15c-.57,0-1.39.13-2.15.52-1.36.69-2,1.78-1.92,3.31.07,1.44.87,2.29,2.16,2.76.55.2,1.12.33,1.67.49.82.23,1.69.33,2.44.8.87.55,1.03,1.52.38,2.28-1.04,1.21-4.03,1.15-4.75-.25-.48-.93-1.11-.76-1.81-.8-.42-.02-.46.19-.38.52.22.97.71,1.78,1.58,2.26,2.03,1.11,4.11,1.11,6.11-.04,1.19-.68,1.62-1.86,1.55-3.21-.07-1.35-.83-2.21-2.05-2.67-.65-.25-1.32-.4-1.99-.59-.75-.21-1.53-.32-2.21-.7-.86-.48-1.06-1.42-.47-2.19.92-1.2,3.73-1.11,4.39.25.34.69.72.76,1.33.74.89-.03.94-.08.62-.97-.57-1.58-2.14-2.51-4.49-2.49Zm-6.9,5.05s0,0,.01,0c0-1.22,0-2.45,0-3.67,0-1.13,0-1.09-1.16-1.13-.61-.02-.73.19-.72.75.03,2.47.02,4.95,0,7.42,0,.36-.02.72-.1,1.07-.21.92-.78,1.37-1.71,1.39-.92.03-1.59-.38-1.82-1.25-.1-.36-.24-.44-.55-.42-.3.02-.61.02-.92,0-.37-.03-.52.1-.43.47.06.24.08.49.16.73.55,1.63,2.16,2.46,4.19,2.18,1.81-.25,2.95-1.46,3.02-3.3.05-1.42.01-2.83.01-4.25Zm-9.59,6.18c-.02-.73-.57-1.23-1.3-1.19-.69.03-1.16.55-1.14,1.26.02.69.54,1.21,1.21,1.22.69,0,1.26-.58,1.24-1.29Z"/><path class="cls-1" d="m97.29,150.27c0-9.07,0-18.14-.02-27.2,0-.71.19-.86.87-.85,11.99.02,23.98.02,35.97,0,.67,0,.97.12.88.85-.08.68.28,1.57-.13,2.01-.42.45-1.31.14-2,.14-10.43.01-20.87.01-31.3,0-.69,0-.87.17-.86.87.03,6.9.03,13.8,0,20.69,0,.73.16.93.91.93,10.13-.03,20.25,0,30.38-.04.78,0,1.03.22.93.96-.09.65.28,1.52-.14,1.92-.42.4-1.28.12-1.94.12-9.74,0-19.47.01-29.21-.01-.72,0-.94.15-.93.91.03,7.65.03,15.3,0,22.95,0,.67.19.81.83.81,10.99-.02,21.98,0,32.97-.03.75,0,.98.2.88.91-.09.68.3,1.59-.16,1.99-.39.34-1.27.11-1.93.11-11.71,0-23.42,0-35.14.02-.76,0-.89-.21-.89-.91.02-9.04.02-18.08.02-27.12Z"/><path class="cls-1" d="m201.42,92.71c.16.53-.28.81-.51,1.15-7.72,11.17-15.46,22.34-23.2,33.5-4.95,7.15-9.89,14.3-14.86,21.43-.36.51-.38.82,0,1.34,6.63,9.09,13.23,18.21,19.84,27.32.16.22.32.45.58.83-1.4,0-2.69.01-3.97,0-.36,0-.46-.38-.63-.61-6.01-8.27-12.01-16.55-18.01-24.83-.16-.22-.33-.44-.49-.66-.31.11-.41.39-.57.61-6.04,8.29-12.08,16.57-18.1,24.87-.35.49-.71.67-1.3.64-1.03-.05-2.05-.01-3.1-.01-.05-.38.25-.55.41-.78,6.67-9.14,13.34-18.27,20.02-27.39.35-.48.36-.78,0-1.28-6.21-8.57-12.4-17.16-18.59-25.75-.17-.24-.34-.49-.59-.86,1.3,0,2.48.01,3.66,0,.44,0,.54.33.73.58,4.39,6.08,8.77,12.17,13.16,18.26,1.22,1.69,2.46,3.36,3.64,5.08.42.61.6.71,1.1.03,5.56-7.6,11.07-15.25,16.77-22.75,5.65-7.43,11.51-14.71,17.28-22.05,2.13-2.71,4.27-5.41,6.4-8.12.13-.16.35-.28.31-.54h0Z"/><path class="cls-1" d="m111.22,207.29c-1.72-2.28-3.34-4.43-4.96-6.59-5.38-7.15-10.87-14.22-16.12-21.46-4.76-6.56-9.26-13.31-13.87-19.99-7.31-10.61-14.62-21.23-21.93-31.84-.15-.22-.32-.44-.5-.71-.21.27-.11.56-.12.81-.06,16.6-.12,33.21-.14,49.81,0,.8-.18,1.09-.99.98-.81-.11-1.92.34-2.38-.19-.4-.46-.13-1.53-.13-2.34,0-17.52,0-35.04-.02-52.56,0-.79.16-1.08.99-1,.83.08,1.67.06,2.5,0,.63-.04.99.18,1.34.7,5,7.48,10.02,14.95,15.03,22.41,13.61,20.26,27.21,40.53,40.81,60.79.2.3.47.58.47,1.16Z"/><path class="cls-1" d="m207.96,151.75c0,8.56,0,17.13.02,25.69,0,.7-.17.92-.87.86-.66-.06-1.34-.05-2,0-.54.04-.64-.16-.63-.65.03-2.36.01-4.73.01-7.09,0-14.82,0-29.64.02-44.47,0-.76-.21-.89-.91-.89-6.01.03-12.02,0-18.02.03-.65,0-.88-.16-.8-.81.09-.71-.3-1.66.16-2.07.39-.35,1.32-.12,2.01-.12,13.29,0,26.59,0,39.88-.02.7,0,1.03.12.91.89-.1.68.29,1.58-.14,2-.43.41-1.32.12-2.01.12-5.59,0-11.18.02-16.77-.01-.68,0-.87.13-.87.85.03,8.56.02,17.13.02,25.69Z"/><path class="cls-1" d="m245.11,161.9c2.35-.01,3.93.92,4.49,2.49.32.89.27.94-.62.97-.61.02-.99-.04-1.33-.74-.66-1.36-3.46-1.45-4.39-.25-.59.77-.39,1.71.47,2.19.69.38,1.47.49,2.21.7.67.19,1.34.35,1.99.59,1.22.46,1.98,1.32,2.05,2.67.07,1.34-.36,2.52-1.55,3.21-2,1.15-4.08,1.15-6.11.04-.87-.48-1.36-1.29-1.58-2.26-.07-.32-.04-.54.38-.52.71.04,1.33-.13,1.81.8.72,1.4,3.71,1.46,4.75.25.65-.76.49-1.72-.38-2.28-.74-.47-1.61-.57-2.44-.8-.56-.16-1.13-.29-1.67-.49-1.29-.46-2.09-1.32-2.16-2.76-.07-1.52.57-2.62,1.92-3.31.76-.39,1.58-.52,2.15-.52Z"/><path class="cls-1" d="m238.21,166.94c0,1.42.04,2.84-.01,4.25-.07,1.84-1.21,3.05-3.02,3.3-2.03.28-3.64-.56-4.19-2.18-.08-.23-.1-.49-.16-.73-.09-.37.06-.5.43-.47.3.02.61.02.92,0,.32-.02.46.06.55.42.24.87.9,1.27,1.82,1.25.93-.03,1.5-.48,1.71-1.39.08-.35.1-.71.1-1.07,0-2.47.02-4.95,0-7.42,0-.56.11-.77.72-.75,1.16.04,1.16,0,1.16,1.13,0,1.22,0,2.45,0,3.67,0,0,0,0-.01,0Z"/><path class="cls-1" d="m228.62,173.12c.02.71-.55,1.29-1.24,1.29-.67,0-1.19-.53-1.21-1.22-.02-.71.45-1.23,1.14-1.26.74-.04,1.29.47,1.3,1.19Z"/><path class="cls-1" d="m201.42,92.72c.08,0,.15,0,.23.01-.03.04-.05.08-.08.12-.05-.04-.1-.09-.15-.13,0,0,0,0,0,0Z"/></g></g></svg>