<?xml version="1.0" encoding="UTF-8"?><svg id="Texto" xmlns="http://www.w3.org/2000/svg" viewBox="0 0 300 300"><defs><style>.cls-1{fill:#7253a2;}</style></defs><path class="cls-1" d="m178.98,178.29c5.54-.57,9.75-5.35,9.56-11.09-.19-5.73-4.97-10.32-10.71-10.32h-.38c-5.93.19-10.51,5.16-10.32,11.09.19,2.87,1.34,5.35,3.06,7.07-6.5,12.81-16.44,22.18-31.35,30.01-10.13,5.35-20.65,7.26-31.16,5.93-8.6-1.15-15.29-4.97-19.5-11.28-6.12-9.37-6.69-19.5-1.53-29.63,3.63-7.26,9.37-12.62,13-15.29-.76-2.49-1.91-6.69-2.49-9.75-27.72,20.07-24.85,47.22-16.44,60.03,6.31,9.56,19.12,15.48,33.26,15.48,3.82,0,7.65-.38,11.47-1.34,24.47-4.78,43.01-19.31,53.53-40.91Z"/><path class="cls-1" d="m212.62,154.59c-14.53-17.01-35.94-26.38-60.41-26.38h-3.06c-1.72-3.44-5.35-5.73-9.37-5.73h-.38c-5.93.19-10.51,5.16-10.32,11.09.19,5.73,4.97,10.32,10.71,10.32h.38c4.21-.19,7.84-2.87,9.37-6.5h3.44c14.53,0,28.29,4.21,40.72,12.43,9.56,6.31,16.44,14.53,20.26,24.47,3.25,8.03,3.06,15.87-.38,22.56-5.35,10.13-14.34,15.68-26.19,15.68-7.65,0-14.91-2.29-18.73-4.01-2.1,1.91-5.93,4.97-8.6,6.88,8.22,3.82,16.63,5.93,24.66,5.93,18.35,0,31.92-10.13,37.09-20.26,5.54-11.09,5.16-30.2-9.18-46.45Z"/><path class="cls-1" d="m115.51,181.54c.19,5.73,4.97,10.32,10.71,10.32h.38c5.93-.19,10.51-5.16,10.32-11.09-.19-5.73-4.97-10.32-10.71-10.32h-.38c-.38,0-.96,0-1.34.19-7.84-13-11.09-27.15-9.94-42.44.76-11.47,4.59-21.41,11.28-29.63,5.54-7.07,16.25-10.51,23.51-10.71,20.26-.38,28.87,24.85,29.44,34.98,2.49.57,6.69,1.91,9.56,2.87-2.29-30.97-21.41-47.03-39.76-47.03-17.2,0-33.07,12.43-39.38,30.78-8.79,24.47-3.06,47.98,7.65,66.53-.96,1.34-1.53,3.44-1.34,5.54Z"/></svg>