<?xml version="1.0" encoding="UTF-8"?><svg id="Texto" xmlns="http://www.w3.org/2000/svg" viewBox="0 0 300 300"><defs><style>.cls-1{fill:#fff;}.cls-2{fill:#dd1e34;}.cls-3{fill:#c32033;}</style></defs><polygon class="cls-2" points="150 59.6 150 59.6 150 59.6 65.83 89.61 78.67 200.9 150 240.4 150 240.4 150 240.4 221.33 200.9 234.17 89.61 150 59.6"/><polygon class="cls-3" points="150 59.6 150 79.67 150 79.57 150 171.15 150 171.15 150 240.4 150 240.4 221.33 200.9 234.17 89.61 150 59.6"/><path class="cls-1" d="m150,79.57l-52.62,117.98h19.62l10.58-26.4h44.66l10.58,26.4h19.62l-52.43-117.98h0Zm15.37,75.31h-30.74l15.37-36.98,15.37,36.98Z"/></svg>