<?xml version="1.0" encoding="UTF-8"?><svg xmlns="http://www.w3.org/2000/svg" viewBox="0 0 300 300"><defs><style>.cls-1{fill:#fff;}.cls-2{fill:#cc6899;}</style></defs><g id="Fondos"><rect class="cls-2" width="300" height="300"/></g><g id="Texto"><g><path class="cls-1" d="m144.91,82.55c.73.28,1.5.21,2.26.29,5.95.61,11.67,1.96,16.82,5.14,3.94,2.43,6.97,5.66,8.39,10.19,1.08,3.45,1.23,6.96.65,10.52-1.26,7.72-5.07,14.11-10.3,19.76-6.92,7.48-15.56,11.87-25.34,14.26-5.36,1.31-10.78,2.08-16.31,1.92-4.06-.12-8.08-.58-11.77-2.49-2.8-1.44-5.26-3.27-6.93-6.01-.43-.71-.7-1.49-.89-2.3-.13-.58-.09-1.11.48-1.44.57-.33.97.07,1.29.43,1.46,1.62,3.15,2.91,5.15,3.79,2.5,1.1,5.1,1.75,7.82,1.89,8.42.42,16.33-1.65,23.94-5.05,5.83-2.61,11.01-6.19,15.42-10.84,2.95-3.11,5.39-6.56,6.9-10.61.95-2.56,1.41-5.18,1.07-7.93-.43-3.44-2.31-5.82-5.26-7.46-2.86-1.59-5.97-2.4-9.18-2.79-7.37-.91-14.59.01-21.74,1.83-8.98,2.28-17.31,6.09-25.34,10.62-5.1,2.88-10.03,6.01-14.57,9.72-4.28,3.5-8.16,7.37-10.95,12.21-1.75,3.03-2.8,6.27-3.03,9.78-.29,4.36,1.12,8.16,3.67,11.6,2.55,3.45,5.77,6.22,9.09,8.88,3.99,3.21,8.18,6.17,12,9.6,1.06.95,2.06,1.97,3.06,2.98.31.32.54.39.96.16,5.62-3.09,11.26-6.17,16.89-9.24.37-.2.62-.48.87-.8,2.95-3.84,6.48-7,10.88-9.1,1.63-.78,3.34-1.27,5.2-1.14,2.39.16,3.95,1.38,4.76,3.59.7,1.9.68,3.87.51,5.85-.05.61-.15,1.21-.22,1.81.28.07.4-.07.54-.17,1.51-1.05,3.65-.83,4.91.51.68.72.67,1.58.45,2.46-1.12,4.42-2.39,8.81-3.41,13.26-.51,2.21-1.05,4.42-1.23,6.69-.06.8-.01,1.6.09,2.39.02.19,0,.44.23.5.2.05.28-.18.39-.31.78-.99,1.27-2.15,1.84-3.26,2.64-5.13,4.91-10.44,7.26-15.7,2.49-5.56,4.99-11.11,7.34-16.74.71-1.71,1.1-3.52,1.54-5.31.19-.78.6-1.29,1.36-1.54,2.59-.84,5.23-.98,7.91-.59.36.05.72.21,1.05.39.92.5,1.12,1.03.81,2.02-.68,2.11-1.44,4.2-1.83,6.4-.36,2.01-.21,4.02,0,6.04.27,2.78,1.42,5.21,2.77,7.73.87-1.46,1.69-2.82,2.49-4.2,2.69-4.65,5.31-9.33,7.55-14.23.91-2,1.33-4.14,1.82-6.24.45-1.97,1.54-2.87,3.44-3.12,1.93-.26,3.86-.52,5.81-.22.52.08,1.03.23,1.49.48.9.5,1.11,1.06.79,2.04-.71,2.21-1.57,4.38-1.86,6.7-.5,3.92-.06,7.72,1.68,11.31.63,1.3,1.32,2.58,1.95,3.88.2.4.36.55.84.32,5.33-2.53,10.97-3.68,16.85-3.53,5.7.15,11.08,1.5,15.78,4.89,4.07,2.92,6.84,6.74,7.86,11.72,1.24,6.08-1.7,11.69-7.4,14.09-.51.22-1.04.34-1.6.33-.35,0-.66-.07-.79-.43-.14-.38,0-.69.31-.92.59-.42,1.2-.81,1.79-1.24,1.99-1.47,3.48-3.31,4.01-5.78.59-2.72-.15-5.21-1.53-7.52-2.16-3.62-5.46-5.82-9.35-7.24-3.15-1.14-6.41-1.64-9.74-1.85-4.59-.29-9.07.19-13.43,1.69-1.37.47-1.35.48-.92,1.83.68,2.13,1.2,4.28,1.01,6.54-.25,2.85-1.65,5.16-3.58,7.16-3.33,3.47-7.45,5.6-12.08,6.71-2.96.71-5.37-1.23-5.41-4.28-.04-3.01,1.02-5.72,2.53-8.27,1.99-3.34,4.56-6.19,7.53-8.68.31-.26.45-.45.23-.85-2.38-4.28-3.79-8.89-4.66-13.68,0-.02-.03-.03-.09-.08-.24.15-.3.43-.41.65-2.95,5.83-6.2,11.47-9.92,16.84-.33.47-.36.84-.15,1.37.99,2.41,1.74,4.88,1.78,7.53.07,4.27-1.53,7.78-4.87,10.39-4.2,3.28-9,4.99-14.37,5.01-.52,0-1.05-.07-1.56-.18-2.44-.54-3.28-2.78-1.83-5,1.34-2.06,2.98-3.89,4.55-5.76,2.62-3.14,5.33-6.22,7.69-9.58.29-.42.31-.7.08-1.13-2.14-4.08-3.92-8.31-4.78-12.87-.06-.34-.14-.68-.21-1.03-.06-.31-.13-.61-.22-1.07-.82,1.98-1.58,3.82-2.34,5.66-3.74,9.06-8.15,17.8-12.93,26.35-1.08,1.93-2.32,3.73-3.92,5.27-.53.5-1.1.95-1.73,1.31-2,1.14-4.24.6-5.52-1.32-.9-1.35-1.2-2.89-1.39-4.46-.26-2.22-.14-4.44.12-6.65.03-.26,0-.52,0-1.01-.76,1.75-1.4,3.31-2.1,4.84-1.3,2.86-2.57,5.75-4.32,8.38-.98,1.47-2.18,2.75-3.99,3.08-3.53.64-5.39-.27-7.12-2.83-2.09-3.11-3.2-6.59-3.75-10.25-.84-5.63.16-11.08,1.73-16.47.06-.22.14-.43.2-.64.01-.04-.02-.09-.05-.22-.99.55-1.98,1.06-2.94,1.62-2.17,1.24-4.32,2.52-6.49,3.75-.41.23-.49.42-.29.87,1.83,4.01,2.26,8.24,2.01,12.58-.26,4.5-1.29,8.81-3.5,12.74-4.7,8.34-11.74,13.51-21.24,15.19-.61.11-1.24.15-1.86.22-1.2,0-2.4,0-3.6,0-.91-.12-1.84-.2-2.74-.36-1.55-.29-3.09-.6-4.33-1.7-2.88-2.54-4.17-5.83-4.3-9.55-.19-5.51,1.79-10.24,5.48-14.3,2.66-2.92,5.72-5.36,8.94-7.61,4.37-3.05,8.97-5.7,13.73-8.1,1.37-.69,1.34-.71.17-1.65-4.03-3.21-8.38-5.97-12.57-8.96-5.17-3.69-10.23-7.52-14.46-12.31-2.53-2.87-4.65-5.99-6.02-9.59-.51-1.33-.77-2.72-1.16-4.08,0-1.05,0-2.1,0-3.15.04-.09.11-.17.12-.26.23-2.12.81-4.16,1.59-6.14,2.27-5.79,5.88-10.7,10.09-15.19,4.66-4.96,9.95-9.16,15.62-12.9,8.25-5.43,17.06-9.75,26.25-13.34,7.29-2.85,14.77-4.87,22.6-5.48.62-.05,1.29.07,1.88-.25h6.75Zm-45.34,96.33c-.13.06-.22.09-.31.14-4.43,2.58-8.75,5.32-12.75,8.53-2.64,2.12-5.2,4.31-6.99,7.24-1.61,2.65-2.74,5.44-2.58,8.61.12,2.47,1.51,3.86,3.97,3.98,3.02.14,5.75-.83,8.2-2.43,8.07-5.27,12.16-12.6,11.22-22.41-.12-1.23-.34-2.46-.76-3.67Zm22.54,3.86c0,.15,0,.3,0,.45.07,1.97.18,3.95,1,5.79.67,1.5,1.5,1.6,2.54.33.7-.85,1.25-1.81,1.7-2.81,3.02-6.64,5.62-13.44,7.82-20.39.68-2.14,1.32-4.29,1.55-6.54.12-1.2-.32-1.69-1.53-1.58-1.24.11-2.25.78-3.22,1.49-2.18,1.61-3.59,3.85-4.94,6.14-3.12,5.29-4.9,10.95-4.91,17.13Zm72.46-7.84c.07-.73-.13-1.55-.31-2.38-.12-.55-.26-.64-.73-.21-2.98,2.74-5.02,6.07-6.23,9.91-.16.5-.29,1.02-.31,1.53-.02.33-.06.93.62.68,4.11-1.55,6.9-4.58,6.97-9.52Zm-24.32,5.14c-.22,0-.27.12-.34.21-2.38,3.24-5.07,6.23-7.78,9.2-.27.29-.9.61-.64.97.3.42.86-.01,1.29-.16.09-.03.18-.08.27-.13,2.21-1.32,4.19-2.9,5.64-5.06,1.02-1.51,1.63-3.16,1.56-5.02Zm-35.59,4.38s-.02-.04-.03-.06c-.01.02-.04.04-.04.05,0,.03.03.05.05.07,0-.02.01-.04.02-.06Z"/><path class="cls-1" d="m134.67,184.42s-.01.04-.02.06c-.02-.02-.04-.05-.05-.07,0-.01.02-.03.04-.05,0,.02.02.04.03.06Z"/></g></g></svg>