<?xml version="1.0" encoding="UTF-8"?><svg xmlns="http://www.w3.org/2000/svg" viewBox="0 0 300 300"><defs><style>.cls-1{fill:#fff;}.cls-2{fill:#ef7729;}.cls-3{fill:#433527;}</style></defs><g id="Fondos"><rect class="cls-2" width="300" height="300"/></g><g id="Texto"><g><path class="cls-1" d="m223.13,181.78c-.28,0-.56,0-.84,0h-.1c-7.99-.22-16.06-1.95-23.97-5.14-4.74-1.9-9.34-4.09-13.8-6.21-6.73-3.2-13.08-6.21-19.79-8.3l-.44-.15c-3.07-1.19-6.47-1.92-10.12-2.15-.87,0-1.72-.02-2.57-.04-2.23-.04-4.34-.08-6.33.05-3.5.34-6.66,1.06-9.39,2.13l-.46.16c-6.69,2.08-13.04,5.1-19.75,8.29-4.66,2.21-9.48,4.5-14.45,6.47-12.15,4.73-24.3,6.05-35.16,3.84-7.94-1.61-14.51-5.12-19.04-10.16l-.53.37.35-.58c-.08-.09-.15-.17-.23-.26-4.28-4.96-6.64-11.78-6.49-18.72-.23-7.15,1.79-13.62,5.71-18.23,4.25-5.1,11.17-7.93,18.05-7.38,5.09.28,9.85,2.69,12.75,6.47,2.08,2.73,2.98,6.19,2.6,9.82,1.11-1.01,2.23-2.05,3.38-3.12,4.65-4.33,9.45-8.8,15.1-12.51,7.96-5.34,16.62-8.17,25-8.17.04,0,.08,0,.11,0h0c9.35,0,18.04,2.88,24.47,8.23.97.79,1.91,1.65,2.83,2.59,3.72-3.75,8.05-6.61,12.68-8.31,9.09-3.41,19.37-3.37,28.9.15,6.61,2.41,13.02,6.47,20.15,12.76,1.84,1.62,3.6,3.29,5.31,4.91,1.29,1.22,2.54,2.4,3.79,3.54-.02-.21-.03-.43-.04-.64-.59-6.06,3.21-11.91,9.38-14.34,8.78-3.51,19.55-.41,25.02,7.23,3.98,5.39,5.47,12.51,4.48,21.69l-.02.2c-.78,5.65-3.31,10.87-7.15,14.93l.03.06-.05-.04c-1.22,1.29-2.57,2.46-4.04,3.48-6.59,4.7-15.13,7.1-25.34,7.1Zm14.66-37.5h0Zm-175.58-.04h0Z"/><path class="cls-3" d="m122.75,125c7.18-.03,14.54,2.03,20.12,6.67,2.86,2.31,5.17,5.22,7.13,8.31,3.53-5.7,8.68-10.55,15.04-12.89,7.75-2.91,16.5-2.71,24.23.14,6.75,2.47,12.66,6.76,18.01,11.49,4.19,3.7,8.07,7.75,12.38,11.31,2.27,1.84,4.72,3.57,7.51,4.53,3.72,1.27,8.11.07,10.77-2.79,2.46-2.68,2.31-7.31-.4-9.76-1.72-1.49-4.67-1.19-5.89.79-1.07,1.57-.47,3.53.37,5.06-2.22-1.62-4.44-3.88-4.44-6.83-.46-3.41,2.07-6.41,5.1-7.61,5.91-2.36,13.32-.33,17.05,4.88,3.59,4.86,3.87,11.24,3.25,17.02-.75,5.49-3.83,10.62-8.38,13.8-6.4,4.57-14.5,5.98-22.22,5.88-7.41-.2-14.75-1.88-21.62-4.65-11.49-4.62-22.24-11-34.1-14.69-3.94-1.53-8.12-2.35-12.33-2.61-3.35-.02-6.53-.18-9.69.04-3.86.37-7.7,1.16-11.31,2.58-12.06,3.75-22.98,10.3-34.68,14.92-9.88,3.85-20.84,5.63-31.33,3.5-5.87-1.19-11.71-3.78-15.67-8.41-3.39-3.93-5.02-9.19-4.86-14.35-.19-4.86.88-10.03,4.1-13.82,2.99-3.59,7.81-5.41,12.44-5.01,2.98.14,6,1.44,7.84,3.84,1.45,1.9,1.54,4.5.9,6.72-.77,2-2.37,3.56-4.1,4.75.88-1.49,1.42-3.46.38-5.02-1.29-2.08-4.45-2.29-6.13-.58-2.06,2.12-2.5,5.59-1.11,8.19,1.5,2.72,4.61,4.28,7.61,4.6,4.55.39,8.49-2.43,11.83-5.16,6.91-5.95,13.12-12.75,20.78-17.78,6.32-4.23,13.76-7.1,21.44-7.06h0Z"/></g></g></svg>