<?xml version="1.0" encoding="UTF-8"?><svg xmlns="http://www.w3.org/2000/svg" viewBox="0 0 300 300"><defs><style>.cls-1{fill:#fff;}.cls-2{fill:#1b1f23;}</style></defs><g id="Fondos"><rect class="cls-2" width="300" height="300"/></g><g id="Texto"><path class="cls-1" d="m195.05,101.49c-1.29-.05-2.54.22-3.79.48-2.1.43-4.12,1.15-6.1,1.97-2.41,1-4.72,2.2-6.98,3.51-1.79,1.04-3.54,2.14-5.24,3.3-.33.23-.65.07-.89,0-1.97-.63-4.01-.99-6.03-1.4-1.17-.24-2.36-.41-3.55-.58-1.06-.15-2.13-.3-3.2-.41-.78-.09-1.57-.24-2.37-.2-.16-.07-.34,0-.5-.07-.26,0-.51-.02-.77-.02-.19-.08-.39,0-.58-.06-.38,0-.75-.02-1.13-.03-.28-.09-.57.01-.85-.07-1.89-.05-3.78-.05-5.67,0-.28.08-.57-.03-.85.07-.38,0-.75.02-1.13.03-.19.07-.39-.02-.58.06-.26,0-.51.02-.77.02-.18.07-.38-.02-.56.07-1.18.04-2.35.19-3.52.33-1.09.13-2.18.28-3.26.46-1.1.18-2.2.35-3.29.58-1.42.3-2.83.65-4.25.98-.36.08-.72.15-1.06.28-.33.13-.59.05-.86-.13-2.39-1.64-4.88-3.1-7.44-4.46-1.8-.95-3.64-1.81-5.53-2.56-1.75-.69-3.54-1.3-5.39-1.67-.8-.16-1.61-.34-2.44-.38-.15-.09-.32,0-.47-.07-.88-.06-1.75-.07-2.62.07-.25.04-.43.13-.53.4-.92,2.44-1.67,4.93-2.08,7.52-.16,1.04-.37,2.07-.35,3.13-.09.18,0,.38-.07.56-.02.47-.07.93-.02,1.4-.06.42-.06.84,0,1.26,0,.43.01.87.02,1.3.07.18-.02.38.07.56.04,1.8.41,3.56.86,5.29.2.76.46,1.5.72,2.23.07.2.04.32-.09.47-1.51,1.67-2.83,3.47-4,5.39-1.68,2.75-2.91,5.68-3.76,8.78-.48,1.77-.83,3.57-1.01,5.4-.04.42-.1.83-.08,1.25-.07.16,0,.34-.07.49,0,.32-.02.63-.02.95-.06,1.32-.06,2.64,0,3.96,0,.49.01.99.02,1.48.08.25-.03.51.07.76,0,.26.02.52.02.77.07.18-.02.39.07.57,0,.2.02.4.02.6.07.15-.02.32.07.47.02,1.4.26,2.78.48,4.16.3,1.9.71,3.77,1.23,5.62.97,3.43,2.32,6.69,4.17,9.74,1.33,2.19,2.89,4.19,4.69,5.99,2.15,2.14,4.56,3.95,7.2,5.45,3.52,2.01,7.28,3.43,11.18,4.47,2.14.57,4.31,1.02,6.5,1.38,1.68.28,3.37.5,5.13.72-.33.39-.71.67-1.03,1.01-1.91,2.1-3.11,4.57-3.91,7.26-.33,1.12-.61,2.26-.71,3.42-.05.54-.5.55-.79.68-1.53.64-3.1,1.17-4.73,1.52-1.36.29-2.73.47-4.12.51-.45.04-.9.04-1.35,0-1.41,0-2.79-.21-4.14-.58-1.9-.51-3.66-1.36-5.27-2.51-1.12-.8-2.14-1.71-3.06-2.72-1.26-1.39-2.25-2.97-3.26-4.54-.64-.99-1.39-1.9-2.17-2.79-.49-.56-.99-1.12-1.54-1.61-1.2-1.05-2.44-2.04-3.89-2.76-1.05-.52-2.13-.95-3.26-1.21-.48-.11-.96-.22-1.46-.21-.3-.1-.62.02-.92-.07-.06,0-.12,0-.18,0-.28.08-.57-.03-.85.07-.85-.02-1.67.13-2.43.49-.85.39-1.07,1.07-.54,2.05.41.74,1.06,1.28,1.69,1.83.96.84,2.12,1.35,3.13,2.1,1.23.92,2.2,2.09,3.14,3.29,1.94,2.5,3.53,5.21,4.88,8.07.38.81.69,1.66,1.06,2.48.78,1.7,1.87,3.2,3.21,4.51,2.43,2.36,5.37,3.74,8.61,4.53,1.37.33,2.75.61,4.17.64.15.08.32,0,.47.07l.78.02c.24.09.51,0,.75.06.96.04,1.92.04,2.88,0,.25-.07.52.02.77-.07.31,0,.63-.02.94-.02.16-.06.33.01.48-.06,1.31-.02,2.6-.23,3.89-.41.85-.12,1.7-.27,2.55-.4.11.48.03.98.05,1.46.03.76-.05,1.52.04,2.27-.07.32-.03.65-.03.98.01,2.3.03,4.6.05,6.89.07,1.04,0,2.08.03,3.12,0,.18-.03.36.04.53-.09.68,0,1.36-.07,2.05-.21,1.91-1.45,3.33-3.32,3.74-.24.05-.49.08-.74.12-.39.04-.78.04-1.17,0-1.13.04-2.12-.5-3.14-.85-1.54-.53-3.05-1.17-4.56-1.8-2.26-.93-4.46-2.01-6.63-3.15-2.61-1.37-5.14-2.88-7.6-4.5-1.85-1.22-3.66-2.5-5.43-3.84-1.04-.79-2.04-1.62-3.03-2.47-1.02-.88-2.04-1.76-3.04-2.68-1.2-1.1-2.4-2.19-3.52-3.36-.82-.86-1.66-1.7-2.43-2.61-.96-1.12-1.93-2.24-2.87-3.39-1.63-1.98-3.15-4.02-4.6-6.13-2.6-3.79-4.87-7.77-6.87-11.91-1.04-2.16-1.98-4.37-2.86-6.6-.74-1.88-1.39-3.8-1.97-5.74-.52-1.74-.99-3.5-1.42-5.26-.42-1.7-.74-3.42-1.11-5.13-.27-1.23-.34-2.5-.56-3.74-.19-1.13-.27-2.28-.43-3.42-.09-.63-.13-1.29-.13-1.94-.07-.18.02-.38-.07-.56,0-.23-.02-.46-.02-.7-.07-.22.02-.45-.07-.67,0-.35-.02-.69-.02-1.04-.08-.31.03-.64-.07-.95,0-.9,0-1.8,0-2.69-.04-3.57.16-7.13.57-10.68,1.05-9.16,3.44-17.97,7.21-26.4,3.49-7.79,7.99-14.95,13.51-21.46,6.31-7.45,13.64-13.72,21.97-18.8,7.08-4.32,14.63-7.58,22.62-9.81,3.45-.96,6.94-1.71,10.47-2.24,5.78-.87,11.59-1.18,17.44-.94,10.75.44,21.08,2.73,31,6.88,7.86,3.29,15.1,7.62,21.72,12.98,9.9,8.01,17.77,17.67,23.6,28.99,3.7,7.18,6.37,14.74,8.01,22.65.98,4.75,1.59,9.54,1.8,14.38,0,.09-.05.22.09.27v.18c-.1.18-.02.38-.05.57,0,.17,0,.35,0,.52.02.33-.05.66.05.98v3.33c-.1.27-.02.54-.05.81,0,.2,0,.4,0,.6.02.22-.05.44.05.66v.18c-.19.33-.08.69-.1,1.03-.08.19,0,.4-.07.59,0,.26-.02.52-.03.78-.08.18,0,.39-.07.57,0,.2-.02.4-.02.6-.08.15,0,.32-.07.48-.29,2.88-.66,5.75-1.2,8.59-.81,4.26-1.9,8.46-3.32,12.56-1.13,3.27-2.45,6.47-3.94,9.6-2.12,4.47-4.63,8.7-7.44,12.76-1.59,2.28-3.3,4.47-5.1,6.6-2.01,2.38-4.14,4.65-6.38,6.8-2.37,2.27-4.86,4.41-7.46,6.41-3.44,2.64-7.04,5.03-10.82,7.16-2.55,1.44-5.17,2.74-7.84,3.93-1.84.81-3.71,1.53-5.59,2.25-1.32.5-2.64.95-4.07.82-.98-.09-1.87-.39-2.62-1.09-.71-.66-1.1-1.47-1.3-2.38-.08-.34-.07-.7-.07-1.06,0-2.79.02-5.58.03-8.37,0-.15-.02-.3-.03-.44.07-.16.04-.32.04-.49,0-1.82,0-3.64,0-5.46,0-.16-.03-.33.03-.49v-10.62c-.08-.28.03-.57-.07-.85,0-.26-.02-.52-.02-.77-.07-.15.02-.32-.07-.47-.06-.81-.22-1.61-.34-2.41-.21-1.33-.54-2.62-.99-3.87-.76-2.15-1.83-4.12-3.36-5.84-.38-.43-.78-.83-1.27-1.23,3.97-.46,7.82-1.08,11.61-2.08,2.64-.7,5.22-1.58,7.72-2.69,2.35-1.04,4.57-2.3,6.68-3.76.83-.57,1.63-1.21,2.38-1.9.75-.69,1.56-1.31,2.25-2.07,2.59-2.81,4.72-5.92,6.29-9.41.75-1.68,1.39-3.4,1.92-5.17.52-1.74.94-3.51,1.24-5.31.18-1.05.37-2.11.5-3.17.09-.75.26-1.5.21-2.28-.02-.25.13-.51.08-.78.09-.18,0-.38.07-.57,0-.26.02-.52.02-.78.09-.24-.01-.51.07-.75,0-.49.02-.99.02-1.48.09-.57.02-1.15.04-1.72,0-.16-.03-.32.03-.48v-.09c-.08-.55.03-1.11-.07-1.66-.03-1-.12-1.99-.24-2.98-.13-.98-.28-1.95-.46-2.93-.17-.92-.41-1.83-.66-2.73-.91-3.24-2.32-6.27-4.14-9.1-.71-1.11-1.51-2.17-2.36-3.18-.4-.47-.78-.96-1.22-1.4-.11-.11-.12-.19-.05-.35.6-1.37.93-2.82,1.22-4.28.22-1.1.41-2.2.44-3.32.09-.18,0-.38.07-.56,0-.44.02-.87.02-1.31.06-.39.06-.78,0-1.17.05-.49,0-.99-.02-1.48-.06-.16,0-.34-.07-.49-.06-.96-.2-1.9-.34-2.85-.18-1.19-.42-2.37-.72-3.54-.38-1.5-.88-2.96-1.44-4.41-.06-.14-.13-.21-.31-.25-.49-.1-.97-.2-1.47-.16-.24-.06-.48-.06-.71,0Z"/></g></svg>