<?xml version="1.0" encoding="UTF-8"?><svg xmlns="http://www.w3.org/2000/svg" viewBox="0 0 300 300"><defs><style>.cls-1{fill:#2378b1;}.cls-2{fill:#1773b0;}.cls-3{fill:#1875bc;}.cls-4{fill:#2d7fb8;}.cls-5{fill:#207abf;}.cls-6{fill:#1571af;}.cls-7{fill:#206fa5;}.cls-8{fill:#4699d4;}.cls-9{fill:#63b0e1;}.cls-10{fill:#3e86b6;}.cls-11{fill:#0f72b7;}.cls-12{fill:#1071b9;}.cls-13{fill:#2575ab;}.cls-14{fill:#237dc1;}.cls-15{fill:#307caf;}.cls-16{fill:#318ecd;}.cls-17{fill:#59abdf;}.cls-18{fill:#237ec2;}.cls-19{fill:#3c81b1;}.cls-20{fill:#227fc3;}.cls-21{fill:#1a75b1;}.cls-22{fill:#2c8bcb;}.cls-23{fill:#1e79bf;}.cls-24{fill:#1876bd;}.cls-25{fill:#499fd8;}.cls-26{fill:#1b6ca3;}.cls-27{fill:#267bb5;}.cls-28{fill:#1f77b2;}.cls-29{fill:#3381b5;}.cls-30{fill:#2572a6;}.cls-31{fill:#367dae;}.cls-32{fill:#0e75bb;}.cls-33{fill:#51a6dc;}.cls-34{fill:#4fa4db;}.cls-35{fill:#4da1d9;}.cls-36{fill:#3887bc;}.cls-37{fill:#489bd5;}.cls-38{fill:#1d74af;}.cls-39{fill:#3f88ba;}.cls-40{fill:#1b7bc0;}.cls-41{fill:#3383ba;}.cls-42{fill:#297ab2;}.cls-43{fill:#0d73bb;}.cls-44{fill:#1b72ad;}.cls-45{fill:#0770b7;}.cls-46{fill:#2271a5;}.cls-47{fill:#367fb2;}.cls-48{fill:#287eb6;}.cls-49{fill:#337eb0;}.cls-50{fill:#196fa9;}.cls-51{fill:#317bac;}.cls-52{fill:#3b89bd;}.cls-53{fill:#0b74bc;}.cls-54{fill:#2884c6;}.cls-55{fill:#1578bc;}.cls-56{fill:#2675ac;}.cls-57{fill:#2682c5;}.cls-58{fill:#489cd6;}.cls-59{fill:#2e8dcc;}.cls-60{fill:#3390ce;}.cls-61{fill:#3c84b4;}.cls-62{fill:#1c7cc1;}.cls-63{fill:#1d72aa;}.cls-64{fill:#3882b4;}.cls-65{fill:#2480c4;}.cls-66{fill:#1d7bc0;}.cls-67{fill:#2a7cb3;}.cls-68{fill:#56a8dd;}.cls-69{fill:#2973a8;}.cls-70{fill:#2c2c32;}.cls-71{fill:#5bade0;}.cls-72{fill:#3883b6;}.cls-73{fill:#2a78ac;}.cls-74{fill:#1978be;}.cls-75{fill:#3b87b9;}.cls-76{fill:#2f7fb4;}.cls-77{fill:#3792d0;}.cls-78{fill:#1474bb;}.cls-79{fill:#3a7faf;}.cls-80{fill:#3a85b8;}.cls-81{fill:#1d77bd;}.cls-82{fill:#0d74b8;}.cls-83{fill:#2a88c9;}.cls-84{fill:#4497d2;}.cls-85{fill:#1f7dc1;}</style></defs><g id="Fondos"><rect class="cls-70" width="300" height="300"/></g><g id="Texto"><g><path class="cls-71" d="m221.87,86.03c2.65,1.09,5.16,2.37,6.69,4.97.66,1.12,1.11,2.31,1.32,3.59.02.11,0,.22.13.28v1.2c-.13.21-.07.43-.07.65,0,2.13,0,4.27,0,6.4,0,.24.06.49-.06.72-.27.21-.59.18-.9.18-12.7,0-25.4,0-38.1,0-.31,0-.63.02-.91-.16-.36-.5-.18-1.07-.22-1.61-.03-.33,0-.66.01-.99-.04-2.91-.03-5.82,0-8.73,0-.38,0-.75-.01-1.13-.03-1.41,0-2.81,0-4.22,0-.26,0-.53.17-.76.4-.28.86-.19,1.29-.19,9.76,0,19.52,0,29.29,0,.46,0,.94.06,1.36-.21Z"/><path class="cls-8" d="m230,205.25c-.25.28-.21.65-.3.98-.77,2.82-2.41,4.97-4.99,6.36-.97.53-1.99.96-2.99,1.44-.33-.13-.66-.02-.99-.02-9.87,0-19.73,0-29.6,0-.39,0-.8.06-1.17-.16-.35-.5-.17-1.07-.21-1.61-.03-.37.01-.75,0-1.12-.03-3.02,0-6.03,0-9.05,0-.29,0-.58.19-.83.42-.3.9-.2,1.36-.2,12.29,0,24.57,0,36.86,0,1.66,0,1.49.11,1.49-1.52.02-4.4-.02-8.8.02-13.2-.03-5.03-.03-10.06,0-15.08-.03-4.98-.03-9.96,0-14.95-.03-4.05-.03-8.09,0-12.14-.04-3.19-.01-6.38-.01-9.57,0-.22.01-.44.12-.65.05-.09.13-.11.22-.08v71.41Z"/><path class="cls-16" d="m75.7,131.58c-1.25-1.14-2.5-2.26-3.74-3.41-.95-.88-1.59-1.95-1.92-3.21-.04-.16,0-.37-.21-.46v-.67c.09-.33.33-.45.65-.47.31-.02.62-.02.93-.02,11.56,0,23.12,0,34.68,0,.29,0,.58.01.86.08,2.2,1.65,4.4,3.3,6.59,4.95.94.71,1.87,1.42,2.81,2.13.17.13.33.3.58.28.19.15.28.33.11.56-.4.26-.86.17-1.3.17-12.82,0-25.64,0-38.46,0-.53,0-1.07,0-1.6.06Z"/><path class="cls-60" d="m106.96,123.42c-.3.19-.64.14-.97.14-11.75,0-23.5,0-35.25,0-.33,0-.68-.07-.9.27v-1.74c.23-.16.2-.43.26-.65.29-.97.73-1.88,1.45-2.59,1.82-1.79,3.73-3.48,5.65-5.16.34-.19.71-.23,1.1-.23,4.94,0,9.88,0,14.81,0,.29,0,.57.06.86.09,3.22,2.43,6.45,4.86,9.67,7.3,1.11.84,2.21,1.71,3.32,2.56Z"/><path class="cls-2" d="m69.83,175.48c.37-.69.48-1.5.9-2.18.5-.82,1.16-1.5,1.9-2.1.18-.11.37-.12.58-.12,9.6.08,19.21.02,28.81.03,1.02,0,2.02-.32,3.05-.28.57-.07.9.36,1.24.67.97.88,1.9,1.8,3.03,2.49.17.1.43.21.27.51-.84.74-1.74,1.4-2.67,2.04-.53-.06-1.06-.06-1.6-.06-11.16,0-22.32,0-33.49,0-.73,0-1.51-.16-2.03.58v-1.6Z"/><path class="cls-2" d="m69.83,177.09c.07-.84.63-.81,1.28-.81,11.68.02,23.37.01,35.05.02.27,0,.65-.2.78.27-2.01,1.6-4.06,3.15-6.14,4.66-.51-.06-1.02-.05-1.53-.05-8.68,0-17.36,0-26.05,0-.51,0-1.02.03-1.53.07-.92-.84-1.4-1.92-1.72-3.09-.03-.1,0-.22-.14-.26v-.8Z"/><path class="cls-37" d="m230,133.84s-.09,0-.13,0c-.33-.4-.19-.87-.21-1.32-.02-.41-.02-.83,0-1.24-.03-4.22-.03-8.44,0-12.66-.04-4.69-.01-9.38-.01-14.07,0-.27.02-.54.21-.75,0-2.35,0-4.7,0-7.05,0-.23-.09-.49.13-.69v37.77Z"/><path class="cls-54" d="m125.21,176.72c-2.56-2.32-5.11-4.64-7.67-6.95-.25-.23-.44-.57-.85-.57-1.03-.72-1.87-1.66-2.8-2.5-.2-.18-.33-.43-.06-.68.42-.28.9-.22,1.36-.22,6.04,0,12.09,0,18.13,0,9.53,0,19.07,0,28.6,0,.22,0,.44,0,.66.02.36-.06.65.08.92.29,4.13,3.12,8.24,6.26,12.37,9.39.27.2.54.43.35.83-.19.27-.48.3-.77.32-.31.02-.62.01-.93.01-15.91,0-31.82,0-47.73,0-.53,0-1.07,0-1.6.08Z"/><path class="cls-57" d="m125.21,176.72c.03-.22.15-.3.36-.3.2,0,.4,0,.6,0,16.39,0,32.78,0,49.16,0,.35,0,.81.16.88-.43.6.11.99.57,1.45.89,1.24.86,2.45,1.77,3.62,2.72.21.17.51.32.4.69-.1.41-.17.82-.45,1.17-.27.34-.15.77-.18,1.16-.03.43.12.9-.25,1.27-.46.21-.51.62-.53,1.06-.04,1.13-.33,1.43-1.47,1.55-.38.04-.76.03-1.13.03-13.65,0-27.3,0-40.94,0-.29,0-.58-.03-.86-.06-2.46-2.22-4.92-4.44-7.36-6.67-1.11-1.01-2.29-1.96-3.32-3.07Z"/><path class="cls-65" d="m135.89,186.45c.23-.27.54-.15.81-.15,13.83,0,27.65,0,41.48,0,.18,0,.36,0,.53,0,1.16-.05,1.36-.26,1.36-1.42,0-1,.03-1.05.8-1.11.37.19.32.55.34.87.08,1.02-.14,2.03-.14,3.06.01,2.02.02,4.04,0,6.06-.04.82.17,1.65-.16,2.45-.49.26-.62.69-.63,1.22-.02,1.14-.23,1.33-1.39,1.36-.58.01-1.16,0-1.73,0-8.67,0-17.34,0-26,0-.56,0-1.11.01-1.66.08-2.25-2.04-4.51-4.07-6.76-6.11-2.14-1.94-4.26-3.89-6.39-5.83-.16-.15-.31-.32-.46-.47Z"/><path class="cls-18" d="m149.5,198.87c.18-.42.56-.29.87-.29,9.45,0,18.89,0,28.34,0,.18,0,.36,0,.53,0,.58,0,.93-.2.84-.87-.04-.26-.02-.53,0-.8.03-.49.24-.8.8-.74.21.21.21.48.21.74,0,1.53.03,3.06-.01,4.58.05,2.26,0,4.51-.01,6.77,0,.18-.05.35-.16.49-.16.13-.35.19-.54.25-.51.16-.74.47-.75,1.03-.03,1-.21,1.16-1.2,1.16-3.2.01-6.4,0-9.59,0-1.35,0-2.71,0-4.06,0-.52,0-1.02.04-1.5.22-2.42-2.19-4.84-4.37-7.24-6.56-2.18-1.99-4.34-3.99-6.51-5.99Z"/><path class="cls-84" d="m189.97,213.79c10.3,0,20.61,0,30.91,0,.3,0,.64-.11.84.24-2.68,1.18-5.26,2.57-7.9,3.83-7.49,3.6-14.98,7.22-22.48,10.8-3.12,1.49-6.23,1.33-9.26-.33-.11-.06-.21-.16-.31-.24.45-.28.86.08,1.29.1.07.01.13.03.2.05.53.09,1.07.09,1.6-.02.69-.1,1.35-.31,1.96-.65,1.54-.83,2.49-2.1,2.85-3.82.01-.1.03-.21.06-.31.09-.29.05-.59.04-.89-.04-2.66-.01-5.31-.01-7.97,0-.28-.02-.58.22-.8Z"/><path class="cls-6" d="m71.7,181.24c.14-.32.42-.28.68-.28,9.24,0,18.49,0,27.73,0,.26,0,.55-.05.69.27-3.4,2.6-6.81,5.19-10.21,7.79-1.13.86-2.21,1.77-3.65,2.12-2.16.53-4.16.16-5.8-1.27-3.15-2.74-6.2-5.6-9.28-8.41-.06-.06-.11-.14-.16-.21Z"/><path class="cls-14" d="m163.26,211.42c.13-.52.56-.43.92-.43,4.8,0,9.6-.02,14.4.01.69,0,.94-.21.85-.88-.15-1.03.11-1.2,1.47-1.41.26.27.19.62.21.94.08,1.88-.1,3.75-.16,5.62,0,.4-.12.78-.18,1.17-.07.21-.08.43-.1.66-.05.8-.2,1.54-1.02,1.95-.27.13-.39.41-.44.71-.04.26-.1.52-.18.78-.23.74-.56,1-1.35,1.04-1.06.05-2.13-.08-3.19.09-2.66-2.42-5.32-4.83-7.97-7.25-1.09-1-2.26-1.91-3.25-3.01Z"/><path class="cls-44" d="m109.61,174.52c-.04-.08-.06-.19-.12-.22-1.58-.87-2.73-2.28-4.15-3.36-1.02-.65-1.86-1.5-2.64-2.41-.28-.32-.55-.64-.89-.9-.51-.4-.99-.8-1.11-1.51-.07-.38-.41-.62-.71-.85-.32-.24-.62-.51-.88-.81-.16-.18-.36-.36-.19-.64.53-.36,1.14-.22,1.73-.26.19-.01.46.08.54-.12.1-.25-.17-.38-.33-.5-.38-.3-.74-.62-1.07-.98-.19-.21-.41-.41-.36-.74.31-.23.49.04.67.2.43.38.83.79,1.25,1.18.58.53,1.19.98,1.9,1.29.88.82,1.94,1.46,2.51,2.6.18.36.59.53.87.81,1.75,1.75,3.6,3.4,5.44,5.05.07.06.11.14.12.23-.83.69-1.68,1.37-2.59,1.95Z"/><path class="cls-26" d="m113.74,166.28c.79.93,1.79,1.65,2.65,2.51.13.13.28.21.3.41-.72.54-1.43,1.08-2.15,1.62-.42.17-.68-.15-.91-.38-1.54-1.51-3.16-2.92-4.73-4.39-1.36-1.27-2.45-2.8-3.91-3.97-.19-.15-.37-.33-.4-.59.33-.54.24-.97-.31-1.32-.18-.12-.32-.31-.47-.47-.23-.23-.33-.48-.12-.77.26-.36.11-.62-.2-.84-.47-.34-.88-.75-1.26-1.19-.28-.32-.33-.64.17-.82.31.02.54.21.75.4,1.71,1.62,3.47,3.18,5.2,4.77,1.65,1.52,3.32,3.01,4.96,4.54.16.15.36.27.42.5Z"/><path class="cls-50" d="m104.67,161.47c.26.37.58.66.93.94.52.41,1.01.85,1.34,1.45.28.52.82.8,1.23,1.19,1.23,1.18,2.4,2.42,3.69,3.54.78.68,1.55,1.38,2.33,2.06.09.08.23.11.35.16-.75.63-1.53,1.23-2.34,1.77-.88-.46-1.48-1.27-2.22-1.89-1.13-.96-2.14-2.06-3.24-3.06-1.25-1.14-2.17-2.59-3.54-3.61.38-.62.1-1.01-.43-1.35-.27-.18-.49-.44-.71-.7-.36-.43-.29-.69.26-.76.4-.05.77-.17,1.14-.32.47.05.87.26,1.2.59Z"/><path class="cls-81" d="m183.15,228.34c-.48.04-.9-.24-1.38-.25-.93-.47-1.63-1.21-2.36-1.93-.31-.76-.04-2.11.55-2.61.27-.23.41-.5.46-.84.06-.46.08-.92.27-1.35.61-.35.95-.81,1.02-1.57.11-1.2,1.13-1.63,2.28-1.05.14,1.13-.04,2.25-.16,3.37-.06.57-.14,1.15-.22,1.72.1,1.3-.14,2.59-.14,3.89,0,.24-.05.49-.32.6Z"/><path class="cls-5" d="m180.75,221.4c-.06.55-.08,1.1-.18,1.63-.05.26-.09.57-.46.65-.26.05-.38.26-.43.53-.12.65-.25,1.29-.26,1.95-1.65-1.5-3.29-2.99-4.94-4.49.04-.33.29-.27.51-.28.71,0,1.42-.02,2.13,0,1.65.06,1.62-.3,1.88-1.68.07-.37.17-.68.48-.81.87-.37.97-1.11,1.01-1.9,0-.19-.06-.41.13-.56.2.19.2.44.18.68-.12,1.42,0,2.84-.05,4.26Z"/><path class="cls-4" d="m124.57,123.83c4.49-4.1,8.97-8.2,13.46-12.3.05-.04.11-.07.17-.11.17-.13.37-.12.57-.12,13.21.06,26.41.01,39.62.03.36,0,.71-.05,1.06-.06q1.41.22,1.51,1.68c.02.33.11.65.11.98.01.97,0,1.95.23,2.91.12.47.08.98-.04,1.45-.17.63-.19,1.27-.18,1.91.04.35-.22.52-.44.69-2.33,1.77-4.65,3.56-7,5.3-.22.16-.44.31-.73.16-.45-.04-.89-.04-1.34-.04-13.92,0-27.85,0-41.77.01-1.28,0-2.42-.21-3.36-1.14-.55-.55-1.35-.77-1.88-1.35Z"/><path class="cls-41" d="m179.55,111.42c-.34.1-.69.14-1.05.14-13.04,0-26.09,0-39.13,0-.41,0-.79-.1-1.18-.14,2.59-2.37,5.17-4.75,7.76-7.12,1.8-1.65,3.61-3.3,5.42-4.94.25-.22.51-.43.76-.64.44-.2.9-.2,1.37-.2,7.98,0,15.95,0,23.93,0,.89,0,1.78.02,2.66-.11.8.07,1.04.23.96,1.01-.13,1.35.55,2.58.45,3.92-.02.28.21.48.34.7.1.46.01.92,0,1.39,0,.23-.08.45-.28.58-.44.27-.51.68-.5,1.15.01.74.09,1.49-.44,2.15-.23.29-.08.73-.1,1.11-.04.77-.22.96-.99,1.01Z"/><path class="cls-48" d="m124.57,123.83c1,.26,1.77.93,2.51,1.57.66.56,1.36.69,2.14.69,8.84,0,17.69,0,26.53,0,5.55,0,11.11,0,16.66,0,.25,0,.6-.18.73.24-.14.44-.53.64-.86.89-3.87,2.93-7.74,5.87-11.6,8.81-.28.21-.55.46-.95.4-5.85,0-11.7,0-17.54,0-1.54,0-2.99-.24-4.18-1.38-.57-.54-1.24-1.03-2.11-1.04-.19,0-.37-.07-.53-.16-1.63-1.04-3.07-2.33-4.59-3.51-1.58-1.22-3.2-2.39-4.76-3.62-.29-.23-.62-.3-.97-.36-.81-.15-1.45-.57-1.83-1.33.45-.4.89-.81,1.34-1.21Z"/><path class="cls-9" d="m221.87,86.03c.09.23.06.4-.22.42-.18.02-.36,0-.53,0-10.38,0-20.76,0-31.13,0-.23-.2-.22-.47-.22-.73,0-1.41-.03-2.81,0-4.22.01-1.22-.02-2.43.01-3.65.05-1.62-.42-3.05-1.46-4.29-.96-1.01-2.12-1.62-3.5-1.81-.87-.18-1.7.03-2.53.24-.24.06-.49.24-.75.05,1.2-.9,2.57-1.36,4.03-1.6,2.21-.37,4.27.12,6.25,1.07,9.84,4.74,19.69,9.48,29.54,14.23.18.09.34.19.51.29Z"/><path class="cls-36" d="m180.22,98.6c-1.45.24-2.92.13-4.38.13-7.59.01-15.18,0-22.78,0-.31,0-.62-.01-.93-.02,1.97-1.82,3.94-3.65,5.92-5.45,1.77-1.61,3.55-3.21,5.33-4.81.18-.1.38-.1.58-.09,4.66.05,9.33,0,13.99.02.18,0,.36,0,.53-.01.49-.01.74-.24.71-.75,0-.11,0-.22,0-.33.04-.88.29-1.07,1.18-.96.45.22.43.64.41,1.03-.02.53.1,1,.45,1.41.18.63.18,1.29.06,1.9-.32,1.59-.25,3.2-.36,4.81-.02.22-.01.44-.09.65-.4.46-.51,1-.47,1.59.02.3.04.62-.19.88Z"/><path class="cls-52" d="m180.48,86.46q-1.07,0-1.07,1.04c0,1.07-.02,1.1-1.13,1.1-4.6,0-9.19,0-13.79,0-.38,0-.75-.03-1.11-.14,1.64-1.52,3.28-3.04,4.93-4.55,2.8-2.56,5.61-5.11,8.42-7.66.08-.07.17-.13.26-.2.23-.14.47-.11.7-.02.44.18.89.25,1.37.25.57,0,.87.33.91.86.05.68.28,1.29.61,1.88.35.61.16,1.36.42,2.01.09,1.48-.11,2.96-.07,4.44,0,.39.05.83-.45,1Z"/><path class="cls-77" d="m93.97,113.56c-.26.16-.56.12-.84.12-5.31,0-10.62,0-15.93,0,1.31-1.2,2.58-2.45,3.93-3.59,2.16-1.82,5.33-2.01,7.69-.43,1.79,1.2,3.47,2.54,5.15,3.89Z"/><path class="cls-73" d="m118.58,129.31c.67-.66,1.34-1.32,2.08-1.89.33-.17.55.08.77.24.5.36.98.76,1.56,1.01.73.5,1.42,1.06,2.14,1.58.55.41,1.05.88,1.79.97.24.03.43.22.62.37,1.71,1.34,3.48,2.61,5.18,3.95.2.16.45.3.49.6,0,.11-.03.2-.12.27-.67.09-1.32-.13-1.97-.14-1.37,0-2.45-.58-3.45-1.46-.55-.49-1.18-.87-1.96-.84-.85-.26-1.45-.91-2.15-1.41-.7-.5-1.4-.96-2.24-1.24-1.09-.37-1.97-1.13-2.72-2.02Z"/><path class="cls-69" d="m118.58,129.31c.61.46,1.22.93,1.84,1.39.41.3.85.51,1.36.62.95.22,1.59.99,2.37,1.52.49.33.92.75,1.47,1,1.1.58,2.07,1.36,2.99,2.18,1.11.99,2.29,1.88,3.53,2.68.91.59,1.75,1.28,2.61,1.94.14.11.28.22.23.44-.31.32-.58.08-.83-.08-.45-.28-.91-.58-1.28-.95-.85-.85-1.87-1.22-3.05-1.21-.71,0-1.28-.31-1.82-.72-.41-.31-.81-.62-1.23-.92-.6-.42-1.2-.86-1.99-.84-.24,0-.4-.17-.58-.31-.81-.62-1.62-1.25-2.46-1.82-.28-.19-.56-.37-.92-.3-.11,0-.23-.01-.32-.08-1.16-.87-2.37-1.67-3.43-2.68-.05-.13-.1-.25-.15-.37.55-.49,1.09-.98,1.64-1.48Z"/><path class="cls-67" d="m122.96,128.77c-.63-.12-1.06-.59-1.56-.94-.23-.16-.43-.38-.74-.4.85-.79,1.71-1.59,2.56-2.38.68.57,1.27,1.24,2.31,1.24.52,0,.91.57,1.35.9,1.62,1.22,3.24,2.44,4.82,3.71,1.2.96,2.42,1.9,3.66,2.82-.86.33-1.65.09-2.38-.35-.62-.38-1.18-.86-1.76-1.3-.51-.39-1.08-.65-1.73-.56-1.72.24-3.13-.36-4.36-1.5-.63-.59-1.38-.95-2.18-1.22Z"/><path class="cls-39" d="m180.88,80.98c-.24-1.16-.77-2.25-1.03-3.39-.25-1.09-.14-1.13-1.27-1.14-.57,0-1.02-.44-1.58-.42,1.49-1.37,2.87-2.85,4.54-4,.91-.3,1.83-.59,2.8-.53.19.01.4-.04.55.13-.14.17-.35.2-.54.19-.52-.02-.67.29-.59.72.22,1.1-.01,2.2-.05,3.3-.03.82.2,1.62.07,2.44-.22.46-.62.61-1.09.61-.24,0-.49,0-.73.02-.45.02-.63.27-.61.7.01.29.12.57.08.86-.05.3-.07.66-.55.51Z"/><path class="cls-17" d="m229.87,103.81c0,4.94,0,9.88,0,14.82-.37.3-.8.21-1.22.21-7.78,0-15.57,0-23.35,0-4.58,0-9.16,0-13.74,0-.24,0-.49,0-.73.01-.32.02-.48.18-.5.5-.01.24-.01.49-.01.73-.01,3.74.03,7.47-.02,11.21.03,4.27.03,8.54,0,12.82.03,4.05.03,8.1,0,12.15.03,4.98.03,9.96,0,14.94.04,4.84.01,9.68.01,14.52,0,.16-.01.31-.05.46-.04.13-.11.24-.25.29-.17,0-.22-.12-.23-.27-.04-.4-.03-.8-.03-1.2,0-23.26,0-46.52,0-69.77,0-.51,0-1.02.02-1.53-.03-3.05-.01-6.1,0-9.15,0-.26,0-.54.23-.74,13.3,0,26.59,0,39.89,0Z"/><path class="cls-79" d="m189.95,81.38c0,1.69.02,3.38.03,5.07,0,1.65-.02,3.3-.03,4.94-.24.51-.09,1.05-.11,1.58-.01.35-.05.66-.34.89-.28.22-.27.54-.28.85q-.03,1.34-1.26,1.75c-.19.06-.35.21-.57.15-.39-.28-.55-.66-.54-1.14,0-.53-.02-1.05.02-1.58.09-1.79.32-3.57.17-5.37.08-.35.09-.71.07-1.06-.04-.61.07-1.14.63-1.51.32-.21.3-.58.29-.91-.02-.54.04-1.02.62-1.28.31-.14.31-.46.32-.75,0-.35-.05-.72.09-1.06.15-.39.31-.83.9-.59Z"/><path class="cls-51" d="m189.98,103.81c0,3.29-.01,6.58-.02,9.87-.66.83-1.58,1.34-2.41,1.96-.19.14-.42.16-.58-.08-.18-.33-.13-.69-.15-1.04-.1-2.61.45-5.19.3-7.8.02-.32.18-.55.47-.66.46-.19.61-.55.58-1.01-.03-.52.08-.96.54-1.28.37-.26.41-.66.4-1.07,0-.38-.01-.76.18-1.1.14-.25.29-.53.66-.31,0,.84.02,1.69.03,2.53Z"/><path class="cls-31" d="m189.95,101.27c-.59.08-.64.55-.64.98,0,.77.04,1.49-.8,1.93-.29.15-.14.58-.14.88.02.59-.07,1.07-.78,1.17-.21.03-.29.19-.3.38-.27,0-.31-.18-.33-.39.18-.85.18-1.69-.04-2.55-.21-.79-.07-1.62-.09-2.43.03-.98-.17-1.98.32-2.92.15-.29.06-.65.07-.98.01-.26-.01-.53.2-.74.23-.26.49-.41.86-.41.53,0,.81-.27.75-.84-.03-.28,0-.57,0-.86-.01-.33-.03-.63.39-.79.34-.13.24-.51.29-.81.07-.5-.25-1.06.25-1.49,0,3.29,0,6.58,0,9.87Z"/><path class="cls-22" d="m95.76,150.12c.05-.34-.26-.45-.44-.61-3.7-3.4-7.42-6.78-11.12-10.17-.13-.12-.25-.25-.37-.38,0-.37.3-.4.54-.47.3-.08.62-.06.93-.06,13.58,0,27.15,0,40.73,0,.18,0,.36,0,.53.02.38-.07.68.1.96.33.88.7,1.79,1.36,2.7,2.04,3.09,2.4,6.24,4.72,9.34,7.11.88.68,1.66,1.48,2.7,1.94.19.19.39.35.58.54.18.18.33.38.05.61-.43.19-.88.12-1.32.12-14.17,0-28.33,0-42.5,0-.53,0-1.07-.01-1.59.12-.83,0-1.25-.61-1.72-1.14Z"/><path class="cls-59" d="m126.83,138.52c-.25.23-.55.12-.83.12-13.64,0-27.29,0-40.93,0-.44,0-.89-.05-1.24.31-1.14-1.01-2.29-2.01-3.42-3.02-1.52-1.37-3.03-2.76-4.55-4.14-.06-.06-.1-.14-.15-.21.02-.18.13-.27.31-.27.2,0,.4,0,.6,0,13.22,0,26.44,0,39.65,0,.27,0,.58.11.82-.14,1.15.65,2.11,1.56,3.18,2.32.18.13.37.24.55.36.87.35,1.55,1,2.26,1.58,1.06.86,2.16,1.68,3.24,2.51.21.16.45.29.5.58Z"/><path class="cls-21" d="m98.93,163.87c.18.56.66.85,1.08,1.2.44.37.93.7.93,1.36,0,.25.19.4.36.53.98.73,1.71,1.71,2.55,2.58.48.49,1.12.8,1.48,1.4-1.02.13-2.05.38-3.07.38-9.53.03-19.06.02-28.59.03-.36,0-.69-.14-1.05-.14,2.75-2.5,5.49-4.99,8.24-7.49.37-.19.77-.19,1.17-.19,4.05,0,8.1,0,12.15,0,.33,0,.67.01,1-.06.32-.07.36-.23.12-.45-.37-.32-.77-.61-1.07-1-.34-.44-.29-.61.24-.91.59-.03.88.46,1.27.75.37.28.66.66,1.01.96.47.39.96.71,1.6.75.22.02.44.07.57.29Z"/><path class="cls-28" d="m94.66,161.2c-.67.3-.68.32-.18.82.41.4.86.76,1.28,1.16.24.22.31.38-.13.44-.39.05-.78.13-1.18.13-4.52-.01-9.05-.01-13.57-.02,1.93-1.77,3.85-3.55,5.78-5.32.88-.81,1.78-1.6,2.67-2.4,1.05.71,1.93,1.61,2.82,2.5.67.67,1.3,1.38,2.05,1.97.22.18.53.35.47.73Z"/><path class="cls-38" d="m94.66,161.2c-1.73-1.54-3.21-3.35-5.05-4.79-.15-.12-.28-.21-.29-.41.94-.93,1.92-1.82,2.93-2.68.26,1.08,1.32,1.49,1.92,2.28.91,1.19,2.19,2.01,3.09,3.19.52.68,1.28,1.1,1.83,1.74.16.19.45.32.36.65.27.61.8.99,1.26,1.43.09.09.24.14.32.23.18.21.57.35.48.66-.12.38-.53.21-.82.21-.59.02-1.19-.01-1.77.14-1.36-.07-2.33-.83-3.2-1.79-.31-.34-.71-.59-1.07-.88Z"/><path class="cls-63" d="m99.46,161.2c-.42-.52-.88-.99-1.42-1.39-.52-.38-.84-.98-1.32-1.39-1.47-1.27-2.61-2.88-4.17-4.06-.37-.28-.3-.66-.3-1.03.58-.53,1.16-1.06,1.74-1.59.67.7,1.41,1.33,2.1,2.01,1.47,1.47,2.94,2.94,4.49,4.33.94.84,1.89,1.67,2.78,2.57.08.08.16.16.11.29-.24.36-.62.37-1,.4-.17.01-.4-.06-.48.13-.11.24.16.33.29.46.25.28.51.56.81.79.79.63.79.62.12,1.28-1.25-.44-2.09-1.41-3.01-2.27-.22-.2-.37-.51-.72-.53Z"/><path class="cls-7" d="m103.47,160.94c-1.13-1.02-2.28-2.02-3.39-3.07-1.29-1.21-2.58-2.42-3.8-3.69-.61-.63-1.23-1.26-1.88-1.86-.17-.16-.4-.3-.4-.58.59-.54,1.17-1.08,1.76-1.62.56.25.92.77,1.43,1.07.55.23.91.71,1.33,1.09,1.16,1.04,2.31,2.08,3.45,3.14.2.19.49.34.43.7-.34.25-.3.49,0,.75.41.36.76.8,1.23,1.11.35.24.69.55.22,1-.24.22-.17.41.06.6.22.19.38.46.62.6.66.38.65.8.14,1.29-.44-.08-.8-.37-1.2-.53Z"/><path class="cls-25" d="m190.1,186.3c0-5.03,0-10.05,0-15.08.36-.3.8-.22,1.22-.22,7.24,0,14.49,0,21.73,0,5.22,0,10.45,0,15.67,0,.39,0,.81-.07,1.15.22v15.08c-.36.3-.8.22-1.22.22-7.2,0-14.4,0-21.61,0-5.27,0-10.54,0-15.8,0-.39,0-.81.09-1.15-.21Z"/><path class="cls-58" d="m190.1,186.3c13.26,0,26.52,0,39.77,0,0,4.76,0,9.52.01,14.28,0,.52-.13.68-.67.68-13.08-.02-26.16-.01-39.24-.02-.03-.03-.06-.06-.09-.09-.16-.29-.13-.6-.13-.91,0-4.33-.02-8.66.02-12.99,0-.28-.04-.58.19-.82.05-.05.1-.09.14-.14Z"/><path class="cls-35" d="m229.87,171.21c-13.26,0-26.51,0-39.77,0,0-4.98,0-9.97,0-14.95.36-.3.8-.22,1.22-.22,7.2,0,14.4,0,21.6,0,5.27,0,10.53,0,15.8,0,.39,0,.81-.07,1.15.22,0,4.98,0,9.97,0,14.95Z"/><path class="cls-33" d="m190.1,144.12c0-4.27,0-8.54,0-12.81.36-.3.8-.22,1.22-.22,7.09,0,14.18,0,21.27,0,5.38,0,10.76,0,16.13,0,.39,0,.81-.07,1.15.22,0,.85,0,1.69,0,2.54,0,3.43,0,6.85,0,10.28-.36.3-.8.22-1.22.22-7.24,0-14.49,0-21.73,0-5.22,0-10.45,0-15.67,0-.39,0-.81.08-1.15-.21Z"/><path class="cls-34" d="m190.1,144.12c13.26,0,26.51,0,39.77,0,0,4.05,0,8.1,0,12.15-13.26,0-26.51,0-39.77,0,0-4.05,0-8.1,0-12.15Z"/><path class="cls-11" d="m189.97,201.24c0,3.3-.02,6.59-.02,9.89-.56.49-.45,1.15-.48,1.78-.02.34.12.79-.42.9-.29-.25-.22-.6-.23-.92-.02-.59.01-1.19,0-1.78-.02-2.36,0-4.72.02-7.08,0-.17,0-.34.04-.5.17-.51.04-1.05.13-1.58.11-.67.37-.86.94-.7h.02Z"/><path class="cls-45" d="m189.16,213.79c.26-.54.14-1.12.12-1.68-.02-.54.13-.88.67-.99,0,.89.01,1.78.02,2.66,0,2.98-.01,5.97-.02,8.95-.15.25.03.55-.12.8,0,.09,0,.17,0,.26-.48-.04-.42-.43-.45-.74-.16-1.44-.24-2.89-.33-4.34-.15-1.44-.06-2.88-.07-4.31,0-.22.01-.45.2-.61Z"/><path class="cls-68" d="m229.87,131.3c-13.26,0-26.51,0-39.77,0,0-3.98.01-7.95-.02-11.93,0-.64.21-.76.79-.76,13,.01,26,.01,38.99.01,0,4.23,0,8.45,0,12.68Z"/><path class="cls-83" d="m142.99,150.76c2.14,1.61,4.3,3.21,6.43,4.83,4,3.02,7.98,6.06,11.97,9.09.5.38.99.78,1.48,1.17-.25.28-.59.15-.88.15-15.73,0-31.47,0-47.2,0-.37,0-.77-.08-1.05.27-.86-.53-1.51-1.3-2.26-1.96-2.35-2.1-4.62-4.28-6.97-6.37-.69-.62-1.29-1.36-2.11-1.82-1.27-1.39-2.76-2.56-4.13-3.85-.37-.35-.77-.67-1.08-1.08.37-.24.78-.28,1.21-.28,14.57,0,29.14,0,43.71,0,.29,0,.63.13.88-.16Z"/><path class="cls-20" d="m181.71,180.15c1.02.69,1.98,1.43,2.93,2.21.24.42.26.86.03,1.27-.2.35-.24.71-.24,1.09,0,1.78,0,3.55,0,5.33,0,.33.03.67-.11.98-.35.4-.83.37-1.29.39-1.26.05-1.26.05-1.28,1.28,0,.18,0,.36-.04.53-.11.42-.35.66-.82.54,0-2.13,0-4.26,0-6.39,0-.95.22-1.89.14-2.85-.02-.26.01-.53-.14-.77,0-.55,0-1.11,0-1.66,0-.37-.06-.76.39-.97.17-.08.14-.31.14-.48,0-.22-.03-.46.29-.5Z"/><path class="cls-85" d="m180.88,193.77c.55-.11.69-.45.68-.99-.03-1.52,0-1.51,1.55-1.55.37,0,.74-.08,1.1-.13.27.29.2.66.21,1.01,0,.6.02,1.19-.01,1.79-.02,1.53.12,3.05-.08,4.57-.19.33-.53.36-.86.4q-1.27.16-1.35,1.4c-.04.62-.37,1.1-.88,1.28-.13.04-.26.05-.37-.04v-7.74Z"/><path class="cls-5" d="m180.75,215.39c.11-2.22.16-4.45.13-6.67v-.4c.24-.41.11-.86.13-1.29.01-.34.08-.66.42-.75.82-.21,1.64-.52,2.52-.39.13.02.25.07.34.18.28.87.09,1.76.13,2.64-.02.91.11,1.83-.09,2.74-.39.31-.31.75-.32,1.16-.02.88-.1.98-.96,1.12-.24.04-.47.15-.71.17-.79.06-1.39.3-1.33,1.26,0,.12-.08.25-.26.23Z"/><path class="cls-66" d="m184.22,206.05c-.87-.14-1.68.23-2.53.3-.4.03-.54.34-.55.76-.01.41.23.9-.25,1.21v-6.81c.86-.29,1.07-.56,1.07-1.43,0-1.23.1-1.33,1.35-1.38.31-.01.61-.08.92-.13.21.21.21.48.21.74,0,1.44.03,2.87-.01,4.31.03.59.02,1.17,0,1.76,0,.24,0,.48-.2.67Z"/><path class="cls-78" d="m183.15,228.34c.04-.17.13-.34.13-.51-.05-1.35.24-2.68.14-4.03.21-.19.48-.22.74-.28.81-.18.9-.28.94-1.11.05-1,.86-1.59,1.86-1.34.07.02.1.08.14.14,0,1.99.02,3.98-.02,5.98,0,.18-.08.34-.19.49-.6.42-1.26.65-2,.66-.58.1-1.16.1-1.74,0,0,0,0,0,0,0Z"/><path class="cls-12" d="m186.89,227.68c0-1.84,0-3.67-.01-5.51,0-.36.14-.69.14-1.04.01-.04.03-.07.04-.11.25-.28.16-.63.17-.96.02-1.3.63-1.73,1.93-1.34.3.75.13,1.56.23,2.34.09.73.22,1.48.17,2.24-.01.22.05.39.26.49-.37,1.75-1.29,3.09-2.93,3.88Z"/><path class="cls-81" d="m183.15,228.34c.58,0,1.16,0,1.74,0-.58.21-1.16.21-1.74,0Z"/><path class="cls-12" d="m189.83,223.54c.04-.27-.11-.56.12-.8-.02.27.1.56-.12.8Z"/><path class="cls-23" d="m180.75,215.39c.23-.22.15-.51.12-.75-.06-.49.22-.77.61-.78.62-.03,1.17-.38,1.8-.34.4.03.56-.17.54-.56-.01-.33,0-.66,0-.99-.01-.29.07-.48.4-.45.27.3.24.67.19,1.01-.18,1.28-.09,2.57-.11,3.86-.02.75-.07,1.5-.25,2.24-.03.03-.06.06-.09.09-.07,0-.13,0-.2,0-2.19,0-1.69.1-1.93,1.77-.09.66-.61.73-1.07.9-.33-.37-.33-.82-.22-1.25.06-.24.13-.49.08-.72-.22-.99.02-1.98,0-2.97-.07-.37.13-.71.13-1.07Z"/><path class="cls-3" d="m187.02,221.13c-.47,0-.86.31-1.35.31-.31,0-.41.28-.39.58.09,1.65-.07,1.57-1.87,1.78.18-1.69.36-3.38.53-5.07h0c.59-.31.72-.86.73-1.46,0-.5.07-.96.38-1.38.24-.32.15-.73.17-1.1.03-.8.12-.95.9-1.16.39-.11.55-.33.56-.71,0-.29-.03-.58.06-.86.05-.15.09-.37.34-.2.26.69.07,1.41.13,2.11.02,2.14,0,4.28,0,6.42,0,.27,0,.53-.2.75Z"/><path class="cls-29" d="m179.55,111.42c.68-.16.88-.59.81-1.26-.05-.51-.07-.99.4-1.44.34-.32.09-.93.12-1.41.04-.57-.18-1.22.65-1.46.21-.06.14-.34.16-.54.03-.41-.09-.84.13-1.24.33-.65.56-1.32.52-2.07-.01-.18.08-.4.26-.42.53-.05,1.02-.37,1.58-.28.34.42.23.93.24,1.4.02.46,0,.93,0,1.39.05,1.99.22,3.98.15,5.97-.01.33.02.67-.08.99-.39.44-.49.95-.48,1.53.01.88-.22,1.1-1.1,1.15-.43.02-.83.12-1.25.22-.25.06-.51.18-.77,0-.08-.6-.18-1.2-.13-1.82.03-.41-.14-.62-.57-.59-.22.02-.43-.02-.63-.13Z"/><path class="cls-76" d="m180.88,113.95c.77-.17,1.51-.46,2.32-.41.4.03.6-.22.61-.62,0-.31.03-.62,0-.92-.05-.44.12-.72.54-.85.14.12.16.29.19.45,0,1.87.2,3.73.03,5.6-.02.18-.03.35-.07.52-1.12.93-2.29,1.8-3.48,2.64-.27-.53-.19-1.08-.06-1.61.24-.9.24-1.78,0-2.68-.19-.69-.04-1.41-.07-2.12Z"/><path class="cls-72" d="m184.09,101.27c-.31.21-.6.46-1.02.4-.47-.07-.64.15-.59.6.08.71-.03,1.36-.66,1.8-.41-.06-.56-.33-.53-.71.12-1.47-.66-2.84-.42-4.33.07-.45-.33-.44-.65-.44,0-.51.01-1.01,0-1.52-.01-.42.12-.73.54-.88.24-.39.34-.81.35-1.26.02-.85.28-1.13,1.12-1.28.2-.04.4-.04.6-.04.92-.03,1.04-.15,1.08-1.1.01-.31-.04-.63.14-.9.07-.11.17-.13.26,0,.08.14.12.29.11.44-.05,2.01.13,4.01.14,6.02,0,.24-.04.48-.11.72-.03.6,0,1.2-.03,1.8-.01.26.07.6-.33.7Z"/><path class="cls-27" d="m159.92,136.35c-1.16.96-2.41,1.81-3.59,2.75-2.21,1.76-4.48,3.44-6.73,5.15-.07.05-.15.09-.22.13-1.11-.67-2.09-1.5-3.11-2.28-.53-.41-1.07-.77-1.71-1.01-.89-.33-1.54-1.04-2.3-1.58-.46-.63-1.03-1.16-1.67-1.61-1.54-1.09-2.91-2.4-4.46-3.48-.19-.13-.44-.25-.36-.57.83-.12,1.44.35,2.05.79.45.32.88.67,1.31,1.01.86.67,1.91.56,2.87.57,5.71.05,11.43.02,17.15.03.26,0,.54-.09.77.1Z"/><path class="cls-42" d="m135.77,133.84c.74.79,1.72,1.29,2.52,2,1.05.94,2.2,1.74,3.3,2.62.3.24.63.55.72.99-.4.07-.71-.2-1.07-.28-1.1-.23-2.19-.56-3.33-.48-.46.03-.86-.12-1.23-.4-.49-.38-.98-.75-1.48-1.12-.49-.35-1-.66-1.61-.75-.21-.03-.38-.11-.48-.3-1.28-1.18-2.76-2.11-4.12-3.19-.4-.32-.76-.69-1.21-.92-1.63-.85-3.18-1.82-4.6-2.99-.08-.07-.15-.16-.22-.24.74-.05,1.31.3,1.86.73.57.45,1.14.91,1.74,1.31.42.28.86.58,1.41.49,1.84-.28,3.37.33,4.68,1.61.75.74,1.74.78,2.71.79.13.04.27.09.4.13Z"/><path class="cls-10" d="m183.69,78.31c-.17-1.07-.19-2.14-.13-3.21.05-.92.19-1.83,0-2.75-.1-.52.1-.79.68-.71.22.03.44,0,.66,0,1.39.1,2.51.75,3.45,1.74-.14.51-.24,1.03-.21,1.56.04.59-.01,1.14-.57,1.53-.24.16-.22.47-.23.73,0,.33.02.66-.04.99-.03.15-.06.33-.17.43-.48.45-.47,1.01-.47,1.6,0,.86-.1.97-.96,1.14q-.93.18-.91,1.16c0,.24.03.49-.04.73-.06.23-.1.51-.47.39-.16-.23-.15-.5-.15-.76.02-.64-.14-1.22-.36-1.84-.31-.85-.3-1.8-.11-2.71Z"/><path class="cls-19" d="m187.16,78.18c0-.38.01-.75,0-1.13-.02-.4.04-.74.49-.9.3-.1.31-.4.31-.67,0-.46,0-.93,0-1.39,0-.3.11-.56.39-.72,1.02.99,1.52,2.23,1.59,3.61.07,1.46.01,2.93,0,4.39-.59,0-.74.42-.78.89-.03.35-.02.71,0,1.07.02.34-.11.58-.43.65-.46.1-.53.39-.51.79.03.64.12,1.3-.7,1.61-.25.09-.22.45-.24.72-.04.45.15.93-.13,1.36-.09.04-.16.02-.21-.06-.17-.33-.15-.7-.12-1.04.15-1.59.05-3.17.02-4.76-.03-1.47.33-2.93.31-4.41Z"/><path class="cls-75" d="m183.69,78.31c.17.76.13,1.53.14,2.3,0,.09-.01.21.04.26.8.82.4,1.84.49,2.78-.12.8.03,1.62-.19,2.41-.34.44-.84.45-1.33.45-.49,0-.69.18-.6.68.06.3.05.62.02.93-.07.67-.43.86-1.11.61-.48-.09-.51-.47-.54-.85-.04-.47.11-.97-.13-1.42.49-.66.24-1.41.23-2.12,0-.26-.08-.51.07-.75.18-.31.17-.67.08-.97-.15-.56-.09-1.09.02-1.63.46-.05.41-.39.39-.7-.02-.22-.1-.43-.12-.65-.04-.74.12-.91.86-.92.59,0,1.21.13,1.67-.4Z"/><path class="cls-80" d="m181.15,88.72c.98-.02,1.07-.17.93-1.46-.1-.94-.1-.95.86-.94.41,0,.78-.11,1.14-.27.45,0,.43.38.47.66.18,1.33.29,2.67.24,4.02-.03.38-.22.65-.58.79-.27.38-.1.81-.13,1.22-.05.68-.21,1.18-1.06,1.05-.2-.03-.4-.02-.6,0-.91.07-1.16.32-1.14,1.23.01.5-.04.93-.54,1.17.04-1.53-.04-3.08.18-4.58.14-.97.2-1.93.22-2.89Z"/><path class="cls-1" d="m133.1,136.11c1.49.16,2.53,1.17,3.65,2.01.38.29.76.43,1.22.4,1.26-.09,2.44.28,3.64.59.25.07.47.23.71.34.38.05.6.36.88.57.61.44,1.21.86,1.93,1.13.92.34,1.58,1.12,2.36,1.7.65.48,1.39.87,1.9,1.54-.87.69-1.72,1.41-2.67,1.99-.19-.02-.37-.07-.51-.21-1.23-1.05-2.58-1.95-3.87-2.92-1.63-1.22-3.25-2.46-4.87-3.71-.61-.47-1.35-.65-1.95-1.11-.69-.52-1.36-1.07-2.06-1.58-.16-.12-.32-.24-.35-.46v-.27Z"/><path class="cls-56" d="m133.1,136.38c1,.76,1.92,1.7,3.04,2.23,1.42.67,2.54,1.72,3.78,2.6,2.03,1.44,4.01,2.97,6,4.47.15.12.26.29.4.44-.3.23-.55.04-.79-.1-.57-.34-1.11-.74-1.61-1.17-.58-.5-1.23-.86-2.01-.96-.56-.08-1.05-.34-1.51-.66-.25-.18-.52-.35-.75-.56-1.09-.99-2.32-1.53-3.82-1.31-.22.03-.44.01-.66-.07-.1-.05-.17-.12-.2-.24-1.01-.84-2.05-1.65-3.17-2.35-.86-.54-1.71-1.12-2.44-1.81-1.17-1.11-2.53-1.98-3.74-3.04.97-.16,1.71.37,2.29.98,1.18,1.24,2.72,1.2,4.2,1.41.33.05.66.06.98.15Z"/><path class="cls-30" d="m134.97,141.05s.09.09.13.13c1.03.57,1.8,1.53,2.84,2.06,1.26.64,2.28,1.6,3.41,2.4.21.15.54.28.39.66-.6.17-1.13-.05-1.64-.31-.42-.21-.79-.5-1.14-.8-.89-.79-1.89-1.3-3.11-1.28-.45,0-.8-.2-1.13-.48-.48-.39-.99-.75-1.48-1.12-.65-.5-1.26-1.04-2.16-1.04-.33,0-.59-.29-.92-.35-.96-.6-1.83-1.32-2.72-2.01-.2-.15-.38-.3-.61-.39-1.95-1.49-3.9-2.98-5.84-4.47-.07-.05-.11-.13-.17-.2.28-.29.54-.09.77.06.48.31.94.66,1.41.99.79.53,1.42,1.27,2.49,1.41.94.13,1.68.88,2.38,1.51.83.74,1.8.94,2.81.94.69,0,1.17.26,1.66.67.61.51,1.25.99,1.89,1.45.2.14.43.35.73.18Z"/><path class="cls-82" d="m189.95,201.25c-.73-.09-.71.47-.79.93-.07.44.14.91-.14,1.33-.21-.21-.21-.48-.21-.74,0-2.23-.03-4.45.01-6.68-.02-1.31-.14-2.64.03-3.93.16-1.21.11-2.44.42-3.62.13-.48.03-.98.08-1.46.03-.32,0-.69.45-.78,0,0,.02-.01.02-.01.04.05.08.1.11.14,0,4.94,0,9.88,0,14.82Z"/><path class="cls-64" d="m184.22,91.53c0-.31.45-.34.4-.67.15-.47.07-.96.06-1.43-.01-.49.2-.76.65-.82.56-.07,1.12-.17,1.69-.15.04,0,.09,0,.13,0,.21.94.19,1.89.05,2.84-.09.6-.02,1.2-.05,1.79-.01.29.03.58-.14.84-.26.43-.11.9-.13,1.36-.04.76-.2.98-.95,1.09-.8.13-.85.19-.87,1.02,0,.29.03.58-.06.86-.12.38-.3.72-.8.47.28-.73.19-1.51.11-2.23-.19-1.66-.05-3.32-.11-4.97Z"/><path class="cls-47" d="m184.22,98.73c.48,0,.68-.25.67-.71,0-.31.02-.63,0-.93-.06-.65.26-.88.85-.9.89-.03.98-.18,1.04-1.08.03-.39-.31-.9.25-1.19,0,.33.03.67,0,1-.06.61.06,1.17.41,1.67,0,.42,0,.84,0,1.26,0,.36,0,.68-.28.98-.26.28-.1.68-.12,1.03-.02.46,0,.93,0,1.4-.03.03-.06.07-.1.08-.8.25-1.13.74-1.08,1.62.04.74-.76,1.22-1.61,1.1-.05-.93.13-1.88-.13-2.8.29-.83.06-1.69.13-2.54Z"/><path class="cls-15" d="m184.5,117.72c-.26-.46-.19-.96-.13-1.43.12-.86.1-1.7,0-2.56-.09-.72-.02-1.46-.02-2.19.05-.07.08-.18.16-.21.78-.29.94-.89.87-1.64-.05-.52.23-.84.73-.95.58-.13.75-.5.74-1.06,0-.45-.14-.93.18-1.34.09.09.18.18.27.27,0,1.26.14,2.55-.04,3.79-.22,1.49-.22,2.98-.23,4.47,0,.29-.02.58.14.84-.85.72-1.74,1.39-2.66,2.02Z"/><path class="cls-49" d="m187.02,106.34c0,.55-.03,1.11,0,1.66.04.49-.14.77-.61.84-.71.1-1.02.48-.86,1.18.25,1.04-.51,1.26-1.21,1.53v-.4c.03-2.36-.02-4.72-.13-7.07.22-.08.44-.19.67-.25.62-.14.83-.51.81-1.15-.04-1.14.16-1.32,1.32-1.41-.19,1.4.3,2.76.27,4.15,0,.34-.04.66-.27.93Z"/><path class="cls-46" d="m130.16,140.92c.26-.26.43.09.65.1,1.75.05,2.79,1.39,4.04,2.3.57.41,1.15.47,1.72.49.72.03,1.27.31,1.81.71.46.34.92.69,1.37,1.05.6.47,1.29.64,2.04.68.15-.13.29-.07.42.02.67.49,1.35.96,1.97,1.52.12.11.3.22.15.43-.72.55-1.44,1.1-2.16,1.64-.28.13-.45-.06-.65-.21-3.29-2.58-6.62-5.11-9.97-7.6-.48-.35-.92-.76-1.38-1.14Z"/><path class="cls-32" d="m189.03,196.04v7.88c-.23.32-.14.68-.13,1.02.03.98-.03,1.23-1.28,1.39-.22.03-.44.03-.63-.12-.05-.07-.09-.14-.12-.22-.09-2.38-.12-4.77.01-7.15.24-.39.51-.74.5-1.26-.02-1.25.34-1.56,1.64-1.54Z"/><path class="cls-43" d="m187.02,221.13v-7.21c.63-.47.82-1.1.79-1.88-.02-.55.38-.8,1.21-.92.08.89-.17,1.79.13,2.67v4.94c-.21.04-.43.1-.64.13-1.09.15-1.07.15-1.1,1.25-.01.36.27.89-.39,1.03Z"/><path class="cls-53" d="m189.03,211.12c-.86.32-1.24.89-1.08,1.84.11.65-.53.72-.92.96v-2.14c-.22-.21-.21-.48-.21-.74-.01-1.37-.01-2.75,0-4.12,0-.26,0-.54.21-.74.42-.05.83-.08,1.25-.15.33-.05.49-.28.49-.61,0-.35,0-.71,0-1.06,0-.2-.02-.41.27-.45v7.21Z"/><path class="cls-55" d="m189.03,196.04c-.12.06-.24.13-.36.17-1.09.42-1.11.42-1.1,1.64,0,.44-.12.73-.54.86-.34-.43-.16-.94-.19-1.41-.03-.33,0-.67,0-1-.03-1.77-.02-3.54,0-5.31-.08-1.96.2-3.9.14-5.86,0-.29.03-.59.35-.74.86.6,1.72,1.21,2.51,1.91-.15.11-.26.29-.24.45.12,1.07-.16,2.1-.3,3.14-.28,2.04-.24,4.09-.25,6.14Z"/><path class="cls-62" d="m187.31,184.39c-.1.2-.16.41-.15.64.1,1.98-.18,3.96-.13,5.94-.19.37-.54.43-.9.45-.44.02-.63.27-.64.69,0,.33.02.67-.03,1-.09.65-.56.95-1.23.79v-2.8c0-2.22,0-4.43,0-6.65,0-.33-.05-.64.3-.94.28-.24.05-.76.12-1.15.92.64,1.82,1.3,2.67,2.03Z"/><path class="cls-13" d="m144.31,148.23c-.72-.82-1.6-1.43-2.53-1.97-1.1-.94-2.19-1.89-3.46-2.6-1.19-.67-2.24-1.53-3.22-2.47.29,0,.58.03.86,0,1.45-.21,2.62.33,3.68,1.27.78.69,1.66,1.24,2.74,1.37.99.12,1.56.94,2.33,1.43.51.33.93.83,1.6.87.13.08.26.16.4.24-.74.7-1.57,1.28-2.4,1.86Z"/><path class="cls-40" d="m184.22,193.9c.96-.17,1.07-.29,1.07-1.23,0-.24,0-.49,0-.73-.01-.5.24-.75.73-.71.37.03.69-.1,1.01-.27,0,1.78,0,3.56,0,5.34-.36.4-.19.89-.2,1.34-.02.58-.11,1.06-.74,1.26-.32.1-.34.39-.33.66.02.76,0,1.47-.65,2.07-.34.32-.12.9-.17,1.35-.05.42-.13.82-.71.65,0-1.69,0-3.38,0-5.07v-4.67Z"/><path class="cls-24" d="m187.02,206.18v5.61c-.27.4-.1.86-.13,1.28-.02.45-.18.72-.66.72-.61,0-.86.29-.82.92.04.58.04,1.13-.41,1.66-.35.42-.08,1.1-.21,1.67-.12.52-.33.73-.84.7.18-1.78.08-3.58.16-5.36.03-.61.1-1.23.11-1.84,0-.93,0-1.87,0-2.8.65-.25,1.06-.6,1.03-1.41-.04-1.19.52-1.55,1.77-1.26v.13Z"/><path class="cls-74" d="m187.02,206.05c-.17.04-.34.1-.51.13q-1.09.15-1.09,1.27c0,1.03-.22,1.26-1.2,1.28,0-.89,0-1.78,0-2.67,0-.8,0-1.6,0-2.4.41-.04.57-.27.54-.67-.03-.33,0-.67,0-1,0-.18-.04-.41.13-.49.86-.42.68-1.2.67-1.91,0-.48-.02-.89.66-.89.28,0,.42-.29.42-.59,0-.4,0-.8,0-1.2,0-.29.04-.54.4-.57,0,.8,0,1.6,0,2.4v7.34Z"/><path class="cls-61" d="m187.02,88.46c-.37.24-.77.27-1.2.27-.95,0-1.06.13-1.08,1.05,0,.36.14.75-.13,1.08.06-1.47-.14-2.93-.27-4.39-.02-.19-.09-.33-.27-.42,0-.57.01-1.14,0-1.71,0-.28.05-.51.27-.69.53-.47.3-1.1.21-1.61-.1-.54.13-.69.53-.78,1.39-.32,1.39-.32,1.4-1.76,0-.31-.04-.62.34-.77.24-.09.2-.38.33-.55.21,1.01.24,2.03-.02,3.04-.22.83-.14,1.67-.06,2.49.09.86.09,1.7,0,2.56-.08.72-.04,1.46-.05,2.18Z"/></g></g></svg>