<?xml version="1.0" encoding="UTF-8"?><svg xmlns="http://www.w3.org/2000/svg" viewBox="0 0 300 300"><defs><style>.cls-1{fill:#fff;}.cls-2{fill:#f9f9fa;}.cls-3{fill:#2c2c32;}</style></defs><g id="Fondos"><rect class="cls-3" width="300" height="300"/></g><g id="Texto"><g><path class="cls-1" d="m40,60c2.83,1.11,2.78,1.11,4.07,1.66,11.42,4.95,23.2,9.05,34.88,13.34,3.01,1.1,3.71,3.09,3.71,6.07,0,2.77-.64,4.85-3.49,5.95-13.11,4.56-25.87,10.34-39.17,14.43v-9.18c9.63-3.64,19.26-7.28,29.63-11.2-10.05-3.98-20.01-7.89-29.63-11.36v-9.71Z"/><path class="cls-2" d="m104.32,114.53c-6.47-.05-14.94.06-21.41,0,0-1.4-.01-2.79-.03-4.18s-.03-2.77-.03-4.19c6.91,0,14.81.18,21.22,0h20.4s.03,2.82,0,4.2c-.03,1.25,0,4.16,0,4.16h-20.16Z"/></g></g></svg>