<?xml version="1.0" encoding="UTF-8"?><svg xmlns="http://www.w3.org/2000/svg" viewBox="0 0 300 300"><defs><style>.cls-1{fill:#fff;fill-rule:evenodd;}.cls-2{fill:#492d8c;}</style></defs><g id="Fondos"><rect class="cls-2" x="0" width="300" height="300"/></g><g id="Texto"><path class="cls-1" d="m159.48,213.71c4.36,0,8.89,2.77,8.89,9.41s-4.53,9.41-8.89,9.41c-4.39,0-8.91-2.77-8.91-9.41s4.53-9.41,8.91-9.41Zm39.88.34v10.83c0,2.5.81,3.62,2.77,3.62s2.74-1.13,2.74-3.62v-10.83h4.8v10.85c0,4.8-2.3,7.54-7.59,7.54s-7.62-2.74-7.62-7.54v-10.85h4.9Zm-20.64,0v6.56l5-6.56h5.68l-6.1,7.15,6.64,10.97h-5.54l-4.29-7.25-1.4,1.62v5.63h-4.9v-18.12h4.9Zm-53.63,0v4.07h-8.03v2.94h5.73v3.82h-5.73v3.35h8.45v3.94h-13.35v-18.12h12.93Zm12.87,0c4.65,0,7.49,1.54,7.49,5.9,0,2.84-1.2,4.48-3.58,5.29l3.85,6.93h-5.19l-3.5-6.29h-1.35v6.29h-4.8v-18.12h7.08Zm-43.04,0v6.73h6.03v-6.73h4.9v18.12h-4.9v-7.32h-6.03v7.32h-4.9v-18.12h4.9Zm64.55,3.7c-2.57,0-4.02,2.03-4.02,5.36s1.45,5.49,4.02,5.49c2.55,0,3.99-2.16,3.99-5.49s-1.45-5.36-3.99-5.36Zm-21.69.27h-2.11v4.14h2.11c2.01,0,2.89-.56,2.89-2.08s-.88-2.06-2.89-2.06Zm59.91-150.54c6.61,0,11.96,5.36,11.96,11.96h0v109.01c0,6.61-5.36,11.96-11.96,11.96h-95.71c-6.61,0-11.96-5.36-11.96-11.96h0v-109.01c0-6.61,5.36-11.96,11.96-11.96h95.71Zm0,6.65h-95.71c-2.93,0-5.32,2.38-5.32,5.32h0v109.01c0,2.93,2.39,5.32,5.32,5.32h95.71c2.93,0,5.32-2.39,5.32-5.32h0v-109.01c0-2.93-2.38-5.32-5.32-5.32h0Zm-76.1,79.76l14.96,13.29-14.96,13.29v-26.59Zm13.29-66.47v37.74c6.64-2.16,15.91-4.5,24.93-4.5,8.22,0,13.14,3.23,15.81,5.94,5.48,5.54,5.78,12.54,5.79,13.86v40.02h-13.29v-39.7c-.06-3.1-1.56-6.83-8.31-6.83-13.52,0-28.68,6.8-28.83,6.87h0l-9.39,4.25v-57.65h13.29Zm46.53,0c-.9,7.55-3.96,14.79-9.97,21.6h-13.29c5.22-6.85,8.5-14.07,9.97-21.6h13.29Z"/></g></svg>