<?xml version="1.0" encoding="UTF-8"?><svg xmlns="http://www.w3.org/2000/svg" viewBox="0 0 300 300"><defs><style>.cls-1{fill:#fff;}.cls-2{fill:#f36c3d;}</style></defs><g id="Fondos"><rect class="cls-2" width="300" height="300"/></g><g id="Texto"><g><g><path class="cls-1" d="m60.19,229.34v-24.37c0-.29.13-.56.35-.74.25-.21.56-.32.89-.31h6.87c2.03-.1,4.03.57,5.59,1.88,1.4,1.26,2.09,3.24,2.09,5.94v.33c0,2.71-.71,4.7-2.13,5.97-1.59,1.32-3.61,2-5.68,1.9h-4.89v9.4c0,.33-.17.64-.45.79-.66.39-1.48.39-2.14,0-.3-.15-.49-.46-.49-.79h0Zm3.04-11.92h4.92c1.31.08,2.59-.39,3.54-1.29.92-1.07,1.37-2.45,1.26-3.85v-.44c.11-1.4-.33-2.79-1.24-3.86-.95-.9-2.23-1.37-3.54-1.28h-4.89l-.05,10.73Z"/><path class="cls-1" d="m86.62,222.74v-10.92c0-2.72.71-4.72,2.13-6,3.36-2.52,7.99-2.52,11.35,0,1.43,1.28,2.15,3.28,2.16,6v10.92c0,2.73-.71,4.73-2.14,6-3.37,2.55-8.02,2.55-11.39,0-1.4-1.28-2.11-3.26-2.11-6Zm3.05,0c0,3.43,1.58,5.14,4.75,5.15,1.31.08,2.59-.38,3.54-1.28.91-1.07,1.36-2.46,1.25-3.87v-10.92c.11-1.4-.34-2.79-1.25-3.86-.95-.9-2.23-1.37-3.54-1.28-3.17,0-4.75,1.7-4.75,5.14v10.92Z"/><path class="cls-1" d="m113.03,226.69c.01-.41.16-.81.42-1.14.19-.32.51-.53.88-.57.32.06.62.22.83.46.33.3.69.64,1.06,1.01.49.45,1.07.8,1.7,1.02.85.32,1.75.47,2.66.45,1.33.08,2.64-.32,3.7-1.14.94-.85,1.44-2.09,1.35-3.35.05-1.2-.39-2.38-1.23-3.25-.84-.84-1.86-1.49-2.97-1.9-1.17-.43-2.33-.89-3.54-1.4-1.17-.49-2.2-1.28-2.99-2.27-.85-1.15-1.28-2.55-1.23-3.97-.03-1.15.22-2.29.72-3.32.43-.88,1.1-1.62,1.94-2.12.79-.47,1.63-.82,2.52-1.04.91-.23,1.85-.34,2.79-.33,1.46,0,2.91.21,4.3.65,1.36.44,2.05,1.04,2.05,1.77-.02.39-.15.77-.36,1.09-.19.35-.55.57-.95.57-.56-.17-1.1-.39-1.63-.64-1.06-.47-2.21-.71-3.37-.69-1.24-.06-2.47.25-3.54.89-.93.65-1.45,1.74-1.36,2.87-.05,1.05.39,2.06,1.2,2.72.89.73,1.9,1.28,2.99,1.65,1.18.41,2.34.89,3.54,1.42,1.19.57,2.22,1.46,2.96,2.55.86,1.33,1.29,2.89,1.23,4.48,0,2.5-.73,4.37-2.18,5.65-1.62,1.33-3.67,2-5.76,1.9-1.91.06-3.79-.41-5.45-1.36-1.52-.87-2.26-1.74-2.26-2.65h0Z"/><path class="cls-1" d="m137.77,205.26c-.01-.34.09-.67.29-.94.17-.27.48-.42.79-.4h14.76c.32-.02.62.13.79.4.19.28.29.61.29.94.01.35-.09.7-.29.99-.17.28-.47.44-.79.43h-5.79v22.67c0,.33-.17.63-.45.79-.66.39-1.48.39-2.14,0-.29-.16-.46-.47-.45-.79v-22.67h-5.88c-.32.02-.62-.14-.79-.41-.22-.29-.34-.64-.33-1h0Z"/><path class="cls-1" d="m165.04,229.34v-23.88c-.12-.72.37-1.4,1.09-1.52.16-.02.32-.02.48,0,.96,0,1.77.64,2.44,1.92l5.68,10.92,5.74-10.92c.7-1.29,1.5-1.92,2.42-1.92.72-.11,1.39.38,1.51,1.1.02.13.02.25,0,.38v23.89c0,.33-.16.64-.45.8-.66.39-1.48.39-2.15,0-.29-.16-.46-.47-.45-.8v-19l-5.48,10.3c-.17.51-.65.87-1.19.89-.53-.03-.98-.38-1.14-.89l-5.48-10.47v19.22c0,.33-.17.63-.45.79-.3.21-.66.33-1.03.33-.38.01-.75-.09-1.07-.29-.31-.16-.5-.49-.48-.84h0Z"/><path class="cls-1" d="m194.81,229.17c0-.1.03-.2.07-.3l7.42-23.89c.21-.7.82-1.05,1.84-1.05s1.64.35,1.85,1.05l7.45,24.01s0,.09,0,.13c.01.04.01.07,0,.11-.01.38-.23.72-.57.89-.4.25-.86.37-1.33.35-.48.06-.94-.22-1.09-.68l-1.59-5.31h-9.54l-1.59,5.31c-.15.48-.64.78-1.14.7-.44,0-.86-.13-1.23-.36-.36-.18-.58-.55-.57-.95Zm5.27-7.27h8.11l-4.06-13.56-4.05,13.56Z"/><path class="cls-1" d="m223.97,229.34v-24.37c0-.7.51-1.05,1.52-1.05.47-.01.93.15,1.29.45.43.42.78.92,1.02,1.47l9.04,17.7v-18.58c0-.32.17-.62.45-.78.67-.36,1.47-.36,2.14,0,.28.16.45.46.45.78v24.41c0,.33-.16.63-.45.79-.32.2-.69.3-1.07.29-.85-.04-1.61-.58-1.92-1.38l-9.43-18.24v18.53c0,.33-.16.63-.45.79-.66.39-1.48.39-2.15,0-.29-.16-.46-.48-.45-.81h0Z"/><path class="cls-1" d="m206.35,133.22c3.99-31.09-17.98-59.54-49.07-63.53-31.09-3.99-59.54,17.98-63.53,49.07-3.99,31.09,17.98,59.54,49.07,63.53,0,0,0,0,0,0,31.09,3.99,59.53-17.98,63.53-49.07Z"/></g><path class="cls-1" d="m170.52,105.71l-23.93,23.93-6.78-6.78c23.56-23.55,25.9-21.48,30.72-17.15Z"/><path class="cls-2" d="m146.59,130.21c-.15,0-.3-.06-.4-.17l-6.81-6.81c-.22-.22-.22-.58,0-.8,23.95-23.95,26.47-21.69,31.5-17.18.12.1.18.25.19.41,0,.16-.05.31-.16.42l-23.91,23.96c-.1.11-.25.17-.4.17h0Zm-5.98-7.38l5.98,5.99,23.11-23.11c-4.19-3.71-7.04-4.86-29.09,17.14v-.03Z"/><path class="cls-1" d="m153.44,136.5l-6.54-6.54,23.94-23.94c6.44,6.45-3.11,16.96-17.4,30.48Z"/><path class="cls-2" d="m153.44,137.07h-.03c-.14-.01-.28-.07-.38-.18l-6.53-6.53c-.1-.11-.16-.25-.16-.4,0-.15.06-.3.16-.4l23.94-23.93c.22-.22.58-.22.8,0,1.45,1.38,2.25,3.3,2.22,5.3-.09,6.3-7.26,14.29-19.62,25.99-.11.1-.25.16-.39.16Zm-5.73-7.11c3.66,3.67,5.14,5.14,5.74,5.74,9.56-9.08,18.78-18.39,18.87-24.79.04-1.5-.5-2.95-1.5-4.07l-23.11,23.12Z"/><path class="cls-1" d="m139.97,123.03l4.83,4.82c.09.09.09.24,0,.33-.03.03-.07.05-.12.06l-9.96,2.15c-.51.11-1-.21-1.12-.71-.07-.31.03-.64.25-.87l5.81-5.78c.09-.08.22-.08.31,0h0Z"/><path class="cls-2" d="m134.51,130.98c-.83,0-1.5-.68-1.5-1.51,0-.4.16-.78.44-1.06l5.78-5.78c.31-.31.82-.31,1.14,0l4.82,4.83c.31.31.32.81,0,1.12-.11.11-.25.19-.41.22l-9.96,2.15c-.11.02-.21.03-.32.03Zm5.29-7.32l-5.55,5.55c-.12.11-.15.3-.06.44.07.15.24.23.4.18l9.36-2.02-4.16-4.16Z"/><path class="cls-1" d="m183.21,92.42c-3.66-3.51-9.47-3.4-12.99.26-3.51,3.66-3.4,9.47.26,12.99,3,2.88,7.55,3.39,11.11,1.24l-6.44-6.43,8.05-8.05Z"/><path class="cls-2" d="m176.84,108.8c-5.39,0-9.76-4.37-9.76-9.75,0-5.39,4.37-9.76,9.75-9.76,2.52,0,4.95.98,6.77,2.72.11.11.17.25.18.4,0,.15-.06.3-.16.41l-7.62,7.65,6.03,6.03c.12.12.18.3.16.47-.02.17-.12.33-.27.42-1.53.92-3.28,1.41-5.07,1.41Zm0-18.36c-4.75,0-8.6,3.86-8.6,8.61,0,4.75,3.86,8.6,8.61,8.6,1.32,0,2.61-.3,3.8-.89l-5.89-5.9c-.11-.1-.17-.25-.17-.4,0-.15.06-.3.17-.4l7.63-7.63c-1.55-1.3-3.52-2-5.54-2h0Z"/><path class="cls-1" d="m183.37,92.55l-.14-.12-8.07,8.05,6.44,6.43c.65-.38,1.24-.83,1.78-1.35,3.59-3.59,3.6-9.41,0-13,0,0,0,0,0,0Z"/><path class="cls-2" d="m181.59,107.47c-.15,0-.3-.06-.4-.16l-6.43-6.44c-.11-.1-.17-.25-.17-.4,0-.15.06-.3.17-.4l8.04-8.05c.22-.22.57-.22.79,0l.15.13c3.81,3.79,3.82,9.96.03,13.77-.57.57-1.21,1.07-1.9,1.49-.09.05-.18.07-.28.07h0Zm-5.6-7l5.68,5.71c.46-.31.88-.66,1.28-1.04,3.26-3.26,3.38-8.52.26-11.92l-7.21,7.25Z"/><path class="cls-1" d="m171.51,106.69c-1.37-1.36-3.58-1.36-4.94,0l-21.41,21.41,3.59,3.56,22.63-19.87c1.45-1.28,1.58-3.49.3-4.94-.05-.06-.11-.12-.16-.17Z"/><path class="cls-2" d="m148.74,132.24c-.15,0-.3-.06-.4-.16l-3.57-3.56c-.22-.22-.22-.58,0-.8,0,0,0,0,0,0l21.39-21.41c1.59-1.58,4.16-1.58,5.75,0,1.58,1.59,1.58,4.15,0,5.74-.06.06-.13.12-.19.18l-22.63,19.87c-.09.09-.22.14-.35.15Zm-2.76-4.13l2.78,2.78,22.23-19.52c1.23-1.05,1.38-2.9.33-4.13s-2.9-1.38-4.13-.33c-.07.06-.14.13-.21.19l-21.01,21.01Z"/><path class="cls-1" d="m128.74,152.43c-.21.11-.32.34-.27.57l.96,4.1c.2.59-.12,1.24-.71,1.44-.45.15-.94,0-1.24-.35l-6.2-6.2,20.37-20.37,7.01.11,4.79,4.78c-1.19.99-8.05,7.58-24.7,15.93h0Z"/><path class="cls-2" d="m128.31,159.1c-.46,0-.89-.18-1.21-.51l-6.22-6.21c-.1-.11-.16-.25-.16-.4,0-.15.06-.3.16-.4l20.37-20.37c.11-.11.26-.17.41-.16l7.02.11c.15,0,.29.06.39.16l4.78,4.79c.11.11.18.27.17.43,0,.16-.08.31-.2.41l-.4.35c-6.01,5.27-14.19,10.53-24.37,15.63l.95,4.06c.19.75-.16,1.54-.85,1.91-.26.14-.54.22-.83.22Zm-6.24-7.12l5.82,5.8c.16.28.51.37.78.22.28-.16.37-.51.22-.78h0l-.96-4.1c-.11-.49.12-.99.57-1.21,10.07-5.05,18.16-10.25,24.12-15.46l-4.19-4.19-6.54-.1-19.82,19.83Z"/><path class="cls-1" d="m116.39,156.86l4.88-4.88,7.25,7.25-11.58-.79c-.51-.06-.87-.52-.81-1.02.02-.21.12-.41.27-.55h0Z"/><path class="cls-2" d="m128.52,159.8h-.03l-11.59-.79c-.82-.08-1.42-.82-1.34-1.64.04-.34.19-.66.43-.9l4.88-4.88c.22-.22.58-.22.8,0,0,0,0,0,0,0l7.25,7.25c.17.17.22.42.12.64-.09.2-.3.33-.52.33h0Zm-7.25-7.02l-4.47,4.47c-.1.1-.14.24-.09.37.04.13.16.23.3.24l10.04.69-5.78-5.78Z"/><path class="cls-2" d="m139.58,134.24c-.31,0-.57-.26-.57-.57,0-.15.06-.29.16-.4l5.52-5.52c.22-.22.58-.22.8,0,0,0,0,0,0,0l3.55,3.56c.15.15.21.37.15.57-.06.2-.22.35-.43.39l-9.08,1.96s-.08,0-.11,0h0Zm5.52-5.28l-3.74,3.75,6.17-1.33-2.44-2.42Z"/><path class="cls-1" d="m148.66,131.72l-6.24,1.34c-.46.1-.92-.19-1.02-.65-.07-.29.02-.59.24-.8l3.45-3.45,3.58,3.56Z"/><g><path class="cls-2" d="m142.25,133.64c-.79,0-1.42-.64-1.42-1.42,0-.38.15-.74.42-1.01l3.45-3.45c.22-.22.58-.22.8,0,0,0,0,0,0,0l3.55,3.56c.15.15.21.37.15.57-.06.2-.22.35-.43.39l-6.24,1.35c-.09.02-.19.02-.28.02h0Zm2.84-4.68l-3.05,3.05c-.09.09-.11.23-.05.35.05.12.19.19.32.15l5.2-1.14-2.42-2.41Z"/><path class="cls-2" d="m183.41,98c-.11-.35-.48-.53-.83-.42-.35.11-.53.48-.42.83.02.06.04.11.08.16.34.7.25,1.53-.24,2.13-.23.28-.19.69.09.93.28.23.69.19.93-.09.82-1,.98-2.38.41-3.54Z"/></g></g></g></svg>