<?xml version="1.0" encoding="UTF-8"?><svg xmlns="http://www.w3.org/2000/svg" viewBox="0 0 300 300"><defs><style>.cls-1{fill:#fff;}.cls-2{fill:#4791ce;}</style></defs><g id="Fondos"><rect class="cls-2" x="0" width="300" height="300"/></g><g id="Texto"><g><path class="cls-1" d="m138.35,121.68c-14.97,0-29.95.02-44.92-.02-2.37,0-4.69,1.65-4.62,4.64.05,2.23.13,4.46.33,6.69.52,5.52,1.65,10.89,3.6,16.09,1.82,4.85,4.32,9.3,7.86,13.12,4.08,4.41,9.19,7.05,14.88,8.67,8.22,2.34,16.62,2.98,25.12,2.65,4.82-.19,9.59-.7,14.31-1.69,7.41-1.56,14.47-4.07,21.02-7.92,8.75-5.15,15.67-12.16,21.06-20.73,3.12-4.96,5.62-10.22,7.78-15.66.24-.61.54-.8,1.18-.78,2.33.06,4.65-.16,6.9-.8,6.42-1.83,11.06-5.63,13.29-12.08.14-.4.08-.62-.26-.91-2.48-2.16-5.48-3.01-8.64-3.44-2.96-.4-5.91-.25-8.85.22-.32.05-.43-.03-.49-.36-.18-1.1-.44-2.19-.83-3.24-1.96-5.34-5.53-9.26-10.5-11.96-.35-.19-.5-.09-.71.19-1.97,2.67-3.42,5.6-4.28,8.8-1.45,5.42-1.12,10.66,1.79,15.58.27.45.13.61-.28.8-3.15,1.42-6.48,2.09-9.89,2.11-14.95.05-29.9.02-44.85.02Zm-14.1-18.2c1.96,0,3.92,0,5.89,0,.93,0,1.33-.4,1.33-1.34,0-3.4,0-6.8,0-10.2,0-1.03-.38-1.42-1.4-1.42-3.83,0-7.67,0-11.5,0-1.02,0-1.4.39-1.41,1.42,0,3.4,0,6.8,0,10.2,0,.93.41,1.34,1.34,1.34,1.92,0,3.83,0,5.75,0Zm.11,2.61c-1.92,0-3.83,0-5.75,0-1.07,0-1.45.36-1.45,1.43,0,3.35,0,6.71,0,10.06,0,1.07.36,1.46,1.43,1.47,3.81.01,7.62.01,11.43,0,1.08,0,1.44-.39,1.44-1.45,0-3.38,0-6.75,0-10.13,0-.99-.38-1.37-1.36-1.37-1.92,0-3.83,0-5.75,0Zm16.97,0c-1.94,0-3.88,0-5.82,0-.97,0-1.37.39-1.37,1.37,0,3.38,0,6.75,0,10.13,0,1.03.37,1.45,1.38,1.45,3.86.02,7.71.02,11.57,0,.99,0,1.36-.41,1.36-1.39,0-3.4,0-6.8,0-10.2,0-.98-.4-1.36-1.38-1.36-1.92,0-3.83,0-5.75,0Zm33.67,0c-1.89,0-3.79,0-5.68,0-1.08,0-1.47.36-1.47,1.41,0,3.38,0,6.75,0,10.13,0,.99.37,1.41,1.35,1.41,3.88.02,7.76.02,11.64,0,.95,0,1.33-.42,1.33-1.36,0-3.42,0-6.84,0-10.27,0-.94-.4-1.32-1.34-1.32-1.94,0-3.88,0-5.82,0Zm-33.71-2.61c1.89,0,3.79,0,5.68,0,1.1,0,1.48-.37,1.48-1.48,0-3.33,0-6.66,0-9.99,0-1.12-.37-1.49-1.47-1.49-3.79,0-7.57,0-11.36,0-1.1,0-1.48.38-1.48,1.49,0,3.35,0,6.71,0,10.06,0,1.02.4,1.41,1.4,1.42,1.92,0,3.83,0,5.75,0Zm-33.71,15.52c1.94,0,3.88,0,5.81,0,.97,0,1.35-.34,1.35-1.3.02-3.44.02-6.89,0-10.33,0-.89-.43-1.28-1.32-1.28-3.88,0-7.75,0-11.63,0-.94,0-1.34.39-1.35,1.32,0,3.42,0,6.84,0,10.26,0,.97.36,1.33,1.32,1.33,1.94,0,3.88,0,5.81,0Zm50.54-28.43c-1.96,0-3.92,0-5.88,0-.94,0-1.28.34-1.28,1.28,0,3.44,0,6.88,0,10.33,0,.92.38,1.3,1.28,1.3,3.9,0,7.8,0,11.7,0,.9,0,1.28-.39,1.28-1.3,0-3.44,0-6.88,0-10.33,0-.93-.35-1.28-1.28-1.28-1.94,0-3.88,0-5.81,0Zm-.03-2.66c1.92,0,3.83,0,5.75,0,1.02,0,1.37-.34,1.37-1.34,0-3.4,0-6.8,0-10.2,0-1.01-.35-1.37-1.35-1.37-3.86,0-7.72,0-11.57,0-.97,0-1.33.36-1.33,1.31,0,3.42,0,6.85,0,10.27,0,.98.34,1.32,1.31,1.33,1.94,0,3.88,0,5.82,0Zm0,31.09c1.94,0,3.88,0,5.82,0,.96,0,1.3-.36,1.31-1.33,0-3.4,0-6.8,0-10.2,0-1.01-.35-1.37-1.34-1.37-3.86,0-7.72,0-11.57,0-.97,0-1.34.36-1.34,1.31,0,3.42,0,6.85,0,10.27,0,.98.33,1.32,1.31,1.33,1.94,0,3.88,0,5.82,0Z"/><path class="cls-1" d="m59.72,212.24c.28-.93.31-1.92.64-2.84,2.11-5.91,6.15-9.61,12.42-10.58,4.14-.64,7.98.28,11.36,2.83.09.06.18.11.37.23.02-.32.04-.55.04-.79,0-4.13,0-8.26,0-12.39,0-1.97,1.18-3.21,2.97-3.16,1.54.04,2.74,1.21,2.74,2.75,0,8.85.09,17.71-.04,26.56-.07,4.81-2.43,8.55-6.22,11.42-2.06,1.56-4.4,2.46-6.96,2.81-.13.02-.28-.03-.34.15h-3.29c-.09-.19-.27-.12-.42-.14-6.07-.77-11.26-5.31-12.79-11.23-.2-.76-.32-1.55-.48-2.32,0-1.1,0-2.19,0-3.29Zm24.83,1.75c.03-5.28-4.23-9.62-9.49-9.66-5.22-.05-9.57,4.24-9.6,9.48-.03,5.31,4.17,9.64,9.38,9.67,5.38.03,9.69-4.18,9.72-9.48Z"/><path class="cls-1" d="m196.98,229.22c-.6-.11-1.2-.21-1.79-.34-6.26-1.4-10.93-6.49-11.79-12.87-.9-6.61,2.43-12.99,8.48-15.84,9.81-4.62,20.3,1.77,21.79,11.35.12.76.18,1.54.17,2.32-.02,1.76-1.14,2.93-2.91,2.93-6.8.01-13.6,0-20.4,0-.18,0-.37.02-.55,0-.56-.06-.6.17-.42.63,1.01,2.49,2.72,4.35,5.21,5.33,3.7,1.45,7.15,1,10.19-1.71,1.27-1.13,2.96-1.12,4.05.02,1.11,1.16,1.07,3.01-.17,4.17-2.33,2.19-5.08,3.5-8.27,3.88-.16.02-.32-.01-.44.13h-3.15Zm1.58-18.1c2.78,0,5.57,0,8.35,0,.87,0,.86,0,.53-.81-1.38-3.37-5.06-6.26-9.54-5.89-3.9.32-6.69,2.3-8.29,5.9-.33.74-.27.8.52.8,2.81,0,5.61,0,8.42,0Z"/><path class="cls-1" d="m158.49,229.22c-.61-.25-1.22-.47-1.66-1.01-.4-.49-.68-1.02-.69-1.67,0-.16,0-.32,0-.48,0-12.46,0-24.92,0-37.38,0-1.08.28-1.98,1.19-2.61.92-.64,1.91-.73,2.91-.23,1,.5,1.56,1.32,1.57,2.46.01,3.33,0,6.66,0,10,0,3.74,0,7.48,0,11.23.32.09.48-.15.67-.28,5.15-3.34,10.29-6.69,15.43-10.03,1.96-1.27,4.26-.32,4.6,1.92.17,1.15-.24,2.09-1.26,2.74-3.53,2.27-7.04,4.57-10.57,6.84-.52.33-.62.52-.16,1.03,3.75,4.17,7.48,8.37,11.2,12.57,1.56,1.76.84,4.12-1.42,4.79-.06.02-.11.07-.17.11h-.96c-.95-.26-1.57-.93-2.2-1.63-3.81-4.31-7.64-8.59-11.46-12.89-.3-.34-.52-.31-.86-.08-.75.52-1.51,1.03-2.29,1.5-.42.25-.57.55-.57,1.04.02,3.01.02,6.03,0,9.04,0,1.52-.73,2.47-2.19,2.92-.06.02-.11.07-.17.11h-.96Z"/><path class="cls-1" d="m106.84,229.22c-.71-.31-1.49-.3-2.23-.5-5.99-1.62-10.38-6.57-11.23-12.71-1.08-7.82,3.88-15.14,11.52-16.98,8.38-2.02,16.82,3.29,18.6,11.69,1.75,8.3-3.49,16.36-11.81,18.17-.52.11-1.08.05-1.57.33h-3.29Zm11.25-15.32c0-5.23-4.31-9.56-9.52-9.58-5.25-.02-9.62,4.33-9.63,9.56,0,5.28,4.3,9.59,9.58,9.59,5.29,0,9.57-4.28,9.57-9.57Z"/><path class="cls-1" d="m140.27,229.22c-.97-.37-2.03-.36-3.01-.73-5.87-2.21-9.56-6.28-10.41-12.57-.94-6.96,2.62-13.38,9.08-16.04,5.64-2.33,11.03-1.6,15.85,2.32.97.79,1.3,1.81,1.06,2.99-.2,1.01-.83,1.73-1.84,2.02-1.05.3-2.02.13-2.89-.58-1.53-1.25-3.25-2.05-5.26-2.24-4.33-.41-8.51,2.23-9.95,6.36-1.41,4.05.01,8.49,3.53,10.98,3.5,2.48,8.16,2.32,11.51-.39,1.91-1.54,4.43-.76,4.86,1.51.2,1.1-.18,2.02-1.02,2.75-2.21,1.93-4.79,3.05-7.68,3.46-.14.02-.33-.05-.41.15h-3.42Z"/><path class="cls-1" d="m219.17,229.22c-.07-.05-.14-.11-.22-.14-1.36-.5-2.08-1.45-2.08-2.89,0-8.19-.01-16.38,0-24.57,0-1.55,1.06-2.8,2.41-2.95,1.57-.18,2.88.67,3.23,2.1.09.35.08.72.12,1.14.57-.37,1.11-.74,1.66-1.09,3.14-1.94,6.56-2.47,10.18-2.06,1.35.15,2.66.4,3.85,1.1,1.39.82,1.92,1.93,1.6,3.23-.44,1.76-2.14,2.6-3.9,1.97-4.07-1.45-7.73-.83-10.81,2.29-1.74,1.76-2.59,3.96-2.61,6.43-.03,3.95,0,7.89,0,11.84,0,2.12-.42,2.77-2.34,3.59h-1.1Z"/><path class="cls-1" d="m138.35,121.68c14.95,0,29.9.03,44.85-.02,3.42-.01,6.75-.68,9.89-2.11.42-.19.55-.34.28-.8-2.9-4.92-3.24-10.16-1.79-15.58.86-3.21,2.31-6.13,4.28-8.8.21-.28.36-.38.71-.19,4.97,2.7,8.54,6.62,10.5,11.96.39,1.05.65,2.14.83,3.24.05.33.16.41.49.36,2.94-.47,5.89-.62,8.85-.22,3.16.43,6.16,1.27,8.64,3.44.34.29.4.51.26.91-2.24,6.44-6.88,10.25-13.29,12.08-2.25.64-4.57.87-6.9.8-.65-.02-.94.17-1.18.78-2.15,5.44-4.66,10.7-7.78,15.66-5.39,8.57-12.31,15.58-21.06,20.73-6.55,3.85-13.6,6.36-21.02,7.92-4.72.99-9.49,1.51-14.31,1.69-8.5.33-16.9-.31-25.12-2.65-5.69-1.62-10.81-4.26-14.88-8.67-3.54-3.83-6.03-8.28-7.86-13.12-1.95-5.19-3.09-10.57-3.6-16.09-.21-2.23-.28-4.46-.33-6.69-.07-2.99,2.25-4.65,4.62-4.64,14.97.05,29.95.02,44.92.02Z"/><path class="cls-1" d="m124.24,103.49c-1.92,0-3.83,0-5.75,0-.92,0-1.33-.41-1.34-1.34,0-3.4,0-6.8,0-10.2,0-1.03.39-1.42,1.41-1.42,3.83,0,7.67,0,11.5,0,1.02,0,1.4.39,1.4,1.42,0,3.4,0,6.8,0,10.2,0,.94-.41,1.34-1.33,1.34-1.96,0-3.92,0-5.89,0Z"/><path class="cls-1" d="m124.35,106.09c1.92,0,3.83,0,5.75,0,.98,0,1.36.38,1.36,1.37,0,3.38,0,6.75,0,10.13,0,1.07-.37,1.45-1.44,1.45-3.81.01-7.62.01-11.43,0-1.07,0-1.43-.39-1.43-1.47,0-3.35,0-6.71,0-10.06,0-1.06.38-1.43,1.45-1.43,1.92,0,3.83,0,5.75,0Z"/><path class="cls-1" d="m141.32,106.09c1.92,0,3.83,0,5.75,0,.98,0,1.38.38,1.38,1.36,0,3.4,0,6.8,0,10.2,0,.98-.38,1.39-1.36,1.39-3.86.02-7.71.02-11.57,0-1.01,0-1.38-.42-1.38-1.45,0-3.38,0-6.75,0-10.13,0-.98.4-1.37,1.37-1.37,1.94,0,3.88,0,5.82,0Z"/><path class="cls-1" d="m174.99,106.09c1.94,0,3.88,0,5.82,0,.94,0,1.34.39,1.34,1.32,0,3.42,0,6.84,0,10.27,0,.94-.38,1.35-1.33,1.36-3.88.02-7.76.02-11.64,0-.97,0-1.35-.42-1.35-1.41,0-3.38,0-6.75,0-10.13,0-1.05.4-1.41,1.47-1.41,1.89,0,3.79,0,5.68,0Z"/><path class="cls-1" d="m141.29,103.49c-1.92,0-3.83,0-5.75,0-1.01,0-1.4-.4-1.4-1.42,0-3.35,0-6.71,0-10.06,0-1.11.38-1.48,1.48-1.49,3.79,0,7.57,0,11.36,0,1.11,0,1.47.37,1.47,1.49,0,3.33,0,6.66,0,9.99,0,1.11-.38,1.48-1.48,1.48-1.89,0-3.79,0-5.68,0Z"/><path class="cls-1" d="m107.57,119c-1.94,0-3.88,0-5.81,0-.95,0-1.32-.36-1.32-1.33,0-3.42,0-6.84,0-10.26,0-.93.41-1.32,1.35-1.32,3.88,0,7.75,0,11.63,0,.89,0,1.32.38,1.32,1.28.02,3.44.02,6.89,0,10.33,0,.97-.38,1.3-1.35,1.3-1.94,0-3.88,0-5.81,0Z"/><path class="cls-1" d="m158.11,90.57c1.94,0,3.88,0,5.81,0,.93,0,1.28.35,1.28,1.28,0,3.44,0,6.88,0,10.33,0,.91-.38,1.3-1.28,1.3-3.9,0-7.8,0-11.7,0-.9,0-1.28-.39-1.28-1.3,0-3.44,0-6.88,0-10.33,0-.93.34-1.28,1.28-1.28,1.96,0,3.92,0,5.88,0Z"/><path class="cls-1" d="m158.08,87.91c-1.94,0-3.88,0-5.82,0-.97,0-1.31-.34-1.31-1.33,0-3.42,0-6.85,0-10.27,0-.95.37-1.31,1.33-1.31,3.86,0,7.72,0,11.57,0,.99,0,1.35.36,1.35,1.37,0,3.4,0,6.8,0,10.2,0,1-.35,1.33-1.37,1.34-1.92,0-3.83,0-5.75,0Z"/><path class="cls-1" d="m158.07,119c-1.94,0-3.88,0-5.82,0-.97,0-1.31-.34-1.31-1.33,0-3.42,0-6.85,0-10.27,0-.95.37-1.31,1.34-1.31,3.86,0,7.72,0,11.57,0,.99,0,1.34.36,1.34,1.37,0,3.4,0,6.8,0,10.2,0,.97-.35,1.33-1.31,1.33-1.94,0-3.88,0-5.82,0Z"/></g></g></svg>