<?xml version="1.0" encoding="UTF-8"?><svg xmlns="http://www.w3.org/2000/svg" viewBox="0 0 300 300"><defs><style>.cls-1{fill:#fff;}.cls-2,.cls-3{fill:#4674b9;}.cls-3{stroke:#fff;stroke-miterlimit:10;stroke-width:8px;}</style></defs><g id="Fondos"><rect class="cls-2" width="300" height="300"/></g><g id="Texto"><g><path class="cls-3" d="m60.72,173.22c1.22-5.44,2.63-11.86,4.1-18.26,3.68-16.03,7.46-32.03,11.03-48.08,1.16-5.2,4-8.56,8.8-10.82,19.65-9.25,39.24-18.62,58.79-28.07,4.52-2.19,8.7-2.17,13.2,0,19.56,9.44,39.15,18.81,58.8,28.07,4.78,2.25,7.65,5.56,8.82,10.79,4.73,21.19,9.59,42.34,14.56,63.47,1.09,4.63.28,8.51-2.67,12.17-13.89,17.22-27.76,34.47-41.57,51.75-2.95,3.69-6.66,5.36-11.31,5.36-22,0-44,0-66.01.06-4.95.01-8.83-1.78-11.96-5.71-13.63-17.09-27.37-34.1-41.09-51.12-2.04-2.53-3.57-5.21-3.49-9.6Z"/><path class="cls-1" d="m198.35,156.32c-.03,7.77.86,8.7,8.81,9.32,1.57.12,3.15.29,4.69.62,2.3.49,4.04,1.86,3.61,4.36-.48,2.8-2.81,3.37-5.2,2.78-2.54-.62-4.97-1.69-7.47-2.46-4.71-1.45-6.32-.7-8.17,3.72-3.6,8.6-9.14,15.71-16.9,20.86-3.28,2.18-3.35,4.58-1.8,7.52,1.1,2.09,2.48,4.03,3.75,6.03,1.17,1.84,2.05,3.78.95,5.92-.64,1.23-1.81,1.96-3.28,1.73-2.44-.38-3.38-2.3-4.12-4.32-.86-2.34-1.49-4.79-2.52-7.05-1.31-2.86-3.14-4.32-6.8-3.15-8.99,2.88-18.14,2.77-27.22.12-3.92-1.14-5.94-.24-7.51,3.64-.84,2.07-1.4,4.24-2.15,6.35-.72,2.01-1.57,3.99-4,4.45-1.46.28-2.66-.35-3.36-1.57-1.3-2.28-.28-4.29.97-6.24,1.28-1.99,2.72-3.92,3.71-6.05,1.33-2.85,1.54-5.31-1.84-7.52-7.92-5.17-13.63-12.4-17.02-21.22-1.43-3.73-3.81-4.3-7.04-3.42-2.53.69-4.94,1.81-7.47,2.52-2.53.7-5.14.9-6.25-2.26-.8-2.3,1.35-4.21,4.82-4.91,3.66-.73,7.8.4,10.89-2.58,3.29-3.16.93-7.16,1.33-10.74.81-7.31,2.48-14.31,6.33-20.56,2.04-3.31.8-5.44-1.61-7.33-2.16-1.69-4.67-2.95-6.96-4.48-2.35-1.57-3.75-3.75-1.75-6.27,1.92-2.41,4.29-1.36,6.2.36,2.15,1.94,4.02,4.19,6.23,6.04,2.28,1.91,4.52,2.46,7.17-.08,6.82-6.53,15.04-10.49,24.39-12.05,4.58-.77,5.61-2.06,5.36-6.82-.12-2.36-.62-4.69-.79-7.05-.19-2.71.39-5.16,3.6-5.59,2.46-.33,4.21,2.34,3.9,5.69-.08.91-.36,1.81-.49,2.72-1.2,8.72-.64,9.54,7.83,11.63,7.95,1.96,15.15,5.49,21.03,11.16,3.09,2.98,5.53,2.21,8.13,0,2.1-1.78,3.88-3.94,5.92-5.8,1.94-1.77,4.29-2.64,6.18-.2,1.84,2.39.53,4.51-1.63,6.01-2.27,1.57-4.78,2.81-6.96,4.48-2.71,2.07-3.87,4.38-1.69,7.94,4.42,7.22,6.27,15.27,6.22,23.74Z"/><path class="cls-2" d="m170.9,188.32c-2.48-5.93-4.97-11.56-7.17-17.3-1.37-3.56.51-5.7,4.26-5.11,5.31.84,10.58,1.85,15.89,2.68,1.59.25,2.54.57,1.72,2.43-3.14,7.13-7.81,12.94-14.69,17.31Z"/><path class="cls-2" d="m145.07,122.26c-.21,4.32-.38,8.65-.65,12.97-.31,5.17-2.64,6.38-6.8,3.52-4.21-2.9-8.32-5.97-12.56-8.83-1.66-1.12-1.75-1.84-.18-3.16,4.71-3.96,9.99-6.72,15.97-8.15,4.55-1.09,4.58-1.1,4.22,3.65Z"/><path class="cls-2" d="m111.49,154.84c.28-5.45,1.56-11.15,4.26-16.53,1.09-2.19,1.96-2.26,3.68-.63,3.71,3.52,7.64,6.82,11.37,10.32,3.18,2.99,2.59,5.57-1.58,6.88-4.37,1.38-8.81,2.55-13.22,3.82q-4.57,1.32-4.51-3.86Z"/><path class="cls-2" d="m188.65,155.41c.1,4.43.02,4.5-4.22,3.28-4.53-1.3-9.09-2.49-13.58-3.92-4.17-1.33-4.73-3.91-1.54-6.87,3.75-3.47,7.67-6.76,11.37-10.29,1.86-1.77,2.64-1.23,3.64.78,2.68,5.37,3.99,11.06,4.33,17.01Z"/><path class="cls-2" d="m150.24,194.59c-3.28-.22-6.53-.6-9.76-1.33-2.1-.48-2.62-1.21-1.47-3.19,2.7-4.66,5.17-9.46,7.9-14.11,1.75-2.98,4.44-3.12,6.17-.24,2.91,4.84,5.49,9.88,8.29,14.79,1.02,1.78.15,2.26-1.38,2.67-3.2.86-6.47,1.11-9.75,1.41Z"/><path class="cls-2" d="m155.04,121.97c-.97-3.91.66-4.38,3.91-3.5,5.66,1.53,10.79,3.97,15.38,7.62,1.9,1.51,2.67,2.6.04,4.28-4.08,2.61-7.92,5.6-11.92,8.34-4.03,2.77-6.42,1.66-6.73-3.15-.3-4.58-.47-9.16-.68-13.59Z"/><path class="cls-2" d="m133.33,165.79c2.76.26,4.18,1.95,3.24,4.54-2,5.56-4.41,10.96-6.63,16.44-.62,1.53-1.43,1.06-2.39.37-5.66-4.12-9.9-9.38-12.74-15.77-.5-1.13-.96-2.33.94-2.64,5.83-.97,11.66-1.95,17.57-2.94Z"/><path class="cls-2" d="m150.25,149.79c3.08.03,6.2,2.87,6.2,5.65,0,3.52-3.19,7.03-6.39,7.03-3.22,0-6.39-3.49-6.4-7.02,0-2.94,3.2-5.69,6.59-5.65Z"/></g></g></svg>