<?xml version="1.0" encoding="UTF-8"?><svg id="Texto" xmlns="http://www.w3.org/2000/svg" viewBox="0 0 300 300"><defs><style>.cls-1,.cls-2{fill:#f29220;}.cls-2,.cls-3,.cls-4{fill-rule:evenodd;}.cls-3,.cls-5{fill:#037690;}.cls-4{fill:#687e91;}</style></defs><path class="cls-4" d="m190.39,90.45c-1.04,0-1.77.12-2.51.31v.12h.12c.49.98,1.35,1.66,1.96,2.51.49.98.92,1.96,1.41,2.94.06-.06.12-.12.12-.12.86-.61,1.29-1.59,1.29-3.06-.37-.43-.43-.86-.74-1.29-.37-.61-1.16-.92-1.66-1.41"/><g><path class="cls-5" d="m92.89,211.41h-8.49c-.3-14.33-1.13-27.8-2.48-40.42h-.07l-12.92,40.42h-6.46l-12.85-40.42h-.08c-.95,12.12-1.55,25.59-1.8,40.42h-7.74c.5-18.03,1.75-34.94,3.76-50.72h10.52l12.25,37.27h.08l12.32-37.27h10.07c2.2,18.48,3.51,35.39,3.91,50.72"/><path class="cls-5" d="m129.71,173.99c-3.46,18.75-8.02,32.39-13.67,40.89-4.41,6.55-9.24,9.83-14.5,9.83-1.4,0-3.13-.42-5.18-1.26v-4.52c1,.15,2.18.23,3.53.23,2.45,0,4.43-.68,5.94-2.03,1.8-1.65,2.7-3.5,2.7-5.56,0-1.4-.7-4.28-2.1-8.64l-9.32-28.93h8.34l6.69,21.64c1.5,4.91,2.13,8.34,1.88,10.3,3.66-9.77,6.21-20.41,7.67-31.93h8.04Z"/><polygon class="cls-1" points="242.71 211.41 218.59 211.41 218.59 160.69 226.71 160.69 226.71 205.17 242.71 205.17 242.71 211.41"/><path class="cls-2" d="m212.28,212.63l-9.32-4.6c.83-.68,1.62-1.42,2.33-2.27,3.96-4.65,5.94-11.54,5.94-20.66,0-16.78-6.59-25.17-19.76-25.17-6.46,0-11.5,2.13-15.1,6.39-3.96,4.66-5.94,11.52-5.94,20.59s1.75,15.46,5.26,19.61c3.21,3.76,8.04,5.63,14.5,5.63,2.41,0,4.63-.3,6.64-.89l12.14,7.06,3.31-5.7Zm-30.2-11.37c-2.05-3.31-3.08-8.61-3.08-15.93,0-12.77,3.88-19.16,11.65-19.16,4.06,0,7.04,1.53,8.94,4.58,2.05,3.31,3.08,8.57,3.08,15.78,0,12.87-3.88,19.31-11.65,19.31-4.06,0-7.04-1.53-8.94-4.59"/><path class="cls-1" d="m166.89,197.35c0,4.3-1.58,7.83-4.73,10.59-3.15,2.75-7.39,4.13-12.69,4.13-4.96,0-9.77-1.59-14.43-4.74l2.18-4.36c4.01,2,7.63,3,10.89,3,3.05,0,5.44-.68,7.17-2.02,1.73-1.35,2.76-3.24,2.76-5.63,0-3.01-2.1-5.59-5.95-7.74-3.56-1.95-10.67-6.03-10.67-6.03-3.85-2.81-5.78-5.83-5.78-10.79,0-4.11,1.44-7.43,4.32-9.96,2.88-2.53,6.6-3.8,11.16-3.8s8.99,1.26,12.85,3.76l-1.96,4.35c-3.3-1.4-6.55-2.1-9.76-2.1-2.6,0-4.61.63-6.01,1.88-1.41,1.25-2.27,2.85-2.27,4.81,0,3,2.15,5.61,6.11,7.81,3.6,1.95,10.89,6.11,10.89,6.11,3.96,2.81,5.94,5.79,5.94,10.72"/><path class="cls-3" d="m252.89,143.7c-4.9-.12-8.7.37-11.89,1.72-.92.37-2.39.37-2.51,1.53.49.49.55,1.28.98,1.96.73,1.22,2.02,2.88,3.19,3.74,1.29.98,2.57,1.96,3.92,2.82,2.39,1.48,5.09,2.33,7.41,3.8,1.35.86,2.7,1.96,4.05,2.88.67.49,1.1,1.29,1.96,1.59v-.19c-.43-.55-.55-1.35-.98-1.96-.61-.61-1.23-1.16-1.84-1.77-1.78-2.39-3.99-4.47-6.37-6.19-1.96-1.35-6.26-3.19-7.05-5.45,0,0-.06-.07-.12-.13,1.35-.12,2.94-.61,4.23-.99,2.08-.55,3.98-.43,6.12-.98.98-.25,1.96-.56,2.95-.86v-.55c-1.11-1.1-1.9-2.57-3.07-3.61-3.12-2.7-6.56-5.33-10.11-7.54-1.9-1.23-4.35-2.02-6.38-3.06-.73-.37-1.96-.55-2.39-1.17-1.1-1.35-1.72-3.12-2.51-4.72-1.77-3.37-3.49-7.1-5.02-10.66-1.1-2.39-1.78-4.78-3.12-6.98-6.32-10.42-13.18-16.73-23.72-22.92-2.27-1.29-4.96-1.84-7.84-2.51-1.53-.06-3.06-.18-4.6-.24-.98-.43-1.96-1.6-2.82-2.15-3.49-2.21-12.5-6.98-15.07-.67-1.65,3.99,2.45,7.91,3.86,9.93,1.04,1.41,2.39,3,3.12,4.59.43,1.04.55,2.15.98,3.25.98,2.7,1.9,5.7,3.19,8.21.67,1.29,1.41,2.64,2.26,3.8.49.68,1.35.98,1.53,2.09-.86,1.22-.92,3.06-1.41,4.6-2.2,6.93-1.35,15.5,1.78,20.59.98,1.53,3.31,4.9,6.44,3.61,2.76-1.1,2.14-4.59,2.94-7.66.18-.74.06-1.23.43-1.72v.12c.86,1.71,1.72,3.36,2.51,5.09,1.9,3,5.21,6.13,7.97,8.21,1.47,1.11,2.63,3,4.47,3.68v-.19h-.12c-.37-.55-.92-.8-1.41-1.22-1.1-1.1-2.33-2.45-3.19-3.68-2.57-3.43-4.84-7.23-6.86-11.15-.98-1.9-1.84-3.99-2.64-5.88-.37-.73-.37-1.84-.98-2.2-.92,1.35-2.27,2.51-2.94,4.16-1.16,2.64-1.29,5.89-1.72,9.26-.24.06-.12,0-.24.12-1.96-.49-2.63-2.51-3.37-4.22-1.84-4.36-2.15-11.34-.55-16.37.43-1.28,2.27-5.33,1.53-6.55-.37-1.17-1.59-1.84-2.27-2.76-.8-1.16-1.66-2.63-2.2-3.92-1.47-3.43-2.21-7.23-3.8-10.66-.74-1.6-2.03-3.25-3.06-4.72-1.17-1.66-2.45-2.82-3.37-4.78-.3-.68-.73-1.78-.25-2.51.12-.49.37-.68.86-.8.79-.67,3.06.18,3.86.55,2.27.92,4.17,1.78,6.07,3.06.86.61,1.78,1.78,2.88,2.09h1.29c1.96.43,4.17.12,6.01.67,3.25,1.04,6.19,2.57,8.82,4.23,8.02,5.09,14.64,12.32,19.12,20.96.74,1.41,1.05,2.7,1.72,4.16,1.29,3.01,2.88,6.07,4.17,9.01,1.29,2.88,2.52,5.82,4.35,8.21.92,1.29,4.6,1.96,6.25,2.63,1.22.55,3.12,1.04,4.23,1.71,2.08,1.29,4.16,2.76,6.13,4.17.98.74,4.04,2.27,4.23,3.49"/><path class="cls-1" d="m258.73,211.4h1.27v-6.21h-1.91l-1.55,4.24-1.69-4.24h-1.84v6.21h1.2v-4.73h.07l1.77,4.73h.91l1.77-4.73v4.73Zm-10.23,0h1.34v-5.16h1.76v-1.05h-4.93v1.05h1.83v5.16Z"/></g></svg>