<?xml version="1.0" encoding="UTF-8"?><svg xmlns="http://www.w3.org/2000/svg" viewBox="0 0 300 300"><defs><style>.cls-1{fill:#fff;}.cls-2{fill:#c54027;}</style></defs><g id="Fondos"><rect class="cls-2" width="300" height="300"/></g><g id="Texto"><g><path class="cls-1" d="m240,41.44c-.16.39-.33.77-.46,1.16-1.87,5.54-3.74,11.07-5.61,16.61-1.97,5.82-3.95,11.64-5.92,17.46-2.01,5.91-4.01,11.83-6.02,17.74-2,5.91-4.01,11.83-6.02,17.74-.41,1.21-.82,2.41-1.22,3.62-.08.23-.13.47-.2.71.88.24,1.7.45,2.51.69,3.11.93,5.88,2.5,8.31,4.63,4.3,3.78,6.89,8.52,7.67,14.19.69,5.07-.2,9.9-2.74,14.38-.3.53-.33.91,0,1.47,2.68,4.65,4.33,9.65,4.85,15,.7,7.22-.6,14.08-3.99,20.51-1.5,2.84-3.38,5.41-5.58,7.76-2.97,3.18-6.41,5.71-10.26,7.69-3.32,1.7-6.84,2.91-10.46,3.81-3.27.81-6.58,1.4-9.91,1.91-4.6.71-9.23,1.28-13.8,2.2-5.55,1.12-10.89,2.93-16.12,5.06-4.33,1.76-8.57,3.71-12.76,5.78-3.81,1.88-7.61,3.77-11.43,5.64-5.72,2.8-11.47,5.53-17.43,7.81-5.05,1.93-10.2,3.49-15.54,4.36-1.62.26-3.26.42-4.9.51-1.79.11-3.59.17-5.38.1-2.04-.08-4.07-.35-6.07-.76-3.44-.71-6.74-1.84-9.88-3.41-3.32-1.66-6.43-3.65-9.2-6.14-4.59-4.13-7.83-9.16-9.87-14.98-1.29-3.7-2-7.52-2.35-11.41-.21-2.32-.29-4.64-.16-6.96.31-5.47,1.07-10.87,2.69-16.13,1.4-4.55,3.17-8.94,5.19-13.24,1.68-3.57,3.4-7.12,5.11-10.68.29-.6.28-.59-.19-1.09-3.77-4.03-5.95-8.77-6.32-14.29-.43-6.35,1.47-11.94,5.62-16.73,3.54-4.09,8.03-6.61,13.37-7.53,5-.85,9.81-.17,14.33,2.14,4.28,2.19,7.58,5.4,9.86,9.64,1.55,2.88,2.45,5.94,2.66,9.21.41,6.4-1.48,12.02-5.69,16.85-2.46,2.82-5.45,4.9-8.94,6.23-.56.21-.87.55-1.1,1.1-.84,1.96-1.52,3.95-1.76,6.09-.35,3.1.11,6.08,1.3,8.94,1.59,3.79,4.15,6.79,7.56,9.08.38.25.68.28,1.1.11,3.97-1.61,7.75-3.58,11.34-5.91,3.11-2.01,6.05-4.25,8.81-6.71,4.14-3.68,7.86-7.75,11.12-12.22.57-.78,1.12-1.58,1.69-2.41-8.18-5.79-11.89-13.51-10.51-23.48,2-9.84,8.04-15.88,17.66-18.68-8.47-25.03-16.97-50.08-25.48-75.21.28-.03.46-.06.65-.07.27-.01.55,0,.82,0,39.3,0,78.61,0,117.91,0,.37,0,.75,0,1.12-.01v.15Zm-60.15,51.46c-.07-.01-.13-.03-.2-.04-4.79,9.68-9.57,19.36-14.39,29.09.13.11.26.2.36.3,1.83,1.73,3.36,3.68,4.58,5.89,1.81,3.3,2.7,6.86,2.79,10.61.03,1.24-.1,2.5-.29,3.73-.93,5.99-3.75,10.93-8.51,14.68-4.99,3.94-10.69,5.48-17,4.78-.54-.06-.81.08-1.09.51-2.73,4.26-5.84,8.24-9.3,11.93-9.04,9.65-19.65,16.93-32.18,21.31-.81.28-1.46.33-2.16-.17-.3-.22-.66-.35-.99-.52-3.6-1.91-6.76-4.38-9.3-7.56-5.82-7.31-7.76-15.51-5.45-24.63.05-.19.08-.38.12-.55-2.01-.5-3.97-1-5.99-1.5-.33.69-.68,1.4-1.03,2.12-2.08,4.3-4.19,8.57-6.02,12.98-2.7,6.49-4.43,13.2-4.71,20.25-.17,4.39.08,8.74,1.2,13.01,1.8,6.9,5.48,12.48,11.5,16.43,4.44,2.92,9.27,4.77,14.56,5.35,4.24.46,8.43.08,12.59-.8,4.02-.85,7.9-2.13,11.72-3.62,5.52-2.16,10.85-4.73,16.17-7.33,5.95-2.9,11.88-5.83,17.87-8.67,5.13-2.43,10.4-4.51,15.8-6.26,6.37-2.06,12.96-3.09,19.56-4.06,3.6-.53,7.21-1.12,10.78-1.83,3.73-.74,7.34-1.92,10.73-3.7,9.77-5.12,15.58-15.29,14.69-26.22-.27-3.32-1.09-6.49-2.44-9.53-.12-.27-.26-.52-.43-.87-1.65,1.1-3.31,1.99-5.09,2.66-1.81.68-3.68,1.12-5.6,1.32-1.9.2-3.79.16-5.68-.11-1.91-.28-3.76-.78-5.55-1.51-1.76-.73-3.41-1.67-4.94-2.81-1.55-1.16-2.94-2.49-4.15-3.99-3.26-4.05-4.98-8.7-5.11-13.88-.18-6.75,2.33-12.45,7.07-17.23-4.84-9.88-9.66-19.72-14.49-29.56Zm-.07-20.61c7.46,15.21,14.84,30.27,22.23,45.34.76-.24,1.42-.51,2.1-.64.63-.12.91-.44,1.1-1.03,2.11-6.3,4.25-12.59,6.38-18.88,5.2-15.33,10.39-30.65,15.59-45.98.09-.25.16-.51.25-.81h-95.41c.12.39.21.72.32,1.05,6.58,19.42,13.16,38.84,19.74,58.26.72,2.13,1.44,4.26,2.17,6.38.08.25.1.55.44.64.91.23,1.82.47,2.79.73,7.41-14.99,14.82-29.95,22.29-45.06Zm-90.32,80.98c7.42.05,13.99-5.97,14.02-13.95.03-8.09-6.62-14.05-13.98-14.07-7.28-.02-14.04,5.82-14.05,14-.01,8.11,6.65,14.08,14.02,14.02Zm120.83-.12c7.72-.02,14.03-6.35,13.99-14.07-.04-7.88-6.53-14.04-14.16-13.97-7.24.07-13.87,5.88-13.87,14.03,0,7.96,6.46,14,14.04,14.01Zm-60.3,0c7.74-.02,13.99-6.32,13.99-14.06,0-7.66-6.33-14.05-14.14-13.98-8.01.08-14.02,6.83-13.89,14.24.13,7.55,6.41,13.82,14.04,13.8Z"/><path class="cls-2" d="m179.85,92.89c4.82,9.84,9.64,19.67,14.49,29.56-4.74,4.78-7.24,10.49-7.07,17.23.14,5.18,1.85,9.83,5.11,13.88,1.21,1.51,2.6,2.84,4.15,3.99,1.53,1.14,3.17,2.08,4.94,2.81,1.79.74,3.63,1.24,5.55,1.51,1.89.27,3.79.31,5.68.11,1.92-.2,3.79-.64,5.6-1.32,1.78-.67,3.44-1.56,5.09-2.66.17.34.31.6.43.87,1.35,3.04,2.17,6.21,2.44,9.53.89,10.93-4.92,21.1-14.69,26.22-3.39,1.78-7,2.95-10.73,3.7-3.57.71-7.17,1.3-10.78,1.83-6.6.97-13.18,2-19.56,4.06-5.4,1.75-10.67,3.83-15.8,6.26-5.98,2.83-11.92,5.76-17.87,8.67-5.32,2.6-10.65,5.17-16.17,7.33-3.82,1.49-7.7,2.77-11.72,3.62-4.16.88-8.35,1.26-12.59.8-5.29-.58-10.12-2.43-14.56-5.35-6.02-3.95-9.7-9.53-11.5-16.43-1.11-4.27-1.37-8.62-1.2-13.01.28-7.05,2.01-13.76,4.71-20.25,1.83-4.41,3.95-8.69,6.02-12.98.35-.72.69-1.43,1.03-2.12,2.02.51,3.98,1,5.99,1.5-.04.18-.08.37-.12.55-2.3,9.12-.37,17.32,5.45,24.63,2.54,3.19,5.7,5.66,9.3,7.56.33.18.69.31.99.52.7.5,1.35.46,2.16.17,12.53-4.38,23.14-11.66,32.18-21.31,3.46-3.69,6.57-7.67,9.3-11.93.28-.43.54-.57,1.09-.51,6.31.71,12.01-.84,17-4.78,4.76-3.76,7.58-8.69,8.51-14.68.19-1.23.32-2.49.29-3.73-.1-3.74-.98-7.3-2.79-10.61-1.21-2.21-2.75-4.16-4.58-5.89-.11-.1-.23-.19-.36-.3,4.81-9.73,9.6-19.41,14.39-29.09.07.01.13.03.2.04Z"/><path class="cls-2" d="m179.78,72.29c-7.47,15.11-14.87,30.07-22.29,45.06-.97-.25-1.88-.5-2.79-.73-.35-.09-.36-.39-.44-.64-.73-2.13-1.45-4.25-2.17-6.38-6.58-19.42-13.16-38.84-19.74-58.26-.11-.33-.2-.66-.32-1.05h95.41c-.09.31-.17.56-.25.81-5.2,15.33-10.39,30.65-15.59,45.98-2.13,6.29-4.27,12.58-6.38,18.88-.2.59-.47.91-1.1,1.03-.68.13-1.33.4-2.1.64-7.39-15.07-14.77-30.13-22.23-45.34Z"/><path class="cls-2" d="m89.46,153.26c-7.37.05-14.03-5.92-14.02-14.02.01-8.18,6.78-14.02,14.05-14,7.35.02,14.01,5.98,13.98,14.07-.03,7.98-6.6,14-14.02,13.95Z"/><path class="cls-2" d="m210.29,153.15c-7.59-.02-14.05-6.05-14.04-14.01,0-8.15,6.63-13.96,13.87-14.03,7.63-.07,14.12,6.09,14.16,13.97.03,7.72-6.27,14.05-13.99,14.07Z"/><path class="cls-2" d="m149.99,153.15c-7.63.02-13.9-6.25-14.04-13.8-.13-7.41,5.88-14.16,13.89-14.24,7.82-.08,14.14,6.31,14.14,13.98,0,7.74-6.26,14.04-13.99,14.06Z"/></g></g></svg>