<?xml version="1.0" encoding="UTF-8"?><svg xmlns="http://www.w3.org/2000/svg" viewBox="0 0 300 300"><defs><style>.cls-1{fill:#fff;}.cls-2{fill:#4a4a4d;}</style></defs><g id="Fondos"><rect class="cls-2" width="300" height="300"/></g><g id="Texto"><g><path class="cls-2" d="m150.06,70c-44.21-.02-79.59,35.58-80.03,79.1-.45,44.94,35.71,80.84,79.82,80.9,44.36.05,80.07-35.74,80.12-79.9.05-44.34-35.78-80.07-79.92-80.1Z"/><path class="cls-1" d="m150.06,70c44.13.02,79.97,35.76,79.92,80.1-.05,44.16-35.76,79.96-80.12,79.9-44.11-.05-80.28-35.96-79.82-80.9.44-43.52,35.82-79.12,80.03-79.1Zm30.81,102.38c-.13-.45-.21-.7-.27-.95-2.93-12.15-5.86-24.31-8.8-36.46-1.56-6.46-3.13-12.91-4.68-19.37-.14-.57-.42-.71-.97-.7-6.17.02-12.34.01-18.51.01-.25,0-.5.04-.83.08.12.44.21.8.32,1.15,4.23,13.59,8.46,27.19,12.7,40.78,3.6,11.55,7.21,23.09,10.83,34.63.18.58.12,1-.29,1.47-2.31,2.61-5.07,4.56-8.43,5.49-2.79.77-5.64,1.32-8.46,1.95-.45.1-.93.05-.81.79.63,4.1,1.25,8.19,1.83,12.3.08.58.33.74.85.69,3.67-.36,7.31-.87,10.87-1.86,6.04-1.68,11.43-4.51,15.89-8.98,4.72-4.75,7.91-10.44,10-16.75,2.48-7.49,4.85-15.01,7.27-22.52,4.89-15.16,9.78-30.31,14.66-45.47.39-1.2.76-2.41,1.15-3.66-.27-.04-.41-.08-.55-.08-6.14,0-12.28,0-18.42-.02-.54,0-.7.25-.81.69-.4,1.57-.82,3.14-1.22,4.72-4.1,16.08-8.2,32.16-12.3,48.24-.31,1.23-.65,2.44-1.02,3.84Zm-35.07-50.95c-.1-.15-.14-.24-.2-.29-3.52-3.03-7.42-5.39-11.88-6.74-4.6-1.4-9.31-1.79-14.11-1.47-4.83.33-9.38,1.54-13.59,3.91-7.34,4.13-12.04,10.43-14.71,18.3-2.31,6.79-2.79,13.77-2.1,20.88.51,5.29,1.84,10.33,4.37,15.02,3.73,6.92,9.3,11.71,16.74,14.29,5.85,2.04,11.86,2.34,17.95,1.54,6.31-.83,11.89-3.41,16.91-7.28.57-.44.58-.77.18-1.34-1.62-2.27-3.19-4.57-4.79-6.86-.99-1.42-2-2.84-2.97-4.22-.13.02-.16.01-.19.03-.57.34-1.14.7-1.71,1.04-3.37,2.01-6.88,3.55-10.9,3.77-7.27.4-12.41-3.1-14.49-10.05-.86-2.88-1.21-5.85-1.3-8.84-.16-5.18-.02-10.34,1.57-15.34.88-2.78,2.18-5.32,4.44-7.25,2.86-2.44,6.22-3.12,9.89-2.95,3.99.18,7.53,1.51,10.8,3.71.62.41,1.22.85,1.86,1.3,2.77-3.76,5.49-7.45,8.24-11.16Z"/><path class="cls-2" d="m180.86,172.39c.37-1.4.71-2.62,1.02-3.84,4.1-16.08,8.2-32.16,12.3-48.24.4-1.57.82-3.14,1.22-4.72.11-.44.27-.69.81-.69,6.14.02,12.28.01,18.42.02.14,0,.28.04.55.08-.39,1.25-.76,2.46-1.15,3.66-4.89,15.16-9.77,30.31-14.66,45.47-2.42,7.51-4.79,15.03-7.27,22.52-2.09,6.31-5.28,12-10,16.75-4.45,4.48-9.84,7.3-15.89,8.98-3.56.99-7.2,1.51-10.87,1.86-.52.05-.77-.11-.85-.69-.58-4.1-1.19-8.2-1.83-12.3-.11-.74.36-.69.81-.79,2.83-.63,5.68-1.18,8.46-1.95,3.36-.93,6.12-2.88,8.43-5.49.42-.47.47-.89.29-1.47-3.62-11.54-7.22-23.09-10.83-34.63-4.24-13.59-8.47-27.19-12.7-40.78-.11-.35-.2-.71-.32-1.15.33-.03.58-.08.83-.08,6.17,0,12.34,0,18.51-.01.55,0,.84.14.97.7,1.55,6.46,3.12,12.91,4.68,19.37,2.93,12.15,5.86,24.31,8.8,36.46.06.25.14.5.27.95Z"/><path class="cls-2" d="m145.79,121.44c-2.74,3.72-5.47,7.41-8.24,11.16-.64-.45-1.24-.89-1.86-1.3-3.27-2.19-6.81-3.53-10.8-3.71-3.67-.17-7.04.51-9.89,2.95-2.26,1.93-3.56,4.48-4.44,7.25-1.59,5-1.73,10.16-1.57,15.34.09,2.99.44,5.96,1.3,8.84,2.08,6.95,7.22,10.45,14.49,10.05,4.02-.22,7.53-1.76,10.9-3.77.57-.34,1.14-.69,1.71-1.04.02-.01.06,0,.19-.03.97,1.38,1.98,2.79,2.97,4.22,1.6,2.29,3.17,4.59,4.79,6.86.4.57.39.9-.18,1.34-5.02,3.87-10.59,6.45-16.91,7.28-6.09.8-12.1.49-17.95-1.54-7.43-2.59-13-7.37-16.74-14.29-2.53-4.69-3.86-9.73-4.37-15.02-.69-7.11-.2-14.09,2.1-20.88,2.67-7.88,7.37-14.17,14.71-18.3,4.22-2.37,8.77-3.59,13.59-3.91,4.8-.32,9.51.07,14.11,1.47,4.46,1.35,8.36,3.71,11.88,6.74.06.05.1.14.2.29Z"/></g></g></svg>