<?xml version="1.0" encoding="UTF-8"?><svg xmlns="http://www.w3.org/2000/svg" viewBox="0 0 300 300"><defs><style>.cls-1{fill:#fff;fill-rule:evenodd;}.cls-2{fill:#3978bd;}</style></defs><g id="Fondos"><rect class="cls-2" x="0" width="300" height="300"/></g><g id="Texto"><path class="cls-1" d="m199.12,235.11v19.91c3.24,1.66,7.06,2.9,11.48,3.73s9.08,1.24,13.97,1.24,9.31-.46,13.6-1.37c4.3-.91,8.06-2.42,11.3-4.51,3.24-2.09,5.8-4.83,7.69-8.21s2.83-7.56,2.83-12.54c0-3.61-.54-6.77-1.62-9.49s-2.63-5.13-4.67-7.25c-2.03-2.12-4.47-4.01-7.31-5.69s-6.05-3.27-9.62-4.76c-2.61-1.08-4.96-2.13-7.03-3.14-2.07-1.02-3.84-2.05-5.29-3.11-1.45-1.06-2.57-2.18-3.36-3.36-.79-1.18-1.18-2.52-1.18-4.01,0-1.37.35-2.6,1.06-3.7s1.7-2.04,2.99-2.83c1.29-.79,2.86-1.4,4.73-1.84,1.87-.44,3.94-.65,6.22-.65,1.66,0,3.41.12,5.26.37,1.85.25,3.7.63,5.57,1.15,1.87.52,3.68,1.17,5.45,1.96,1.76.79,3.39,1.7,4.89,2.74v-18.6c-3.03-1.16-6.34-2.02-9.93-2.58s-7.71-.84-12.36-.84-9.21.51-13.45,1.52-7.96,2.6-11.17,4.76c-3.22,2.16-5.76,4.91-7.62,8.24-1.87,3.34-2.8,7.33-2.8,11.98,0,5.93,1.71,10.99,5.14,15.18,3.42,4.19,8.62,7.74,15.59,10.64,2.74,1.12,5.29,2.22,7.66,3.3s4.41,2.2,6.13,3.36c1.72,1.16,3.08,2.43,4.08,3.8,1,1.37,1.49,2.92,1.49,4.67,0,1.29-.31,2.48-.93,3.58s-1.57,2.05-2.83,2.86-2.84,1.44-4.73,1.9c-1.89.46-4.1.68-6.63.68-4.32,0-8.59-.76-12.82-2.27-4.23-1.51-8.15-3.78-11.76-6.81h0Zm-33.47-49.06h25.54v-16.34h-71.19v16.34h25.42v72.75h20.23v-72.75Z"/></g></svg>