<?xml version="1.0" encoding="UTF-8"?><svg id="Texto" xmlns="http://www.w3.org/2000/svg" viewBox="0 0 300 300"><defs><style>.cls-1{fill:#fff;}.cls-2{fill:#ef4623;}</style></defs><path class="cls-2" d="m211.1,94.75c-15.46-22.27-46.24-28.79-68.36-14.75l-39,24.96c-10.64,6.67-18.01,17.59-20.14,29.93-1.84,10.35-.28,20.99,4.68,30.21-3.4,5.11-5.67,10.78-6.67,16.74-2.27,12.62.71,25.67,8.08,36.02,15.6,22.27,46.24,28.79,68.36,14.75l39-24.82c10.64-6.67,18.01-17.59,20.14-29.93,1.84-10.35.28-20.99-4.68-30.21,3.4-5.11,5.67-10.78,6.67-16.74,2.41-12.76-.57-25.81-8.08-36.17"/><path class="cls-1" d="m138.91,219.98c-12.62,3.26-25.81-1.7-33.19-12.34-4.54-6.24-6.24-14.04-4.96-21.7.28-1.28.57-2.41.85-3.69l.71-2.27,1.99,1.42c4.68,3.4,9.79,5.96,15.32,7.66l1.42.43-.14,1.42c-.14,1.99.43,4.11,1.56,5.81,2.27,3.26,6.24,4.82,10.07,3.83.85-.28,1.7-.57,2.41-.99l38.86-24.82c1.99-1.28,3.26-3.12,3.69-5.39.43-2.27-.14-4.68-1.42-6.52-2.27-3.26-6.24-4.68-10.07-3.69-.85.28-1.7.57-2.41.99l-14.89,9.5c-2.41,1.56-5.11,2.69-7.94,3.4-12.62,3.26-25.81-1.7-33.19-12.34-4.4-6.24-6.24-14.04-4.82-21.7,1.28-7.38,5.81-14.04,12.2-18.01l39-24.82c2.41-1.56,5.11-2.69,7.94-3.55,12.62-3.26,25.81,1.7,33.19,12.34,4.54,6.24,6.24,14.04,4.96,21.7-.28,1.28-.57,2.41-.99,3.69l-.71,2.27-1.99-1.42c-4.68-3.4-9.79-5.96-15.32-7.66l-1.42-.43.14-1.42c.14-1.99-.43-4.11-1.56-5.81-2.27-3.26-6.24-4.68-10.07-3.69-.85.28-1.7.57-2.41.99l-38.86,24.82c-1.99,1.28-3.26,3.12-3.69,5.39s.14,4.68,1.42,6.52c2.27,3.26,6.24,4.68,10.07,3.69.85-.28,1.7-.57,2.41-.99l14.89-9.5c2.41-1.56,5.11-2.69,7.94-3.55,12.62-3.26,25.81,1.7,33.19,12.34,4.54,6.24,6.24,14.04,4.96,21.7-1.28,7.38-5.81,14.04-12.2,18.01l-39,24.82c-2.41,1.56-5.11,2.69-7.94,3.55"/></svg>