<?xml version="1.0" encoding="UTF-8"?><svg xmlns="http://www.w3.org/2000/svg" viewBox="0 0 300 300"><defs><style>.cls-1{fill:#693994;}.cls-2{fill:#fff;}</style></defs><g id="Fondos"><rect class="cls-1" width="300" height="300"/></g><g id="Texto"><path class="cls-2" d="m144.8,74.94c-41.28,0-75.06,33.78-75.06,75.06s33.78,75.06,75.06,75.06,75.06-33.77,75.06-75.06-33.77-75.06-75.06-75.06Zm-41.82,116.87c-11.26-11.26-17.16-26.27-17.16-40.74l58.44,57.9c-15.01-.54-30.02-5.9-41.28-17.16Zm54.68,15.55l-70.23-70.23c5.9-26.27,29.49-46.11,57.36-46.11,19.84,0,36.99,9.65,47.71,24.12l-8.04,6.97c-9.11-12.33-23.59-20.37-39.67-20.37-20.91,0-38.6,13.4-45.57,32.17l61.65,61.65c15.55-5.36,27.34-18.76,31.09-34.85h-25.73v-10.72h37.53c0,27.88-19.84,51.47-46.11,57.36Z"/></g></svg>