<?xml version="1.0" encoding="UTF-8"?><svg xmlns="http://www.w3.org/2000/svg" viewBox="0 0 300 300"><defs><style>.cls-1{fill:#fff;}.cls-2{fill:#484848;}</style></defs><g id="Fondos"><rect class="cls-2" width="300" height="300"/></g><g id="Texto"><path class="cls-1" d="m161.79,228.69h-11.97c-.13-.37-.46-.27-.73-.3-3.53-.35-7.02-.94-10.47-1.76-28.44-6.78-50.57-31.02-54.82-59.99-.23-1.6-.15-3.25-.8-4.78v-12.26c.37-.13.27-.46.3-.73.35-3.53.94-7.02,1.76-10.47,6.79-28.45,31.01-50.57,59.98-54.82,1.69-.25,3.44-.17,5.08-.8h11.67c.14.37.47.26.74.29,3.53.32,7.02.91,10.47,1.72,28.67,6.79,50.83,30.94,55.11,60.04.25,1.69.17,3.44.8,5.08v11.97c-.37.13-.27.46-.3.73-.35,3.53-.94,7.02-1.76,10.47-6.77,28.42-31.01,50.57-59.98,54.82-1.69.25-3.44.17-5.08.8Zm-22.06-33.18c.07-.13.14-.24.18-.36,4.61-13.81,9.21-27.62,13.84-41.42.2-.61.11-1.11-.1-1.68-3.17-8.66-6.33-17.31-9.45-25.99-.32-.9-.83-1.16-1.7-1.21-1.94-.13-3.88-.28-5.8-.55-1.56-.21-2.42-1.41-2.26-2.86.17-1.52,1.18-2.47,2.72-2.48.78,0,1.55.07,2.33.12,5.53.37,11.06.77,16.61.68,5.2-.09,10.4-.4,15.59-.8,1.2-.09,2.23.15,2.88,1.27,1.02,1.76.03,3.8-2.11,4.11-1.87.27-3.77.36-5.66.5-1.8.13-1.8.12-1.24,1.78,7.52,22.39,15.04,44.79,22.59,67.18.14.4.06,1,.66,1.17,2.92-9.63,5.83-19.24,8.74-28.85.41-1.35.76-2.71,1.15-4.06,1.83-6.3,2.13-12.62.14-18.95-1.29-4.11-3.4-7.82-5.66-11.45-1.82-2.93-3.56-5.9-4.39-9.31-1.35-5.58.87-11.13,5.49-13.73,1.72-.97,3.59-1.33,5.98-1.38-17.09-14.55-36.26-20.05-57.9-15.62-17.43,3.57-30.95,13.21-41.29,28.16,2.06,0,3.66.03,5.25,0,4.91-.12,9.82-.33,14.71-.73.68-.05,1.36-.1,2.04-.09,1.46.03,2.42.87,2.59,2.24.2,1.57-.51,2.8-2.02,3.04-2.06.32-4.15.51-6.23.59-1.36.05-1.58.4-1.14,1.71,7.63,22.57,15.2,45.15,22.81,67.72.14.43.12.98.66,1.26Zm17.53-33.56c-.11,0-.21.01-.32.02-1.06,3.07-2.11,6.14-3.17,9.21-5.29,15.36-10.59,30.72-15.87,46.08-.22.65-.83,1.34.55,1.7,12.84,3.41,25.56,3.14,38.19-1,.75-.25.96-.41.64-1.28-5.2-14.11-10.34-28.23-15.5-42.36-1.51-4.13-3.02-8.26-4.53-12.38Zm-30.01,52.63c-10.45-28.62-20.78-56.93-31.19-85.45-14.63,33.02.34,70.75,31.19,85.45Zm62.12-2.36c16.48-10.32,27.07-24.74,30.9-43.82,3.04-15.11.78-29.54-6.42-43.16-.1.93-.05,1.85.02,2.76.26,3.12.06,6.22-.29,9.31-.7,6.18-2.73,11.98-4.78,17.81-6.48,18.44-12.82,36.93-19.2,55.4-.16.47-.55.94-.24,1.7Z"/></g></svg>