<?xml version="1.0" encoding="UTF-8"?><svg id="Texto" xmlns="http://www.w3.org/2000/svg" viewBox="0 0 300 300"><defs><style>.cls-1{fill:#f26722;}</style></defs><path class="cls-1" d="m226.32,132.88c4.73,0,8.58,3.83,8.6,8.56v89.58c0,4.72-3.81,8.57-8.56,8.57H73.64c-4.73,0-8.57-3.84-8.57-8.57h0V68.57c0-4.71,3.81-8.56,8.57-8.56h18.56c4.71,0,8.56,3.81,8.56,8.56v56.26c.26,4.14,3.41,7.51,7.52,8.06h13.89c4.21-.39,7.71-3.81,7.95-8.06v-56.26c0-4.71,3.81-8.56,8.56-8.56h18.56c4.71,0,8.57,3.81,8.57,8.56v55.67c0,4.4,3.23,8.14,7.47,8.64h53.05,0Zm-24.44,61.44v-17.53c0-4.71-3.81-8.57-8.56-8.57h-18.57c-4.71,0-8.57,3.81-8.57,8.57v17.52c0,4.71,3.81,8.56,8.57,8.56h18.56c4.71,0,8.56-3.81,8.56-8.56h0Z"/></svg>