<?xml version="1.0" encoding="UTF-8"?><svg id="Texto" xmlns="http://www.w3.org/2000/svg" viewBox="0 0 300 300"><defs><style>.cls-1{fill:#262f3e;}.cls-2{fill:#f8991d;fill-rule:evenodd;}</style></defs><path class="cls-1" d="m102,132c0,2.71.29,4.9.8,6.51.59,1.61,1.32,3.37,2.34,5.27.37.59.51,1.17.51,1.68,0,.73-.44,1.46-1.39,2.2l-4.61,3.07c-.66.44-1.32.66-1.9.66-.73,0-1.46-.37-2.2-1.02-1.02-1.1-1.9-2.27-2.63-3.44-.73-1.24-1.46-2.63-2.27-4.32-5.71,6.73-12.88,10.1-21.51,10.1-6.15,0-11.05-1.76-14.63-5.27-3.59-3.51-5.41-8.2-5.41-14.05,0-6.22,2.2-11.27,6.66-15.07,4.46-3.8,10.39-5.71,17.93-5.71,2.49,0,5.05.22,7.76.59,2.71.37,5.49.95,8.41,1.61v-5.34c0-5.56-1.17-9.44-3.44-11.71-2.34-2.27-6.29-3.37-11.93-3.37-2.56,0-5.2.29-7.9.95-2.71.66-5.34,1.46-7.9,2.49-1.17.51-2.05.8-2.56.95-.51.15-.88.22-1.17.22-1.02,0-1.54-.73-1.54-2.27v-3.59c0-1.17.15-2.05.51-2.56s1.02-1.02,2.05-1.54c2.56-1.32,5.63-2.41,9.22-3.29,3.59-.95,7.39-1.39,11.41-1.39,8.71,0,15.07,1.98,19.17,5.93,4.02,3.95,6.07,9.95,6.07,18v23.71h.15Zm-29.71,11.12c2.41,0,4.9-.44,7.54-1.32,2.63-.88,4.98-2.49,6.95-4.68,1.17-1.39,2.05-2.93,2.49-4.68s.73-3.88.73-6.37v-3.07c-2.12-.51-4.39-.95-6.73-1.24s-4.61-.44-6.88-.44c-4.9,0-8.49.95-10.9,2.93-2.41,1.98-3.59,4.76-3.59,8.41,0,3.44.88,6,2.71,7.76,1.76,1.83,4.32,2.71,7.68,2.71Zm58.76,7.9c-1.32,0-2.2-.22-2.78-.73-.59-.44-1.1-1.46-1.54-2.85l-17.19-56.56c-.44-1.46-.66-2.41-.66-2.93,0-1.17.59-1.83,1.76-1.83h7.17c1.39,0,2.34.22,2.85.73.59.44,1.02,1.46,1.46,2.85l12.29,48.44,11.41-48.44c.37-1.46.8-2.41,1.39-2.85.59-.44,1.61-.73,2.93-.73h5.85c1.39,0,2.34.22,2.93.73.59.44,1.1,1.46,1.39,2.85l11.56,49.02,12.66-49.02c.44-1.46.95-2.41,1.46-2.85.59-.44,1.54-.73,2.85-.73h6.8c1.17,0,1.83.59,1.83,1.83,0,.37-.07.73-.15,1.17-.07.44-.22,1.02-.51,1.83l-17.63,56.56c-.44,1.46-.95,2.41-1.54,2.85s-1.54.73-2.78.73h-6.29c-1.39,0-2.34-.22-2.93-.73s-1.1-1.46-1.39-2.93l-11.34-47.19-11.27,47.12c-.37,1.46-.8,2.41-1.39,2.93-.59.51-1.61.73-2.93.73h-6.29Zm94.02,1.98c-3.8,0-7.61-.44-11.27-1.32-3.66-.88-6.51-1.83-8.41-2.93-1.17-.66-1.98-1.39-2.27-2.05-.29-.66-.44-1.39-.44-2.05v-3.73c0-1.54.59-2.27,1.68-2.27.44,0,.88.07,1.32.22.44.15,1.1.44,1.83.73,2.49,1.1,5.2,1.98,8.05,2.56,2.93.59,5.78.88,8.71.88,4.61,0,8.2-.8,10.68-2.41,2.49-1.61,3.8-3.95,3.8-6.95,0-2.05-.66-3.73-1.98-5.12-1.32-1.39-3.8-2.63-7.39-3.8l-10.61-3.29c-5.34-1.68-9.29-4.17-11.71-7.46-2.41-3.22-3.66-6.8-3.66-10.61,0-3.07.66-5.78,1.98-8.12,1.32-2.34,3.07-4.39,5.27-6,2.2-1.68,4.68-2.93,7.61-3.8,2.93-.88,6-1.24,9.22-1.24,1.61,0,3.29.07,4.9.29,1.68.22,3.22.51,4.76.8,1.46.37,2.85.73,4.17,1.17,1.32.44,2.34.88,3.07,1.32,1.02.59,1.76,1.17,2.2,1.83.44.59.66,1.39.66,2.41v3.44c0,1.54-.59,2.34-1.68,2.34-.59,0-1.54-.29-2.78-.88-4.17-1.9-8.85-2.85-14.05-2.85-4.17,0-7.46.66-9.73,2.05s-3.44,3.51-3.44,6.51c0,2.05.73,3.8,2.2,5.2,1.46,1.39,4.17,2.78,8.05,4.02l10.39,3.29c5.27,1.68,9.07,4.02,11.34,7.02,2.27,3,3.37,6.44,3.37,10.24,0,3.15-.66,6-1.9,8.49-1.32,2.49-3.07,4.68-5.34,6.44-2.27,1.83-4.98,3.15-8.12,4.1-3.29,1.02-6.73,1.54-10.46,1.54Z"/><g><path class="cls-2" d="m238.9,188.56c-24.07,17.78-59.05,27.22-89.12,27.22-42.15,0-80.12-15.59-108.8-41.49-2.27-2.05-.22-4.83,2.49-3.22,31.02,18,69.29,28.9,108.88,28.9,26.71,0,56.05-5.56,83.05-16.98,4.02-1.83,7.46,2.63,3.51,5.56Z"/><path class="cls-2" d="m248.92,177.15c-3.07-3.95-20.34-1.9-28.17-.95-2.34.29-2.71-1.76-.59-3.29,13.76-9.66,36.37-6.88,39-3.66,2.63,3.29-.73,25.9-13.61,36.73-1.98,1.68-3.88.8-3-1.39,2.93-7.24,9.44-23.56,6.37-27.44Z"/></g></svg>