<?xml version="1.0" encoding="UTF-8"?><svg xmlns="http://www.w3.org/2000/svg" viewBox="0 0 300 300"><defs><style>.cls-1{fill:#e0244f;fill-rule:evenodd;}.cls-2{fill:#161616;}</style></defs><g id="Fondos"><rect class="cls-2" width="300" height="300"/></g><g id="Texto"><path class="cls-1" d="m167.74,50.82c-1.45,0-2.79.31-4.03.72,2.63,1.76,4.08,4.08,4.8,6.71.05.36.15.62.21.98.05.31.1.62.1.93.21,4.54-1.19,5.11-2.17,7.8-1.5,3.46-1.08,7.18.72,10.17.15.36.36.77.62,1.14-1.96-13.06,8.93-15.03,10.95-19.11.15-3.56-2.79-5.94-5.11-7.59-2.22-1.34-4.23-1.76-6.09-1.76h0Zm16.42,2.94c-.21,1.19-.05.88-.1,1.5-.05.41-.05.93-.1,1.34-.1.41-.21.83-.36,1.24-.1.41-.26.83-.41,1.24-.21.41-.36.77-.57,1.19-.15.21-.26.41-.41.62-.1.15-.21.31-.31.46-.26.36-.52.72-.77,1.03-.31.31-.57.67-.93.93v.05c-.31.26-.62.57-.98.83-1.08.83-2.32,1.45-3.46,2.22-.36.26-.72.46-1.03.77-.36.26-.67.52-.98.83-.36.31-.62.62-.93.98-.26.31-.57.67-.77,1.03-.26.36-.52.72-.72,1.08-.21.41-.36.77-.57,1.19-.15.41-.31.77-.41,1.19-.15.46-.26.88-.36,1.29-.05.21-.05.46-.1.67-.05.21-.05.41-.1.62,0,.41-.05.88-.05,1.29,0,.31,0,.62.05.93,0,.41.05.83.15,1.29.05.41.15.83.26,1.24.15.41.26.83.41,1.24.1.26.26.52.36.72l-11.88-4.6c-2.01-.57-3.98-1.08-5.99-1.55-1.08-.26-2.17-.52-3.25-.77-3.1-.62-6.25-1.08-9.4-1.39-.1,0-.15-.05-.26-.05-3.1-.31-6.15-.46-9.24-.46-2.27,0-4.54.1-6.76.26-3.15.21-6.3.62-9.45,1.14-.77.1-1.55.26-2.32.41-1.6.31-3.15.67-4.65,1.03-.77.21-1.55.41-2.32.62-.77.31-1.5.67-2.22.98-.57.26-1.14.52-1.7.77-.1.05-.21.05-.26.1-.52.26-.98.46-1.45.72-.15.05-.26.1-.36.15-.57.26-1.14.57-1.6.83-.36.15-.72.36-1.03.52-.15.1-.36.21-.46.26-.46.26-.93.52-1.34.77-.46.26-.88.52-1.24.77-.36.26-.72.46-1.03.72-.05.05-.1.05-.15.1-.31.21-.67.46-.98.72,0,0-.05.05-.1.1-.26.21-.52.41-.77.62-.1.05-.21.15-.31.21-.26.21-.52.46-.77.67-.05.1-.15.15-.21.21-.31.31-.62.57-.93.88-.05,0-.05.05-.1.1-.31.26-.62.57-.93.88-.05.05-.05.1-.1.1-.26.26-.52.52-.77.83-.1.1-.26.21-.36.31-.26.31-.57.62-.88.93-.05.1-.15.15-.21.26-.41.41-.77.83-1.19,1.24-.05.05-.1.1-.15.15-.83.88-1.7,1.76-2.63,2.53-.93.83-1.91,1.6-2.89,2.27-1.03.72-2.01,1.34-3.1,1.96-1.03.57-2.12,1.08-3.25,1.55-1.08.46-2.22.88-3.36,1.24-2.17.46-4.39,1.34-6.3,1.5-.41,0-.88.1-1.29.15-.46.1-.88.21-1.29.31-.41.15-.83.31-1.24.46-.41.15-.83.36-1.24.57-.36.26-.77.46-1.14.72-.36.26-.72.57-1.03.88-.36.26-.72.62-1.03.93-.31.36-.62.67-.88,1.03-.26.41-.57.77-.77,1.19-.26.36-.52.77-.72,1.19-.21.46-.41.88-.57,1.34-.15.41-.31.88-.46,1.34-.1.41-.21.83-.26,1.24,0,.05-.05.1-.05.15-.1.46-.1,1.08-.15,1.39-.05.36-.1.67-.1,1.03,0,.21,0,.46.05.67.05.36.1.67.21.98.1.31.21.62.36.93v.05c.15.31.36.62.57.93.21.31.41.62.67.93.26.26.57.57.88.83.31.31.62.57.98.83,1.24,1.08,1.55,1.45,3.15,2.27.26.15.52.26.83.41.05,0,.1.05.15.05,0,.1,0,.15.05.26.05.41.15.83.26,1.24.1.46.26.88.41,1.24.15.31.26.62.41.93.05.1.1.21.15.26.21.41.41.77.62,1.14.26.36.52.72.77,1.08.26.31.57.67.88.98.31.31.62.57.98.88,0,0,.05.05.1.05.31.26.62.52.93.72.36.26.72.46,1.14.67.36.21.77.41,1.19.57.31.15.67.26,1.03.36.05.05.1.05.21.1.21.05.46.1.67.15-.15,2.79-.21,5.42.21,6.35.46,1.03,2.74-2.12,5.01-5.73-.31,3.56-.52,7.75,0,8.99.57,1.29,3.67-2.74,6.35-7.18,36.61-8.47,70.02,16.83,73.54,52.57-.67-5.58-7.54-8.68-10.69-7.9-1.55,3.82-4.18,8.73-8.42,11.77.36-3.41.21-6.92-.52-10.33-1.14,4.75-3.36,9.19-6.4,13.01-4.91.36-9.81-2.01-12.39-5.58-.21-.15-.26-.46-.41-.67-.15-.36-.31-.72-.41-1.08-.15-.36-.26-.72-.31-1.08-.05-.36-.05-.72-.05-1.14v-.77c.05-.36.15-.72.26-1.08.1-.36.21-.72.36-1.08.21-.36.36-.72.62-1.08.88-2.48.88-4.49-.72-5.68-.31-.21-.62-.36-.98-.52-.21-.05-.46-.15-.67-.21-.15-.05-.26-.1-.41-.15-.36-.1-.72-.21-1.08-.26-.36-.1-.72-.15-1.08-.15-.36-.05-.77-.1-1.14-.1-.26,0-.52.05-.77.05-.41,0-.77.05-1.14.15-.36.05-.72.1-1.08.21-.36.1-.72.21-1.08.36-.36.15-.67.31-1.03.46-.31.15-.62.36-.98.52-12.03,7.85-4.85,26.23,3.36,31.55-3.1.57-6.25,1.24-7.13,1.91-.05.05-.1.1-.1.1,2.22,1.34,4.54,2.48,6.97,3.46,3.3,1.08,6.82,2.07,8.37,2.48v.05c4.29.88,8.62,1.19,13.01.93,22.88-1.6,41.62-19,45.03-41.93.1.46.21.88.31,1.34.15.93.36,1.91.46,2.89v.05c.1.46.15.93.21,1.34v.21c.05.46.1.93.1,1.34.05.57.1,1.14.1,1.7v.83c0,.26.05.57.05.83,0,.31-.05.62-.05.93v.72c0,.36-.05.67-.05,1.03,0,.21,0,.41-.05.67,0,.36-.05.72-.05,1.14-.05.15-.05.31-.05.46-.05.41-.1.77-.15,1.19,0,.15,0,.31-.05.46-.05.52-.15.98-.21,1.5v.1c-.1.46-.21.98-.31,1.45v.15c-.1.46-.21.93-.31,1.39,0,.05-.05.15-.05.21-.1.46-.21.93-.36,1.39v.15c-.15.52-.31.98-.41,1.45-.05.05-.05.1-.05.1-.15.52-.31,1.03-.46,1.55-.21.52-.36.98-.57,1.5-.21.52-.36,1.03-.57,1.5-.21.52-.41.98-.62,1.5h-.05c-.21.46-.41.98-.67,1.45-.05.15-.1.26-.15.36-.05.05-.05.1-.1.15-3.36,6.76-8.31,12.7-14.51,17.35-.41.26-.83.57-1.24.88-.1.1-.26.15-.36.26-.36.26-.72.52-1.14.77l.15.31h.05c.72-.1,1.45-.21,2.17-.31h.05c1.34-.21,2.69-.46,4.03-.72.36-.05.77-.15,1.14-.26.26-.05.46-.1.72-.15.36-.05.72-.15,1.08-.21.31-.1.62-.15.93-.26,5.16-1.24,10.17-2.94,14.98-4.96-8.21,11.21-19.21,20.24-32.07,26.18,5.94-.41,11.88-1.39,17.61-3.05,20.81-6.15,38.32-20.14,48.8-38.99-2.12,11.93-6.87,23.29-13.89,33.2,5.01-3.3,9.61-7.13,13.79-11.46,11.57-12.08,19.16-27.42,21.74-43.89,1.76,8.16,2.27,16.58,1.5,24.89,37.28-52,3.1-105.91-11.21-120.11-.05-.1-.1-.15-.1-.26q-.05.05-.05.1t-.05-.1c0,.62-.05,1.24-.1,1.86-.15,1.19-.31,2.32-.52,3.46-.26,1.14-.57,2.27-.88,3.41-.36,1.08-.77,2.22-1.24,3.3-.46,1.03-.98,2.12-1.55,3.15-.57.98-1.19,2.01-1.86,2.94-.67.98-1.39,1.91-2.12,2.79-.77.93-1.6,1.76-2.43,2.58-.52.46-.98.88-1.5,1.29-.41.36-.77.67-1.19,1.03-.93.72-1.86,1.39-2.89,2.01-.98.62-2.01,1.24-3.05,1.76-1.08.52-2.17.98-3.25,1.45-1.08.41-2.22.77-3.36,1.08-1.14.31-2.32.57-3.46.77-1.19.21-2.38.31-3.51.41-.83.05-1.65.1-2.48.1-1.19,0-2.38-.1-3.51-.21-1.19-.1-2.38-.26-3.51-.52-1.19-.21-2.32-.52-3.46-.88h-.05c1.14-.1,2.27-.21,3.41-.41,1.19-.21,2.32-.46,3.46-.77,1.14-.31,2.27-.67,3.36-1.08,1.14-.41,2.22-.93,3.25-1.45,1.08-.52,2.07-1.08,3.1-1.7.98-.67,1.96-1.34,2.89-2.07.93-.72,1.81-1.5,2.63-2.32.88-.77,1.65-1.65,2.43-2.53.77-.93,1.5-1.86,2.17-2.79.1-.15.21-.36.31-.52.52-.83,1.03-1.65,1.5-2.48.57-1.03,1.08-2.07,1.55-3.15.46-1.08.88-2.17,1.24-3.3.36-1.08.62-2.22.88-3.36.21-1.19.41-2.32.52-3.46.1-1.19.21-2.38.21-3.51,0-.83-.05-1.65-.1-2.48-.1-1.19-.26-2.32-.41-3.46-.21-1.19-.46-2.32-.77-3.46-.36-1.08-.72-2.22-1.14-3.3-.41-1.08-.93-2.17-1.45-3.2-.57-1.03-1.14-2.07-1.76-3.05-.67-.98-1.34-1.91-2.07-2.84-.77-.88-1.55-1.76-2.38-2.63-.41-.41-.88-.88-1.34-1.29-2.32-1.81-4.75-3.51-7.18-5.06-.36-.21-.67-.36-1.03-.52-1.7-1.08-3.3-1.65-4.91-2.17h0Z"/></g></svg>