<?xml version="1.0" encoding="UTF-8"?><svg id="Texto" xmlns="http://www.w3.org/2000/svg" xmlns:xlink="http://www.w3.org/1999/xlink" viewBox="0 0 300 300"><defs><style>.cls-1{fill:#18bbb9;}.cls-2{fill:#034948;}.cls-3{clip-path:url(#clippath);}.cls-4{fill:none;}</style><clipPath id="clippath"><rect class="cls-4" x="30" y="101.25" width="239.85" height="97.5"/></clipPath></defs><g class="cls-3"><g><path class="cls-1" d="m85.01,198.24v-24.56l.51-.51h5.12l.51.51v24.56l-.51.51h-5.12l-.51-.51Z"/><path class="cls-1" d="m85.01,126.32v-24.56l.51-.51h5.12l.51.51v24.56l-.51.51h-5.12l-.51-.51Z"/><path class="cls-1" d="m62.77,180.53h-.72l-3.62-3.62v-.72l8.45-8.45h3.83s.51.51.51.51v3.83l-8.45,8.45Z"/><path class="cls-1" d="m62.77,119.47h-.72l-3.62,3.62v.72l8.45,8.45h3.83s.51-.51.51-.51v-3.83l-8.45-8.45Z"/><path class="cls-1" d="m30.51,146.93h34.8l.51.51v5.12l-.51.51H30.51l-.51-.51v-5.12l.51-.51Z"/><path class="cls-1" d="m236.59,146.93h32.75l.51.51v5.12l-.51.51h-34.8l-.51-.51,2.05-5.12.51-.51Z"/><path class="cls-2" d="m129.34,152.18l-.51.51h-15.87l-.51.51c0,1.02,1.02,4.1,5.12,4.1,1.54,0,3.07-.51,3.58-1.54l.51-.51h6.14l.51.51c-.51,3.07-3.07,7.68-10.75,7.68-8.7,0-12.8-6.14-12.8-13.31s4.1-13.31,12.29-13.31,12.29,6.14,12.29,13.31v2.05h0Zm-7.68-5.12c0-.51-.51-4.1-4.61-4.1s-4.61,3.58-4.61,4.1l.51.51h8.19l.51-.51Z"/><path class="cls-2" d="m143.68,155.26c0,1.02.51,1.54,1.54,1.54h4.61l.51.51v5.12l-.51.51h-4.61c-4.61,0-8.7-2.05-8.7-7.68v-11.27l-.51-.51h-3.58l-.51-.51v-5.12l.51-.51h3.58l.51-.51v-4.61l.51-.51h6.14l.51.51v4.61l.51.51h5.63l.51.51v5.12l-.51.51h-5.63l-.51.51v11.27h0Z"/><path class="cls-2" d="m162.62,162.94h-6.14l-.51-.51v-34.82l.51-.51h6.14l.51.51v34.82l-.51.51Z"/><path class="cls-2" d="m176.45,133.24h-6.14l-.51-.51v-5.12l.51-.51h6.14l.51.51v5.12l-.51.51Zm0,29.7h-6.14l-.51-.51v-24.58l.51-.51h6.14l.51.51v24.58l-.51.51Z"/><path class="cls-2" d="m200.51,127.61v5.12l-.51.51h-4.61c-1.02,0-1.54.51-1.54,1.54v2.05l.51.51h5.12l.51.51v5.12l-.51.51h-5.12l-.51.51v18.43l-.51.51h-6.14l-.51-.51v-18.43l-.51-.51h-3.58l-.51-.51v-5.12l.51-.51h3.58l.51-.51v-2.05c0-5.63,4.1-7.68,8.7-7.68h4.61l.51.51h0Z"/><path class="cls-2" d="m219.46,163.45c-2.05,5.12-4.1,8.19-11.27,8.19h-2.56l-.51-.51v-5.12l.51-.51h2.56c2.56,0,3.07-.51,3.58-2.05v-.51l-8.19-19.97v-5.12l.51-.51h4.61l.51.51,6.14,17.41h.51l6.14-17.41.51-.51h4.61l.51.51v5.12l-8.19,20.48h0Z"/><path class="cls-2" d="m93.46,162.94l-.51-.51v-14.84c0-2.56-1-4.54-4.09-4.61-1.59-.04-3.41,0-5.35.08l-.29.3v19.07s-.51.51-.51.51h-6.14l-.51-.51v-24.85l.51-.51,13.82-.13c6.93,0,9.73,4.76,9.73,10.13v15.36l-.51.51h-6.15Z"/></g></g></svg>