<?xml version="1.0" encoding="UTF-8"?><svg id="Fondos" xmlns="http://www.w3.org/2000/svg" viewBox="0 0 300 300"><defs><style>.cls-1{fill:#141516;}.cls-2{fill:#fff;}</style></defs><rect class="cls-1" width="300" height="300"/><g><path class="cls-2" d="m50.93,135.58c-.48,3.34-.79,6.7-.93,10.07h151.91c-.53-1.04-1.24-1.97-1.96-2.89-25.97-33.55-39.94-30.64-59.93-31.5-6.66-.27-11.18-.38-37.7-.38-14.19,0-29.63.04-44.65.08-1.95,5.25-3.82,10.34-4.73,14.48h77.85v10.14H50.93Zm152.18,20.22H50.08c.16,2.71.41,5.37.78,8.01h141.29c6.3,0,9.82-3.57,10.97-8.01h0Zm-144.32,35.67s23.42,57.51,91.1,58.53c40.45,0,75.21-24.02,91-58.53H58.79Z"/><path class="cls-2" d="m149.89,50c-37.4,0-69.95,20.54-87.14,50.9,13.43-.03,39.59-.04,39.59-.04h0c30.92,0,32.07.13,38.11.38l3.74.14c13.03.43,29.04,1.83,41.64,11.37,6.84,5.17,16.71,16.58,22.6,24.71,5.44,7.52,7.01,16.16,3.31,24.44-3.41,7.61-10.73,12.15-19.61,12.15H53.26s.83,3.5,2.07,7.37h189.58c3.37-10.12,5.09-20.71,5.1-31.38,0-55.25-44.82-100.04-100.11-100.04Z"/></g></svg>