<?xml version="1.0" encoding="UTF-8"?><svg id="Texto" xmlns="http://www.w3.org/2000/svg" viewBox="0 0 300 300"><defs><style>.cls-1{fill:#9ed7cf;}.cls-2{fill:#efcc39;}.cls-3{fill:#4bbfa9;}.cls-4{fill:#e69e2b;}.cls-5{fill:#231f20;}</style></defs><g><path class="cls-3" d="m249.94,150h-21.48c0,43.33-35.13,78.45-78.45,78.45v21.48c.81.02,1.62.06,2.44.06,53.88,0,97.56-43.68,97.56-97.56,0-.82-.04-1.63-.06-2.44Z"/><path class="cls-4" d="m152.44,50c-.82,0-1.63.04-2.44.06v21.48c43.33,0,78.45,35.13,78.45,78.45h21.48c.02-.81.06-1.62.06-2.44,0-53.88-43.68-97.56-97.56-97.56Z"/><path class="cls-2" d="m150,71.55v-21.48c-.81-.02-1.62-.06-2.44-.06-53.88,0-97.56,43.68-97.56,97.56,0,.82.04,1.63.06,2.44h21.48c0-43.33,35.13-78.45,78.45-78.45Z"/><path class="cls-1" d="m71.55,150h-21.48c-.02.81-.06,1.62-.06,2.44,0,53.88,43.68,97.56,97.56,97.56.82,0,1.63-.04,2.44-.06v-21.48c-43.33,0-78.45-35.13-78.45-78.45Z"/></g><path class="cls-5" d="m130.63,109.32h-17.43v81.36h23.25v-58.11s5.81-5.81,17.43-5.81c9.68,0,9.69,9.69,9.69,9.69v54.24h23.25v-60.05s-1.94-21.31-27.12-21.31c-9.69,0-25.18,9.69-25.18,9.69l-3.87-9.69Z"/></svg>