<?xml version="1.0" encoding="utf-8"?>
<!-- Generator: Adobe Illustrator 25.4.1, SVG Export Plug-In . SVG Version: 6.00 Build 0)  -->
<svg version="1.1" xmlns="http://www.w3.org/2000/svg" xmlns:xlink="http://www.w3.org/1999/xlink" x="0px" y="0px"
	 viewBox="0 0 300 300" style="enable-background:new 0 0 300 300;" xml:space="preserve">
<style type="text/css">
	.st0{fill:#4674B9;}
	.st1{fill:#2C2C32;}
	.st2{fill:#010101;}
	.st3{fill:#F6DF19;}
	.st4{fill:#2363AF;}
	.st5{fill:#F0672B;}
	.st6{fill:#101215;}
	.st7{fill:#492D8C;}
	.st8{fill:#F36C3D;}
	.st9{fill:#7756A3;}
	.st10{fill:#679E63;}
	.st11{fill:#484848;}
	.st12{fill:#1B1F23;}
	.st13{fill:#EF7729;}
	.st14{fill:#4791CE;}
	.st15{fill:#F6F6F6;}
	.st16{fill:#4A4A4D;}
	.st17{fill:#C54027;}
	.st18{fill:#3978BD;}
	.st19{fill:#CC6899;}
	.st20{fill:#12364F;}
	.st21{fill:#316A9A;}
	.st22{fill:#FFD53E;}
	.st23{fill:#693994;}
	.st24{fill:#FFFFFF;}
	.st25{fill-rule:evenodd;clip-rule:evenodd;fill:#FFFFFF;}
	.st26{fill-rule:evenodd;clip-rule:evenodd;fill:url(#XMLID_00000082337807075135636680000018023680423339470254_);}
	.st27{clip-path:url(#XMLID_00000016068974404312528340000009178787932637808512_);}
	.st28{fill:none;}
	.st29{opacity:0.66;fill:#4B4B4B;}
	.st30{fill:url(#SVGID_1_);}
	.st31{opacity:0.05;fill:#010101;enable-background:new    ;}
	.st32{fill:#17AA4F;}
	.st33{fill:#B8C4C2;}
	.st34{fill:#14924F;}
	.st35{fill:#22323D;}
	.st36{fill:#F26424;}
	.st37{fill:#4E4E4E;}
	.st38{fill:#3B2F14;}
	.st39{fill:#F58772;}
	.st40{fill:#F05233;}
	.st41{fill:#433527;}
	.st42{fill:#DD1E34;}
	.st43{fill:#C32033;}
	.st44{fill:#F9F9FA;}
	.st45{fill:#7253A2;}
	.st46{fill:#4674B9;stroke:#FFFFFF;stroke-width:8;stroke-miterlimit:10;}
	.st47{fill:#EF4623;}
	.st48{fill:#4EB987;}
	.st49{fill:#455567;}
	.st50{fill:#F1F2F2;}
	.st51{fill:#70CEEF;}
	.st52{fill:#70CFF0;}
	.st53{opacity:0.7;fill:#2C384A;enable-background:new    ;}
	.st54{fill:url(#path-2_00000140722614032437572910000011456989758862720385_);}
	.st55{filter:url(#Adobe_OpacityMaskFilter);}
	.st56{mask:url(#mask-3_3_);}
	.st57{fill:#F9A01B;}
	.st58{fill:#F47D20;}
	.st59{fill:#FFCB2A;}
	.st60{fill:#FFFFFF;fill-opacity:0.2;}
	.st61{opacity:0.2;fill:#A52A22;enable-background:new    ;}
	.st62{filter:url(#Adobe_OpacityMaskFilter_00000027563391851219156670000013896783071672808342_);}
	.st63{mask:url(#mask-3_2_);fill:none;}
	.st64{filter:url(#Adobe_OpacityMaskFilter_00000059283485915080232100000017387413967931904144_);}
	.st65{mask:url(#mask-3_1_);fill:url(#_Path_5_00000080928188941253950320000004240008823816415678_);}
	.st66{fill:#5BADE0;}
	.st67{fill:#4699D4;}
	.st68{fill:#318ECD;}
	.st69{fill:#3390CE;}
	.st70{fill:#1773B0;}
	.st71{fill:#489BD5;}
	.st72{fill:#2884C6;}
	.st73{fill:#2682C5;}
	.st74{fill:#2480C4;}
	.st75{fill:#237EC2;}
	.st76{fill:#4497D2;}
	.st77{fill:#1571AF;}
	.st78{fill:#237DC1;}
	.st79{fill:#1B72AD;}
	.st80{fill:#1B6CA3;}
	.st81{fill:#196FA9;}
	.st82{fill:#1D77BD;}
	.st83{fill:#207ABF;}
	.st84{fill:#2D7FB8;}
	.st85{fill:#3383BA;}
	.st86{fill:#287EB6;}
	.st87{fill:#63B0E1;}
	.st88{fill:#3887BC;}
	.st89{fill:#3B89BD;}
	.st90{fill:#3792D0;}
	.st91{fill:#2A78AC;}
	.st92{fill:#2973A8;}
	.st93{fill:#2A7CB3;}
	.st94{fill:#3F88BA;}
	.st95{fill:#59ABDF;}
	.st96{fill:#3A7FAF;}
	.st97{fill:#317BAC;}
	.st98{fill:#367DAE;}
	.st99{fill:#2C8BCB;}
	.st100{fill:#2E8DCC;}
	.st101{fill:#1A75B1;}
	.st102{fill:#1F77B2;}
	.st103{fill:#1D74AF;}
	.st104{fill:#1D72AA;}
	.st105{fill:#206FA5;}
	.st106{fill:#499FD8;}
	.st107{fill:#489CD6;}
	.st108{fill:#4DA1D9;}
	.st109{fill:#51A6DC;}
	.st110{fill:#4FA4DB;}
	.st111{fill:#0F72B7;}
	.st112{fill:#0770B7;}
	.st113{fill:#56A8DD;}
	.st114{fill:#2A88C9;}
	.st115{fill:#227FC3;}
	.st116{fill:#1F7DC1;}
	.st117{fill:#1D7BC0;}
	.st118{fill:#1474BB;}
	.st119{fill:#1071B9;}
	.st120{fill:#1E79BF;}
	.st121{fill:#1875BC;}
	.st122{fill:#3381B5;}
	.st123{fill:#2F7FB4;}
	.st124{fill:#3883B6;}
	.st125{fill:#267BB5;}
	.st126{fill:#297AB2;}
	.st127{fill:#3E86B6;}
	.st128{fill:#3C81B1;}
	.st129{fill:#3B87B9;}
	.st130{fill:#3A85B8;}
	.st131{fill:#2378B1;}
	.st132{fill:#2675AC;}
	.st133{fill:#2572A6;}
	.st134{fill:#0D74B8;}
	.st135{fill:#3882B4;}
	.st136{fill:#367FB2;}
	.st137{fill:#307CAF;}
	.st138{fill:#337EB0;}
	.st139{fill:#2271A5;}
	.st140{fill:#0E75BB;}
	.st141{fill:#0D73BB;}
	.st142{fill:#0B74BC;}
	.st143{fill:#1578BC;}
	.st144{fill:#1C7CC1;}
	.st145{fill:#2575AB;}
	.st146{fill:#1B7BC0;}
	.st147{fill:#1876BD;}
	.st148{fill:#1978BE;}
	.st149{fill:#3C84B4;}
	.st150{fill-rule:evenodd;clip-rule:evenodd;fill:#687E91;}
	.st151{fill:#037690;}
	.st152{fill:#F29220;}
	.st153{fill-rule:evenodd;clip-rule:evenodd;fill:#F29220;}
	.st154{fill-rule:evenodd;clip-rule:evenodd;fill:#037690;}
	.st155{display:none;}
	.st156{display:inline;fill-rule:evenodd;clip-rule:evenodd;fill:#2BB673;}
	.st157{display:inline;opacity:0.15;fill-rule:evenodd;clip-rule:evenodd;fill:#2BB673;}
</style>
<g id="Fondos_1_">
	<rect class="st10" width="300" height="300"/>
</g>
<g id="Texto">
	<g>
		<g>
			<path class="st24" d="M148.78,220c-0.7,0-1.4-0.18-2.01-0.54l-6.4-3.79c-0.96-0.53-0.49-0.72-0.17-0.83
				c1.28-0.44,1.53-0.54,2.89-1.32c0.14-0.08,0.33-0.05,0.48,0.04l4.92,2.92c0.18,0.1,0.43,0.1,0.59,0l19.17-11.06
				c0.18-0.1,0.29-0.31,0.29-0.52v-22.12c0-0.22-0.11-0.42-0.3-0.53l-19.16-11.05c-0.18-0.1-0.41-0.1-0.59,0l-19.16,11.06
				c-0.19,0.11-0.3,0.32-0.3,0.53v22.12c0,0.21,0.12,0.41,0.3,0.51l5.25,3.03c2.85,1.42,4.59-0.25,4.59-1.94v-21.84
				c0-0.31,0.25-0.55,0.56-0.55h2.43c0.3,0,0.56,0.24,0.56,0.55v21.84c0,3.8-2.07,5.98-5.68,5.98c-1.11,0-1.98,0-4.42-1.2
				l-5.03-2.89c-1.24-0.72-2.01-2.06-2.01-3.5v-22.12c0-1.44,0.77-2.78,2.01-3.49l19.17-11.08c1.21-0.69,2.83-0.69,4.03,0
				l19.17,11.08c1.24,0.72,2.01,2.06,2.01,3.49v22.12c0,1.44-0.77,2.77-2.01,3.5l-19.17,11.07C150.19,219.82,149.49,220,148.78,220z
				"/>
			<path class="st24" d="M154.7,204.76c-8.39,0-10.15-3.85-10.15-7.08c0-0.31,0.25-0.55,0.55-0.55h2.48c0.28,0,0.51,0.2,0.55,0.47
				c0.37,2.52,1.49,3.8,6.56,3.8c4.04,0,5.76-0.91,5.76-3.06c0-1.24-0.49-2.15-6.76-2.77c-5.24-0.52-8.49-1.68-8.49-5.87
				c0-3.87,3.26-6.17,8.73-6.17c6.14,0,9.18,2.13,9.56,6.7c0.01,0.16-0.04,0.31-0.15,0.43c-0.11,0.11-0.25,0.18-0.41,0.18h-2.49
				c-0.26,0-0.49-0.18-0.54-0.43c-0.6-2.65-2.05-3.5-5.99-3.5c-4.41,0-4.92,1.54-4.92,2.69c0,1.39,0.6,1.8,6.56,2.59
				c5.89,0.78,8.69,1.88,8.69,6.02C164.26,202.37,160.78,204.76,154.7,204.76z"/>
		</g>
		<g>
			<path class="st24" d="M182.34,181.56c0,2.03-1.66,3.69-3.69,3.69c-2.01,0-3.69-1.64-3.69-3.69c0-2.09,1.72-3.7,3.69-3.7
				C180.64,177.86,182.34,179.47,182.34,181.56z M175.55,181.55c0,1.72,1.39,3.11,3.09,3.11c1.72,0,3.11-1.42,3.11-3.11
				c0-1.72-1.41-3.09-3.11-3.09C176.96,178.46,175.55,179.81,175.55,181.55z M177.26,179.49h1.43c0.49,0,1.45,0,1.45,1.1
				c0,0.76-0.49,0.92-0.78,1.02c0.57,0.04,0.61,0.41,0.68,0.94c0.04,0.33,0.1,0.9,0.21,1.09h-0.88c-0.02-0.19-0.16-1.25-0.16-1.31
				c-0.06-0.23-0.14-0.35-0.43-0.35h-0.72v1.66h-0.8V179.49z M178.04,181.3h0.64c0.53,0,0.63-0.37,0.63-0.59
				c0-0.57-0.39-0.57-0.61-0.57h-0.66V181.3z"/>
		</g>
		<path class="st25" d="M89.42,133.45c0-0.88-0.46-1.7-1.23-2.13l-20.32-11.7c-0.34-0.2-0.73-0.31-1.12-0.32c-0.04,0-0.18,0-0.21,0
			c-0.39,0.02-0.77,0.12-1.12,0.32l-20.32,11.7c-0.76,0.44-1.23,1.25-1.23,2.13l0.04,31.49c0,0.44,0.23,0.85,0.61,1.06
			c0.38,0.23,0.84,0.23,1.22,0l12.08-6.92c0.76-0.45,1.23-1.25,1.23-2.13v-14.71c0-0.88,0.46-1.69,1.23-2.12l5.14-2.96
			c0.38-0.22,0.8-0.33,1.23-0.33c0.42,0,0.85,0.11,1.22,0.33l5.14,2.96c0.76,0.44,1.23,1.25,1.23,2.12v14.71
			c0,0.88,0.47,1.68,1.23,2.13L87.55,166c0.38,0.23,0.85,0.23,1.23,0c0.37-0.21,0.61-0.62,0.61-1.06L89.42,133.45z"/>
		<path class="st25" d="M187.21,90.16c-0.38-0.21-0.84-0.21-1.22,0.01c-0.37,0.22-0.61,0.62-0.61,1.06v31.19
			c0,0.31-0.16,0.59-0.43,0.74c-0.27,0.15-0.59,0.15-0.86,0l-5.09-2.93c-0.76-0.44-1.69-0.44-2.45,0l-20.33,11.73
			c-0.76,0.44-1.23,1.25-1.23,2.13v23.47c0,0.88,0.47,1.69,1.23,2.13l20.33,11.74c0.76,0.44,1.7,0.44,2.46,0l20.33-11.74
			c0.76-0.44,1.23-1.25,1.23-2.13V99.05c0-0.89-0.48-1.71-1.26-2.14L187.21,90.16z M185.32,149.85c0,0.22-0.12,0.42-0.31,0.53
			l-6.98,4.02c-0.19,0.11-0.42,0.11-0.61,0l-6.98-4.02c-0.19-0.11-0.31-0.31-0.31-0.53v-8.06c0-0.22,0.12-0.42,0.31-0.53l6.98-4.03
			c0.19-0.11,0.42-0.11,0.61,0l6.98,4.03c0.19,0.11,0.31,0.31,0.31,0.53V149.85z"/>
		<g>
			<path class="st25" d="M254.91,141.58c0.76-0.44,1.22-1.25,1.22-2.12v-5.69c0-0.87-0.47-1.68-1.22-2.12l-20.2-11.73
				c-0.76-0.44-1.7-0.44-2.46,0l-20.32,11.73c-0.76,0.44-1.23,1.25-1.23,2.13v23.47c0,0.88,0.47,1.7,1.24,2.13l20.2,11.51
				c0.74,0.43,1.66,0.43,2.41,0.01l12.22-6.79c0.39-0.22,0.63-0.62,0.63-1.06c0-0.44-0.23-0.85-0.62-1.07l-20.45-11.74
				c-0.38-0.22-0.62-0.63-0.62-1.07v-7.35c0-0.44,0.23-0.84,0.61-1.06l6.37-3.67c0.38-0.22,0.85-0.22,1.23,0l6.37,3.67
				c0.38,0.22,0.61,0.62,0.61,1.06v5.79c0,0.44,0.23,0.85,0.62,1.06c0.38,0.22,0.85,0.22,1.23,0L254.91,141.58z"/>
			<path class="st25" d="M233.18,140.48c0.15-0.08,0.33-0.08,0.47,0l3.9,2.25c0.15,0.08,0.24,0.24,0.24,0.41v4.5
				c0,0.17-0.09,0.32-0.24,0.41l-3.9,2.25c-0.15,0.08-0.33,0.08-0.47,0l-3.9-2.25c-0.15-0.08-0.24-0.24-0.24-0.41v-4.5
				c0-0.17,0.09-0.32,0.24-0.41L233.18,140.48z"/>
		</g>
		<g>
			
				<linearGradient id="XMLID_00000164494215061215468800000002424147756623532423_" gradientUnits="userSpaceOnUse" x1="99.4759" y1="145.558" x2="144.6781" y2="145.558">
				<stop  offset="5.301339e-03" style="stop-color:#FFFFFF"/>
				<stop  offset="0.1938" style="stop-color:#E8E8E8"/>
				<stop  offset="0.5423" style="stop-color:#C2C2C2"/>
				<stop  offset="0.8235" style="stop-color:#ABABAB"/>
				<stop  offset="1" style="stop-color:#A3A3A3"/>
			</linearGradient>
			
				<path id="XMLID_12_" style="fill-rule:evenodd;clip-rule:evenodd;fill:url(#XMLID_00000164494215061215468800000002424147756623532423_);" d="
				M120.86,120.16c0.75-0.43,1.68-0.43,2.44,0l20.17,11.64c0.75,0.43,1.22,1.24,1.22,2.11v23.29c0,0.87-0.46,1.67-1.22,2.11
				l-20.17,11.65c-0.75,0.44-1.68,0.44-2.44,0l-20.16-11.65c-0.75-0.44-1.22-1.24-1.22-2.11v-23.3c0-0.87,0.46-1.67,1.22-2.11
				L120.86,120.16z"/>
			<g>
				<defs>
					<path id="XMLID_7_" d="M123.3,120.16c-0.75-0.43-1.68-0.43-2.44,0l-20.17,11.64c-0.75,0.43-1.22,1.24-1.22,2.11v23.29
						c0,0.87,0.46,1.67,1.22,2.11l20.17,11.65c0.75,0.44,1.68,0.44,2.44,0l20.16-11.65c0.75-0.44,1.22-1.24,1.22-2.11v-23.3
						c0-0.87-0.46-1.67-1.22-2.11L123.3,120.16z"/>
				</defs>
				<clipPath id="XMLID_00000137095613241114910450000013735278160642844840_">
					<use xlink:href="#XMLID_7_"  style="overflow:visible;"/>
				</clipPath>
				<g style="clip-path:url(#XMLID_00000137095613241114910450000013735278160642844840_);">
					<path class="st28" d="M120.83,120.16l-20.19,11.64c-0.75,0.43-1.27,1.24-1.27,2.11v23.3c0,0.57,0.21,1.1,0.57,1.53l22.69-38.82
						C122.04,119.76,121.39,119.84,120.83,120.16z"/>
					<path class="st28" d="M122.77,171.16c0.16-0.05,0.32-0.12,0.47-0.21l20.12-11.65c0.75-0.44,1.12-1.24,1.12-2.11v-23.29
						c0-0.58-0.17-1.14-0.51-1.57L122.77,171.16z"/>
					<path class="st29" d="M143.36,131.8l-20.08-11.64c-0.2-0.12-0.42-0.2-0.64-0.25l-22.69,38.82c0.19,0.23,0.42,0.43,0.69,0.58
						l20.2,11.65c0.6,0.35,1.3,0.41,1.94,0.21l21.2-38.83C143.81,132.13,143.61,131.94,143.36,131.8z"/>
				</g>
				<g style="clip-path:url(#XMLID_00000137095613241114910450000013735278160642844840_);">
					<path class="st28" d="M100.88,131.66l-0.23,0.13c-0.75,0.43-1.27,1.24-1.27,2.11v23.3c0,0.87,0.5,1.67,1.25,2.11l20.2,11.65
						c0.54,0.31,1.17,0.4,1.75,0.26L100.88,131.66z"/>
					<path class="st28" d="M144.49,133.91c0-0.87-0.37-1.67-1.13-2.11l-20.08-11.64c-0.18-0.1-0.37-0.18-0.56-0.23l21.77,37.18
						V133.91z"/>
					<linearGradient id="SVGID_1_" gradientUnits="userSpaceOnUse" x1="99.1634" y1="145.5249" x2="145.7925" y2="145.5249">
						<stop  offset="0" style="stop-color:#A3A3A3"/>
						<stop  offset="0.1765" style="stop-color:#ABABAB"/>
						<stop  offset="0.4577" style="stop-color:#C2C2C2"/>
						<stop  offset="0.8062" style="stop-color:#E8E8E8"/>
						<stop  offset="0.9947" style="stop-color:#FFFFFF"/>
					</linearGradient>
					<path class="st30" d="M123.24,170.96l20.12-11.65c0.75-0.44,1.12-1.24,1.12-2.11v-0.09l-21.77-37.18
						c-0.63-0.18-1.31-0.1-1.89,0.23l-19.96,11.51l21.71,39.55C122.81,171.16,123.04,171.08,123.24,170.96z"/>
				</g>
			</g>
		</g>
	</g>
</g>
<g id="Guides">
</g>
<g id="Layer_5" class="st155">
	<rect x="59.79" y="59.6" class="st156" width="180.21" height="180.21"/>
</g>
</svg>
