<svg xmlns="http://www.w3.org/2000/svg" viewBox="0 0 300 300"><defs><style>.cls-1{fill:#f6df19;}.cls-2{fill:#010101;}</style></defs><g id="Fondos"><rect class="cls-1" width="300" height="300"/></g><g id="Texto"><path class="cls-2" d="M206.77,230.16c4.28,7,9.84,12.12,19.69,12.12,8.27,0,13.55-4.13,13.55-9.84,0-6.85-5.42-9.27-14.53-13.25l-5-2.15c-14.4-6.13-24-13.82-24-30.07,0-15,11.4-26.37,29.23-26.37,12.69,0,21.82,4.42,28.39,16l-15.54,10c-3.42-6.13-7.12-8.55-12.85-8.55s-9.55,3.71-9.55,8.55c0,6,3.71,8.42,12.27,12.12l5,2.14c17,7.28,26.54,14.69,26.54,31.36,0,18-14.12,27.82-33.08,27.82-18.54,0-30.51-8.83-36.38-20.41Zm-70.52,1.73c3.14,5.57,6,10.27,12.85,10.27,6.56,0,10.69-2.57,10.69-12.54V161.74h20v68.15c0,20.67-12.11,30.07-29.8,30.07-16,0-25.24-8.27-29.95-18.23Z"/></g></svg>