<svg xmlns="http://www.w3.org/2000/svg" viewBox="0 0 300 300"><defs><style>.cls-1{fill:#7756a3;}.cls-2{fill:#fff;fill-rule:evenodd;}</style></defs><g id="Fondos"><rect class="cls-1" x="-0.42" y="-0.31" width="300" height="300"/></g><g id="Texto"><path class="cls-2" d="M94.86,74.86c-10.77,0-18.73,9.42-18.38,19.64.35,9.81-.1,22.53-3.3,32.89s-8.64,17-17.51,17.84v9.54c8.87.85,14.3,7.44,17.51,17.84s3.64,23.08,3.3,32.89c-.35,10.22,7.61,19.64,18.38,19.64h110.3c10.76,0,18.73-9.42,18.37-19.64-.34-9.81.1-22.53,3.3-32.89s8.63-17,17.5-17.84v-9.54c-8.87-.85-14.28-7.44-17.5-17.84s-3.64-23.08-3.3-32.89c.36-10.22-7.61-19.64-18.37-19.64H94.86Zm88.71,92.51c0,14.07-10.49,22.6-27.91,22.6H126a3.2,3.2,0,0,1-3.2-3.2h0V113.23A3.2,3.2,0,0,1,126,110H155.5c14.52,0,24.05,7.87,24.05,19.94A17.86,17.86,0,0,1,165,147.37v.44c11.12,1.22,18.6,8.92,18.6,19.56Zm-31.14-47.2h-16.9V144h14.24c11,0,17.07-4.43,17.07-12.35,0-7.42-5.22-11.52-14.41-11.52Zm-16.9,33.35v26.31h17.52c11.46,0,17.53-4.6,17.53-13.24s-6.24-13.07-18.26-13.07Z"/></g></svg>