<?xml version="1.0" encoding="utf-8"?>
<!-- Generator: Adobe Illustrator 25.4.1, SVG Export Plug-In . SVG Version: 6.00 Build 0)  -->
<svg version="1.1" xmlns="http://www.w3.org/2000/svg" xmlns:xlink="http://www.w3.org/1999/xlink" x="0px" y="0px"
	 viewBox="0 0 300 300" style="enable-background:new 0 0 300 300;" xml:space="preserve">
<style type="text/css">
	.st0{fill:#4674B9;}
	.st1{fill:#2C2C32;}
	.st2{fill:#010101;}
	.st3{fill:#F6DF19;}
	.st4{fill:#2363AF;}
	.st5{fill:#F0672B;}
	.st6{fill:#101215;}
	.st7{fill:#492D8C;}
	.st8{fill:#F36C3D;}
	.st9{fill:#7756A3;}
	.st10{fill:#679E63;}
	.st11{fill:#484848;}
	.st12{fill:#1B1F23;}
	.st13{fill:#EF7729;}
	.st14{fill:#4791CE;}
	.st15{fill:#F6F6F6;}
	.st16{fill:#4A4A4D;}
	.st17{fill:#C54027;}
	.st18{fill:#3978BD;}
	.st19{fill:#CC6899;}
	.st20{fill:#12364F;}
	.st21{fill:#316A9A;}
	.st22{fill:#FFD53E;}
	.st23{fill:#693994;}
	.st24{fill:#FFFFFF;}
	.st25{fill-rule:evenodd;clip-rule:evenodd;fill:#FFFFFF;}
	.st26{fill-rule:evenodd;clip-rule:evenodd;fill:url(#XMLID_00000103231690619177888720000009939770464336358063_);}
	.st27{clip-path:url(#XMLID_00000147925251104990128170000004444768035959786158_);}
	.st28{fill:none;}
	.st29{opacity:0.66;fill:#4B4B4B;}
	.st30{fill:url(#SVGID_1_);}
	.st31{opacity:0.05;fill:#010101;enable-background:new    ;}
	.st32{fill:#17AA4F;}
	.st33{fill:#B8C4C2;}
	.st34{fill:#14924F;}
	.st35{fill:#22323D;}
	.st36{fill:#F26424;}
	.st37{fill:#4E4E4E;}
	.st38{fill:#3B2F14;}
	.st39{fill:#F58772;}
	.st40{fill:#F05233;}
	.st41{fill:#433527;}
	.st42{fill:#DD1E34;}
	.st43{fill:#C32033;}
	.st44{fill:#F9F9FA;}
	.st45{fill:#7253A2;}
	.st46{fill:#4674B9;stroke:#FFFFFF;stroke-width:8;stroke-miterlimit:10;}
	.st47{fill:#EF4623;}
	.st48{fill:#4EB987;}
	.st49{fill:#455567;}
	.st50{fill:#F1F2F2;}
	.st51{fill:#70CEEF;}
	.st52{fill:#70CFF0;}
	.st53{opacity:0.7;fill:#2C384A;enable-background:new    ;}
	.st54{fill:url(#path-2_00000042697885086272216380000003301809604968360855_);}
	.st55{filter:url(#Adobe_OpacityMaskFilter);}
	.st56{mask:url(#mask-3_3_);}
	.st57{fill:#F9A01B;}
	.st58{fill:#F47D20;}
	.st59{fill:#FFCB2A;}
	.st60{fill:#FFFFFF;fill-opacity:0.2;}
	.st61{opacity:0.2;fill:#A52A22;enable-background:new    ;}
	.st62{filter:url(#Adobe_OpacityMaskFilter_00000139266678856256945630000011496299242388756105_);}
	.st63{mask:url(#mask-3_2_);fill:none;}
	.st64{filter:url(#Adobe_OpacityMaskFilter_00000054973383609360785110000017633527648011214464_);}
	.st65{mask:url(#mask-3_1_);fill:url(#_Path_5_00000148628824462174052700000012283584375449785518_);}
	.st66{fill:#5BADE0;}
	.st67{fill:#4699D4;}
	.st68{fill:#318ECD;}
	.st69{fill:#3390CE;}
	.st70{fill:#1773B0;}
	.st71{fill:#489BD5;}
	.st72{fill:#2884C6;}
	.st73{fill:#2682C5;}
	.st74{fill:#2480C4;}
	.st75{fill:#237EC2;}
	.st76{fill:#4497D2;}
	.st77{fill:#1571AF;}
	.st78{fill:#237DC1;}
	.st79{fill:#1B72AD;}
	.st80{fill:#1B6CA3;}
	.st81{fill:#196FA9;}
	.st82{fill:#1D77BD;}
	.st83{fill:#207ABF;}
	.st84{fill:#2D7FB8;}
	.st85{fill:#3383BA;}
	.st86{fill:#287EB6;}
	.st87{fill:#63B0E1;}
	.st88{fill:#3887BC;}
	.st89{fill:#3B89BD;}
	.st90{fill:#3792D0;}
	.st91{fill:#2A78AC;}
	.st92{fill:#2973A8;}
	.st93{fill:#2A7CB3;}
	.st94{fill:#3F88BA;}
	.st95{fill:#59ABDF;}
	.st96{fill:#3A7FAF;}
	.st97{fill:#317BAC;}
	.st98{fill:#367DAE;}
	.st99{fill:#2C8BCB;}
	.st100{fill:#2E8DCC;}
	.st101{fill:#1A75B1;}
	.st102{fill:#1F77B2;}
	.st103{fill:#1D74AF;}
	.st104{fill:#1D72AA;}
	.st105{fill:#206FA5;}
	.st106{fill:#499FD8;}
	.st107{fill:#489CD6;}
	.st108{fill:#4DA1D9;}
	.st109{fill:#51A6DC;}
	.st110{fill:#4FA4DB;}
	.st111{fill:#0F72B7;}
	.st112{fill:#0770B7;}
	.st113{fill:#56A8DD;}
	.st114{fill:#2A88C9;}
	.st115{fill:#227FC3;}
	.st116{fill:#1F7DC1;}
	.st117{fill:#1D7BC0;}
	.st118{fill:#1474BB;}
	.st119{fill:#1071B9;}
	.st120{fill:#1E79BF;}
	.st121{fill:#1875BC;}
	.st122{fill:#3381B5;}
	.st123{fill:#2F7FB4;}
	.st124{fill:#3883B6;}
	.st125{fill:#267BB5;}
	.st126{fill:#297AB2;}
	.st127{fill:#3E86B6;}
	.st128{fill:#3C81B1;}
	.st129{fill:#3B87B9;}
	.st130{fill:#3A85B8;}
	.st131{fill:#2378B1;}
	.st132{fill:#2675AC;}
	.st133{fill:#2572A6;}
	.st134{fill:#0D74B8;}
	.st135{fill:#3882B4;}
	.st136{fill:#367FB2;}
	.st137{fill:#307CAF;}
	.st138{fill:#337EB0;}
	.st139{fill:#2271A5;}
	.st140{fill:#0E75BB;}
	.st141{fill:#0D73BB;}
	.st142{fill:#0B74BC;}
	.st143{fill:#1578BC;}
	.st144{fill:#1C7CC1;}
	.st145{fill:#2575AB;}
	.st146{fill:#1B7BC0;}
	.st147{fill:#1876BD;}
	.st148{fill:#1978BE;}
	.st149{fill:#3C84B4;}
	.st150{fill-rule:evenodd;clip-rule:evenodd;fill:#687E91;}
	.st151{fill:#037690;}
	.st152{fill:#F29220;}
	.st153{fill-rule:evenodd;clip-rule:evenodd;fill:#F29220;}
	.st154{fill-rule:evenodd;clip-rule:evenodd;fill:#037690;}
	.st155{display:none;}
	.st156{display:inline;fill-rule:evenodd;clip-rule:evenodd;fill:#2BB673;}
	.st157{display:inline;opacity:0.15;fill-rule:evenodd;clip-rule:evenodd;fill:#2BB673;}
</style>
<g id="Fondos_1_">
	<rect width="300" height="300"/>
</g>
<g id="Texto">
	<g>
		<path class="st24" d="M201.42,92.72c0.04,0.26-0.19,0.38-0.31,0.54c-2.13,2.71-4.27,5.41-6.4,8.12
			c-5.77,7.34-11.63,14.62-17.28,22.05c-5.7,7.5-11.21,15.14-16.77,22.75c-0.5,0.68-0.68,0.58-1.1-0.03
			c-1.18-1.72-2.42-3.39-3.64-5.08c-4.38-6.09-8.77-12.17-13.16-18.26c-0.18-0.25-0.29-0.59-0.73-0.58
			c-1.18,0.02-2.36,0.01-3.66,0.01c0.25,0.37,0.41,0.62,0.59,0.86c6.19,8.59,12.38,17.18,18.59,25.75c0.36,0.49,0.35,0.79-0.01,1.28
			c-6.69,9.12-13.36,18.25-20.02,27.39c-0.17,0.23-0.46,0.4-0.41,0.78c1.04,0,2.07-0.04,3.1,0.01c0.59,0.03,0.94-0.16,1.3-0.64
			c6.02-8.3,12.06-16.59,18.1-24.87c0.16-0.22,0.26-0.5,0.57-0.61c0.16,0.22,0.33,0.43,0.49,0.66c6,8.28,12,16.56,18.01,24.83
			c0.17,0.23,0.27,0.61,0.63,0.61c1.28,0.02,2.57,0.01,3.97,0.01c-0.27-0.38-0.42-0.61-0.58-0.83
			c-6.61-9.11-13.21-18.22-19.84-27.32c-0.38-0.52-0.36-0.83,0-1.34c4.97-7.13,9.91-14.29,14.86-21.43
			c7.73-11.17,15.47-22.33,23.2-33.5C201.14,93.52,201.58,93.24,201.42,92.72c0.05,0.04,0.1,0.09,0.15,0.13
			c0.03-0.04,0.05-0.08,0.08-0.12C201.57,92.73,201.5,92.72,201.42,92.72z M97.29,150.27c0,9.04,0.01,18.08-0.02,27.12
			c0,0.7,0.13,0.92,0.89,0.91c11.71-0.03,23.42-0.02,35.14-0.02c0.66,0,1.55,0.22,1.93-0.11c0.46-0.4,0.06-1.31,0.16-1.99
			c0.1-0.72-0.13-0.91-0.88-0.91c-10.99,0.03-21.98,0.01-32.97,0.03c-0.64,0-0.83-0.14-0.83-0.81c0.03-7.65,0.03-15.3,0-22.95
			c0-0.76,0.22-0.91,0.93-0.91c9.74,0.02,19.47,0.02,29.21,0.01c0.66,0,1.52,0.28,1.94-0.12c0.43-0.4,0.06-1.27,0.14-1.92
			c0.1-0.75-0.15-0.96-0.93-0.96c-10.13,0.03-20.25,0.01-30.38,0.04c-0.75,0-0.92-0.2-0.91-0.93c0.03-6.9,0.03-13.8,0-20.69
			c0-0.69,0.17-0.87,0.86-0.87c10.43,0.02,20.87,0.02,31.3,0.01c0.68,0,1.58,0.31,2-0.14c0.41-0.44,0.05-1.33,0.13-2.01
			c0.09-0.73-0.22-0.85-0.88-0.85c-11.99,0.02-23.98,0.02-35.97,0c-0.68,0-0.87,0.15-0.87,0.85
			C97.29,132.14,97.29,141.21,97.29,150.27z M111.22,207.29c0-0.58-0.27-0.86-0.47-1.16c-13.6-20.26-27.21-40.53-40.81-60.79
			c-5.01-7.47-10.04-14.93-15.03-22.41c-0.35-0.53-0.71-0.75-1.34-0.7c-0.83,0.06-1.67,0.08-2.5,0c-0.83-0.08-0.99,0.21-0.99,1
			c0.02,17.52,0.02,35.04,0.02,52.56c0,0.8-0.28,1.88,0.13,2.34c0.47,0.53,1.57,0.08,2.38,0.19c0.81,0.11,0.99-0.17,0.99-0.98
			c0.02-16.6,0.08-33.21,0.14-49.81c0-0.25-0.09-0.53,0.12-0.81c0.19,0.26,0.35,0.48,0.5,0.71c7.31,10.61,14.61,21.23,21.93,31.84
			c4.6,6.68,9.11,13.42,13.87,19.99c5.25,7.24,10.74,14.32,16.12,21.46C107.88,202.85,109.5,205.01,111.22,207.29z M207.96,151.75
			c0-8.56,0.01-17.13-0.02-25.69c0-0.71,0.19-0.85,0.87-0.85c5.59,0.03,11.18,0.02,16.77,0.01c0.69,0,1.58,0.29,2.01-0.12
			c0.43-0.41,0.04-1.32,0.14-2c0.11-0.77-0.21-0.89-0.91-0.89c-13.29,0.02-26.59,0.02-39.88,0.02c-0.69,0-1.61-0.23-2.01,0.12
			c-0.46,0.41-0.07,1.36-0.16,2.07c-0.08,0.65,0.15,0.82,0.8,0.81c6.01-0.03,12.02,0,18.02-0.03c0.71,0,0.91,0.13,0.91,0.89
			c-0.03,14.82-0.02,29.64-0.02,44.47c0,2.36,0.01,4.73-0.01,7.09c-0.01,0.5,0.09,0.69,0.63,0.65c0.66-0.05,1.34-0.06,2,0
			c0.69,0.06,0.87-0.16,0.87-0.86C207.95,168.88,207.96,160.31,207.96,151.75z M245.11,161.9c-0.57-0.01-1.39,0.13-2.15,0.52
			c-1.36,0.69-2,1.78-1.92,3.31c0.07,1.44,0.87,2.29,2.16,2.76c0.55,0.2,1.12,0.33,1.67,0.49c0.82,0.23,1.69,0.33,2.44,0.8
			c0.87,0.55,1.03,1.52,0.38,2.28c-1.04,1.21-4.03,1.15-4.75-0.25c-0.48-0.93-1.11-0.76-1.81-0.8c-0.42-0.02-0.46,0.19-0.38,0.52
			c0.22,0.97,0.71,1.78,1.58,2.26c2.03,1.11,4.11,1.11,6.11-0.04c1.19-0.68,1.62-1.86,1.55-3.21c-0.07-1.35-0.83-2.21-2.05-2.67
			c-0.65-0.25-1.32-0.4-1.99-0.59c-0.75-0.21-1.53-0.32-2.21-0.7c-0.86-0.48-1.06-1.42-0.47-2.19c0.92-1.2,3.73-1.11,4.39,0.25
			c0.34,0.69,0.72,0.76,1.33,0.74c0.89-0.03,0.94-0.08,0.62-0.97C249.04,162.81,247.46,161.88,245.11,161.9z M238.21,166.94
			c0,0,0.01,0,0.01,0c0-1.22,0-2.45,0-3.67c0-1.13,0-1.09-1.16-1.13c-0.61-0.02-0.73,0.19-0.72,0.75c0.03,2.47,0.02,4.95,0.01,7.42
			c0,0.36-0.02,0.72-0.1,1.07c-0.21,0.92-0.78,1.37-1.71,1.39c-0.92,0.03-1.59-0.38-1.82-1.25c-0.1-0.36-0.24-0.44-0.55-0.42
			c-0.3,0.02-0.61,0.02-0.92,0c-0.37-0.03-0.52,0.1-0.43,0.47c0.06,0.24,0.08,0.49,0.16,0.73c0.55,1.63,2.16,2.46,4.19,2.18
			c1.81-0.25,2.95-1.46,3.02-3.3C238.25,169.78,238.21,168.36,238.21,166.94z M228.62,173.12c-0.02-0.73-0.57-1.23-1.3-1.19
			c-0.69,0.03-1.16,0.55-1.14,1.26c0.02,0.69,0.54,1.21,1.21,1.22C228.07,174.41,228.64,173.83,228.62,173.12z"/>
		<path class="st24" d="M97.29,150.27c0-9.07,0.01-18.14-0.02-27.2c0-0.71,0.19-0.86,0.87-0.85c11.99,0.02,23.98,0.02,35.97,0
			c0.67,0,0.97,0.12,0.88,0.85c-0.08,0.68,0.28,1.57-0.13,2.01c-0.42,0.45-1.31,0.14-2,0.14c-10.43,0.01-20.87,0.01-31.3-0.01
			c-0.69,0-0.87,0.17-0.86,0.87c0.03,6.9,0.03,13.8,0,20.69c0,0.73,0.16,0.93,0.91,0.93c10.13-0.03,20.25-0.01,30.38-0.04
			c0.78,0,1.03,0.22,0.93,0.96c-0.09,0.65,0.28,1.52-0.14,1.92c-0.42,0.4-1.28,0.12-1.94,0.12c-9.74,0.01-19.47,0.01-29.21-0.01
			c-0.72,0-0.94,0.15-0.93,0.91c0.03,7.65,0.03,15.3,0,22.95c0,0.67,0.19,0.81,0.83,0.81c10.99-0.02,21.98,0,32.97-0.03
			c0.75,0,0.98,0.2,0.88,0.91c-0.09,0.68,0.3,1.59-0.16,1.99c-0.39,0.34-1.27,0.11-1.93,0.11c-11.71,0-23.42-0.01-35.14,0.02
			c-0.76,0-0.89-0.21-0.89-0.91C97.29,168.35,97.29,159.31,97.29,150.27z"/>
		<path class="st24" d="M201.42,92.71c0.16,0.53-0.28,0.81-0.51,1.15c-7.72,11.17-15.46,22.34-23.2,33.5
			c-4.95,7.15-9.89,14.3-14.86,21.43c-0.36,0.51-0.38,0.82,0,1.34c6.63,9.09,13.23,18.21,19.84,27.32c0.16,0.22,0.32,0.45,0.58,0.83
			c-1.4,0-2.69,0.01-3.97-0.01c-0.36-0.01-0.46-0.38-0.63-0.61c-6.01-8.27-12.01-16.55-18.01-24.83c-0.16-0.22-0.33-0.44-0.49-0.66
			c-0.31,0.11-0.41,0.39-0.57,0.61c-6.04,8.29-12.08,16.57-18.1,24.87c-0.35,0.49-0.71,0.67-1.3,0.64c-1.03-0.05-2.05-0.01-3.1-0.01
			c-0.05-0.38,0.25-0.55,0.41-0.78c6.67-9.14,13.34-18.27,20.02-27.39c0.35-0.48,0.36-0.78,0.01-1.28
			c-6.21-8.57-12.4-17.16-18.59-25.75c-0.17-0.24-0.34-0.49-0.59-0.86c1.3,0,2.48,0.01,3.66-0.01c0.44-0.01,0.54,0.33,0.73,0.58
			c4.39,6.08,8.77,12.17,13.16,18.26c1.22,1.69,2.46,3.36,3.64,5.08c0.42,0.61,0.6,0.71,1.1,0.03c5.56-7.6,11.07-15.25,16.77-22.75
			c5.65-7.43,11.51-14.71,17.28-22.05c2.13-2.71,4.27-5.41,6.4-8.12C201.23,93.1,201.46,92.98,201.42,92.71L201.42,92.71z"/>
		<path class="st24" d="M111.22,207.29c-1.72-2.28-3.34-4.43-4.96-6.59c-5.38-7.15-10.87-14.22-16.12-21.46
			c-4.76-6.56-9.26-13.31-13.87-19.99c-7.31-10.61-14.62-21.23-21.93-31.84c-0.15-0.22-0.32-0.44-0.5-0.71
			c-0.21,0.27-0.11,0.56-0.12,0.81c-0.06,16.6-0.12,33.21-0.14,49.81c0,0.8-0.18,1.09-0.99,0.98c-0.81-0.11-1.92,0.34-2.38-0.19
			c-0.4-0.46-0.12-1.53-0.13-2.34c0-17.52,0-35.04-0.02-52.56c0-0.79,0.16-1.08,0.99-1c0.83,0.08,1.67,0.06,2.5,0
			c0.63-0.04,0.99,0.18,1.34,0.7c5,7.48,10.02,14.95,15.03,22.41c13.61,20.26,27.21,40.53,40.81,60.79
			C110.95,206.43,111.22,206.71,111.22,207.29z"/>
		<path class="st24" d="M207.96,151.75c0,8.56-0.01,17.13,0.02,25.69c0,0.7-0.17,0.92-0.87,0.86c-0.66-0.06-1.34-0.05-2,0
			c-0.54,0.04-0.64-0.16-0.63-0.65c0.03-2.36,0.01-4.73,0.01-7.09c0-14.82-0.01-29.64,0.02-44.47c0-0.76-0.21-0.89-0.91-0.89
			c-6.01,0.03-12.02,0.01-18.02,0.03c-0.65,0-0.88-0.16-0.8-0.81c0.09-0.71-0.3-1.66,0.16-2.07c0.39-0.35,1.32-0.12,2.01-0.12
			c13.29,0,26.59,0,39.88-0.02c0.7,0,1.03,0.12,0.91,0.89c-0.1,0.68,0.29,1.58-0.14,2c-0.43,0.41-1.32,0.12-2.01,0.12
			c-5.59,0.01-11.18,0.02-16.77-0.01c-0.68,0-0.87,0.13-0.87,0.85C207.97,134.62,207.96,143.19,207.96,151.75z"/>
		<path class="st24" d="M245.11,161.9c2.35-0.01,3.93,0.92,4.49,2.49c0.32,0.89,0.27,0.94-0.62,0.97c-0.61,0.02-0.99-0.04-1.33-0.74
			c-0.66-1.36-3.46-1.45-4.39-0.25c-0.59,0.77-0.39,1.71,0.47,2.19c0.69,0.38,1.47,0.49,2.21,0.7c0.67,0.19,1.34,0.35,1.99,0.59
			c1.22,0.46,1.98,1.32,2.05,2.67c0.07,1.34-0.36,2.52-1.55,3.21c-2,1.15-4.08,1.15-6.11,0.04c-0.87-0.48-1.36-1.29-1.58-2.26
			c-0.07-0.32-0.04-0.54,0.38-0.52c0.71,0.04,1.33-0.13,1.81,0.8c0.72,1.4,3.71,1.46,4.75,0.25c0.65-0.76,0.49-1.72-0.38-2.28
			c-0.74-0.47-1.61-0.57-2.44-0.8c-0.56-0.16-1.13-0.29-1.67-0.49c-1.29-0.46-2.09-1.32-2.16-2.76c-0.07-1.52,0.57-2.62,1.92-3.31
			C243.73,162.02,244.54,161.89,245.11,161.9z"/>
		<path class="st24" d="M238.21,166.94c0,1.42,0.04,2.84-0.01,4.25c-0.07,1.84-1.21,3.05-3.02,3.3c-2.03,0.28-3.64-0.56-4.19-2.18
			c-0.08-0.23-0.1-0.49-0.16-0.73c-0.09-0.37,0.06-0.5,0.43-0.47c0.3,0.02,0.61,0.02,0.92,0c0.32-0.02,0.46,0.06,0.55,0.42
			c0.24,0.87,0.9,1.27,1.82,1.25c0.93-0.03,1.5-0.48,1.71-1.39c0.08-0.35,0.1-0.71,0.1-1.07c0.01-2.47,0.02-4.95-0.01-7.42
			c-0.01-0.56,0.11-0.77,0.72-0.75c1.16,0.04,1.16,0,1.16,1.13c0,1.22,0,2.45,0,3.67C238.22,166.94,238.22,166.94,238.21,166.94z"/>
		<path class="st24" d="M228.62,173.12c0.02,0.71-0.55,1.29-1.24,1.29c-0.67-0.01-1.19-0.53-1.21-1.22
			c-0.02-0.71,0.45-1.23,1.14-1.26C228.05,171.89,228.6,172.4,228.62,173.12z"/>
		<path class="st24" d="M201.42,92.72c0.08,0,0.15,0.01,0.23,0.01c-0.03,0.04-0.05,0.08-0.08,0.12
			C201.52,92.8,201.47,92.76,201.42,92.72C201.42,92.71,201.42,92.72,201.42,92.72z"/>
	</g>
</g>
<g id="Guides">
</g>
<g id="Layer_5" class="st155">
	<rect x="59.79" y="59.6" class="st156" width="180.21" height="180.21"/>
</g>
</svg>
