<svg xmlns="http://www.w3.org/2000/svg" viewBox="0 0 300 300"><defs><style>.cls-1{fill:#cc6899;}.cls-2{fill:#fff;}</style></defs><g id="Fondos"><rect class="cls-1" width="300" height="300"/></g><g id="Texto"><path class="cls-2" d="M144.91,82.55a8.6,8.6,0,0,0,2.26.29c6,.6,11.67,2,16.82,5.14a18.33,18.33,0,0,1,8.39,10.18,22.58,22.58,0,0,1,.65,10.52c-1.25,7.72-5.07,14.11-10.3,19.76-6.91,7.48-15.56,11.87-25.34,14.27a61.08,61.08,0,0,1-16.31,1.92c-4.07-.13-8.08-.59-11.77-2.49a16.68,16.68,0,0,1-6.93-6,7.33,7.33,0,0,1-.89-2.3,1.17,1.17,0,0,1,.48-1.44c.57-.34,1,.07,1.29.43a15,15,0,0,0,5.16,3.79,22,22,0,0,0,7.81,1.89c8.42.41,16.34-1.65,24-5.06a47.93,47.93,0,0,0,15.42-10.83A31.52,31.52,0,0,0,162.5,112a16.61,16.61,0,0,0,1.07-7.93,9.53,9.53,0,0,0-5.26-7.46,24.85,24.85,0,0,0-9.19-2.8,58.58,58.58,0,0,0-21.73,1.83A103.72,103.72,0,0,0,102,106.26,102.88,102.88,0,0,0,87.47,116a45.12,45.12,0,0,0-11,12.21,22.48,22.48,0,0,0-3,9.78,17.09,17.09,0,0,0,3.67,11.6,49,49,0,0,0,9.09,8.88c4,3.21,8.18,6.17,12,9.61,1.06.95,2.07,2,3.07,3a.67.67,0,0,0,1,.17q8.43-4.65,16.89-9.25a2.67,2.67,0,0,0,.87-.8,29.91,29.91,0,0,1,10.88-9.09,10.36,10.36,0,0,1,5.2-1.15,5.05,5.05,0,0,1,4.76,3.59,13.32,13.32,0,0,1,.51,5.85c0,.61-.14,1.21-.21,1.81a.56.56,0,0,0,.54-.17,3.82,3.82,0,0,1,4.9.51,2.43,2.43,0,0,1,.45,2.46c-1.12,4.43-2.39,8.82-3.41,13.27a44.5,44.5,0,0,0-1.23,6.69,11.26,11.26,0,0,0,.09,2.39c0,.19,0,.44.23.49s.28-.17.39-.3a20.08,20.08,0,0,0,1.84-3.26c2.64-5.13,4.9-10.44,7.26-15.7,2.49-5.56,5-11.11,7.34-16.74a37.51,37.51,0,0,0,1.54-5.31,2,2,0,0,1,1.37-1.54,17.24,17.24,0,0,1,7.91-.59,3.05,3.05,0,0,1,1,.39,1.44,1.44,0,0,1,.81,2,49.61,49.61,0,0,0-1.83,6.4,21.82,21.82,0,0,0,0,6,20.66,20.66,0,0,0,2.77,7.74c.87-1.47,1.69-2.83,2.49-4.2,2.69-4.65,5.31-9.33,7.55-14.23a31.8,31.8,0,0,0,1.81-6.24,3.63,3.63,0,0,1,3.44-3.12,20.28,20.28,0,0,1,5.82-.22,4.51,4.51,0,0,1,1.48.48,1.47,1.47,0,0,1,.8,2,37.21,37.21,0,0,0-1.86,6.7,19.67,19.67,0,0,0,1.67,11.31c.63,1.3,1.32,2.58,2,3.88.19.41.35.55.84.32A36.56,36.56,0,0,1,216,160.14,27.57,27.57,0,0,1,231.8,165a18.71,18.71,0,0,1,7.85,11.72,12.22,12.22,0,0,1-7.4,14.09,3.83,3.83,0,0,1-1.6.34c-.35,0-.65-.07-.79-.44a.73.73,0,0,1,.31-.91c.59-.42,1.21-.81,1.79-1.24a9.7,9.7,0,0,0,4-5.78,10.18,10.18,0,0,0-1.53-7.52,17.16,17.16,0,0,0-9.35-7.24,34.83,34.83,0,0,0-9.75-1.85,34.18,34.18,0,0,0-13.43,1.69c-1.37.48-1.35.48-.92,1.83a16.58,16.58,0,0,1,1,6.54,11.72,11.72,0,0,1-3.58,7.17,24.16,24.16,0,0,1-12.08,6.71,4.22,4.22,0,0,1-5.4-4.28,15.61,15.61,0,0,1,2.53-8.27,34.17,34.17,0,0,1,7.53-8.68c.31-.27.45-.45.23-.85a44,44,0,0,1-4.66-13.69s0,0-.1-.08c-.23.15-.29.43-.41.66a142.94,142.94,0,0,1-9.92,16.84,1.27,1.27,0,0,0-.14,1.37,20.55,20.55,0,0,1,1.78,7.53,12.24,12.24,0,0,1-4.87,10.38,22.91,22.91,0,0,1-14.36,5,6.85,6.85,0,0,1-1.56-.18c-2.45-.54-3.28-2.78-1.84-5a64.65,64.65,0,0,1,4.55-5.76c2.63-3.15,5.34-6.22,7.69-9.59a.92.92,0,0,0,.08-1.13,45.79,45.79,0,0,1-4.78-12.87l-.21-1c-.07-.31-.13-.62-.23-1.07-.81,2-1.58,3.81-2.34,5.65A246.23,246.23,0,0,1,147,191.46a21.78,21.78,0,0,1-3.92,5.27,9.11,9.11,0,0,1-1.73,1.3,4,4,0,0,1-5.52-1.32,9.93,9.93,0,0,1-1.39-4.46,27.41,27.41,0,0,1,.12-6.65c0-.26,0-.52,0-1-.75,1.75-1.4,3.31-2.09,4.84a60.86,60.86,0,0,1-4.32,8.38,6.24,6.24,0,0,1-4,3.08c-3.52.64-5.39-.26-7.12-2.83a24.58,24.58,0,0,1-3.75-10.26c-.84-5.63.16-11.08,1.73-16.46.07-.22.14-.43.2-.65,0,0,0-.09,0-.22-1,.55-2,1.06-2.94,1.62-2.17,1.24-4.32,2.51-6.49,3.75-.4.23-.49.42-.29.87a26.09,26.09,0,0,1,2,12.58A29,29,0,0,1,104,202c-4.71,8.34-11.74,13.51-21.24,15.19-.61.11-1.24.15-1.86.22h-3.6c-.91-.11-1.84-.19-2.74-.36a8.38,8.38,0,0,1-4.33-1.69,12.79,12.79,0,0,1-4.3-9.56,19.65,19.65,0,0,1,5.48-14.3,53.24,53.24,0,0,1,8.94-7.61A110.69,110.69,0,0,1,94,175.84c1.36-.69,1.34-.72.16-1.65-4-3.21-8.38-6-12.56-9-5.18-3.69-10.23-7.51-14.46-12.31a31.13,31.13,0,0,1-6-9.59c-.51-1.33-.77-2.72-1.16-4.08V136.1a1,1,0,0,0,.12-.26,23.73,23.73,0,0,1,1.59-6.14A48,48,0,0,1,71.8,114.51a86.39,86.39,0,0,1,15.63-12.9,140.26,140.26,0,0,1,26.25-13.34,79,79,0,0,1,22.6-5.48,4.31,4.31,0,0,0,1.88-.24ZM99.58,178.88a3.33,3.33,0,0,0-.31.14,102.73,102.73,0,0,0-12.76,8.53,29,29,0,0,0-7,7.25A14.89,14.89,0,0,0,77,203.41a3.8,3.8,0,0,0,4,4,13.74,13.74,0,0,0,8.2-2.44c8.07-5.27,12.16-12.6,11.22-22.4A15.57,15.57,0,0,0,99.58,178.88Zm22.53,3.86v.45a15.26,15.26,0,0,0,1,5.79c.67,1.5,1.5,1.6,2.54.32a12.39,12.39,0,0,0,1.7-2.81,181.5,181.5,0,0,0,7.82-20.39,32.5,32.5,0,0,0,1.55-6.53c.12-1.2-.33-1.69-1.53-1.59a6.46,6.46,0,0,0-3.22,1.49,19.58,19.58,0,0,0-4.94,6.14A33.34,33.34,0,0,0,122.11,182.74Zm72.46-7.84a8.24,8.24,0,0,0-.31-2.38c-.12-.55-.26-.64-.73-.21a22.25,22.25,0,0,0-6.23,9.91,6.13,6.13,0,0,0-.32,1.53c0,.33,0,.93.62.67C191.72,182.88,194.5,179.84,194.57,174.9ZM170.25,180a.34.34,0,0,0-.33.21,115.78,115.78,0,0,1-7.79,9.2c-.26.29-.89.61-.63,1s.85,0,1.28-.17a1.13,1.13,0,0,0,.27-.13,17.11,17.11,0,0,0,5.64-5.06A8.26,8.26,0,0,0,170.25,180Zm-35.58,4.38,0-.06s0,0,0,0l.05.07Z"/><path class="cls-2" d="M134.67,184.42l0,.06-.05-.07s0,0,0,0Z"/></g></svg>