<?xml version="1.0" encoding="utf-8"?>
<!-- Generator: Adobe Illustrator 25.4.1, SVG Export Plug-In . SVG Version: 6.00 Build 0)  -->
<svg version="1.1" xmlns="http://www.w3.org/2000/svg" xmlns:xlink="http://www.w3.org/1999/xlink" x="0px" y="0px"
	 viewBox="0 0 300 300" style="enable-background:new 0 0 300 300;" xml:space="preserve">
<style type="text/css">
	.st0{fill:#4674B9;}
	.st1{fill:#2C2C32;}
	.st2{fill:#010101;}
	.st3{fill:#F6DF19;}
	.st4{fill:#2363AF;}
	.st5{fill:#F0672B;}
	.st6{fill:#101215;}
	.st7{fill:#492D8C;}
	.st8{fill:#F36C3D;}
	.st9{fill:#7756A3;}
	.st10{fill:#679E63;}
	.st11{fill:#484848;}
	.st12{fill:#1B1F23;}
	.st13{fill:#EF7729;}
	.st14{fill:#4791CE;}
	.st15{fill:#F6F6F6;}
	.st16{fill:#4A4A4D;}
	.st17{fill:#C54027;}
	.st18{fill:#3978BD;}
	.st19{fill:#CC6899;}
	.st20{fill:#12364F;}
	.st21{fill:#316A9A;}
	.st22{fill:#FFD53E;}
	.st23{fill:#693994;}
	.st24{fill:#FFFFFF;}
	.st25{fill-rule:evenodd;clip-rule:evenodd;fill:#FFFFFF;}
	.st26{fill-rule:evenodd;clip-rule:evenodd;fill:url(#XMLID_00000181065396651798280240000004751398735257536392_);}
	.st27{clip-path:url(#XMLID_00000154404598052846339230000000305547075167373753_);}
	.st28{fill:none;}
	.st29{opacity:0.66;fill:#4B4B4B;}
	.st30{fill:url(#SVGID_1_);}
	.st31{opacity:0.05;fill:#010101;enable-background:new    ;}
	.st32{fill:#17AA4F;}
	.st33{fill:#B8C4C2;}
	.st34{fill:#14924F;}
	.st35{fill:#22323D;}
	.st36{fill:#F26424;}
	.st37{fill:#4E4E4E;}
	.st38{fill:#3B2F14;}
	.st39{fill:#F58772;}
	.st40{fill:#F05233;}
	.st41{fill:#433527;}
	.st42{fill:#DD1E34;}
	.st43{fill:#C32033;}
	.st44{fill:#F9F9FA;}
	.st45{fill:#7253A2;}
	.st46{fill:#4674B9;stroke:#FFFFFF;stroke-width:8;stroke-miterlimit:10;}
	.st47{fill:#EF4623;}
	.st48{fill:#4EB987;}
	.st49{fill:#455567;}
	.st50{fill:#F1F2F2;}
	.st51{fill:#70CEEF;}
	.st52{fill:#70CFF0;}
	.st53{opacity:0.7;fill:#2C384A;enable-background:new    ;}
	.st54{fill:url(#path-2_00000128448304452330928980000001292077252764188094_);}
	.st55{filter:url(#Adobe_OpacityMaskFilter);}
	.st56{mask:url(#mask-3_3_);}
	.st57{fill:#F9A01B;}
	.st58{fill:#F47D20;}
	.st59{fill:#FFCB2A;}
	.st60{fill:#FFFFFF;fill-opacity:0.2;}
	.st61{opacity:0.2;fill:#A52A22;enable-background:new    ;}
	.st62{filter:url(#Adobe_OpacityMaskFilter_00000083794081843707143210000011024540530770614406_);}
	.st63{mask:url(#mask-3_2_);fill:none;}
	.st64{filter:url(#Adobe_OpacityMaskFilter_00000072991756336535913140000017729981706475959226_);}
	.st65{mask:url(#mask-3_1_);fill:url(#_Path_5_00000132782816691482362910000016680416997169988495_);}
	.st66{fill:#5BADE0;}
	.st67{fill:#4699D4;}
	.st68{fill:#318ECD;}
	.st69{fill:#3390CE;}
	.st70{fill:#1773B0;}
	.st71{fill:#489BD5;}
	.st72{fill:#2884C6;}
	.st73{fill:#2682C5;}
	.st74{fill:#2480C4;}
	.st75{fill:#237EC2;}
	.st76{fill:#4497D2;}
	.st77{fill:#1571AF;}
	.st78{fill:#237DC1;}
	.st79{fill:#1B72AD;}
	.st80{fill:#1B6CA3;}
	.st81{fill:#196FA9;}
	.st82{fill:#1D77BD;}
	.st83{fill:#207ABF;}
	.st84{fill:#2D7FB8;}
	.st85{fill:#3383BA;}
	.st86{fill:#287EB6;}
	.st87{fill:#63B0E1;}
	.st88{fill:#3887BC;}
	.st89{fill:#3B89BD;}
	.st90{fill:#3792D0;}
	.st91{fill:#2A78AC;}
	.st92{fill:#2973A8;}
	.st93{fill:#2A7CB3;}
	.st94{fill:#3F88BA;}
	.st95{fill:#59ABDF;}
	.st96{fill:#3A7FAF;}
	.st97{fill:#317BAC;}
	.st98{fill:#367DAE;}
	.st99{fill:#2C8BCB;}
	.st100{fill:#2E8DCC;}
	.st101{fill:#1A75B1;}
	.st102{fill:#1F77B2;}
	.st103{fill:#1D74AF;}
	.st104{fill:#1D72AA;}
	.st105{fill:#206FA5;}
	.st106{fill:#499FD8;}
	.st107{fill:#489CD6;}
	.st108{fill:#4DA1D9;}
	.st109{fill:#51A6DC;}
	.st110{fill:#4FA4DB;}
	.st111{fill:#0F72B7;}
	.st112{fill:#0770B7;}
	.st113{fill:#56A8DD;}
	.st114{fill:#2A88C9;}
	.st115{fill:#227FC3;}
	.st116{fill:#1F7DC1;}
	.st117{fill:#1D7BC0;}
	.st118{fill:#1474BB;}
	.st119{fill:#1071B9;}
	.st120{fill:#1E79BF;}
	.st121{fill:#1875BC;}
	.st122{fill:#3381B5;}
	.st123{fill:#2F7FB4;}
	.st124{fill:#3883B6;}
	.st125{fill:#267BB5;}
	.st126{fill:#297AB2;}
	.st127{fill:#3E86B6;}
	.st128{fill:#3C81B1;}
	.st129{fill:#3B87B9;}
	.st130{fill:#3A85B8;}
	.st131{fill:#2378B1;}
	.st132{fill:#2675AC;}
	.st133{fill:#2572A6;}
	.st134{fill:#0D74B8;}
	.st135{fill:#3882B4;}
	.st136{fill:#367FB2;}
	.st137{fill:#307CAF;}
	.st138{fill:#337EB0;}
	.st139{fill:#2271A5;}
	.st140{fill:#0E75BB;}
	.st141{fill:#0D73BB;}
	.st142{fill:#0B74BC;}
	.st143{fill:#1578BC;}
	.st144{fill:#1C7CC1;}
	.st145{fill:#2575AB;}
	.st146{fill:#1B7BC0;}
	.st147{fill:#1876BD;}
	.st148{fill:#1978BE;}
	.st149{fill:#3C84B4;}
	.st150{fill-rule:evenodd;clip-rule:evenodd;fill:#687E91;}
	.st151{fill:#037690;}
	.st152{fill:#F29220;}
	.st153{fill-rule:evenodd;clip-rule:evenodd;fill:#F29220;}
	.st154{fill-rule:evenodd;clip-rule:evenodd;fill:#037690;}
	.st155{display:none;}
	.st156{display:inline;fill-rule:evenodd;clip-rule:evenodd;fill:#2BB673;}
	.st157{display:inline;opacity:0.15;fill-rule:evenodd;clip-rule:evenodd;fill:#2BB673;}
</style>
<g id="Fondos_1_">
	<rect class="st19" width="300" height="300"/>
</g>
<g id="Texto">
	<g>
		<path class="st24" d="M144.91,82.55c0.73,0.28,1.5,0.21,2.26,0.29c5.95,0.61,11.67,1.96,16.82,5.14
			c3.94,2.43,6.97,5.66,8.39,10.19c1.08,3.45,1.23,6.96,0.65,10.52c-1.26,7.72-5.07,14.11-10.3,19.76
			c-6.92,7.48-15.56,11.87-25.34,14.26c-5.36,1.31-10.78,2.08-16.31,1.92c-4.06-0.12-8.08-0.58-11.77-2.49
			c-2.8-1.44-5.26-3.27-6.93-6.01c-0.43-0.71-0.7-1.49-0.89-2.3c-0.13-0.58-0.09-1.11,0.48-1.44c0.57-0.33,0.97,0.07,1.29,0.43
			c1.46,1.62,3.15,2.91,5.15,3.79c2.5,1.1,5.1,1.75,7.82,1.89c8.42,0.42,16.33-1.65,23.94-5.05c5.83-2.61,11.01-6.19,15.42-10.84
			c2.95-3.11,5.39-6.56,6.9-10.61c0.95-2.56,1.41-5.18,1.07-7.93c-0.43-3.44-2.31-5.82-5.26-7.46c-2.86-1.59-5.97-2.4-9.18-2.79
			c-7.37-0.91-14.59,0.01-21.74,1.83c-8.98,2.28-17.31,6.09-25.34,10.62c-5.1,2.88-10.03,6.01-14.57,9.72
			c-4.28,3.5-8.16,7.37-10.95,12.21c-1.75,3.03-2.8,6.27-3.03,9.78c-0.29,4.36,1.12,8.16,3.67,11.6c2.55,3.45,5.77,6.22,9.09,8.88
			c3.99,3.21,8.18,6.17,12,9.6c1.06,0.95,2.06,1.97,3.06,2.98c0.31,0.32,0.54,0.39,0.96,0.16c5.62-3.09,11.26-6.17,16.89-9.24
			c0.37-0.2,0.62-0.48,0.87-0.8c2.95-3.84,6.48-7,10.88-9.1c1.63-0.78,3.34-1.27,5.2-1.14c2.39,0.16,3.95,1.38,4.76,3.59
			c0.7,1.9,0.68,3.87,0.51,5.85c-0.05,0.61-0.15,1.21-0.22,1.81c0.28,0.07,0.4-0.07,0.54-0.17c1.51-1.05,3.65-0.83,4.91,0.51
			c0.68,0.72,0.67,1.58,0.45,2.46c-1.12,4.42-2.39,8.81-3.41,13.26c-0.51,2.21-1.05,4.42-1.23,6.69c-0.06,0.8-0.01,1.6,0.09,2.39
			c0.02,0.19-0.01,0.44,0.23,0.5c0.2,0.05,0.28-0.18,0.39-0.31c0.78-0.99,1.27-2.15,1.84-3.26c2.64-5.13,4.91-10.44,7.26-15.7
			c2.49-5.56,4.99-11.11,7.34-16.74c0.71-1.71,1.1-3.52,1.54-5.31c0.19-0.78,0.6-1.29,1.36-1.54c2.59-0.84,5.23-0.98,7.91-0.59
			c0.36,0.05,0.72,0.21,1.05,0.39c0.92,0.5,1.12,1.03,0.81,2.02c-0.68,2.11-1.44,4.2-1.83,6.4c-0.36,2.01-0.21,4.02-0.01,6.04
			c0.27,2.78,1.42,5.21,2.77,7.73c0.87-1.46,1.69-2.82,2.49-4.2c2.69-4.65,5.31-9.33,7.55-14.23c0.91-2,1.33-4.14,1.82-6.24
			c0.45-1.97,1.54-2.87,3.44-3.12c1.93-0.26,3.86-0.52,5.81-0.22c0.52,0.08,1.03,0.23,1.49,0.48c0.9,0.5,1.11,1.06,0.79,2.04
			c-0.71,2.21-1.57,4.38-1.86,6.7c-0.5,3.92-0.06,7.72,1.68,11.31c0.63,1.3,1.32,2.58,1.95,3.88c0.2,0.4,0.36,0.55,0.84,0.32
			c5.33-2.53,10.97-3.68,16.85-3.53c5.7,0.15,11.08,1.5,15.78,4.89c4.07,2.92,6.84,6.74,7.86,11.72c1.24,6.08-1.7,11.69-7.4,14.09
			c-0.51,0.22-1.04,0.34-1.6,0.33c-0.35-0.01-0.66-0.07-0.79-0.43c-0.14-0.38-0.01-0.69,0.31-0.92c0.59-0.42,1.2-0.81,1.79-1.24
			c1.99-1.47,3.48-3.31,4.01-5.78c0.59-2.72-0.15-5.21-1.53-7.52c-2.16-3.62-5.46-5.82-9.35-7.24c-3.15-1.14-6.41-1.64-9.74-1.85
			c-4.59-0.29-9.07,0.19-13.43,1.69c-1.37,0.47-1.35,0.48-0.92,1.83c0.68,2.13,1.2,4.28,1.01,6.54c-0.25,2.85-1.65,5.16-3.58,7.16
			c-3.33,3.47-7.45,5.6-12.08,6.71c-2.96,0.71-5.37-1.23-5.41-4.28c-0.04-3.01,1.02-5.72,2.53-8.27c1.99-3.34,4.56-6.19,7.53-8.68
			c0.31-0.26,0.45-0.45,0.23-0.85c-2.38-4.28-3.79-8.89-4.66-13.68c0-0.02-0.03-0.03-0.09-0.08c-0.24,0.15-0.3,0.43-0.41,0.65
			c-2.95,5.83-6.2,11.47-9.92,16.84c-0.33,0.47-0.36,0.84-0.15,1.37c0.99,2.41,1.74,4.88,1.78,7.53c0.07,4.27-1.53,7.78-4.87,10.39
			c-4.2,3.28-9,4.99-14.37,5.01c-0.52,0-1.05-0.07-1.56-0.18c-2.44-0.54-3.28-2.78-1.83-5c1.34-2.06,2.98-3.89,4.55-5.76
			c2.62-3.14,5.33-6.22,7.69-9.58c0.29-0.42,0.31-0.7,0.08-1.13c-2.14-4.08-3.92-8.31-4.78-12.87c-0.06-0.34-0.14-0.68-0.21-1.03
			c-0.06-0.31-0.13-0.61-0.22-1.07c-0.82,1.98-1.58,3.82-2.34,5.66c-3.74,9.06-8.15,17.8-12.93,26.35
			c-1.08,1.93-2.32,3.73-3.92,5.27c-0.53,0.5-1.1,0.95-1.73,1.31c-2,1.14-4.24,0.6-5.52-1.32c-0.9-1.35-1.2-2.89-1.39-4.46
			c-0.26-2.22-0.14-4.44,0.12-6.65c0.03-0.26,0-0.52,0-1.01c-0.76,1.75-1.4,3.31-2.1,4.84c-1.3,2.86-2.57,5.75-4.32,8.38
			c-0.98,1.47-2.18,2.75-3.99,3.08c-3.53,0.64-5.39-0.27-7.12-2.83c-2.09-3.11-3.2-6.59-3.75-10.25
			c-0.84-5.63,0.16-11.08,1.73-16.47c0.06-0.22,0.14-0.43,0.2-0.64c0.01-0.04-0.02-0.09-0.05-0.22c-0.99,0.55-1.98,1.06-2.94,1.62
			c-2.17,1.24-4.32,2.52-6.49,3.75c-0.41,0.23-0.49,0.42-0.29,0.87c1.83,4.01,2.26,8.24,2.01,12.58c-0.26,4.5-1.29,8.81-3.5,12.74
			c-4.7,8.34-11.74,13.51-21.24,15.19c-0.61,0.11-1.24,0.15-1.86,0.22c-1.2,0-2.4,0.01-3.6,0.01c-0.91-0.12-1.84-0.2-2.74-0.36
			c-1.55-0.29-3.09-0.6-4.33-1.7c-2.88-2.54-4.17-5.83-4.3-9.55c-0.19-5.51,1.79-10.24,5.48-14.3c2.66-2.92,5.72-5.36,8.94-7.61
			c4.37-3.05,8.97-5.7,13.73-8.1c1.37-0.69,1.34-0.71,0.17-1.65c-4.03-3.21-8.38-5.97-12.57-8.96c-5.17-3.69-10.23-7.52-14.46-12.31
			c-2.53-2.87-4.65-5.99-6.02-9.59c-0.51-1.33-0.77-2.72-1.16-4.08c0-1.05,0-2.1,0-3.15c0.04-0.09,0.11-0.17,0.12-0.26
			c0.23-2.12,0.81-4.16,1.59-6.14c2.27-5.79,5.88-10.7,10.09-15.19c4.66-4.96,9.95-9.16,15.62-12.9
			c8.25-5.43,17.06-9.75,26.25-13.34c7.29-2.85,14.77-4.87,22.6-5.48c0.62-0.05,1.29,0.07,1.88-0.25
			C140.41,82.55,142.66,82.55,144.91,82.55z M99.58,178.88c-0.13,0.06-0.22,0.09-0.31,0.14c-4.43,2.58-8.75,5.32-12.75,8.53
			c-2.64,2.12-5.2,4.31-6.99,7.24c-1.61,2.65-2.74,5.44-2.58,8.61c0.12,2.47,1.51,3.86,3.97,3.98c3.02,0.14,5.75-0.83,8.2-2.43
			c8.07-5.27,12.16-12.6,11.22-22.41C100.22,181.31,100,180.08,99.58,178.88z M122.11,182.74c0,0.15,0,0.3,0,0.45
			c0.07,1.97,0.18,3.95,1,5.79c0.67,1.5,1.5,1.6,2.54,0.33c0.7-0.85,1.25-1.81,1.7-2.81c3.02-6.64,5.62-13.44,7.82-20.39
			c0.68-2.14,1.32-4.29,1.55-6.54c0.12-1.2-0.32-1.69-1.53-1.58c-1.24,0.11-2.25,0.78-3.22,1.49c-2.18,1.61-3.59,3.85-4.94,6.14
			C123.91,170.9,122.12,176.56,122.11,182.74z M194.57,174.9c0.07-0.73-0.13-1.55-0.31-2.38c-0.12-0.55-0.26-0.64-0.73-0.21
			c-2.98,2.74-5.02,6.07-6.23,9.91c-0.16,0.5-0.29,1.02-0.31,1.53c-0.02,0.33-0.06,0.93,0.62,0.68
			C191.72,182.88,194.5,179.84,194.57,174.9z M170.25,180.04c-0.22-0.01-0.27,0.12-0.34,0.21c-2.38,3.24-5.07,6.23-7.78,9.2
			c-0.27,0.29-0.9,0.61-0.64,0.97c0.3,0.42,0.86-0.01,1.29-0.16c0.09-0.03,0.18-0.08,0.27-0.13c2.21-1.32,4.19-2.9,5.64-5.06
			C169.71,183.55,170.32,181.9,170.25,180.04z M134.67,184.42c-0.01-0.02-0.02-0.04-0.03-0.06c-0.01,0.02-0.04,0.04-0.04,0.05
			c0.01,0.03,0.03,0.05,0.05,0.07C134.66,184.46,134.66,184.44,134.67,184.42z"/>
		<path class="st24" d="M134.67,184.42c-0.01,0.02-0.01,0.04-0.02,0.06c-0.02-0.02-0.04-0.05-0.05-0.07c0-0.01,0.02-0.03,0.04-0.05
			C134.65,184.38,134.66,184.4,134.67,184.42z"/>
	</g>
</g>
<g id="Guides">
</g>
<g id="Layer_5" class="st155">
	<rect x="59.79" y="59.6" class="st156" width="180.21" height="180.21"/>
</g>
</svg>
