<svg xmlns="http://www.w3.org/2000/svg" viewBox="0 0 300 300"><defs><style>.cls-1{fill:#ef7729;}.cls-2{fill:#fff;}.cls-3{fill:#433527;}</style></defs><g id="Fondos"><rect class="cls-1" width="300" height="300"/></g><g id="Texto"><path class="cls-2" d="M223.13,181.78h-.94a69.15,69.15,0,0,1-24-5.13c-4.73-1.91-9.34-4.09-13.79-6.21-6.73-3.2-13.08-6.21-19.79-8.3l-.44-.15a33.85,33.85,0,0,0-10.11-2.15l-2.57,0c-2.23,0-4.34-.08-6.33.05a35.68,35.68,0,0,0-9.4,2.13l-.46.17c-6.69,2.08-13,5.09-19.75,8.28-4.66,2.21-9.47,4.5-14.45,6.47C89,181.62,76.83,182.94,66,180.73c-7.94-1.61-14.51-5.12-19-10.16l-.53.37.34-.58-.23-.27A27.91,27.91,0,0,1,40,151.37c-.23-7.15,1.79-13.62,5.7-18.22a21.51,21.51,0,0,1,18.05-7.38,17.29,17.29,0,0,1,12.75,6.46,13.69,13.69,0,0,1,2.6,9.82c1.11-1,2.23-2.05,3.38-3.12a115.39,115.39,0,0,1,15.11-12.52c8-5.33,16.61-8.17,25-8.17h.11c9.35,0,18,2.89,24.48,8.23a34,34,0,0,1,2.83,2.59,35,35,0,0,1,12.67-8.31,41.51,41.51,0,0,1,28.91.14c6.61,2.42,13,6.48,20.15,12.77,1.84,1.62,3.6,3.29,5.31,4.91,1.29,1.22,2.54,2.4,3.79,3.54,0-.21,0-.42,0-.64-.6-6.06,3.2-11.91,9.37-14.34a21.65,21.65,0,0,1,25,7.23c4,5.39,5.46,12.51,4.47,21.69l0,.2a27.12,27.12,0,0,1-7.15,14.92l0,.06-.05,0a25.92,25.92,0,0,1-4,3.48C241.88,179.38,233.34,181.78,223.13,181.78Zm14.66-37.51Zm-175.58,0Z"/><path class="cls-3" d="M122.75,125c7.18,0,14.54,2,20.12,6.66A34,34,0,0,1,150,140c3.53-5.7,8.68-10.55,15-12.88a35.06,35.06,0,0,1,24.23.14c6.75,2.46,12.66,6.76,18,11.49,4.19,3.7,8.07,7.74,12.39,11.3a24.75,24.75,0,0,0,7.51,4.53A10.48,10.48,0,0,0,238,151.76a7.12,7.12,0,0,0-.4-9.76,4,4,0,0,0-5.9.8c-1.06,1.57-.47,3.53.37,5-2.22-1.62-4.44-3.88-4.44-6.83-.46-3.41,2.07-6.41,5.1-7.6a14.78,14.78,0,0,1,17,4.87c3.59,4.86,3.87,11.24,3.25,17a20.38,20.38,0,0,1-8.39,13.8c-6.39,4.56-14.5,6-22.21,5.88a62.57,62.57,0,0,1-21.63-4.65c-11.48-4.61-22.24-11-34.1-14.69a40.94,40.94,0,0,0-12.33-2.6c-3.35,0-6.52-.18-9.69,0a41.78,41.78,0,0,0-11.3,2.58c-12.07,3.75-23,10.29-34.69,14.92-9.88,3.85-20.84,5.63-31.33,3.5-5.87-1.19-11.71-3.78-15.67-8.41a21.06,21.06,0,0,1-4.86-14.34c-.18-4.87.88-10,4.1-13.82a14.69,14.69,0,0,1,12.44-5,10.51,10.51,0,0,1,7.84,3.84,7.68,7.68,0,0,1,.9,6.72,10.74,10.74,0,0,1-4.1,4.75c.88-1.49,1.42-3.46.38-5a4,4,0,0,0-6.13-.58,7.19,7.19,0,0,0-1.12,8.19A9.83,9.83,0,0,0,68.71,155c4.54.4,8.49-2.42,11.82-5.15,6.91-6,13.13-12.75,20.79-17.78,6.31-4.24,13.75-7.1,21.43-7.06Z"/></g></svg>