<?xml version="1.0" encoding="utf-8"?>
<!-- Generator: Adobe Illustrator 25.4.1, SVG Export Plug-In . SVG Version: 6.00 Build 0)  -->
<svg version="1.1" xmlns="http://www.w3.org/2000/svg" xmlns:xlink="http://www.w3.org/1999/xlink" x="0px" y="0px"
	 viewBox="0 0 300 300" style="enable-background:new 0 0 300 300;" xml:space="preserve">
<style type="text/css">
	.st0{fill:#4674B9;}
	.st1{fill:#2C2C32;}
	.st2{fill:#010101;}
	.st3{fill:#F6DF19;}
	.st4{fill:#2363AF;}
	.st5{fill:#F0672B;}
	.st6{fill:#101215;}
	.st7{fill:#492D8C;}
	.st8{fill:#F36C3D;}
	.st9{fill:#7756A3;}
	.st10{fill:#679E63;}
	.st11{fill:#484848;}
	.st12{fill:#1B1F23;}
	.st13{fill:#EF7729;}
	.st14{fill:#4791CE;}
	.st15{fill:#F6F6F6;}
	.st16{fill:#4A4A4D;}
	.st17{fill:#C54027;}
	.st18{fill:#3978BD;}
	.st19{fill:#CC6899;}
	.st20{fill:#12364F;}
	.st21{fill:#316A9A;}
	.st22{fill:#FFD53E;}
	.st23{fill:#693994;}
	.st24{fill:#FFFFFF;}
	.st25{fill-rule:evenodd;clip-rule:evenodd;fill:#FFFFFF;}
	.st26{fill-rule:evenodd;clip-rule:evenodd;fill:url(#XMLID_00000145048625826840102230000017536760242797052595_);}
	.st27{clip-path:url(#XMLID_00000086664406384231059560000006433099566243865535_);}
	.st28{fill:none;}
	.st29{opacity:0.66;fill:#4B4B4B;}
	.st30{fill:url(#SVGID_1_);}
	.st31{opacity:0.05;fill:#010101;enable-background:new    ;}
	.st32{fill:#17AA4F;}
	.st33{fill:#B8C4C2;}
	.st34{fill:#14924F;}
	.st35{fill:#22323D;}
	.st36{fill:#F26424;}
	.st37{fill:#4E4E4E;}
	.st38{fill:#3B2F14;}
	.st39{fill:#F58772;}
	.st40{fill:#F05233;}
	.st41{fill:#433527;}
	.st42{fill:#DD1E34;}
	.st43{fill:#C32033;}
	.st44{fill:#F9F9FA;}
	.st45{fill:#7253A2;}
	.st46{fill:#4674B9;stroke:#FFFFFF;stroke-width:8;stroke-miterlimit:10;}
	.st47{fill:#EF4623;}
	.st48{fill:#4EB987;}
	.st49{fill:#455567;}
	.st50{fill:#F1F2F2;}
	.st51{fill:#70CEEF;}
	.st52{fill:#70CFF0;}
	.st53{opacity:0.7;fill:#2C384A;enable-background:new    ;}
	.st54{fill:url(#path-2_00000079464021864118089240000002924247618686793124_);}
	.st55{filter:url(#Adobe_OpacityMaskFilter);}
	.st56{mask:url(#mask-3_3_);}
	.st57{fill:#F9A01B;}
	.st58{fill:#F47D20;}
	.st59{fill:#FFCB2A;}
	.st60{fill:#FFFFFF;fill-opacity:0.2;}
	.st61{opacity:0.2;fill:#A52A22;enable-background:new    ;}
	.st62{filter:url(#Adobe_OpacityMaskFilter_00000141443827741493141800000014449627169302153858_);}
	.st63{mask:url(#mask-3_2_);fill:none;}
	.st64{filter:url(#Adobe_OpacityMaskFilter_00000109726346598336337350000007191163520523511230_);}
	.st65{mask:url(#mask-3_1_);fill:url(#_Path_5_00000047741849200317802700000014060985702250778531_);}
	.st66{fill:#5BADE0;}
	.st67{fill:#4699D4;}
	.st68{fill:#318ECD;}
	.st69{fill:#3390CE;}
	.st70{fill:#1773B0;}
	.st71{fill:#489BD5;}
	.st72{fill:#2884C6;}
	.st73{fill:#2682C5;}
	.st74{fill:#2480C4;}
	.st75{fill:#237EC2;}
	.st76{fill:#4497D2;}
	.st77{fill:#1571AF;}
	.st78{fill:#237DC1;}
	.st79{fill:#1B72AD;}
	.st80{fill:#1B6CA3;}
	.st81{fill:#196FA9;}
	.st82{fill:#1D77BD;}
	.st83{fill:#207ABF;}
	.st84{fill:#2D7FB8;}
	.st85{fill:#3383BA;}
	.st86{fill:#287EB6;}
	.st87{fill:#63B0E1;}
	.st88{fill:#3887BC;}
	.st89{fill:#3B89BD;}
	.st90{fill:#3792D0;}
	.st91{fill:#2A78AC;}
	.st92{fill:#2973A8;}
	.st93{fill:#2A7CB3;}
	.st94{fill:#3F88BA;}
	.st95{fill:#59ABDF;}
	.st96{fill:#3A7FAF;}
	.st97{fill:#317BAC;}
	.st98{fill:#367DAE;}
	.st99{fill:#2C8BCB;}
	.st100{fill:#2E8DCC;}
	.st101{fill:#1A75B1;}
	.st102{fill:#1F77B2;}
	.st103{fill:#1D74AF;}
	.st104{fill:#1D72AA;}
	.st105{fill:#206FA5;}
	.st106{fill:#499FD8;}
	.st107{fill:#489CD6;}
	.st108{fill:#4DA1D9;}
	.st109{fill:#51A6DC;}
	.st110{fill:#4FA4DB;}
	.st111{fill:#0F72B7;}
	.st112{fill:#0770B7;}
	.st113{fill:#56A8DD;}
	.st114{fill:#2A88C9;}
	.st115{fill:#227FC3;}
	.st116{fill:#1F7DC1;}
	.st117{fill:#1D7BC0;}
	.st118{fill:#1474BB;}
	.st119{fill:#1071B9;}
	.st120{fill:#1E79BF;}
	.st121{fill:#1875BC;}
	.st122{fill:#3381B5;}
	.st123{fill:#2F7FB4;}
	.st124{fill:#3883B6;}
	.st125{fill:#267BB5;}
	.st126{fill:#297AB2;}
	.st127{fill:#3E86B6;}
	.st128{fill:#3C81B1;}
	.st129{fill:#3B87B9;}
	.st130{fill:#3A85B8;}
	.st131{fill:#2378B1;}
	.st132{fill:#2675AC;}
	.st133{fill:#2572A6;}
	.st134{fill:#0D74B8;}
	.st135{fill:#3882B4;}
	.st136{fill:#367FB2;}
	.st137{fill:#307CAF;}
	.st138{fill:#337EB0;}
	.st139{fill:#2271A5;}
	.st140{fill:#0E75BB;}
	.st141{fill:#0D73BB;}
	.st142{fill:#0B74BC;}
	.st143{fill:#1578BC;}
	.st144{fill:#1C7CC1;}
	.st145{fill:#2575AB;}
	.st146{fill:#1B7BC0;}
	.st147{fill:#1876BD;}
	.st148{fill:#1978BE;}
	.st149{fill:#3C84B4;}
	.st150{fill-rule:evenodd;clip-rule:evenodd;fill:#687E91;}
	.st151{fill:#037690;}
	.st152{fill:#F29220;}
	.st153{fill-rule:evenodd;clip-rule:evenodd;fill:#F29220;}
	.st154{fill-rule:evenodd;clip-rule:evenodd;fill:#037690;}
	.st155{display:none;}
	.st156{display:inline;fill-rule:evenodd;clip-rule:evenodd;fill:#2BB673;}
	.st157{display:inline;opacity:0.15;fill-rule:evenodd;clip-rule:evenodd;fill:#2BB673;}
</style>
<g id="Fondos_1_">
	<rect class="st13" width="300" height="300"/>
</g>
<g id="Texto">
	<g>
		<g>
			<path class="st24" d="M223.13,181.78c-0.28,0-0.56,0-0.84-0.01l-0.1,0c-7.99-0.22-16.06-1.94-23.97-5.13
				c-4.74-1.9-9.34-4.09-13.8-6.21c-6.73-3.2-13.08-6.21-19.79-8.3l-0.44-0.15c-3.07-1.19-6.47-1.92-10.12-2.15
				c-0.87-0.01-1.72-0.02-2.57-0.04c-2.23-0.04-4.34-0.08-6.33,0.05c-3.5,0.34-6.66,1.06-9.39,2.13l-0.46,0.16
				c-6.69,2.08-13.04,5.1-19.75,8.29c-4.66,2.21-9.48,4.5-14.45,6.47c-12.15,4.73-24.3,6.05-35.16,3.84
				c-7.94-1.61-14.51-5.12-19.04-10.16l-0.53,0.37l0.35-0.58c-0.08-0.09-0.15-0.17-0.23-0.26c-4.28-4.96-6.64-11.78-6.49-18.72
				c-0.23-7.15,1.79-13.62,5.71-18.23c4.25-5.1,11.17-7.93,18.05-7.38c5.09,0.28,9.85,2.69,12.75,6.47c2.08,2.73,2.98,6.19,2.6,9.82
				c1.11-1.01,2.23-2.05,3.38-3.12c4.65-4.33,9.45-8.8,15.1-12.51c7.96-5.34,16.62-8.17,25-8.17c0.04,0,0.08,0,0.11,0v0
				c9.35-0.01,18.04,2.88,24.47,8.23c0.97,0.79,1.91,1.65,2.83,2.59c3.72-3.75,8.05-6.61,12.68-8.31c9.09-3.41,19.37-3.37,28.9,0.15
				c6.61,2.41,13.02,6.47,20.15,12.76c1.84,1.62,3.6,3.29,5.31,4.91c1.29,1.22,2.54,2.4,3.79,3.54c-0.02-0.21-0.03-0.43-0.04-0.64
				c-0.59-6.06,3.21-11.91,9.38-14.34c8.78-3.51,19.55-0.41,25.02,7.23c3.98,5.39,5.47,12.51,4.48,21.69l-0.02,0.2
				c-0.78,5.65-3.31,10.87-7.15,14.93l0.03,0.06l-0.05-0.04c-1.22,1.29-2.57,2.46-4.04,3.48
				C241.88,179.38,233.34,181.78,223.13,181.78z M237.79,144.27L237.79,144.27L237.79,144.27z M62.21,144.23L62.21,144.23
				L62.21,144.23z"/>
		</g>
		<path class="st41" d="M122.75,125c7.18-0.03,14.54,2.03,20.12,6.67c2.86,2.31,5.17,5.22,7.13,8.31
			c3.53-5.7,8.68-10.55,15.04-12.89c7.75-2.91,16.5-2.71,24.23,0.14c6.75,2.47,12.66,6.76,18.01,11.49
			c4.19,3.7,8.07,7.75,12.38,11.31c2.27,1.84,4.72,3.57,7.51,4.53c3.72,1.27,8.11,0.07,10.77-2.79c2.46-2.68,2.31-7.31-0.4-9.76
			c-1.72-1.49-4.67-1.19-5.89,0.79c-1.07,1.57-0.47,3.53,0.37,5.06c-2.22-1.62-4.44-3.88-4.44-6.83c-0.46-3.41,2.07-6.41,5.1-7.61
			c5.91-2.36,13.32-0.33,17.05,4.88c3.59,4.86,3.87,11.24,3.25,17.02c-0.75,5.49-3.83,10.62-8.38,13.8
			c-6.4,4.57-14.5,5.98-22.22,5.88c-7.41-0.2-14.75-1.88-21.62-4.65c-11.49-4.62-22.24-11-34.1-14.69
			c-3.94-1.53-8.12-2.35-12.33-2.61c-3.35-0.02-6.53-0.18-9.69,0.04c-3.86,0.37-7.7,1.16-11.31,2.58
			c-12.06,3.75-22.98,10.3-34.68,14.92c-9.88,3.85-20.84,5.63-31.33,3.5c-5.87-1.19-11.71-3.78-15.67-8.41
			c-3.39-3.93-5.02-9.19-4.86-14.35c-0.19-4.86,0.88-10.03,4.1-13.82c2.99-3.59,7.81-5.41,12.44-5.01c2.98,0.14,6,1.44,7.84,3.84
			c1.45,1.9,1.54,4.5,0.9,6.72c-0.77,2-2.37,3.56-4.1,4.75c0.88-1.49,1.42-3.46,0.38-5.02c-1.29-2.08-4.45-2.29-6.13-0.58
			c-2.06,2.12-2.5,5.59-1.11,8.19c1.5,2.72,4.61,4.28,7.61,4.6c4.55,0.39,8.49-2.43,11.83-5.16c6.91-5.95,13.12-12.75,20.78-17.78
			C107.63,127.82,115.07,124.96,122.75,125L122.75,125z"/>
	</g>
</g>
<g id="Guides">
</g>
<g id="Layer_5" class="st155">
	<rect x="59.79" y="59.6" class="st156" width="180.21" height="180.21"/>
</g>
</svg>
