<?xml version="1.0" encoding="utf-8"?>
<!-- Generator: Adobe Illustrator 25.4.1, SVG Export Plug-In . SVG Version: 6.00 Build 0)  -->
<svg version="1.1" xmlns="http://www.w3.org/2000/svg" xmlns:xlink="http://www.w3.org/1999/xlink" x="0px" y="0px"
	 viewBox="0 0 300 300" style="enable-background:new 0 0 300 300;" xml:space="preserve">
<style type="text/css">
	.st0{fill:#4674B9;}
	.st1{fill:#2C2C32;}
	.st2{fill:#010101;}
	.st3{fill:#F6DF19;}
	.st4{fill:#2363AF;}
	.st5{fill:#F0672B;}
	.st6{fill:#101215;}
	.st7{fill:#492D8C;}
	.st8{fill:#F36C3D;}
	.st9{fill:#7756A3;}
	.st10{fill:#679E63;}
	.st11{fill:#484848;}
	.st12{fill:#1B1F23;}
	.st13{fill:#EF7729;}
	.st14{fill:#4791CE;}
	.st15{fill:#F6F6F6;}
	.st16{fill:#4A4A4D;}
	.st17{fill:#C54027;}
	.st18{fill:#3978BD;}
	.st19{fill:#CC6899;}
	.st20{fill:#12364F;}
	.st21{fill:#316A9A;}
	.st22{fill:#FFD53E;}
	.st23{fill:#693994;}
	.st24{fill:#FFFFFF;}
	.st25{fill-rule:evenodd;clip-rule:evenodd;fill:#FFFFFF;}
	.st26{fill-rule:evenodd;clip-rule:evenodd;fill:url(#XMLID_00000181778077236674306670000002415940875909173889_);}
	.st27{clip-path:url(#XMLID_00000099656604580203769430000016713904510903834009_);}
	.st28{fill:none;}
	.st29{opacity:0.66;fill:#4B4B4B;}
	.st30{fill:url(#SVGID_1_);}
	.st31{opacity:0.05;fill:#010101;enable-background:new    ;}
	.st32{fill:#17AA4F;}
	.st33{fill:#B8C4C2;}
	.st34{fill:#14924F;}
	.st35{fill:#22323D;}
	.st36{fill:#F26424;}
	.st37{fill:#4E4E4E;}
	.st38{fill:#3B2F14;}
	.st39{fill:#F58772;}
	.st40{fill:#F05233;}
	.st41{fill:#433527;}
	.st42{fill:#DD1E34;}
	.st43{fill:#C32033;}
	.st44{fill:#F9F9FA;}
	.st45{fill:#7253A2;}
	.st46{fill:#4674B9;stroke:#FFFFFF;stroke-width:8;stroke-miterlimit:10;}
	.st47{fill:#EF4623;}
	.st48{fill:#4EB987;}
	.st49{fill:#455567;}
	.st50{fill:#F1F2F2;}
	.st51{fill:#70CEEF;}
	.st52{fill:#70CFF0;}
	.st53{opacity:0.7;fill:#2C384A;enable-background:new    ;}
	.st54{fill:url(#path-2_00000178884603025058112970000007126948060370689716_);}
	.st55{filter:url(#Adobe_OpacityMaskFilter);}
	.st56{mask:url(#mask-3_3_);}
	.st57{fill:#F9A01B;}
	.st58{fill:#F47D20;}
	.st59{fill:#FFCB2A;}
	.st60{fill:#FFFFFF;fill-opacity:0.2;}
	.st61{opacity:0.2;fill:#A52A22;enable-background:new    ;}
	.st62{filter:url(#Adobe_OpacityMaskFilter_00000078726726250973997650000017240632505418913163_);}
	.st63{mask:url(#mask-3_2_);fill:none;}
	.st64{filter:url(#Adobe_OpacityMaskFilter_00000124858169177278042340000010092416484153640869_);}
	.st65{mask:url(#mask-3_1_);fill:url(#_Path_5_00000003083502824348939650000010376955751894994359_);}
	.st66{fill:#5BADE0;}
	.st67{fill:#4699D4;}
	.st68{fill:#318ECD;}
	.st69{fill:#3390CE;}
	.st70{fill:#1773B0;}
	.st71{fill:#489BD5;}
	.st72{fill:#2884C6;}
	.st73{fill:#2682C5;}
	.st74{fill:#2480C4;}
	.st75{fill:#237EC2;}
	.st76{fill:#4497D2;}
	.st77{fill:#1571AF;}
	.st78{fill:#237DC1;}
	.st79{fill:#1B72AD;}
	.st80{fill:#1B6CA3;}
	.st81{fill:#196FA9;}
	.st82{fill:#1D77BD;}
	.st83{fill:#207ABF;}
	.st84{fill:#2D7FB8;}
	.st85{fill:#3383BA;}
	.st86{fill:#287EB6;}
	.st87{fill:#63B0E1;}
	.st88{fill:#3887BC;}
	.st89{fill:#3B89BD;}
	.st90{fill:#3792D0;}
	.st91{fill:#2A78AC;}
	.st92{fill:#2973A8;}
	.st93{fill:#2A7CB3;}
	.st94{fill:#3F88BA;}
	.st95{fill:#59ABDF;}
	.st96{fill:#3A7FAF;}
	.st97{fill:#317BAC;}
	.st98{fill:#367DAE;}
	.st99{fill:#2C8BCB;}
	.st100{fill:#2E8DCC;}
	.st101{fill:#1A75B1;}
	.st102{fill:#1F77B2;}
	.st103{fill:#1D74AF;}
	.st104{fill:#1D72AA;}
	.st105{fill:#206FA5;}
	.st106{fill:#499FD8;}
	.st107{fill:#489CD6;}
	.st108{fill:#4DA1D9;}
	.st109{fill:#51A6DC;}
	.st110{fill:#4FA4DB;}
	.st111{fill:#0F72B7;}
	.st112{fill:#0770B7;}
	.st113{fill:#56A8DD;}
	.st114{fill:#2A88C9;}
	.st115{fill:#227FC3;}
	.st116{fill:#1F7DC1;}
	.st117{fill:#1D7BC0;}
	.st118{fill:#1474BB;}
	.st119{fill:#1071B9;}
	.st120{fill:#1E79BF;}
	.st121{fill:#1875BC;}
	.st122{fill:#3381B5;}
	.st123{fill:#2F7FB4;}
	.st124{fill:#3883B6;}
	.st125{fill:#267BB5;}
	.st126{fill:#297AB2;}
	.st127{fill:#3E86B6;}
	.st128{fill:#3C81B1;}
	.st129{fill:#3B87B9;}
	.st130{fill:#3A85B8;}
	.st131{fill:#2378B1;}
	.st132{fill:#2675AC;}
	.st133{fill:#2572A6;}
	.st134{fill:#0D74B8;}
	.st135{fill:#3882B4;}
	.st136{fill:#367FB2;}
	.st137{fill:#307CAF;}
	.st138{fill:#337EB0;}
	.st139{fill:#2271A5;}
	.st140{fill:#0E75BB;}
	.st141{fill:#0D73BB;}
	.st142{fill:#0B74BC;}
	.st143{fill:#1578BC;}
	.st144{fill:#1C7CC1;}
	.st145{fill:#2575AB;}
	.st146{fill:#1B7BC0;}
	.st147{fill:#1876BD;}
	.st148{fill:#1978BE;}
	.st149{fill:#3C84B4;}
	.st150{fill-rule:evenodd;clip-rule:evenodd;fill:#687E91;}
	.st151{fill:#037690;}
	.st152{fill:#F29220;}
	.st153{fill-rule:evenodd;clip-rule:evenodd;fill:#F29220;}
	.st154{fill-rule:evenodd;clip-rule:evenodd;fill:#037690;}
	.st155{display:none;}
	.st156{display:inline;fill-rule:evenodd;clip-rule:evenodd;fill:#2BB673;}
	.st157{display:inline;opacity:0.15;fill-rule:evenodd;clip-rule:evenodd;fill:#2BB673;}
</style>
<g id="Fondos_1_">
</g>
<g id="Texto">
	<g>
		<path class="st38" d="M212.24,100c0.09,0.06,0.17,0.17,0.27,0.19c3.35,0.72,5.07,2.46,5.62,5.8c0.25,1.51,0.18,3.02-0.24,4.5
			c-0.96,3.36-4.1,5.33-8.01,5.04c-6.25-0.45-9.53-6.56-6.5-12.11c0.96-1.76,2.49-2.74,4.4-3.19c0.22-0.05,0.49,0.05,0.62-0.23
			C209.68,100,210.96,100,212.24,100z"/>
		<path class="st39" d="M84.33,100.2c0.02-0.07,0.03-0.13,0.05-0.2c0.72,0,1.44,0,2.16,0c0.02,0.07,0.04,0.13,0.05,0.2
			C85.84,100.2,85.08,100.2,84.33,100.2z"/>
		<g>
			<path class="st40" d="M86.59,100.2c1.25,0.14,2.25,0.77,3.12,1.63c13.22,13.21,26.45,26.42,39.65,39.65
				c2.44,2.45,2.39,6.03-0.04,8.46c-13.13,13.14-26.27,26.26-39.39,39.4c-0.84,0.85-1.89,1.28-2.91,1.79c-0.96,0-1.92,0-2.88,0
				c-1.4-0.22-2.48-0.98-3.45-1.96c-12.9-12.91-25.81-25.81-38.72-38.71c-0.98-0.98-1.74-2.06-1.96-3.45c0-0.96,0-1.92,0-2.88
				c0.22-1.44,0.99-2.54,2.01-3.55c8.44-8.4,16.86-16.83,25.28-25.25c0.23-0.23,0.45-0.46,0.68-0.67c0.91-0.83,1.23-0.85,2.12,0.02
				c1.66,1.62,3.29,3.27,4.93,4.91c1.27,1.27,2.54,2.55,3.82,3.81c0.57,0.56,0.73,1.15,0.57,1.95c-0.68,3.34,0.29,5.69,3.07,7.51
				c0.67,0.44,1.02,0.96,1.02,1.76c0,7.63,0,15.27,0,22.9c0,0.97-0.53,1.49-1.28,2c-3.12,2.13-3.98,5.8-2.08,8.94
				c1.48,2.45,3.76,3.48,6.52,3.11c2.73-0.36,4.58-2.01,5.4-4.66c0.85-2.75-0.09-5.55-2.44-7.2c-0.88-0.62-1.25-1.31-1.25-2.39
				c0.03-7.23,0.01-14.47,0.03-21.7c0-0.57-0.22-1.34,0.46-1.6c0.6-0.23,0.99,0.4,1.37,0.78c2.47,2.45,4.91,4.93,7.39,7.36
				c0.73,0.72,0.93,1.42,0.69,2.46c-0.6,2.59,0.15,4.88,2.21,6.56c2.13,1.74,4.59,2.08,7.08,0.84c2.41-1.21,3.71-3.28,3.75-5.98
				c0.05-3.96-3.6-7.04-7.57-6.43c-1.05,0.16-1.82-0.08-2.57-0.84c-2.68-2.74-5.4-5.46-8.14-8.14c-0.76-0.75-0.99-1.51-0.84-2.57
				c0.66-4.51-3.09-8.13-7.63-7.4c-0.87,0.14-1.54-0.04-2.16-0.67c-2.9-2.92-5.83-5.82-8.72-8.74c-1.01-1.02-1-1.33,0.04-2.37
				c2.45-2.47,4.92-4.92,7.37-7.38c0.96-0.96,2.07-1.47,3.45-1.36C85.25,100.16,85.93,100.04,86.59,100.2z"/>
			<path class="st38" d="M258.3,164.51c-3.18,1.27-6.39,2.47-9.8,3c-3.35,0.52-6.69,0.56-10.01-0.16c-5.1-1.12-7.96-4.51-8.51-9.93
				c-0.36-3.59-0.16-7.19-0.19-10.78c-0.04-4.96-0.01-9.91-0.01-14.87c0-1.55,0-1.55-1.6-1.55c-1.48,0-2.96-0.03-4.44,0.01
				c-0.58,0.02-0.74-0.17-0.73-0.74c0.03-2.12,0.02-4.24,0.01-6.35c0-0.44,0.05-0.7,0.6-0.82c7.04-1.53,9.62-4.27,10.67-11.28
				c0.41-2.76,0.41-2.76,3.24-2.76c1.4,0,2.81,0.09,4.2-0.03c1.12-0.09,1.3,0.34,1.28,1.34c-0.06,3.56,0.01,7.11-0.04,10.67
				c-0.01,0.97,0.32,1.23,1.24,1.22c3.56-0.04,7.12,0.01,10.67-0.03c0.81-0.01,1.1,0.18,1.08,1.05c-0.06,2.28-0.06,4.56,0,6.83
				c0.02,0.76-0.22,0.92-0.94,0.91c-3.68-0.04-7.36,0-11.03-0.03c-0.75-0.01-1.03,0.14-1.02,0.97c0.04,6.87,0.01,13.75,0.03,20.62
				c0,0.79,0.1,1.6,0.24,2.38c0.47,2.46,1.91,3.68,4.47,3.87c2.55,0.18,5.01-0.26,7.41-1.08c0.64-0.22,0.88-0.15,1.09,0.54
				c0.65,2.19,1.39,4.36,2.09,6.54C258.3,164.19,258.3,164.35,258.3,164.51z"/>
			<path class="st38" d="M218.04,141.01c0,5.71,0,11.42,0,17.13c0,1.83,0.01,1.85,1.79,2.13c1.06,0.17,2.13,0.32,3.2,0.43
				c0.63,0.06,0.89,0.3,0.87,0.98c-0.05,1.76-0.04,3.51,0,5.27c0.01,0.63-0.2,0.82-0.83,0.82c-7.75-0.02-15.5-0.02-23.25,0
				c-0.67,0-0.79-0.25-0.78-0.84c0.03-1.76,0.05-3.52-0.01-5.27c-0.02-0.7,0.27-0.89,0.88-0.95c1.23-0.13,2.45-0.34,3.68-0.48
				c0.86-0.1,1.26-0.5,1.26-1.4c-0.01-8.67-0.01-17.33,0-26c0-0.87-0.36-1.41-1.21-1.69c-1.32-0.43-2.63-0.93-3.94-1.38
				c-0.42-0.14-0.69-0.3-0.61-0.83c0.29-1.89,0.57-3.79,0.8-5.68c0.08-0.65,0.33-0.83,0.98-0.83c5.39,0.03,10.79,0.04,16.18-0.01
				c0.92-0.01,1.01,0.35,1.01,1.12C218.02,129.35,218.04,135.18,218.04,141.01z"/>
			<path class="st38" d="M188,131.21c1.99-0.13,3.98-0.33,5.97-0.42c0.79-0.04,1.09-0.24,1.06-1.09c-0.08-1.79-0.07-3.6,0-5.39
				c0.03-0.83-0.19-1.07-1.04-1.06c-5,0.04-9.99,0.02-14.99,0.02c-0.44,0-0.88-0.01-1.31-0.1c-4.75-1.04-9.51-1.12-14.25-0.11
				c-5.96,1.27-10.48,4.38-12.51,10.41c-0.79,2.34-1,4.78-0.8,7.21c0.41,4.9,2.47,8.86,6.87,11.39c0.16,0.09,0.36,0.15,0.37,0.43
				c-0.07,0.06-0.17,0.13-0.25,0.21c-2.12,2-4.35,3.89-6.12,6.23c-2.44,3.24-1.55,7.81,1.91,9.42c0.13,0.06,0.24,0.18,0.37,0.28
				c-0.87,0.95-1.76,1.81-2.52,2.78c-3.85,4.86-2.42,11.36,3.09,14.18c1,0.51,2.04,0.9,3.11,1.22c3.9,1.17,7.92,1.43,11.96,1.52
				c5.13,0.11,10.23-0.23,15.09-2.04c6.01-2.24,10.1-6.16,10.38-12.93c0.26-6.23-1.86-9.99-8.02-11.77
				c-2.85-0.83-5.79-1.18-8.73-1.4c-5.13-0.38-10.27-0.7-15.61-1.06c0.84-1.34,1.63-2.54,2.33-3.78c0.34-0.6,0.67-0.67,1.33-0.54
				c4.16,0.82,8.33,0.82,12.48-0.16c10.9-2.57,15.32-13.19,9.41-22.62C187.17,131.39,187.32,131.26,188,131.21z M163.46,171.11
				c0.72,0.19,1.51,0.12,2.26,0.17c0-0.01,0-0.02,0-0.03c3.94,0.3,7.88,0.6,11.82,0.92c0.39,0.03,0.79,0.13,1.17,0.22
				c1.17,0.27,2.28,0.68,2.57,2.01c0.32,1.45-0.18,2.68-1.34,3.61c-1.39,1.12-3.07,1.51-4.78,1.71c-4.06,0.49-8.12,0.6-12.14-0.32
				c-0.62-0.14-1.23-0.36-1.79-0.64c-2.07-1.01-2.72-2.76-1.87-4.88c0.12-0.29,0.29-0.57,0.42-0.86
				C160.52,171.41,161.62,170.62,163.46,171.11z M178.16,141.74c-1.16,2.93-4.46,4.76-8.12,4.49c-0.71-0.05-1.43-0.12-2.13-0.27
				c-3.59-0.76-5.47-3.24-5.4-7.08c0.1-5.32,3.62-8.31,9.19-7.79C177.23,131.61,180.23,136.53,178.16,141.74z"/>
		</g>
	</g>
</g>
<g id="Guides">
</g>
<g id="Layer_5" class="st155">
	<rect x="59.79" y="59.6" class="st156" width="180.21" height="180.21"/>
</g>
</svg>
