<svg xmlns="http://www.w3.org/2000/svg" viewBox="0 0 300 300"><defs><style>.cls-1{fill:#492d8c;}.cls-2{fill:#fff;fill-rule:evenodd;}</style></defs><g id="Fondos"><rect class="cls-1" width="300" height="300"/></g><g id="Texto"><path class="cls-2" d="M159.48,213.71c4.35,0,8.89,2.77,8.89,9.4s-4.54,9.41-8.89,9.41-8.92-2.77-8.92-9.41S155.09,213.71,159.48,213.71Zm39.87.34v10.83c0,2.5.81,3.62,2.77,3.62s2.74-1.12,2.74-3.62V214.05h4.8V224.9c0,4.8-2.3,7.54-7.59,7.54s-7.62-2.74-7.62-7.54V214.05Zm-20.64,0v6.57l5-6.57h5.68l-6.1,7.15,6.64,11H184.4l-4.29-7.25-1.4,1.61v5.64h-4.89V214.05Zm-53.63,0v4.07h-8v2.94h5.73v3.82h-5.73v3.35h8.45v4H112.15V214.05Zm12.88,0c4.65,0,7.49,1.55,7.49,5.9,0,2.84-1.2,4.49-3.58,5.29l3.85,6.93h-5.19L137,225.88h-1.34v6.29h-4.8V214.05Zm-43,0v6.74h6v-6.74h4.89v18.12H101v-7.32h-6v7.32H90V214.05Zm64.55,3.7c-2.57,0-4,2-4,5.36s1.44,5.49,4,5.49,4-2.15,4-5.49S162,217.75,159.47,217.75Zm-21.69.27h-2.1v4.14h2.1c2,0,2.89-.57,2.89-2.08S139.79,218,137.78,218ZM197.7,67.48a12,12,0,0,1,12,12h0v109a12,12,0,0,1-12,12H102a12,12,0,0,1-12-12h0v-109a12,12,0,0,1,12-12H197.7Zm0,6.65H102a5.32,5.32,0,0,0-5.32,5.32h0v109a5.32,5.32,0,0,0,5.32,5.32H197.7a5.32,5.32,0,0,0,5.31-5.32h0v-109a5.32,5.32,0,0,0-5.31-5.32Zm-76.11,79.76,15,13.29-15,13.3Zm13.3-66.47v37.74c6.63-2.16,15.91-4.51,24.92-4.51,8.22,0,13.14,3.24,15.82,5.95a20.67,20.67,0,0,1,5.78,13.86v40H168.12v-39.7c-.07-3.1-1.56-6.83-8.31-6.83-13.51,0-28.68,6.8-28.83,6.86h0l-9.39,4.26V87.42Zm46.52,0a38.9,38.9,0,0,1-10,21.6H158.15a51.72,51.72,0,0,0,10-21.6h13.29Z"/></g></svg>