<?xml version="1.0" encoding="utf-8"?>
<!-- Generator: Adobe Illustrator 25.4.1, SVG Export Plug-In . SVG Version: 6.00 Build 0)  -->
<svg version="1.1" xmlns="http://www.w3.org/2000/svg" xmlns:xlink="http://www.w3.org/1999/xlink" x="0px" y="0px"
	 viewBox="0 0 300 300" style="enable-background:new 0 0 300 300;" xml:space="preserve">
<style type="text/css">
	.st0{fill:#4674B9;}
	.st1{fill:#2C2C32;}
	.st2{fill:#010101;}
	.st3{fill:#F6DF19;}
	.st4{fill:#2363AF;}
	.st5{fill:#F0672B;}
	.st6{fill:#101215;}
	.st7{fill:#492D8C;}
	.st8{fill:#F36C3D;}
	.st9{fill:#7756A3;}
	.st10{fill:#679E63;}
	.st11{fill:#484848;}
	.st12{fill:#1B1F23;}
	.st13{fill:#EF7729;}
	.st14{fill:#4791CE;}
	.st15{fill:#F6F6F6;}
	.st16{fill:#4A4A4D;}
	.st17{fill:#C54027;}
	.st18{fill:#3978BD;}
	.st19{fill:#CC6899;}
	.st20{fill:#12364F;}
	.st21{fill:#316A9A;}
	.st22{fill:#FFD53E;}
	.st23{fill:#693994;}
	.st24{fill:#FFFFFF;}
	.st25{fill-rule:evenodd;clip-rule:evenodd;fill:#FFFFFF;}
	.st26{fill-rule:evenodd;clip-rule:evenodd;fill:url(#XMLID_00000150816512596756442410000017634397714654971524_);}
	.st27{clip-path:url(#XMLID_00000017504655448274466860000001513482593822646170_);}
	.st28{fill:none;}
	.st29{opacity:0.66;fill:#4B4B4B;}
	.st30{fill:url(#SVGID_1_);}
	.st31{opacity:0.05;fill:#010101;enable-background:new    ;}
	.st32{fill:#17AA4F;}
	.st33{fill:#B8C4C2;}
	.st34{fill:#14924F;}
	.st35{fill:#22323D;}
	.st36{fill:#F26424;}
	.st37{fill:#4E4E4E;}
	.st38{fill:#3B2F14;}
	.st39{fill:#F58772;}
	.st40{fill:#F05233;}
	.st41{fill:#433527;}
	.st42{fill:#DD1E34;}
	.st43{fill:#C32033;}
	.st44{fill:#F9F9FA;}
	.st45{fill:#7253A2;}
	.st46{fill:#4674B9;stroke:#FFFFFF;stroke-width:8;stroke-miterlimit:10;}
	.st47{fill:#EF4623;}
	.st48{fill:#4EB987;}
	.st49{fill:#455567;}
	.st50{fill:#F1F2F2;}
	.st51{fill:#70CEEF;}
	.st52{fill:#70CFF0;}
	.st53{opacity:0.7;fill:#2C384A;enable-background:new    ;}
	.st54{fill:url(#path-2_00000133501110491959111770000012570551520759752342_);}
	.st55{filter:url(#Adobe_OpacityMaskFilter);}
	.st56{mask:url(#mask-3_3_);}
	.st57{fill:#F9A01B;}
	.st58{fill:#F47D20;}
	.st59{fill:#FFCB2A;}
	.st60{fill:#FFFFFF;fill-opacity:0.2;}
	.st61{opacity:0.2;fill:#A52A22;enable-background:new    ;}
	.st62{filter:url(#Adobe_OpacityMaskFilter_00000098905066441592664150000002464293090742046893_);}
	.st63{mask:url(#mask-3_2_);fill:none;}
	.st64{filter:url(#Adobe_OpacityMaskFilter_00000121268299631060416660000000996207111211916733_);}
	.st65{mask:url(#mask-3_1_);fill:url(#_Path_5_00000142159630616437872120000010575184262412879287_);}
	.st66{fill:#5BADE0;}
	.st67{fill:#4699D4;}
	.st68{fill:#318ECD;}
	.st69{fill:#3390CE;}
	.st70{fill:#1773B0;}
	.st71{fill:#489BD5;}
	.st72{fill:#2884C6;}
	.st73{fill:#2682C5;}
	.st74{fill:#2480C4;}
	.st75{fill:#237EC2;}
	.st76{fill:#4497D2;}
	.st77{fill:#1571AF;}
	.st78{fill:#237DC1;}
	.st79{fill:#1B72AD;}
	.st80{fill:#1B6CA3;}
	.st81{fill:#196FA9;}
	.st82{fill:#1D77BD;}
	.st83{fill:#207ABF;}
	.st84{fill:#2D7FB8;}
	.st85{fill:#3383BA;}
	.st86{fill:#287EB6;}
	.st87{fill:#63B0E1;}
	.st88{fill:#3887BC;}
	.st89{fill:#3B89BD;}
	.st90{fill:#3792D0;}
	.st91{fill:#2A78AC;}
	.st92{fill:#2973A8;}
	.st93{fill:#2A7CB3;}
	.st94{fill:#3F88BA;}
	.st95{fill:#59ABDF;}
	.st96{fill:#3A7FAF;}
	.st97{fill:#317BAC;}
	.st98{fill:#367DAE;}
	.st99{fill:#2C8BCB;}
	.st100{fill:#2E8DCC;}
	.st101{fill:#1A75B1;}
	.st102{fill:#1F77B2;}
	.st103{fill:#1D74AF;}
	.st104{fill:#1D72AA;}
	.st105{fill:#206FA5;}
	.st106{fill:#499FD8;}
	.st107{fill:#489CD6;}
	.st108{fill:#4DA1D9;}
	.st109{fill:#51A6DC;}
	.st110{fill:#4FA4DB;}
	.st111{fill:#0F72B7;}
	.st112{fill:#0770B7;}
	.st113{fill:#56A8DD;}
	.st114{fill:#2A88C9;}
	.st115{fill:#227FC3;}
	.st116{fill:#1F7DC1;}
	.st117{fill:#1D7BC0;}
	.st118{fill:#1474BB;}
	.st119{fill:#1071B9;}
	.st120{fill:#1E79BF;}
	.st121{fill:#1875BC;}
	.st122{fill:#3381B5;}
	.st123{fill:#2F7FB4;}
	.st124{fill:#3883B6;}
	.st125{fill:#267BB5;}
	.st126{fill:#297AB2;}
	.st127{fill:#3E86B6;}
	.st128{fill:#3C81B1;}
	.st129{fill:#3B87B9;}
	.st130{fill:#3A85B8;}
	.st131{fill:#2378B1;}
	.st132{fill:#2675AC;}
	.st133{fill:#2572A6;}
	.st134{fill:#0D74B8;}
	.st135{fill:#3882B4;}
	.st136{fill:#367FB2;}
	.st137{fill:#307CAF;}
	.st138{fill:#337EB0;}
	.st139{fill:#2271A5;}
	.st140{fill:#0E75BB;}
	.st141{fill:#0D73BB;}
	.st142{fill:#0B74BC;}
	.st143{fill:#1578BC;}
	.st144{fill:#1C7CC1;}
	.st145{fill:#2575AB;}
	.st146{fill:#1B7BC0;}
	.st147{fill:#1876BD;}
	.st148{fill:#1978BE;}
	.st149{fill:#3C84B4;}
	.st150{fill-rule:evenodd;clip-rule:evenodd;fill:#687E91;}
	.st151{fill:#037690;}
	.st152{fill:#F29220;}
	.st153{fill-rule:evenodd;clip-rule:evenodd;fill:#F29220;}
	.st154{fill-rule:evenodd;clip-rule:evenodd;fill:#037690;}
	.st155{display:none;}
	.st156{display:inline;fill-rule:evenodd;clip-rule:evenodd;fill:#2BB673;}
	.st157{display:inline;opacity:0.15;fill-rule:evenodd;clip-rule:evenodd;fill:#2BB673;}
</style>
<g id="Fondos_1_">
	<rect class="st8" width="300" height="300"/>
</g>
<g id="Texto">
	<g>
		<g>
			<path class="st24" d="M60.19,229.34v-24.37c0-0.29,0.13-0.56,0.35-0.74c0.25-0.21,0.56-0.32,0.89-0.31h6.87
				c2.03-0.1,4.03,0.57,5.59,1.88c1.4,1.26,2.09,3.24,2.09,5.94v0.33c0,2.71-0.71,4.7-2.13,5.97c-1.59,1.32-3.61,2-5.68,1.9h-4.89
				v9.4c0.01,0.33-0.17,0.64-0.45,0.79c-0.66,0.39-1.48,0.39-2.14,0C60.38,229.99,60.19,229.68,60.19,229.34L60.19,229.34z
				 M63.23,217.42h4.92c1.31,0.08,2.59-0.39,3.54-1.29c0.92-1.07,1.37-2.45,1.26-3.85v-0.44c0.11-1.4-0.33-2.79-1.24-3.86
				c-0.95-0.9-2.23-1.37-3.54-1.28h-4.89L63.23,217.42z"/>
			<path class="st24" d="M86.62,222.74v-10.92c0-2.72,0.71-4.72,2.13-6c3.36-2.52,7.99-2.52,11.35,0c1.43,1.28,2.15,3.28,2.16,6
				v10.92c0,2.73-0.71,4.73-2.14,6c-3.37,2.55-8.02,2.55-11.39,0C87.32,227.46,86.62,225.48,86.62,222.74z M89.67,222.74
				c0,3.43,1.58,5.14,4.75,5.15c1.31,0.08,2.59-0.38,3.54-1.28c0.91-1.07,1.36-2.46,1.25-3.87v-10.92c0.11-1.4-0.34-2.79-1.25-3.86
				c-0.95-0.9-2.23-1.37-3.54-1.28c-3.17,0-4.75,1.7-4.75,5.14V222.74z"/>
			<path class="st24" d="M113.03,226.69c0.01-0.41,0.16-0.81,0.42-1.14c0.19-0.32,0.51-0.53,0.88-0.57
				c0.32,0.06,0.62,0.22,0.83,0.46c0.33,0.3,0.69,0.64,1.06,1.01c0.49,0.45,1.07,0.8,1.7,1.02c0.85,0.32,1.75,0.47,2.66,0.45
				c1.33,0.08,2.64-0.32,3.7-1.14c0.94-0.85,1.44-2.09,1.35-3.35c0.05-1.2-0.39-2.38-1.23-3.25c-0.84-0.84-1.86-1.49-2.97-1.9
				c-1.17-0.43-2.33-0.89-3.54-1.4c-1.17-0.49-2.2-1.28-2.99-2.27c-0.85-1.15-1.28-2.55-1.23-3.97c-0.03-1.15,0.22-2.29,0.72-3.32
				c0.43-0.88,1.1-1.62,1.94-2.12c0.79-0.47,1.63-0.82,2.52-1.04c0.91-0.23,1.85-0.34,2.79-0.33c1.46-0.01,2.91,0.21,4.3,0.65
				c1.36,0.44,2.05,1.04,2.05,1.77c-0.02,0.39-0.15,0.77-0.36,1.09c-0.19,0.35-0.55,0.57-0.95,0.57c-0.56-0.17-1.1-0.39-1.63-0.64
				c-1.06-0.47-2.21-0.71-3.37-0.69c-1.24-0.06-2.47,0.25-3.54,0.89c-0.93,0.65-1.45,1.74-1.36,2.87c-0.05,1.05,0.39,2.06,1.2,2.72
				c0.89,0.73,1.9,1.28,2.99,1.65c1.18,0.41,2.34,0.89,3.54,1.42c1.19,0.57,2.22,1.46,2.96,2.55c0.86,1.33,1.29,2.89,1.23,4.48
				c0,2.5-0.73,4.37-2.18,5.65c-1.62,1.33-3.67,2-5.76,1.9c-1.91,0.06-3.79-0.41-5.45-1.36
				C113.77,228.46,113.03,227.6,113.03,226.69L113.03,226.69z"/>
			<path class="st24" d="M137.77,205.26c-0.01-0.34,0.09-0.67,0.29-0.94c0.17-0.27,0.48-0.42,0.79-0.4h14.76
				c0.32-0.02,0.62,0.13,0.79,0.4c0.19,0.28,0.29,0.61,0.29,0.94c0.01,0.35-0.09,0.7-0.29,0.99c-0.17,0.28-0.47,0.44-0.79,0.43
				h-5.79v22.67c0.01,0.33-0.17,0.63-0.45,0.79c-0.66,0.39-1.48,0.39-2.14,0c-0.29-0.16-0.46-0.47-0.45-0.79v-22.67h-5.88
				c-0.32,0.02-0.62-0.14-0.79-0.41C137.88,205.98,137.76,205.63,137.77,205.26L137.77,205.26z"/>
			<path class="st24" d="M165.04,229.34v-23.88c-0.12-0.72,0.37-1.4,1.09-1.52c0.16-0.02,0.32-0.02,0.48,0
				c0.96,0,1.77,0.64,2.44,1.92l5.68,10.92l5.74-10.92c0.7-1.29,1.5-1.92,2.42-1.92c0.72-0.11,1.39,0.38,1.51,1.1
				c0.02,0.13,0.02,0.25,0,0.38v23.89c0.01,0.33-0.16,0.64-0.45,0.8c-0.66,0.39-1.48,0.39-2.15,0c-0.29-0.16-0.46-0.47-0.45-0.8v-19
				l-5.48,10.3c-0.17,0.51-0.65,0.87-1.19,0.89c-0.53-0.03-0.98-0.38-1.14-0.89l-5.48-10.47v19.22c0.01,0.33-0.17,0.63-0.45,0.79
				c-0.3,0.21-0.66,0.33-1.03,0.33c-0.38,0.01-0.75-0.09-1.07-0.29C165.2,230.02,165.01,229.69,165.04,229.34L165.04,229.34z"/>
			<path class="st24" d="M194.81,229.17c0.01-0.1,0.03-0.2,0.07-0.3l7.42-23.89c0.21-0.7,0.82-1.05,1.84-1.05
				c1.02,0,1.64,0.35,1.85,1.05l7.45,24.01c-0.01,0.04-0.01,0.09,0,0.13c0.01,0.04,0.01,0.07,0,0.11c-0.01,0.38-0.23,0.72-0.57,0.89
				c-0.4,0.25-0.86,0.37-1.33,0.35c-0.48,0.06-0.94-0.22-1.09-0.68l-1.59-5.31h-9.54l-1.59,5.31c-0.15,0.48-0.64,0.78-1.14,0.7
				c-0.44,0-0.86-0.13-1.23-0.36C195.03,229.95,194.8,229.57,194.81,229.17z M200.08,221.91h8.11l-4.06-13.56L200.08,221.91z"/>
			<path class="st24" d="M223.97,229.34v-24.37c0-0.7,0.51-1.05,1.52-1.05c0.47-0.01,0.93,0.15,1.29,0.45
				c0.43,0.42,0.78,0.92,1.02,1.47l9.04,17.7v-18.58c0-0.32,0.17-0.62,0.45-0.78c0.67-0.36,1.47-0.36,2.14,0
				c0.28,0.16,0.45,0.46,0.45,0.78v24.41c0.01,0.33-0.16,0.63-0.45,0.79c-0.32,0.2-0.69,0.3-1.07,0.29
				c-0.85-0.04-1.61-0.58-1.92-1.38l-9.43-18.24v18.53c0.01,0.33-0.16,0.63-0.45,0.79c-0.66,0.39-1.48,0.39-2.15,0
				C224.13,229.99,223.96,229.68,223.97,229.34L223.97,229.34z"/>
			<path class="st24" d="M206.35,133.22c3.99-31.09-17.98-59.54-49.07-63.53s-59.54,17.98-63.53,49.07s17.98,59.54,49.07,63.53
				c0,0,0,0,0.01,0C173.92,186.28,202.36,164.32,206.35,133.22z"/>
		</g>
		<path class="st24" d="M170.52,105.71l-23.93,23.93l-6.78-6.78C163.37,99.31,165.71,101.38,170.52,105.71z"/>
		<path class="st8" d="M146.59,130.21c-0.15,0-0.3-0.06-0.4-0.17l-6.81-6.81c-0.22-0.22-0.22-0.58,0-0.8
			c23.95-23.95,26.47-21.69,31.5-17.18c0.12,0.1,0.18,0.25,0.19,0.41c0.01,0.16-0.05,0.31-0.16,0.42l-23.91,23.96
			C146.88,130.15,146.74,130.21,146.59,130.21L146.59,130.21z M140.61,122.84l5.98,5.99l23.11-23.11
			c-4.19-3.71-7.04-4.86-29.09,17.14V122.84z"/>
		<path class="st24" d="M153.44,136.5l-6.54-6.54l23.94-23.94C177.29,112.48,167.73,122.99,153.44,136.5z"/>
		<path class="st8" d="M153.44,137.07h-0.03c-0.14-0.01-0.28-0.07-0.38-0.18l-6.53-6.53c-0.1-0.11-0.16-0.25-0.16-0.4
			c0-0.15,0.06-0.3,0.16-0.4l23.94-23.93c0.22-0.22,0.58-0.22,0.8,0c1.45,1.38,2.25,3.3,2.22,5.3c-0.09,6.3-7.26,14.29-19.62,25.99
			C153.73,137.01,153.59,137.07,153.44,137.07z M147.71,129.96c3.66,3.67,5.14,5.14,5.74,5.74c9.56-9.08,18.78-18.39,18.87-24.79
			c0.04-1.5-0.5-2.95-1.5-4.07L147.71,129.96z"/>
		<path class="st24" d="M139.97,123.03l4.83,4.82c0.09,0.09,0.09,0.24,0,0.33c-0.03,0.03-0.07,0.05-0.12,0.06l-9.96,2.15
			c-0.51,0.11-1-0.21-1.12-0.71c-0.07-0.31,0.03-0.64,0.25-0.87l5.81-5.78C139.75,122.95,139.88,122.95,139.97,123.03L139.97,123.03
			z"/>
		<path class="st8" d="M134.51,130.98c-0.83,0-1.5-0.68-1.5-1.51c0-0.4,0.16-0.78,0.44-1.06l5.78-5.78c0.31-0.31,0.82-0.31,1.14,0
			l4.82,4.83c0.31,0.31,0.32,0.81,0.01,1.12c-0.11,0.11-0.25,0.19-0.41,0.22l-9.96,2.15C134.73,130.97,134.62,130.98,134.51,130.98z
			 M139.8,123.66l-5.55,5.55c-0.12,0.11-0.15,0.3-0.06,0.44c0.07,0.15,0.24,0.23,0.4,0.18l9.36-2.02L139.8,123.66z"/>
		<path class="st24" d="M183.21,92.42c-3.66-3.51-9.47-3.4-12.99,0.26s-3.4,9.47,0.26,12.99c3,2.88,7.55,3.39,11.11,1.24l-6.44-6.43
			L183.21,92.42z"/>
		<path class="st8" d="M176.84,108.8c-5.39,0-9.76-4.37-9.76-9.75s4.37-9.76,9.75-9.76c2.52,0,4.95,0.98,6.77,2.72
			c0.11,0.11,0.17,0.25,0.18,0.4c0,0.15-0.06,0.3-0.16,0.41l-7.62,7.65l6.03,6.03c0.12,0.12,0.18,0.3,0.16,0.47
			c-0.02,0.17-0.12,0.33-0.27,0.42C180.38,108.32,178.63,108.81,176.84,108.8z M176.84,90.45c-4.75,0-8.6,3.86-8.6,8.61
			s3.86,8.6,8.61,8.6c1.32,0,2.61-0.3,3.8-0.89l-5.89-5.9c-0.11-0.1-0.17-0.25-0.17-0.4c0-0.15,0.06-0.3,0.17-0.4l7.63-7.63
			C180.83,91.15,178.87,90.44,176.84,90.45L176.84,90.45z"/>
		<path class="st24" d="M183.37,92.55l-0.14-0.12l-8.07,8.05l6.44,6.43c0.65-0.38,1.24-0.83,1.78-1.35
			C186.96,101.97,186.97,96.14,183.37,92.55C183.37,92.55,183.37,92.55,183.37,92.55z"/>
		<path class="st8" d="M181.59,107.47c-0.15,0-0.3-0.06-0.4-0.16l-6.43-6.44c-0.11-0.1-0.17-0.25-0.17-0.4c0-0.15,0.06-0.3,0.17-0.4
			l8.04-8.05c0.22-0.22,0.57-0.22,0.79,0l0.15,0.13c3.81,3.79,3.82,9.96,0.03,13.77c-0.57,0.57-1.21,1.07-1.9,1.49
			C181.79,107.45,181.69,107.48,181.59,107.47L181.59,107.47z M175.99,100.48l5.68,5.71c0.46-0.31,0.88-0.66,1.28-1.04
			c3.26-3.26,3.38-8.52,0.26-11.92L175.99,100.48z"/>
		<path class="st24" d="M171.51,106.69c-1.37-1.36-3.58-1.36-4.94,0l-21.41,21.41l3.59,3.56l22.63-19.87
			c1.45-1.28,1.58-3.49,0.3-4.94C171.62,106.8,171.56,106.75,171.51,106.69z"/>
		<path class="st8" d="M148.74,132.24c-0.15,0-0.3-0.06-0.4-0.16l-3.57-3.56c-0.22-0.22-0.22-0.58,0-0.8c0,0,0,0,0,0l21.39-21.41
			c1.59-1.58,4.16-1.58,5.75,0c1.58,1.59,1.58,4.15,0,5.74c-0.06,0.06-0.13,0.12-0.19,0.18l-22.63,19.87
			C149,132.17,148.87,132.23,148.74,132.24z M145.99,128.11l2.78,2.78L171,111.37c1.23-1.05,1.38-2.9,0.33-4.13
			c-1.05-1.23-2.9-1.38-4.13-0.33c-0.07,0.06-0.14,0.13-0.21,0.19L145.99,128.11z"/>
		<path class="st24" d="M128.74,152.43c-0.21,0.11-0.32,0.34-0.27,0.57l0.96,4.1c0.2,0.59-0.12,1.24-0.71,1.44
			c-0.45,0.15-0.94,0.01-1.24-0.35l-6.2-6.2l20.37-20.37l7.01,0.11l4.79,4.78C152.26,137.49,145.39,144.08,128.74,152.43
			L128.74,152.43z"/>
		<path class="st8" d="M128.31,159.1c-0.46,0-0.89-0.18-1.21-0.51l-6.22-6.21c-0.1-0.11-0.16-0.25-0.16-0.4
			c0-0.15,0.06-0.3,0.16-0.4l20.37-20.37c0.11-0.11,0.26-0.17,0.41-0.16l7.02,0.11c0.15,0,0.29,0.06,0.39,0.16l4.78,4.79
			c0.11,0.11,0.18,0.27,0.17,0.43c-0.01,0.16-0.08,0.31-0.2,0.41l-0.4,0.35c-6.01,5.27-14.19,10.53-24.37,15.63l0.95,4.06
			c0.19,0.75-0.16,1.54-0.85,1.91C128.89,159.02,128.6,159.1,128.31,159.1z M122.06,151.98l5.82,5.8c0.16,0.28,0.51,0.37,0.78,0.22
			c0.28-0.16,0.37-0.51,0.22-0.78l0,0l-0.96-4.1c-0.11-0.49,0.12-0.99,0.57-1.21c10.07-5.05,18.16-10.25,24.12-15.46l-4.19-4.19
			l-6.54-0.1L122.06,151.98z"/>
		<path class="st24" d="M116.39,156.86l4.88-4.88l7.25,7.25l-11.58-0.79c-0.51-0.06-0.87-0.52-0.81-1.02
			C116.14,157.2,116.24,157.01,116.39,156.86L116.39,156.86z"/>
		<path class="st8" d="M128.52,159.8h-0.03l-11.59-0.79c-0.82-0.08-1.42-0.82-1.34-1.64c0.04-0.34,0.19-0.66,0.43-0.9l4.88-4.88
			c0.22-0.22,0.58-0.22,0.8,0c0,0,0,0,0,0l7.25,7.25c0.17,0.17,0.22,0.42,0.12,0.64C128.95,159.67,128.75,159.8,128.52,159.8
			L128.52,159.8z M121.28,152.78l-4.47,4.47c-0.1,0.1-0.14,0.24-0.09,0.37c0.04,0.13,0.16,0.23,0.3,0.24l10.04,0.69L121.28,152.78z"
			/>
		<path class="st8" d="M139.58,134.24c-0.31,0-0.57-0.26-0.57-0.57c0-0.15,0.06-0.29,0.16-0.4l5.52-5.52c0.22-0.22,0.58-0.22,0.8,0
			c0,0,0,0,0,0l3.55,3.56c0.15,0.15,0.21,0.37,0.15,0.57c-0.06,0.2-0.22,0.35-0.43,0.39l-9.08,1.96
			C139.66,134.24,139.62,134.24,139.58,134.24L139.58,134.24z M145.1,128.96l-3.74,3.75l6.17-1.33L145.1,128.96z"/>
		<path class="st24" d="M148.66,131.72l-6.24,1.34c-0.46,0.1-0.92-0.19-1.02-0.65c-0.07-0.29,0.02-0.59,0.24-0.8l3.45-3.45
			L148.66,131.72z"/>
		<g>
			<path class="st8" d="M142.25,133.64c-0.79,0-1.42-0.64-1.42-1.42c0-0.38,0.15-0.74,0.42-1.01l3.45-3.45
				c0.22-0.22,0.58-0.22,0.8,0c0,0,0,0,0,0l3.55,3.56c0.15,0.15,0.21,0.37,0.15,0.57c-0.06,0.2-0.22,0.35-0.43,0.39l-6.24,1.35
				C142.44,133.64,142.35,133.65,142.25,133.64L142.25,133.64z M145.09,128.96l-3.05,3.05c-0.09,0.09-0.11,0.23-0.05,0.35
				c0.05,0.12,0.19,0.19,0.32,0.15l5.2-1.14L145.09,128.96z"/>
			<path class="st8" d="M183.41,98c-0.11-0.35-0.48-0.53-0.83-0.42s-0.53,0.48-0.42,0.83c0.02,0.06,0.04,0.11,0.08,0.16
				c0.34,0.7,0.25,1.53-0.24,2.13c-0.23,0.28-0.19,0.69,0.09,0.93c0.28,0.23,0.69,0.19,0.93-0.09
				C183.82,100.54,183.98,99.16,183.41,98z"/>
		</g>
	</g>
</g>
<g id="Guides">
</g>
<g id="Layer_5" class="st155">
	<rect x="59.79" y="59.6" class="st156" width="180.21" height="180.21"/>
</g>
</svg>
