<svg xmlns="http://www.w3.org/2000/svg" viewBox="0 0 300 300"><defs><style>.cls-1{fill:#f36c3d;}.cls-2{fill:#fff;}</style></defs><g id="Fondos"><rect class="cls-1" width="300" height="300"/></g><g id="Texto"><path class="cls-2" d="M60.19,229.34V205a1,1,0,0,1,.35-.75,1.27,1.27,0,0,1,.88-.3H68.3a8,8,0,0,1,5.58,1.88q2.1,1.89,2.1,5.95v.32q0,4.06-2.14,6a8.23,8.23,0,0,1-5.67,1.9H63.28v9.4a.9.9,0,0,1-.45.8,2.1,2.1,0,0,1-2.14,0,.88.88,0,0,1-.5-.8Zm3-11.92h4.93a4.74,4.74,0,0,0,3.54-1.29A5.33,5.33,0,0,0,73,212.27v-.44A5.32,5.32,0,0,0,71.71,208a4.68,4.68,0,0,0-3.54-1.28H63.28Z"/><path class="cls-2" d="M86.62,222.74V211.82q0-4.09,2.13-6a9.47,9.47,0,0,1,11.35,0q2.16,1.91,2.16,6v10.92q0,4.09-2.14,6a9.44,9.44,0,0,1-11.39,0C87.32,227.46,86.62,225.48,86.62,222.74Zm3,0c0,3.43,1.59,5.15,4.75,5.15A4.72,4.72,0,0,0,98,226.61a5.45,5.45,0,0,0,1.25-3.87V211.82A5.32,5.32,0,0,0,98,208a4.68,4.68,0,0,0-3.54-1.28c-3.17,0-4.75,1.7-4.75,5.14Z"/><path class="cls-2" d="M113,226.69a1.87,1.87,0,0,1,.42-1.13,1.16,1.16,0,0,1,.88-.57,1.44,1.44,0,0,1,.83.46c.34.3.69.63,1.06,1a4.74,4.74,0,0,0,1.7,1,6.9,6.9,0,0,0,2.66.45,5.44,5.44,0,0,0,3.69-1.13,4.14,4.14,0,0,0,1.35-3.36,4.4,4.4,0,0,0-1.23-3.24,8.28,8.28,0,0,0-3-1.91c-1.17-.43-2.33-.88-3.54-1.39a7.72,7.72,0,0,1-3-2.27,6.25,6.25,0,0,1-1.22-4,7.24,7.24,0,0,1,.72-3.32,5.09,5.09,0,0,1,1.94-2.12,9.25,9.25,0,0,1,2.52-1,10.92,10.92,0,0,1,2.79-.33,14.22,14.22,0,0,1,4.3.64c1.36.45,2.06,1.05,2.06,1.77a2.12,2.12,0,0,1-.37,1.09,1.08,1.08,0,0,1-1,.57,10.81,10.81,0,0,1-1.63-.64,8,8,0,0,0-3.37-.69,6.37,6.37,0,0,0-3.54.88,3.19,3.19,0,0,0-1.36,2.87,3.33,3.33,0,0,0,1.2,2.73,9.38,9.38,0,0,0,3,1.64c1.17.42,2.34.89,3.53,1.42a7.36,7.36,0,0,1,4.19,7,7.09,7.09,0,0,1-2.18,5.65,8.36,8.36,0,0,1-5.76,1.9,10.29,10.29,0,0,1-5.45-1.35c-1.52-.88-2.26-1.74-2.26-2.65Z"/><path class="cls-2" d="M137.77,205.26a1.46,1.46,0,0,1,.29-.94.86.86,0,0,1,.79-.4h14.76a.86.86,0,0,1,.79.4,1.54,1.54,0,0,1,.29.94,1.67,1.67,0,0,1-.29,1,.88.88,0,0,1-.79.43h-5.79v22.66a.89.89,0,0,1-.46.8,2.1,2.1,0,0,1-2.14,0,.9.9,0,0,1-.45-.8V206.68H138.9a.91.91,0,0,1-.8-.41,1.59,1.59,0,0,1-.33-1Z"/><path class="cls-2" d="M165,229.34V205.46a1.32,1.32,0,0,1,1.09-1.52,1.85,1.85,0,0,1,.47,0c1,0,1.77.64,2.44,1.92l5.67,10.92,5.74-10.92q1.05-1.92,2.43-1.92a1.33,1.33,0,0,1,1.51,1.1,1.21,1.21,0,0,1,0,.38V229.3a.9.9,0,0,1-.45.8,2.12,2.12,0,0,1-2.15,0,.9.9,0,0,1-.45-.8v-19l-5.47,10.3a1.32,1.32,0,0,1-1.2.88,1.26,1.26,0,0,1-1.13-.88l-5.48-10.48v19.22a.9.9,0,0,1-.45.8,1.8,1.8,0,0,1-1,.33,1.92,1.92,0,0,1-1.07-.29.87.87,0,0,1-.47-.84Z"/><path class="cls-2" d="M194.81,229.17a1,1,0,0,1,.08-.29l7.42-23.9c.21-.69.83-1,1.85-1s1.64.36,1.85,1l7.45,24a.28.28,0,0,0,0,.13.17.17,0,0,1,0,.1,1.06,1.06,0,0,1-.57.89,2.31,2.31,0,0,1-1.33.35,1,1,0,0,1-1.09-.68l-1.59-5.31h-9.54l-1.59,5.31a1,1,0,0,1-1.13.7,2.3,2.3,0,0,1-1.23-.36A1.05,1.05,0,0,1,194.81,229.17Zm5.27-7.26h8.11l-4.06-13.56Z"/><path class="cls-2" d="M224,229.34V205q0-1,1.53-1.05a2,2,0,0,1,1.29.45,4.68,4.68,0,0,1,1,1.47l9,17.7V205a.9.9,0,0,1,.45-.78,2.26,2.26,0,0,1,2.14,0,.9.9,0,0,1,.45.78v24.41a.86.86,0,0,1-.45.79,1.84,1.84,0,0,1-1.07.29,2.16,2.16,0,0,1-1.92-1.38L227,210.83v18.53a.88.88,0,0,1-.45.79,2.08,2.08,0,0,1-2.15,0,.88.88,0,0,1-.45-.81Z"/><path class="cls-2" d="M206.35,133.22a56.77,56.77,0,1,0-63.53,49.08h0A56.77,56.77,0,0,0,206.35,133.22Z"/><path class="cls-2" d="M170.52,105.71l-23.93,23.93-6.79-6.78C163.37,99.31,165.71,101.38,170.52,105.71Z"/><path class="cls-1" d="M146.59,130.21a.58.58,0,0,1-.41-.17l-6.81-6.81a.57.57,0,0,1,0-.8c24-24,26.48-21.69,31.5-17.17a.56.56,0,0,1,.19.4.59.59,0,0,1-.17.42L147,130a.52.52,0,0,1-.39.17Zm-6-7.37,6,6,23.11-23.11c-4.2-3.71-7-4.86-29.09,17.14Z"/><path class="cls-2" d="M153.44,136.5,146.9,130,170.84,106C177.29,112.48,167.73,123,153.44,136.5Z"/><path class="cls-1" d="M153.44,137.07h0a.58.58,0,0,1-.38-.17l-6.54-6.53a.6.6,0,0,1-.16-.41.59.59,0,0,1,.16-.4l23.94-23.93a.57.57,0,0,1,.8,0,7.16,7.16,0,0,1,2.22,5.3c-.09,6.29-7.26,14.29-19.62,26A.59.59,0,0,1,153.44,137.07ZM147.71,130c3.66,3.67,5.14,5.15,5.75,5.75,9.55-9.08,18.77-18.39,18.86-24.8a5.88,5.88,0,0,0-1.49-4.07Z"/><path class="cls-2" d="M140,123l4.83,4.82a.24.24,0,0,1,0,.33.23.23,0,0,1-.12.06l-10,2.15a.94.94,0,0,1-1.12-.71,1,1,0,0,1,.25-.87l5.81-5.78a.23.23,0,0,1,.31,0Z"/><path class="cls-1" d="M134.51,131a1.51,1.51,0,0,1-1.5-1.51,1.47,1.47,0,0,1,.45-1.06l5.78-5.78a.79.79,0,0,1,1.13,0l4.83,4.83a.8.8,0,0,1,0,1.12.82.82,0,0,1-.41.22l-10,2.15A1.84,1.84,0,0,1,134.51,131Zm5.29-7.32-5.54,5.55a.35.35,0,0,0-.06.44.33.33,0,0,0,.4.18l9.36-2Z"/><path class="cls-2" d="M183.21,92.42a9.19,9.19,0,1,0-1.62,14.49l-6.43-6.43Z"/><path class="cls-1" d="M176.84,108.8A9.76,9.76,0,1,1,183.6,92a.58.58,0,0,1,.18.41.54.54,0,0,1-.17.4L176,100.48l6,6a.56.56,0,0,1,.15.48.57.57,0,0,1-.27.42A9.73,9.73,0,0,1,176.84,108.8Zm0-18.35a8.61,8.61,0,1,0,3.81,16.32l-5.89-5.9a.52.52,0,0,1-.17-.39.57.57,0,0,1,.17-.41l7.63-7.63a8.63,8.63,0,0,0-5.54-2Z"/><path class="cls-2" d="M183.37,92.55l-.14-.13-8.07,8.06,6.43,6.43a9.07,9.07,0,0,0,1.78-1.35,9.2,9.2,0,0,0,0-13Z"/><path class="cls-1" d="M181.59,107.47a.51.51,0,0,1-.4-.16l-6.43-6.44a.52.52,0,0,1-.17-.39.57.57,0,0,1,.17-.41l8-8a.57.57,0,0,1,.8,0l.14.13a9.71,9.71,0,0,1-1.86,15.25.5.5,0,0,1-.29.07Zm-5.6-7,5.68,5.71a9.08,9.08,0,0,0,1.27-1,8.62,8.62,0,0,0,.27-11.92Z"/><path class="cls-2" d="M171.51,106.69a3.51,3.51,0,0,0-4.95,0l-21.4,21.41,3.58,3.57,22.63-19.87a3.5,3.5,0,0,0,.3-4.94Z"/><path class="cls-1" d="M148.74,132.24a.56.56,0,0,1-.4-.17l-3.57-3.56a.58.58,0,0,1,0-.81h0l21.39-21.41a4.06,4.06,0,1,1,5.75,5.74,1.57,1.57,0,0,1-.19.18l-22.63,19.87A.57.57,0,0,1,148.74,132.24ZM146,128.11l2.78,2.78L171,111.37a2.93,2.93,0,1,0-3.8-4.46l-.21.19Z"/><path class="cls-2" d="M128.74,152.43a.52.52,0,0,0-.27.57l1,4.1a1.14,1.14,0,0,1-.71,1.44,1.13,1.13,0,0,1-1.24-.36l-6.2-6.2,20.37-20.37,7,.11,4.78,4.78c-1.18,1-8.05,7.58-24.7,15.93Z"/><path class="cls-1" d="M128.31,159.1a1.69,1.69,0,0,1-1.22-.51l-6.22-6.21a.58.58,0,0,1-.16-.4.59.59,0,0,1,.16-.4l20.38-20.37a.54.54,0,0,1,.4-.17l7,.11a.52.52,0,0,1,.39.17l4.78,4.78a.54.54,0,0,1,.17.43.6.6,0,0,1-.2.41l-.41.35c-6,5.27-14.19,10.53-24.36,15.62l1,4.06a1.69,1.69,0,0,1-.85,1.91A1.72,1.72,0,0,1,128.31,159.1ZM122.06,152l5.82,5.8a.58.58,0,1,0,1-.57h0l-1-4.1a1.09,1.09,0,0,1,.57-1.21c10.07-5.05,18.17-10.25,24.13-15.45l-4.19-4.19-6.55-.1Z"/><path class="cls-2" d="M116.39,156.86l4.87-4.88,7.25,7.25-11.58-.79a.93.93,0,0,1-.81-1,.9.9,0,0,1,.27-.55Z"/><path class="cls-1" d="M128.52,159.8h0L116.9,159a1.5,1.5,0,0,1-1.33-1.65,1.42,1.42,0,0,1,.43-.9l4.87-4.88a.58.58,0,0,1,.81,0h0l7.25,7.25a.57.57,0,0,1,.12.64.59.59,0,0,1-.53.33Zm-7.24-7-4.48,4.48a.34.34,0,0,0-.09.37.37.37,0,0,0,.3.25l10,.68Z"/><path class="cls-1" d="M139.58,134.24a.57.57,0,0,1-.56-.57.59.59,0,0,1,.16-.4l5.52-5.51a.56.56,0,0,1,.8,0h0l3.56,3.56a.55.55,0,0,1,.14.56.58.58,0,0,1-.42.4l-9.08,1.95ZM145.1,129l-3.74,3.75,6.17-1.33Z"/><path class="cls-2" d="M148.66,131.72l-6.25,1.34a.86.86,0,0,1-.78-1.45l3.45-3.45Z"/><path class="cls-1" d="M142.25,133.64a1.42,1.42,0,0,1-1-2.43l3.45-3.45a.56.56,0,0,1,.8,0h0l3.56,3.56a.55.55,0,0,1,.14.56.58.58,0,0,1-.42.4l-6.25,1.34a.86.86,0,0,1-.28,0Zm2.84-4.68L142,132a.27.27,0,0,0,0,.34.26.26,0,0,0,.32.15l5.2-1.13Z"/><path class="cls-1" d="M183.41,98a.66.66,0,0,0-1.25.41.48.48,0,0,0,.08.16,2,2,0,0,1-.25,2.13.66.66,0,0,0,.09.93.67.67,0,0,0,.92-.09A3.29,3.29,0,0,0,183.41,98Z"/></g></svg>