<svg xmlns="http://www.w3.org/2000/svg" viewBox="0 0 300 300"><defs><style>.cls-1,.cls-2{fill:#4674b9;}.cls-2{stroke:#fff;stroke-miterlimit:10;stroke-width:8px;}.cls-3{fill:#fff;}</style></defs><g id="Fondos"><rect class="cls-1" width="300" height="300"/></g><g id="Texto"><path class="cls-2" d="M60.72,173.22c1.22-5.44,2.63-11.86,4.1-18.27,3.68-16,7.46-32,11-48.08a14.75,14.75,0,0,1,8.8-10.82Q114.13,82.19,143.44,68a14.16,14.16,0,0,1,13.21,0Q186,82.14,215.44,96.05c4.78,2.25,7.66,5.56,8.82,10.79q7.1,31.78,14.56,63.48a13.21,13.21,0,0,1-2.67,12.16q-20.84,25.85-41.57,51.75a13.62,13.62,0,0,1-11.31,5.37q-33,0-66,.05a14.28,14.28,0,0,1-12-5.71q-20.46-25.63-41.09-51.12A13.68,13.68,0,0,1,60.72,173.22Z"/><path class="cls-3" d="M198.35,156.32c0,7.77.86,8.69,8.82,9.32a34.85,34.85,0,0,1,4.68.62c2.3.49,4,1.86,3.61,4.35-.48,2.8-2.81,3.37-5.2,2.78s-5-1.68-7.48-2.46c-4.71-1.45-6.32-.69-8.17,3.73a45.47,45.47,0,0,1-16.9,20.86c-3.28,2.18-3.35,4.58-1.8,7.52,1.11,2.09,2.48,4,3.75,6,1.17,1.84,2.05,3.78,1,5.92a3.05,3.05,0,0,1-3.28,1.73c-2.45-.37-3.38-2.29-4.13-4.32-.86-2.34-1.48-4.78-2.52-7.05-1.3-2.86-3.13-4.32-6.8-3.14a45.77,45.77,0,0,1-27.22.11c-3.92-1.14-5.94-.24-7.51,3.64-.84,2.06-1.4,4.24-2.15,6.34s-1.57,4-4,4.45a3,3,0,0,1-3.36-1.56c-1.3-2.28-.27-4.3,1-6.25a53.68,53.68,0,0,0,3.7-6c1.34-2.86,1.54-5.32-1.83-7.52a43.51,43.51,0,0,1-17-21.23c-1.43-3.72-3.81-4.29-7-3.41-2.53.68-4.94,1.81-7.47,2.51s-5.14.9-6.24-2.26c-.81-2.31,1.34-4.21,4.81-4.91,3.66-.73,7.81.4,10.9-2.57,3.28-3.16.93-7.17,1.33-10.74.81-7.31,2.48-14.31,6.33-20.56,2-3.32.79-5.45-1.61-7.33-2.17-1.7-4.67-2.95-7-4.48s-3.76-3.75-1.75-6.27,4.29-1.36,6.2.36c2.15,1.93,4,4.19,6.23,6s4.52,2.46,7.17-.08a45.28,45.28,0,0,1,24.39-12c4.58-.77,5.61-2.06,5.36-6.82-.13-2.35-.63-4.69-.8-7-.19-2.7.4-5.16,3.61-5.58,2.46-.33,4.2,2.33,3.89,5.68-.08.92-.36,1.81-.48,2.72-1.2,8.72-.65,9.54,7.83,11.63a45.26,45.26,0,0,1,21,11.15c3.09,3,5.53,2.21,8.13,0,2.1-1.78,3.88-3.94,5.92-5.8s4.29-2.64,6.18-.19.53,4.5-1.63,6-4.78,2.81-7,4.48c-2.71,2.06-3.88,4.38-1.7,7.94A44,44,0,0,1,198.35,156.32Z"/><path class="cls-1" d="M170.9,188.32c-2.48-5.94-5-11.57-7.17-17.31-1.37-3.56.51-5.7,4.25-5.1,5.31.84,10.59,1.85,15.89,2.68,1.59.24,2.54.56,1.72,2.42A37.91,37.91,0,0,1,170.9,188.32Z"/><path class="cls-1" d="M145.07,122.26c-.21,4.32-.38,8.65-.65,13-.31,5.17-2.64,6.38-6.8,3.52s-8.32-6-12.56-8.83c-1.66-1.13-1.75-1.85-.18-3.16a38.46,38.46,0,0,1,16-8.16C145.4,117.51,145.43,117.51,145.07,122.26Z"/><path class="cls-1" d="M111.49,154.84a41.73,41.73,0,0,1,4.26-16.53c1.09-2.19,2-2.26,3.68-.63,3.71,3.52,7.64,6.82,11.37,10.32,3.19,3,2.59,5.57-1.58,6.88-4.37,1.38-8.81,2.55-13.22,3.82C111.43,160,111.43,160,111.49,154.84Z"/><path class="cls-1" d="M188.65,155.41c.1,4.43,0,4.5-4.23,3.28-4.53-1.29-9.09-2.49-13.57-3.91-4.18-1.33-4.73-3.92-1.54-6.87,3.75-3.47,7.67-6.76,11.37-10.29,1.85-1.77,2.63-1.23,3.64.78A43.09,43.09,0,0,1,188.65,155.41Z"/><path class="cls-1" d="M150.24,194.59a64.22,64.22,0,0,1-9.75-1.34c-2.1-.47-2.62-1.2-1.48-3.18,2.7-4.67,5.17-9.46,7.9-14.11,1.74-3,4.44-3.12,6.17-.25,2.92,4.84,5.49,9.89,8.29,14.8,1,1.78.15,2.26-1.38,2.67A57.29,57.29,0,0,1,150.24,194.59Z"/><path class="cls-1" d="M155,122c-1-3.91.66-4.38,3.91-3.5a41.78,41.78,0,0,1,15.38,7.61c1.9,1.51,2.67,2.6,0,4.29-4.08,2.61-7.92,5.59-11.92,8.34s-6.42,1.66-6.73-3.15C155.42,131,155.26,126.4,155,122Z"/><path class="cls-1" d="M133.33,165.79c2.76.27,4.18,2,3.24,4.55-2,5.55-4.41,11-6.63,16.44-.62,1.53-1.43,1.06-2.38.37a38.44,38.44,0,0,1-12.74-15.77c-.5-1.13-1-2.33.94-2.65Z"/><path class="cls-1" d="M150.25,149.79c3.08,0,6.2,2.87,6.2,5.65,0,3.52-3.19,7-6.39,7s-6.39-3.49-6.4-7C143.66,152.5,146.86,149.75,150.25,149.79Z"/></g></svg>