<?xml version="1.0" encoding="utf-8"?>
<!-- Generator: Adobe Illustrator 25.4.1, SVG Export Plug-In . SVG Version: 6.00 Build 0)  -->
<svg version="1.1" xmlns="http://www.w3.org/2000/svg" xmlns:xlink="http://www.w3.org/1999/xlink" x="0px" y="0px"
	 viewBox="0 0 300 300" style="enable-background:new 0 0 300 300;" xml:space="preserve">
<style type="text/css">
	.st0{fill:#4674B9;}
	.st1{fill:#2C2C32;}
	.st2{fill:#010101;}
	.st3{fill:#F6DF19;}
	.st4{fill:#2363AF;}
	.st5{fill:#F0672B;}
	.st6{fill:#101215;}
	.st7{fill:#492D8C;}
	.st8{fill:#F36C3D;}
	.st9{fill:#7756A3;}
	.st10{fill:#679E63;}
	.st11{fill:#484848;}
	.st12{fill:#1B1F23;}
	.st13{fill:#EF7729;}
	.st14{fill:#4791CE;}
	.st15{fill:#F6F6F6;}
	.st16{fill:#4A4A4D;}
	.st17{fill:#C54027;}
	.st18{fill:#3978BD;}
	.st19{fill:#CC6899;}
	.st20{fill:#12364F;}
	.st21{fill:#316A9A;}
	.st22{fill:#FFD53E;}
	.st23{fill:#693994;}
	.st24{fill:#FFFFFF;}
	.st25{fill-rule:evenodd;clip-rule:evenodd;fill:#FFFFFF;}
	.st26{fill-rule:evenodd;clip-rule:evenodd;fill:url(#XMLID_00000137829853253088857340000007722885637043371687_);}
	.st27{clip-path:url(#XMLID_00000124873541753988765750000011510705227127825309_);}
	.st28{fill:none;}
	.st29{opacity:0.66;fill:#4B4B4B;}
	.st30{fill:url(#SVGID_1_);}
	.st31{opacity:0.05;fill:#010101;enable-background:new    ;}
	.st32{fill:#17AA4F;}
	.st33{fill:#B8C4C2;}
	.st34{fill:#14924F;}
	.st35{fill:#22323D;}
	.st36{fill:#F26424;}
	.st37{fill:#4E4E4E;}
	.st38{fill:#3B2F14;}
	.st39{fill:#F58772;}
	.st40{fill:#F05233;}
	.st41{fill:#433527;}
	.st42{fill:#DD1E34;}
	.st43{fill:#C32033;}
	.st44{fill:#F9F9FA;}
	.st45{fill:#7253A2;}
	.st46{fill:#4674B9;stroke:#FFFFFF;stroke-width:8;stroke-miterlimit:10;}
	.st47{fill:#EF4623;}
	.st48{fill:#4EB987;}
	.st49{fill:#455567;}
	.st50{fill:#F1F2F2;}
	.st51{fill:#70CEEF;}
	.st52{fill:#70CFF0;}
	.st53{opacity:0.7;fill:#2C384A;enable-background:new    ;}
	.st54{fill:url(#path-2_00000147201145406073162790000015196105172582823056_);}
	.st55{filter:url(#Adobe_OpacityMaskFilter);}
	.st56{mask:url(#mask-3_3_);}
	.st57{fill:#F9A01B;}
	.st58{fill:#F47D20;}
	.st59{fill:#FFCB2A;}
	.st60{fill:#FFFFFF;fill-opacity:0.2;}
	.st61{opacity:0.2;fill:#A52A22;enable-background:new    ;}
	.st62{filter:url(#Adobe_OpacityMaskFilter_00000087380193515434668820000010165734907902941105_);}
	.st63{mask:url(#mask-3_2_);fill:none;}
	.st64{filter:url(#Adobe_OpacityMaskFilter_00000114781539301094716220000010915087929414734767_);}
	.st65{mask:url(#mask-3_1_);fill:url(#_Path_5_00000129188083991806443230000007382923234782815126_);}
	.st66{fill:#5BADE0;}
	.st67{fill:#4699D4;}
	.st68{fill:#318ECD;}
	.st69{fill:#3390CE;}
	.st70{fill:#1773B0;}
	.st71{fill:#489BD5;}
	.st72{fill:#2884C6;}
	.st73{fill:#2682C5;}
	.st74{fill:#2480C4;}
	.st75{fill:#237EC2;}
	.st76{fill:#4497D2;}
	.st77{fill:#1571AF;}
	.st78{fill:#237DC1;}
	.st79{fill:#1B72AD;}
	.st80{fill:#1B6CA3;}
	.st81{fill:#196FA9;}
	.st82{fill:#1D77BD;}
	.st83{fill:#207ABF;}
	.st84{fill:#2D7FB8;}
	.st85{fill:#3383BA;}
	.st86{fill:#287EB6;}
	.st87{fill:#63B0E1;}
	.st88{fill:#3887BC;}
	.st89{fill:#3B89BD;}
	.st90{fill:#3792D0;}
	.st91{fill:#2A78AC;}
	.st92{fill:#2973A8;}
	.st93{fill:#2A7CB3;}
	.st94{fill:#3F88BA;}
	.st95{fill:#59ABDF;}
	.st96{fill:#3A7FAF;}
	.st97{fill:#317BAC;}
	.st98{fill:#367DAE;}
	.st99{fill:#2C8BCB;}
	.st100{fill:#2E8DCC;}
	.st101{fill:#1A75B1;}
	.st102{fill:#1F77B2;}
	.st103{fill:#1D74AF;}
	.st104{fill:#1D72AA;}
	.st105{fill:#206FA5;}
	.st106{fill:#499FD8;}
	.st107{fill:#489CD6;}
	.st108{fill:#4DA1D9;}
	.st109{fill:#51A6DC;}
	.st110{fill:#4FA4DB;}
	.st111{fill:#0F72B7;}
	.st112{fill:#0770B7;}
	.st113{fill:#56A8DD;}
	.st114{fill:#2A88C9;}
	.st115{fill:#227FC3;}
	.st116{fill:#1F7DC1;}
	.st117{fill:#1D7BC0;}
	.st118{fill:#1474BB;}
	.st119{fill:#1071B9;}
	.st120{fill:#1E79BF;}
	.st121{fill:#1875BC;}
	.st122{fill:#3381B5;}
	.st123{fill:#2F7FB4;}
	.st124{fill:#3883B6;}
	.st125{fill:#267BB5;}
	.st126{fill:#297AB2;}
	.st127{fill:#3E86B6;}
	.st128{fill:#3C81B1;}
	.st129{fill:#3B87B9;}
	.st130{fill:#3A85B8;}
	.st131{fill:#2378B1;}
	.st132{fill:#2675AC;}
	.st133{fill:#2572A6;}
	.st134{fill:#0D74B8;}
	.st135{fill:#3882B4;}
	.st136{fill:#367FB2;}
	.st137{fill:#307CAF;}
	.st138{fill:#337EB0;}
	.st139{fill:#2271A5;}
	.st140{fill:#0E75BB;}
	.st141{fill:#0D73BB;}
	.st142{fill:#0B74BC;}
	.st143{fill:#1578BC;}
	.st144{fill:#1C7CC1;}
	.st145{fill:#2575AB;}
	.st146{fill:#1B7BC0;}
	.st147{fill:#1876BD;}
	.st148{fill:#1978BE;}
	.st149{fill:#3C84B4;}
	.st150{fill-rule:evenodd;clip-rule:evenodd;fill:#687E91;}
	.st151{fill:#037690;}
	.st152{fill:#F29220;}
	.st153{fill-rule:evenodd;clip-rule:evenodd;fill:#F29220;}
	.st154{fill-rule:evenodd;clip-rule:evenodd;fill:#037690;}
	.st155{display:none;}
	.st156{display:inline;fill-rule:evenodd;clip-rule:evenodd;fill:#2BB673;}
	.st157{display:inline;opacity:0.15;fill-rule:evenodd;clip-rule:evenodd;fill:#2BB673;}
</style>
<g id="Fondos_1_">
</g>
<g id="Texto">
	<g>
		<path class="st150" d="M190.39,90.45c-1.04,0-1.77,0.12-2.51,0.31v0.12h0.12c0.49,0.98,1.35,1.66,1.96,2.51
			c0.49,0.98,0.92,1.96,1.41,2.94c0.06-0.06,0.12-0.12,0.12-0.12c0.86-0.61,1.29-1.59,1.29-3.06c-0.37-0.43-0.43-0.86-0.74-1.29
			C191.68,91.24,190.88,90.94,190.39,90.45"/>
		<g>
			<path class="st151" d="M92.89,211.41H84.4c-0.3-14.33-1.13-27.8-2.48-40.42h-0.07l-12.92,40.42h-6.46l-12.85-40.42h-0.08
				c-0.95,12.12-1.55,25.59-1.8,40.42H40c0.5-18.03,1.75-34.94,3.76-50.72h10.52l12.25,37.27h0.08l12.32-37.27h10.07
				C91.19,179.17,92.49,196.08,92.89,211.41"/>
			<path class="st151" d="M129.71,173.99c-3.46,18.75-8.02,32.39-13.67,40.89c-4.41,6.55-9.24,9.83-14.5,9.83
				c-1.4,0-3.13-0.42-5.18-1.26v-4.52c1,0.15,2.18,0.23,3.53,0.23c2.45,0,4.43-0.68,5.94-2.03c1.8-1.65,2.7-3.5,2.7-5.56
				c0-1.4-0.7-4.28-2.1-8.64l-9.32-28.93h8.34l6.69,21.64c1.5,4.91,2.13,8.34,1.88,10.3c3.66-9.77,6.21-20.41,7.67-31.93H129.71z"/>
			<polygon class="st152" points="242.71,211.41 218.59,211.41 218.59,160.69 226.71,160.69 226.71,205.17 242.71,205.17 			"/>
			<path class="st153" d="M212.28,212.63l-9.32-4.6c0.83-0.68,1.62-1.42,2.33-2.27c3.96-4.65,5.94-11.54,5.94-20.66
				c0-16.78-6.59-25.17-19.76-25.17c-6.46,0-11.5,2.13-15.1,6.39c-3.96,4.66-5.94,11.52-5.94,20.59c0,8.92,1.75,15.46,5.26,19.61
				c3.21,3.76,8.04,5.63,14.5,5.63c2.41,0,4.63-0.3,6.64-0.89l12.14,7.06L212.28,212.63z M182.08,201.26
				c-2.05-3.31-3.08-8.61-3.08-15.93c0-12.77,3.88-19.16,11.65-19.16c4.06,0,7.04,1.53,8.94,4.58c2.05,3.31,3.08,8.57,3.08,15.78
				c0,12.87-3.88,19.31-11.65,19.31C186.96,205.85,183.98,204.32,182.08,201.26"/>
			<path class="st152" d="M166.89,197.35c0,4.3-1.58,7.83-4.73,10.59c-3.15,2.75-7.39,4.13-12.69,4.13c-4.96,0-9.77-1.59-14.43-4.74
				l2.18-4.36c4.01,2,7.63,3,10.89,3c3.05,0,5.44-0.68,7.17-2.02c1.73-1.35,2.76-3.24,2.76-5.63c0-3.01-2.1-5.59-5.95-7.74
				c-3.56-1.95-10.67-6.03-10.67-6.03c-3.85-2.81-5.78-5.83-5.78-10.79c0-4.11,1.44-7.43,4.32-9.96c2.88-2.53,6.6-3.8,11.16-3.8
				c4.71,0,8.99,1.26,12.85,3.76l-1.96,4.35c-3.3-1.4-6.55-2.1-9.76-2.1c-2.6,0-4.61,0.63-6.01,1.88c-1.41,1.25-2.27,2.85-2.27,4.81
				c0,3,2.15,5.61,6.11,7.81c3.6,1.95,10.89,6.11,10.89,6.11C164.92,189.43,166.89,192.42,166.89,197.35"/>
			<path class="st154" d="M252.89,143.7c-4.9-0.12-8.7,0.37-11.89,1.72c-0.92,0.37-2.39,0.37-2.51,1.53
				c0.49,0.49,0.55,1.28,0.98,1.96c0.73,1.22,2.02,2.88,3.19,3.74c1.29,0.98,2.57,1.96,3.92,2.82c2.39,1.48,5.09,2.33,7.41,3.8
				c1.35,0.86,2.7,1.96,4.05,2.88c0.67,0.49,1.1,1.29,1.96,1.59v-0.19c-0.43-0.55-0.55-1.35-0.98-1.96
				c-0.61-0.61-1.23-1.16-1.84-1.77c-1.78-2.39-3.99-4.47-6.37-6.19c-1.96-1.35-6.26-3.19-7.05-5.45c0,0-0.06-0.07-0.12-0.13
				c1.35-0.12,2.94-0.61,4.23-0.99c2.08-0.55,3.98-0.43,6.12-0.98c0.98-0.25,1.96-0.56,2.95-0.86v-0.55
				c-1.11-1.1-1.9-2.57-3.07-3.61c-3.12-2.7-6.56-5.33-10.11-7.54c-1.9-1.23-4.35-2.02-6.38-3.06c-0.73-0.37-1.96-0.55-2.39-1.17
				c-1.1-1.35-1.72-3.12-2.51-4.72c-1.77-3.37-3.49-7.1-5.02-10.66c-1.1-2.39-1.78-4.78-3.12-6.98
				c-6.32-10.42-13.18-16.73-23.72-22.92c-2.27-1.29-4.96-1.84-7.84-2.51c-1.53-0.06-3.06-0.18-4.6-0.24
				c-0.98-0.43-1.96-1.6-2.82-2.15c-3.49-2.21-12.5-6.98-15.07-0.67c-1.65,3.99,2.45,7.91,3.86,9.93c1.04,1.41,2.39,3,3.12,4.59
				c0.43,1.04,0.55,2.15,0.98,3.25c0.98,2.7,1.9,5.7,3.19,8.21c0.67,1.29,1.41,2.64,2.26,3.8c0.49,0.68,1.35,0.98,1.53,2.09
				c-0.86,1.22-0.92,3.06-1.41,4.6c-2.2,6.93-1.35,15.5,1.78,20.59c0.98,1.53,3.31,4.9,6.44,3.61c2.76-1.1,2.14-4.59,2.94-7.66
				c0.18-0.74,0.06-1.23,0.43-1.72v0.12c0.86,1.71,1.72,3.36,2.51,5.09c1.9,3,5.21,6.13,7.97,8.21c1.47,1.11,2.63,3,4.47,3.68v-0.19
				h-0.12c-0.37-0.55-0.92-0.8-1.41-1.22c-1.1-1.1-2.33-2.45-3.19-3.68c-2.57-3.43-4.84-7.23-6.86-11.15
				c-0.98-1.9-1.84-3.99-2.64-5.88c-0.37-0.73-0.37-1.84-0.98-2.2c-0.92,1.35-2.27,2.51-2.94,4.16c-1.16,2.64-1.29,5.89-1.72,9.26
				c-0.24,0.06-0.12,0-0.24,0.12c-1.96-0.49-2.63-2.51-3.37-4.22c-1.84-4.36-2.15-11.34-0.55-16.37c0.43-1.28,2.27-5.33,1.53-6.55
				c-0.37-1.17-1.59-1.84-2.27-2.76c-0.8-1.16-1.66-2.63-2.2-3.92c-1.47-3.43-2.21-7.23-3.8-10.66c-0.74-1.6-2.03-3.25-3.06-4.72
				c-1.17-1.66-2.45-2.82-3.37-4.78c-0.3-0.68-0.73-1.78-0.25-2.51c0.12-0.49,0.37-0.68,0.86-0.8c0.79-0.67,3.06,0.18,3.86,0.55
				c2.27,0.92,4.17,1.78,6.07,3.06c0.86,0.61,1.78,1.78,2.88,2.09h1.29c1.96,0.43,4.17,0.12,6.01,0.67
				c3.25,1.04,6.19,2.57,8.82,4.23c8.02,5.09,14.64,12.32,19.12,20.96c0.74,1.41,1.05,2.7,1.72,4.16c1.29,3.01,2.88,6.07,4.17,9.01
				c1.29,2.88,2.52,5.82,4.35,8.21c0.92,1.29,4.6,1.96,6.25,2.63c1.22,0.55,3.12,1.04,4.23,1.71c2.08,1.29,4.16,2.76,6.13,4.17
				C249.64,140.94,252.71,142.47,252.89,143.7"/>
			<path class="st152" d="M258.73,211.4H260v-6.21h-1.91l-1.55,4.24l-1.69-4.24h-1.84v6.21h1.2v-4.73h0.07l1.77,4.73h0.91l1.77-4.73
				V211.4z M248.5,211.4h1.34v-5.16h1.76v-1.05h-4.93v1.05h1.83V211.4z"/>
		</g>
	</g>
</g>
<g id="Guides">
</g>
<g id="Layer_5" class="st155">
	<rect x="59.79" y="59.6" class="st156" width="180.21" height="180.21"/>
</g>
</svg>
