<svg xmlns="http://www.w3.org/2000/svg" viewBox="0 0 300 300"><defs><style>.cls-1{fill:#484848;}.cls-2{fill:#fff;}</style></defs><g id="Fondos"><rect class="cls-1" width="300" height="300"/></g><g id="Texto"><path class="cls-2" d="M161.79,228.69h-12c-.13-.37-.46-.28-.73-.3a78.9,78.9,0,0,1-10.47-1.76,73.23,73.23,0,0,1-54.82-60c-.24-1.6-.15-3.26-.81-4.78V149.6c.37-.13.28-.46.3-.73a78.9,78.9,0,0,1,1.76-10.47,73.25,73.25,0,0,1,60-54.83,22.33,22.33,0,0,0,5.07-.8h11.68c.14.37.47.26.74.29A74.21,74.21,0,0,1,173,84.78a73.18,73.18,0,0,1,55.11,60c.24,1.69.16,3.44.8,5.07v12c-.37.13-.28.46-.3.73a78.9,78.9,0,0,1-1.76,10.47c-6.77,28.42-31,50.57-60,54.82C165.17,228.13,163.42,228.05,161.79,228.69Zm-22.06-33.18a4,4,0,0,0,.18-.36q6.92-20.72,13.84-41.42a2.37,2.37,0,0,0-.1-1.68q-4.76-13-9.45-26a1.63,1.63,0,0,0-1.69-1.21c-1.94-.13-3.88-.29-5.81-.55a2.49,2.49,0,0,1-2.25-2.86,2.6,2.6,0,0,1,2.72-2.48c.77,0,1.55.06,2.33.12,5.53.37,11.06.77,16.61.68,5.2-.09,10.4-.41,15.59-.8a2.72,2.72,0,1,1,.76,5.38c-1.87.27-3.77.36-5.66.5s-1.8.11-1.24,1.77q11.28,33.6,22.59,67.18c.13.41.06,1,.66,1.17q4.37-14.43,8.73-28.85c.41-1.34.76-2.71,1.15-4.06a32.05,32.05,0,0,0,.14-19,50.65,50.65,0,0,0-5.66-11.45,32,32,0,0,1-4.39-9.31c-1.35-5.58.87-11.13,5.49-13.73a12.11,12.11,0,0,1,6-1.37C183.15,92.69,164,87.18,142.34,91.62c-17.42,3.57-30.95,13.2-41.28,28.16,2.06,0,3.66,0,5.25,0,4.91-.13,9.82-.34,14.71-.73a17.41,17.41,0,0,1,2-.09,2.68,2.68,0,0,1,.57,5.28,56.57,56.57,0,0,1-6.23.58c-1.36.05-1.58.41-1.14,1.71q11.43,33.84,22.81,67.72C139.21,194.67,139.19,195.23,139.73,195.51ZM157.26,162l-.32,0q-1.58,4.6-3.17,9.21-7.94,23-15.86,46.09c-.23.64-.84,1.33.55,1.7a65.83,65.83,0,0,0,38.19-1c.75-.25,1-.41.64-1.28q-7.8-21.16-15.5-42.36Zm-30,52.63L96.06,129.13C81.42,162.15,96.4,199.88,127.25,214.58Zm62.11-2.36c16.48-10.32,27.07-24.74,30.9-43.82a63.27,63.27,0,0,0-6.42-43.16,14.13,14.13,0,0,0,0,2.76,46.76,46.76,0,0,1-.3,9.31c-.7,6.18-2.72,12-4.77,17.81-6.48,18.44-12.82,36.93-19.2,55.4C189.44,211,189.05,211.46,189.36,212.22Z"/></g></svg>