<?xml version="1.0" encoding="UTF-8"?><svg xmlns="http://www.w3.org/2000/svg" viewBox="0 0 300 300"><defs><style>.cls-1{fill:#fff;}.cls-2{fill:#04694b;}</style></defs><g id="Fondos-Blancos"><rect class="cls-1" width="300" height="300"/></g><g id="Texto"><g><path class="cls-2" d="m43.68,124.96c-2.45-2.9-4.55-5.85-4.98-6.46-.05-.05-.11-.05-.16,0-.43.61-2.54,3.56-4.98,6.46-21,26.79,3.31,44.86,3.31,44.86l.2.14c.18,2.79.63,6.8.63,6.8h1.81s.45-3.99.63-6.8l.2-.16s24.33-18.05,3.33-44.84Zm-5.08,44.48s-1.09-.93-1.38-1.41v-.05l1.31-29.17c0-.09.14-.09.14,0l1.31,29.17v.05c-.29.48-1.38,1.41-1.38,1.41Z"/><path class="cls-2" d="m84.1,163.29l-10.13-24.57-.02-.07h-7.88v1.65h1.27c.39,0,.75.16,1.02.43.27.27.41.63.41,1.02l-.23,24.72c0,.77-.64,1.4-1.41,1.43l-1.29.02v1.63h7.68v-1.63l-.8-.02c-.77-.02-1.41-.66-1.41-1.43v-23.3l11.04,26.38c.16.38.52.63.93.63s.77-.25.93-.63l10.79-25.79.16,22.71c0,.79-.64,1.43-1.43,1.45h-.82v1.63h9v-1.63h-1.23c-.77,0-1.41-.66-1.43-1.43l-.07-24.72c0-.79.64-1.43,1.41-1.45l1.32-.02v-1.65h-7.68l-10.13,24.63Z"/><path class="cls-2" d="m154.73,167.5c-.25-.25-.39-.59-.39-.99v-12.11c0-2.3-.68-4.11-2.05-5.4-1.34-1.29-3.21-1.94-5.53-1.94-3.26,0-5.83,1.31-7.63,3.89-.02.05-.09.07-.16.07s-.11-.05-.11-.11l-.84-3.23h-1.41l-3.62,2.06v1.13h.93c.43,0,.8.11,1.05.34.25.23.39.56.39,1.04v14.26c0,.41-.14.75-.39.99-.25.25-.59.38-1,.38h-.91v1.65h8.34v-1.65h-.91c-.41,0-.75-.14-1-.38-.25-.25-.39-.59-.39-.99v-9.44c0-1.2.27-2.39.77-3.57.52-1.15,1.3-2.12,2.32-2.87,1.02-.75,2.25-1.11,3.67-1.11,1.59,0,2.8.5,3.55,1.49.75.99,1.14,2.28,1.14,3.82v11.66c0,.41-.14.75-.39.99-.25.25-.59.38-1,.38h-.91v1.65h8.34v-1.65h-.91c-.34.05-.66-.09-.93-.34Z"/><path class="cls-2" d="m230.89,140.52c-2.3-1.23-4.88-1.86-7.66-1.86h-10.84v1.66h1.06c.41,0,.77.16,1.13.52.34.34.52.73.52,1.14v24.45c0,.41-.18.8-.52,1.14-.34.34-.72.52-1.13.52h-1.06v1.66h10.84c2.78,0,5.35-.64,7.66-1.86,2.3-1.23,4.18-3.04,5.53-5.36,1.36-2.32,2.06-5.11,2.06-8.29s-.7-5.95-2.06-8.29c-1.38-2.36-3.23-4.18-5.53-5.41Zm3.23,13.65c0,2.91-.52,5.36-1.54,7.34-1.02,1.98-2.37,3.45-4.04,4.41-1.67.95-3.52,1.43-5.51,1.43h-2.19c-.41,0-.77-.16-1.13-.52-.34-.34-.52-.73-.52-1.14v-23.06c0-.41.16-.77.52-1.14.34-.34.72-.52,1.13-.52h2.19c1.99,0,3.84.48,5.51,1.43,1.67.95,3.03,2.43,4.04,4.41,1.02,1.98,1.54,4.45,1.54,7.36Z"/><path class="cls-2" d="m264.1,155.83c-1-1.16-2.94-2.14-5.21-2.66,3.14-1.57,4.76-3.77,4.76-6.61,0-1.54-.41-2.93-1.23-4.11-.82-1.18-1.98-2.14-3.46-2.79-1.48-.66-3.21-1-5.17-1h-12.27v1.66h.98c.41,0,.77.16,1.14.52.34.34.52.73.52,1.14v24.45c0,.41-.18.8-.52,1.14-.34.34-.73.52-1.14.52h-1.07v1.66h13.32c2.03,0,3.92-.34,5.62-1.02,1.71-.68,3.07-1.68,4.05-3,1-1.32,1.5-2.93,1.5-4.79-.02-2-.61-3.7-1.82-5.09Zm-15.28,11.02c-.34-.34-.52-.73-.52-1.14v-10.97h6.33c2.23,0,3.94.57,5.12,1.7,1.18,1.14,1.78,2.61,1.78,4.43,0,1.09-.27,2.16-.77,3.14-.52,1-1.3,1.79-2.35,2.41-1.03.61-2.3.93-3.78.93h-4.67c-.41.02-.77-.16-1.14-.5Zm-.5-14.45v-9.75c0-.41.16-.77.52-1.14.34-.34.73-.52,1.14-.52h3.01c2.16,0,3.76.55,4.76,1.59,1,1.07,1.5,2.43,1.5,4.11s-.48,3.11-1.41,4.16c-.93,1.02-2.35,1.54-4.21,1.54h-5.31Z"/><path class="cls-2" d="m123,148.5c-1.74-.95-3.68-1.45-5.78-1.45s-4.07.48-5.78,1.45c-1.74.95-3.12,2.33-4.14,4.08-1.02,1.74-1.54,3.78-1.54,6.05s.52,4.3,1.54,6.05c1.02,1.74,2.4,3.12,4.14,4.08,1.74.95,3.68,1.45,5.78,1.45s4.07-.48,5.78-1.45c1.74-.95,3.12-2.33,4.14-4.08,1.02-1.74,1.54-3.78,1.54-6.05s-.52-4.3-1.54-6.05c-1.02-1.74-2.4-3.1-4.14-4.08Zm1.67,10.12c0,2.78-.68,5.05-2.03,6.68-1.33,1.63-3.16,2.47-5.42,2.47s-4.09-.84-5.42-2.47c-1.36-1.63-2.03-3.89-2.03-6.68s.68-5.05,2.03-6.68c1.33-1.63,3.16-2.47,5.42-2.47s4.09.84,5.42,2.47c1.36,1.65,2.03,3.89,2.03,6.68Z"/><path class="cls-2" d="m203.09,148.5c-1.74-.95-3.68-1.45-5.78-1.45s-4.07.48-5.78,1.45c-1.74.95-3.12,2.33-4.14,4.08s-1.54,3.78-1.54,6.05.52,4.3,1.54,6.05,2.4,3.12,4.14,4.08c1.74.95,3.68,1.45,5.78,1.45s4.07-.48,5.78-1.45c1.74-.95,3.12-2.33,4.14-4.08s1.54-3.78,1.54-6.05-.52-4.3-1.54-6.05-2.42-3.1-4.14-4.08Zm1.67,10.12c0,2.78-.68,5.05-2.03,6.68-1.33,1.63-3.16,2.47-5.42,2.47s-4.09-.84-5.42-2.47c-1.36-1.63-2.03-3.89-2.03-6.68s.68-5.05,2.03-6.68c1.33-1.63,3.16-2.47,5.42-2.47s4.09.84,5.42,2.47c1.33,1.65,2.03,3.89,2.03,6.68Z"/><path class="cls-2" d="m170.79,147.05c-1.82,0-3.48.39-4.98,1.16-1.5.77-2.69,1.82-3.53,3.16-.84,1.32-1.27,2.8-1.27,4.37,0,1.41.32,2.71.98,3.87.64,1.11,1.5,2.05,2.59,2.82l-3.25,4.41c-.41.55-.46,1.27-.16,1.87.32.61.91.98,1.59.98h.93c-.91.61-1.64,1.34-2.14,2.21-.59.98-.89,2-.89,3.05,0,1.96.86,3.57,2.57,4.78,1.68,1.21,4.05,1.82,7.03,1.82,2.07,0,4.05-.34,5.85-1,1.82-.66,3.3-1.64,4.39-2.91,1.12-1.27,1.68-2.82,1.68-4.59,0-1.87-.68-3.18-2.28-4.46-1.37-1.07-3.5-1.64-6.17-1.64h-9.1s-.05-.02-.05-.02c0,0-.02-.05,0-.07l2.37-3.18c.64.3,1.23.48,1.75.59.55.11,1.16.16,1.84.16,1.91,0,3.64-.39,5.14-1.16,1.5-.77,2.71-1.82,3.57-3.16.86-1.32,1.3-2.8,1.3-4.37,0-1.68-.82-4.75-3.05-6.32,0-.02.02-.02.02-.02l4.89.55v-2.25h-7.83c-1.23-.41-2.5-.61-3.82-.61Zm2.73,14.22c-.86.45-1.8.71-2.73.71-1.52,0-2.87-.55-4.01-1.62-1.14-1.07-1.71-2.64-1.71-4.64s.57-3.57,1.71-4.64c1.14-1.07,2.48-1.62,4.01-1.62.96,0,1.87.23,2.73.71.86.45,1.57,1.16,2.14,2.09.55.93.84,2.09.84,3.46s-.27,2.55-.84,3.46c-.55.93-1.27,1.64-2.14,2.09Zm-6.17,8.39h6.17c1.71,0,2.8.34,3.53,1.07.73.73,1.09,1.71,1.09,2.84,0,1.66-.66,3.03-1.98,4.05-1.32,1.02-3.1,1.55-5.28,1.55-1.91,0-3.5-.43-4.67-1.25-1.16-.82-1.75-2.07-1.75-3.66,0-1,.27-1.93.82-2.75.55-.82,1.21-1.41,2.07-1.84Z"/><path class="cls-2" d="m270.54,169.36c-.45-.25-.79-.6-1.06-1.03-.25-.45-.38-.92-.38-1.43s.14-1,.38-1.43c.25-.45.61-.78,1.06-1.03.45-.25.95-.38,1.51-.38s1.06.13,1.51.38c.45.25.79.6,1.06,1.03.25.45.38.92.38,1.43s-.14,1-.38,1.43c-.25.45-.61.78-1.06,1.03-.45.25-.95.38-1.51.38s-1.06-.13-1.51-.38Zm2.77-.34c.38-.2.65-.51.88-.87.2-.38.32-.8.32-1.27s-.11-.89-.32-1.27c-.2-.38-.5-.67-.88-.87-.38-.2-.79-.31-1.26-.31s-.88.11-1.26.31c-.38.2-.65.51-.88.87-.2.38-.32.8-.32,1.27s.11.89.32,1.27c.2.38.5.67.88.87.38.2.79.31,1.26.31s.9-.11,1.26-.31Zm-2.48-.78v-.2l.05-.02h.14s.09-.02.11-.04c.05-.04.05-.07.05-.11v-2.08s-.02-.09-.05-.11c-.05-.04-.07-.04-.11-.04h-.14l-.05-.02v-.2l.05-.02h1.17c.34,0,.59.07.79.22.2.16.29.36.29.63,0,.2-.07.4-.22.54-.16.16-.34.25-.56.27l.27.09.52.83c.05.07.09.09.16.09h.13l.02.02v.2l-.02.02h-.7l-.05-.02-.72-1.21h-.18v.8s.02.09.05.11c.05.04.07.04.11.04h.14l.05.02v.2l-.05.02h-1.19l-.05-.02Zm1.15-1.45c.18,0,.34-.04.43-.16.09-.09.16-.25.16-.42s-.05-.31-.13-.42c-.09-.11-.23-.16-.38-.16h-.09s-.09.02-.11.04c-.05.04-.05.07-.05.11v1h.18Z"/></g></g></svg>