<svg xmlns="http://www.w3.org/2000/svg" viewBox="0 0 300 300"><defs><style>.cls-1{fill:#17aa4f;}.cls-2{fill:#b8c4c2;}.cls-3{fill:#14924f;}.cls-4{fill:#22323d;}</style></defs><g id="Texto"><path class="cls-1" d="M59.26,150.05c-3.5-15.43-10.79-19.53-12.64-22.44a32.44,32.44,0,0,1-2-4,4,4,0,0,1-1.44,3.28C40.8,129,30.87,137.09,30,154.61c-.77,16.34,12,26.42,13.71,27.46a3.74,3.74,0,0,0,3.65-.58C53.56,177.26,62,166,59.26,150.05"/><path class="cls-2" d="M45.11,173.37c-.32,4-.55,6.39-1.37,8.7,0,0,.54,3.85.92,7.93H46a75,75,0,0,1,1.45-8.54C45.72,180.61,45.18,176.91,45.11,173.37Z"/><path class="cls-3" d="M47.44,181.46h0c-1.74-.8-2.25-4.58-2.32-8.09a166.43,166.43,0,0,0,.37-17.44c-.09-3.05,0-28.26-.75-31.95a29.71,29.71,0,0,0,1.88,3.63c1.85,2.91,9.14,7,12.64,22.44C62,166,53.6,177.2,47.44,181.46Z"/><path class="cls-4" d="M221,172.43c1,.82,3.07,1.16,4.88,1.16a9.48,9.48,0,0,0,6.88-2.46c2.28-2.07,3.85-5.25,3.85-10.32,0-4.88-1.85-8.83-5.66-11.15a15.1,15.1,0,0,0-8.1-1.88,6.72,6.72,0,0,0-2.38.29,1.25,1.25,0,0,0-.44.69c-.1.87-.1,7.47-.1,11.38s0,9.59.1,10.28a2.93,2.93,0,0,0,1,2m-9.74-26.83c.83,0,4,.15,5.45.15,2.74,0,4.63-.15,9.76-.15,4.29,0,7.9,1.16,10.48,3.38a14,14,0,0,1,4.8,11c0,6.51-3,10.27-6,12.39s-6.83,3.48-12.34,3.48c-2.92,0-7.95-.1-12.14-.15h-.09c-.2-.38.36-1.89.7-1.93a6,6,0,0,0,2-.39c.88-.36,1.09-.81,1.19-2.4.15-3,.1-6.56.1-10.62,0-2.89,0-8.54-.05-10.32-.15-1.5-.78-1.88-2-2.17-.91-.19-1.82-.34-2.75-.44a4.91,4.91,0,0,1,.9-1.88"/><path class="cls-4" d="M253.86,148.06c-.19.05-.44.53-.44.77,0,1.74-.1,6.27-.1,9.41a.32.32,0,0,0,.25.24c.63.05,2.19.1,3.51.1a8.31,8.31,0,0,0,3.51-.53,4.54,4.54,0,0,0,2.29-4.3c0-4.19-2.93-5.79-7.27-5.79a14.72,14.72,0,0,0-1.76.1m11.08,19.3c0-4.25-3.13-6.66-8.84-6.66a21.28,21.28,0,0,0-2.48.05c-.15.05-.29.14-.29.24,0,3,0,7.91.09,9.84a3.28,3.28,0,0,0,1.42,2.32,9.85,9.85,0,0,0,3.75.53c3.37,0,6.35-1.88,6.35-6.32M245.05,145.7c.44,0,1.73.14,5,.14,3.12,0,5.66-.09,8.68-.09,3.76,0,8.93,1.35,8.93,6.94a6.76,6.76,0,0,1-4.49,6c-.15.05-.15.15,0,.19,3.61.92,6.78,3.14,6.78,7.39s-2.59,6.75-6.34,8.39a20.21,20.21,0,0,1-8,1.35c-2.2,0-8.08-.23-11.35-.19-.34-.15.31-1.69.6-1.93a8.79,8.79,0,0,0,2.22-.35c1.17-.29,1.3-.66,1.45-2.4.1-1.5.1-6.85.1-10.66,0-5.21.05-8.73,0-10.47-.05-1.35-.54-1.79-1.46-2-.74-.14-2-.29-2.93-.43-.24-.24.51-1.69.75-1.88"/><path class="cls-4" d="M70.06,175.89a2.34,2.34,0,0,1-.15-1,1.24,1.24,0,0,1,.15-.65,16.74,16.74,0,0,0,1.87-.38c.87-.21,1.19-.69,1.24-1.79.14-2.6.15-7.48.1-10.91v-.1a1.39,1.39,0,0,0-.45-1.22,10,10,0,0,0-2.59-1.15c-.41-.12-.64-.33-.62-.58s.26-.55.8-.66a30.17,30.17,0,0,0,6.57-1.7,1,1,0,0,1,.19.69,4.23,4.23,0,0,1,0,.48c0,.48-.08,1-.08,1.58a.36.36,0,0,0,.4.31.41.41,0,0,0,.21-.1c2.77-2.18,5.25-2.95,6.52-2.95a5.6,5.6,0,0,1,5,3.06.37.37,0,0,0,.28.17.33.33,0,0,0,.27-.15c2.55-1.93,5.07-3.08,6.76-3.08,4,0,6.38,3,6.38,8,0,1.44,0,3.27,0,5,0,1.49,0,2.89,0,3.86a1.31,1.31,0,0,0,.79,1,9.62,9.62,0,0,0,2.49.62h0a3.73,3.73,0,0,1-.25,1.63l-1.09,0c-.83,0-2-.1-3.29-.1-2.65,0-4,.05-5.36.14a3.9,3.9,0,0,1,0-1.63,13,13,0,0,0,1.62-.35c.85-.28,1.09-.66,1.14-1.79,0-.79.18-7.82-.1-9.48a4.24,4.24,0,0,0-4.4-3.75A7.74,7.74,0,0,0,90,160.53a.57.57,0,0,0-.16.41v0a18.08,18.08,0,0,1,.19,3.53c0,.92,0,1.87,0,2.82,0,1.94,0,3.77,0,5.15a1.29,1.29,0,0,0,1,1.34l.65.15c.38.1.78.19,1.37.29a2.61,2.61,0,0,1,0,1.21,1,1,0,0,1-.18.41c-1.47,0-3-.09-5.17-.09-.66,0-1.74,0-2.7.05l-1.92,0a1.89,1.89,0,0,1-.14-.84,1.44,1.44,0,0,1,.15-.79l.59-.11c.51-.09,1-.17,1.37-.27.72-.23,1-.62,1-1.54a73.38,73.38,0,0,0,0-9.88c-.52-2.49-1.93-3.75-4.2-3.75a7.87,7.87,0,0,0-4.39,1.67,1.34,1.34,0,0,0-.41,1v2.55c0,3.11,0,7,.06,8.65a1.37,1.37,0,0,0,1.19,1.35c.21.06.58.12,1,.19l.79.13a3.51,3.51,0,0,1-.13,1.64c-.42,0-.95,0-1.54-.06-.92,0-2.06-.09-3.35-.09-1.53,0-2.59,0-3.44.09l-1.56.06"/><path class="cls-4" d="M119,157.84a4.15,4.15,0,0,0-2.32.66c-1.7,1-2.56,3.09-2.56,6.11,0,5.66,2.83,9.61,6.89,9.61a4.3,4.3,0,0,0,3-1.05c1.25-1,1.91-3.09,1.91-6,0-5.58-2.77-9.33-6.89-9.33m.78,18.48c-7.33,0-9.94-5.38-9.94-10.41a9.33,9.33,0,0,1,4.27-8.17,13.06,13.06,0,0,1,6.6-2c5.59,0,9.5,4,9.5,9.79a10.11,10.11,0,0,1-4.51,8.93,12.81,12.81,0,0,1-5.92,1.81"/><path class="cls-4" d="M193.66,157.84a4.2,4.2,0,0,0-2.33.66c-1.69,1-2.56,3.09-2.56,6.11,0,5.66,2.84,9.61,6.89,9.61a4.35,4.35,0,0,0,3-1.05c1.24-1,1.9-3.09,1.9-6,0-5.58-2.76-9.33-6.89-9.33m.79,18.48c-7.34,0-9.95-5.38-9.95-10.41a9.31,9.31,0,0,1,4.28-8.17,13,13,0,0,1,6.59-2c5.6,0,9.5,4,9.5,9.78a10.12,10.12,0,0,1-4.51,8.94,12.77,12.77,0,0,1-5.91,1.81"/><path class="cls-4" d="M169,157.65c-2.26,0-3.72,1.79-3.72,4.55s1.26,6,4.8,6a3.42,3.42,0,0,0,2.25-.87,5.66,5.66,0,0,0,1.37-4c0-3.6-1.75-5.75-4.69-5.75m-.29,19.06a3.76,3.76,0,0,0-1.83.45c-1.78,1.15-2.61,2.29-2.61,3.61a3.83,3.83,0,0,0,1.52,3.11,7.65,7.65,0,0,0,5.17,1.58c4.39,0,6.35-2.35,6.35-4.69a3.34,3.34,0,0,0-2.49-3.33,19.74,19.74,0,0,0-6.1-.73M169,187.9a9.47,9.47,0,0,1-6.14-1.8,5.76,5.76,0,0,1-2.29-4.27,3.37,3.37,0,0,1,.87-2.17,22.3,22.3,0,0,1,4-3.18.21.21,0,0,0,.13-.2.22.22,0,0,0-.16-.2,4.16,4.16,0,0,1-2.81-2.74.22.22,0,0,0,0-.1.63.63,0,0,1,.25-.79c.28-.2.74-.47,1.22-.76a16.83,16.83,0,0,0,2-1.27.33.33,0,0,0,0-.46l-.07-.05c-3-1-4.5-3.22-4.5-6.62a6.58,6.58,0,0,1,2.76-5.42,12.67,12.67,0,0,1,6.19-2.1h.11a12.8,12.8,0,0,1,4.72,1.06,7.56,7.56,0,0,0,2.79.44,3.79,3.79,0,0,0,3-1.14,2.79,2.79,0,0,1,.16.86,3.17,3.17,0,0,1-.55,2,2.47,2.47,0,0,1-1.87.82h-.23a6.31,6.31,0,0,1-1.14-.19l-.19.06c-.06.09,0,.19,0,.31l0,.07a14.47,14.47,0,0,1,.27,1.85c0,3.55-1.4,5.1-2.92,6.25a9.87,9.87,0,0,1-5,1.94h0l-.58.05-.57,0h0c-.32.09-1.18.5-1.18,1.26s.38,1.41,2.24,1.55l1.2.09a36.61,36.61,0,0,1,6.95.87,4.81,4.81,0,0,1,3.21,4.63c0,3.18-2.27,6.18-6.06,8a13.08,13.08,0,0,1-5.73,1.29"/><path class="cls-4" d="M157.78,174.19a8.7,8.7,0,0,1-2.78-.73,1.23,1.23,0,0,1-.34-.68c-.1-1.5-.1-5.84-.1-8.68a10.38,10.38,0,0,0-1.37-5.79,5.87,5.87,0,0,0-5-2.6c-1.9,0-4.44,1.3-6.54,3.08,0,.05-.37.36-.36-.12s.08-1.44.13-2a1.08,1.08,0,0,0-.32-.9,28.93,28.93,0,0,1-6.64,1.74c-1,.2-1.3,1.2-.19,1.54h0a9.62,9.62,0,0,1,2.52,1.11,1.35,1.35,0,0,1,.39,1.21c0,3.23,0,8.2-.1,10.9-.05,1.06-.34,1.45-1.13,1.64l.08,0a14.06,14.06,0,0,1-1.81.34,2.68,2.68,0,0,0,0,1.93c.49,0,3-.14,5-.14,2.83,0,4.3.14,5,.14a2.74,2.74,0,0,0,.2-1.93,10.48,10.48,0,0,1-2-.29c-.78-.19-1-.58-1-1.44-.1-2.27-.1-7.1-.1-10.38a2,2,0,0,1,.54-1.6,6.46,6.46,0,0,1,4-1.44,4.37,4.37,0,0,1,3,1,4.13,4.13,0,0,1,1.4,2.73c.19,1.82.14,5.5.14,8.67,0,1.74-.14,2.18-.78,2.37a8.14,8.14,0,0,1-2,.39,2.63,2.63,0,0,0,0,1.93c1.27,0,2.74-.15,4.88-.15,2.68,0,4.39.15,5.07.15a2.72,2.72,0,0,0,.2-1.93"/></g></svg>