<?xml version="1.0" encoding="utf-8"?>
<!-- Generator: Adobe Illustrator 25.4.1, SVG Export Plug-In . SVG Version: 6.00 Build 0)  -->
<svg version="1.1" xmlns="http://www.w3.org/2000/svg" xmlns:xlink="http://www.w3.org/1999/xlink" x="0px" y="0px"
	 viewBox="0 0 300 300" style="enable-background:new 0 0 300 300;" xml:space="preserve">
<style type="text/css">
	.st0{fill:#4674B9;}
	.st1{fill:#2C2C32;}
	.st2{fill:#010101;}
	.st3{fill:#F6DF19;}
	.st4{fill:#2363AF;}
	.st5{fill:#F0672B;}
	.st6{fill:#101215;}
	.st7{fill:#492D8C;}
	.st8{fill:#F36C3D;}
	.st9{fill:#7756A3;}
	.st10{fill:#679E63;}
	.st11{fill:#484848;}
	.st12{fill:#1B1F23;}
	.st13{fill:#EF7729;}
	.st14{fill:#4791CE;}
	.st15{fill:#F6F6F6;}
	.st16{fill:#4A4A4D;}
	.st17{fill:#C54027;}
	.st18{fill:#3978BD;}
	.st19{fill:#CC6899;}
	.st20{fill:#12364F;}
	.st21{fill:#316A9A;}
	.st22{fill:#FFD53E;}
	.st23{fill:#693994;}
	.st24{fill:#FFFFFF;}
	.st25{fill-rule:evenodd;clip-rule:evenodd;fill:#FFFFFF;}
	.st26{fill-rule:evenodd;clip-rule:evenodd;fill:url(#XMLID_00000168114701316563583240000000769906133058491030_);}
	.st27{clip-path:url(#XMLID_00000075131257631522464230000010373560252974785432_);}
	.st28{fill:none;}
	.st29{opacity:0.66;fill:#4B4B4B;}
	.st30{fill:url(#SVGID_1_);}
	.st31{opacity:0.05;fill:#010101;enable-background:new    ;}
	.st32{fill:#17AA4F;}
	.st33{fill:#B8C4C2;}
	.st34{fill:#14924F;}
	.st35{fill:#22323D;}
	.st36{fill:#F26424;}
	.st37{fill:#4E4E4E;}
	.st38{fill:#3B2F14;}
	.st39{fill:#F58772;}
	.st40{fill:#F05233;}
	.st41{fill:#433527;}
	.st42{fill:#DD1E34;}
	.st43{fill:#C32033;}
	.st44{fill:#F9F9FA;}
	.st45{fill:#7253A2;}
	.st46{fill:#4674B9;stroke:#FFFFFF;stroke-width:8;stroke-miterlimit:10;}
	.st47{fill:#EF4623;}
	.st48{fill:#4EB987;}
	.st49{fill:#455567;}
	.st50{fill:#F1F2F2;}
	.st51{fill:#70CEEF;}
	.st52{fill:#70CFF0;}
	.st53{opacity:0.7;fill:#2C384A;enable-background:new    ;}
	.st54{fill:url(#path-2_00000173868434324128729500000010741819513849698955_);}
	.st55{filter:url(#Adobe_OpacityMaskFilter);}
	.st56{mask:url(#mask-3_3_);}
	.st57{fill:#F9A01B;}
	.st58{fill:#F47D20;}
	.st59{fill:#FFCB2A;}
	.st60{fill:#FFFFFF;fill-opacity:0.2;}
	.st61{opacity:0.2;fill:#A52A22;enable-background:new    ;}
	.st62{filter:url(#Adobe_OpacityMaskFilter_00000073699679393565454970000009749579814415697322_);}
	.st63{mask:url(#mask-3_2_);fill:none;}
	.st64{filter:url(#Adobe_OpacityMaskFilter_00000003076868983184061470000011762727425100030861_);}
	.st65{mask:url(#mask-3_1_);fill:url(#_Path_5_00000124143388994059934640000018314174756431649449_);}
	.st66{fill:#5BADE0;}
	.st67{fill:#4699D4;}
	.st68{fill:#318ECD;}
	.st69{fill:#3390CE;}
	.st70{fill:#1773B0;}
	.st71{fill:#489BD5;}
	.st72{fill:#2884C6;}
	.st73{fill:#2682C5;}
	.st74{fill:#2480C4;}
	.st75{fill:#237EC2;}
	.st76{fill:#4497D2;}
	.st77{fill:#1571AF;}
	.st78{fill:#237DC1;}
	.st79{fill:#1B72AD;}
	.st80{fill:#1B6CA3;}
	.st81{fill:#196FA9;}
	.st82{fill:#1D77BD;}
	.st83{fill:#207ABF;}
	.st84{fill:#2D7FB8;}
	.st85{fill:#3383BA;}
	.st86{fill:#287EB6;}
	.st87{fill:#63B0E1;}
	.st88{fill:#3887BC;}
	.st89{fill:#3B89BD;}
	.st90{fill:#3792D0;}
	.st91{fill:#2A78AC;}
	.st92{fill:#2973A8;}
	.st93{fill:#2A7CB3;}
	.st94{fill:#3F88BA;}
	.st95{fill:#59ABDF;}
	.st96{fill:#3A7FAF;}
	.st97{fill:#317BAC;}
	.st98{fill:#367DAE;}
	.st99{fill:#2C8BCB;}
	.st100{fill:#2E8DCC;}
	.st101{fill:#1A75B1;}
	.st102{fill:#1F77B2;}
	.st103{fill:#1D74AF;}
	.st104{fill:#1D72AA;}
	.st105{fill:#206FA5;}
	.st106{fill:#499FD8;}
	.st107{fill:#489CD6;}
	.st108{fill:#4DA1D9;}
	.st109{fill:#51A6DC;}
	.st110{fill:#4FA4DB;}
	.st111{fill:#0F72B7;}
	.st112{fill:#0770B7;}
	.st113{fill:#56A8DD;}
	.st114{fill:#2A88C9;}
	.st115{fill:#227FC3;}
	.st116{fill:#1F7DC1;}
	.st117{fill:#1D7BC0;}
	.st118{fill:#1474BB;}
	.st119{fill:#1071B9;}
	.st120{fill:#1E79BF;}
	.st121{fill:#1875BC;}
	.st122{fill:#3381B5;}
	.st123{fill:#2F7FB4;}
	.st124{fill:#3883B6;}
	.st125{fill:#267BB5;}
	.st126{fill:#297AB2;}
	.st127{fill:#3E86B6;}
	.st128{fill:#3C81B1;}
	.st129{fill:#3B87B9;}
	.st130{fill:#3A85B8;}
	.st131{fill:#2378B1;}
	.st132{fill:#2675AC;}
	.st133{fill:#2572A6;}
	.st134{fill:#0D74B8;}
	.st135{fill:#3882B4;}
	.st136{fill:#367FB2;}
	.st137{fill:#307CAF;}
	.st138{fill:#337EB0;}
	.st139{fill:#2271A5;}
	.st140{fill:#0E75BB;}
	.st141{fill:#0D73BB;}
	.st142{fill:#0B74BC;}
	.st143{fill:#1578BC;}
	.st144{fill:#1C7CC1;}
	.st145{fill:#2575AB;}
	.st146{fill:#1B7BC0;}
	.st147{fill:#1876BD;}
	.st148{fill:#1978BE;}
	.st149{fill:#3C84B4;}
	.st150{fill-rule:evenodd;clip-rule:evenodd;fill:#687E91;}
	.st151{fill:#037690;}
	.st152{fill:#F29220;}
	.st153{fill-rule:evenodd;clip-rule:evenodd;fill:#F29220;}
	.st154{fill-rule:evenodd;clip-rule:evenodd;fill:#037690;}
	.st155{display:none;}
	.st156{display:inline;fill-rule:evenodd;clip-rule:evenodd;fill:#2BB673;}
	.st157{display:inline;opacity:0.15;fill-rule:evenodd;clip-rule:evenodd;fill:#2BB673;}
</style>
<g id="Fondos_1_">
</g>
<g id="Texto">
	<g>
		<path class="st32" d="M59.26,150.05c-3.5-15.42-10.78-19.53-12.64-22.43c-0.77-1.28-1.45-2.61-2.03-3.98
			c-0.1,1.37-0.28,2.23-1.44,3.27c-2.34,2.08-12.27,10.18-13.11,27.7c-0.78,16.34,12.01,26.41,13.7,27.46
			c1.3,0.64,2.88,0.01,3.65-0.57C53.56,177.26,61.98,165.98,59.26,150.05"/>
		<path class="st33" d="M45.11,173.37c-0.32,4.04-0.55,6.39-1.37,8.71c0,0,0.54,3.85,0.91,7.93h1.33c0.32-2.87,0.8-5.72,1.45-8.54
			C45.72,180.61,45.18,176.91,45.11,173.37z"/>
		<path class="st34" d="M47.44,181.46L47.44,181.46c-1.74-0.81-2.25-4.58-2.33-8.1c0.43-5.8,0.56-11.62,0.38-17.44
			c-0.09-3.05,0.04-28.26-0.75-31.95c0.54,1.25,1.17,2.46,1.87,3.63c1.86,2.9,9.15,7.01,12.64,22.43
			C61.98,165.95,53.6,177.2,47.44,181.46z"/>
		<path class="st35" d="M221.02,172.43c1.03,0.82,3.07,1.16,4.88,1.16c2.34,0,4.64-0.43,6.88-2.46c2.28-2.08,3.85-5.25,3.85-10.32
			c0-4.87-1.85-8.83-5.66-11.14c-2.15-1.35-4.93-1.88-8.1-1.88c-0.91,0-1.85,0.05-2.39,0.29c-0.22,0.17-0.37,0.41-0.44,0.69
			c-0.1,0.87-0.1,7.48-0.1,11.38c0,4.01,0,9.59,0.1,10.28C220.1,171,220.39,172.02,221.02,172.43 M211.28,145.61
			c0.83,0,3.98,0.14,5.45,0.14c2.74,0,4.63-0.14,9.76-0.14c4.29,0,7.91,1.16,10.49,3.38c3.12,2.7,4.8,6.47,4.8,11.05
			c0,6.51-2.97,10.28-5.95,12.4c-2.97,2.22-6.83,3.47-12.33,3.47c-2.93,0-7.95-0.1-12.15-0.14h-0.09c-0.2-0.39,0.36-1.89,0.7-1.93
			c1.14-0.13,1.44-0.17,1.97-0.39c0.89-0.36,1.09-0.82,1.19-2.41c0.15-2.99,0.1-6.56,0.1-10.61c0-2.89,0.05-8.54-0.05-10.32
			c-0.15-1.49-0.78-1.88-2.06-2.17c-0.91-0.19-1.82-0.34-2.74-0.43c-0.1-0.29,0.65-1.6,0.9-1.88"/>
		<path class="st35" d="M253.86,148.06c-0.19,0.05-0.44,0.53-0.44,0.77c-0.05,1.74-0.1,6.27-0.1,9.41c0.03,0.12,0.12,0.22,0.24,0.24
			c0.63,0.05,2.19,0.1,3.51,0.1c1.85,0,2.93-0.24,3.51-0.53c1.56-0.77,2.28-2.46,2.28-4.29c0-4.2-2.93-5.79-7.27-5.79
			C255.02,147.96,254.43,147.99,253.86,148.06 M264.93,167.36c0-4.25-3.12-6.66-8.83-6.66c-0.24,0-2.06-0.05-2.49,0.05
			c-0.15,0.05-0.29,0.14-0.29,0.24c0,3.04-0.05,7.91,0.1,9.84c0.1,0.82,0.69,1.98,1.41,2.32c0.78,0.43,2.54,0.53,3.76,0.53
			C261.95,173.68,264.93,171.8,264.93,167.36 M245.05,145.7c0.44,0,1.74,0.14,5.06,0.14c3.12,0,5.66-0.1,8.68-0.1
			c3.76,0,8.93,1.35,8.93,6.95c0,2.74-1.95,4.97-4.49,6.03c-0.15,0.05-0.15,0.14,0,0.19c3.61,0.91,6.78,3.14,6.78,7.38
			c0,4.15-2.59,6.76-6.34,8.39c-2.28,1.01-5.12,1.35-7.99,1.35c-2.19,0-8.08-0.23-11.35-0.19c-0.34-0.14,0.31-1.69,0.61-1.93
			c0.75-0.02,1.49-0.14,2.21-0.35c1.17-0.29,1.31-0.66,1.45-2.4c0.1-1.5,0.1-6.85,0.1-10.66c0-5.21,0.05-8.73,0-10.47
			c-0.05-1.35-0.54-1.79-1.46-2.03c-0.73-0.15-1.95-0.29-2.93-0.43C244.06,147.34,244.81,145.89,245.05,145.7"/>
		<path class="st35" d="M70.06,175.89c-0.13-0.31-0.18-0.64-0.15-0.98c-0.01-0.23,0.04-0.45,0.15-0.65
			c0.63-0.09,1.26-0.22,1.87-0.38c0.86-0.21,1.19-0.69,1.24-1.79c0.14-2.6,0.15-7.48,0.1-10.91v-0.1c0-0.37,0-0.87-0.46-1.23
			c-0.8-0.5-1.67-0.89-2.59-1.14c-0.41-0.12-0.63-0.34-0.62-0.59c0.01-0.25,0.27-0.55,0.8-0.65c1.41-0.14,5.12-1.03,6.57-1.7
			c0.15,0.2,0.22,0.44,0.19,0.69c0,0.15-0.02,0.31-0.04,0.48c-0.04,0.48-0.09,1.03-0.09,1.58c0.03,0.2,0.21,0.34,0.41,0.31
			c0.08-0.01,0.15-0.05,0.21-0.1c2.77-2.17,5.25-2.95,6.52-2.95c2.09,0,3.72,1,4.99,3.06c0.06,0.1,0.17,0.16,0.28,0.17
			c0.11,0,0.21-0.05,0.26-0.14c2.55-1.93,5.07-3.09,6.76-3.09c3.99,0,6.38,2.99,6.38,7.99c0,1.44-0.01,3.26-0.03,4.96
			c-0.01,1.49-0.02,2.89-0.02,3.86c0,0.23,0.32,0.89,0.79,1.02c0.58,0.29,1.43,0.43,2.49,0.61h0.04c0.08,0.29-0.09,1.4-0.25,1.63
			c-0.26,0-0.63-0.02-1.09-0.05c-0.83-0.04-1.97-0.1-3.29-0.1c-2.65,0-4.04,0.05-5.36,0.14c-0.1-0.33-0.13-1.4-0.01-1.62
			c0.55-0.09,1.09-0.2,1.63-0.35c0.84-0.28,1.09-0.66,1.14-1.78c0.02-0.8,0.17-7.82-0.1-9.49c-0.25-1.73-1.55-3.75-4.4-3.75
			c-1.06,0-2.76,0.44-4.39,1.67c-0.1,0.11-0.16,0.26-0.16,0.41v0.03c0.19,0.9,0.19,1.95,0.19,3.54c0,0.91,0,1.87-0.01,2.82
			c-0.01,1.94-0.02,3.76,0.01,5.15c0,0.94,0.57,1.17,1.03,1.35c0.25,0.05,0.45,0.1,0.64,0.15c0.38,0.09,0.78,0.19,1.37,0.28
			c0.09,0.4,0.08,0.82-0.02,1.21c-0.02,0.15-0.08,0.29-0.17,0.41c-1.48-0.05-2.99-0.09-5.17-0.09c-0.66,0-1.74,0.03-2.7,0.05
			c-0.77,0.02-1.5,0.04-1.92,0.04c-0.11-0.27-0.16-0.55-0.15-0.84c-0.02-0.27,0.03-0.54,0.15-0.79l0.59-0.11
			c0.51-0.09,0.95-0.17,1.37-0.27c0.72-0.23,0.99-0.62,1.05-1.54c0.14-2.15,0.25-8.33-0.05-9.88c-0.52-2.48-1.93-3.75-4.2-3.75
			c-1.33,0-3.01,0.64-4.39,1.67c-0.27,0.26-0.41,0.62-0.4,0.99c0,0.74,0,1.61,0,2.56c0,3.11-0.02,6.97,0.05,8.64
			c0.05,0.52,0.23,1.13,1.19,1.35c0.21,0.06,0.58,0.12,1,0.19c0.24,0.04,0.51,0.08,0.79,0.13c0.09,0.55,0.04,1.11-0.13,1.63
			c-0.42,0-0.95-0.03-1.55-0.05c-0.91-0.04-2.06-0.09-3.35-0.09c-1.53,0-2.59,0.05-3.44,0.09
			C71.06,175.86,70.56,175.88,70.06,175.89"/>
		<path class="st35" d="M119.03,157.84c-0.82-0.02-1.63,0.21-2.33,0.66c-1.69,1.03-2.56,3.09-2.56,6.11c0,5.66,2.83,9.61,6.89,9.61
			c1.09,0.03,2.15-0.34,2.97-1.05c1.25-1.02,1.91-3.09,1.91-6C125.92,161.59,123.15,157.84,119.03,157.84 M119.81,176.32
			c-7.33,0-9.94-5.38-9.94-10.41c0-3.51,1.44-6.26,4.27-8.17c1.98-1.23,4.26-1.9,6.6-1.95c5.59,0,9.5,4.02,9.5,9.78
			c0,3.91-1.56,7.01-4.51,8.94C124.31,175.38,121.84,176.32,119.81,176.32"/>
		<path class="st35" d="M193.66,157.84c-0.83-0.02-1.64,0.21-2.33,0.66c-1.69,1.03-2.56,3.09-2.56,6.11c0,5.66,2.83,9.61,6.89,9.61
			c1.09,0.04,2.16-0.34,2.98-1.05c1.25-1.02,1.91-3.09,1.91-6C200.55,161.59,197.79,157.84,193.66,157.84 M194.45,176.32
			c-7.33,0-9.94-5.38-9.94-10.41c0-3.52,1.44-6.26,4.27-8.17c1.98-1.23,4.26-1.9,6.6-1.95c5.59,0,9.5,4.02,9.5,9.78
			c0,3.92-1.56,7.01-4.51,8.94C198.94,175.38,196.48,176.32,194.45,176.32"/>
		<path class="st35" d="M168.98,157.65c-2.26,0-3.72,1.78-3.72,4.54c0,2.76,1.26,6.04,4.8,6.04c0.61,0,1.71-0.27,2.25-0.87
			c0.82-0.76,1.37-2.32,1.37-3.97c0-3.6-1.75-5.75-4.69-5.75 M168.7,176.71c-0.64-0.01-1.27,0.15-1.83,0.46
			c-1.79,1.14-2.62,2.28-2.62,3.61c0,1.24,0.48,2.23,1.52,3.11c1.26,1.06,2.95,1.58,5.18,1.58c4.38,0,6.35-2.36,6.35-4.69
			c0-1.63-0.82-2.72-2.49-3.33C173.51,176.97,171.35,176.71,168.7,176.71 M169,187.9c-2.63,0-4.53-0.55-6.15-1.8
			c-1.58-1.21-2.28-3.02-2.28-4.27c0.02-0.8,0.32-1.57,0.86-2.17c0.46-0.52,1.52-1.5,3.97-3.18c0.08-0.03,0.13-0.11,0.13-0.19
			c0-0.1-0.06-0.18-0.16-0.2c-2.02-0.77-2.63-2.06-2.82-2.74c0-0.03,0-0.06-0.02-0.11c-0.06-0.27-0.11-0.53,0.26-0.79
			c0.28-0.2,0.74-0.47,1.22-0.76c0.68-0.38,1.34-0.8,1.96-1.28c0.12-0.13,0.11-0.33-0.02-0.46c-0.02-0.02-0.04-0.03-0.07-0.05
			c-2.99-1-4.5-3.23-4.5-6.62c-0.02-2.15,1.01-4.17,2.76-5.42c1.2-0.95,4.22-2.1,6.18-2.1h0.11c2.01,0.05,3.15,0.47,4.72,1.05
			c0.89,0.32,1.84,0.47,2.79,0.44c1.66,0,2.39-0.53,3.02-1.14c0.1,0.28,0.16,0.57,0.16,0.86c0.04,0.7-0.15,1.4-0.54,1.98
			c-0.34,0.47-1.14,0.82-1.87,0.82c-0.08,0-0.15,0-0.23-0.01c-0.39-0.03-0.77-0.09-1.14-0.19l-0.19,0.07
			c-0.06,0.09-0.02,0.18,0.03,0.31c0.01,0.02,0.02,0.05,0.03,0.08c0.13,0.61,0.22,1.23,0.27,1.85c0,3.55-1.4,5.1-2.91,6.24
			c-1.46,1.1-3.2,1.77-5.02,1.95l0,0c-0.04,0-0.23,0.02-0.58,0.05c-0.23,0.02-0.53,0.05-0.57,0.05h-0.04
			c-0.33,0.09-1.19,0.5-1.19,1.26c0,0.63,0.39,1.41,2.24,1.56l1.2,0.08c2.45,0.17,5.51,0.38,6.94,0.87
			c1.96,0.69,3.25,2.55,3.21,4.63c0,3.19-2.27,6.18-6.06,8.01c-1.79,0.85-3.75,1.29-5.73,1.29"/>
		<path class="st35" d="M157.78,174.19c-1.07-0.14-1.86-0.29-2.78-0.72c-0.18-0.19-0.3-0.43-0.34-0.69c-0.1-1.5-0.1-5.84-0.1-8.68
			c0-2.32-0.39-4.34-1.37-5.79c-1.17-1.64-2.83-2.61-4.98-2.61c-1.9,0-4.44,1.3-6.54,3.09c-0.05,0.05-0.37,0.35-0.37-0.12
			c0.01-0.47,0.08-1.44,0.13-2.06c0.04-0.33-0.08-0.66-0.32-0.9c-1.37,0.69-5.21,1.6-6.64,1.74c-1.04,0.2-1.3,1.2-0.19,1.54h0.02
			c0.89,0.24,1.73,0.62,2.51,1.11c0.44,0.34,0.39,0.82,0.39,1.21c0.05,3.23,0.05,8.2-0.1,10.9c-0.05,1.06-0.34,1.45-1.12,1.64
			l0.07-0.03c-0.59,0.15-1.2,0.26-1.81,0.34c-0.24,0.24-0.24,1.64,0,1.93c0.49,0,2.97-0.14,5.02-0.14c2.83,0,4.29,0.14,5.02,0.14
			c0.29-0.34,0.39-1.64,0.2-1.93c-0.68-0.03-1.35-0.13-2-0.29c-0.78-0.19-0.98-0.58-1.02-1.45c-0.1-2.27-0.1-7.09-0.1-10.37
			c0-0.91,0.24-1.35,0.53-1.6c0.98-0.87,2.59-1.45,4-1.45c1.37,0,2.28,0.43,2.97,1.01c0.8,0.7,1.3,1.67,1.4,2.73
			c0.19,1.83,0.14,5.5,0.14,8.68c0,1.74-0.14,2.17-0.78,2.37c-0.29,0.14-1.07,0.29-2,0.39c-0.29,0.29-0.2,1.64,0,1.93
			c1.27,0,2.74-0.14,4.88-0.14c2.68,0,4.39,0.14,5.07,0.14C157.88,175.78,157.98,174.52,157.78,174.19"/>
	</g>
</g>
<g id="Guides">
</g>
<g id="Layer_5" class="st155">
	<rect x="59.79" y="59.6" class="st156" width="180.21" height="180.21"/>
	<rect x="59.79" y="59.6" class="st156" width="180.21" height="180.21"/>
</g>
</svg>
