<svg xmlns="http://www.w3.org/2000/svg" viewBox="0 0 300 300"><defs><style>.cls-1{fill:#010101;}.cls-2{fill:#f1f2f2;}</style></defs><g id="Fondos"><rect class="cls-1" y="0.5" width="300" height="300"/></g><g id="Texto"><g id="original-wordmark"><path id="path4" class="cls-2" d="M108.25,173.39V125.25h2.61v7.58a10.88,10.88,0,0,0,.86-1.07,12.92,12.92,0,0,1,11.8-7.32c6-.18,10.79,2,13.63,7.32a23.53,23.53,0,0,1,.57,21.58c-2.65,5.93-9.19,8.88-16.19,7.8a13.09,13.09,0,0,1-10.45-6.9v19.15Zm2.61-31.11c.24,2.35.32,4,.59,5.65,1,6.44,4.84,10.26,10.81,10.95a12.28,12.28,0,0,0,13.49-7.8,21,21,0,0,0-.46-17.21,12.05,12.05,0,0,0-12.68-7,11.73,11.73,0,0,0-10.47,8.66A61.76,61.76,0,0,0,110.86,142.28Z"/><path id="path6" class="cls-2" d="M193.35,148.82a14.07,14.07,0,0,1-13.75,12.44c-10.95.55-16.09-6.71-16.91-15.1a24.28,24.28,0,0,1,2.14-13.33,14.85,14.85,0,0,1,15.48-8.3,14.21,14.21,0,0,1,12.62,10.82,74.25,74.25,0,0,1,1.22,8H165.38c-.54,7.6,3.55,13.72,9.35,15.19,7.21,1.78,13.38-1.35,15.62-8.21C190.85,148.57,191.75,148.32,193.35,148.82Zm-28-7.91H191.1c-.16-8.1-5.21-14-12-14.06C171.3,126.73,165.71,132.38,165.38,140.91Z"/><path id="path8" class="cls-2" d="M198.65,149h2.52a10.12,10.12,0,0,0,5.94,8.71,15.49,15.49,0,0,0,13.47-.36,6.05,6.05,0,0,0,3.56-5.95,5.5,5.5,0,0,0-3.7-5.49c-2.77-1-5.72-1.6-8.55-2.51a62.78,62.78,0,0,1-8.6-3.15c-4.55-2.22-4.84-10.87.32-13.61a18.14,18.14,0,0,1,17.35-.27,9.14,9.14,0,0,1,4.62,9.32h-2.17c0-.11-.2-.2-.2-.31-.26-6.91-6.06-9-12.28-8.44a16.31,16.31,0,0,0-5.33,1.62,5.69,5.69,0,0,0,.46,10.34c2.74,1,5.6,1.64,8.41,2.42,2.26.62,4.6,1,6.79,1.78a8,8,0,0,1,5.51,7.23,8.55,8.55,0,0,1-4.61,8.89c-5.93,3.36-15.71,2.47-20.06-1.78A11.86,11.86,0,0,1,198.65,149Z"/><path id="path10" class="cls-2" d="M258.76,135.69H256.4a6.46,6.46,0,0,0-.16-.87,7.73,7.73,0,0,0-6.29-7.43,15.45,15.45,0,0,0-10,.48,6.07,6.07,0,0,0-4.39,5.77,5.59,5.59,0,0,0,4.27,5.62c3.55,1.1,7.2,1.78,10.81,2.77a29.07,29.07,0,0,1,3.44,1.05,8.89,8.89,0,0,1,.48,16.55,19.78,19.78,0,0,1-16,.16A11.11,11.11,0,0,1,231.9,149h2.32a12.93,12.93,0,0,0,19.72,8.24,6.34,6.34,0,0,0,3.42-5.93,5.5,5.5,0,0,0-3.75-5.46c-2.78-1-5.73-1.58-8.55-2.49a62.06,62.06,0,0,1-8.66-3.11c-4.44-2.18-4.8-10.77.27-13.51a17.9,17.9,0,0,1,17.63-.19A9.3,9.3,0,0,1,258.76,135.69Z"/><path id="path12" class="cls-2" d="M103.93,160.39a4.07,4.07,0,0,1-5.05-1.92c-2.89-4.33-6.09-8.47-9.17-12.71L88.38,144c-3.66,4.9-7.32,9.61-10.66,14.5a3.91,3.91,0,0,1-4.8,1.88l13.74-18.43L73.88,125.29a4.24,4.24,0,0,1,5.06,1.78c3,4.33,6.26,8.47,9.53,12.87,3.29-4.36,6.54-8.52,9.58-12.82a3.82,3.82,0,0,1,4.76-1.78l-5,6.58c-2.22,2.93-4.4,5.88-6.71,8.74a1.77,1.77,0,0,0-.14,2.51.93.93,0,0,0,.14.14C95.38,149,99.6,154.6,103.93,160.39Z"/><path id="path14" class="cls-2" d="M162.27,125.11v2.49a12.89,12.89,0,0,0-13.71,12c0,.44,0,.87,0,1.3v19.55H146V125.25h2.49v7.22C151.57,127.21,156.31,125.25,162.27,125.11Z"/><path id="path16" class="cls-2" d="M40,141.71c.37-1.77.6-3.71,1.12-5.53,3.07-10.93,15.61-15.48,24.23-8.7,5,4,6.31,9.58,6.06,15.9H43c-.46,11.31,7.69,18.13,18.13,14.65A10.83,10.83,0,0,0,68,150.37c.55-1.78,1.44-2.08,3.12-1.57a14.4,14.4,0,0,1-6.89,10.54,16.7,16.7,0,0,1-19.46-2.48,17.56,17.56,0,0,1-4.38-10.28,8.67,8.67,0,0,0-.35-1.77C40,143.75,40,142.72,40,141.71Zm3-.76H68.72c-.16-8.2-5.33-14-12.23-14.06-7.67-.11-13.17,5.58-13.5,14Z"/></g></g></svg>