<?xml version="1.0" encoding="utf-8"?>
<!-- Generator: Adobe Illustrator 25.4.1, SVG Export Plug-In . SVG Version: 6.00 Build 0)  -->
<svg version="1.1" xmlns="http://www.w3.org/2000/svg" xmlns:xlink="http://www.w3.org/1999/xlink" x="0px" y="0px"
	 viewBox="0 0 300 300" style="enable-background:new 0 0 300 300;" xml:space="preserve">
<style type="text/css">
	.st0{fill:#4674B9;}
	.st1{fill:#2C2C32;}
	.st2{fill:#010101;}
	.st3{fill:#F6DF19;}
	.st4{fill:#2363AF;}
	.st5{fill:#F0672B;}
	.st6{fill:#101215;}
	.st7{fill:#492D8C;}
	.st8{fill:#F36C3D;}
	.st9{fill:#7756A3;}
	.st10{fill:#679E63;}
	.st11{fill:#484848;}
	.st12{fill:#1B1F23;}
	.st13{fill:#EF7729;}
	.st14{fill:#4791CE;}
	.st15{fill:#F6F6F6;}
	.st16{fill:#4A4A4D;}
	.st17{fill:#C54027;}
	.st18{fill:#3978BD;}
	.st19{fill:#CC6899;}
	.st20{fill:#12364F;}
	.st21{fill:#316A9A;}
	.st22{fill:#FFD53E;}
	.st23{fill:#693994;}
	.st24{fill:#FFFFFF;}
	.st25{fill-rule:evenodd;clip-rule:evenodd;fill:#FFFFFF;}
	.st26{fill-rule:evenodd;clip-rule:evenodd;fill:url(#XMLID_00000098210498038798752260000000778432853933825942_);}
	.st27{clip-path:url(#XMLID_00000153663252078300516420000002866907615378348204_);}
	.st28{fill:none;}
	.st29{opacity:0.66;fill:#4B4B4B;}
	.st30{fill:url(#SVGID_1_);}
	.st31{opacity:0.05;fill:#010101;enable-background:new    ;}
	.st32{fill:#17AA4F;}
	.st33{fill:#B8C4C2;}
	.st34{fill:#14924F;}
	.st35{fill:#22323D;}
	.st36{fill:#F26424;}
	.st37{fill:#4E4E4E;}
	.st38{fill:#3B2F14;}
	.st39{fill:#F58772;}
	.st40{fill:#F05233;}
	.st41{fill:#433527;}
	.st42{fill:#DD1E34;}
	.st43{fill:#C32033;}
	.st44{fill:#F9F9FA;}
	.st45{fill:#7253A2;}
	.st46{fill:#4674B9;stroke:#FFFFFF;stroke-width:8;stroke-miterlimit:10;}
	.st47{fill:#EF4623;}
	.st48{fill:#4EB987;}
	.st49{fill:#455567;}
	.st50{fill:#F1F2F2;}
	.st51{fill:#70CEEF;}
	.st52{fill:#70CFF0;}
	.st53{opacity:0.7;fill:#2C384A;enable-background:new    ;}
	.st54{fill:url(#path-2_00000132794793853229675070000008786326503123986833_);}
	.st55{filter:url(#Adobe_OpacityMaskFilter);}
	.st56{mask:url(#mask-3_3_);}
	.st57{fill:#F9A01B;}
	.st58{fill:#F47D20;}
	.st59{fill:#FFCB2A;}
	.st60{fill:#FFFFFF;fill-opacity:0.2;}
	.st61{opacity:0.2;fill:#A52A22;enable-background:new    ;}
	.st62{filter:url(#Adobe_OpacityMaskFilter_00000113346516080107194900000005028047087529072258_);}
	.st63{mask:url(#mask-3_2_);fill:none;}
	.st64{filter:url(#Adobe_OpacityMaskFilter_00000120552711585842458740000000036035498247188123_);}
	.st65{mask:url(#mask-3_1_);fill:url(#_Path_5_00000076572952446620912520000015899167676599155134_);}
	.st66{fill:#5BADE0;}
	.st67{fill:#4699D4;}
	.st68{fill:#318ECD;}
	.st69{fill:#3390CE;}
	.st70{fill:#1773B0;}
	.st71{fill:#489BD5;}
	.st72{fill:#2884C6;}
	.st73{fill:#2682C5;}
	.st74{fill:#2480C4;}
	.st75{fill:#237EC2;}
	.st76{fill:#4497D2;}
	.st77{fill:#1571AF;}
	.st78{fill:#237DC1;}
	.st79{fill:#1B72AD;}
	.st80{fill:#1B6CA3;}
	.st81{fill:#196FA9;}
	.st82{fill:#1D77BD;}
	.st83{fill:#207ABF;}
	.st84{fill:#2D7FB8;}
	.st85{fill:#3383BA;}
	.st86{fill:#287EB6;}
	.st87{fill:#63B0E1;}
	.st88{fill:#3887BC;}
	.st89{fill:#3B89BD;}
	.st90{fill:#3792D0;}
	.st91{fill:#2A78AC;}
	.st92{fill:#2973A8;}
	.st93{fill:#2A7CB3;}
	.st94{fill:#3F88BA;}
	.st95{fill:#59ABDF;}
	.st96{fill:#3A7FAF;}
	.st97{fill:#317BAC;}
	.st98{fill:#367DAE;}
	.st99{fill:#2C8BCB;}
	.st100{fill:#2E8DCC;}
	.st101{fill:#1A75B1;}
	.st102{fill:#1F77B2;}
	.st103{fill:#1D74AF;}
	.st104{fill:#1D72AA;}
	.st105{fill:#206FA5;}
	.st106{fill:#499FD8;}
	.st107{fill:#489CD6;}
	.st108{fill:#4DA1D9;}
	.st109{fill:#51A6DC;}
	.st110{fill:#4FA4DB;}
	.st111{fill:#0F72B7;}
	.st112{fill:#0770B7;}
	.st113{fill:#56A8DD;}
	.st114{fill:#2A88C9;}
	.st115{fill:#227FC3;}
	.st116{fill:#1F7DC1;}
	.st117{fill:#1D7BC0;}
	.st118{fill:#1474BB;}
	.st119{fill:#1071B9;}
	.st120{fill:#1E79BF;}
	.st121{fill:#1875BC;}
	.st122{fill:#3381B5;}
	.st123{fill:#2F7FB4;}
	.st124{fill:#3883B6;}
	.st125{fill:#267BB5;}
	.st126{fill:#297AB2;}
	.st127{fill:#3E86B6;}
	.st128{fill:#3C81B1;}
	.st129{fill:#3B87B9;}
	.st130{fill:#3A85B8;}
	.st131{fill:#2378B1;}
	.st132{fill:#2675AC;}
	.st133{fill:#2572A6;}
	.st134{fill:#0D74B8;}
	.st135{fill:#3882B4;}
	.st136{fill:#367FB2;}
	.st137{fill:#307CAF;}
	.st138{fill:#337EB0;}
	.st139{fill:#2271A5;}
	.st140{fill:#0E75BB;}
	.st141{fill:#0D73BB;}
	.st142{fill:#0B74BC;}
	.st143{fill:#1578BC;}
	.st144{fill:#1C7CC1;}
	.st145{fill:#2575AB;}
	.st146{fill:#1B7BC0;}
	.st147{fill:#1876BD;}
	.st148{fill:#1978BE;}
	.st149{fill:#3C84B4;}
	.st150{fill-rule:evenodd;clip-rule:evenodd;fill:#687E91;}
	.st151{fill:#037690;}
	.st152{fill:#F29220;}
	.st153{fill-rule:evenodd;clip-rule:evenodd;fill:#F29220;}
	.st154{fill-rule:evenodd;clip-rule:evenodd;fill:#037690;}
	.st155{display:none;}
	.st156{display:inline;fill-rule:evenodd;clip-rule:evenodd;fill:#2BB673;}
	.st157{display:inline;opacity:0.15;fill-rule:evenodd;clip-rule:evenodd;fill:#2BB673;}
</style>
<g id="Fondos_1_">
	<rect x="0" y="0.5" class="st2" width="300" height="300"/>
</g>
<g id="Texto">
	<g id="original-wordmark_1_" transform="matrix(0.85101532,0,0,0.85101532,5.5198422,-24.472693)">
		<path id="path4_1_" class="st50" d="M120.72,232.5v-56.56h3.07v8.9c0.36-0.39,0.7-0.81,1-1.25c2.56-5.32,7.97-8.67,13.87-8.6
			c7-0.21,12.68,2.38,16.02,8.6c4.31,7.85,4.56,17.29,0.67,25.36c-3.11,6.98-10.8,10.44-19.03,9.17c-5.2-0.44-9.83-3.49-12.28-8.1
			v22.49H120.72z M123.79,195.95c0.27,2.76,0.38,4.72,0.69,6.64c1.21,7.56,5.68,12.05,12.7,12.87c6.79,1.12,13.43-2.72,15.85-9.17
			c2.73-6.5,2.53-13.87-0.54-20.22c-2.57-5.76-8.65-9.11-14.89-8.23c-5.85,0.42-10.79,4.51-12.3,10.17
			C124.64,190.62,124.13,193.27,123.79,195.95z"/>
		<path id="path6_1_" class="st50" d="M220.72,203.63c-0.96,8.24-7.87,14.49-16.17,14.62c-12.87,0.65-18.9-7.89-19.86-17.75
			c-0.67-5.35,0.2-10.79,2.51-15.66c3.29-6.87,10.65-10.81,18.19-9.75c7.16,0.61,13.14,5.73,14.83,12.72
			c0.65,3.1,1.13,6.24,1.44,9.4h-33.81c-0.63,8.94,4.18,16.12,10.99,17.86c8.48,2.09,15.73-1.59,18.36-9.65
			C217.77,203.34,218.84,203.05,220.72,203.63z M187.84,194.34h30.22c-0.19-9.52-6.12-16.42-14.16-16.52
			C194.8,177.67,188.24,184.31,187.84,194.34z"/>
		<path id="path8_1_" class="st50" d="M226.94,203.84h2.97c0.22,4.45,2.92,8.4,6.98,10.23c5.07,2.28,10.89,2.13,15.83-0.42
			c2.72-1.23,4.39-4.02,4.18-7c0.16-2.88-1.62-5.52-4.34-6.45c-3.26-1.21-6.73-1.88-10.05-2.94c-3.46-0.98-6.83-2.22-10.11-3.7
			c-5.35-2.61-5.68-12.78,0.38-16c6.3-3.56,13.98-3.67,20.38-0.31c3.91,2.16,6.07,6.52,5.43,10.94h-2.55c0-0.13-0.23-0.23-0.23-0.36
			c-0.31-8.12-7.12-10.63-14.43-9.92c-2.18,0.27-4.3,0.91-6.27,1.9c-2.42,1.11-3.87,3.62-3.63,6.27c0.01,2.65,1.68,5.01,4.18,5.89
			c3.22,1.17,6.58,1.92,9.88,2.84c2.65,0.73,5.41,1.21,7.98,2.09c3.71,1.22,6.29,4.6,6.47,8.5c0.64,4.28-1.54,8.49-5.41,10.44
			c-6.98,3.95-18.46,2.9-23.58-2.09C228.37,211.13,226.91,207.56,226.94,203.84z"/>
		<path id="path10_1_" class="st50" d="M297.58,188.2h-2.78c0-0.38-0.15-0.71-0.19-1.02c-0.09-4.29-3.18-7.93-7.39-8.73
			c-3.86-1.11-7.98-0.91-11.72,0.56c-3.03,0.87-5.13,3.63-5.16,6.79c-0.11,3.11,1.99,5.87,5.01,6.6c4.18,1.29,8.46,2.09,12.7,3.26
			c1.37,0.33,2.73,0.74,4.05,1.23c5.43,1.94,8.26,7.92,6.31,13.35c-0.98,2.75-3.07,4.95-5.75,6.09c-5.96,2.71-12.78,2.77-18.8,0.19
			c-5.01-2.16-8.14-7.21-7.85-12.66h1.17h1.55c1.71,8.23,9.76,13.53,18,11.82c1.84-0.38,3.6-1.1,5.18-2.13
			c2.58-1.34,4.15-4.07,4.01-6.98c0.13-2.88-1.67-5.5-4.41-6.41c-3.26-1.21-6.73-1.86-10.05-2.92c-3.47-0.97-6.87-2.19-10.17-3.65
			c-5.22-2.57-5.64-12.66,0.31-15.87c6.39-3.71,14.25-3.8,20.72-0.23C296.05,179.7,298.1,183.9,297.58,188.2z"/>
		<path id="path12_1_" class="st50" d="M115.64,217.23c-2.26,0.86-4.81-0.11-5.93-2.26c-3.4-5.1-7.16-9.96-10.78-14.93l-1.57-2.09
			c-4.3,5.76-8.6,11.3-12.53,17.04c-1.06,2.05-3.47,3-5.64,2.21l16.14-21.66l-15.02-19.57c2.23-0.8,4.72,0.07,5.95,2.09
			c3.49,5.1,7.35,9.96,11.19,15.12c3.86-5.12,7.69-10,11.26-15.06c1.06-2.02,3.47-2.91,5.6-2.09l-5.83,7.73
			c-2.61,3.45-5.18,6.91-7.89,10.28c-0.86,0.77-0.93,2.09-0.16,2.95c0.05,0.06,0.11,0.11,0.16,0.16
			C105.6,203.78,110.55,210.42,115.64,217.23z"/>
		<path id="path14_1_" class="st50" d="M184.19,175.77v2.92c-8.34-0.55-15.55,5.77-16.1,14.12c-0.03,0.51-0.04,1.02-0.02,1.52
			c0,6.88,0,13.76,0,20.63c0,0.73,0,1.46,0,2.34h-2.99v-41.37H168v8.48C171.61,178.24,177.19,175.94,184.19,175.77z"/>
		<path id="path16_1_" class="st50" d="M40.52,195.28c0.44-2.09,0.71-4.37,1.32-6.5c3.61-12.84,18.34-18.19,28.47-10.23
			c5.93,4.66,7.41,11.26,7.12,18.69H44c-0.54,13.28,9.04,21.3,21.3,17.21c4.04-1.45,7.08-4.83,8.08-9c0.65-2.09,1.69-2.44,3.68-1.84
			c-0.66,5.15-3.65,9.72-8.1,12.39c-7.45,4.08-16.68,2.9-22.87-2.92c-2.98-3.36-4.79-7.59-5.14-12.07c0-0.71-0.27-1.42-0.42-2.09
			C40.52,197.67,40.52,196.46,40.52,195.28z M44.05,194.38h30.22c-0.19-9.63-6.27-16.46-14.37-16.52
			c-9.02-0.13-15.48,6.56-15.87,16.48L44.05,194.38z"/>
	</g>
</g>
<g id="Guides">
</g>
<g id="Layer_5" class="st155">
	<rect x="59.79" y="59.6" class="st156" width="180.21" height="180.21"/>
</g>
</svg>
