<svg xmlns="http://www.w3.org/2000/svg" viewBox="0 0 300 300"><defs><style>.cls-1{fill:#101215;}.cls-2{fill:#70ceef;}.cls-3{fill:#70cff0;}</style></defs><g id="Fondos"><rect class="cls-1" y="0.5" width="300" height="300"/></g><g id="Texto"><path class="cls-2" d="M223.44,143.94a23.48,23.48,0,0,0-6-7.22,53.53,53.53,0,0,0-12-7.37,84.91,84.91,0,0,0-11.22-4.27c-.56-.18-.71-.38-.57-1,.42-1.87.78-3.76,1.08-5.65a71.41,71.41,0,0,0,1-12A38.9,38.9,0,0,0,194.29,95a18.82,18.82,0,0,0-3.82-7.35,13,13,0,0,0-10.32-4.35,21.94,21.94,0,0,0-6.36,1.09,51.85,51.85,0,0,0-15,8,84.43,84.43,0,0,0-8.44,7c-.26.24-.42.25-.68,0-.89-.8-1.81-1.58-2.71-2.37a74,74,0,0,0-10.43-7.69c-4.84-2.91-9.88-5.32-15.63-5.81a15,15,0,0,0-6.44.78,13.09,13.09,0,0,0-7.24,6.67,30.44,30.44,0,0,0-3,12.7,62,62,0,0,0,.37,10.64,96.85,96.85,0,0,0,1.73,10c.11.46,0,.65-.45.78-1.43.46-2.85.93-4.26,1.44A67,67,0,0,0,84.87,135a28.31,28.31,0,0,0-7.61,7.74,12.85,12.85,0,0,0-.69,13.42A24.45,24.45,0,0,0,83.44,164a59.79,59.79,0,0,0,15,8.3c2.48,1,5,1.93,7.56,2.69.45.13.56.32.45.78-.28,1.27-.52,2.55-.77,3.83a75.94,75.94,0,0,0-1.34,11.45,48.6,48.6,0,0,0,.49,9.86,25.63,25.63,0,0,0,3,9.08,12.78,12.78,0,0,0,10.48,6.69,22,22,0,0,0,8.47-1.18,48.24,48.24,0,0,0,11.59-5.76,83.67,83.67,0,0,0,11.31-9c.39-.38.62-.38,1,0a10.2,10.2,0,0,0,.91.82,78.53,78.53,0,0,0,11.85,9,40.89,40.89,0,0,0,13,5.54,17.17,17.17,0,0,0,8.69-.16c4.2-1.29,6.75-4.29,8.44-8.17a33.81,33.81,0,0,0,2.44-12.12,59.43,59.43,0,0,0-.39-9.62,88.44,88.44,0,0,0-1.77-10.35c-.11-.45,0-.62.45-.75,1.83-.54,3.62-1.17,5.4-1.85a64.08,64.08,0,0,0,16.2-8.54,27.16,27.16,0,0,0,6.89-7.21A12.83,12.83,0,0,0,223.44,143.94ZM155.1,104.11a81.8,81.8,0,0,1,11-8.57,37,37,0,0,1,10.17-4.83,13.28,13.28,0,0,1,5.64-.52,6.25,6.25,0,0,1,4.6,3.44,19.71,19.71,0,0,1,2,6.32,55.74,55.74,0,0,1,.51,6.49A77,77,0,0,1,187.55,120c-.16.8-.33,1.59-.47,2.39-.08.41-.21.6-.7.48-4.12-1-8.31-1.78-12.51-2.42-1.84-.28-3.69-.47-5.53-.68a1.65,1.65,0,0,1-1.27-.72,141.72,141.72,0,0,0-10.22-12.45c-.58-.63-1.16-1.26-1.75-1.88C154.88,104.52,154.83,104.36,155.1,104.11ZM114.91,169.9c1-3.52,2.24-7,3.54-10.39.13-.35.27-.69.46-1.18a161.18,161.18,0,0,0,8.39,14.44c-3.41-.46-6.69-1.1-10-1.79-.68-.15-1.36-.34-2.06-.47C114.87,170.44,114.8,170.29,114.91,169.9Zm.48-40.45c3.23-.7,6.47-1.35,9.73-1.9.67-.11,1.34-.19,2.14-.3-3,4.74-5.77,9.49-8.35,14.54-.49-1.26-1-2.35-1.35-3.46-1-2.64-1.84-5.33-2.69-8C114.7,129.75,114.83,129.57,115.39,129.45Zm10.84,28.11c-1.2-2.27-2.33-4.58-3.48-6.88a1.18,1.18,0,0,1,0-1.15,167.9,167.9,0,0,1,13.07-22.77,1.1,1.1,0,0,1,.93-.55c3.54-.3,7.09-.42,10.65-.55,3-.11,5.92,0,8.87.1,2.37,0,4.75.18,7.11.44a.86.86,0,0,1,.67.42,163.72,163.72,0,0,1,10.33,17c1,1.94,2,3.9,2.93,5.86a.93.93,0,0,1,0,.9,172.87,172.87,0,0,1-12.73,22.38,2.48,2.48,0,0,1-2.17,1.19c-3.24.17-6.46.41-9.7.43-.92,0-1.84.06-3.13.09-2.57-.08-5.5-.15-8.44-.28-1.51-.06-3-.23-4.54-.34a.79.79,0,0,1-.66-.42A167.47,167.47,0,0,1,126.23,157.56Zm54.84.64c.36.91.67,1.68,1,2.46q1.72,4.56,3.13,9.23c.13.43,0,.51-.37.59-2.77.64-5.54,1.24-8.34,1.7l-3.77.63A165.59,165.59,0,0,0,181.07,158.2Zm0-16.54c-.83-1.54-1.6-3-2.39-4.44-1.73-3.15-3.6-6.23-5.54-9.26-.13-.19-.4-.4-.29-.6s.43,0,.65,0c3.66.51,7.29,1.23,10.88,2.08,1,.24.84.08.58,1C183.86,134.2,182.55,137.91,181.07,141.66Zm-31.6-32c.39-.41.58-.33.92,0,2.71,2.87,5.27,5.86,7.74,8.92.06.09.1.18.23.4a142,142,0,0,0-16.76,0,11.19,11.19,0,0,1,1.38-1.9Q146.07,113.28,149.47,109.67ZM112.4,96a12.57,12.57,0,0,1,1.72-3.36,6,6,0,0,1,5-2.4,18.72,18.72,0,0,1,7.65,1.67A52.74,52.74,0,0,1,138.61,99c2.14,1.62,4.17,3.37,6.17,5.15.26.23.24.36,0,.6a149.43,149.43,0,0,0-10.48,12.41c-.53.7-1.06,1.4-1.56,2.12a1,1,0,0,1-.72.45c-1.55.19-3.1.39-4.64.6q-5.34.7-10.61,1.85c-1.1.25-2.21.49-3.31.77-.35.09-.5,0-.58-.33-.63-2.88-1.16-5.78-1.51-8.7A43.68,43.68,0,0,1,111,107,32.61,32.61,0,0,1,112.4,96Zm-3.17,69.13c-.31,1-.63,2-.89,2.94-.11.44-.27.51-.69.38a90.1,90.1,0,0,1-9.77-3.73A49.75,49.75,0,0,1,88.13,159a18.75,18.75,0,0,1-5.46-5.89,5.55,5.55,0,0,1-.86-2.78,8.42,8.42,0,0,1,2.3-5.58,32.27,32.27,0,0,1,9.36-7.21,77.55,77.55,0,0,1,14.13-5.94c.54-.18.56.13.66.46a143.46,143.46,0,0,0,4.89,13.77c.51,1.23,1,2.45,1.57,3.66a1.27,1.27,0,0,1,0,1.14A146.63,146.63,0,0,0,109.23,165.1ZM144.8,196a73.23,73.23,0,0,1-14.24,10.5,29.26,29.26,0,0,1-8.42,3.21,11.15,11.15,0,0,1-4.53,0,6.27,6.27,0,0,1-4.19-3.52,20.08,20.08,0,0,1-1.93-6.28,33.79,33.79,0,0,1-.41-6.36,63.79,63.79,0,0,1,1.26-12.85c.21-1.09.45-2.17.65-3.26.06-.35.21-.41.52-.33,2.91.71,5.84,1.31,8.79,1.82,2.53.43,5.06.81,7.61,1.1.74.09,1.48.18,2.23.25a.77.77,0,0,1,.57.36c2.32,3.21,4.79,6.31,7.36,9.32,1.53,1.79,3.14,3.51,4.74,5.25C145.09,195.51,145.12,195.68,144.8,196Zm6.14-6.14c-.88.91-.88.92-1.75,0-2.66-2.76-5.12-5.69-7.61-8.83,5.66.22,11.16.25,16.65,0,.11.24,0,.35-.15.48C155.82,184.39,153.48,187.2,150.94,189.84Zm36.22,15.35a7.51,7.51,0,0,1-3.33,3.95,6.5,6.5,0,0,1-3.31.63,21.27,21.27,0,0,1-8.8-2.34,59.63,59.63,0,0,1-12.31-8c-1.4-1.13-2.73-2.34-4.11-3.5-.32-.28-.33-.47,0-.78a135.2,135.2,0,0,0,12-14.53c.4-.55,1-.38,1.46-.44q5.44-.62,10.83-1.63,3.46-.63,6.89-1.48c.33-.08.52-.09.61.36q1,4.44,1.54,9a55,55,0,0,1,.42,7.36A28.86,28.86,0,0,1,187.16,205.19Zm29-50.31a28.51,28.51,0,0,1-7.42,6.28,73.37,73.37,0,0,1-16.46,7.28c-.45.15-.47-.12-.54-.37-.55-2-1.2-3.92-1.87-5.86q-2.07-6-4.65-11.76a1.08,1.08,0,0,1,0-1c1.92-4.37,3.66-8.81,5.15-13.34.44-1.36.84-2.74,1.26-4.11.1-.33.15-.63.68-.46a70.86,70.86,0,0,1,17.44,7.9,27,27,0,0,1,6.29,5.44,8.76,8.76,0,0,1,2.22,5A8.38,8.38,0,0,1,216.16,154.88Z"/><path class="cls-3" d="M163.91,150a14,14,0,1,1-14-13.95A13.94,13.94,0,0,1,163.91,150Z"/></g></svg>