<?xml version="1.0" encoding="utf-8"?>
<!-- Generator: Adobe Illustrator 25.4.1, SVG Export Plug-In . SVG Version: 6.00 Build 0)  -->
<svg version="1.1" xmlns="http://www.w3.org/2000/svg" xmlns:xlink="http://www.w3.org/1999/xlink" x="0px" y="0px"
	 viewBox="0 0 300 300" style="enable-background:new 0 0 300 300;" xml:space="preserve">
<style type="text/css">
	.st0{fill:#4674B9;}
	.st1{fill:#2C2C32;}
	.st2{fill:#010101;}
	.st3{fill:#F6DF19;}
	.st4{fill:#2363AF;}
	.st5{fill:#F0672B;}
	.st6{fill:#101215;}
	.st7{fill:#492D8C;}
	.st8{fill:#F36C3D;}
	.st9{fill:#7756A3;}
	.st10{fill:#679E63;}
	.st11{fill:#484848;}
	.st12{fill:#1B1F23;}
	.st13{fill:#EF7729;}
	.st14{fill:#4791CE;}
	.st15{fill:#F6F6F6;}
	.st16{fill:#4A4A4D;}
	.st17{fill:#C54027;}
	.st18{fill:#3978BD;}
	.st19{fill:#CC6899;}
	.st20{fill:#12364F;}
	.st21{fill:#316A9A;}
	.st22{fill:#FFD53E;}
	.st23{fill:#693994;}
	.st24{fill:#FFFFFF;}
	.st25{fill-rule:evenodd;clip-rule:evenodd;fill:#FFFFFF;}
	.st26{fill-rule:evenodd;clip-rule:evenodd;fill:url(#XMLID_00000034808307827048446210000010364173380792118680_);}
	.st27{clip-path:url(#XMLID_00000097473522782041363660000002193110946155091075_);}
	.st28{fill:none;}
	.st29{opacity:0.66;fill:#4B4B4B;}
	.st30{fill:url(#SVGID_1_);}
	.st31{opacity:0.05;fill:#010101;enable-background:new    ;}
	.st32{fill:#17AA4F;}
	.st33{fill:#B8C4C2;}
	.st34{fill:#14924F;}
	.st35{fill:#22323D;}
	.st36{fill:#F26424;}
	.st37{fill:#4E4E4E;}
	.st38{fill:#3B2F14;}
	.st39{fill:#F58772;}
	.st40{fill:#F05233;}
	.st41{fill:#433527;}
	.st42{fill:#DD1E34;}
	.st43{fill:#C32033;}
	.st44{fill:#F9F9FA;}
	.st45{fill:#7253A2;}
	.st46{fill:#4674B9;stroke:#FFFFFF;stroke-width:8;stroke-miterlimit:10;}
	.st47{fill:#EF4623;}
	.st48{fill:#4EB987;}
	.st49{fill:#455567;}
	.st50{fill:#F1F2F2;}
	.st51{fill:#70CEEF;}
	.st52{fill:#70CFF0;}
	.st53{opacity:0.7;fill:#2C384A;enable-background:new    ;}
	.st54{fill:url(#path-2_00000046332650653142235190000004829195287360764573_);}
	.st55{filter:url(#Adobe_OpacityMaskFilter);}
	.st56{mask:url(#mask-3_3_);}
	.st57{fill:#F9A01B;}
	.st58{fill:#F47D20;}
	.st59{fill:#FFCB2A;}
	.st60{fill:#FFFFFF;fill-opacity:0.2;}
	.st61{opacity:0.2;fill:#A52A22;enable-background:new    ;}
	.st62{filter:url(#Adobe_OpacityMaskFilter_00000033358642082393761330000004773644487660825761_);}
	.st63{mask:url(#mask-3_2_);fill:none;}
	.st64{filter:url(#Adobe_OpacityMaskFilter_00000053511998249440140700000010939084480481896582_);}
	.st65{mask:url(#mask-3_1_);fill:url(#_Path_5_00000005946951299357876430000009828873112797325711_);}
	.st66{fill:#5BADE0;}
	.st67{fill:#4699D4;}
	.st68{fill:#318ECD;}
	.st69{fill:#3390CE;}
	.st70{fill:#1773B0;}
	.st71{fill:#489BD5;}
	.st72{fill:#2884C6;}
	.st73{fill:#2682C5;}
	.st74{fill:#2480C4;}
	.st75{fill:#237EC2;}
	.st76{fill:#4497D2;}
	.st77{fill:#1571AF;}
	.st78{fill:#237DC1;}
	.st79{fill:#1B72AD;}
	.st80{fill:#1B6CA3;}
	.st81{fill:#196FA9;}
	.st82{fill:#1D77BD;}
	.st83{fill:#207ABF;}
	.st84{fill:#2D7FB8;}
	.st85{fill:#3383BA;}
	.st86{fill:#287EB6;}
	.st87{fill:#63B0E1;}
	.st88{fill:#3887BC;}
	.st89{fill:#3B89BD;}
	.st90{fill:#3792D0;}
	.st91{fill:#2A78AC;}
	.st92{fill:#2973A8;}
	.st93{fill:#2A7CB3;}
	.st94{fill:#3F88BA;}
	.st95{fill:#59ABDF;}
	.st96{fill:#3A7FAF;}
	.st97{fill:#317BAC;}
	.st98{fill:#367DAE;}
	.st99{fill:#2C8BCB;}
	.st100{fill:#2E8DCC;}
	.st101{fill:#1A75B1;}
	.st102{fill:#1F77B2;}
	.st103{fill:#1D74AF;}
	.st104{fill:#1D72AA;}
	.st105{fill:#206FA5;}
	.st106{fill:#499FD8;}
	.st107{fill:#489CD6;}
	.st108{fill:#4DA1D9;}
	.st109{fill:#51A6DC;}
	.st110{fill:#4FA4DB;}
	.st111{fill:#0F72B7;}
	.st112{fill:#0770B7;}
	.st113{fill:#56A8DD;}
	.st114{fill:#2A88C9;}
	.st115{fill:#227FC3;}
	.st116{fill:#1F7DC1;}
	.st117{fill:#1D7BC0;}
	.st118{fill:#1474BB;}
	.st119{fill:#1071B9;}
	.st120{fill:#1E79BF;}
	.st121{fill:#1875BC;}
	.st122{fill:#3381B5;}
	.st123{fill:#2F7FB4;}
	.st124{fill:#3883B6;}
	.st125{fill:#267BB5;}
	.st126{fill:#297AB2;}
	.st127{fill:#3E86B6;}
	.st128{fill:#3C81B1;}
	.st129{fill:#3B87B9;}
	.st130{fill:#3A85B8;}
	.st131{fill:#2378B1;}
	.st132{fill:#2675AC;}
	.st133{fill:#2572A6;}
	.st134{fill:#0D74B8;}
	.st135{fill:#3882B4;}
	.st136{fill:#367FB2;}
	.st137{fill:#307CAF;}
	.st138{fill:#337EB0;}
	.st139{fill:#2271A5;}
	.st140{fill:#0E75BB;}
	.st141{fill:#0D73BB;}
	.st142{fill:#0B74BC;}
	.st143{fill:#1578BC;}
	.st144{fill:#1C7CC1;}
	.st145{fill:#2575AB;}
	.st146{fill:#1B7BC0;}
	.st147{fill:#1876BD;}
	.st148{fill:#1978BE;}
	.st149{fill:#3C84B4;}
	.st150{fill-rule:evenodd;clip-rule:evenodd;fill:#687E91;}
	.st151{fill:#037690;}
	.st152{fill:#F29220;}
	.st153{fill-rule:evenodd;clip-rule:evenodd;fill:#F29220;}
	.st154{fill-rule:evenodd;clip-rule:evenodd;fill:#037690;}
	.st155{display:none;}
	.st156{display:inline;fill-rule:evenodd;clip-rule:evenodd;fill:#2BB673;}
	.st157{display:inline;opacity:0.15;fill-rule:evenodd;clip-rule:evenodd;fill:#2BB673;}
</style>
<g id="Fondos_1_">
	<rect x="0" y="0.5" class="st6" width="300" height="300"/>
</g>
<g id="Texto">
	<g>
		<path class="st51" d="M223.44,143.94c-1.45-2.86-3.58-5.17-6.01-7.21c-3.63-3.06-7.73-5.38-12.02-7.38
			c-3.63-1.7-7.39-3.09-11.22-4.27c-0.56-0.17-0.71-0.38-0.57-0.98c0.42-1.87,0.78-3.76,1.08-5.66c0.63-3.91,1.04-7.84,1.01-11.96
			c0.05-3.8-0.32-7.71-1.43-11.52c-0.79-2.7-1.94-5.21-3.82-7.35c-2.73-3.12-6.28-4.35-10.32-4.34c-2.17,0-4.29,0.44-6.36,1.08
			c-5.52,1.7-10.39,4.62-15.04,7.97c-2.97,2.15-5.78,4.5-8.45,7.01c-0.26,0.25-0.42,0.25-0.68,0.01c-0.89-0.81-1.8-1.58-2.71-2.37
			c-3.26-2.85-6.72-5.45-10.43-7.69c-4.84-2.91-9.88-5.32-15.63-5.81c-2.21-0.19-4.36,0.03-6.44,0.78c-3.34,1.2-5.62,3.58-7.24,6.67
			c-2.08,3.98-2.77,8.3-3.01,12.69c-0.2,3.55-0.04,7.11,0.38,10.65c0.4,3.37,0.97,6.72,1.73,10.03c0.11,0.46-0.02,0.64-0.45,0.78
			c-1.43,0.46-2.85,0.93-4.26,1.44c-5.91,2.14-11.58,4.75-16.69,8.45c-2.97,2.15-5.65,4.6-7.61,7.74
			c-2.71,4.34-3.05,8.81-0.69,13.41c1.64,3.2,4.09,5.7,6.87,7.89c4.53,3.58,9.62,6.16,14.95,8.31c2.48,1,4.99,1.92,7.56,2.68
			c0.45,0.13,0.56,0.33,0.45,0.79c-0.29,1.27-0.53,2.55-0.78,3.83c-0.73,3.78-1.17,7.6-1.34,11.45c-0.14,3.3-0.04,6.59,0.49,9.86
			c0.51,3.19,1.35,6.27,3.01,9.08c2.36,4,5.81,6.33,10.48,6.7c2.9,0.23,5.72-0.3,8.47-1.18c4.15-1.34,7.96-3.38,11.59-5.76
			c4.04-2.65,7.79-5.67,11.3-8.98c0.4-0.37,0.62-0.38,0.96,0.02c0.26,0.3,0.61,0.54,0.91,0.81c3.69,3.35,7.6,6.4,11.85,9
			c4.06,2.49,8.3,4.56,13,5.53c2.91,0.61,5.82,0.73,8.7-0.15c4.19-1.29,6.75-4.3,8.44-8.17c1.69-3.86,2.24-7.97,2.44-12.13
			c0.15-3.21-0.04-6.43-0.39-9.62c-0.39-3.48-0.97-6.93-1.77-10.35c-0.11-0.45,0.02-0.62,0.46-0.75c1.83-0.54,3.62-1.18,5.4-1.85
			c5.75-2.18,11.27-4.81,16.2-8.55c2.68-2.03,5.09-4.33,6.89-7.21C225.43,153.02,225.79,148.54,223.44,143.94z M155.1,104.11
			c3.45-3.13,7.03-6.07,10.96-8.58c3.19-2.03,6.49-3.83,10.17-4.83c1.85-0.5,3.72-0.82,5.64-0.51c2.14,0.34,3.58,1.6,4.6,3.44
			c1.1,1.97,1.64,4.12,2.02,6.32c0.38,2.22,0.4,4.47,0.51,6.49c-0.1,4.72-0.57,9.17-1.45,13.58c-0.16,0.79-0.32,1.59-0.47,2.39
			c-0.08,0.41-0.2,0.6-0.7,0.48c-4.12-1.05-8.31-1.78-12.51-2.42c-1.84-0.28-3.69-0.46-5.53-0.68c-0.53-0.06-0.92-0.25-1.27-0.72
			c-3.2-4.32-6.54-8.52-10.22-12.45c-0.58-0.63-1.16-1.26-1.76-1.88C154.88,104.52,154.83,104.36,155.1,104.11z M114.91,169.9
			c1.02-3.52,2.24-6.96,3.53-10.39c0.13-0.35,0.27-0.7,0.46-1.18c2.56,5.02,5.36,9.75,8.39,14.44c-3.41-0.47-6.69-1.1-9.97-1.8
			c-0.69-0.15-1.37-0.34-2.06-0.47C114.87,170.44,114.8,170.29,114.91,169.9z M115.39,129.45c3.23-0.7,6.47-1.35,9.73-1.9
			c0.66-0.11,1.33-0.19,2.14-0.3c-3.03,4.74-5.77,9.49-8.35,14.54c-0.49-1.26-0.94-2.35-1.35-3.45c-0.97-2.65-1.84-5.33-2.69-8.02
			C114.7,129.75,114.83,129.57,115.39,129.45z M126.23,157.56c-1.21-2.27-2.34-4.58-3.49-6.88c-0.2-0.41-0.2-0.74-0.01-1.15
			c3.75-7.94,8.13-15.52,13.07-22.77c0.24-0.35,0.48-0.52,0.93-0.55c3.55-0.3,7.1-0.42,10.65-0.55c2.96-0.11,5.92,0.04,8.87,0.1
			c2.37,0.05,4.75,0.18,7.11,0.44c0.32,0.03,0.5,0.17,0.67,0.42c3.78,5.47,7.25,11.13,10.33,17.02c1.01,1.94,1.97,3.9,2.93,5.86
			c0.15,0.31,0.18,0.56,0.03,0.89c-3.67,7.78-7.95,15.22-12.73,22.38c-0.57,0.86-1.24,1.15-2.18,1.2c-3.23,0.17-6.46,0.41-9.7,0.43
			c-0.92,0.01-1.84,0.05-3.13,0.09c-2.57-0.08-5.5-0.15-8.43-0.28c-1.52-0.07-3.03-0.23-4.54-0.34c-0.32-0.02-0.49-0.17-0.66-0.42
			C132.44,168.32,129.15,163.05,126.23,157.56z M181.07,158.2c0.36,0.91,0.67,1.68,0.97,2.46c1.15,3.04,2.19,6.11,3.12,9.23
			c0.13,0.43-0.05,0.52-0.37,0.59c-2.76,0.64-5.54,1.24-8.34,1.7c-1.2,0.2-2.39,0.4-3.77,0.63
			C175.77,168.02,178.49,163.25,181.07,158.2z M181.07,141.66c-0.83-1.54-1.6-3-2.39-4.44c-1.73-3.16-3.6-6.23-5.55-9.26
			c-0.12-0.19-0.4-0.4-0.28-0.6c0.14-0.24,0.42-0.02,0.64,0.01c3.66,0.51,7.29,1.23,10.89,2.08c1.01,0.24,0.84,0.08,0.58,0.97
			C183.86,134.2,182.55,137.91,181.07,141.66z M149.47,109.67c0.39-0.42,0.58-0.34,0.92,0.03c2.71,2.86,5.26,5.85,7.73,8.92
			c0.06,0.08,0.11,0.18,0.23,0.4c-5.62-0.31-11.14-0.35-16.76,0c0.39-0.76,0.91-1.31,1.38-1.9
			C145.04,114.56,147.21,112.08,149.47,109.67z M112.4,95.97c0.41-1.2,0.97-2.33,1.73-3.36c1.23-1.68,2.95-2.34,4.95-2.4
			c2.69-0.09,5.2,0.68,7.66,1.67c4.32,1.76,8.19,4.29,11.88,7.1c2.13,1.62,4.16,3.37,6.16,5.15c0.26,0.23,0.25,0.36,0.02,0.6
			c-3.73,3.94-7.21,8.09-10.49,12.41c-0.53,0.7-1.06,1.4-1.56,2.12c-0.19,0.27-0.4,0.41-0.73,0.45c-1.55,0.19-3.09,0.39-4.64,0.59
			c-3.56,0.47-7.09,1.09-10.6,1.86c-1.11,0.24-2.21,0.49-3.31,0.77c-0.35,0.09-0.5,0.05-0.58-0.33c-0.63-2.88-1.16-5.78-1.51-8.7
			c-0.29-2.38-0.52-4.77-0.42-6.87C110.91,103.07,111.21,99.46,112.4,95.97z M109.23,165.1c-0.31,0.98-0.63,1.95-0.89,2.95
			c-0.11,0.43-0.27,0.51-0.69,0.37c-3.32-1.07-6.59-2.27-9.77-3.72c-3.44-1.57-6.75-3.38-9.75-5.68c-2.15-1.65-4.16-3.45-5.47-5.89
			c-0.52-0.97-0.92-1.98-0.85-2.78c0.01-2.41,1.03-4.06,2.3-5.57c2.58-3.09,5.89-5.27,9.36-7.22c4.48-2.52,9.25-4.35,14.13-5.93
			c0.54-0.18,0.56,0.13,0.66,0.46c1.39,4.68,3.04,9.26,4.9,13.78c0.51,1.23,1.02,2.45,1.57,3.66c0.19,0.41,0.17,0.74,0,1.14
			C112.64,155.37,110.8,160.18,109.23,165.1z M144.8,195.98c-4.38,4-9.01,7.65-14.24,10.5c-2.67,1.45-5.43,2.63-8.42,3.21
			c-1.5,0.29-3.03,0.35-4.53,0.02c-2-0.44-3.26-1.79-4.18-3.52c-1.05-1.97-1.59-4.1-1.93-6.29c-0.35-2.2-0.48-4.42-0.41-6.36
			c-0.05-4.52,0.47-8.7,1.26-12.84c0.21-1.09,0.45-2.17,0.65-3.27c0.06-0.35,0.21-0.4,0.53-0.33c2.91,0.71,5.84,1.31,8.78,1.82
			c2.53,0.44,5.06,0.81,7.61,1.1c0.74,0.09,1.49,0.18,2.23,0.25c0.27,0.02,0.43,0.16,0.57,0.36c2.32,3.21,4.79,6.31,7.36,9.32
			c1.53,1.79,3.14,3.52,4.73,5.25C145.09,195.51,145.12,195.68,144.8,195.98z M150.94,189.84c-0.87,0.91-0.88,0.92-1.75,0.01
			c-2.66-2.76-5.12-5.69-7.61-8.83c5.66,0.22,11.16,0.25,16.65,0.01c0.12,0.24-0.04,0.35-0.14,0.48
			C155.82,184.39,153.48,187.2,150.94,189.84z M187.16,205.19c-0.71,1.64-1.68,3.09-3.33,3.95c-1.04,0.54-2.15,0.68-3.31,0.63
			c-3.13-0.03-6.01-1.04-8.8-2.34c-4.47-2.09-8.49-4.89-12.31-7.99c-1.4-1.14-2.73-2.34-4.1-3.51c-0.32-0.27-0.33-0.46-0.03-0.77
			c4.37-4.55,8.34-9.43,12.05-14.53c0.4-0.55,0.98-0.39,1.46-0.44c3.63-0.41,7.24-0.96,10.84-1.63c2.31-0.43,4.61-0.92,6.89-1.48
			c0.33-0.08,0.51-0.09,0.61,0.36c0.65,2.96,1.16,5.95,1.54,8.96c0.31,2.45,0.44,4.91,0.42,7.36
			C189.05,197.65,188.73,201.54,187.16,205.19z M216.16,154.88c-2.06,2.58-4.64,4.54-7.42,6.27c-5.14,3.21-10.72,5.42-16.46,7.28
			c-0.46,0.15-0.47-0.12-0.54-0.37c-0.56-1.98-1.2-3.93-1.87-5.87c-1.38-3.99-2.93-7.9-4.65-11.75c-0.15-0.34-0.17-0.61-0.02-0.96
			c1.92-4.37,3.66-8.81,5.14-13.35c0.45-1.36,0.84-2.74,1.26-4.1c0.1-0.34,0.15-0.63,0.68-0.47c6.12,1.97,12.04,4.36,17.44,7.9
			c2.34,1.53,4.53,3.25,6.29,5.44c1.2,1.49,2.12,3.11,2.22,5.02C218.15,151.89,217.3,153.46,216.16,154.88z"/>
		<path class="st52" d="M163.91,150c0.13,7.56-6.25,13.99-13.95,13.96c-7.43-0.03-13.98-5.89-13.96-13.98
			c0.02-7.79,6.14-13.91,13.95-13.93C157.99,136.02,164,142.58,163.91,150z"/>
	</g>
</g>
<g id="Guides">
</g>
<g id="Layer_5" class="st155">
	<rect x="59.79" y="59.6" class="st156" width="180.21" height="180.21"/>
</g>
</svg>
