<svg xmlns="http://www.w3.org/2000/svg" xmlns:xlink="http://www.w3.org/1999/xlink" viewBox="0 0 300 300"><defs><style>.cls-1,.cls-7{fill:none;}.cls-1{clip-rule:evenodd;}.cls-2{fill:#679e63;}.cls-3,.cls-4{fill:#fff;}.cls-4,.cls-5{fill-rule:evenodd;}.cls-5{fill:url(#linear-gradient);}.cls-6{clip-path:url(#clip-path);}.cls-8{fill:#4b4b4b;opacity:0.66;}.cls-9{fill:url(#linear-gradient-2);}</style><linearGradient id="linear-gradient" x1="99.48" y1="145.56" x2="144.68" y2="145.56" gradientUnits="userSpaceOnUse"><stop offset="0.01" stop-color="#fff"/><stop offset="0.19" stop-color="#e8e8e8"/><stop offset="0.54" stop-color="#c3c3c3"/><stop offset="0.82" stop-color="#ababab"/><stop offset="1" stop-color="#a3a3a3"/></linearGradient><clipPath id="clip-path"><path class="cls-1" d="M123.3,120.16a2.42,2.42,0,0,0-2.44,0L100.69,131.8a2.43,2.43,0,0,0-1.21,2.11V157.2a2.44,2.44,0,0,0,1.21,2.11L120.86,171a2.47,2.47,0,0,0,2.44,0l20.16-11.65a2.45,2.45,0,0,0,1.22-2.11V133.91a2.44,2.44,0,0,0-1.22-2.11Z"/></clipPath><linearGradient id="linear-gradient-2" x1="99.16" y1="145.52" x2="145.79" y2="145.52" gradientUnits="userSpaceOnUse"><stop offset="0" stop-color="#a3a3a3"/><stop offset="0.18" stop-color="#ababab"/><stop offset="0.46" stop-color="#c3c3c3"/><stop offset="0.81" stop-color="#e8e8e8"/><stop offset="0.99" stop-color="#fff"/></linearGradient></defs><g id="Fondos"><rect class="cls-2" width="300" height="300"/></g><g id="Texto"><path class="cls-3" d="M148.78,220a4,4,0,0,1-2-.54l-6.4-3.78c-1-.54-.49-.73-.17-.84a12.39,12.39,0,0,0,2.89-1.32.55.55,0,0,1,.48,0l4.91,2.92a.64.64,0,0,0,.6,0l19.17-11.06a.61.61,0,0,0,.29-.52V182.78a.6.6,0,0,0-.3-.53l-19.16-11.06a.62.62,0,0,0-.59,0l-19.16,11.06a.64.64,0,0,0-.3.53V204.9a.59.59,0,0,0,.3.51l5.25,3c2.85,1.43,4.6-.25,4.6-1.93V184.66a.55.55,0,0,1,.55-.55h2.44a.55.55,0,0,1,.55.55v21.85c0,3.8-2.07,6-5.68,6a8.19,8.19,0,0,1-4.41-1.2l-5-2.9a4,4,0,0,1-2-3.49V182.78a4.06,4.06,0,0,1,2-3.5l19.17-11.07a4.18,4.18,0,0,1,4,0L170,179.28a4.06,4.06,0,0,1,2,3.5V204.9a4.05,4.05,0,0,1-2,3.49L150.8,219.46A4,4,0,0,1,148.78,220Z"/><path class="cls-3" d="M154.7,204.76c-8.38,0-10.14-3.85-10.14-7.08a.54.54,0,0,1,.55-.55h2.48a.55.55,0,0,1,.55.47c.37,2.52,1.49,3.79,6.56,3.79,4,0,5.76-.91,5.76-3,0-1.24-.49-2.16-6.76-2.77-5.25-.52-8.49-1.68-8.49-5.87,0-3.87,3.26-6.18,8.72-6.18,6.15,0,9.18,2.13,9.57,6.71a.56.56,0,0,1-.55.6h-2.49a.55.55,0,0,1-.54-.43c-.6-2.66-2-3.51-6-3.51-4.4,0-4.92,1.54-4.92,2.69,0,1.39.61,1.8,6.56,2.59s8.69,1.88,8.69,6S160.78,204.76,154.7,204.76Z"/><path class="cls-3" d="M182.34,181.56a3.69,3.69,0,1,1-3.69-3.7A3.7,3.7,0,0,1,182.34,181.56Zm-6.79,0a3.1,3.1,0,1,0,3.09-3.09A3.1,3.1,0,0,0,175.55,181.55Zm1.71-2.06h1.43c.49,0,1.45,0,1.45,1.09a1,1,0,0,1-.79,1c.57,0,.61.41.69.94a4.3,4.3,0,0,0,.21,1.09h-.88c0-.19-.15-1.25-.15-1.31-.06-.23-.14-.35-.43-.35h-.73v1.66h-.8Zm.78,1.81h.65a.56.56,0,0,0,.63-.58c0-.57-.4-.57-.61-.57H178Z"/><path class="cls-4" d="M89.42,133.45a2.43,2.43,0,0,0-1.23-2.13l-20.32-11.7a2.34,2.34,0,0,0-1.12-.32h-.21a2.37,2.37,0,0,0-1.12.32L45.1,131.32a2.45,2.45,0,0,0-1.23,2.13l0,31.49a1.2,1.2,0,0,0,.62,1.06,1.15,1.15,0,0,0,1.21,0l12.08-6.91A2.48,2.48,0,0,0,59.05,157V142.24a2.44,2.44,0,0,1,1.23-2.12l5.14-3a2.34,2.34,0,0,1,1.23-.33,2.31,2.31,0,0,1,1.22.33l5.14,3a2.44,2.44,0,0,1,1.23,2.12V157a2.49,2.49,0,0,0,1.23,2.13L87.55,166a1.16,1.16,0,0,0,1.22,0,1.21,1.21,0,0,0,.61-1.06Z"/><path class="cls-4" d="M187.21,90.16a1.21,1.21,0,0,0-1.22,0,1.24,1.24,0,0,0-.61,1.06v31.19a.86.86,0,0,1-.42.74.88.88,0,0,1-.86,0L179,120.23a2.46,2.46,0,0,0-2.46,0L156.22,132a2.46,2.46,0,0,0-1.23,2.13v23.47a2.46,2.46,0,0,0,1.23,2.13l20.33,11.74a2.46,2.46,0,0,0,2.46,0l20.33-11.74a2.46,2.46,0,0,0,1.23-2.13V99.05a2.44,2.44,0,0,0-1.26-2.14Zm-1.89,59.69a.6.6,0,0,1-.3.53l-7,4a.62.62,0,0,1-.62,0l-7-4a.6.6,0,0,1-.3-.53v-8.06a.6.6,0,0,1,.3-.53l7-4a.62.62,0,0,1,.62,0l7,4a.6.6,0,0,1,.3.53Z"/><path class="cls-4" d="M254.91,141.58a2.45,2.45,0,0,0,1.22-2.13v-5.68a2.45,2.45,0,0,0-1.22-2.13l-20.2-11.73a2.46,2.46,0,0,0-2.46,0l-20.32,11.73a2.46,2.46,0,0,0-1.23,2.13v23.46a2.45,2.45,0,0,0,1.24,2.14l20.2,11.51a2.44,2.44,0,0,0,2.4,0l12.22-6.79a1.23,1.23,0,0,0,0-2.14l-20.45-11.74a1.23,1.23,0,0,1-.62-1.06V141.8a1.24,1.24,0,0,1,.62-1.06l6.36-3.67a1.23,1.23,0,0,1,1.23,0l6.37,3.67a1.23,1.23,0,0,1,.61,1.06v5.79a1.22,1.22,0,0,0,.62,1.06,1.23,1.23,0,0,0,1.23,0Z"/><path class="cls-4" d="M233.18,140.48a.44.44,0,0,1,.47,0l3.9,2.25a.46.46,0,0,1,.24.41v4.5a.47.47,0,0,1-.24.41l-3.9,2.25a.49.49,0,0,1-.47,0l-3.9-2.25a.49.49,0,0,1-.23-.41v-4.5a.47.47,0,0,1,.23-.41Z"/><path class="cls-5" d="M120.86,120.16a2.4,2.4,0,0,1,2.43,0l20.17,11.64a2.44,2.44,0,0,1,1.22,2.11V157.2a2.45,2.45,0,0,1-1.22,2.11L123.29,171a2.45,2.45,0,0,1-2.43,0l-20.17-11.65a2.44,2.44,0,0,1-1.21-2.11V133.91a2.43,2.43,0,0,1,1.21-2.11Z"/><g class="cls-6"><path class="cls-7" d="M120.83,120.16,100.65,131.8a2.47,2.47,0,0,0-1.27,2.11V157.2a2.37,2.37,0,0,0,.57,1.53l22.69-38.82A2.45,2.45,0,0,0,120.83,120.16Z"/><path class="cls-7" d="M122.77,171.16a2.14,2.14,0,0,0,.47-.2l20.12-11.65a2.35,2.35,0,0,0,1.13-2.11V133.91a2.51,2.51,0,0,0-.52-1.57Z"/><path class="cls-8" d="M143.36,131.8l-20.08-11.64a2.18,2.18,0,0,0-.64-.25L100,158.73a2.52,2.52,0,0,0,.68.58L120.83,171a2.4,2.4,0,0,0,1.94.2L144,132.34A2,2,0,0,0,143.36,131.8Z"/><path class="cls-7" d="M100.88,131.66l-.23.14a2.47,2.47,0,0,0-1.27,2.11V157.2a2.48,2.48,0,0,0,1.25,2.11L120.83,171a2.42,2.42,0,0,0,1.76.26Z"/><path class="cls-7" d="M144.49,133.91a2.36,2.36,0,0,0-1.13-2.11l-20.08-11.64a2.45,2.45,0,0,0-.56-.23l21.77,37.18Z"/><path class="cls-9" d="M123.24,171l20.12-11.65a2.35,2.35,0,0,0,1.13-2.11v-.09l-21.77-37.18a2.45,2.45,0,0,0-1.89.23l-20,11.5,21.71,39.56A2.6,2.6,0,0,0,123.24,171Z"/></g></g></svg>