<svg xmlns="http://www.w3.org/2000/svg" viewBox="0 0 300 300"><defs><style>.cls-1{fill:#f0672b;}.cls-2{fill:#fff;}</style></defs><g id="Fondos"><rect class="cls-1" width="300" height="300"/></g><g id="Texto"><path class="cls-2" d="M150.2,225a2,2,0,0,1,.4-.18l29.64-8.21,23.07-6.38c.57-.15.88-.34.94-1,.61-7.17,1.28-14.33,1.92-21.5q1.29-14.33,2.56-28.66,1.23-13.83,2.44-27.67c.88-9.89,1.79-19.77,2.67-29.66.76-8.53,1.48-17.06,2.29-25.58.09-1-.18-1.11-1-1.11Q150,75,85,75a3.35,3.35,0,0,1-.55,0c-.57-.07-.65.19-.57.7.12.9.18,1.81.26,2.72q.77,8.7,1.53,17.42,1,10.7,1.93,21.4c.58,6.47,1.13,12.94,1.71,19.41q1.05,11.75,2.12,23.49c.64,7.17,1.25,14.34,1.89,21.5.82,9.23,1.67,18.44,2.48,27.67,0,.6.28.79.82.94q22.41,6.18,44.82,12.4c2.74.76,5.52,1.42,8.21,2.34"/><path class="cls-2" d="M149.65,225c-2.69-.92-5.47-1.58-8.21-2.34q-22.41-6.22-44.82-12.4c-.54-.15-.77-.34-.82-.94-.81-9.23-1.66-18.44-2.48-27.67-.64-7.16-1.25-14.33-1.89-21.5q-1.05-11.75-2.12-23.49c-.58-6.47-1.13-12.94-1.71-19.41q-1-10.71-1.93-21.4-.78-8.71-1.53-17.42c-.08-.91-.14-1.82-.26-2.72-.08-.51,0-.77.57-.7A3.35,3.35,0,0,0,85,75q65,0,130.08,0c.87,0,1.14.09,1,1.11-.81,8.52-1.53,17-2.29,25.58-.88,9.89-1.79,19.77-2.67,29.66q-1.23,13.83-2.44,27.67-1.28,14.32-2.56,28.66c-.64,7.17-1.31,14.33-1.92,21.5-.06.71-.37.9-.94,1l-23.07,6.38-29.64,8.21a2,2,0,0,0-.4.18Zm.37-45.95c-.2,0-.42,0-.62-.09-5.68-1.51-11.36-3.05-17.05-4.53-.74-.19-.91-.52-1-1.23-.31-3.87-.69-7.74-1-11.61,0-.44-.15-.63-.64-.63q-7.69,0-15.4,0c-.48,0-.66.14-.6.63.09.84.15,1.69.22,2.54.66,7.31,1.33,14.62,2,21.93a1.07,1.07,0,0,0,.91,1.12q16.6,4.57,33.21,9.23c0,5.4,0,10.81,0,16.21,0,.84.29.87.94.69q8.64-2.44,17.29-4.86l16.43-4.59,8.3-2.32c.36-.1.8-.13.84-.67.11-1.23.26-2.46.37-3.69.14-1.65.24-3.31.4-5,.21-2.34.47-4.68.69-7,.15-1.65.25-3.31.39-5q.34-3.87.71-7.75c.13-1.5.25-3,.39-4.5.23-2.4.48-4.8.7-7.2.15-1.65.24-3.31.39-5,.22-2.59.47-5.17.71-7.75.13-1.5.25-3,.39-4.51.23-2.52.47-5,.7-7.56.14-1.56.26-3.13.4-4.69.22-2.46.47-4.92.69-7.38.15-1.59.26-3.19.4-4.78.22-2.55.47-5.1.7-7.65.14-1.54.26-3.07.4-4.6.22-2.46.47-4.92.69-7.38.15-1.63.26-3.25.41-4.87.22-2.53.44-5,.7-7.57.09-.84-.26-1-1-1q-26,0-52,0c-.81,0-1,.21-1,1,0,5.16,0,10.33,0,15.49-.43,0-.85,0-1.27,0H109.36c-.51,0-1-.14-.9.75q1.19,12.5,2.3,25c.7,7.74,1.4,15.47,2,23.21.08.86.37,1,1.21,1q17.42,0,34.83,0c.39,0,.78,0,1.18.06Z"/><path class="cls-2" d="M150,102.6c0-5.16,0-10.33,0-15.49,0-.8.21-1,1-1q26,0,52,0c.77,0,1.12.15,1,1-.26,2.52-.48,5-.7,7.57-.15,1.62-.26,3.24-.41,4.87-.22,2.46-.47,4.92-.69,7.38-.14,1.53-.26,3.06-.4,4.6-.23,2.55-.48,5.1-.7,7.65-.14,1.59-.25,3.19-.4,4.78-.22,2.46-.47,4.92-.69,7.38-.14,1.56-.26,3.13-.4,4.69-.23,2.52-.47,5-.7,7.56-.14,1.51-.26,3-.39,4.51-.24,2.58-.49,5.16-.71,7.75-.15,1.65-.24,3.31-.39,5-.22,2.4-.47,4.8-.7,7.2-.14,1.5-.26,3-.39,4.5q-.36,3.88-.71,7.75c-.14,1.65-.24,3.31-.39,5-.22,2.34-.48,4.68-.69,7-.16,1.65-.26,3.31-.4,5-.11,1.23-.26,2.46-.37,3.69,0,.54-.48.57-.84.67l-8.3,2.32-16.43,4.59q-8.65,2.42-17.29,4.86c-.65.18-.95.15-.94-.69,0-5.4,0-10.81,0-16.21a.38.38,0,0,0,0-.1l32.1-8.87c1.67-.47,1.72-.47,1.88-2.2.55-5.8,1.06-11.61,1.58-17.41.46-5,.9-10.09,1.35-15.14s.94-10.27,1.39-15.41c.1-1.16.07-1.17-1.13-1.17H150.91c-.3,0-.6,0-.91,0a.36.36,0,0,0,0-.1q0-8.4,0-16.8a.62.62,0,0,1,0-.13,1.13,1.13,0,0,0,.18,0q19.53,0,39,0c.55,0,.71-.15.76-.71.45-5,.91-9.91,1.41-14.86.08-.77-.1-1-.89-1q-19.87,0-39.77,0l-.73,0Z"/><path class="cls-1" d="M150,119.12a.62.62,0,0,0,0,.13c-.37,0-.73-.06-1.09-.06H132.41c-1.67,0-3.34,0-5,0-.6,0-.82.17-.73.78s.13,1.39.19,2.08c.4,4.42.83,8.83,1.19,13.24.06.75.36.85,1,.85,6.68,0,13.37,0,20.06,0,.3,0,.6,0,.91,0a.36.36,0,0,1,0,.1v16.47l0,.08c-.4,0-.79-.06-1.18-.06q-17.41,0-34.83,0c-.84,0-1.13-.19-1.21-1-.65-7.74-1.35-15.47-2-23.21q-1.12-12.5-2.3-25c-.09-.89.39-.75.9-.75h39.39c.42,0,.84,0,1.27,0v16.52Z"/><path class="cls-1" d="M150,196.31a.38.38,0,0,1,0,.1q-16.61-4.64-33.21-9.23a1.07,1.07,0,0,1-.91-1.12c-.63-7.31-1.3-14.62-2-21.93-.07-.85-.13-1.7-.22-2.54-.06-.49.12-.63.6-.63q7.7,0,15.4,0c.49,0,.6.19.64.63.33,3.87.71,7.74,1,11.61.06.71.23,1,1,1.23,5.69,1.48,11.37,3,17.05,4.53.2,0,.42.06.62.09v.08Q150,187.71,150,196.31Z"/><path class="cls-2" d="M150,179.05q0-13.19,0-26.35l0-.08c.33,0,.67,0,1,0,6.08,0,12.15,0,18.23,0,.84,0,1.17.13,1.06,1.08-.26,2.07-.39,4.16-.58,6.25-.41,4.5-.83,9-1.21,13.5,0,.6-.3.79-.85.94q-8.83,2.34-17.65,4.72Z"/><path class="cls-1" d="M150,179.13q8.82-2.37,17.65-4.72c.55-.15.8-.34.85-.94.38-4.51.8-9,1.21-13.5.19-2.09.32-4.18.58-6.25.11-.95-.22-1.08-1.06-1.08-6.08,0-12.15,0-18.23,0-.33,0-.67,0-1,0q0-8.24,0-16.47c.31,0,.61,0,.91,0H187.2c1.2,0,1.23,0,1.13,1.17-.45,5.14-.93,10.27-1.39,15.41s-.89,10.1-1.35,15.14c-.52,5.8-1,11.61-1.58,17.41-.16,1.73-.21,1.73-1.88,2.2L150,196.31Q150,187.72,150,179.13Z"/><path class="cls-1" d="M150,119.12V102.68l.73,0q19.89,0,39.77,0c.79,0,1,.2.89,1-.5,5-1,9.9-1.41,14.86-.05.56-.21.71-.76.71q-19.52,0-39,0A1.13,1.13,0,0,1,150,119.12Z"/><path class="cls-2" d="M150,136.05c-.31,0-.61,0-.91,0-6.69,0-13.38,0-20.06,0-.65,0-1-.1-1-.85-.36-4.41-.79-8.82-1.19-13.24-.06-.69-.1-1.39-.19-2.08s.13-.79.73-.78c1.68,0,3.35,0,5,0h16.51c.36,0,.72,0,1.09.06Q150,127.65,150,136.05Z"/></g></svg>