<?xml version="1.0" encoding="utf-8"?>
<!-- Generator: Adobe Illustrator 25.4.1, SVG Export Plug-In . SVG Version: 6.00 Build 0)  -->
<svg version="1.1" xmlns="http://www.w3.org/2000/svg" xmlns:xlink="http://www.w3.org/1999/xlink" x="0px" y="0px"
	 viewBox="0 0 300 300" style="enable-background:new 0 0 300 300;" xml:space="preserve">
<style type="text/css">
	.st0{fill:#4674B9;}
	.st1{fill:#2C2C32;}
	.st2{fill:#010101;}
	.st3{fill:#F6DF19;}
	.st4{fill:#2363AF;}
	.st5{fill:#F0672B;}
	.st6{fill:#101215;}
	.st7{fill:#492D8C;}
	.st8{fill:#F36C3D;}
	.st9{fill:#7756A3;}
	.st10{fill:#679E63;}
	.st11{fill:#484848;}
	.st12{fill:#1B1F23;}
	.st13{fill:#EF7729;}
	.st14{fill:#4791CE;}
	.st15{fill:#F6F6F6;}
	.st16{fill:#4A4A4D;}
	.st17{fill:#C54027;}
	.st18{fill:#3978BD;}
	.st19{fill:#CC6899;}
	.st20{fill:#12364F;}
	.st21{fill:#316A9A;}
	.st22{fill:#FFD53E;}
	.st23{fill:#693994;}
	.st24{fill:#FFFFFF;}
	.st25{fill-rule:evenodd;clip-rule:evenodd;fill:#FFFFFF;}
	.st26{fill-rule:evenodd;clip-rule:evenodd;fill:url(#XMLID_00000134221061134096176370000017114712171940130481_);}
	.st27{clip-path:url(#XMLID_00000163061341176248493010000011607271897426216350_);}
	.st28{fill:none;}
	.st29{opacity:0.66;fill:#4B4B4B;}
	.st30{fill:url(#SVGID_1_);}
	.st31{opacity:0.05;fill:#010101;enable-background:new    ;}
	.st32{fill:#17AA4F;}
	.st33{fill:#B8C4C2;}
	.st34{fill:#14924F;}
	.st35{fill:#22323D;}
	.st36{fill:#F26424;}
	.st37{fill:#4E4E4E;}
	.st38{fill:#3B2F14;}
	.st39{fill:#F58772;}
	.st40{fill:#F05233;}
	.st41{fill:#433527;}
	.st42{fill:#DD1E34;}
	.st43{fill:#C32033;}
	.st44{fill:#F9F9FA;}
	.st45{fill:#7253A2;}
	.st46{fill:#4674B9;stroke:#FFFFFF;stroke-width:8;stroke-miterlimit:10;}
	.st47{fill:#EF4623;}
	.st48{fill:#4EB987;}
	.st49{fill:#455567;}
	.st50{fill:#F1F2F2;}
	.st51{fill:#70CEEF;}
	.st52{fill:#70CFF0;}
	.st53{opacity:0.7;fill:#2C384A;enable-background:new    ;}
	.st54{fill:url(#path-2_00000182512667243522311390000015457960057378756285_);}
	.st55{filter:url(#Adobe_OpacityMaskFilter);}
	.st56{mask:url(#mask-3_3_);}
	.st57{fill:#F9A01B;}
	.st58{fill:#F47D20;}
	.st59{fill:#FFCB2A;}
	.st60{fill:#FFFFFF;fill-opacity:0.2;}
	.st61{opacity:0.2;fill:#A52A22;enable-background:new    ;}
	.st62{filter:url(#Adobe_OpacityMaskFilter_00000177466110181207842760000011149158737780359813_);}
	.st63{mask:url(#mask-3_2_);fill:none;}
	.st64{filter:url(#Adobe_OpacityMaskFilter_00000016033310466083958940000002796434562715630478_);}
	.st65{mask:url(#mask-3_1_);fill:url(#_Path_5_00000019675702022911099850000001198674811224645763_);}
	.st66{fill:#5BADE0;}
	.st67{fill:#4699D4;}
	.st68{fill:#318ECD;}
	.st69{fill:#3390CE;}
	.st70{fill:#1773B0;}
	.st71{fill:#489BD5;}
	.st72{fill:#2884C6;}
	.st73{fill:#2682C5;}
	.st74{fill:#2480C4;}
	.st75{fill:#237EC2;}
	.st76{fill:#4497D2;}
	.st77{fill:#1571AF;}
	.st78{fill:#237DC1;}
	.st79{fill:#1B72AD;}
	.st80{fill:#1B6CA3;}
	.st81{fill:#196FA9;}
	.st82{fill:#1D77BD;}
	.st83{fill:#207ABF;}
	.st84{fill:#2D7FB8;}
	.st85{fill:#3383BA;}
	.st86{fill:#287EB6;}
	.st87{fill:#63B0E1;}
	.st88{fill:#3887BC;}
	.st89{fill:#3B89BD;}
	.st90{fill:#3792D0;}
	.st91{fill:#2A78AC;}
	.st92{fill:#2973A8;}
	.st93{fill:#2A7CB3;}
	.st94{fill:#3F88BA;}
	.st95{fill:#59ABDF;}
	.st96{fill:#3A7FAF;}
	.st97{fill:#317BAC;}
	.st98{fill:#367DAE;}
	.st99{fill:#2C8BCB;}
	.st100{fill:#2E8DCC;}
	.st101{fill:#1A75B1;}
	.st102{fill:#1F77B2;}
	.st103{fill:#1D74AF;}
	.st104{fill:#1D72AA;}
	.st105{fill:#206FA5;}
	.st106{fill:#499FD8;}
	.st107{fill:#489CD6;}
	.st108{fill:#4DA1D9;}
	.st109{fill:#51A6DC;}
	.st110{fill:#4FA4DB;}
	.st111{fill:#0F72B7;}
	.st112{fill:#0770B7;}
	.st113{fill:#56A8DD;}
	.st114{fill:#2A88C9;}
	.st115{fill:#227FC3;}
	.st116{fill:#1F7DC1;}
	.st117{fill:#1D7BC0;}
	.st118{fill:#1474BB;}
	.st119{fill:#1071B9;}
	.st120{fill:#1E79BF;}
	.st121{fill:#1875BC;}
	.st122{fill:#3381B5;}
	.st123{fill:#2F7FB4;}
	.st124{fill:#3883B6;}
	.st125{fill:#267BB5;}
	.st126{fill:#297AB2;}
	.st127{fill:#3E86B6;}
	.st128{fill:#3C81B1;}
	.st129{fill:#3B87B9;}
	.st130{fill:#3A85B8;}
	.st131{fill:#2378B1;}
	.st132{fill:#2675AC;}
	.st133{fill:#2572A6;}
	.st134{fill:#0D74B8;}
	.st135{fill:#3882B4;}
	.st136{fill:#367FB2;}
	.st137{fill:#307CAF;}
	.st138{fill:#337EB0;}
	.st139{fill:#2271A5;}
	.st140{fill:#0E75BB;}
	.st141{fill:#0D73BB;}
	.st142{fill:#0B74BC;}
	.st143{fill:#1578BC;}
	.st144{fill:#1C7CC1;}
	.st145{fill:#2575AB;}
	.st146{fill:#1B7BC0;}
	.st147{fill:#1876BD;}
	.st148{fill:#1978BE;}
	.st149{fill:#3C84B4;}
	.st150{fill-rule:evenodd;clip-rule:evenodd;fill:#687E91;}
	.st151{fill:#037690;}
	.st152{fill:#F29220;}
	.st153{fill-rule:evenodd;clip-rule:evenodd;fill:#F29220;}
	.st154{fill-rule:evenodd;clip-rule:evenodd;fill:#037690;}
	.st155{display:none;}
	.st156{display:inline;fill-rule:evenodd;clip-rule:evenodd;fill:#2BB673;}
	.st157{display:inline;opacity:0.15;fill-rule:evenodd;clip-rule:evenodd;fill:#2BB673;}
</style>
<g id="Fondos_1_">
	<rect class="st5" width="300" height="300"/>
</g>
<g id="Texto">
	<g>
		<path class="st24" d="M150.2,225c0.13-0.06,0.26-0.15,0.4-0.18c9.88-2.74,19.76-5.47,29.64-8.21c7.69-2.13,15.38-4.26,23.07-6.38
			c0.57-0.16,0.88-0.34,0.94-1.05c0.61-7.17,1.28-14.33,1.92-21.5c0.86-9.55,1.71-19.11,2.56-28.66c0.82-9.22,1.62-18.45,2.44-27.67
			c0.88-9.89,1.79-19.77,2.67-29.66c0.76-8.53,1.48-17.06,2.29-25.58c0.1-1.02-0.17-1.11-1.05-1.11
			c-43.36,0.02-86.72,0.02-130.08,0.02c-0.18,0-0.37,0.02-0.55,0c-0.57-0.07-0.65,0.19-0.57,0.69c0.13,0.9,0.18,1.81,0.26,2.72
			c0.51,5.81,1.01,11.61,1.53,17.42c0.64,7.14,1.3,14.27,1.93,21.4c0.58,6.47,1.13,12.94,1.71,19.41c0.7,7.83,1.42,15.66,2.12,23.49
			c0.64,7.17,1.25,14.33,1.89,21.5c0.82,9.22,1.67,18.44,2.48,27.66c0.05,0.61,0.28,0.79,0.82,0.94
			c14.94,4.12,29.89,8.25,44.82,12.4c2.74,0.76,5.52,1.42,8.21,2.34"/>
		<path class="st24" d="M149.65,225c-2.7-0.92-5.47-1.58-8.21-2.34c-14.94-4.15-29.88-8.28-44.82-12.4
			c-0.54-0.15-0.77-0.34-0.82-0.94c-0.81-9.22-1.65-18.44-2.48-27.66c-0.64-7.17-1.25-14.33-1.89-21.5
			c-0.7-7.83-1.42-15.66-2.12-23.49c-0.58-6.47-1.13-12.94-1.71-19.41c-0.64-7.14-1.29-14.27-1.93-21.4
			c-0.52-5.81-1.02-11.61-1.53-17.42c-0.08-0.91-0.14-1.82-0.26-2.72c-0.07-0.5,0.01-0.76,0.57-0.69c0.18,0.02,0.36,0,0.55,0
			c43.36,0,86.72,0,130.08-0.02c0.88,0,1.15,0.09,1.05,1.11c-0.81,8.52-1.53,17.05-2.29,25.58c-0.88,9.89-1.79,19.77-2.67,29.66
			c-0.82,9.22-1.62,18.45-2.44,27.67c-0.85,9.55-1.7,19.11-2.56,28.66c-0.64,7.17-1.31,14.33-1.92,21.5
			c-0.06,0.71-0.37,0.9-0.94,1.05c-7.69,2.12-15.38,4.25-23.07,6.38c-9.88,2.73-19.76,5.47-29.64,8.21
			c-0.14,0.04-0.27,0.12-0.4,0.18C150.02,225,149.83,225,149.65,225z M150.02,179.05c-0.21-0.03-0.42-0.03-0.62-0.09
			c-5.68-1.51-11.36-3.05-17.06-4.53c-0.74-0.19-0.91-0.52-0.97-1.23c-0.31-3.87-0.69-7.73-1.02-11.6
			c-0.04-0.44-0.15-0.63-0.64-0.63c-5.14,0.02-10.27,0.01-15.41,0c-0.48,0-0.66,0.14-0.6,0.62c0.1,0.84,0.15,1.69,0.23,2.54
			c0.66,7.31,1.32,14.62,1.96,21.93c0.06,0.63,0.24,0.93,0.9,1.12c11.08,3.06,22.15,6.15,33.22,9.23c0,5.41,0.02,10.81-0.02,16.22
			c-0.01,0.83,0.29,0.87,0.94,0.69c5.76-1.63,11.53-3.25,17.29-4.86c5.48-1.53,10.95-3.06,16.43-4.59c2.77-0.77,5.54-1.54,8.3-2.32
			c0.36-0.1,0.8-0.13,0.84-0.67c0.11-1.23,0.25-2.46,0.36-3.69c0.14-1.65,0.25-3.31,0.4-4.96c0.22-2.34,0.48-4.68,0.69-7.02
			c0.15-1.65,0.25-3.31,0.39-4.96c0.23-2.58,0.47-5.16,0.71-7.74c0.14-1.5,0.25-3.01,0.39-4.51c0.23-2.4,0.48-4.8,0.7-7.2
			c0.15-1.65,0.25-3.31,0.39-4.96c0.23-2.58,0.47-5.16,0.71-7.74c0.14-1.5,0.25-3.01,0.39-4.51c0.23-2.52,0.47-5.04,0.7-7.56
			c0.14-1.56,0.26-3.13,0.4-4.69c0.23-2.46,0.47-4.92,0.69-7.38c0.14-1.59,0.25-3.19,0.39-4.78c0.23-2.55,0.47-5.1,0.7-7.65
			c0.14-1.53,0.26-3.07,0.4-4.6c0.23-2.46,0.47-4.92,0.7-7.38c0.15-1.62,0.26-3.25,0.41-4.87c0.22-2.52,0.44-5.04,0.7-7.56
			c0.09-0.84-0.26-1-1.03-0.99c-17.33,0.02-34.66,0.02-51.98,0c-0.8,0-1.02,0.21-1.02,1.02c0.04,5.16,0.02,10.33,0.02,15.49
			c-0.42,0.02-0.85,0.04-1.27,0.04c-13.13,0-26.25,0-39.38,0c-0.51,0-0.99-0.13-0.91,0.75c0.8,8.33,1.56,16.67,2.31,25.01
			c0.7,7.73,1.39,15.47,2.05,23.2c0.07,0.86,0.37,1.06,1.21,1.05c11.61-0.03,23.22-0.02,34.82-0.02c0.39,0,0.79,0.04,1.18,0.05
			C150.02,161.48,150.02,170.26,150.02,179.05z"/>
		<path class="st24" d="M150.02,102.6c0-5.16,0.02-10.33-0.02-15.49c-0.01-0.81,0.21-1.02,1.02-1.02c17.33,0.02,34.66,0.02,51.98,0
			c0.77,0,1.12,0.15,1.03,0.99c-0.26,2.52-0.48,5.04-0.7,7.56c-0.14,1.62-0.26,3.25-0.41,4.87c-0.22,2.46-0.47,4.92-0.7,7.38
			c-0.14,1.53-0.26,3.07-0.4,4.6c-0.23,2.55-0.48,5.1-0.7,7.65c-0.14,1.59-0.25,3.19-0.39,4.78c-0.22,2.46-0.47,4.92-0.69,7.38
			c-0.14,1.56-0.26,3.13-0.4,4.69c-0.23,2.52-0.47,5.04-0.7,7.56c-0.14,1.5-0.26,3.01-0.39,4.51c-0.23,2.58-0.48,5.16-0.71,7.74
			c-0.14,1.65-0.24,3.31-0.39,4.96c-0.22,2.4-0.47,4.8-0.7,7.2c-0.14,1.5-0.26,3.01-0.39,4.51c-0.23,2.58-0.48,5.16-0.71,7.74
			c-0.14,1.65-0.24,3.31-0.39,4.96c-0.22,2.34-0.48,4.68-0.69,7.02c-0.15,1.65-0.26,3.31-0.4,4.96c-0.11,1.23-0.25,2.46-0.36,3.69
			c-0.05,0.54-0.48,0.57-0.84,0.67c-2.77,0.78-5.53,1.54-8.3,2.32c-5.48,1.53-10.95,3.05-16.43,4.59
			c-5.77,1.62-11.53,3.24-17.29,4.86c-0.65,0.18-0.94,0.15-0.94-0.69c0.04-5.41,0.02-10.81,0.02-16.22c0.01-0.03,0.01-0.07,0.01-0.1
			c10.7-2.96,21.4-5.91,32.09-8.87c1.67-0.46,1.72-0.47,1.88-2.2c0.55-5.8,1.06-11.6,1.58-17.4c0.45-5.05,0.9-10.09,1.35-15.14
			c0.46-5.14,0.94-10.27,1.39-15.41c0.1-1.17,0.07-1.17-1.13-1.17c-12.1,0-24.19,0-36.29,0c-0.3,0-0.61,0.03-0.91,0.04
			c0.01-0.03,0.01-0.07,0.01-0.1c0-5.6-0.01-11.2-0.01-16.8c0-0.04,0.01-0.09,0.02-0.13c0.06,0.01,0.12,0.03,0.18,0.03
			c13.01,0,26.03,0,39.04,0.02c0.54,0,0.71-0.15,0.76-0.71c0.44-4.96,0.91-9.91,1.4-14.87c0.08-0.76-0.1-0.97-0.89-0.97
			c-13.26,0.02-26.51,0.02-39.77,0.02c-0.24,0-0.48,0.02-0.73,0.03L150.02,102.6z"/>
		<path class="st5" d="M150.02,119.12c-0.01,0.04-0.01,0.08-0.02,0.13c-0.36-0.02-0.73-0.06-1.09-0.06c-5.5,0-11.01,0-16.51,0
			c-1.67,0-3.34,0.02-5.02-0.01c-0.6-0.01-0.82,0.16-0.74,0.77c0.1,0.69,0.13,1.39,0.19,2.08c0.4,4.41,0.83,8.82,1.19,13.24
			c0.06,0.75,0.36,0.85,1.01,0.85c6.69-0.02,13.38-0.01,20.06-0.01c0.3,0,0.6-0.04,0.91-0.05c0,0.03-0.01,0.07-0.01,0.1
			c0,5.49,0.01,10.98,0.01,16.47l0.02,0.08c-0.39-0.02-0.79-0.05-1.18-0.05c-11.61,0-23.22-0.01-34.82,0.02
			c-0.84,0-1.14-0.19-1.21-1.05c-0.66-7.74-1.35-15.47-2.05-23.2c-0.75-8.34-1.51-16.67-2.31-25.01c-0.08-0.88,0.4-0.75,0.91-0.75
			c13.13,0,26.25,0,39.38,0c0.42,0,0.85-0.03,1.27-0.04c0,0,0.01,0.08,0.01,0.08C150.02,108.16,150.02,113.64,150.02,119.12z"/>
		<path class="st5" d="M150.03,196.31c0,0.03-0.01,0.07-0.01,0.1c-11.07-3.08-22.14-6.17-33.22-9.23c-0.66-0.18-0.85-0.48-0.9-1.12
			c-0.64-7.31-1.3-14.62-1.96-21.93c-0.08-0.85-0.13-1.69-0.23-2.54c-0.06-0.49,0.12-0.63,0.6-0.62c5.14,0.01,10.27,0.01,15.41,0
			c0.49,0,0.6,0.19,0.64,0.63c0.33,3.87,0.71,7.73,1.02,11.6c0.06,0.71,0.23,1.04,0.97,1.23c5.69,1.48,11.37,3.01,17.06,4.53
			c0.2,0.05,0.41,0.06,0.62,0.09l-0.02,0.08C150.02,184.85,150.02,190.58,150.03,196.31z"/>
		<path class="st24" d="M150.02,179.05c0-8.78,0-17.57,0-26.35c0,0-0.02-0.08-0.02-0.08c0.33,0.01,0.67,0.04,1,0.04
			c6.08,0,12.15,0.02,18.23-0.02c0.84,0,1.18,0.12,1.06,1.07c-0.26,2.08-0.39,4.17-0.58,6.25c-0.41,4.5-0.83,9-1.21,13.5
			c-0.05,0.61-0.3,0.8-0.84,0.94c-5.89,1.56-11.77,3.14-17.66,4.72L150.02,179.05z"/>
		<path class="st5" d="M150.01,179.13c5.89-1.58,11.77-3.16,17.66-4.72c0.54-0.14,0.79-0.34,0.84-0.94c0.38-4.5,0.81-9,1.21-13.5
			c0.19-2.08,0.32-4.17,0.58-6.25c0.12-0.95-0.22-1.08-1.06-1.07c-6.08,0.03-12.15,0.02-18.23,0.02c-0.33,0-0.67-0.03-1-0.04
			c0-5.49-0.01-10.98-0.01-16.47c0.3-0.01,0.61-0.04,0.91-0.04c12.1,0,24.19,0,36.29,0c1.19,0,1.23,0.01,1.13,1.17
			c-0.45,5.14-0.93,10.27-1.39,15.41c-0.45,5.05-0.89,10.09-1.35,15.14c-0.52,5.8-1.03,11.6-1.58,17.4
			c-0.16,1.73-0.21,1.74-1.88,2.2c-10.7,2.96-21.4,5.91-32.09,8.87C150.02,190.58,150.02,184.85,150.01,179.13z"/>
		<path class="st5" d="M150.02,119.12c0-5.48,0-10.96,0-16.44c0.24-0.01,0.48-0.03,0.73-0.03c13.26,0,26.51,0.01,39.77-0.02
			c0.79,0,0.96,0.21,0.89,0.97c-0.5,4.95-0.96,9.91-1.4,14.87c-0.05,0.56-0.22,0.71-0.76,0.71c-13.01-0.01-26.03-0.01-39.04-0.02
			C150.14,119.15,150.08,119.13,150.02,119.12z"/>
		<path class="st24" d="M150.02,136.05c-0.3,0.02-0.6,0.05-0.91,0.05c-6.69,0-13.38-0.01-20.06,0.01c-0.65,0-0.95-0.1-1.01-0.85
			c-0.36-4.42-0.79-8.83-1.19-13.24c-0.06-0.7-0.1-1.39-0.19-2.08c-0.09-0.61,0.14-0.79,0.74-0.77c1.67,0.03,3.34,0.01,5.02,0.01
			c5.5,0,11.01,0,16.51,0c0.36,0,0.73,0.04,1.09,0.06C150.01,124.85,150.01,130.45,150.02,136.05z"/>
	</g>
</g>
<g id="Guides">
</g>
<g id="Layer_5" class="st155">
	<rect x="59.79" y="59.6" class="st156" width="180.21" height="180.21"/>
</g>
</svg>
