<svg xmlns="http://www.w3.org/2000/svg" viewBox="0 0 300 300"><defs><style>.cls-1{fill:#2363af;}.cls-2{fill:#fff;}.cls-3{fill:#010101;opacity:0.05;isolation:isolate;}</style></defs><g id="Fondos"><rect class="cls-1" width="300" height="300"/></g><g id="Texto"><path class="cls-2" d="M204.27,210.53,150,225.14,95.73,210.53,83.21,74.86H216.79Z"/><path class="cls-2" d="M150,85.85V213.49l.12,0L194,201.7,204.18,85.85Z"/><path class="cls-2" d="M150,119.77,111.11,136l1.29,16L150,135.91l40-17.08,1.66-16.39L150,119.77Z"/><path class="cls-1" d="M111.11,136l1.29,16L150,135.91V119.77Z"/><path class="cls-1" d="M191.56,102.44,150,119.77v16.14l40-17.08Z"/><path class="cls-1" d="M111.17,136l1.29,16,57.62.19-1.29,21.35-19,5.34-18.23-4.6L130.5,161H113.56l2.21,25.59L150,196.7l34.06-9.94L188.49,136Z"/><path class="cls-1" d="M150,136H111.11l1.29,16,37.55.12V136Zm0,42.84-.18.05-18.23-4.6L130.44,161H113.5l2.21,25.59L150,196.7Z"/><path class="cls-1" d="M107.61,102.44h84l-1.66,16.39H109.64l-2-16.39Z"/><path class="cls-3" d="M150,102.44H107.61l2,16.39H150V102.44Z"/></g></svg>