<svg xmlns="http://www.w3.org/2000/svg" viewBox="0 0 300 300"><defs><style>.cls-1{fill:#fff;}</style></defs><g id="Fondos"><rect width="300" height="300"/></g><g id="Texto"><path class="cls-1" d="M201.42,92.72c0,.26-.19.38-.31.54l-6.4,8.12c-5.78,7.34-11.63,14.62-17.29,22.05s-11.21,15.15-16.77,22.75c-.49.68-.67.58-1.09,0-1.18-1.72-2.43-3.39-3.64-5.08q-6.58-9.13-13.16-18.26c-.19-.25-.29-.59-.73-.58-1.18,0-2.36,0-3.66,0,.25.37.41.62.59.86q9.28,12.89,18.59,25.75a.91.91,0,0,1,0,1.28q-10,13.68-20,27.39c-.17.23-.47.4-.42.78,1.05,0,2.08,0,3.1,0a1.34,1.34,0,0,0,1.3-.64q9-12.45,18.1-24.87c.15-.22.26-.5.57-.61l.49.65,18,24.84c.17.23.27.6.63.61,1.28,0,2.56,0,4,0-.27-.38-.42-.61-.59-.83q-9.9-13.67-19.83-27.32a.94.94,0,0,1,0-1.34q7.46-10.71,14.86-21.44,11.61-16.74,23.2-33.5c.23-.34.67-.62.51-1.15l.15.14.08-.12ZM97.29,150.27q0,13.56,0,27.12c0,.71.12.92.89.92q17.57,0,35.13,0c.66,0,1.55.22,1.93-.12s.07-1.3.16-2-.12-.92-.88-.92c-11,0-22,0-33,0-.63,0-.83-.14-.83-.81q0-11.48,0-22.95c0-.76.22-.91.93-.9q14.61,0,29.21,0c.67,0,1.52.28,1.94-.12s.06-1.27.15-1.92-.15-1-.93-1c-10.13,0-20.26,0-30.38,0-.75,0-.92-.19-.92-.92q0-10.35,0-20.7c0-.69.17-.86.87-.86q15.65,0,31.29,0c.69,0,1.58.31,2-.14s0-1.33.13-2-.21-.85-.88-.85q-18,0-36,0c-.69,0-.87.15-.87.85Q97.3,136.67,97.29,150.27Zm13.93,57a1.83,1.83,0,0,0-.47-1.16q-20.4-30.4-40.81-60.79-7.53-11.21-15-22.42a1.32,1.32,0,0,0-1.34-.7,13.92,13.92,0,0,1-2.5,0c-.83-.08-1,.21-1,1q0,26.28,0,52.57c0,.8-.28,1.87.13,2.33s1.57.08,2.38.19,1-.17,1-1q0-24.9.14-49.81c0-.25-.09-.53.12-.81l.5.71q11,15.92,21.93,31.84c4.6,6.67,9.11,13.42,13.86,20,5.25,7.24,10.74,14.31,16.12,21.46ZM208,151.75c0-8.56,0-17.13,0-25.69,0-.72.19-.85.87-.85,5.59,0,11.18,0,16.77,0,.69,0,1.58.29,2-.12s0-1.32.15-2-.21-.89-.92-.89q-19.94,0-39.88,0c-.69,0-1.62-.23-2,.12s-.07,1.36-.16,2.07.15.81.8.81c6,0,12,0,18,0,.7,0,.91.13.91.88q0,22.24,0,44.47c0,2.36,0,4.73,0,7.09,0,.5.09.69.63.65a12.14,12.14,0,0,1,2,0c.69.07.87-.16.87-.86C208,168.88,208,160.31,208,151.75Zm37.15,10.15a4.76,4.76,0,0,0-2.15.51,3.28,3.28,0,0,0-1.92,3.31,2.93,2.93,0,0,0,2.16,2.76c.55.19,1.12.32,1.67.48a8.65,8.65,0,0,1,2.44.81,1.44,1.44,0,0,1,.38,2.27c-1,1.21-4,1.16-4.75-.24-.48-.93-1.1-.77-1.81-.8-.42,0-.45.19-.38.51a3.27,3.27,0,0,0,1.58,2.26,5.93,5.93,0,0,0,6.11,0,3.23,3.23,0,0,0,1.55-3.2,2.87,2.87,0,0,0-2.05-2.67c-.64-.24-1.32-.4-2-.59a10.53,10.53,0,0,1-2.21-.7,1.41,1.41,0,0,1-.47-2.2c.92-1.2,3.73-1.11,4.38.25a1.17,1.17,0,0,0,1.33.74c.9,0,.94-.08.62-1C249,162.81,247.46,161.88,245.11,161.9Zm-6.9,5h0v-3.67c0-1.13,0-1.09-1.15-1.13-.61,0-.73.2-.72.75,0,2.48,0,5,0,7.42a4.88,4.88,0,0,1-.1,1.08,1.63,1.63,0,0,1-1.71,1.39,1.65,1.65,0,0,1-1.82-1.25c-.1-.36-.24-.44-.55-.42a5.65,5.65,0,0,1-.92,0c-.37,0-.52.1-.43.47s.09.49.16.73c.56,1.63,2.17,2.46,4.2,2.18a3.26,3.26,0,0,0,3-3.3C238.25,169.78,238.21,168.36,238.21,166.94Zm-9.59,6.18a1.19,1.19,0,0,0-1.31-1.19,1.18,1.18,0,0,0-1.14,1.26,1.23,1.23,0,0,0,1.21,1.22A1.25,1.25,0,0,0,228.62,173.12Z"/><path class="cls-1" d="M97.29,150.27q0-13.59,0-27.2c0-.7.18-.85.87-.85q18,0,36,0c.67,0,1,.12.88.85s.28,1.57-.13,2-1.31.14-2,.14q-15.65,0-31.29,0c-.7,0-.87.17-.87.86q0,10.35,0,20.7c0,.73.17.93.92.92,10.12,0,20.25,0,30.38,0,.78,0,1,.21.93,1s.28,1.52-.15,1.92-1.27.12-1.94.12q-14.59,0-29.21,0c-.71,0-.93.14-.93.9q0,11.47,0,22.95c0,.67.2.81.83.81,11,0,22,0,33,0,.76,0,1,.2.88.92s.3,1.59-.16,2-1.27.12-1.93.12q-17.56,0-35.13,0c-.77,0-.89-.21-.89-.92Q97.3,163.83,97.29,150.27Z"/><path class="cls-1" d="M201.42,92.71c.16.53-.28.81-.51,1.15q-11.59,16.76-23.2,33.5-7.43,10.72-14.86,21.44a.94.94,0,0,0,0,1.34q9.93,13.63,19.83,27.32c.17.22.32.45.59.83-1.41,0-2.69,0-4,0-.36,0-.46-.38-.63-.61l-18-24.84-.49-.65c-.31.11-.42.39-.57.61q-9.06,12.42-18.1,24.87a1.34,1.34,0,0,1-1.3.64c-1-.05-2,0-3.1,0,0-.38.25-.55.42-.78q10-13.71,20-27.39a.91.91,0,0,0,0-1.28Q148.24,136,139,123.09c-.18-.24-.34-.49-.59-.86,1.3,0,2.48,0,3.66,0,.44,0,.54.33.73.58q6.59,9.12,13.16,18.26c1.21,1.69,2.46,3.36,3.64,5.08.42.61.6.71,1.09,0,5.56-7.6,11.07-15.25,16.77-22.75s11.51-14.71,17.29-22.05l6.4-8.12c.12-.16.35-.28.31-.54Z"/><path class="cls-1" d="M111.22,207.29l-5-6.59c-5.38-7.15-10.87-14.22-16.12-21.46-4.75-6.57-9.26-13.32-13.86-20q-11-15.92-21.93-31.84l-.5-.71c-.21.28-.11.56-.12.81q-.07,24.92-.14,49.81c0,.81-.18,1.09-1,1s-1.92.34-2.38-.19-.13-1.53-.13-2.33q0-26.28,0-52.57c0-.79.16-1.08,1-1a13.92,13.92,0,0,0,2.5,0,1.32,1.32,0,0,1,1.34.7q7.5,11.22,15,22.42,20.4,30.39,40.81,60.79A1.83,1.83,0,0,1,111.22,207.29Z"/><path class="cls-1" d="M208,151.75c0,8.56,0,17.13,0,25.69,0,.7-.18.93-.87.86a12.14,12.14,0,0,0-2,0c-.54,0-.64-.15-.63-.65,0-2.36,0-4.73,0-7.09q0-22.23,0-44.47c0-.75-.21-.89-.91-.88-6,0-12,0-18,0-.65,0-.88-.16-.8-.81s-.3-1.66.16-2.07,1.32-.12,2-.12q19.94,0,39.88,0c.71,0,1,.11.92.89s.28,1.58-.15,2-1.32.12-2,.12c-5.59,0-11.18,0-16.77,0-.68,0-.87.13-.87.85C208,134.62,208,143.19,208,151.75Z"/><path class="cls-1" d="M245.11,161.9c2.35,0,3.93.91,4.49,2.49.32.89.28.94-.62,1a1.17,1.17,0,0,1-1.33-.74c-.65-1.36-3.46-1.45-4.38-.25a1.41,1.41,0,0,0,.47,2.2,10.53,10.53,0,0,0,2.21.7c.67.19,1.35.35,2,.59a2.87,2.87,0,0,1,2.05,2.67,3.23,3.23,0,0,1-1.55,3.2,5.93,5.93,0,0,1-6.11,0,3.27,3.27,0,0,1-1.58-2.26c-.07-.32,0-.53.38-.51.71,0,1.33-.13,1.81.8.72,1.4,3.71,1.45,4.75.24a1.44,1.44,0,0,0-.38-2.27,8.65,8.65,0,0,0-2.44-.81c-.55-.16-1.12-.29-1.67-.48a2.93,2.93,0,0,1-2.16-2.76,3.28,3.28,0,0,1,1.92-3.31A4.76,4.76,0,0,1,245.11,161.9Z"/><path class="cls-1" d="M238.21,166.94c0,1.42,0,2.84,0,4.25a3.26,3.26,0,0,1-3,3.3c-2,.28-3.64-.55-4.2-2.18-.07-.24-.1-.49-.16-.73s.06-.5.43-.47a5.65,5.65,0,0,0,.92,0c.31,0,.45.06.55.42a1.65,1.65,0,0,0,1.82,1.25,1.63,1.63,0,0,0,1.71-1.39,4.88,4.88,0,0,0,.1-1.08c0-2.47,0-4.94,0-7.42,0-.55.11-.77.72-.75,1.15,0,1.15,0,1.15,1.13v3.67Z"/><path class="cls-1" d="M228.62,173.12a1.25,1.25,0,0,1-1.24,1.29,1.23,1.23,0,0,1-1.21-1.22,1.18,1.18,0,0,1,1.14-1.26A1.19,1.19,0,0,1,228.62,173.12Z"/><path class="cls-1" d="M201.42,92.72h.23l-.08.12-.15-.14Z"/></g></svg>