<?xml version="1.0" encoding="UTF-8"?><svg xmlns="http://www.w3.org/2000/svg" viewBox="0 0 300 300"><defs><style>.cls-1{fill:#fff;}.cls-2{fill:#010101;}</style></defs><g id="Fondos-Blancos"><rect class="cls-1" width="300" height="300"/></g><g id="Texto"><path class="cls-2" d="m149.75,139.27c-9.36,0-16.12,6.12-16.12,15.28s7.6,15.28,16.96,15.28c5.68,0,10.64-2.24,13.76-6l-6.48-3.76c-1.72,1.88-4.32,2.96-7.24,2.96-4.08,0-7.52-2.12-8.8-5.52h23.81c.2-.96.28-1.92.28-2.96-.04-9.2-6.76-15.28-16.16-15.28h0Zm-8.04,12.28c1.08-3.4,3.96-5.52,8.04-5.52s6.96,2.12,8.04,5.52h-16.08Zm99.46-12.28c-9.36,0-16.12,6.12-16.12,15.28s7.6,15.28,16.96,15.28c5.68,0,10.64-2.24,13.76-6l-6.48-3.76c-1.72,1.88-4.32,2.96-7.24,2.96-4.08,0-7.52-2.12-8.8-5.52h23.81c.2-.96.28-1.92.28-2.96,0-9.2-6.76-15.28-16.16-15.28h0Zm-8,12.28c1.08-3.4,3.96-5.52,8.04-5.52s6.96,2.12,8.04,5.52h-16.08Zm-33.13,3c0,5.08,3.32,8.48,8.48,8.48,3.48,0,6.12-1.6,7.48-4.16l6.52,3.76c-2.68,4.48-7.76,7.2-14,7.2-9.4,0-16.12-6.12-16.12-15.28s6.76-15.28,16.12-15.28c6.24,0,11.28,2.72,14,7.2l-6.52,3.76c-1.36-2.6-3.96-4.16-7.48-4.16-5.16-.04-8.48,3.36-8.48,8.48Zm70.02-24.65v39.05h-7.64v-39.05h7.64Zm-208.69-4.24l31.37,54.33H30l31.37-54.33Zm78.46,4.24l-23.53,40.77-23.53-40.77h8.84l14.72,25.49,14.72-25.49h8.76Zm50.01,10.2v8.24c-.84-.24-1.76-.4-2.72-.4-4.92,0-8.48,3.4-8.48,8.48v12.56h-7.64v-28.89h7.64v7.8c0-4.32,5-7.8,11.2-7.8Z"/></g></svg>