<svg xmlns="http://www.w3.org/2000/svg" viewBox="0 0 300 300"><defs><style>.cls-1{fill:#010101;}</style></defs><g id="Texto"><path class="cls-1" d="M149.75,139.27c-9.36,0-16.12,6.12-16.12,15.28s7.6,15.29,17,15.29a17.62,17.62,0,0,0,13.76-6l-6.48-3.76a9.69,9.69,0,0,1-7.24,3c-4.08,0-7.52-2.12-8.8-5.53h23.8a14.29,14.29,0,0,0,.28-3c0-9.2-6.76-15.28-16.16-15.28Zm-8,12.28c1.08-3.4,4-5.52,8-5.52s7,2.12,8,5.52Zm99.46-12.28c-9.36,0-16.12,6.12-16.12,15.28s7.6,15.29,17,15.29a17.65,17.65,0,0,0,13.77-6l-6.49-3.76a9.69,9.69,0,0,1-7.24,3c-4.08,0-7.52-2.12-8.8-5.53h23.81a14.29,14.29,0,0,0,.28-3c0-9.2-6.77-15.28-16.17-15.28Zm-8,12.28c1.08-3.4,4-5.52,8-5.52s7,2.12,8,5.52Zm-33.13,3c0,5.09,3.32,8.49,8.48,8.49a8.07,8.07,0,0,0,7.49-4.17l6.52,3.77c-2.68,4.48-7.76,7.2-14,7.2-9.4,0-16.12-6.12-16.12-15.29s6.76-15.28,16.12-15.28c6.25,0,11.29,2.72,14,7.2L216,150.23c-1.36-2.6-4-4.16-7.49-4.16C203.36,146,200,149.43,200,154.55Zm70-24.64V169h-7.64V129.91ZM61.37,125.67,92.74,180H30Zm78.46,4.24L116.3,170.68,92.78,129.91h8.84l14.72,25.48,14.72-25.48Zm50,10.2v8.24a9.93,9.93,0,0,0-2.72-.4,8.11,8.11,0,0,0-8.48,8.48V169H171V140.11h7.65v7.8C178.64,143.59,183.64,140.11,189.84,140.11Z"/></g></svg>