<svg xmlns="http://www.w3.org/2000/svg" viewBox="0 0 300 300"><defs><style>.cls-1{fill:#7253a2;}</style></defs><g id="Texto"><path class="cls-1" d="M179,178.29a10.74,10.74,0,0,0-1.15-21.41h-.38A10.7,10.7,0,0,0,167.12,168a11,11,0,0,0,3.06,7.07c-6.5,12.81-16.44,22.18-31.35,30A51.69,51.69,0,0,1,107.67,211c-8.6-1.15-15.29-5-19.5-11.28-6.11-9.36-6.69-19.5-1.53-29.63a45.17,45.17,0,0,1,13-15.29c-.76-2.49-1.91-6.69-2.48-9.75-27.72,20.07-24.85,47.22-16.44,60C87,214.61,99.84,220.54,114,220.54a46.8,46.8,0,0,0,11.47-1.34C149.92,214.42,168.46,199.89,179,178.29Z"/><path class="cls-1" d="M212.62,154.59c-14.53-17-35.94-26.38-60.41-26.38h-3.05a10.53,10.53,0,0,0-9.37-5.74h-.38a10.71,10.71,0,0,0,.38,21.41h.38a10.75,10.75,0,0,0,9.37-6.5H153a72.88,72.88,0,0,1,40.72,12.43c9.55,6.31,16.44,14.53,20.26,24.47,3.25,8,3.06,15.86-.38,22.56-5.35,10.13-14.34,15.67-26.19,15.67a49,49,0,0,1-18.74-4c-2.1,1.91-5.92,5-8.6,6.88a59,59,0,0,0,24.66,5.92c18.35,0,31.93-10.13,37.09-20.26C227.34,190,227,170.84,212.62,154.59Z"/><path class="cls-1" d="M115.51,181.54a10.73,10.73,0,0,0,10.71,10.32h.38a10.71,10.71,0,0,0-.38-21.41h-.39a3.08,3.08,0,0,0-1.33.2,70.1,70.1,0,0,1-10-42.44,51.32,51.32,0,0,1,11.28-29.63c5.55-7.08,16.25-10.52,23.52-10.71,20.26-.38,28.86,24.85,29.44,35,2.48.58,6.69,1.92,9.55,2.87-2.29-31-21.41-47-39.76-47-17.2,0-33.07,12.42-39.38,30.77-8.79,24.47-3.06,48,7.65,66.53A8.57,8.57,0,0,0,115.51,181.54Z"/></g></svg>