<svg xmlns="http://www.w3.org/2000/svg" viewBox="0 0 300 300"><defs><style>.cls-1{fill:#dd1e34;}.cls-2{fill:#c32033;}.cls-3{fill:#fff;}</style></defs><g id="Texto"><polygon class="cls-1" points="150 59.59 150 59.59 150 59.59 65.83 89.61 78.67 200.9 150 240.41 150 240.41 150 240.41 221.33 200.9 234.17 89.61 150 59.59"/><polygon class="cls-2" points="150 59.59 150 79.67 150 79.58 150 171.16 150 171.16 150 240.41 150 240.41 221.33 200.9 234.17 89.61 150 59.59"/><path class="cls-3" d="M150,79.57l-52.62,118H117l10.58-26.4h44.66l10.58,26.4h19.61L150,79.57Zm15.37,75.31H134.63l15.37-37Z"/></g></svg>