<?xml version="1.0" encoding="UTF-8"?><svg xmlns="http://www.w3.org/2000/svg" viewBox="0 0 300 300"><defs><style>.cls-1{fill:#fff;}.cls-2{fill:#f05233;}.cls-3{fill:#3b2f14;}.cls-4{fill:#f58772;}</style></defs><g id="Fondos-Blancos"><rect class="cls-1" width="300" height="300"/></g><g id="Texto"><g><path class="cls-3" d="m212.24,100c.09.06.17.17.27.19,3.35.72,5.07,2.46,5.62,5.8.25,1.51.18,3.02-.24,4.5-.96,3.36-4.1,5.33-8.01,5.04-6.25-.45-9.53-6.56-6.5-12.11.96-1.76,2.49-2.74,4.4-3.19.22-.05.49.05.62-.23,1.28,0,2.56,0,3.84,0Z"/><path class="cls-4" d="m84.33,100.2c.02-.07.03-.13.05-.2h2.16c.02.07.04.13.05.2-.76,0-1.51,0-2.27,0Z"/><g><path class="cls-2" d="m86.59,100.2c1.25.14,2.25.77,3.12,1.63,13.22,13.21,26.45,26.42,39.65,39.65,2.44,2.45,2.39,6.03-.04,8.46-13.13,13.14-26.27,26.26-39.39,39.4-.84.85-1.89,1.28-2.91,1.79h-2.88c-1.4-.22-2.48-.98-3.45-1.96-12.9-12.91-25.81-25.81-38.72-38.71-.98-.98-1.74-2.06-1.96-3.45v-2.88c.22-1.44.99-2.54,2.01-3.55,8.44-8.4,16.86-16.83,25.28-25.25.23-.23.45-.46.68-.67.91-.83,1.23-.85,2.12.02,1.66,1.62,3.29,3.27,4.93,4.91,1.27,1.27,2.54,2.55,3.82,3.81.57.56.73,1.15.57,1.95-.68,3.34.29,5.69,3.07,7.51.67.44,1.02.96,1.02,1.76,0,7.63,0,15.27,0,22.9,0,.97-.53,1.49-1.28,2-3.12,2.13-3.98,5.8-2.08,8.94,1.48,2.45,3.76,3.48,6.52,3.11,2.73-.36,4.58-2.01,5.4-4.66.85-2.75-.09-5.55-2.44-7.2-.88-.62-1.25-1.31-1.25-2.39.03-7.23.01-14.47.03-21.7,0-.57-.22-1.34.46-1.6.6-.23.99.4,1.37.78,2.47,2.45,4.91,4.93,7.39,7.36.73.72.93,1.42.69,2.46-.6,2.59.15,4.88,2.21,6.56,2.13,1.74,4.59,2.08,7.08.84,2.41-1.21,3.71-3.28,3.75-5.98.05-3.96-3.6-7.04-7.57-6.43-1.05.16-1.82-.08-2.57-.84-2.68-2.74-5.4-5.46-8.14-8.14-.76-.75-.99-1.51-.84-2.57.66-4.51-3.09-8.13-7.63-7.4-.87.14-1.54-.04-2.16-.67-2.9-2.92-5.83-5.82-8.72-8.74-1.01-1.02-1-1.33.04-2.37,2.45-2.47,4.92-4.92,7.37-7.38.96-.96,2.07-1.47,3.45-1.36.67.04,1.35-.09,2.01.07Z"/><path class="cls-3" d="m258.3,164.51c-3.18,1.27-6.39,2.47-9.8,3-3.35.52-6.69.56-10.01-.16-5.1-1.12-7.96-4.51-8.51-9.93-.36-3.59-.16-7.19-.19-10.78-.04-4.96,0-9.91,0-14.87q0-1.55-1.6-1.55c-1.48,0-2.96-.03-4.44.01-.58.02-.74-.17-.73-.74.03-2.12.02-4.24,0-6.35,0-.44.05-.7.6-.82,7.04-1.53,9.62-4.27,10.67-11.28q.41-2.76,3.24-2.76c1.4,0,2.81.09,4.2-.03,1.12-.09,1.3.34,1.28,1.34-.06,3.56,0,7.11-.04,10.67-.01.97.32,1.23,1.24,1.22,3.56-.04,7.12,0,10.67-.03.81,0,1.1.18,1.08,1.05-.06,2.28-.06,4.56,0,6.83.02.76-.22.92-.94.91-3.68-.04-7.36,0-11.03-.03-.75,0-1.03.14-1.02.97.04,6.87.01,13.75.03,20.62,0,.79.1,1.6.24,2.38.47,2.46,1.91,3.68,4.47,3.87,2.55.18,5.01-.26,7.41-1.08.64-.22.88-.15,1.09.54.65,2.19,1.39,4.36,2.09,6.54v.48Z"/><path class="cls-3" d="m218.04,141.01c0,5.71,0,11.42,0,17.13,0,1.83,0,1.85,1.79,2.13,1.06.17,2.13.32,3.2.43.63.06.89.3.87.98-.05,1.76-.04,3.51,0,5.27.01.63-.2.82-.83.82-7.75-.02-15.5-.02-23.25,0-.67,0-.79-.25-.78-.84.03-1.76.05-3.52,0-5.27-.02-.7.27-.89.88-.95,1.23-.13,2.45-.34,3.68-.48.86-.1,1.26-.5,1.26-1.4-.01-8.67-.01-17.33,0-26,0-.87-.36-1.41-1.21-1.69-1.32-.43-2.63-.93-3.94-1.38-.42-.14-.69-.3-.61-.83.29-1.89.57-3.79.8-5.68.08-.65.33-.83.98-.83,5.39.03,10.79.04,16.18,0,.92,0,1.01.35,1.01,1.12-.03,5.83-.01,11.66-.01,17.49Z"/><path class="cls-3" d="m188,131.21c1.99-.13,3.98-.33,5.97-.42.79-.04,1.09-.24,1.06-1.09-.08-1.79-.07-3.6,0-5.39.03-.83-.19-1.07-1.04-1.06-5,.04-9.99.02-14.99.02-.44,0-.88,0-1.31-.1-4.75-1.04-9.51-1.12-14.25-.11-5.96,1.27-10.48,4.38-12.51,10.41-.79,2.34-1,4.78-.8,7.21.41,4.9,2.47,8.86,6.87,11.39.16.09.36.15.37.43-.07.06-.17.13-.25.21-2.12,2-4.35,3.89-6.12,6.23-2.44,3.24-1.55,7.81,1.91,9.42.13.06.24.18.37.28-.87.95-1.76,1.81-2.52,2.78-3.85,4.86-2.42,11.36,3.09,14.18,1,.51,2.04.9,3.11,1.22,3.9,1.17,7.92,1.43,11.96,1.52,5.13.11,10.23-.23,15.09-2.04,6.01-2.24,10.1-6.16,10.38-12.93.26-6.23-1.86-9.99-8.02-11.77-2.85-.83-5.79-1.18-8.73-1.4-5.13-.38-10.27-.7-15.61-1.06.84-1.34,1.63-2.54,2.33-3.78.34-.6.67-.67,1.33-.54,4.16.82,8.33.82,12.48-.16,10.9-2.57,15.32-13.19,9.41-22.62-.41-.65-.26-.79.42-.83Zm-24.54,39.9c.72.19,1.51.12,2.26.17,0,0,0-.02,0-.03,3.94.3,7.88.6,11.82.92.39.03.79.13,1.17.22,1.17.27,2.28.68,2.57,2.01.32,1.45-.18,2.68-1.34,3.61-1.39,1.12-3.07,1.51-4.78,1.71-4.06.49-8.12.6-12.14-.32-.62-.14-1.23-.36-1.79-.64-2.07-1.01-2.72-2.76-1.87-4.88.12-.29.29-.57.42-.86.72-1.6,1.82-2.39,3.67-1.91Zm14.7-29.37c-1.16,2.93-4.46,4.76-8.12,4.49-.71-.05-1.43-.12-2.13-.27-3.59-.76-5.47-3.24-5.4-7.08.1-5.32,3.62-8.31,9.19-7.79,5.54.51,8.54,5.44,6.47,10.64Z"/></g></g></g></svg>