<svg xmlns="http://www.w3.org/2000/svg" viewBox="0 0 300 300"><defs><style>.cls-1{fill:#3b2f14;}.cls-2{fill:#f58772;}.cls-3{fill:#f05233;}</style></defs><g id="Texto"><path class="cls-1" d="M212.24,100c.09.06.17.17.27.19,3.35.72,5.07,2.46,5.62,5.8a10.21,10.21,0,0,1-.24,4.5c-1,3.36-4.11,5.33-8,5-6.25-.45-9.53-6.55-6.5-12.1a6.43,6.43,0,0,1,4.4-3.2c.21,0,.49,0,.62-.23Z"/><path class="cls-2" d="M84.33,100.2a1.17,1.17,0,0,1,0-.2h2.16a1.46,1.46,0,0,1,0,.2Z"/><path class="cls-3" d="M86.59,100.2a5.17,5.17,0,0,1,3.12,1.63q19.83,19.82,39.65,39.65a5.81,5.81,0,0,1,0,8.46q-19.69,19.71-39.39,39.4A10,10,0,0,1,87,191.13H84.14a6.23,6.23,0,0,1-3.46-2Q61.33,169.81,42,150.46A6.23,6.23,0,0,1,40,147v-2.87a6.31,6.31,0,0,1,2-3.56Q54.67,128,67.29,115.32c.23-.23.45-.46.68-.67.91-.83,1.23-.85,2.12,0,1.66,1.61,3.29,3.27,4.93,4.91l3.82,3.81a2,2,0,0,1,.56,2c-.68,3.34.29,5.69,3.07,7.51a2,2,0,0,1,1,1.76v22.9a2.31,2.31,0,0,1-1.27,2,6.44,6.44,0,0,0-2.08,8.94,6.56,6.56,0,0,0,11.92-1.55,6.33,6.33,0,0,0-2.44-7.2,2.59,2.59,0,0,1-1.25-2.39c0-7.23,0-14.46,0-21.7,0-.57-.22-1.33.46-1.6s1,.4,1.38.78c2.47,2.45,4.91,4.93,7.39,7.36a2.33,2.33,0,0,1,.69,2.46,6.57,6.57,0,0,0,9.29,7.4,6.46,6.46,0,0,0,3.75-6,6.54,6.54,0,0,0-7.57-6.43,2.7,2.7,0,0,1-2.58-.85q-4-4.11-8.14-8.14a2.67,2.67,0,0,1-.83-2.56,6.48,6.48,0,0,0-7.63-7.4,2.26,2.26,0,0,1-2.16-.67c-2.9-2.92-5.82-5.82-8.72-8.74-1-1-1-1.33,0-2.38,2.45-2.47,4.91-4.91,7.37-7.38a4.23,4.23,0,0,1,3.45-1.36A11.23,11.23,0,0,1,86.59,100.2Z"/><path class="cls-1" d="M258.3,164.51a45.5,45.5,0,0,1-9.8,3,27,27,0,0,1-10-.17c-5.1-1.11-8-4.51-8.5-9.93-.37-3.59-.16-7.18-.19-10.78,0-4.95,0-9.91,0-14.86,0-1.55,0-1.55-1.6-1.55s-3,0-4.44,0c-.58,0-.74-.17-.73-.74,0-2.12,0-4.24,0-6.36,0-.44.05-.7.6-.82,7-1.53,9.62-4.27,10.67-11.28.41-2.76.41-2.76,3.23-2.76,1.4,0,2.81.09,4.2,0,1.12-.09,1.3.34,1.28,1.34-.06,3.56,0,7.12,0,10.67,0,1,.33,1.24,1.25,1.23,3.55,0,7.11,0,10.67,0,.81,0,1.1.18,1.08,1q-.09,3.41,0,6.83c0,.77-.22.92-.94.91-3.68,0-7.36,0-11,0-.75,0-1,.14-1,1,0,6.87,0,13.74,0,20.62a12.72,12.72,0,0,0,.24,2.38c.47,2.46,1.91,3.68,4.47,3.86a18.5,18.5,0,0,0,7.41-1.08c.64-.22.88-.15,1.09.54.64,2.2,1.38,4.36,2.09,6.54Z"/><path class="cls-1" d="M218,141v17.13c0,1.83,0,1.85,1.78,2.13,1.07.16,2.13.32,3.2.43.64.06.89.3.87,1,0,1.76,0,3.52,0,5.27,0,.64-.21.82-.83.82q-11.62,0-23.25,0c-.67,0-.79-.25-.78-.84,0-1.75.05-3.51,0-5.27,0-.7.27-.88.88-1,1.23-.13,2.45-.34,3.68-.48a1.23,1.23,0,0,0,1.26-1.4q0-13,0-26a1.59,1.59,0,0,0-1.21-1.69c-1.33-.43-2.63-.93-3.95-1.38-.42-.14-.69-.3-.61-.83.29-1.89.58-3.79.81-5.69.08-.65.33-.83,1-.82,5.39,0,10.78,0,16.18,0,.91,0,1,.35,1,1.11C218,129.35,218,135.18,218,141Z"/><path class="cls-1" d="M188,131.21c2-.13,4-.33,6-.42.79,0,1.1-.24,1.06-1.1-.08-1.79-.07-3.6,0-5.39,0-.83-.19-1.07-1-1.06-5,0-10,0-15,0a6.43,6.43,0,0,1-1.31-.1,33.25,33.25,0,0,0-14.25-.11c-6,1.27-10.48,4.38-12.51,10.41a18,18,0,0,0-.8,7.22c.41,4.9,2.47,8.86,6.87,11.38.16.09.36.15.37.44l-.25.21a52.18,52.18,0,0,0-6.12,6.23c-2.44,3.25-1.55,7.81,1.92,9.43a2.25,2.25,0,0,1,.37.28c-.87.94-1.76,1.81-2.52,2.77a9.12,9.12,0,0,0,3.09,14.18,17.81,17.81,0,0,0,3.11,1.23,44.67,44.67,0,0,0,11.95,1.52c5.14.1,10.23-.23,15.1-2,6-2.24,10.09-6.16,10.37-12.94.26-6.22-1.86-10-8-11.77a42.47,42.47,0,0,0-8.74-1.4c-5.13-.38-10.26-.7-15.61-1.06.84-1.35,1.63-2.54,2.33-3.78.34-.59.67-.66,1.34-.53a29.3,29.3,0,0,0,12.47-.16c10.9-2.58,15.32-13.2,9.41-22.63C187.17,131.39,187.32,131.26,188,131.21Zm-24.54,39.9a11.35,11.35,0,0,0,2.27.16v0l11.82.92a8,8,0,0,1,1.17.22c1.17.27,2.28.68,2.57,2A3.46,3.46,0,0,1,180,178a9.09,9.09,0,0,1-4.78,1.71,35.18,35.18,0,0,1-12.15-.32,8.89,8.89,0,0,1-1.79-.64,3.5,3.5,0,0,1-1.87-4.88c.12-.3.29-.57.42-.86C160.52,171.41,161.62,170.62,163.46,171.11Zm14.7-29.37c-1.16,2.92-4.46,4.76-8.12,4.49a14.94,14.94,0,0,1-2.13-.27c-3.59-.76-5.48-3.24-5.41-7.08.1-5.32,3.62-8.3,9.19-7.79S180.23,136.53,178.16,141.74Z"/></g></svg>