<?xml version="1.0" encoding="utf-8"?>
<!-- Generator: Adobe Illustrator 25.4.1, SVG Export Plug-In . SVG Version: 6.00 Build 0)  -->
<svg version="1.1" xmlns="http://www.w3.org/2000/svg" xmlns:xlink="http://www.w3.org/1999/xlink" x="0px" y="0px"
	 viewBox="0 0 300 300" style="enable-background:new 0 0 300 300;" xml:space="preserve">
<style type="text/css">
	.st0{fill:#4674B9;}
	.st1{fill:#2C2C32;}
	.st2{fill:#010101;}
	.st3{fill:#F6DF19;}
	.st4{fill:#2363AF;}
	.st5{fill:#F0672B;}
	.st6{fill:#101215;}
	.st7{fill:#492D8C;}
	.st8{fill:#F36C3D;}
	.st9{fill:#7756A3;}
	.st10{fill:#679E63;}
	.st11{fill:#484848;}
	.st12{fill:#1B1F23;}
	.st13{fill:#EF7729;}
	.st14{fill:#4791CE;}
	.st15{fill:#F6F6F6;}
	.st16{fill:#4A4A4D;}
	.st17{fill:#C54027;}
	.st18{fill:#3978BD;}
	.st19{fill:#CC6899;}
	.st20{fill:#12364F;}
	.st21{fill:#316A9A;}
	.st22{fill:#FFD53E;}
	.st23{fill:#693994;}
	.st24{fill:#FFFFFF;}
	.st25{fill-rule:evenodd;clip-rule:evenodd;fill:#FFFFFF;}
	.st26{fill-rule:evenodd;clip-rule:evenodd;fill:url(#XMLID_00000098191436255114800020000006350610695153255845_);}
	.st27{clip-path:url(#XMLID_00000119099131319199155030000002227612549336848798_);}
	.st28{fill:none;}
	.st29{opacity:0.66;fill:#4B4B4B;}
	.st30{fill:url(#SVGID_1_);}
	.st31{opacity:0.05;fill:#010101;enable-background:new    ;}
	.st32{fill:#17AA4F;}
	.st33{fill:#B8C4C2;}
	.st34{fill:#14924F;}
	.st35{fill:#22323D;}
	.st36{fill:#F26424;}
	.st37{fill:#4E4E4E;}
	.st38{fill:#3B2F14;}
	.st39{fill:#F58772;}
	.st40{fill:#F05233;}
	.st41{fill:#433527;}
	.st42{fill:#DD1E34;}
	.st43{fill:#C32033;}
	.st44{fill:#F9F9FA;}
	.st45{fill:#7253A2;}
	.st46{fill:#4674B9;stroke:#FFFFFF;stroke-width:8;stroke-miterlimit:10;}
	.st47{fill:#EF4623;}
	.st48{fill:#4EB987;}
	.st49{fill:#455567;}
	.st50{fill:#F1F2F2;}
	.st51{fill:#70CEEF;}
	.st52{fill:#70CFF0;}
	.st53{opacity:0.7;fill:#2C384A;enable-background:new    ;}
	.st54{fill:url(#path-2_00000032642403337635780350000017638412729819868298_);}
	.st55{filter:url(#Adobe_OpacityMaskFilter);}
	.st56{mask:url(#mask-3_3_);}
	.st57{fill:#F9A01B;}
	.st58{fill:#F47D20;}
	.st59{fill:#FFCB2A;}
	.st60{fill:#FFFFFF;fill-opacity:0.2;}
	.st61{opacity:0.2;fill:#A52A22;enable-background:new    ;}
	.st62{filter:url(#Adobe_OpacityMaskFilter_00000067203184258668091910000008881084062339035051_);}
	.st63{mask:url(#mask-3_2_);fill:none;}
	.st64{filter:url(#Adobe_OpacityMaskFilter_00000088815964615046570090000001561436024216846216_);}
	.st65{mask:url(#mask-3_1_);fill:url(#_Path_5_00000023278563015191079160000001167402437106930587_);}
	.st66{fill:#5BADE0;}
	.st67{fill:#4699D4;}
	.st68{fill:#318ECD;}
	.st69{fill:#3390CE;}
	.st70{fill:#1773B0;}
	.st71{fill:#489BD5;}
	.st72{fill:#2884C6;}
	.st73{fill:#2682C5;}
	.st74{fill:#2480C4;}
	.st75{fill:#237EC2;}
	.st76{fill:#4497D2;}
	.st77{fill:#1571AF;}
	.st78{fill:#237DC1;}
	.st79{fill:#1B72AD;}
	.st80{fill:#1B6CA3;}
	.st81{fill:#196FA9;}
	.st82{fill:#1D77BD;}
	.st83{fill:#207ABF;}
	.st84{fill:#2D7FB8;}
	.st85{fill:#3383BA;}
	.st86{fill:#287EB6;}
	.st87{fill:#63B0E1;}
	.st88{fill:#3887BC;}
	.st89{fill:#3B89BD;}
	.st90{fill:#3792D0;}
	.st91{fill:#2A78AC;}
	.st92{fill:#2973A8;}
	.st93{fill:#2A7CB3;}
	.st94{fill:#3F88BA;}
	.st95{fill:#59ABDF;}
	.st96{fill:#3A7FAF;}
	.st97{fill:#317BAC;}
	.st98{fill:#367DAE;}
	.st99{fill:#2C8BCB;}
	.st100{fill:#2E8DCC;}
	.st101{fill:#1A75B1;}
	.st102{fill:#1F77B2;}
	.st103{fill:#1D74AF;}
	.st104{fill:#1D72AA;}
	.st105{fill:#206FA5;}
	.st106{fill:#499FD8;}
	.st107{fill:#489CD6;}
	.st108{fill:#4DA1D9;}
	.st109{fill:#51A6DC;}
	.st110{fill:#4FA4DB;}
	.st111{fill:#0F72B7;}
	.st112{fill:#0770B7;}
	.st113{fill:#56A8DD;}
	.st114{fill:#2A88C9;}
	.st115{fill:#227FC3;}
	.st116{fill:#1F7DC1;}
	.st117{fill:#1D7BC0;}
	.st118{fill:#1474BB;}
	.st119{fill:#1071B9;}
	.st120{fill:#1E79BF;}
	.st121{fill:#1875BC;}
	.st122{fill:#3381B5;}
	.st123{fill:#2F7FB4;}
	.st124{fill:#3883B6;}
	.st125{fill:#267BB5;}
	.st126{fill:#297AB2;}
	.st127{fill:#3E86B6;}
	.st128{fill:#3C81B1;}
	.st129{fill:#3B87B9;}
	.st130{fill:#3A85B8;}
	.st131{fill:#2378B1;}
	.st132{fill:#2675AC;}
	.st133{fill:#2572A6;}
	.st134{fill:#0D74B8;}
	.st135{fill:#3882B4;}
	.st136{fill:#367FB2;}
	.st137{fill:#307CAF;}
	.st138{fill:#337EB0;}
	.st139{fill:#2271A5;}
	.st140{fill:#0E75BB;}
	.st141{fill:#0D73BB;}
	.st142{fill:#0B74BC;}
	.st143{fill:#1578BC;}
	.st144{fill:#1C7CC1;}
	.st145{fill:#2575AB;}
	.st146{fill:#1B7BC0;}
	.st147{fill:#1876BD;}
	.st148{fill:#1978BE;}
	.st149{fill:#3C84B4;}
	.st150{fill-rule:evenodd;clip-rule:evenodd;fill:#687E91;}
	.st151{fill:#037690;}
	.st152{fill:#F29220;}
	.st153{fill-rule:evenodd;clip-rule:evenodd;fill:#F29220;}
	.st154{fill-rule:evenodd;clip-rule:evenodd;fill:#037690;}
	.st155{display:none;}
	.st156{display:inline;fill-rule:evenodd;clip-rule:evenodd;fill:#2BB673;}
	.st157{display:inline;opacity:0.15;fill-rule:evenodd;clip-rule:evenodd;fill:#2BB673;}
</style>
<g id="Fondos_1_">
	<rect class="st12" width="300" height="300"/>
</g>
<g id="Texto">
	<g>
		<path class="st24" d="M195.05,101.49c-1.29-0.05-2.54,0.22-3.79,0.48c-2.1,0.43-4.12,1.15-6.1,1.97c-2.41,1-4.72,2.2-6.98,3.51
			c-1.79,1.04-3.54,2.14-5.24,3.3c-0.33,0.23-0.65,0.07-0.89-0.01c-1.97-0.63-4.01-0.99-6.03-1.4c-1.17-0.24-2.36-0.41-3.55-0.58
			c-1.06-0.15-2.13-0.3-3.2-0.41c-0.78-0.09-1.57-0.24-2.37-0.2c-0.16-0.07-0.34,0-0.5-0.07c-0.26-0.01-0.51-0.02-0.77-0.02
			c-0.19-0.08-0.39,0-0.58-0.06c-0.38-0.01-0.75-0.02-1.13-0.03c-0.28-0.09-0.57,0.01-0.85-0.07c-1.89-0.05-3.78-0.05-5.67,0
			c-0.28,0.08-0.57-0.03-0.85,0.07c-0.38,0.01-0.75,0.02-1.13,0.03c-0.19,0.07-0.39-0.02-0.58,0.06c-0.26,0.01-0.51,0.02-0.77,0.02
			c-0.18,0.07-0.38-0.02-0.56,0.07c-1.18,0.04-2.35,0.19-3.52,0.33c-1.09,0.13-2.18,0.28-3.26,0.46c-1.1,0.18-2.2,0.35-3.29,0.58
			c-1.42,0.3-2.83,0.65-4.25,0.98c-0.36,0.08-0.72,0.15-1.06,0.28c-0.33,0.13-0.59,0.05-0.86-0.13c-2.39-1.64-4.88-3.1-7.44-4.46
			c-1.8-0.95-3.64-1.81-5.53-2.56c-1.75-0.69-3.54-1.3-5.39-1.67c-0.8-0.16-1.61-0.34-2.44-0.38c-0.15-0.09-0.32,0-0.47-0.07
			c-0.88-0.06-1.75-0.07-2.62,0.07c-0.25,0.04-0.43,0.13-0.53,0.4c-0.92,2.44-1.67,4.93-2.08,7.52c-0.16,1.04-0.37,2.07-0.35,3.13
			c-0.09,0.18,0.01,0.38-0.07,0.56c-0.02,0.47-0.07,0.93-0.02,1.4c-0.06,0.42-0.06,0.84,0,1.26c0.01,0.43,0.01,0.87,0.02,1.3
			c0.07,0.18-0.02,0.38,0.07,0.56c0.04,1.8,0.41,3.56,0.86,5.29c0.2,0.76,0.46,1.5,0.72,2.23c0.07,0.2,0.04,0.32-0.09,0.47
			c-1.51,1.67-2.83,3.47-4,5.39c-1.68,2.75-2.91,5.68-3.76,8.78c-0.48,1.77-0.83,3.57-1.01,5.4c-0.04,0.42-0.1,0.83-0.08,1.25
			c-0.07,0.16,0,0.34-0.07,0.49c-0.01,0.32-0.02,0.63-0.02,0.95c-0.06,1.32-0.06,2.64,0,3.96c0.01,0.49,0.01,0.99,0.02,1.48
			c0.08,0.25-0.03,0.51,0.07,0.76c0.01,0.26,0.02,0.52,0.02,0.77c0.07,0.18-0.02,0.39,0.07,0.57c0.01,0.2,0.02,0.4,0.02,0.6
			c0.07,0.15-0.02,0.32,0.07,0.47c0.02,1.4,0.26,2.78,0.48,4.16c0.3,1.9,0.71,3.77,1.23,5.62c0.97,3.43,2.32,6.69,4.17,9.74
			c1.33,2.19,2.89,4.19,4.69,5.99c2.15,2.14,4.56,3.95,7.2,5.45c3.52,2.01,7.28,3.43,11.18,4.47c2.14,0.57,4.31,1.02,6.5,1.38
			c1.68,0.28,3.37,0.5,5.13,0.72c-0.33,0.39-0.71,0.67-1.03,1.01c-1.91,2.1-3.11,4.57-3.91,7.26c-0.33,1.12-0.61,2.26-0.71,3.42
			c-0.05,0.54-0.5,0.55-0.79,0.68c-1.53,0.64-3.1,1.17-4.73,1.52c-1.36,0.29-2.73,0.47-4.12,0.51c-0.45,0.04-0.9,0.04-1.35,0
			c-1.41,0-2.79-0.21-4.14-0.58c-1.9-0.51-3.66-1.36-5.27-2.51c-1.12-0.8-2.14-1.71-3.06-2.72c-1.26-1.39-2.25-2.97-3.26-4.54
			c-0.64-0.99-1.39-1.9-2.17-2.79c-0.49-0.56-0.99-1.12-1.54-1.61c-1.2-1.05-2.44-2.04-3.89-2.76c-1.05-0.52-2.13-0.95-3.26-1.21
			c-0.48-0.11-0.96-0.22-1.46-0.21c-0.3-0.1-0.62,0.02-0.92-0.07c-0.06,0-0.12,0-0.18,0c-0.28,0.08-0.57-0.03-0.85,0.07
			c-0.85-0.02-1.67,0.13-2.43,0.49c-0.85,0.39-1.07,1.07-0.54,2.05c0.41,0.74,1.06,1.28,1.69,1.83c0.96,0.84,2.12,1.35,3.13,2.1
			c1.23,0.92,2.2,2.09,3.14,3.29c1.94,2.5,3.53,5.21,4.88,8.07c0.38,0.81,0.69,1.66,1.06,2.48c0.78,1.7,1.87,3.2,3.21,4.51
			c2.43,2.36,5.37,3.74,8.61,4.53c1.37,0.33,2.75,0.61,4.17,0.64c0.15,0.08,0.32,0,0.47,0.07c0.26,0.01,0.52,0.02,0.78,0.02
			c0.24,0.09,0.51-0.01,0.75,0.06c0.96,0.04,1.92,0.04,2.88,0c0.25-0.07,0.52,0.02,0.77-0.07c0.31-0.01,0.63-0.02,0.94-0.02
			c0.16-0.06,0.33,0.01,0.48-0.06c1.31-0.02,2.6-0.23,3.89-0.41c0.85-0.12,1.7-0.27,2.55-0.4c0.11,0.48,0.03,0.98,0.05,1.46
			c0.03,0.76-0.05,1.52,0.04,2.27c-0.07,0.32-0.03,0.65-0.03,0.98c0.01,2.3,0.03,4.6,0.05,6.89c0.07,1.04,0.01,2.08,0.03,3.12
			c0,0.18-0.03,0.36,0.04,0.53c-0.09,0.68,0,1.36-0.07,2.05c-0.21,1.91-1.45,3.33-3.32,3.74c-0.24,0.05-0.49,0.08-0.74,0.12
			c-0.39,0.04-0.78,0.04-1.17,0c-1.13,0.04-2.12-0.5-3.14-0.85c-1.54-0.53-3.05-1.17-4.56-1.8c-2.26-0.93-4.46-2.01-6.63-3.15
			c-2.61-1.37-5.14-2.88-7.6-4.5c-1.85-1.22-3.66-2.5-5.43-3.84c-1.04-0.79-2.04-1.62-3.03-2.47c-1.02-0.88-2.04-1.76-3.04-2.68
			c-1.2-1.1-2.4-2.19-3.52-3.36c-0.82-0.86-1.66-1.7-2.43-2.61c-0.96-1.12-1.93-2.24-2.87-3.39c-1.63-1.98-3.15-4.02-4.6-6.13
			c-2.6-3.79-4.87-7.77-6.87-11.91c-1.04-2.16-1.98-4.37-2.86-6.6c-0.74-1.88-1.39-3.8-1.97-5.74c-0.52-1.74-0.99-3.5-1.42-5.26
			c-0.42-1.7-0.74-3.42-1.11-5.13c-0.27-1.23-0.34-2.5-0.56-3.74c-0.19-1.13-0.27-2.28-0.43-3.42c-0.09-0.63-0.13-1.29-0.13-1.94
			c-0.07-0.18,0.02-0.38-0.07-0.56c-0.01-0.23-0.02-0.46-0.02-0.7c-0.07-0.22,0.02-0.45-0.07-0.67c-0.01-0.35-0.02-0.69-0.02-1.04
			c-0.08-0.31,0.03-0.64-0.07-0.95c0-0.9,0-1.8-0.01-2.69c-0.04-3.57,0.16-7.13,0.57-10.68c1.05-9.16,3.44-17.97,7.21-26.4
			c3.49-7.79,7.99-14.95,13.51-21.46c6.31-7.45,13.64-13.72,21.97-18.8c7.08-4.32,14.63-7.58,22.62-9.81
			c3.45-0.96,6.94-1.71,10.47-2.24c5.78-0.87,11.59-1.18,17.44-0.94c10.75,0.44,21.08,2.73,31,6.88c7.86,3.29,15.1,7.62,21.72,12.98
			c9.9,8.01,17.77,17.67,23.6,28.99c3.7,7.18,6.37,14.74,8.01,22.65c0.98,4.75,1.59,9.54,1.8,14.38c0,0.09-0.05,0.22,0.09,0.27
			c0,0.06,0,0.12,0,0.18c-0.1,0.18-0.02,0.38-0.05,0.57c0,0.17,0,0.35,0,0.52c0.02,0.33-0.05,0.66,0.05,0.98c0,1.11,0,2.22,0,3.33
			c-0.1,0.27-0.02,0.54-0.05,0.81c0,0.2,0,0.4,0,0.6c0.02,0.22-0.05,0.44,0.05,0.66c0,0.06,0,0.12,0,0.18
			c-0.19,0.33-0.08,0.69-0.1,1.03c-0.08,0.19,0,0.4-0.07,0.59c-0.01,0.26-0.02,0.52-0.03,0.78c-0.08,0.18,0.01,0.39-0.07,0.57
			c-0.01,0.2-0.02,0.4-0.02,0.6c-0.08,0.15,0,0.32-0.07,0.48c-0.29,2.88-0.66,5.75-1.2,8.59c-0.81,4.26-1.9,8.46-3.32,12.56
			c-1.13,3.27-2.45,6.47-3.94,9.6c-2.12,4.47-4.63,8.7-7.44,12.76c-1.59,2.28-3.3,4.47-5.1,6.6c-2.01,2.38-4.14,4.65-6.38,6.8
			c-2.37,2.27-4.86,4.41-7.46,6.41c-3.44,2.64-7.04,5.03-10.82,7.16c-2.55,1.44-5.17,2.74-7.84,3.93c-1.84,0.81-3.71,1.53-5.59,2.25
			c-1.32,0.5-2.64,0.95-4.07,0.82c-0.98-0.09-1.87-0.39-2.62-1.09c-0.71-0.66-1.1-1.47-1.3-2.38c-0.08-0.34-0.07-0.7-0.07-1.06
			c0.01-2.79,0.02-5.58,0.03-8.37c0-0.15-0.02-0.3-0.03-0.44c0.07-0.16,0.04-0.32,0.04-0.49c0-1.82,0-3.64,0-5.46
			c0-0.16-0.03-0.33,0.03-0.49c0-3.54,0-7.08,0-10.62c-0.08-0.28,0.03-0.57-0.07-0.85c-0.01-0.26-0.02-0.52-0.02-0.77
			c-0.07-0.15,0.02-0.32-0.07-0.47c-0.06-0.81-0.22-1.61-0.34-2.41c-0.21-1.33-0.54-2.62-0.99-3.87c-0.76-2.15-1.83-4.12-3.36-5.84
			c-0.38-0.43-0.78-0.83-1.27-1.23c3.97-0.46,7.82-1.08,11.61-2.08c2.64-0.7,5.22-1.58,7.72-2.69c2.35-1.04,4.57-2.3,6.68-3.76
			c0.83-0.57,1.63-1.21,2.38-1.9c0.75-0.69,1.56-1.31,2.25-2.07c2.59-2.81,4.72-5.92,6.29-9.41c0.75-1.68,1.39-3.4,1.92-5.17
			c0.52-1.74,0.94-3.51,1.24-5.31c0.18-1.05,0.37-2.11,0.5-3.17c0.09-0.75,0.26-1.5,0.21-2.28c-0.02-0.25,0.13-0.51,0.08-0.78
			c0.09-0.18-0.01-0.38,0.07-0.57c0.01-0.26,0.02-0.52,0.02-0.78c0.09-0.24-0.01-0.51,0.07-0.75c0.01-0.49,0.02-0.99,0.02-1.48
			c0.09-0.57,0.02-1.15,0.04-1.72c0.01-0.16-0.03-0.32,0.03-0.48c0-0.03,0-0.06,0-0.09c-0.08-0.55,0.03-1.11-0.07-1.66
			c-0.03-1-0.12-1.99-0.24-2.98c-0.13-0.98-0.28-1.95-0.46-2.93c-0.17-0.92-0.41-1.83-0.66-2.73c-0.91-3.24-2.32-6.27-4.14-9.1
			c-0.71-1.11-1.51-2.17-2.36-3.18c-0.4-0.47-0.78-0.96-1.22-1.4c-0.11-0.11-0.12-0.19-0.05-0.35c0.6-1.37,0.93-2.82,1.22-4.28
			c0.22-1.1,0.41-2.2,0.44-3.32c0.09-0.18-0.01-0.38,0.07-0.56c0.01-0.44,0.02-0.87,0.02-1.31c0.06-0.39,0.06-0.78,0-1.17
			c0.05-0.49,0-0.99-0.02-1.48c-0.06-0.16,0.01-0.34-0.07-0.49c-0.06-0.96-0.2-1.9-0.34-2.85c-0.18-1.19-0.42-2.37-0.72-3.54
			c-0.38-1.5-0.88-2.96-1.44-4.41c-0.06-0.14-0.13-0.21-0.31-0.25c-0.49-0.1-0.97-0.2-1.47-0.16
			C195.53,101.43,195.29,101.43,195.05,101.49z"/>
	</g>
</g>
<g id="Guides">
</g>
<g id="Layer_5" class="st155">
	<rect x="59.79" y="59.6" class="st156" width="180.21" height="180.21"/>
</g>
</svg>
