<svg xmlns="http://www.w3.org/2000/svg" viewBox="0 0 300 300"><defs><style>.cls-1{fill:#1b1f23;}.cls-2{fill:#fff;}</style></defs><g id="Fondos"><rect class="cls-1" width="300" height="300"/></g><g id="Texto"><path class="cls-2" d="M195.05,101.49a16.67,16.67,0,0,0-3.79.48,33.93,33.93,0,0,0-6.1,2,58.39,58.39,0,0,0-7,3.51q-2.69,1.56-5.25,3.31a.93.93,0,0,1-.89,0,54.36,54.36,0,0,0-6-1.41c-1.17-.23-2.37-.41-3.56-.57s-2.13-.3-3.19-.42a15.68,15.68,0,0,0-2.37-.2c-.16-.07-.34,0-.5-.06l-.76,0c-.19-.08-.4,0-.59-.06l-1.12,0c-.28-.09-.58,0-.86-.06q-2.84-.09-5.67,0c-.28.08-.57,0-.85.06l-1.13,0c-.19.06-.39,0-.58.06l-.77,0c-.18.07-.38,0-.56.06-1.18,0-2.35.2-3.53.34s-2.17.27-3.26.45-2.2.35-3.29.58c-1.42.3-2.83.65-4.24,1a7.64,7.64,0,0,0-1.07.28.82.82,0,0,1-.85-.13,76.63,76.63,0,0,0-7.44-4.46,54.24,54.24,0,0,0-5.53-2.56A32.65,32.65,0,0,0,108.9,102a15.29,15.29,0,0,0-2.44-.37c-.14-.09-.31,0-.46-.07a11.56,11.56,0,0,0-2.63.07.56.56,0,0,0-.53.4,38.47,38.47,0,0,0-2.08,7.52,18.29,18.29,0,0,0-.35,3.13c-.09.18,0,.38-.07.56a9.33,9.33,0,0,0,0,1.4,3.81,3.81,0,0,0,0,1.26l0,1.3c.07.18,0,.39.07.57a23.73,23.73,0,0,0,.85,5.29c.2.75.46,1.49.72,2.23a.43.43,0,0,1-.09.48,35.64,35.64,0,0,0-4,5.38,34.34,34.34,0,0,0-3.76,8.79,32.94,32.94,0,0,0-1,5.4,8.61,8.61,0,0,0-.08,1.24c-.08.16,0,.34-.07.5l0,1a37.36,37.36,0,0,0,0,4l0,1.48c.08.25,0,.51.07.76l0,.77c.07.18,0,.39.07.57l0,.6c.07.15,0,.32.07.47a29.11,29.11,0,0,0,.47,4.16,49.45,49.45,0,0,0,1.24,5.62,39.22,39.22,0,0,0,4.17,9.74,32,32,0,0,0,4.69,6,33.87,33.87,0,0,0,7.2,5.45A46.42,46.42,0,0,0,122.16,192c2.14.57,4.31,1,6.5,1.38,1.68.27,3.37.5,5.13.72-.33.39-.72.67-1,1a20.39,20.39,0,0,0-4.62,10.68c0,.54-.5.55-.79.68a27.15,27.15,0,0,1-4.73,1.52,22.85,22.85,0,0,1-4.12.5,6,6,0,0,1-1.34,0,16.29,16.29,0,0,1-9.41-3.08,19.86,19.86,0,0,1-3.07-2.72,34.44,34.44,0,0,1-3.25-4.54,23.5,23.5,0,0,0-2.18-2.79,16.79,16.79,0,0,0-1.54-1.61A18.15,18.15,0,0,0,93.82,191a15,15,0,0,0-3.26-1.21,5.92,5.92,0,0,0-1.46-.21c-.3-.1-.62,0-.92-.07H88c-.27.08-.57,0-.84.07a5.29,5.29,0,0,0-2.43.48c-.85.4-1.08,1.08-.54,2A7.17,7.17,0,0,0,85.87,194c.95.84,2.12,1.35,3.13,2.1a17,17,0,0,1,3.14,3.3A43,43,0,0,1,97,207.43c.38.81.68,1.66,1.06,2.47a15,15,0,0,0,3.21,4.51,18.18,18.18,0,0,0,8.62,4.53,18.77,18.77,0,0,0,4.16.64c.15.09.32,0,.47.07l.78,0c.25.1.51,0,.75.07,1,0,1.92,0,2.89,0,.25-.08.51,0,.76-.07l1,0c.15-.06.32,0,.48-.06a29.84,29.84,0,0,0,3.89-.42c.85-.12,1.7-.27,2.55-.4a8.87,8.87,0,0,1,0,1.46c0,.76,0,1.52,0,2.27a4,4,0,0,0,0,1q0,3.45,0,6.9c.06,1,0,2.08,0,3.11a1.35,1.35,0,0,0,0,.53c-.09.68,0,1.37-.08,2a4.16,4.16,0,0,1-3.32,3.75c-.24.05-.49.07-.74.11a5,5,0,0,1-1.16,0,8.73,8.73,0,0,1-3.14-.85c-1.54-.53-3-1.17-4.56-1.8-2.26-.93-4.46-2-6.63-3.14-2.61-1.37-5.14-2.88-7.6-4.5-1.85-1.22-3.67-2.5-5.43-3.84-1-.78-2-1.62-3-2.47s-2-1.77-3-2.68c-1.2-1.1-2.4-2.19-3.53-3.36-.82-.85-1.65-1.7-2.43-2.6-1-1.13-1.93-2.25-2.87-3.39-1.63-2-3.15-4-4.6-6.13a91.44,91.44,0,0,1-6.86-11.91c-1-2.17-2-4.37-2.87-6.6-.74-1.88-1.38-3.8-2-5.74-.53-1.74-1-3.49-1.43-5.26s-.74-3.42-1.11-5.13c-.27-1.22-.35-2.49-.56-3.74s-.27-2.28-.43-3.42a17.53,17.53,0,0,1-.13-1.93c-.07-.18,0-.39-.07-.57l0-.69c-.07-.22,0-.46-.07-.67l0-1c-.08-.31,0-.64-.07-.95,0-.9,0-1.8,0-2.69a83,83,0,0,1,.56-10.69,90.11,90.11,0,0,1,65.31-76.46,86.65,86.65,0,0,1,10.47-2.24,91.63,91.63,0,0,1,17.44-.94,89.64,89.64,0,0,1,52.72,19.85,89.9,89.9,0,0,1,23.6,29,89.33,89.33,0,0,1,9.8,37c0,.09,0,.22.09.27v.18c-.1.18,0,.38-.05.57v.52a4.57,4.57,0,0,0,.05,1v3.33a3.16,3.16,0,0,0-.05.81v.6c0,.22,0,.45.05.66v.18c-.19.33-.08.68-.1,1-.08.19,0,.4-.06.59l0,.77c-.08.19,0,.39-.07.58l0,.6c-.08.15,0,.32-.07.48-.29,2.88-.65,5.74-1.19,8.59a89.73,89.73,0,0,1-3.33,12.56,95.06,95.06,0,0,1-3.93,9.59A90.76,90.76,0,0,1,223.76,206c-1.59,2.28-3.3,4.47-5.1,6.6a89.21,89.21,0,0,1-6.38,6.8A91.12,91.12,0,0,1,194,233c-2.55,1.44-5.17,2.74-7.85,3.93-1.83.81-3.71,1.53-5.58,2.24a9.11,9.11,0,0,1-4.07.82,4.24,4.24,0,0,1-2.62-1.09,4.44,4.44,0,0,1-1.31-2.38,4.65,4.65,0,0,1-.06-1.06c0-2.79,0-5.58,0-8.36,0-.15,0-.3,0-.45a1.15,1.15,0,0,0,0-.49V220.7a1.34,1.34,0,0,1,0-.49V209.58c-.08-.27,0-.56-.07-.84l0-.78c-.07-.14,0-.32-.07-.46-.06-.82-.22-1.61-.35-2.42a22.39,22.39,0,0,0-1-3.87,17.09,17.09,0,0,0-3.37-5.84,11.53,11.53,0,0,0-1.27-1.24,80.76,80.76,0,0,0,11.61-2.07,51.5,51.5,0,0,0,7.72-2.69,40.58,40.58,0,0,0,6.68-3.76,20.65,20.65,0,0,0,2.38-1.9c.75-.69,1.56-1.31,2.26-2.06a34.93,34.93,0,0,0,6.28-9.42,39.6,39.6,0,0,0,1.92-5.17,45.51,45.51,0,0,0,1.25-5.31c.18-1.05.36-2.11.49-3.17a12.3,12.3,0,0,0,.22-2.27c0-.25.13-.51.08-.78s0-.39.07-.57l0-.78c.09-.24,0-.5.07-.75l0-1.48c.08-.58,0-1.15,0-1.73a1.3,1.3,0,0,1,0-.48v-.09c-.09-.55,0-1.11-.07-1.66,0-1-.12-2-.24-3s-.28-1.95-.46-2.93-.41-1.82-.66-2.72a33.73,33.73,0,0,0-4.14-9.1,32,32,0,0,0-2.36-3.19c-.4-.47-.78-1-1.22-1.4a.25.25,0,0,1-.05-.34,26.71,26.71,0,0,0,1.66-7.61c.09-.17,0-.38.07-.56l0-1.3a3.89,3.89,0,0,0,0-1.18,12.18,12.18,0,0,0,0-1.48c-.07-.16,0-.34-.07-.49-.06-1-.2-1.91-.34-2.86a35.8,35.8,0,0,0-.72-3.54,40.37,40.37,0,0,0-1.44-4.4.34.34,0,0,0-.31-.25,4.92,4.92,0,0,0-1.48-.17A1.42,1.42,0,0,0,195.05,101.49Z"/></g></svg>