<?xml version="1.0" encoding="utf-8"?>
<!-- Generator: Adobe Illustrator 25.4.1, SVG Export Plug-In . SVG Version: 6.00 Build 0)  -->
<svg version="1.1" xmlns="http://www.w3.org/2000/svg" xmlns:xlink="http://www.w3.org/1999/xlink" x="0px" y="0px"
	 viewBox="0 0 300 300" style="enable-background:new 0 0 300 300;" xml:space="preserve">
<style type="text/css">
	.st0{fill:#4674B9;}
	.st1{fill:#2C2C32;}
	.st2{fill:#010101;}
	.st3{fill:#F6DF19;}
	.st4{fill:#2363AF;}
	.st5{fill:#F0672B;}
	.st6{fill:#101215;}
	.st7{fill:#492D8C;}
	.st8{fill:#F36C3D;}
	.st9{fill:#7756A3;}
	.st10{fill:#679E63;}
	.st11{fill:#484848;}
	.st12{fill:#1B1F23;}
	.st13{fill:#EF7729;}
	.st14{fill:#4791CE;}
	.st15{fill:#F6F6F6;}
	.st16{fill:#4A4A4D;}
	.st17{fill:#C54027;}
	.st18{fill:#3978BD;}
	.st19{fill:#CC6899;}
	.st20{fill:#12364F;}
	.st21{fill:#316A9A;}
	.st22{fill:#FFD53E;}
	.st23{fill:#693994;}
	.st24{fill:#FFFFFF;}
	.st25{fill-rule:evenodd;clip-rule:evenodd;fill:#FFFFFF;}
	.st26{fill-rule:evenodd;clip-rule:evenodd;fill:url(#XMLID_00000082336800241325804460000009625339912590901685_);}
	.st27{clip-path:url(#XMLID_00000054251380836929757690000014454810963061777833_);}
	.st28{fill:none;}
	.st29{opacity:0.66;fill:#4B4B4B;}
	.st30{fill:url(#SVGID_1_);}
	.st31{opacity:0.05;fill:#010101;enable-background:new    ;}
	.st32{fill:#17AA4F;}
	.st33{fill:#B8C4C2;}
	.st34{fill:#14924F;}
	.st35{fill:#22323D;}
	.st36{fill:#F26424;}
	.st37{fill:#4E4E4E;}
	.st38{fill:#3B2F14;}
	.st39{fill:#F58772;}
	.st40{fill:#F05233;}
	.st41{fill:#433527;}
	.st42{fill:#DD1E34;}
	.st43{fill:#C32033;}
	.st44{fill:#F9F9FA;}
	.st45{fill:#7253A2;}
	.st46{fill:#4674B9;stroke:#FFFFFF;stroke-width:8;stroke-miterlimit:10;}
	.st47{fill:#EF4623;}
	.st48{fill:#4EB987;}
	.st49{fill:#455567;}
	.st50{fill:#F1F2F2;}
	.st51{fill:#70CEEF;}
	.st52{fill:#70CFF0;}
	.st53{opacity:0.7;fill:#2C384A;enable-background:new    ;}
	.st54{fill:url(#path-2_00000036240592388320534700000016192775685916455336_);}
	.st55{filter:url(#Adobe_OpacityMaskFilter);}
	.st56{mask:url(#mask-3_3_);}
	.st57{fill:#F9A01B;}
	.st58{fill:#F47D20;}
	.st59{fill:#FFCB2A;}
	.st60{fill:#FFFFFF;fill-opacity:0.2;}
	.st61{opacity:0.2;fill:#A52A22;enable-background:new    ;}
	.st62{filter:url(#Adobe_OpacityMaskFilter_00000116936052931243919890000009628776926026228917_);}
	.st63{mask:url(#mask-3_2_);fill:none;}
	.st64{filter:url(#Adobe_OpacityMaskFilter_00000001652189679995512580000000519282724408034964_);}
	.st65{mask:url(#mask-3_1_);fill:url(#_Path_5_00000031166622230769351830000013179803388534237576_);}
	.st66{fill:#5BADE0;}
	.st67{fill:#4699D4;}
	.st68{fill:#318ECD;}
	.st69{fill:#3390CE;}
	.st70{fill:#1773B0;}
	.st71{fill:#489BD5;}
	.st72{fill:#2884C6;}
	.st73{fill:#2682C5;}
	.st74{fill:#2480C4;}
	.st75{fill:#237EC2;}
	.st76{fill:#4497D2;}
	.st77{fill:#1571AF;}
	.st78{fill:#237DC1;}
	.st79{fill:#1B72AD;}
	.st80{fill:#1B6CA3;}
	.st81{fill:#196FA9;}
	.st82{fill:#1D77BD;}
	.st83{fill:#207ABF;}
	.st84{fill:#2D7FB8;}
	.st85{fill:#3383BA;}
	.st86{fill:#287EB6;}
	.st87{fill:#63B0E1;}
	.st88{fill:#3887BC;}
	.st89{fill:#3B89BD;}
	.st90{fill:#3792D0;}
	.st91{fill:#2A78AC;}
	.st92{fill:#2973A8;}
	.st93{fill:#2A7CB3;}
	.st94{fill:#3F88BA;}
	.st95{fill:#59ABDF;}
	.st96{fill:#3A7FAF;}
	.st97{fill:#317BAC;}
	.st98{fill:#367DAE;}
	.st99{fill:#2C8BCB;}
	.st100{fill:#2E8DCC;}
	.st101{fill:#1A75B1;}
	.st102{fill:#1F77B2;}
	.st103{fill:#1D74AF;}
	.st104{fill:#1D72AA;}
	.st105{fill:#206FA5;}
	.st106{fill:#499FD8;}
	.st107{fill:#489CD6;}
	.st108{fill:#4DA1D9;}
	.st109{fill:#51A6DC;}
	.st110{fill:#4FA4DB;}
	.st111{fill:#0F72B7;}
	.st112{fill:#0770B7;}
	.st113{fill:#56A8DD;}
	.st114{fill:#2A88C9;}
	.st115{fill:#227FC3;}
	.st116{fill:#1F7DC1;}
	.st117{fill:#1D7BC0;}
	.st118{fill:#1474BB;}
	.st119{fill:#1071B9;}
	.st120{fill:#1E79BF;}
	.st121{fill:#1875BC;}
	.st122{fill:#3381B5;}
	.st123{fill:#2F7FB4;}
	.st124{fill:#3883B6;}
	.st125{fill:#267BB5;}
	.st126{fill:#297AB2;}
	.st127{fill:#3E86B6;}
	.st128{fill:#3C81B1;}
	.st129{fill:#3B87B9;}
	.st130{fill:#3A85B8;}
	.st131{fill:#2378B1;}
	.st132{fill:#2675AC;}
	.st133{fill:#2572A6;}
	.st134{fill:#0D74B8;}
	.st135{fill:#3882B4;}
	.st136{fill:#367FB2;}
	.st137{fill:#307CAF;}
	.st138{fill:#337EB0;}
	.st139{fill:#2271A5;}
	.st140{fill:#0E75BB;}
	.st141{fill:#0D73BB;}
	.st142{fill:#0B74BC;}
	.st143{fill:#1578BC;}
	.st144{fill:#1C7CC1;}
	.st145{fill:#2575AB;}
	.st146{fill:#1B7BC0;}
	.st147{fill:#1876BD;}
	.st148{fill:#1978BE;}
	.st149{fill:#3C84B4;}
	.st150{fill-rule:evenodd;clip-rule:evenodd;fill:#687E91;}
	.st151{fill:#037690;}
	.st152{fill:#F29220;}
	.st153{fill-rule:evenodd;clip-rule:evenodd;fill:#F29220;}
	.st154{fill-rule:evenodd;clip-rule:evenodd;fill:#037690;}
	.st155{display:none;}
	.st156{display:inline;fill-rule:evenodd;clip-rule:evenodd;fill:#2BB673;}
	.st157{display:inline;opacity:0.15;fill-rule:evenodd;clip-rule:evenodd;fill:#2BB673;}
</style>
<g id="Fondos_1_">
	<rect class="st1" width="300" height="300"/>
</g>
<g id="Texto">
	<g>
		<path class="st66" d="M221.87,86.03c2.65,1.09,5.16,2.37,6.69,4.97c0.66,1.12,1.11,2.31,1.32,3.59c0.02,0.11,0,0.22,0.13,0.28
			c0,0.4,0,0.8,0,1.2c-0.13,0.21-0.07,0.43-0.07,0.65c0,2.13,0,4.27-0.01,6.4c0,0.24,0.06,0.49-0.06,0.72
			c-0.27,0.21-0.59,0.18-0.9,0.18c-12.7,0-25.4,0-38.1,0c-0.31,0-0.63,0.02-0.91-0.16c-0.36-0.5-0.18-1.07-0.22-1.61
			c-0.03-0.33,0-0.66,0.01-0.99c-0.04-2.91-0.03-5.82,0.01-8.73c0-0.38,0.01-0.75-0.01-1.13c-0.03-1.41-0.01-2.81-0.01-4.22
			c0-0.26,0-0.53,0.17-0.76c0.4-0.28,0.86-0.19,1.29-0.19c9.76-0.01,19.52,0,29.29-0.01C220.97,86.24,221.44,86.3,221.87,86.03z"/>
		<path class="st67" d="M230,205.25c-0.25,0.28-0.21,0.65-0.3,0.98c-0.77,2.82-2.41,4.97-4.99,6.36c-0.97,0.53-1.99,0.96-2.99,1.44
			c-0.33-0.13-0.66-0.02-0.99-0.02c-9.87-0.01-19.73-0.01-29.6-0.01c-0.39,0-0.8,0.06-1.17-0.16c-0.35-0.5-0.17-1.07-0.21-1.61
			c-0.03-0.37,0.01-0.75,0.01-1.12c-0.03-3.02-0.01-6.03-0.01-9.05c0-0.29,0-0.58,0.19-0.83c0.42-0.3,0.9-0.2,1.36-0.2
			c12.29-0.01,24.57,0,36.86-0.01c1.66,0,1.49,0.11,1.49-1.52c0.02-4.4-0.02-8.8,0.02-13.2c-0.03-5.03-0.03-10.06,0-15.08
			c-0.03-4.98-0.03-9.96,0-14.95c-0.03-4.05-0.03-8.09,0-12.14c-0.04-3.19-0.01-6.38-0.01-9.57c0-0.22,0.01-0.44,0.12-0.65
			c0.05-0.09,0.13-0.11,0.22-0.08C230,157.64,230,181.45,230,205.25z"/>
		<path class="st68" d="M75.7,131.58c-1.25-1.14-2.5-2.26-3.74-3.41c-0.95-0.88-1.59-1.95-1.92-3.21c-0.04-0.16-0.01-0.37-0.21-0.46
			c0-0.22,0-0.44,0-0.67c0.09-0.33,0.33-0.45,0.65-0.47c0.31-0.02,0.62-0.02,0.93-0.02c11.56,0,23.12,0,34.68,0
			c0.29,0,0.58,0.01,0.86,0.08c2.2,1.65,4.4,3.3,6.59,4.95c0.94,0.71,1.87,1.42,2.81,2.13c0.17,0.13,0.33,0.3,0.58,0.28
			c0.19,0.15,0.28,0.33,0.11,0.56c-0.4,0.26-0.86,0.17-1.3,0.17c-12.82,0-25.64,0-38.46,0C76.77,131.52,76.23,131.53,75.7,131.58z"
			/>
		<path class="st69" d="M106.96,123.42c-0.3,0.19-0.64,0.14-0.97,0.14c-11.75,0-23.5,0-35.25,0c-0.33,0-0.68-0.07-0.9,0.27
			c0-0.58,0-1.16,0-1.74c0.23-0.16,0.2-0.43,0.26-0.65c0.29-0.97,0.73-1.88,1.45-2.59c1.82-1.79,3.73-3.48,5.65-5.16
			c0.34-0.19,0.71-0.23,1.1-0.23c4.94,0,9.88,0,14.81,0c0.29,0,0.57,0.06,0.86,0.09c3.22,2.43,6.45,4.86,9.67,7.3
			C104.75,121.7,105.85,122.57,106.96,123.42z"/>
		<path class="st70" d="M69.83,175.48c0.37-0.69,0.48-1.5,0.9-2.18c0.5-0.82,1.16-1.5,1.9-2.1c0.18-0.11,0.37-0.12,0.58-0.12
			c9.6,0.08,19.21,0.02,28.81,0.03c1.02,0,2.02-0.32,3.05-0.28c0.57-0.07,0.9,0.36,1.24,0.67c0.97,0.88,1.9,1.8,3.03,2.49
			c0.17,0.1,0.43,0.21,0.27,0.51c-0.84,0.74-1.74,1.4-2.67,2.04c-0.53-0.06-1.06-0.06-1.6-0.06c-11.16,0-22.32,0-33.49,0
			c-0.73,0-1.51-0.16-2.03,0.58C69.83,176.55,69.83,176.02,69.83,175.48z"/>
		<path class="st70" d="M69.83,177.09c0.07-0.84,0.63-0.81,1.28-0.81c11.68,0.02,23.37,0.01,35.05,0.02c0.27,0,0.65-0.2,0.78,0.27
			c-2.01,1.6-4.06,3.15-6.14,4.66c-0.51-0.06-1.02-0.05-1.53-0.05c-8.68,0-17.36,0-26.05,0c-0.51,0-1.02,0.03-1.53,0.07
			c-0.92-0.84-1.4-1.92-1.72-3.09c-0.03-0.1,0-0.22-0.14-0.26C69.83,177.62,69.83,177.35,69.83,177.09z"/>
		<path class="st71" d="M230,133.84c-0.04,0-0.09,0-0.13,0c-0.33-0.4-0.19-0.87-0.21-1.32c-0.02-0.41-0.02-0.83,0.01-1.24
			c-0.03-4.22-0.03-8.44,0-12.66c-0.04-4.69-0.01-9.38-0.01-14.07c0-0.27,0.02-0.54,0.21-0.75c0-2.35,0-4.7,0.01-7.05
			c0-0.23-0.09-0.49,0.13-0.69C230,108.66,230,121.25,230,133.84z"/>
		<path class="st72" d="M125.21,176.72c-2.56-2.32-5.11-4.64-7.67-6.95c-0.25-0.23-0.44-0.57-0.85-0.57
			c-1.03-0.72-1.87-1.66-2.8-2.5c-0.2-0.18-0.33-0.43-0.06-0.68c0.42-0.28,0.9-0.22,1.36-0.22c6.04,0,12.09,0,18.13,0
			c9.53,0,19.07,0,28.6,0c0.22,0,0.44,0,0.66,0.02c0.36-0.07,0.65,0.08,0.92,0.29c4.13,3.12,8.24,6.26,12.37,9.39
			c0.27,0.2,0.54,0.43,0.35,0.83c-0.19,0.27-0.48,0.3-0.77,0.32c-0.31,0.02-0.62,0.01-0.93,0.01c-15.91,0-31.82,0-47.73,0
			C126.28,176.64,125.74,176.63,125.21,176.72z"/>
		<path class="st73" d="M125.21,176.72c0.03-0.22,0.15-0.3,0.36-0.3c0.2,0.01,0.4,0,0.6,0c16.39,0,32.78,0,49.16,0
			c0.35,0,0.81,0.16,0.88-0.43c0.6,0.11,0.99,0.57,1.45,0.89c1.24,0.86,2.45,1.77,3.62,2.72c0.21,0.17,0.51,0.32,0.4,0.69
			c-0.1,0.41-0.17,0.82-0.45,1.17c-0.27,0.34-0.15,0.77-0.18,1.16c-0.03,0.43,0.12,0.9-0.25,1.27c-0.46,0.21-0.51,0.62-0.53,1.06
			c-0.04,1.13-0.33,1.43-1.47,1.55c-0.38,0.04-0.76,0.03-1.13,0.03c-13.65,0-27.3,0-40.94,0c-0.29,0-0.58-0.03-0.86-0.06
			c-2.46-2.22-4.92-4.44-7.36-6.67C127.42,178.77,126.24,177.83,125.21,176.72z"/>
		<path class="st74" d="M135.89,186.45c0.23-0.27,0.54-0.15,0.81-0.15c13.83-0.01,27.65-0.01,41.48-0.01c0.18,0,0.36,0.01,0.53,0
			c1.16-0.05,1.36-0.26,1.36-1.42c0-1,0.03-1.05,0.8-1.11c0.37,0.19,0.32,0.55,0.34,0.87c0.08,1.02-0.14,2.03-0.14,3.06
			c0.01,2.02,0.02,4.04-0.01,6.06c-0.04,0.82,0.17,1.65-0.16,2.45c-0.49,0.26-0.62,0.69-0.63,1.22c-0.02,1.14-0.23,1.33-1.39,1.36
			c-0.58,0.01-1.16,0-1.73,0c-8.67,0-17.34,0-26,0c-0.56,0-1.11,0.01-1.66,0.08c-2.25-2.04-4.51-4.07-6.76-6.11
			c-2.14-1.94-4.26-3.89-6.39-5.83C136.19,186.78,136.05,186.61,135.89,186.45z"/>
		<path class="st75" d="M149.5,198.87c0.18-0.42,0.56-0.29,0.87-0.29c9.45,0,18.89,0,28.34,0c0.18,0,0.36,0,0.53,0
			c0.58,0,0.93-0.2,0.84-0.87c-0.04-0.26-0.02-0.53,0-0.8c0.03-0.49,0.24-0.8,0.8-0.74c0.21,0.21,0.21,0.48,0.21,0.74
			c0,1.53,0.03,3.06-0.01,4.58c0.05,2.26,0,4.51-0.01,6.77c0,0.18-0.05,0.35-0.16,0.49c-0.16,0.13-0.35,0.19-0.54,0.25
			c-0.51,0.16-0.74,0.47-0.75,1.03c-0.03,1-0.21,1.16-1.2,1.16c-3.2,0.01-6.4,0-9.59,0c-1.35,0-2.71,0.01-4.06,0
			c-0.52,0-1.02,0.04-1.5,0.22c-2.42-2.19-4.84-4.37-7.24-6.56C153.83,202.87,151.67,200.87,149.5,198.87z"/>
		<path class="st76" d="M189.97,213.79c10.3,0,20.61,0,30.91,0c0.3,0,0.64-0.11,0.84,0.24c-2.68,1.18-5.26,2.57-7.9,3.83
			c-7.49,3.6-14.98,7.22-22.48,10.8c-3.12,1.49-6.23,1.33-9.26-0.33c-0.11-0.06-0.21-0.16-0.31-0.24c0.45-0.28,0.86,0.08,1.29,0.1
			c0.07,0.01,0.13,0.03,0.2,0.05c0.53,0.09,1.07,0.09,1.6-0.02c0.69-0.1,1.35-0.31,1.96-0.65c1.54-0.83,2.49-2.1,2.85-3.82
			c0.01-0.1,0.03-0.21,0.06-0.31c0.09-0.29,0.05-0.59,0.04-0.89c-0.04-2.66-0.01-5.31-0.01-7.97
			C189.75,214.31,189.73,214.01,189.97,213.79z"/>
		<path class="st77" d="M71.7,181.24c0.14-0.32,0.42-0.28,0.68-0.28c9.24,0,18.49,0,27.73,0c0.26,0,0.55-0.05,0.69,0.27
			c-3.4,2.6-6.81,5.19-10.21,7.79c-1.13,0.86-2.21,1.77-3.65,2.12c-2.16,0.53-4.16,0.16-5.8-1.27c-3.15-2.74-6.2-5.6-9.28-8.41
			C71.79,181.39,71.75,181.31,71.7,181.24z"/>
		<path class="st78" d="M163.26,211.42c0.13-0.52,0.56-0.43,0.92-0.43c4.8,0,9.6-0.02,14.4,0.01c0.69,0,0.94-0.21,0.85-0.88
			c-0.15-1.03,0.11-1.2,1.47-1.41c0.26,0.27,0.19,0.62,0.21,0.94c0.08,1.88-0.1,3.75-0.16,5.62c0,0.4-0.12,0.78-0.18,1.17
			c-0.07,0.21-0.08,0.43-0.1,0.66c-0.05,0.8-0.2,1.54-1.02,1.95c-0.27,0.13-0.39,0.41-0.44,0.71c-0.04,0.26-0.1,0.52-0.18,0.78
			c-0.23,0.74-0.56,1-1.35,1.04c-1.06,0.05-2.13-0.08-3.19,0.09c-2.66-2.42-5.32-4.83-7.97-7.25
			C165.42,213.43,164.25,212.51,163.26,211.42z"/>
		<path class="st79" d="M109.61,174.52c-0.04-0.08-0.06-0.19-0.12-0.22c-1.58-0.87-2.73-2.28-4.15-3.36
			c-1.02-0.65-1.86-1.5-2.64-2.41c-0.28-0.32-0.55-0.64-0.89-0.9c-0.51-0.4-0.99-0.8-1.11-1.51c-0.07-0.38-0.41-0.62-0.71-0.85
			c-0.32-0.24-0.62-0.51-0.88-0.81c-0.16-0.18-0.36-0.36-0.19-0.64c0.53-0.36,1.14-0.22,1.73-0.26c0.19-0.01,0.46,0.08,0.54-0.12
			c0.1-0.25-0.17-0.38-0.33-0.5c-0.38-0.3-0.74-0.62-1.07-0.98c-0.19-0.21-0.41-0.41-0.36-0.74c0.31-0.23,0.49,0.04,0.67,0.2
			c0.43,0.38,0.83,0.79,1.25,1.18c0.58,0.53,1.19,0.98,1.9,1.29c0.88,0.82,1.94,1.46,2.51,2.6c0.18,0.36,0.59,0.53,0.87,0.81
			c1.75,1.75,3.6,3.4,5.44,5.05c0.07,0.06,0.11,0.14,0.12,0.23C111.37,173.27,110.52,173.94,109.61,174.52z"/>
		<path class="st80" d="M113.74,166.28c0.79,0.93,1.79,1.65,2.65,2.51c0.13,0.13,0.28,0.21,0.3,0.41c-0.72,0.54-1.43,1.08-2.15,1.62
			c-0.42,0.17-0.68-0.15-0.91-0.38c-1.54-1.51-3.16-2.92-4.73-4.39c-1.36-1.27-2.45-2.8-3.91-3.97c-0.19-0.15-0.37-0.33-0.4-0.59
			c0.33-0.54,0.24-0.97-0.31-1.32c-0.18-0.12-0.32-0.31-0.47-0.47c-0.23-0.23-0.33-0.48-0.12-0.77c0.26-0.36,0.11-0.62-0.2-0.84
			c-0.47-0.34-0.88-0.75-1.26-1.19c-0.28-0.32-0.33-0.64,0.17-0.82c0.31,0.02,0.54,0.21,0.75,0.4c1.71,1.62,3.47,3.18,5.2,4.77
			c1.65,1.52,3.32,3.01,4.96,4.54C113.48,165.94,113.68,166.05,113.74,166.28z"/>
		<path class="st81" d="M104.67,161.47c0.26,0.37,0.58,0.66,0.93,0.94c0.52,0.41,1.01,0.85,1.34,1.45c0.28,0.52,0.82,0.8,1.23,1.19
			c1.23,1.18,2.4,2.42,3.69,3.54c0.78,0.68,1.55,1.38,2.33,2.06c0.09,0.08,0.23,0.11,0.35,0.16c-0.75,0.63-1.53,1.23-2.34,1.77
			c-0.88-0.46-1.48-1.27-2.22-1.89c-1.13-0.96-2.14-2.06-3.24-3.06c-1.25-1.14-2.17-2.59-3.54-3.61c0.38-0.62,0.1-1.01-0.43-1.35
			c-0.27-0.18-0.49-0.44-0.71-0.7c-0.36-0.43-0.29-0.69,0.26-0.76c0.4-0.05,0.77-0.17,1.14-0.32
			C103.94,160.93,104.33,161.14,104.67,161.47z"/>
		<path class="st82" d="M183.15,228.34c-0.48,0.04-0.9-0.24-1.38-0.25c-0.93-0.47-1.63-1.21-2.36-1.93
			c-0.31-0.76-0.04-2.11,0.55-2.61c0.27-0.23,0.41-0.5,0.46-0.84c0.06-0.46,0.08-0.92,0.27-1.35c0.61-0.35,0.95-0.81,1.02-1.57
			c0.11-1.2,1.13-1.63,2.28-1.05c0.14,1.13-0.04,2.25-0.16,3.37c-0.06,0.57-0.14,1.15-0.22,1.72c0.1,1.3-0.14,2.59-0.14,3.89
			C183.47,227.98,183.42,228.23,183.15,228.34z"/>
		<path class="st83" d="M180.75,221.4c-0.06,0.55-0.08,1.1-0.18,1.63c-0.05,0.26-0.09,0.57-0.46,0.65
			c-0.26,0.05-0.38,0.26-0.43,0.53c-0.12,0.65-0.25,1.29-0.26,1.95c-1.65-1.5-3.29-2.99-4.94-4.49c0.04-0.33,0.29-0.27,0.51-0.28
			c0.71,0,1.42-0.02,2.13,0c1.65,0.06,1.62-0.3,1.88-1.68c0.07-0.37,0.17-0.68,0.48-0.81c0.87-0.37,0.97-1.11,1.01-1.9
			c0.01-0.19-0.06-0.41,0.13-0.56c0.2,0.19,0.2,0.44,0.18,0.68C180.68,218.56,180.8,219.98,180.75,221.4z"/>
		<path class="st84" d="M124.57,123.83c4.49-4.1,8.97-8.2,13.46-12.3c0.05-0.04,0.11-0.07,0.17-0.11c0.17-0.13,0.37-0.12,0.57-0.12
			c13.21,0.06,26.41,0.01,39.62,0.03c0.36,0,0.71-0.05,1.06-0.06c1.41,0.22,1.41,0.22,1.51,1.68c0.02,0.33,0.11,0.65,0.11,0.98
			c0.01,0.97-0.01,1.95,0.23,2.91c0.12,0.47,0.08,0.98-0.04,1.45c-0.17,0.63-0.19,1.27-0.18,1.91c0.04,0.35-0.22,0.52-0.44,0.69
			c-2.33,1.77-4.65,3.56-7,5.3c-0.22,0.16-0.44,0.31-0.73,0.16c-0.45-0.04-0.89-0.04-1.34-0.04c-13.92,0-27.85-0.01-41.77,0.01
			c-1.28,0-2.42-0.21-3.36-1.14C125.9,124.63,125.1,124.41,124.57,123.83z"/>
		<path class="st85" d="M179.55,111.42c-0.34,0.1-0.69,0.14-1.05,0.14c-13.04-0.01-26.09-0.01-39.13,0c-0.41,0-0.79-0.1-1.18-0.14
			c2.59-2.37,5.17-4.75,7.76-7.12c1.8-1.65,3.61-3.3,5.42-4.94c0.25-0.22,0.51-0.43,0.76-0.64c0.44-0.2,0.9-0.2,1.37-0.2
			c7.98,0,15.95,0,23.93,0c0.89,0,1.78,0.02,2.66-0.11c0.8,0.07,1.04,0.23,0.96,1.01c-0.13,1.35,0.55,2.58,0.45,3.92
			c-0.02,0.28,0.21,0.48,0.34,0.7c0.1,0.46,0.01,0.92,0,1.39c-0.01,0.23-0.08,0.45-0.28,0.58c-0.44,0.27-0.51,0.68-0.5,1.15
			c0.01,0.74,0.09,1.49-0.44,2.15c-0.23,0.29-0.08,0.73-0.1,1.11C180.5,111.18,180.32,111.36,179.55,111.42z"/>
		<path class="st86" d="M124.57,123.83c1,0.26,1.77,0.93,2.51,1.57c0.66,0.56,1.36,0.69,2.14,0.69c8.84,0.01,17.69,0,26.53,0
			c5.55,0,11.11,0,16.66,0.01c0.25,0,0.6-0.18,0.73,0.24c-0.14,0.44-0.53,0.64-0.86,0.89c-3.87,2.93-7.74,5.87-11.6,8.81
			c-0.28,0.21-0.55,0.46-0.95,0.4c-5.85,0.01-11.7,0-17.54,0c-1.54,0-2.99-0.24-4.18-1.38c-0.57-0.54-1.24-1.03-2.11-1.04
			c-0.19-0.01-0.37-0.07-0.53-0.16c-1.63-1.04-3.07-2.33-4.59-3.51c-1.58-1.22-3.2-2.39-4.76-3.62c-0.29-0.23-0.62-0.3-0.97-0.36
			c-0.81-0.15-1.45-0.57-1.83-1.33C123.67,124.64,124.12,124.23,124.57,123.83z"/>
		<path class="st87" d="M221.87,86.03c0.09,0.23,0.06,0.4-0.22,0.42c-0.18,0.02-0.36,0.01-0.53,0.01c-10.38,0-20.76,0-31.13,0
			c-0.23-0.2-0.22-0.47-0.22-0.73c0-1.41-0.03-2.81,0.01-4.22c0.01-1.22-0.02-2.43,0.01-3.65c0.05-1.62-0.42-3.05-1.46-4.29
			c-0.96-1.01-2.12-1.62-3.5-1.81c-0.87-0.18-1.7,0.03-2.53,0.24c-0.24,0.06-0.49,0.24-0.75,0.05c1.2-0.9,2.57-1.36,4.03-1.6
			c2.21-0.37,4.27,0.12,6.25,1.07c9.84,4.74,19.69,9.48,29.54,14.23C221.53,85.82,221.7,85.93,221.87,86.03z"/>
		<path class="st88" d="M180.22,98.6c-1.45,0.24-2.92,0.13-4.38,0.13c-7.59,0.01-15.18,0.01-22.78,0c-0.31,0-0.62-0.01-0.93-0.02
			c1.97-1.82,3.94-3.65,5.92-5.45c1.77-1.61,3.55-3.21,5.33-4.81c0.18-0.1,0.38-0.1,0.58-0.09c4.66,0.05,9.33,0.01,13.99,0.02
			c0.18,0,0.36-0.01,0.53-0.01c0.49-0.01,0.74-0.24,0.71-0.75c-0.01-0.11,0-0.22,0.01-0.33c0.04-0.88,0.29-1.07,1.18-0.96
			c0.45,0.22,0.43,0.64,0.41,1.03c-0.02,0.53,0.1,1,0.45,1.41c0.18,0.63,0.18,1.29,0.06,1.9c-0.32,1.59-0.25,3.2-0.36,4.81
			c-0.02,0.22-0.01,0.44-0.09,0.65c-0.4,0.46-0.51,1-0.47,1.59C180.42,98.03,180.44,98.34,180.22,98.6z"/>
		<path class="st89" d="M180.48,86.46c-1.07,0-1.07,0-1.07,1.04c0,1.07-0.02,1.1-1.13,1.1c-4.6,0-9.19,0-13.79,0
			c-0.38,0-0.75-0.03-1.11-0.14c1.64-1.52,3.28-3.04,4.93-4.55c2.8-2.56,5.61-5.11,8.42-7.66c0.08-0.07,0.17-0.13,0.26-0.2
			c0.23-0.14,0.47-0.11,0.7-0.02c0.44,0.18,0.89,0.25,1.37,0.25c0.57,0,0.87,0.33,0.91,0.86c0.05,0.68,0.28,1.29,0.61,1.88
			c0.35,0.61,0.16,1.36,0.42,2.01c0.09,1.48-0.11,2.96-0.07,4.44C180.95,85.84,180.98,86.28,180.48,86.46z"/>
		<path class="st90" d="M93.97,113.56c-0.26,0.16-0.56,0.12-0.84,0.12c-5.31,0-10.62,0.01-15.93,0.01c1.31-1.2,2.58-2.45,3.93-3.59
			c2.16-1.82,5.33-2.01,7.69-0.43C90.61,110.87,92.3,112.21,93.97,113.56z"/>
		<path class="st91" d="M118.58,129.31c0.67-0.66,1.34-1.32,2.08-1.89c0.33-0.17,0.55,0.08,0.77,0.24c0.5,0.36,0.98,0.76,1.56,1.01
			c0.73,0.5,1.42,1.06,2.14,1.58c0.55,0.41,1.05,0.88,1.79,0.97c0.24,0.03,0.43,0.22,0.62,0.37c1.71,1.34,3.48,2.61,5.18,3.95
			c0.2,0.16,0.45,0.3,0.49,0.6c0,0.11-0.03,0.2-0.12,0.27c-0.67,0.09-1.32-0.13-1.97-0.14c-1.37-0.01-2.45-0.58-3.45-1.46
			c-0.55-0.49-1.18-0.87-1.96-0.84c-0.85-0.26-1.45-0.91-2.15-1.41c-0.7-0.5-1.4-0.96-2.24-1.24
			C120.22,130.97,119.33,130.2,118.58,129.31z"/>
		<path class="st92" d="M118.58,129.31c0.61,0.46,1.22,0.93,1.84,1.39c0.41,0.3,0.85,0.51,1.36,0.62c0.95,0.22,1.59,0.99,2.37,1.52
			c0.49,0.33,0.92,0.75,1.47,1c1.1,0.58,2.07,1.36,2.99,2.18c1.11,0.99,2.29,1.88,3.53,2.68c0.91,0.59,1.75,1.28,2.61,1.94
			c0.14,0.11,0.28,0.22,0.23,0.44c-0.31,0.32-0.58,0.08-0.83-0.08c-0.45-0.28-0.91-0.58-1.28-0.95c-0.85-0.85-1.87-1.22-3.05-1.21
			c-0.71,0.01-1.28-0.31-1.82-0.72c-0.41-0.31-0.81-0.62-1.23-0.92c-0.6-0.42-1.2-0.86-1.99-0.84c-0.24,0-0.4-0.17-0.58-0.31
			c-0.81-0.62-1.62-1.25-2.46-1.82c-0.28-0.19-0.56-0.37-0.92-0.3c-0.11,0-0.23-0.01-0.32-0.08c-1.16-0.87-2.37-1.67-3.43-2.68
			c-0.05-0.12-0.1-0.25-0.15-0.37C117.49,130.3,118.03,129.8,118.58,129.31z"/>
		<path class="st93" d="M122.96,128.77c-0.63-0.12-1.06-0.59-1.56-0.94c-0.23-0.16-0.43-0.38-0.74-0.4
			c0.85-0.79,1.71-1.59,2.56-2.38c0.68,0.57,1.27,1.24,2.31,1.24c0.52,0,0.91,0.57,1.35,0.9c1.62,1.22,3.24,2.44,4.82,3.71
			c1.2,0.96,2.42,1.9,3.66,2.82c-0.86,0.33-1.65,0.09-2.38-0.35c-0.62-0.38-1.18-0.86-1.76-1.3c-0.51-0.39-1.08-0.65-1.73-0.56
			c-1.72,0.24-3.13-0.36-4.36-1.5C124.51,129.4,123.76,129.04,122.96,128.77z"/>
		<path class="st94" d="M180.88,80.98c-0.24-1.16-0.77-2.25-1.03-3.39c-0.25-1.09-0.14-1.13-1.27-1.14c-0.57,0-1.02-0.44-1.58-0.42
			c1.49-1.37,2.87-2.85,4.54-4c0.91-0.3,1.83-0.59,2.8-0.53c0.19,0.01,0.4-0.04,0.55,0.13c-0.14,0.17-0.35,0.2-0.54,0.19
			c-0.52-0.02-0.67,0.29-0.59,0.72c0.22,1.1-0.01,2.2-0.05,3.3c-0.03,0.82,0.2,1.62,0.07,2.44c-0.22,0.46-0.62,0.61-1.09,0.61
			c-0.24,0-0.49,0-0.73,0.02c-0.45,0.02-0.63,0.27-0.61,0.7c0.01,0.29,0.12,0.57,0.08,0.86C181.39,80.78,181.36,81.14,180.88,80.98z
			"/>
		<path class="st95" d="M229.87,103.81c0,4.94,0,9.88,0,14.82c-0.37,0.3-0.8,0.21-1.22,0.21c-7.78,0.01-15.57,0-23.35,0
			c-4.58,0-9.16,0-13.74,0c-0.24,0-0.49,0-0.73,0.01c-0.32,0.02-0.48,0.18-0.5,0.5c-0.01,0.24-0.01,0.49-0.01,0.73
			c-0.01,3.74,0.03,7.47-0.02,11.21c0.03,4.27,0.03,8.54,0,12.82c0.03,4.05,0.03,8.1,0,12.15c0.03,4.98,0.03,9.96,0,14.94
			c0.04,4.84,0.01,9.68,0.01,14.52c0,0.16-0.01,0.31-0.05,0.46c-0.04,0.13-0.11,0.24-0.25,0.29c-0.17-0.01-0.22-0.12-0.23-0.27
			c-0.04-0.4-0.03-0.8-0.03-1.2c0-23.26,0-46.52,0-69.77c0-0.51,0-1.02,0.02-1.53c-0.03-3.05-0.01-6.1-0.01-9.15
			c0-0.26,0-0.54,0.23-0.74C203.27,103.81,216.57,103.81,229.87,103.81z"/>
		<path class="st96" d="M189.95,81.38c0.01,1.69,0.02,3.38,0.03,5.07c-0.01,1.65-0.02,3.3-0.03,4.94c-0.24,0.51-0.09,1.05-0.11,1.58
			c-0.01,0.35-0.05,0.66-0.34,0.89c-0.28,0.22-0.27,0.54-0.28,0.85c-0.03,1.34-0.03,1.34-1.26,1.75c-0.19,0.06-0.35,0.21-0.57,0.15
			c-0.39-0.28-0.55-0.66-0.54-1.14c0.01-0.53-0.02-1.05,0.02-1.58c0.09-1.79,0.32-3.57,0.17-5.37c0.08-0.35,0.09-0.71,0.07-1.06
			c-0.04-0.61,0.07-1.14,0.63-1.51c0.32-0.21,0.3-0.58,0.29-0.91c-0.02-0.54,0.04-1.02,0.62-1.28c0.31-0.14,0.31-0.46,0.32-0.75
			c0.01-0.35-0.05-0.72,0.09-1.06C189.21,81.58,189.37,81.14,189.95,81.38z"/>
		<path class="st97" d="M189.98,103.81c-0.01,3.29-0.01,6.58-0.02,9.87c-0.66,0.83-1.58,1.34-2.41,1.96
			c-0.19,0.14-0.42,0.16-0.58-0.08c-0.18-0.33-0.13-0.69-0.15-1.04c-0.1-2.61,0.45-5.19,0.3-7.8c0.02-0.32,0.18-0.55,0.47-0.66
			c0.46-0.19,0.61-0.55,0.58-1.01c-0.03-0.52,0.08-0.96,0.54-1.28c0.37-0.26,0.41-0.66,0.4-1.07c-0.01-0.38-0.01-0.76,0.18-1.1
			c0.14-0.25,0.29-0.53,0.66-0.31C189.96,102.12,189.97,102.96,189.98,103.81z"/>
		<path class="st98" d="M189.95,101.27c-0.59,0.08-0.64,0.55-0.64,0.98c0,0.77,0.04,1.49-0.8,1.93c-0.29,0.15-0.14,0.58-0.14,0.88
			c0.02,0.59-0.07,1.07-0.78,1.17c-0.21,0.03-0.29,0.19-0.3,0.38c-0.27,0.01-0.31-0.18-0.33-0.39c0.18-0.85,0.18-1.69-0.04-2.55
			c-0.21-0.79-0.07-1.62-0.09-2.43c0.03-0.98-0.17-1.98,0.32-2.92c0.15-0.29,0.06-0.65,0.07-0.98c0.01-0.26-0.01-0.53,0.2-0.74
			c0.23-0.26,0.49-0.41,0.86-0.41c0.53,0,0.81-0.27,0.75-0.84c-0.03-0.28,0-0.57-0.01-0.86c-0.01-0.33-0.03-0.63,0.39-0.79
			c0.34-0.13,0.24-0.51,0.29-0.81c0.07-0.5-0.25-1.06,0.25-1.49C189.95,94.69,189.95,97.98,189.95,101.27z"/>
		<path class="st99" d="M95.76,150.12c0.05-0.34-0.26-0.45-0.44-0.61c-3.7-3.4-7.42-6.78-11.12-10.17
			c-0.13-0.12-0.25-0.25-0.37-0.38c-0.01-0.37,0.3-0.4,0.54-0.47c0.3-0.08,0.62-0.06,0.93-0.06c13.58,0,27.15,0,40.73,0
			c0.18,0,0.36,0.01,0.53,0.02c0.38-0.07,0.68,0.1,0.96,0.33c0.88,0.7,1.79,1.36,2.7,2.04c3.09,2.4,6.24,4.72,9.34,7.11
			c0.88,0.68,1.66,1.48,2.7,1.94c0.19,0.19,0.39,0.35,0.58,0.54c0.18,0.18,0.33,0.38,0.05,0.61c-0.43,0.19-0.88,0.12-1.32,0.12
			c-14.17,0-28.33,0-42.5,0c-0.53,0-1.07-0.01-1.59,0.12C96.65,151.27,96.23,150.66,95.76,150.12z"/>
		<path class="st100" d="M126.83,138.52c-0.25,0.23-0.55,0.12-0.83,0.12c-13.64,0.01-27.29,0-40.93,0.01
			c-0.44,0-0.89-0.05-1.24,0.31c-1.14-1.01-2.29-2.01-3.42-3.02c-1.52-1.37-3.03-2.76-4.55-4.14c-0.06-0.06-0.1-0.14-0.15-0.21
			c0.02-0.18,0.13-0.27,0.31-0.27c0.2,0,0.4,0,0.6,0c13.22,0,26.44,0,39.65-0.01c0.27,0,0.58,0.11,0.82-0.14
			c1.15,0.65,2.11,1.56,3.18,2.32c0.18,0.13,0.37,0.24,0.55,0.36c0.87,0.35,1.55,1,2.26,1.58c1.06,0.86,2.16,1.68,3.24,2.51
			C126.53,138.09,126.78,138.22,126.83,138.52z"/>
		<path class="st101" d="M98.93,163.87c0.18,0.56,0.66,0.85,1.08,1.2c0.44,0.37,0.93,0.7,0.93,1.36c0,0.25,0.19,0.4,0.36,0.53
			c0.98,0.73,1.71,1.71,2.55,2.58c0.48,0.49,1.12,0.8,1.48,1.4c-1.02,0.13-2.05,0.38-3.07,0.38c-9.53,0.03-19.06,0.02-28.59,0.03
			c-0.36,0-0.69-0.14-1.05-0.14c2.75-2.5,5.49-4.99,8.24-7.49c0.37-0.19,0.77-0.19,1.17-0.19c4.05,0,8.1,0,12.15,0
			c0.33,0,0.67,0.01,1-0.06c0.32-0.07,0.36-0.23,0.12-0.45c-0.37-0.32-0.77-0.61-1.07-1c-0.34-0.44-0.29-0.61,0.24-0.91
			c0.59-0.03,0.88,0.46,1.27,0.75c0.37,0.28,0.66,0.66,1.01,0.96c0.47,0.39,0.96,0.71,1.6,0.75
			C98.58,163.6,98.8,163.66,98.93,163.87z"/>
		<path class="st102" d="M94.66,161.2c-0.67,0.3-0.68,0.32-0.18,0.82c0.41,0.4,0.86,0.76,1.28,1.16c0.24,0.22,0.31,0.38-0.13,0.44
			c-0.39,0.05-0.78,0.13-1.18,0.13c-4.52-0.01-9.05-0.01-13.57-0.02c1.93-1.77,3.85-3.55,5.78-5.32c0.88-0.81,1.78-1.6,2.67-2.4
			c1.05,0.71,1.93,1.61,2.82,2.5c0.67,0.67,1.3,1.38,2.05,1.97C94.41,160.65,94.72,160.82,94.66,161.2z"/>
		<path class="st103" d="M94.66,161.2c-1.73-1.54-3.21-3.35-5.05-4.79c-0.15-0.12-0.28-0.21-0.29-0.41
			c0.94-0.93,1.92-1.82,2.93-2.68c0.26,1.08,1.32,1.49,1.92,2.28c0.91,1.19,2.19,2.01,3.09,3.19c0.52,0.68,1.28,1.1,1.83,1.74
			c0.16,0.19,0.45,0.32,0.36,0.65c0.27,0.61,0.8,0.99,1.26,1.43c0.09,0.09,0.24,0.14,0.32,0.23c0.18,0.21,0.57,0.35,0.48,0.66
			c-0.12,0.38-0.53,0.21-0.82,0.21c-0.59,0.02-1.19-0.01-1.77,0.14c-1.36-0.07-2.33-0.83-3.2-1.79
			C95.42,161.75,95.02,161.49,94.66,161.2z"/>
		<path class="st104" d="M99.46,161.2c-0.42-0.52-0.88-0.99-1.42-1.39c-0.52-0.38-0.84-0.98-1.32-1.39
			c-1.47-1.27-2.61-2.88-4.17-4.06c-0.37-0.28-0.3-0.66-0.3-1.03c0.58-0.53,1.16-1.06,1.74-1.59c0.67,0.7,1.41,1.33,2.1,2.01
			c1.47,1.47,2.94,2.94,4.49,4.33c0.94,0.84,1.89,1.67,2.78,2.57c0.08,0.08,0.16,0.16,0.11,0.29c-0.24,0.36-0.62,0.37-1,0.4
			c-0.17,0.01-0.4-0.06-0.48,0.13c-0.11,0.24,0.16,0.33,0.29,0.46c0.25,0.28,0.51,0.56,0.81,0.79c0.79,0.63,0.79,0.62,0.12,1.28
			c-1.25-0.44-2.09-1.41-3.01-2.27C99.97,161.53,99.82,161.22,99.46,161.2z"/>
		<path class="st105" d="M103.47,160.94c-1.13-1.02-2.28-2.02-3.39-3.07c-1.29-1.21-2.58-2.42-3.8-3.69
			c-0.61-0.63-1.23-1.26-1.88-1.86c-0.17-0.16-0.4-0.3-0.4-0.58c0.59-0.54,1.17-1.08,1.76-1.62c0.56,0.25,0.92,0.77,1.43,1.07
			c0.55,0.23,0.91,0.71,1.33,1.09c1.16,1.04,2.31,2.08,3.45,3.14c0.2,0.19,0.49,0.34,0.43,0.7c-0.34,0.25-0.3,0.49,0,0.75
			c0.41,0.36,0.76,0.8,1.23,1.11c0.35,0.24,0.69,0.55,0.22,1c-0.24,0.22-0.17,0.41,0.06,0.6c0.22,0.19,0.38,0.46,0.62,0.6
			c0.66,0.38,0.65,0.8,0.14,1.29C104.23,161.39,103.87,161.1,103.47,160.94z"/>
		<path class="st106" d="M190.1,186.3c0-5.03,0-10.05,0-15.08c0.36-0.3,0.8-0.22,1.22-0.22c7.24-0.01,14.49,0,21.73,0
			c5.22,0,10.45,0,15.67,0c0.39,0,0.81-0.07,1.15,0.22c0,5.03,0,10.06,0,15.08c-0.36,0.3-0.8,0.22-1.22,0.22
			c-7.2,0.01-14.4,0-21.61,0c-5.27,0-10.54,0-15.8,0C190.85,186.51,190.43,186.6,190.1,186.3z"/>
		<path class="st107" d="M190.1,186.3c13.26,0,26.52,0,39.77,0c0,4.76-0.01,9.52,0.01,14.28c0,0.52-0.13,0.68-0.67,0.68
			c-13.08-0.02-26.16-0.01-39.24-0.02c-0.03-0.03-0.06-0.06-0.09-0.09c-0.16-0.29-0.13-0.6-0.13-0.91c0-4.33-0.02-8.66,0.02-12.99
			c0-0.28-0.04-0.58,0.19-0.82C190,186.39,190.05,186.34,190.1,186.3z"/>
		<path class="st108" d="M229.87,171.21c-13.26,0-26.51,0-39.77,0c0-4.98,0-9.97,0-14.95c0.36-0.3,0.8-0.22,1.22-0.22
			c7.2-0.01,14.4,0,21.6,0c5.27,0,10.53,0,15.8,0c0.39,0,0.81-0.07,1.15,0.22C229.87,161.25,229.87,166.23,229.87,171.21z"/>
		<path class="st109" d="M190.1,144.12c0-4.27,0-8.54,0-12.81c0.36-0.3,0.8-0.22,1.22-0.22c7.09-0.01,14.18,0,21.27,0
			c5.38,0,10.76,0,16.13,0c0.39,0,0.81-0.07,1.15,0.22c0,0.85,0,1.69,0,2.54c0,3.43,0,6.85,0,10.28c-0.36,0.3-0.8,0.22-1.22,0.22
			c-7.24,0.01-14.49,0-21.73,0c-5.22,0-10.45,0-15.67,0C190.86,144.33,190.44,144.41,190.1,144.12z"/>
		<ellipse class="st110" cx="209.98" cy="150.19" rx="28.12" ry="8.59"/>
		<path class="st111" d="M189.97,201.24c-0.01,3.3-0.02,6.59-0.02,9.89c-0.56,0.49-0.45,1.15-0.48,1.78
			c-0.02,0.34,0.12,0.79-0.42,0.9c-0.29-0.25-0.22-0.6-0.23-0.92c-0.02-0.59,0.01-1.19,0-1.78c-0.02-2.36,0-4.72,0.02-7.08
			c0-0.17,0-0.34,0.04-0.5c0.17-0.51,0.04-1.05,0.13-1.58c0.11-0.67,0.37-0.86,0.94-0.7L189.97,201.24z"/>
		<path class="st112" d="M189.16,213.79c0.26-0.54,0.14-1.12,0.12-1.68c-0.02-0.54,0.13-0.88,0.67-0.99
			c0.01,0.89,0.01,1.78,0.02,2.66c-0.01,2.98-0.01,5.97-0.02,8.95c-0.15,0.25,0.03,0.55-0.12,0.8c0,0.09-0.01,0.17-0.01,0.26
			c-0.48-0.04-0.42-0.43-0.45-0.74c-0.16-1.44-0.24-2.89-0.33-4.34c-0.15-1.44-0.06-2.88-0.07-4.31
			C188.96,214.19,188.98,213.96,189.16,213.79z"/>
		<path class="st113" d="M229.87,131.3c-13.26,0-26.51,0-39.77,0c0-3.98,0.01-7.95-0.02-11.93c-0.01-0.64,0.21-0.76,0.79-0.76
			c13,0.01,26,0.01,38.99,0.01C229.87,122.85,229.87,127.08,229.87,131.3z"/>
		<path class="st114" d="M142.99,150.76c2.14,1.61,4.3,3.21,6.43,4.83c4,3.02,7.98,6.06,11.97,9.09c0.5,0.38,0.99,0.78,1.48,1.17
			c-0.25,0.28-0.59,0.15-0.88,0.15c-15.73,0.01-31.47,0.01-47.2,0.01c-0.37,0-0.77-0.08-1.05,0.27c-0.86-0.53-1.51-1.3-2.26-1.96
			c-2.35-2.1-4.62-4.28-6.97-6.37c-0.69-0.62-1.29-1.36-2.11-1.82c-1.27-1.39-2.76-2.56-4.13-3.85c-0.37-0.35-0.77-0.67-1.08-1.08
			c0.37-0.24,0.78-0.28,1.21-0.28c14.57,0.01,29.14,0.01,43.71,0C142.41,150.92,142.74,151.05,142.99,150.76z"/>
		<path class="st115" d="M181.71,180.15c1.02,0.69,1.98,1.43,2.93,2.21c0.24,0.42,0.26,0.86,0.03,1.27
			c-0.2,0.35-0.24,0.71-0.24,1.09c0,1.78,0,3.55,0,5.33c0,0.33,0.03,0.67-0.11,0.98c-0.35,0.4-0.83,0.37-1.29,0.39
			c-1.26,0.05-1.26,0.05-1.28,1.28c0,0.18,0,0.36-0.04,0.53c-0.11,0.42-0.35,0.66-0.82,0.54c0-2.13,0.01-4.26,0-6.39
			c0-0.95,0.22-1.89,0.14-2.85c-0.02-0.26,0.01-0.53-0.14-0.77c0-0.55,0-1.11,0-1.66c0-0.37-0.06-0.76,0.39-0.97
			c0.17-0.08,0.14-0.31,0.14-0.48C181.42,180.42,181.39,180.18,181.71,180.15z"/>
		<path class="st116" d="M180.88,193.77c0.55-0.11,0.69-0.45,0.68-0.99c-0.03-1.52-0.01-1.51,1.55-1.55
			c0.37-0.01,0.74-0.08,1.1-0.13c0.27,0.29,0.2,0.66,0.21,1.01c0.01,0.6,0.02,1.19-0.01,1.79c-0.02,1.53,0.12,3.05-0.08,4.57
			c-0.19,0.33-0.53,0.36-0.86,0.4c-1.27,0.16-1.27,0.16-1.35,1.4c-0.04,0.62-0.37,1.1-0.88,1.28c-0.13,0.04-0.26,0.05-0.37-0.04
			c0-1.78,0-3.56,0-5.34C180.88,195.37,180.88,194.57,180.88,193.77z"/>
		<path class="st83" d="M180.75,215.39c0.11-2.22,0.16-4.45,0.13-6.67c0-0.13,0-0.27,0-0.4c0.24-0.41,0.11-0.86,0.13-1.29
			c0.01-0.34,0.08-0.66,0.42-0.75c0.82-0.21,1.64-0.52,2.52-0.39c0.13,0.02,0.25,0.07,0.34,0.18c0.28,0.87,0.09,1.76,0.13,2.64
			c-0.02,0.91,0.11,1.83-0.09,2.74c-0.39,0.31-0.31,0.75-0.32,1.16c-0.02,0.88-0.1,0.98-0.96,1.12c-0.24,0.04-0.47,0.15-0.71,0.17
			c-0.79,0.06-1.39,0.3-1.33,1.26C181.02,215.28,180.93,215.41,180.75,215.39z"/>
		<path class="st117" d="M184.22,206.05c-0.87-0.14-1.68,0.23-2.53,0.3c-0.4,0.03-0.54,0.34-0.55,0.76
			c-0.01,0.41,0.23,0.9-0.25,1.21c0-2.27,0-4.54,0-6.81c0.86-0.29,1.07-0.56,1.07-1.43c0-1.23,0.1-1.33,1.35-1.38
			c0.31-0.01,0.61-0.08,0.92-0.13c0.21,0.21,0.21,0.48,0.21,0.74c0,1.44,0.03,2.87-0.01,4.31c0.03,0.59,0.02,1.17,0.01,1.76
			C184.42,205.62,184.42,205.87,184.22,206.05z"/>
		<path class="st118" d="M183.15,228.34c0.04-0.17,0.13-0.34,0.13-0.51c-0.05-1.35,0.24-2.68,0.14-4.03
			c0.21-0.19,0.48-0.22,0.74-0.28c0.81-0.18,0.9-0.28,0.94-1.11c0.05-1,0.86-1.59,1.86-1.34c0.07,0.02,0.1,0.08,0.14,0.14
			c0.01,1.99,0.02,3.98-0.02,5.98c0,0.18-0.08,0.34-0.19,0.49c-0.6,0.42-1.26,0.65-2,0.66
			C184.32,228.44,183.73,228.45,183.15,228.34C183.15,228.34,183.15,228.34,183.15,228.34z"/>
		<path class="st119" d="M186.89,227.68c0-1.84,0.01-3.67-0.01-5.51c0-0.36,0.14-0.69,0.14-1.04c0.01-0.04,0.03-0.07,0.04-0.11
			c0.25-0.28,0.16-0.63,0.17-0.96c0.02-1.3,0.63-1.73,1.93-1.34c0.3,0.75,0.13,1.56,0.23,2.34c0.09,0.73,0.22,1.48,0.17,2.24
			c-0.01,0.22,0.05,0.39,0.26,0.49C189.45,225.55,188.53,226.89,186.89,227.68z"/>
		<path class="st82" d="M183.15,228.34c0.58,0,1.16,0,1.74,0C184.32,228.56,183.73,228.56,183.15,228.34z"/>
		<path class="st119" d="M189.83,223.54c0.04-0.27-0.11-0.56,0.12-0.8C189.93,223.01,190.05,223.3,189.83,223.54z"/>
		<path class="st120" d="M180.75,215.39c0.23-0.22,0.15-0.51,0.12-0.75c-0.06-0.49,0.22-0.77,0.61-0.78
			c0.62-0.03,1.17-0.38,1.8-0.34c0.4,0.03,0.56-0.17,0.54-0.56c-0.01-0.33,0.01-0.66,0-0.99c-0.01-0.29,0.07-0.48,0.4-0.45
			c0.27,0.3,0.24,0.67,0.19,1.01c-0.18,1.28-0.09,2.57-0.11,3.86c-0.02,0.75-0.07,1.5-0.25,2.24c-0.03,0.03-0.06,0.06-0.09,0.09
			c-0.07,0-0.13,0-0.2,0c-2.19,0-1.69,0.1-1.93,1.77c-0.09,0.66-0.61,0.73-1.07,0.9c-0.33-0.37-0.33-0.82-0.22-1.25
			c0.06-0.24,0.13-0.49,0.08-0.72c-0.22-0.99,0.02-1.98,0.01-2.97C180.55,216.09,180.74,215.75,180.75,215.39z"/>
		<path class="st121" d="M187.02,221.13c-0.47,0.01-0.86,0.31-1.35,0.31c-0.31,0-0.41,0.28-0.39,0.58c0.09,1.65-0.07,1.57-1.87,1.78
			c0.18-1.69,0.36-3.38,0.53-5.07h0c0.59-0.31,0.72-0.86,0.73-1.46c0.01-0.5,0.07-0.96,0.38-1.38c0.24-0.32,0.15-0.73,0.17-1.1
			c0.03-0.8,0.12-0.95,0.9-1.16c0.39-0.11,0.55-0.33,0.56-0.71c0.01-0.29-0.03-0.58,0.06-0.86c0.05-0.15,0.09-0.37,0.34-0.2
			c0.26,0.69,0.07,1.41,0.13,2.11c0.02,2.14,0.01,4.28-0.01,6.42C187.22,220.65,187.22,220.92,187.02,221.13z"/>
		<path class="st122" d="M179.55,111.42c0.68-0.16,0.88-0.59,0.81-1.26c-0.05-0.51-0.07-0.99,0.4-1.44
			c0.34-0.32,0.09-0.93,0.12-1.41c0.04-0.57-0.18-1.22,0.65-1.46c0.21-0.06,0.14-0.34,0.16-0.54c0.03-0.41-0.09-0.84,0.13-1.24
			c0.33-0.65,0.56-1.32,0.52-2.07c-0.01-0.18,0.08-0.4,0.26-0.42c0.53-0.05,1.02-0.37,1.58-0.28c0.34,0.42,0.23,0.93,0.24,1.4
			c0.02,0.46,0.01,0.93-0.01,1.39c0.05,1.99,0.22,3.98,0.15,5.97c-0.01,0.33,0.02,0.67-0.08,0.99c-0.39,0.44-0.49,0.95-0.48,1.53
			c0.01,0.88-0.22,1.1-1.1,1.15c-0.43,0.02-0.83,0.12-1.25,0.22c-0.25,0.06-0.51,0.18-0.77,0c-0.08-0.6-0.18-1.2-0.13-1.82
			c0.03-0.41-0.14-0.62-0.57-0.59C179.96,111.57,179.75,111.53,179.55,111.42z"/>
		<path class="st123" d="M180.88,113.95c0.77-0.17,1.51-0.46,2.32-0.41c0.4,0.03,0.6-0.22,0.61-0.62c0.01-0.31,0.03-0.62,0-0.92
			c-0.05-0.44,0.12-0.72,0.54-0.85c0.14,0.12,0.16,0.29,0.19,0.45c0,1.87,0.2,3.73,0.03,5.6c-0.02,0.18-0.03,0.35-0.07,0.52
			c-1.12,0.93-2.29,1.8-3.48,2.64c-0.27-0.53-0.19-1.08-0.06-1.61c0.24-0.9,0.24-1.78-0.01-2.68
			C180.77,115.38,180.92,114.66,180.88,113.95z"/>
		<path class="st124" d="M184.09,101.27c-0.31,0.21-0.6,0.46-1.02,0.4c-0.47-0.07-0.64,0.15-0.59,0.6c0.08,0.71-0.03,1.36-0.66,1.8
			c-0.41-0.06-0.56-0.33-0.53-0.71c0.12-1.47-0.66-2.84-0.42-4.33c0.07-0.45-0.33-0.44-0.65-0.44c0-0.51,0.01-1.01,0-1.52
			c-0.01-0.42,0.12-0.73,0.54-0.88c0.24-0.39,0.34-0.81,0.35-1.26c0.02-0.85,0.28-1.13,1.12-1.28c0.2-0.04,0.4-0.04,0.6-0.04
			c0.92-0.03,1.04-0.15,1.08-1.1c0.01-0.31-0.04-0.63,0.14-0.9c0.07-0.11,0.17-0.13,0.26,0c0.08,0.14,0.12,0.29,0.11,0.44
			c-0.05,2.01,0.13,4.01,0.14,6.02c0,0.24-0.04,0.48-0.11,0.72c-0.03,0.6,0,1.2-0.03,1.8C184.4,100.84,184.49,101.18,184.09,101.27z
			"/>
		<path class="st125" d="M159.92,136.35c-1.16,0.96-2.41,1.81-3.59,2.75c-2.21,1.76-4.48,3.44-6.73,5.15
			c-0.07,0.05-0.15,0.09-0.22,0.13c-1.11-0.67-2.09-1.5-3.11-2.28c-0.53-0.41-1.07-0.77-1.71-1.01c-0.89-0.33-1.54-1.04-2.3-1.58
			c-0.46-0.63-1.03-1.16-1.67-1.61c-1.54-1.09-2.91-2.4-4.46-3.48c-0.19-0.13-0.44-0.25-0.36-0.57c0.83-0.12,1.44,0.35,2.05,0.79
			c0.45,0.32,0.88,0.67,1.31,1.01c0.86,0.67,1.91,0.56,2.87,0.57c5.71,0.05,11.43,0.02,17.15,0.03
			C159.41,136.25,159.69,136.16,159.92,136.35z"/>
		<path class="st126" d="M135.77,133.84c0.74,0.79,1.72,1.29,2.52,2c1.05,0.94,2.2,1.74,3.3,2.62c0.3,0.24,0.63,0.55,0.72,0.99
			c-0.4,0.07-0.71-0.2-1.07-0.28c-1.1-0.23-2.19-0.56-3.33-0.48c-0.46,0.03-0.86-0.12-1.23-0.4c-0.49-0.38-0.98-0.75-1.48-1.12
			c-0.49-0.35-1-0.66-1.61-0.75c-0.21-0.03-0.38-0.11-0.48-0.3c-1.28-1.18-2.76-2.11-4.12-3.19c-0.4-0.32-0.76-0.69-1.21-0.92
			c-1.63-0.85-3.18-1.82-4.6-2.99c-0.08-0.07-0.15-0.16-0.22-0.24c0.74-0.05,1.31,0.3,1.86,0.73c0.57,0.45,1.14,0.91,1.74,1.31
			c0.42,0.28,0.86,0.58,1.41,0.49c1.84-0.28,3.37,0.33,4.68,1.61c0.75,0.74,1.74,0.78,2.71,0.79
			C135.5,133.75,135.64,133.8,135.77,133.84z"/>
		<path class="st127" d="M183.69,78.31c-0.17-1.07-0.19-2.14-0.13-3.21c0.05-0.92,0.19-1.83,0-2.75c-0.1-0.52,0.1-0.79,0.68-0.71
			c0.22,0.03,0.44,0,0.66,0c1.39,0.1,2.51,0.75,3.45,1.74c-0.14,0.51-0.24,1.03-0.21,1.56c0.04,0.59-0.01,1.14-0.57,1.53
			c-0.24,0.16-0.22,0.47-0.23,0.73c-0.01,0.33,0.02,0.66-0.04,0.99c-0.03,0.15-0.06,0.33-0.17,0.43c-0.48,0.45-0.47,1.01-0.47,1.6
			c0,0.86-0.1,0.97-0.96,1.14c-0.93,0.18-0.93,0.18-0.91,1.16c0.01,0.24,0.03,0.49-0.04,0.73c-0.06,0.23-0.1,0.51-0.47,0.39
			c-0.16-0.23-0.15-0.5-0.15-0.76c0.02-0.64-0.14-1.22-0.36-1.84C183.48,80.17,183.49,79.23,183.69,78.31z"/>
		<path class="st128" d="M187.16,78.18c0-0.38,0.01-0.75,0-1.13c-0.02-0.4,0.04-0.74,0.49-0.9c0.3-0.1,0.31-0.4,0.31-0.67
			c0-0.46-0.01-0.93,0.01-1.39c0.01-0.3,0.11-0.56,0.39-0.72c1.02,0.99,1.52,2.23,1.59,3.61c0.07,1.46,0.01,2.93,0.01,4.39
			c-0.59,0.01-0.74,0.42-0.78,0.89c-0.03,0.35-0.02,0.71,0,1.07c0.02,0.34-0.11,0.58-0.43,0.65c-0.46,0.1-0.53,0.39-0.51,0.79
			c0.03,0.64,0.12,1.3-0.7,1.61c-0.25,0.09-0.22,0.45-0.24,0.72c-0.04,0.45,0.15,0.93-0.13,1.36c-0.09,0.04-0.16,0.02-0.21-0.06
			c-0.17-0.33-0.15-0.7-0.12-1.04c0.15-1.59,0.05-3.17,0.02-4.76C186.82,81.12,187.18,79.66,187.16,78.18z"/>
		<path class="st129" d="M183.69,78.31c0.17,0.76,0.13,1.53,0.14,2.3c0,0.09-0.01,0.21,0.04,0.26c0.8,0.82,0.4,1.84,0.49,2.78
			c-0.12,0.8,0.03,1.62-0.19,2.41c-0.34,0.44-0.84,0.45-1.33,0.45c-0.49,0-0.69,0.18-0.6,0.68c0.06,0.3,0.05,0.62,0.02,0.93
			c-0.07,0.67-0.43,0.86-1.11,0.61c-0.48-0.09-0.51-0.47-0.54-0.85c-0.04-0.47,0.11-0.97-0.13-1.42c0.49-0.66,0.24-1.41,0.23-2.12
			c0-0.26-0.08-0.51,0.07-0.75c0.18-0.31,0.17-0.67,0.08-0.97c-0.15-0.56-0.09-1.09,0.02-1.63c0.46-0.05,0.41-0.39,0.39-0.7
			c-0.02-0.22-0.1-0.43-0.12-0.65c-0.04-0.74,0.12-0.91,0.86-0.92C182.6,78.7,183.23,78.84,183.69,78.31z"/>
		<path class="st130" d="M181.15,88.72c0.98-0.02,1.07-0.17,0.93-1.46c-0.1-0.94-0.1-0.95,0.86-0.94c0.41,0,0.78-0.11,1.14-0.27
			c0.45,0.01,0.43,0.38,0.47,0.66c0.18,1.33,0.29,2.67,0.24,4.02c-0.03,0.38-0.22,0.65-0.58,0.79c-0.27,0.38-0.1,0.81-0.13,1.22
			c-0.05,0.68-0.21,1.18-1.06,1.05c-0.2-0.03-0.4-0.02-0.6,0c-0.91,0.07-1.16,0.32-1.14,1.23c0.01,0.5-0.04,0.93-0.54,1.17
			c0.04-1.53-0.04-3.08,0.18-4.58C181.07,90.65,181.13,89.69,181.15,88.72z"/>
		<path class="st131" d="M133.1,136.11c1.49,0.16,2.53,1.17,3.65,2.01c0.38,0.29,0.76,0.43,1.22,0.4c1.26-0.09,2.44,0.28,3.64,0.59
			c0.25,0.07,0.47,0.23,0.71,0.34c0.38,0.05,0.6,0.36,0.88,0.57c0.61,0.44,1.21,0.86,1.93,1.13c0.92,0.34,1.58,1.12,2.36,1.7
			c0.65,0.48,1.39,0.87,1.9,1.54c-0.87,0.69-1.72,1.41-2.67,1.99c-0.19-0.02-0.37-0.07-0.51-0.21c-1.23-1.05-2.58-1.95-3.87-2.92
			c-1.63-1.22-3.25-2.46-4.87-3.71c-0.61-0.47-1.35-0.65-1.95-1.11c-0.69-0.52-1.36-1.07-2.06-1.58c-0.16-0.12-0.32-0.24-0.35-0.46
			C133.1,136.29,133.1,136.2,133.1,136.11z"/>
		<path class="st132" d="M133.1,136.38c1,0.76,1.92,1.7,3.04,2.23c1.42,0.67,2.54,1.72,3.78,2.6c2.03,1.44,4.01,2.97,6,4.47
			c0.15,0.12,0.26,0.29,0.4,0.44c-0.3,0.23-0.55,0.04-0.79-0.1c-0.57-0.34-1.11-0.74-1.61-1.17c-0.58-0.5-1.23-0.86-2.01-0.96
			c-0.56-0.08-1.05-0.34-1.51-0.66c-0.25-0.18-0.52-0.35-0.75-0.56c-1.09-0.99-2.32-1.53-3.82-1.31c-0.22,0.03-0.44,0.01-0.66-0.07
			c-0.1-0.05-0.17-0.12-0.2-0.24c-1.01-0.84-2.05-1.65-3.17-2.35c-0.86-0.54-1.71-1.12-2.44-1.81c-1.17-1.11-2.53-1.98-3.74-3.04
			c0.97-0.16,1.71,0.37,2.29,0.98c1.18,1.24,2.72,1.2,4.2,1.41C132.45,136.28,132.78,136.29,133.1,136.38z"/>
		<path class="st133" d="M134.97,141.05c0.04,0.04,0.09,0.09,0.13,0.13c1.03,0.57,1.8,1.53,2.84,2.06c1.26,0.64,2.28,1.6,3.41,2.4
			c0.21,0.15,0.54,0.28,0.39,0.66c-0.6,0.17-1.13-0.05-1.64-0.31c-0.42-0.21-0.79-0.5-1.14-0.8c-0.89-0.79-1.89-1.3-3.11-1.28
			c-0.45,0.01-0.8-0.2-1.13-0.48c-0.48-0.39-0.99-0.75-1.48-1.12c-0.65-0.5-1.26-1.04-2.16-1.04c-0.33,0-0.59-0.29-0.92-0.35
			c-0.96-0.6-1.83-1.32-2.72-2.01c-0.2-0.15-0.38-0.3-0.61-0.39c-1.95-1.49-3.9-2.98-5.84-4.47c-0.07-0.05-0.11-0.13-0.17-0.2
			c0.28-0.29,0.54-0.09,0.77,0.06c0.48,0.31,0.94,0.66,1.41,0.99c0.79,0.53,1.42,1.27,2.49,1.41c0.94,0.13,1.68,0.88,2.38,1.51
			c0.83,0.74,1.8,0.94,2.81,0.94c0.69,0,1.17,0.26,1.66,0.67c0.61,0.51,1.25,0.99,1.89,1.45
			C134.44,141.01,134.67,141.21,134.97,141.05z"/>
		<path class="st134" d="M189.95,201.25c-0.73-0.09-0.71,0.47-0.79,0.93c-0.07,0.44,0.14,0.91-0.14,1.33
			c-0.21-0.21-0.21-0.48-0.21-0.74c0-2.23-0.03-4.45,0.01-6.68c-0.02-1.31-0.14-2.64,0.03-3.93c0.16-1.21,0.11-2.44,0.42-3.62
			c0.13-0.48,0.03-0.98,0.08-1.46c0.03-0.32,0-0.69,0.45-0.78c0,0,0.02-0.01,0.02-0.01c0.04,0.05,0.08,0.1,0.11,0.14
			C189.95,191.37,189.95,196.31,189.95,201.25z"/>
		<path class="st135" d="M184.22,91.53c-0.01-0.31,0.45-0.34,0.4-0.67c0.15-0.47,0.07-0.96,0.06-1.43c-0.01-0.49,0.2-0.76,0.65-0.82
			c0.56-0.07,1.12-0.17,1.69-0.15c0.04,0,0.09,0,0.13,0c0.21,0.94,0.19,1.89,0.05,2.84c-0.09,0.6-0.02,1.2-0.05,1.79
			c-0.01,0.29,0.03,0.58-0.14,0.84c-0.26,0.43-0.11,0.9-0.13,1.36c-0.04,0.76-0.2,0.98-0.95,1.09c-0.8,0.13-0.85,0.19-0.87,1.02
			c-0.01,0.29,0.03,0.58-0.06,0.86c-0.12,0.38-0.3,0.72-0.8,0.47c0.28-0.73,0.19-1.51,0.11-2.23
			C184.14,94.84,184.28,93.18,184.22,91.53z"/>
		<path class="st136" d="M184.22,98.73c0.48,0.01,0.68-0.25,0.67-0.71c-0.01-0.31,0.02-0.63-0.01-0.93
			c-0.06-0.65,0.26-0.88,0.85-0.9c0.89-0.03,0.98-0.18,1.04-1.08c0.03-0.39-0.31-0.9,0.25-1.19c0,0.33,0.03,0.67-0.01,1
			c-0.06,0.61,0.06,1.17,0.41,1.67c0,0.42-0.01,0.84,0,1.26c0.01,0.36,0,0.68-0.28,0.98c-0.26,0.28-0.1,0.68-0.12,1.03
			c-0.02,0.46,0,0.93,0,1.4c-0.03,0.03-0.06,0.07-0.1,0.08c-0.8,0.25-1.13,0.74-1.08,1.62c0.04,0.74-0.76,1.22-1.61,1.1
			c-0.05-0.93,0.13-1.88-0.13-2.8C184.38,100.44,184.15,99.58,184.22,98.73z"/>
		<path class="st137" d="M184.5,117.72c-0.26-0.46-0.19-0.96-0.13-1.43c0.12-0.86,0.1-1.7,0-2.56c-0.09-0.72-0.02-1.46-0.02-2.19
			c0.05-0.07,0.08-0.18,0.16-0.21c0.78-0.29,0.94-0.89,0.87-1.64c-0.05-0.52,0.23-0.84,0.73-0.95c0.58-0.13,0.75-0.5,0.74-1.06
			c-0.01-0.45-0.14-0.93,0.18-1.34c0.09,0.09,0.18,0.18,0.27,0.27c0,1.26,0.14,2.55-0.04,3.79c-0.22,1.49-0.22,2.98-0.23,4.47
			c0,0.29-0.02,0.58,0.14,0.84C186.31,116.42,185.43,117.1,184.5,117.72z"/>
		<path class="st138" d="M187.02,106.34c0,0.55-0.03,1.11,0.01,1.66c0.04,0.49-0.14,0.77-0.61,0.84c-0.71,0.1-1.02,0.48-0.86,1.18
			c0.25,1.04-0.51,1.26-1.21,1.53c0-0.13,0-0.27,0-0.4c0.03-2.36-0.02-4.72-0.13-7.07c0.22-0.08,0.44-0.19,0.67-0.25
			c0.62-0.14,0.83-0.51,0.81-1.15c-0.04-1.14,0.16-1.32,1.32-1.41c-0.19,1.4,0.3,2.76,0.27,4.15
			C187.29,105.76,187.26,106.08,187.02,106.34z"/>
		<path class="st139" d="M130.16,140.92c0.26-0.26,0.43,0.09,0.65,0.1c1.75,0.05,2.79,1.39,4.04,2.3c0.57,0.41,1.15,0.47,1.72,0.49
			c0.72,0.03,1.27,0.31,1.81,0.71c0.46,0.34,0.92,0.69,1.37,1.05c0.6,0.47,1.29,0.64,2.04,0.68c0.15-0.13,0.29-0.07,0.42,0.02
			c0.67,0.49,1.35,0.96,1.97,1.52c0.12,0.11,0.3,0.22,0.15,0.43c-0.72,0.55-1.44,1.1-2.16,1.64c-0.28,0.13-0.45-0.06-0.65-0.21
			c-3.29-2.58-6.62-5.11-9.97-7.6C131.06,141.7,130.62,141.3,130.16,140.92z"/>
		<path class="st140" d="M189.03,196.04c0,2.49,0,4.98,0,7.47c0,0.13,0,0.27,0,0.4c-0.23,0.32-0.14,0.68-0.13,1.02
			c0.03,0.98-0.03,1.23-1.28,1.39c-0.22,0.03-0.44,0.03-0.63-0.12c-0.05-0.07-0.09-0.14-0.12-0.22c-0.09-2.38-0.12-4.77,0.01-7.15
			c0.24-0.39,0.51-0.74,0.5-1.26C187.37,196.33,187.73,196.02,189.03,196.04z"/>
		<path class="st141" d="M187.02,221.13c0-2.4,0-4.81,0-7.21c0.63-0.47,0.82-1.1,0.79-1.88c-0.02-0.55,0.38-0.8,1.21-0.92
			c0.08,0.89-0.17,1.79,0.13,2.67c0,1.65,0,3.29,0,4.94c-0.21,0.04-0.43,0.1-0.64,0.13c-1.09,0.15-1.07,0.15-1.1,1.25
			C187.4,220.47,187.68,221,187.02,221.13z"/>
		<path class="st142" d="M189.03,211.12c-0.86,0.32-1.24,0.89-1.08,1.84c0.11,0.65-0.53,0.72-0.92,0.96c0-0.71,0-1.42,0-2.14
			c-0.22-0.21-0.21-0.48-0.21-0.74c-0.01-1.37-0.01-2.75,0-4.12c0-0.26,0-0.54,0.21-0.74c0.42-0.05,0.83-0.08,1.25-0.15
			c0.33-0.05,0.49-0.28,0.49-0.61c0-0.35,0-0.71,0-1.06c0-0.2-0.02-0.41,0.27-0.45C189.03,206.32,189.03,208.72,189.03,211.12z"/>
		<path class="st143" d="M189.03,196.04c-0.12,0.06-0.24,0.13-0.36,0.17c-1.09,0.42-1.11,0.42-1.1,1.64
			c0.01,0.44-0.12,0.73-0.54,0.86c-0.34-0.43-0.16-0.94-0.19-1.41c-0.03-0.33,0-0.67,0-1c-0.03-1.77-0.02-3.54,0-5.31
			c-0.08-1.96,0.2-3.9,0.14-5.86c-0.01-0.29,0.03-0.59,0.35-0.74c0.86,0.6,1.72,1.21,2.51,1.91c-0.15,0.11-0.26,0.29-0.24,0.45
			c0.12,1.07-0.16,2.1-0.3,3.14C188.99,191.94,189.03,193.99,189.03,196.04z"/>
		<path class="st144" d="M187.31,184.39c-0.1,0.2-0.16,0.41-0.15,0.64c0.1,1.98-0.18,3.96-0.13,5.94c-0.19,0.37-0.54,0.43-0.9,0.45
			c-0.44,0.02-0.63,0.27-0.64,0.69c-0.01,0.33,0.02,0.67-0.03,1c-0.09,0.65-0.56,0.95-1.23,0.79c0-0.93,0-1.87,0-2.8
			c0-2.22,0-4.43,0-6.65c0-0.33-0.05-0.64,0.3-0.94c0.28-0.24,0.05-0.76,0.12-1.15C185.56,183,186.46,183.66,187.31,184.39z"/>
		<path class="st145" d="M144.31,148.23c-0.72-0.82-1.6-1.43-2.53-1.97c-1.1-0.94-2.19-1.89-3.46-2.6
			c-1.19-0.67-2.24-1.53-3.22-2.47c0.29,0,0.58,0.03,0.86-0.01c1.45-0.21,2.62,0.33,3.68,1.27c0.78,0.69,1.66,1.24,2.74,1.37
			c0.99,0.12,1.56,0.94,2.33,1.43c0.51,0.33,0.93,0.83,1.6,0.87c0.13,0.08,0.26,0.16,0.4,0.24
			C145.97,147.06,145.14,147.64,144.31,148.23z"/>
		<path class="st146" d="M184.22,193.9c0.96-0.17,1.07-0.29,1.07-1.23c0-0.24,0.01-0.49,0-0.73c-0.01-0.5,0.24-0.75,0.73-0.71
			c0.37,0.03,0.69-0.1,1.01-0.27c0,1.78,0,3.56,0,5.34c-0.36,0.4-0.19,0.89-0.2,1.34c-0.02,0.58-0.11,1.06-0.74,1.26
			c-0.32,0.1-0.34,0.39-0.33,0.66c0.02,0.76,0,1.47-0.65,2.07c-0.34,0.32-0.12,0.9-0.17,1.35c-0.05,0.42-0.13,0.82-0.71,0.65
			c0-1.69,0-3.38,0-5.07C184.22,197.02,184.22,195.46,184.22,193.9z"/>
		<path class="st147" d="M187.02,206.18c0,1.87,0,3.74,0,5.61c-0.27,0.4-0.1,0.86-0.13,1.28c-0.02,0.45-0.18,0.72-0.66,0.72
			c-0.61,0-0.86,0.29-0.82,0.92c0.04,0.58,0.04,1.13-0.41,1.66c-0.35,0.42-0.08,1.1-0.21,1.67c-0.12,0.52-0.33,0.73-0.84,0.7
			c0.18-1.78,0.08-3.58,0.16-5.36c0.03-0.61,0.1-1.23,0.11-1.84c0-0.93,0-1.87,0-2.8c0.65-0.25,1.06-0.6,1.03-1.41
			c-0.04-1.19,0.52-1.55,1.77-1.26C187.02,206.1,187.02,206.14,187.02,206.18z"/>
		<path class="st148" d="M187.02,206.05c-0.17,0.04-0.34,0.1-0.51,0.13c-1.09,0.15-1.09,0.14-1.09,1.27c0,1.03-0.22,1.26-1.2,1.28
			c0-0.89,0-1.78,0-2.67c0-0.8,0-1.6,0-2.4c0.41-0.04,0.57-0.27,0.54-0.67c-0.03-0.33-0.01-0.67,0-1c0-0.18-0.04-0.41,0.13-0.49
			c0.86-0.42,0.68-1.2,0.67-1.91c-0.01-0.48-0.02-0.89,0.66-0.89c0.28,0,0.42-0.29,0.42-0.59c0-0.4,0-0.8,0-1.2
			c0-0.29,0.04-0.54,0.4-0.57c0,0.8,0,1.6,0,2.4C187.02,201.16,187.02,203.6,187.02,206.05z"/>
		<path class="st149" d="M187.02,88.46c-0.37,0.24-0.77,0.27-1.2,0.27c-0.95,0-1.06,0.13-1.08,1.05c-0.01,0.36,0.14,0.75-0.13,1.08
			c0.06-1.47-0.14-2.93-0.27-4.39c-0.02-0.19-0.09-0.33-0.27-0.42c0-0.57,0.01-1.14-0.01-1.71c-0.01-0.28,0.05-0.51,0.27-0.69
			c0.53-0.47,0.3-1.1,0.21-1.61c-0.1-0.54,0.13-0.69,0.53-0.78c1.39-0.32,1.39-0.32,1.4-1.76c0-0.31-0.04-0.62,0.34-0.77
			c0.24-0.09,0.2-0.38,0.33-0.55c0.21,1.01,0.24,2.03-0.02,3.04c-0.22,0.83-0.14,1.67-0.06,2.49c0.09,0.86,0.09,1.7,0,2.56
			C187,86.99,187.04,87.73,187.02,88.46z"/>
	</g>
</g>
<g id="Guides">
</g>
<g id="Layer_5" class="st155">
	<rect x="59.79" y="59.6" class="st156" width="180.21" height="180.21"/>
</g>
</svg>
