<svg xmlns="http://www.w3.org/2000/svg" viewBox="0 0 300 300"><defs><style>.cls-1{fill:#2c2c32;}.cls-2{fill:#5bade0;}.cls-3{fill:#4699d4;}.cls-4{fill:#318ecd;}.cls-5{fill:#3390ce;}.cls-6{fill:#1773b0;}.cls-7{fill:#489bd5;}.cls-8{fill:#2884c6;}.cls-9{fill:#2682c5;}.cls-10{fill:#2480c4;}.cls-11{fill:#237ec2;}.cls-12{fill:#4497d2;}.cls-13{fill:#1571af;}.cls-14{fill:#237dc1;}.cls-15{fill:#1b72ad;}.cls-16{fill:#1b6ca3;}.cls-17{fill:#196fa9;}.cls-18{fill:#1d77bd;}.cls-19{fill:#207abf;}.cls-20{fill:#2d7fb8;}.cls-21{fill:#3383ba;}.cls-22{fill:#287eb6;}.cls-23{fill:#63b0e1;}.cls-24{fill:#3887bc;}.cls-25{fill:#3b89bd;}.cls-26{fill:#3792d0;}.cls-27{fill:#2a78ac;}.cls-28{fill:#2973a8;}.cls-29{fill:#2a7cb3;}.cls-30{fill:#3f88ba;}.cls-31{fill:#59abdf;}.cls-32{fill:#3a7faf;}.cls-33{fill:#317bac;}.cls-34{fill:#367dae;}.cls-35{fill:#2c8bcb;}.cls-36{fill:#2e8dcc;}.cls-37{fill:#1a75b1;}.cls-38{fill:#1f77b2;}.cls-39{fill:#1d74af;}.cls-40{fill:#1d72aa;}.cls-41{fill:#206fa5;}.cls-42{fill:#499fd8;}.cls-43{fill:#489cd6;}.cls-44{fill:#4da1d9;}.cls-45{fill:#51a6dc;}.cls-46{fill:#4fa4db;}.cls-47{fill:#0f72b7;}.cls-48{fill:#0770b7;}.cls-49{fill:#56a8dd;}.cls-50{fill:#2a88c9;}.cls-51{fill:#227fc3;}.cls-52{fill:#1f7dc1;}.cls-53{fill:#1d7bc0;}.cls-54{fill:#1474bb;}.cls-55{fill:#1071b9;}.cls-56{fill:#1e79bf;}.cls-57{fill:#1875bc;}.cls-58{fill:#3381b5;}.cls-59{fill:#2f7fb4;}.cls-60{fill:#3883b6;}.cls-61{fill:#267bb5;}.cls-62{fill:#297ab2;}.cls-63{fill:#3e86b6;}.cls-64{fill:#3c81b1;}.cls-65{fill:#3b87b9;}.cls-66{fill:#3a85b8;}.cls-67{fill:#2378b1;}.cls-68{fill:#2675ac;}.cls-69{fill:#2572a6;}.cls-70{fill:#0d74b8;}.cls-71{fill:#3882b4;}.cls-72{fill:#367fb2;}.cls-73{fill:#307caf;}.cls-74{fill:#337eb0;}.cls-75{fill:#2271a5;}.cls-76{fill:#0e75bb;}.cls-77{fill:#0d73bb;}.cls-78{fill:#0b74bc;}.cls-79{fill:#1578bc;}.cls-80{fill:#1c7cc1;}.cls-81{fill:#2575ab;}.cls-82{fill:#1b7bc0;}.cls-83{fill:#1876bd;}.cls-84{fill:#1978be;}.cls-85{fill:#3c84b4;}</style></defs><g id="Fondos"><rect class="cls-1" width="300" height="300"/></g><g id="Texto"><path class="cls-2" d="M221.87,86c2.64,1.09,5.16,2.36,6.69,5a10.74,10.74,0,0,1,1.32,3.58c0,.11,0,.23.12.28v1.21a1.19,1.19,0,0,0-.06.65c0,2.13,0,4.27,0,6.4a1.47,1.47,0,0,1-.06.72,1.33,1.33,0,0,1-.89.18q-19,0-38.1,0a1.59,1.59,0,0,1-.91-.15c-.37-.5-.18-1.07-.22-1.61,0-.33,0-.66,0-1,0-2.9,0-5.81,0-8.72,0-.38,0-.76,0-1.13,0-1.41,0-2.82,0-4.22a1.19,1.19,0,0,1,.17-.76,2.09,2.09,0,0,1,1.3-.19H220.5A2.4,2.4,0,0,0,221.87,86Z"/><path class="cls-3" d="M230,205.25c-.25.28-.21.65-.3,1a9.88,9.88,0,0,1-5,6.36c-1,.53-2,1-3,1.44a2.54,2.54,0,0,0-1,0h-29.6a2.15,2.15,0,0,1-1.17-.16c-.35-.5-.17-1.07-.21-1.61,0-.38,0-.75,0-1.13,0-3,0-6,0-9.05a1.22,1.22,0,0,1,.19-.83,2.11,2.11,0,0,1,1.35-.2h36.87c1.66,0,1.49.11,1.49-1.53,0-4.4,0-8.8,0-13.2q0-7.53,0-15.08t0-14.95q0-6.06,0-12.14c0-3.19,0-6.38,0-9.57a1.29,1.29,0,0,1,.12-.64.16.16,0,0,1,.22-.08Z"/><path class="cls-4" d="M75.7,131.58,72,128.17A6.54,6.54,0,0,1,70,125c0-.15,0-.37-.21-.45v-.67a.63.63,0,0,1,.65-.47c.31,0,.62,0,.93,0H106.1a3.58,3.58,0,0,1,.86.08l6.59,5,2.81,2.14c.17.13.33.3.58.28.19.15.29.32.11.55a2.13,2.13,0,0,1-1.29.18H77.3C76.77,131.52,76.23,131.53,75.7,131.58Z"/><path class="cls-5" d="M107,123.42a1.75,1.75,0,0,1-1,.14H70.74c-.33,0-.68-.07-.91.27v-1.74c.23-.16.2-.42.27-.65a5.91,5.91,0,0,1,1.45-2.58c1.82-1.79,3.73-3.48,5.65-5.17a2.29,2.29,0,0,1,1.1-.22H93.11a6.11,6.11,0,0,1,.86.09l9.67,7.3C104.75,121.7,105.85,122.57,107,123.42Z"/><path class="cls-6" d="M69.83,175.48c.37-.69.48-1.49.9-2.17a8.09,8.09,0,0,1,1.9-2.1,1,1,0,0,1,.58-.11c9.6.07,19.2,0,28.81,0,1,0,2-.32,3-.28.58-.07.9.36,1.25.68a20,20,0,0,0,3,2.48c.17.1.43.21.27.51a26.18,26.18,0,0,1-2.67,2,14.17,14.17,0,0,0-1.6-.06H71.86c-.73,0-1.51-.15-2,.59Z"/><path class="cls-6" d="M69.83,177.09c.07-.84.63-.82,1.28-.82q17.53,0,35.06,0c.26,0,.65-.2.77.27q-3,2.4-6.14,4.67a13,13,0,0,0-1.53-.06h-26c-.52,0-1,0-1.53.07A6.31,6.31,0,0,1,70,178.15c0-.1,0-.22-.14-.26Z"/><path class="cls-7" d="M230,133.84h-.13c-.33-.4-.18-.87-.21-1.32s0-.83,0-1.24q0-6.33,0-12.65c0-4.69,0-9.38,0-14.07a1,1,0,0,1,.21-.75q0-3.53,0-7c0-.24-.09-.5.12-.69Z"/><path class="cls-8" d="M125.21,176.72l-7.67-6.95c-.25-.23-.44-.57-.85-.58a31.39,31.39,0,0,1-2.79-2.49c-.21-.19-.34-.43-.06-.69a2.29,2.29,0,0,1,1.36-.22h47.4a1.17,1.17,0,0,1,.92.29c4.13,3.12,8.24,6.26,12.37,9.39.27.2.54.42.36.83a.94.94,0,0,1-.78.32H126.81A9.53,9.53,0,0,0,125.21,176.72Z"/><path class="cls-9" d="M125.21,176.72a.31.31,0,0,1,.37-.3h49.76c.35,0,.81.17.88-.42a3.91,3.91,0,0,1,1.46.89c1.24.86,2.44,1.77,3.62,2.72.21.17.51.31.4.68a2.8,2.8,0,0,1-.45,1.17c-.27.34-.15.77-.18,1.16s.12.9-.24,1.27c-.46.21-.52.62-.53,1.06-.05,1.13-.33,1.42-1.47,1.54a10.66,10.66,0,0,1-1.13,0H136.75a6.23,6.23,0,0,1-.86-.07c-2.45-2.22-4.91-4.43-7.36-6.67C127.42,178.77,126.24,177.83,125.21,176.72Z"/><path class="cls-10" d="M135.89,186.45c.23-.27.54-.15.82-.15h42c1.17,0,1.36-.26,1.36-1.42,0-1,0-1.05.8-1.11.38.19.32.55.35.88.08,1-.15,2-.14,3.05,0,2,0,4.05,0,6.07a7.23,7.23,0,0,1-.16,2.45,1.25,1.25,0,0,0-.64,1.22c0,1.15-.23,1.33-1.39,1.36-.57,0-1.15,0-1.73,0h-26a13.34,13.34,0,0,0-1.67.08l-6.76-6.11-6.39-5.83C136.19,186.78,136.05,186.61,135.89,186.45Z"/><path class="cls-11" d="M149.5,198.87c.19-.41.56-.29.88-.29h28.87c.58,0,.94-.2.84-.87a3.57,3.57,0,0,1,0-.8c0-.49.24-.8.79-.74a.94.94,0,0,1,.21.75c0,1.53,0,3.05,0,4.58,0,2.26,0,4.52,0,6.77a.72.72,0,0,1-.16.49,1.56,1.56,0,0,1-.54.25,1,1,0,0,0-.76,1c0,1-.2,1.15-1.19,1.15-3.2,0-6.4,0-9.6,0-1.35,0-2.71,0-4.06,0a4,4,0,0,0-1.5.23L156,204.86C153.83,202.87,151.67,200.87,149.5,198.87Z"/><path class="cls-12" d="M190,213.79h30.91c.3,0,.64-.12.84.23-2.68,1.19-5.26,2.57-7.9,3.83-7.49,3.6-15,7.23-22.48,10.8a9.68,9.68,0,0,1-9.25-.32,2.43,2.43,0,0,1-.32-.24c.46-.29.86.08,1.29.09l.2.05a4.53,4.53,0,0,0,1.6,0,6,6,0,0,0,2-.65,5.4,5.4,0,0,0,2.85-3.82c0-.1,0-.2.05-.3a2.68,2.68,0,0,0,0-.89c0-2.66,0-5.32,0-8A1,1,0,0,1,190,213.79Z"/><path class="cls-13" d="M71.7,181.24c.13-.32.41-.28.68-.28h27.73c.26,0,.55-.05.69.27L90.59,189a10.15,10.15,0,0,1-3.65,2.12,6.15,6.15,0,0,1-5.8-1.27c-3.15-2.74-6.2-5.6-9.29-8.41A1.59,1.59,0,0,1,71.7,181.24Z"/><path class="cls-14" d="M163.26,211.42c.13-.52.55-.43.91-.43,4.8,0,9.6,0,14.4,0,.69,0,.94-.21.85-.87-.15-1,.1-1.2,1.46-1.41.27.27.2.62.21.94.09,1.88-.09,3.75-.15,5.62a9.18,9.18,0,0,1-.18,1.17,2.39,2.39,0,0,0-.1.66,2,2,0,0,1-1,1.94.88.88,0,0,0-.44.71,4.92,4.92,0,0,1-.18.78,1.23,1.23,0,0,1-1.35,1,28.26,28.26,0,0,0-3.19.1l-8-7.25C165.42,213.43,164.25,212.51,163.26,211.42Z"/><path class="cls-15" d="M109.61,174.52c0-.07-.06-.18-.13-.22-1.58-.87-2.73-2.28-4.14-3.35a12.1,12.1,0,0,1-2.64-2.41,5.83,5.83,0,0,0-.89-.9,2.44,2.44,0,0,1-1.11-1.51,1.55,1.55,0,0,0-.71-.85,6.17,6.17,0,0,1-.88-.81c-.16-.18-.36-.36-.19-.64a3,3,0,0,1,1.73-.26c.19,0,.46.08.54-.13s-.17-.37-.33-.5a9,9,0,0,1-1.07-1c-.19-.21-.41-.41-.36-.74.31-.23.49,0,.67.2.43.38.83.79,1.26,1.18a6.65,6.65,0,0,0,1.9,1.29,9.67,9.67,0,0,1,2.5,2.6c.18.36.59.53.87.81,1.75,1.75,3.6,3.4,5.44,5a.41.41,0,0,1,.13.23A25.69,25.69,0,0,1,109.61,174.52Z"/><path class="cls-16" d="M113.74,166.28c.79.93,1.79,1.65,2.65,2.51.13.12.28.21.3.4l-2.15,1.62c-.42.17-.68-.15-.91-.38-1.54-1.5-3.16-2.92-4.73-4.39-1.36-1.27-2.45-2.8-3.91-4a.91.91,0,0,1-.4-.6.85.85,0,0,0-.31-1.32,3,3,0,0,1-.47-.47c-.23-.23-.33-.47-.12-.76s.11-.62-.2-.84a7,7,0,0,1-1.25-1.19c-.28-.32-.34-.64.16-.83a1.17,1.17,0,0,1,.75.41c1.71,1.62,3.47,3.17,5.2,4.77s3.32,3,5,4.53C113.48,165.94,113.68,166.05,113.74,166.28Z"/><path class="cls-17" d="M104.67,161.47a4.6,4.6,0,0,0,.93.94,4.77,4.77,0,0,1,1.34,1.45c.28.51.82.79,1.23,1.19,1.23,1.18,2.4,2.42,3.69,3.54l2.33,2.06a1.25,1.25,0,0,0,.35.16,25.19,25.19,0,0,1-2.34,1.77,12.6,12.6,0,0,1-2.22-1.9c-1.13-1-2.14-2.06-3.24-3.06-1.26-1.13-2.18-2.59-3.54-3.61.38-.62.1-1-.43-1.36a3.32,3.32,0,0,1-.7-.7c-.37-.43-.29-.69.25-.75a4.46,4.46,0,0,0,1.15-.32A2,2,0,0,1,104.67,161.47Z"/><path class="cls-18" d="M183.15,228.34c-.48,0-.9-.24-1.38-.24a9.93,9.93,0,0,1-2.35-1.93,2.71,2.71,0,0,1,.55-2.61,1.27,1.27,0,0,0,.46-.84,4.83,4.83,0,0,1,.27-1.35,1.85,1.85,0,0,0,1-1.56c.1-1.21,1.13-1.64,2.27-1.05a14.63,14.63,0,0,1-.16,3.37c-.06.57-.13,1.15-.21,1.72.1,1.3-.14,2.59-.15,3.89A.57.57,0,0,1,183.15,228.34Z"/><path class="cls-19" d="M180.75,221.4c-.05.55-.08,1.1-.18,1.64,0,.26-.09.57-.46.65s-.38.26-.43.53a10.63,10.63,0,0,0-.26,1.95l-4.94-4.49c0-.33.29-.28.51-.28.71,0,1.42,0,2.13,0,1.64.06,1.62-.3,1.88-1.68.07-.37.17-.68.48-.81.87-.37,1-1.11,1-1.9,0-.19-.06-.41.13-.56a.77.77,0,0,1,.18.68C180.68,218.56,180.8,220,180.75,221.4Z"/><path class="cls-20" d="M124.57,123.83,138,111.53s.11-.07.16-.11a.89.89,0,0,1,.58-.12c13.2.07,26.41,0,39.62,0,.35,0,.71,0,1.06-.06,1.41.22,1.41.22,1.51,1.67a8.16,8.16,0,0,1,.11,1,13,13,0,0,0,.24,2.91,3,3,0,0,1-.05,1.45,6.87,6.87,0,0,0-.17,1.92c0,.35-.22.52-.44.68-2.33,1.78-4.65,3.56-7,5.31-.22.16-.44.31-.73.16a12,12,0,0,0-1.34,0q-20.88,0-41.77,0a4.42,4.42,0,0,1-3.36-1.14C125.9,124.63,125.1,124.41,124.57,123.83Z"/><path class="cls-21" d="M179.55,111.42a3.69,3.69,0,0,1-1.05.13H139.37c-.4,0-.78-.11-1.18-.14L146,104.3l5.42-4.94c.25-.23.51-.43.76-.64a3.05,3.05,0,0,1,1.37-.2h23.93a18.16,18.16,0,0,0,2.66-.11c.81.07,1,.23,1,1-.13,1.35.55,2.58.45,3.91,0,.28.21.48.34.71a5.79,5.79,0,0,1,0,1.38.68.68,0,0,1-.28.58,1.17,1.17,0,0,0-.51,1.14,3.07,3.07,0,0,1-.43,2.16c-.23.28-.08.73-.1,1.1C180.5,111.18,180.32,111.36,179.55,111.42Z"/><path class="cls-22" d="M124.57,123.83a6.63,6.63,0,0,1,2.51,1.57,3,3,0,0,0,2.14.69h43.19c.25,0,.6-.19.73.24-.14.43-.53.64-.86.89L160.69,136a1.24,1.24,0,0,1-1,.4H142.19a5.69,5.69,0,0,1-4.18-1.37,3.16,3.16,0,0,0-2.1-1,1.21,1.21,0,0,1-.53-.16c-1.63-1-3.07-2.32-4.59-3.5s-3.2-2.39-4.76-3.63a2.16,2.16,0,0,0-1-.36,2.37,2.37,0,0,1-1.82-1.33Z"/><path class="cls-23" d="M221.87,86c.09.23,0,.39-.23.42H190a.85.85,0,0,1-.22-.73c0-1.4,0-2.81,0-4.22,0-1.21,0-2.43,0-3.64a6.16,6.16,0,0,0-1.46-4.3,5.79,5.79,0,0,0-3.51-1.81,5.4,5.4,0,0,0-2.52.24c-.25.06-.49.24-.75.05a8.81,8.81,0,0,1,4-1.6,10.27,10.27,0,0,1,6.25,1.07l29.53,14.23A5.29,5.29,0,0,1,221.87,86Z"/><path class="cls-24" d="M180.22,98.6a26.73,26.73,0,0,1-4.38.13H152.13c2-1.82,3.94-3.65,5.92-5.46q2.65-2.42,5.33-4.81a1.08,1.08,0,0,1,.59-.09c4.66,0,9.32,0,14,0l.53,0c.49,0,.75-.23.71-.74,0-.11,0-.22,0-.33,0-.88.29-1.08,1.18-1,.45.22.43.64.41,1a1.94,1.94,0,0,0,.45,1.41,4,4,0,0,1,.06,1.9,38.9,38.9,0,0,0-.35,4.81,2.83,2.83,0,0,1-.09.65,2.08,2.08,0,0,0-.47,1.59A1.14,1.14,0,0,1,180.22,98.6Z"/><path class="cls-25" d="M180.48,86.46c-1.06,0-1.06,0-1.06,1s0,1.1-1.14,1.1H164.49a3.2,3.2,0,0,1-1.11-.14c1.65-1.52,3.28-3,4.94-4.55l8.41-7.66A2.26,2.26,0,0,1,177,76a.72.72,0,0,1,.71,0,3.53,3.53,0,0,0,1.36.25.83.83,0,0,1,.91.86,4.68,4.68,0,0,0,.61,1.88c.35.61.16,1.36.43,2,.09,1.48-.11,3-.07,4.44C181,85.84,181,86.28,180.48,86.46Z"/><path class="cls-26" d="M94,113.56a1.43,1.43,0,0,1-.84.12H77.2c1.31-1.2,2.58-2.44,3.94-3.58a6.43,6.43,0,0,1,7.68-.44C90.61,110.87,92.3,112.21,94,113.56Z"/><path class="cls-27" d="M118.58,129.31a24.79,24.79,0,0,1,2.08-1.89c.34-.17.55.08.77.24a8.85,8.85,0,0,0,1.56,1c.73.51,1.42,1.06,2.14,1.59a3.78,3.78,0,0,0,1.78,1,1.4,1.4,0,0,1,.62.38c1.72,1.33,3.48,2.6,5.19,4,.2.16.45.3.48.6a.33.33,0,0,1-.12.28,16,16,0,0,1-2-.14,5.17,5.17,0,0,1-3.45-1.46,2.8,2.8,0,0,0-2-.84,7.84,7.84,0,0,1-2.15-1.41,8.5,8.5,0,0,0-2.25-1.24A6.37,6.37,0,0,1,118.58,129.31Z"/><path class="cls-28" d="M118.58,129.31l1.84,1.39a3.51,3.51,0,0,0,1.36.62,7.34,7.34,0,0,1,2.37,1.52,11.3,11.3,0,0,0,1.48,1,15.27,15.27,0,0,1,3,2.18,27.1,27.1,0,0,0,3.53,2.68c.91.59,1.75,1.28,2.61,1.94.14.1.29.22.23.43-.3.32-.58.08-.83-.07a7.13,7.13,0,0,1-1.28-1,4.07,4.07,0,0,0-3-1.21,2.9,2.9,0,0,1-1.82-.72c-.4-.31-.81-.62-1.23-.92a3.37,3.37,0,0,0-2-.84,1,1,0,0,1-.58-.31c-.81-.62-1.62-1.25-2.46-1.82a1.21,1.21,0,0,0-.93-.3.55.55,0,0,1-.31-.08,35.51,35.51,0,0,1-3.43-2.68l-.15-.37Z"/><path class="cls-29" d="M123,128.77a4.29,4.29,0,0,1-1.56-.94,1.59,1.59,0,0,0-.74-.41l2.57-2.38a3.51,3.51,0,0,0,2.31,1.24c.52,0,.91.57,1.35.9,1.62,1.21,3.24,2.44,4.82,3.71q1.8,1.44,3.66,2.82a2.65,2.65,0,0,1-2.38-.35c-.63-.38-1.18-.87-1.77-1.31a2.34,2.34,0,0,0-1.73-.56,5.1,5.1,0,0,1-4.35-1.5A5.81,5.81,0,0,0,123,128.77Z"/><path class="cls-30" d="M180.88,81c-.24-1.16-.76-2.25-1-3.39s-.14-1.13-1.27-1.14c-.58,0-1-.43-1.59-.41a41.08,41.08,0,0,1,4.55-4,7.45,7.45,0,0,1,2.8-.53c.19,0,.4-.05.56.13a.66.66,0,0,1-.55.18c-.52,0-.67.3-.58.73a14,14,0,0,1-.05,3.3,19.78,19.78,0,0,1,.07,2.43,1.11,1.11,0,0,1-1.09.62H182a.59.59,0,0,0-.61.71,4.89,4.89,0,0,1,.08.85C181.39,80.78,181.36,81.14,180.88,81Z"/><path class="cls-31" d="M229.87,103.81v14.81a1.75,1.75,0,0,1-1.22.22H191.56c-.25,0-.49,0-.74,0a.45.45,0,0,0-.49.49c0,.25,0,.49,0,.74,0,3.73,0,7.47,0,11.2,0,4.28,0,8.55,0,12.82,0,4,0,8.1,0,12.15,0,5,0,10,0,14.94s0,9.68,0,14.52a1.76,1.76,0,0,1-.06.46.37.37,0,0,1-.25.29c-.18,0-.22-.12-.23-.27a11.75,11.75,0,0,1,0-1.19V115.23c0-.51,0-1,0-1.53,0-3,0-6.11,0-9.16a.86.86,0,0,1,.23-.73Z"/><path class="cls-32" d="M190,81.38l0,5.07,0,5a4,4,0,0,0-.12,1.57,1.07,1.07,0,0,1-.33.9,1,1,0,0,0-.28.85c0,1.34,0,1.34-1.27,1.75-.18.06-.35.21-.56.15a1.31,1.31,0,0,1-.55-1.14c0-.53,0-1,0-1.58a43.64,43.64,0,0,0,.17-5.36,3.79,3.79,0,0,0,.07-1.06,1.5,1.5,0,0,1,.63-1.51c.32-.21.3-.58.29-.91,0-.54.05-1,.62-1.28.31-.14.31-.46.32-.75a3.11,3.11,0,0,1,.08-1.06C189.21,81.58,189.37,81.14,190,81.38Z"/><path class="cls-33" d="M190,103.81l0,9.87a11.91,11.91,0,0,1-2.41,1.95.37.37,0,0,1-.59-.07,2.18,2.18,0,0,1-.14-1c-.11-2.61.45-5.19.3-7.8a.71.71,0,0,1,.47-.67.91.91,0,0,0,.58-1,1.32,1.32,0,0,1,.54-1.28,1.16,1.16,0,0,0,.4-1.07,2.12,2.12,0,0,1,.18-1.11c.14-.25.29-.53.66-.31Z"/><path class="cls-34" d="M190,101.27c-.6.08-.65.56-.64,1,0,.77,0,1.5-.81,1.94-.29.15-.14.57-.13.87,0,.59-.08,1.07-.78,1.17-.21,0-.29.18-.3.38-.27,0-.31-.18-.32-.39a5.5,5.5,0,0,0-.05-2.55,11,11,0,0,1-.09-2.43,6.32,6.32,0,0,1,.32-2.92,2.43,2.43,0,0,0,.08-1,1,1,0,0,1,.2-.74,1,1,0,0,1,.85-.41.67.67,0,0,0,.75-.84,8.22,8.22,0,0,1,0-.86c0-.33,0-.63.38-.79s.25-.51.29-.81c.08-.5-.25-1.07.25-1.49Z"/><path class="cls-35" d="M95.76,150.12c0-.34-.26-.44-.44-.61L84.19,139.34c-.13-.12-.24-.26-.37-.38,0-.38.3-.4.55-.47a3.54,3.54,0,0,1,.92-.06h41.27a1.16,1.16,0,0,1,1,.33c.88.71,1.79,1.37,2.7,2,3.09,2.4,6.24,4.72,9.34,7.11a13.53,13.53,0,0,0,2.69,1.94c.19.19.4.35.58.54s.33.38,0,.61a3.06,3.06,0,0,1-1.31.13H99.07a6.49,6.49,0,0,0-1.59.12C96.65,151.27,96.23,150.66,95.76,150.12Z"/><path class="cls-36" d="M126.83,138.52c-.25.23-.56.12-.83.12H85.07a1.52,1.52,0,0,0-1.25.31c-1.14-1-2.29-2-3.42-3-1.52-1.37-3-2.76-4.54-4.14a1.06,1.06,0,0,1-.16-.21c0-.19.13-.28.31-.27h40.26c.27,0,.58.11.82-.14,1.15.66,2.11,1.56,3.18,2.32.17.13.36.25.55.37a9.33,9.33,0,0,1,2.26,1.57c1.06.86,2.16,1.69,3.24,2.52C126.53,138.09,126.78,138.22,126.83,138.52Z"/><path class="cls-37" d="M98.93,163.87a2.75,2.75,0,0,0,1.08,1.21c.44.37.92.69.93,1.36a.7.7,0,0,0,.36.53,22.19,22.19,0,0,1,2.55,2.58c.48.48,1.13.79,1.49,1.4a24.91,24.91,0,0,1-3.08.38c-9.52,0-19.05,0-28.58,0-.36,0-.69-.13-1.05-.14l8.24-7.49a2.59,2.59,0,0,1,1.17-.18H94.19a4.8,4.8,0,0,0,1-.06c.32-.07.36-.23.11-.45a8.4,8.4,0,0,1-1.07-1c-.33-.44-.28-.6.25-.91.58,0,.88.46,1.27.76s.65.66,1,1a2.85,2.85,0,0,0,1.6.76A.65.65,0,0,1,98.93,163.87Z"/><path class="cls-38" d="M94.66,161.2c-.67.3-.69.33-.18.82s.86.77,1.28,1.16c.23.21.31.38-.14.44a9.07,9.07,0,0,1-1.18.12l-13.57,0,5.78-5.32c.88-.81,1.78-1.6,2.67-2.4a19.7,19.7,0,0,1,2.82,2.5,23.84,23.84,0,0,0,2,2C94.41,160.65,94.72,160.82,94.66,161.2Z"/><path class="cls-39" d="M94.66,161.2c-1.73-1.54-3.22-3.35-5-4.79-.15-.11-.29-.2-.29-.41q1.41-1.4,2.94-2.67c.26,1.08,1.32,1.49,1.92,2.28.91,1.19,2.19,2,3.09,3.2.51.68,1.28,1.1,1.83,1.74.16.19.44.32.36.65a4.83,4.83,0,0,0,1.27,1.43c.09.09.23.13.32.23s.57.35.47.66-.53.2-.82.21a8.08,8.08,0,0,0-1.77.14,4.63,4.63,0,0,1-3.2-1.78A9.18,9.18,0,0,0,94.66,161.2Z"/><path class="cls-40" d="M99.46,161.2A7.79,7.79,0,0,0,98,159.81c-.52-.38-.84-1-1.32-1.39-1.47-1.27-2.6-2.88-4.16-4.06-.37-.28-.3-.66-.3-1L94,151.74c.68.7,1.42,1.33,2.1,2,1.47,1.47,2.94,2.94,4.49,4.33.94.84,1.89,1.67,2.78,2.57.08.08.16.16.11.29a1.18,1.18,0,0,1-1,.4c-.17,0-.4-.06-.48.13s.16.33.28.46a7.53,7.53,0,0,0,.81.79c.78.63.79.62.12,1.29a9,9,0,0,1-3-2.28C100,161.53,99.82,161.22,99.46,161.2Z"/><path class="cls-41" d="M103.47,160.94c-1.13-1-2.28-2-3.39-3.07-1.29-1.21-2.58-2.42-3.81-3.69-.61-.63-1.23-1.26-1.87-1.86-.18-.16-.4-.3-.41-.58l1.77-1.62c.56.25.91.77,1.43,1.08a4.78,4.78,0,0,1,1.33,1.08c1.16,1,2.32,2.08,3.45,3.14.2.19.49.35.43.7-.34.25-.3.49,0,.75a13,13,0,0,0,1.23,1.11c.35.24.69.55.22,1-.24.22-.17.41.06.6a7,7,0,0,0,.62.6c.66.38.65.8.14,1.29A6.44,6.44,0,0,1,103.47,160.94Z"/><path class="cls-42" d="M190.1,186.3V171.21a1.73,1.73,0,0,1,1.22-.21h37.4a1.65,1.65,0,0,1,1.15.21V186.3a1.73,1.73,0,0,1-1.22.21H191.24C190.85,186.51,190.43,186.6,190.1,186.3Z"/><path class="cls-43" d="M190.1,186.3h39.77c0,4.76,0,9.52,0,14.28,0,.52-.13.68-.67.68q-19.62,0-39.24,0l-.09-.09a1.79,1.79,0,0,1-.13-.91c0-4.33,0-8.66,0-13,0-.28,0-.58.19-.82Z"/><path class="cls-44" d="M229.87,171.21H190.1V156.27c.36-.31.8-.22,1.22-.22h37.4a1.65,1.65,0,0,1,1.15.21Z"/><path class="cls-45" d="M190.1,144.12V131.31c.36-.31.8-.22,1.22-.22h37.4a1.6,1.6,0,0,1,1.15.21v12.82a1.73,1.73,0,0,1-1.22.21h-37.4A1.6,1.6,0,0,1,190.1,144.12Z"/><ellipse class="cls-46" cx="209.98" cy="150.19" rx="28.12" ry="8.59"/><path class="cls-47" d="M190,201.24c0,3.3,0,6.59,0,9.89-.56.48-.45,1.14-.48,1.78,0,.33.12.78-.41.9-.29-.26-.23-.61-.24-.93,0-.59,0-1.18,0-1.78,0-2.36,0-4.72,0-7.08a2.11,2.11,0,0,1,0-.5A9.16,9.16,0,0,0,189,202c.11-.68.37-.86.94-.7Z"/><path class="cls-48" d="M189.16,213.79a3.39,3.39,0,0,0,.12-1.67c0-.54.12-.88.67-1,0,.89,0,1.77,0,2.66,0,3,0,6,0,9-.15.25,0,.55-.12.8v.26c-.48,0-.42-.43-.45-.74-.16-1.44-.25-2.89-.33-4.34a41.52,41.52,0,0,1-.08-4.32A.78.78,0,0,1,189.16,213.79Z"/><path class="cls-49" d="M229.87,131.3H190.1c0-4,0-8,0-11.94,0-.64.21-.76.79-.76q19.5,0,39,0Z"/><path class="cls-50" d="M143,150.76c2.15,1.61,4.3,3.21,6.43,4.83l12,9.09c.5.38,1,.78,1.48,1.17-.26.28-.59.15-.89.15h-47.2c-.37,0-.77-.08-1.05.27a16.82,16.82,0,0,1-2.25-2c-2.35-2.1-4.62-4.28-7-6.37a12.72,12.72,0,0,0-2.11-1.83c-1.27-1.39-2.76-2.56-4.13-3.85a9.92,9.92,0,0,1-1.08-1.07,2,2,0,0,1,1.21-.28q21.85,0,43.71,0C142.41,150.92,142.74,151.05,143,150.76Z"/><path class="cls-51" d="M181.71,180.15c1,.68,2,1.43,2.93,2.21a1.23,1.23,0,0,1,0,1.27,2.1,2.1,0,0,0-.24,1.09c0,1.77,0,3.55,0,5.33a2.34,2.34,0,0,1-.11,1,1.6,1.6,0,0,1-1.29.39c-1.26.06-1.26.05-1.28,1.28a3.08,3.08,0,0,1,0,.53c-.11.43-.35.66-.83.54,0-2.13,0-4.26,0-6.39,0-.95.23-1.89.14-2.85a1.58,1.58,0,0,0-.14-.77c0-.55,0-1.11,0-1.66,0-.38-.06-.76.39-1,.18-.08.15-.31.15-.49S181.39,180.18,181.71,180.15Z"/><path class="cls-52" d="M180.88,193.77c.56-.11.7-.45.69-1,0-1.52,0-1.52,1.55-1.55a10.3,10.3,0,0,0,1.1-.13c.28.3.2.66.21,1,0,.6,0,1.19,0,1.79a38.69,38.69,0,0,1-.08,4.57c-.19.34-.53.37-.86.41-1.27.16-1.27.15-1.34,1.4a1.36,1.36,0,0,1-.88,1.27.35.35,0,0,1-.38,0v-7.74Z"/><path class="cls-19" d="M180.75,215.39c.12-2.22.17-4.44.13-6.67v-.4A2.37,2.37,0,0,0,181,207c0-.34.08-.66.42-.75a6.56,6.56,0,0,1,2.52-.39.52.52,0,0,1,.34.18,9.74,9.74,0,0,1,.13,2.64,14,14,0,0,1-.09,2.74c-.39.31-.31.75-.32,1.16,0,.89-.1,1-1,1.12-.24,0-.47.15-.71.17-.79.06-1.39.3-1.33,1.26A.22.22,0,0,1,180.75,215.39Z"/><path class="cls-53" d="M184.22,206.05a10.3,10.3,0,0,0-2.53.3c-.4,0-.54.34-.55.76s.23.89-.26,1.21v-6.81c.87-.29,1.07-.56,1.07-1.43,0-1.23.1-1.33,1.36-1.38.3,0,.61-.08.91-.12a.91.91,0,0,1,.21.74c0,1.43,0,2.87,0,4.31,0,.58,0,1.17,0,1.76A.85.85,0,0,1,184.22,206.05Z"/><path class="cls-54" d="M183.15,228.34a1.61,1.61,0,0,0,.13-.5c-.05-1.35.24-2.69.14-4a1.51,1.51,0,0,1,.74-.27c.81-.18.9-.28.94-1.11a1.41,1.41,0,0,1,1.86-1.34c.07,0,.1.09.14.14,0,2,0,4,0,6a.73.73,0,0,1-.19.48,3.57,3.57,0,0,1-2,.67,5.14,5.14,0,0,1-1.75,0Z"/><path class="cls-55" d="M186.89,227.68c0-1.83,0-3.67,0-5.5,0-.37.14-.69.14-1.05l0-.1c.24-.29.15-.64.16-1,0-1.3.63-1.73,1.93-1.34a8.78,8.78,0,0,1,.23,2.34,11.88,11.88,0,0,1,.17,2.24.46.46,0,0,0,.26.49A5.25,5.25,0,0,1,186.89,227.68Z"/><path class="cls-18" d="M183.15,228.34h1.75A2.45,2.45,0,0,1,183.15,228.34Z"/><path class="cls-55" d="M189.83,223.54c0-.27-.1-.56.12-.8C189.93,223,190.05,223.3,189.83,223.54Z"/><path class="cls-56" d="M180.75,215.39c.23-.21.15-.5.12-.75a.64.64,0,0,1,.61-.78,15.85,15.85,0,0,1,1.8-.34c.4,0,.56-.17.54-.56s0-.66,0-1,.07-.47.4-.45a1.14,1.14,0,0,1,.19,1,31.05,31.05,0,0,0-.11,3.86,10.62,10.62,0,0,1-.26,2.24l-.09.09h-.19c-2.19,0-1.7.1-1.93,1.77-.1.66-.61.73-1.08.9a1.32,1.32,0,0,1-.22-1.25,1.64,1.64,0,0,0,.08-.72,14,14,0,0,1,0-3A4.82,4.82,0,0,1,180.75,215.39Z"/><path class="cls-57" d="M187,221.13c-.46,0-.86.32-1.34.31-.31,0-.41.28-.39.59.08,1.65-.07,1.57-1.87,1.77.18-1.69.36-3.38.53-5.07h0a1.49,1.49,0,0,0,.73-1.46,2.31,2.31,0,0,1,.38-1.39c.24-.32.15-.72.16-1.1,0-.8.12-.95.91-1.16a.68.68,0,0,0,.56-.71,3.09,3.09,0,0,1,.06-.86c.05-.15.09-.37.34-.19a7.45,7.45,0,0,1,.13,2.11c0,2.14,0,4.28,0,6.42A1,1,0,0,1,187,221.13Z"/><path class="cls-58" d="M179.55,111.42c.68-.16.88-.59.81-1.26a1.56,1.56,0,0,1,.4-1.44c.34-.32.09-.93.12-1.41s-.18-1.23.65-1.46c.21-.06.14-.35.16-.54a2.63,2.63,0,0,1,.13-1.24,4,4,0,0,0,.52-2.07c0-.17.07-.39.26-.41a5.64,5.64,0,0,1,1.58-.28,2.08,2.08,0,0,1,.24,1.4c0,.47,0,.93,0,1.39.05,2,.22,4,.15,6a3.66,3.66,0,0,1-.09,1,2.1,2.1,0,0,0-.48,1.53c0,.88-.22,1.1-1.1,1.15a6.58,6.58,0,0,0-1.24.22c-.26.05-.52.17-.78,0a9.14,9.14,0,0,1-.13-1.81c0-.42-.14-.62-.57-.59A1.07,1.07,0,0,1,179.55,111.42Z"/><path class="cls-59" d="M180.88,114a8.77,8.77,0,0,1,2.33-.41c.39,0,.6-.22.61-.61s0-.62,0-.93a.71.71,0,0,1,.54-.85.63.63,0,0,1,.18.45,55,55,0,0,1,0,5.6,3.09,3.09,0,0,1-.07.52c-1.12.93-2.28,1.8-3.47,2.64a2.14,2.14,0,0,1-.06-1.61,5.18,5.18,0,0,0,0-2.68A10,10,0,0,1,180.88,114Z"/><path class="cls-60" d="M184.09,101.27a1.44,1.44,0,0,1-1,.4c-.47-.07-.64.15-.59.6a1.74,1.74,0,0,1-.66,1.8.58.58,0,0,1-.53-.71c.12-1.46-.66-2.84-.42-4.32.07-.45-.33-.44-.65-.44,0-.51,0-1,0-1.52a.81.81,0,0,1,.54-.88,2.35,2.35,0,0,0,.35-1.26c0-.86.28-1.13,1.12-1.29a3,3,0,0,1,.6,0c.92,0,1-.15,1.08-1.11a1.56,1.56,0,0,1,.14-.9c.07-.11.18-.13.26,0a.88.88,0,0,1,.12.44c-.06,2,.13,4,.14,6a3,3,0,0,1-.11.72c0,.6,0,1.2,0,1.79C184.4,100.84,184.49,101.18,184.09,101.27Z"/><path class="cls-61" d="M159.92,136.35c-1.16,1-2.4,1.81-3.58,2.75-2.21,1.76-4.49,3.43-6.74,5.14a1.16,1.16,0,0,1-.22.13,33.08,33.08,0,0,1-3.11-2.28,6.82,6.82,0,0,0-1.71-1,10.51,10.51,0,0,1-2.29-1.58,7.29,7.29,0,0,0-1.67-1.61c-1.54-1.09-2.91-2.41-4.47-3.48-.18-.14-.44-.25-.36-.57a2.79,2.79,0,0,1,2,.79c.45.32.88.68,1.31,1a4.4,4.4,0,0,0,2.87.57c5.72.05,11.44,0,17.15,0C159.41,136.25,159.69,136.16,159.92,136.35Z"/><path class="cls-62" d="M135.77,133.84c.74.79,1.72,1.29,2.52,2,1.05.93,2.2,1.74,3.3,2.62a1.76,1.76,0,0,1,.72,1c-.4.07-.71-.2-1.07-.28a11.43,11.43,0,0,0-3.34-.48,1.75,1.75,0,0,1-1.23-.41c-.49-.38-1-.75-1.48-1.11a3.63,3.63,0,0,0-1.61-.76.59.59,0,0,1-.48-.3c-1.28-1.18-2.76-2.11-4.12-3.19a7.64,7.64,0,0,0-1.21-.93,26.15,26.15,0,0,1-4.59-3,1.65,1.65,0,0,1-.22-.24,2.6,2.6,0,0,1,1.86.73c.57.44,1.14.9,1.74,1.31a2,2,0,0,0,1.41.49,5.28,5.28,0,0,1,4.69,1.61,3.66,3.66,0,0,0,2.71.8Z"/><path class="cls-63" d="M183.69,78.31a15.64,15.64,0,0,1-.14-3.21,11,11,0,0,0,0-2.75c-.11-.53.1-.8.67-.72a5,5,0,0,0,.67,0,5.18,5.18,0,0,1,3.45,1.74,4.81,4.81,0,0,0-.2,1.56,1.55,1.55,0,0,1-.58,1.53c-.23.16-.21.46-.22.73a8.19,8.19,0,0,1,0,1,.78.78,0,0,1-.17.43,1.93,1.93,0,0,0-.47,1.59c0,.87-.09,1-.95,1.14s-.94.18-.91,1.16a3,3,0,0,1,0,.73c-.06.22-.1.51-.46.39a1.17,1.17,0,0,1-.15-.77A4.94,4.94,0,0,0,183.8,81,4.79,4.79,0,0,1,183.69,78.31Z"/><path class="cls-64" d="M187.16,78.18c0-.38,0-.75,0-1.13s0-.73.48-.89.32-.4.32-.67c0-.46,0-.93,0-1.39a.79.79,0,0,1,.39-.72A5.24,5.24,0,0,1,189.94,77c.07,1.46,0,2.93,0,4.39-.59,0-.74.42-.78.89a6.36,6.36,0,0,0,0,1.07.55.55,0,0,1-.43.65c-.46.09-.53.39-.51.78,0,.64.13,1.3-.69,1.61-.25.09-.22.45-.24.72,0,.45.14.93-.13,1.36a.15.15,0,0,1-.21-.07,1.7,1.7,0,0,1-.12-1,44.46,44.46,0,0,0,0-4.76C186.82,81.12,187.18,79.66,187.16,78.18Z"/><path class="cls-65" d="M183.69,78.31a11.16,11.16,0,0,1,.13,2.31c0,.08,0,.2,0,.25.8.82.4,1.84.5,2.78-.13.8,0,1.62-.19,2.41a1.5,1.5,0,0,1-1.33.45c-.48,0-.69.18-.59.68a3.22,3.22,0,0,1,0,.93c-.07.67-.43.86-1.11.6-.48-.09-.5-.46-.53-.84s.11-1-.14-1.42c.49-.66.24-1.41.23-2.12a1.41,1.41,0,0,1,.07-.76,1.22,1.22,0,0,0,.08-1,3.45,3.45,0,0,1,0-1.63c.47,0,.42-.39.39-.7s-.1-.43-.11-.65c0-.74.12-.91.86-.92C182.6,78.7,183.23,78.84,183.69,78.31Z"/><path class="cls-66" d="M181.15,88.72c1,0,1.07-.16.93-1.45-.1-.94-.1-1,.87-.94a2.66,2.66,0,0,0,1.14-.28c.45,0,.43.38.47.67a23.41,23.41,0,0,1,.24,4,.9.9,0,0,1-.58.8c-.27.38-.1.81-.13,1.22-.05.68-.2,1.18-1.06,1a3,3,0,0,0-.6,0c-.91.07-1.16.32-1.14,1.23a1.07,1.07,0,0,1-.54,1.17,43.51,43.51,0,0,1,.18-4.58A23.59,23.59,0,0,0,181.15,88.72Z"/><path class="cls-67" d="M133.1,136.11c1.49.16,2.53,1.16,3.65,2a1.66,1.66,0,0,0,1.22.39,11.22,11.22,0,0,1,3.63.59,4.25,4.25,0,0,1,.71.35c.38,0,.6.36.88.56a8.28,8.28,0,0,0,1.93,1.13,10.55,10.55,0,0,1,2.36,1.7,8.74,8.74,0,0,1,1.9,1.53,25.69,25.69,0,0,1-2.67,2,.75.75,0,0,1-.51-.21c-1.23-1.05-2.58-2-3.87-2.92-1.64-1.22-3.26-2.46-4.87-3.7-.61-.47-1.35-.65-2-1.11s-1.36-1.08-2.06-1.58a.73.73,0,0,1-.35-.46Z"/><path class="cls-68" d="M133.1,136.38a19.06,19.06,0,0,0,3,2.22,26.92,26.92,0,0,1,3.78,2.6c2,1.45,4,3,6,4.48a2.78,2.78,0,0,1,.39.44c-.29.23-.55,0-.79-.11a11.39,11.39,0,0,1-1.61-1.17,3.78,3.78,0,0,0-2-1,3.53,3.53,0,0,1-1.51-.66,7,7,0,0,1-.75-.56,4.52,4.52,0,0,0-3.82-1.31,1.37,1.37,0,0,1-.66-.07.3.3,0,0,1-.19-.23,30.21,30.21,0,0,0-3.17-2.35,15,15,0,0,1-2.44-1.82c-1.17-1.11-2.53-2-3.73-3a2.56,2.56,0,0,1,2.29,1c1.18,1.23,2.72,1.2,4.2,1.41A8,8,0,0,1,133.1,136.38Z"/><path class="cls-69" d="M135,141.05l.13.13c1,.57,1.8,1.53,2.85,2.06a28.29,28.29,0,0,1,3.41,2.41c.21.15.54.27.39.66a2.2,2.2,0,0,1-1.64-.32,5.08,5.08,0,0,1-1.14-.8,4.43,4.43,0,0,0-3.11-1.28,1.75,1.75,0,0,1-1.13-.48c-.48-.39-1-.75-1.48-1.12a3.56,3.56,0,0,0-2.17-1c-.33,0-.59-.29-.92-.35a33.47,33.47,0,0,1-2.72-2,2.63,2.63,0,0,0-.61-.39L121,134.05a1.56,1.56,0,0,1-.16-.2c.28-.3.54-.09.77.06.48.31.94.66,1.41,1a5.78,5.78,0,0,0,2.5,1.41,5,5,0,0,1,2.38,1.51,3.91,3.91,0,0,0,2.81.94,2.43,2.43,0,0,1,1.66.67c.61.51,1.24,1,1.89,1.45C134.44,141,134.67,141.21,135,141.05Z"/><path class="cls-70" d="M190,201.25c-.73-.09-.71.47-.79.93s.14.91-.13,1.33a.9.9,0,0,1-.21-.74c0-2.22,0-4.45,0-6.68a27.11,27.11,0,0,1,0-3.93,27.5,27.5,0,0,1,.43-3.62,10.21,10.21,0,0,0,.08-1.46c0-.32,0-.7.45-.78h0l.11.14Z"/><path class="cls-71" d="M184.22,91.53c0-.31.45-.34.4-.67a4.3,4.3,0,0,0,.06-1.43.71.71,0,0,1,.65-.83,10.61,10.61,0,0,1,1.69-.14h.14a7.7,7.7,0,0,1,.05,2.83,15.46,15.46,0,0,0-.05,1.8,1.52,1.52,0,0,1-.14.84c-.26.43-.1.9-.12,1.36,0,.76-.21,1-1,1.09s-.85.19-.87,1a2.73,2.73,0,0,1-.05.86c-.13.38-.3.72-.81.47a4.69,4.69,0,0,0,.11-2.23C184.14,94.84,184.28,93.18,184.22,91.53Z"/><path class="cls-72" d="M184.22,98.73c.48,0,.68-.25.67-.71,0-.31,0-.62,0-.93-.06-.65.26-.88.86-.9.89,0,1-.17,1-1.07,0-.4-.31-.9.24-1.19,0,.33,0,.67,0,1a2.41,2.41,0,0,0,.41,1.67c0,.42,0,.84,0,1.26a1.33,1.33,0,0,1-.28,1c-.26.28-.11.68-.12,1s0,.94,0,1.4c0,0-.06.07-.1.08a1.39,1.39,0,0,0-1.08,1.62c0,.74-.76,1.22-1.62,1.1a12.52,12.52,0,0,0-.13-2.8A9.81,9.81,0,0,0,184.22,98.73Z"/><path class="cls-73" d="M184.5,117.72a2.28,2.28,0,0,1-.13-1.43,10,10,0,0,0,0-2.56,19.79,19.79,0,0,1,0-2.18c0-.07.08-.18.15-.21a1.37,1.37,0,0,0,.87-1.64.83.83,0,0,1,.73-1c.58-.13.75-.5.74-1.06s-.14-.94.17-1.35l.27.27a28.17,28.17,0,0,1,0,3.79,31.75,31.75,0,0,0-.24,4.46,1.44,1.44,0,0,0,.15.84A30.65,30.65,0,0,1,184.5,117.72Z"/><path class="cls-74" d="M187,106.34c0,.56,0,1.11,0,1.66s-.14.77-.61.84c-.71.1-1,.48-.86,1.18.25,1-.51,1.25-1.2,1.53v-.4c0-2.36,0-4.72-.14-7.08a5.49,5.49,0,0,1,.68-.24,1,1,0,0,0,.8-1.15c0-1.14.16-1.32,1.32-1.41-.19,1.4.31,2.76.28,4.15A1.31,1.31,0,0,1,187,106.34Z"/><path class="cls-75" d="M130.16,140.92c.26-.26.43.1.65.1,1.74,0,2.78,1.39,4,2.3a2.92,2.92,0,0,0,1.72.5,3.06,3.06,0,0,1,1.81.71l1.37,1a3.49,3.49,0,0,0,2,.68c.14-.13.29-.06.41,0a24.05,24.05,0,0,1,2,1.51c.12.11.29.23.14.44l-2.16,1.64c-.27.12-.45-.06-.64-.21q-4.94-3.87-10-7.6C131.06,141.7,130.62,141.3,130.16,140.92Z"/><path class="cls-76" d="M189,196v7.88c-.24.31-.14.68-.13,1,0,1,0,1.23-1.28,1.38a.82.82,0,0,1-.63-.11.63.63,0,0,1-.12-.23c-.09-2.38-.11-4.76,0-7.15a2.17,2.17,0,0,0,.49-1.25C187.37,196.33,187.73,196,189,196Z"/><path class="cls-77" d="M187,221.13v-7.2a2,2,0,0,0,.79-1.89c0-.54.39-.8,1.22-.92a10.83,10.83,0,0,0,.13,2.67v4.94c-.21,0-.43.1-.64.13-1.09.15-1.07.14-1.11,1.25C187.4,220.47,187.68,221,187,221.13Z"/><path class="cls-78" d="M189,211.12A1.49,1.49,0,0,0,188,213c.11.65-.53.71-.93,1v-2.14a1,1,0,0,1-.21-.74c0-1.38,0-2.75,0-4.12a1,1,0,0,1,.21-.75c.42,0,.84-.08,1.25-.14a.55.55,0,0,0,.49-.61v-1.07c0-.2,0-.41.27-.44Z"/><path class="cls-79" d="M189,196a2.92,2.92,0,0,1-.36.17c-1.1.42-1.12.42-1.1,1.64,0,.44-.12.73-.55.86-.34-.43-.15-.94-.19-1.41s0-.67,0-1c0-1.77,0-3.55,0-5.32-.07-1.95.21-3.9.14-5.85a.69.69,0,0,1,.35-.74,27.21,27.21,0,0,1,2.51,1.91.55.55,0,0,0-.24.46,12.72,12.72,0,0,1-.3,3.14A43.43,43.43,0,0,0,189,196Z"/><path class="cls-80" d="M187.31,184.39a1.25,1.25,0,0,0-.15.63c.1,2-.19,4-.14,5.95a.94.94,0,0,1-.9.45.62.62,0,0,0-.64.69c0,.34,0,.67,0,1a.9.9,0,0,1-1.24.79v-9.45a1.06,1.06,0,0,1,.3-.94c.29-.24,0-.76.12-1.15A32.91,32.91,0,0,1,187.31,184.39Z"/><path class="cls-81" d="M144.31,148.23a10.12,10.12,0,0,0-2.53-2,22.51,22.51,0,0,0-3.46-2.6,15.75,15.75,0,0,1-3.22-2.47,5.06,5.06,0,0,0,.87,0,4.42,4.42,0,0,1,3.68,1.27,5,5,0,0,0,2.73,1.37c1,.13,1.56.95,2.33,1.44.52.33.93.83,1.6.87l.4.24A21.74,21.74,0,0,1,144.31,148.23Z"/><path class="cls-82" d="M184.22,193.9c1-.16,1.07-.28,1.07-1.22,0-.25,0-.49,0-.73,0-.51.23-.75.73-.71a1.75,1.75,0,0,0,1-.27v5.34c-.35.4-.18.89-.19,1.34s-.11,1.06-.74,1.26c-.33.11-.34.39-.33.66a2.43,2.43,0,0,1-.65,2.07c-.34.32-.12.9-.17,1.36s-.13.81-.72.65V193.9Z"/><path class="cls-83" d="M187,206.18v5.61c-.26.4-.1.86-.12,1.28s-.18.72-.66.72-.87.3-.83.92a2.06,2.06,0,0,1-.41,1.66c-.35.41-.07,1.1-.21,1.67s-.33.73-.83.69c.18-1.78.07-3.58.15-5.36,0-.61.11-1.23.11-1.85v-2.8a1.32,1.32,0,0,0,1-1.41c0-1.19.52-1.55,1.77-1.26Z"/><path class="cls-84" d="M187,206.05c-.16,0-.33.1-.5.13-1.09.14-1.09.14-1.1,1.27s-.21,1.25-1.2,1.27v-5.07c.42,0,.57-.27.54-.68s0-.66,0-1c0-.18,0-.41.12-.49.87-.42.68-1.2.67-1.91,0-.48,0-.89.66-.9.28,0,.42-.29.41-.59s0-.8,0-1.2,0-.54.4-.57v9.74Z"/><path class="cls-85" d="M187,88.46a2,2,0,0,1-1.19.27c-1,0-1.06.13-1.08,1,0,.36.14.75-.13,1.08a33.92,33.92,0,0,0-.26-4.39.48.48,0,0,0-.27-.42c0-.57,0-1.14,0-1.7a.77.77,0,0,1,.28-.7c.52-.47.3-1.09.2-1.61s.13-.68.53-.78c1.39-.32,1.39-.32,1.4-1.76,0-.31,0-.62.34-.77s.2-.38.33-.55a6.51,6.51,0,0,1,0,3,6.94,6.94,0,0,0,0,2.49,12.17,12.17,0,0,1,0,2.56C187,87,187,87.73,187,88.46Z"/></g></svg>