<svg xmlns="http://www.w3.org/2000/svg" viewBox="0 0 300 300"><defs><style>.cls-1{fill:#2c2c32;}.cls-2{fill:#fff;}.cls-3{fill:#f9f9fa;}</style></defs><g id="Fondos"><rect class="cls-1" width="300" height="300"/></g><g id="Texto"><path class="cls-2" d="M40,60c2.83,1.11,2.78,1.11,4.07,1.66C55.49,66.62,67.26,70.72,79,75c3,1.1,3.71,3.08,3.71,6.06,0,2.77-.63,4.86-3.49,6C66.06,91.58,53.3,97.36,40,101.45V92.27l29.63-11.2c-10-4-20-7.88-29.63-11.36Z"/><path class="cls-3" d="M104.32,114.53c-6.47,0-14.94.06-21.41,0,0-1.4,0-2.79,0-4.18s0-2.77,0-4.19c6.91,0,14.81.18,21.22,0h20.4s0,2.82,0,4.21c0,1.24,0,4.16,0,4.16Z"/></g></svg>