<?xml version="1.0" encoding="utf-8"?>
<!-- Generator: Adobe Illustrator 25.4.1, SVG Export Plug-In . SVG Version: 6.00 Build 0)  -->
<svg version="1.1" xmlns="http://www.w3.org/2000/svg" xmlns:xlink="http://www.w3.org/1999/xlink" x="0px" y="0px"
	 viewBox="0 0 300 300" style="enable-background:new 0 0 300 300;" xml:space="preserve">
<style type="text/css">
	.st0{fill:#4674B9;}
	.st1{fill:#2C2C32;}
	.st2{fill:#010101;}
	.st3{fill:#F6DF19;}
	.st4{fill:#2363AF;}
	.st5{fill:#F0672B;}
	.st6{fill:#101215;}
	.st7{fill:#492D8C;}
	.st8{fill:#F36C3D;}
	.st9{fill:#7756A3;}
	.st10{fill:#679E63;}
	.st11{fill:#484848;}
	.st12{fill:#1B1F23;}
	.st13{fill:#EF7729;}
	.st14{fill:#4791CE;}
	.st15{fill:#F6F6F6;}
	.st16{fill:#4A4A4D;}
	.st17{fill:#C54027;}
	.st18{fill:#3978BD;}
	.st19{fill:#CC6899;}
	.st20{fill:#12364F;}
	.st21{fill:#316A9A;}
	.st22{fill:#FFD53E;}
	.st23{fill:#693994;}
	.st24{fill:#FFFFFF;}
	.st25{fill-rule:evenodd;clip-rule:evenodd;fill:#FFFFFF;}
	.st26{fill-rule:evenodd;clip-rule:evenodd;fill:url(#XMLID_00000013878190576983450140000015396426215598365881_);}
	.st27{clip-path:url(#XMLID_00000088835126043121167460000003764407447709160081_);}
	.st28{fill:none;}
	.st29{opacity:0.66;fill:#4B4B4B;}
	.st30{fill:url(#SVGID_1_);}
	.st31{opacity:0.05;fill:#010101;enable-background:new    ;}
	.st32{fill:#17AA4F;}
	.st33{fill:#B8C4C2;}
	.st34{fill:#14924F;}
	.st35{fill:#22323D;}
	.st36{fill:#F26424;}
	.st37{fill:#4E4E4E;}
	.st38{fill:#3B2F14;}
	.st39{fill:#F58772;}
	.st40{fill:#F05233;}
	.st41{fill:#433527;}
	.st42{fill:#DD1E34;}
	.st43{fill:#C32033;}
	.st44{fill:#F9F9FA;}
	.st45{fill:#7253A2;}
	.st46{fill:#4674B9;stroke:#FFFFFF;stroke-width:8;stroke-miterlimit:10;}
	.st47{fill:#EF4623;}
	.st48{fill:#4EB987;}
	.st49{fill:#455567;}
	.st50{fill:#F1F2F2;}
	.st51{fill:#70CEEF;}
	.st52{fill:#70CFF0;}
	.st53{opacity:0.7;fill:#2C384A;enable-background:new    ;}
	.st54{fill:url(#path-2_00000098186818618279373800000000474685990779837578_);}
	.st55{filter:url(#Adobe_OpacityMaskFilter);}
	.st56{mask:url(#mask-3_3_);}
	.st57{fill:#F9A01B;}
	.st58{fill:#F47D20;}
	.st59{fill:#FFCB2A;}
	.st60{fill:#FFFFFF;fill-opacity:0.2;}
	.st61{opacity:0.2;fill:#A52A22;enable-background:new    ;}
	.st62{filter:url(#Adobe_OpacityMaskFilter_00000109026989792396146140000007244244494719046566_);}
	.st63{mask:url(#mask-3_2_);fill:none;}
	.st64{filter:url(#Adobe_OpacityMaskFilter_00000029760943742413957710000000863484156825711293_);}
	.st65{mask:url(#mask-3_1_);fill:url(#_Path_5_00000096753730077178154770000000633260199029461409_);}
	.st66{fill:#5BADE0;}
	.st67{fill:#4699D4;}
	.st68{fill:#318ECD;}
	.st69{fill:#3390CE;}
	.st70{fill:#1773B0;}
	.st71{fill:#489BD5;}
	.st72{fill:#2884C6;}
	.st73{fill:#2682C5;}
	.st74{fill:#2480C4;}
	.st75{fill:#237EC2;}
	.st76{fill:#4497D2;}
	.st77{fill:#1571AF;}
	.st78{fill:#237DC1;}
	.st79{fill:#1B72AD;}
	.st80{fill:#1B6CA3;}
	.st81{fill:#196FA9;}
	.st82{fill:#1D77BD;}
	.st83{fill:#207ABF;}
	.st84{fill:#2D7FB8;}
	.st85{fill:#3383BA;}
	.st86{fill:#287EB6;}
	.st87{fill:#63B0E1;}
	.st88{fill:#3887BC;}
	.st89{fill:#3B89BD;}
	.st90{fill:#3792D0;}
	.st91{fill:#2A78AC;}
	.st92{fill:#2973A8;}
	.st93{fill:#2A7CB3;}
	.st94{fill:#3F88BA;}
	.st95{fill:#59ABDF;}
	.st96{fill:#3A7FAF;}
	.st97{fill:#317BAC;}
	.st98{fill:#367DAE;}
	.st99{fill:#2C8BCB;}
	.st100{fill:#2E8DCC;}
	.st101{fill:#1A75B1;}
	.st102{fill:#1F77B2;}
	.st103{fill:#1D74AF;}
	.st104{fill:#1D72AA;}
	.st105{fill:#206FA5;}
	.st106{fill:#499FD8;}
	.st107{fill:#489CD6;}
	.st108{fill:#4DA1D9;}
	.st109{fill:#51A6DC;}
	.st110{fill:#4FA4DB;}
	.st111{fill:#0F72B7;}
	.st112{fill:#0770B7;}
	.st113{fill:#56A8DD;}
	.st114{fill:#2A88C9;}
	.st115{fill:#227FC3;}
	.st116{fill:#1F7DC1;}
	.st117{fill:#1D7BC0;}
	.st118{fill:#1474BB;}
	.st119{fill:#1071B9;}
	.st120{fill:#1E79BF;}
	.st121{fill:#1875BC;}
	.st122{fill:#3381B5;}
	.st123{fill:#2F7FB4;}
	.st124{fill:#3883B6;}
	.st125{fill:#267BB5;}
	.st126{fill:#297AB2;}
	.st127{fill:#3E86B6;}
	.st128{fill:#3C81B1;}
	.st129{fill:#3B87B9;}
	.st130{fill:#3A85B8;}
	.st131{fill:#2378B1;}
	.st132{fill:#2675AC;}
	.st133{fill:#2572A6;}
	.st134{fill:#0D74B8;}
	.st135{fill:#3882B4;}
	.st136{fill:#367FB2;}
	.st137{fill:#307CAF;}
	.st138{fill:#337EB0;}
	.st139{fill:#2271A5;}
	.st140{fill:#0E75BB;}
	.st141{fill:#0D73BB;}
	.st142{fill:#0B74BC;}
	.st143{fill:#1578BC;}
	.st144{fill:#1C7CC1;}
	.st145{fill:#2575AB;}
	.st146{fill:#1B7BC0;}
	.st147{fill:#1876BD;}
	.st148{fill:#1978BE;}
	.st149{fill:#3C84B4;}
	.st150{fill-rule:evenodd;clip-rule:evenodd;fill:#687E91;}
	.st151{fill:#037690;}
	.st152{fill:#F29220;}
	.st153{fill-rule:evenodd;clip-rule:evenodd;fill:#F29220;}
	.st154{fill-rule:evenodd;clip-rule:evenodd;fill:#037690;}
	.st155{display:none;}
	.st156{display:inline;fill-rule:evenodd;clip-rule:evenodd;fill:#2BB673;}
	.st157{display:inline;opacity:0.15;fill-rule:evenodd;clip-rule:evenodd;fill:#2BB673;}
</style>
<g id="Fondos_1_">
	<rect x="0" class="st7" width="300" height="300"/>
</g>
<g id="Texto">
	<path class="st25" d="M159.48,213.71c4.36,0,8.89,2.77,8.89,9.41c0,6.64-4.53,9.41-8.89,9.41c-4.39,0-8.91-2.77-8.91-9.41
		C150.56,216.48,155.09,213.71,159.48,213.71z M199.35,214.05v10.83c0,2.5,0.81,3.62,2.77,3.62c1.96,0,2.74-1.13,2.74-3.62v-10.83
		h4.8v10.85c0,4.8-2.3,7.54-7.59,7.54c-5.29,0-7.62-2.74-7.62-7.54v-10.85H199.35z M178.71,214.05v6.56l5-6.56h5.68l-6.1,7.15
		l6.64,10.97h-5.54l-4.29-7.25l-1.4,1.62v5.63h-4.9v-18.12H178.71z M125.08,214.05v4.07h-8.03v2.94h5.73v3.82h-5.73v3.35h8.45v3.94
		h-13.35v-18.12H125.08z M137.96,214.05c4.65,0,7.49,1.54,7.49,5.9c0,2.84-1.2,4.48-3.58,5.29l3.85,6.93h-5.19l-3.5-6.29h-1.35v6.29
		h-4.8v-18.12H137.96z M94.92,214.05v6.73h6.03v-6.73h4.9v18.12h-4.9v-7.32h-6.03v7.32h-4.9v-18.12H94.92z M159.47,217.75
		c-2.57,0-4.02,2.03-4.02,5.36c0,3.33,1.45,5.49,4.02,5.49c2.55,0,3.99-2.16,3.99-5.49C163.47,219.78,162.02,217.75,159.47,217.75z
		 M137.78,218.02h-2.11v4.14h2.11c2.01,0,2.89-0.56,2.89-2.08S139.79,218.02,137.78,218.02z M197.7,67.48
		c6.61,0,11.96,5.36,11.96,11.96l0,0v109.01c0,6.61-5.36,11.96-11.96,11.96l0,0h-95.71c-6.61,0-11.96-5.36-11.96-11.96l0,0V79.45
		c0-6.61,5.36-11.96,11.96-11.96l0,0H197.7z M197.7,74.13h-95.71c-2.93,0-5.32,2.38-5.32,5.32l0,0v109.01
		c0,2.93,2.39,5.32,5.32,5.32l0,0h95.71c2.93,0,5.32-2.39,5.32-5.32l0,0V79.45C203.01,76.51,200.63,74.13,197.7,74.13L197.7,74.13z
		 M121.59,153.89l14.96,13.29l-14.96,13.29V153.89z M134.89,87.42v37.74c6.64-2.16,15.91-4.5,24.93-4.5
		c8.22,0,13.14,3.23,15.81,5.94c5.48,5.54,5.78,12.54,5.79,13.86l0,40.02h-13.29v-39.7c-0.06-3.1-1.56-6.83-8.31-6.83
		c-13.52,0-28.68,6.8-28.83,6.87l0,0l-9.39,4.25V87.42H134.89z M181.41,87.42c-0.9,7.55-3.96,14.79-9.97,21.6l0,0h-13.29
		c5.22-6.85,8.5-14.07,9.97-21.6l0,0H181.41z"/>
</g>
<g id="Guides">
</g>
<g id="Layer_5" class="st155">
	<rect x="59.79" y="59.6" class="st156" width="180.21" height="180.21"/>
</g>
</svg>
