<?xml version="1.0" encoding="utf-8"?>
<!-- Generator: Adobe Illustrator 25.4.1, SVG Export Plug-In . SVG Version: 6.00 Build 0)  -->
<svg version="1.1" xmlns="http://www.w3.org/2000/svg" xmlns:xlink="http://www.w3.org/1999/xlink" x="0px" y="0px"
	 viewBox="0 0 300 300" style="enable-background:new 0 0 300 300;" xml:space="preserve">
<style type="text/css">
	.st0{fill:#4674B9;}
	.st1{fill:#2C2C32;}
	.st2{fill:#010101;}
	.st3{fill:#F6DF19;}
	.st4{fill:#2363AF;}
	.st5{fill:#F0672B;}
	.st6{fill:#101215;}
	.st7{fill:#492D8C;}
	.st8{fill:#F36C3D;}
	.st9{fill:#7756A3;}
	.st10{fill:#679E63;}
	.st11{fill:#484848;}
	.st12{fill:#1B1F23;}
	.st13{fill:#EF7729;}
	.st14{fill:#4791CE;}
	.st15{fill:#F6F6F6;}
	.st16{fill:#4A4A4D;}
	.st17{fill:#C54027;}
	.st18{fill:#3978BD;}
	.st19{fill:#CC6899;}
	.st20{fill:#12364F;}
	.st21{fill:#316A9A;}
	.st22{fill:#FFD53E;}
	.st23{fill:#693994;}
	.st24{fill:#FFFFFF;}
	.st25{fill-rule:evenodd;clip-rule:evenodd;fill:#FFFFFF;}
	.st26{fill-rule:evenodd;clip-rule:evenodd;fill:url(#XMLID_00000083050803771887634380000004007212642984570532_);}
	.st27{clip-path:url(#XMLID_00000111872974910591559830000014306298542585129615_);}
	.st28{fill:none;}
	.st29{opacity:0.66;fill:#4B4B4B;}
	.st30{fill:url(#SVGID_1_);}
	.st31{opacity:0.05;fill:#010101;enable-background:new    ;}
	.st32{fill:#17AA4F;}
	.st33{fill:#B8C4C2;}
	.st34{fill:#14924F;}
	.st35{fill:#22323D;}
	.st36{fill:#F26424;}
	.st37{fill:#4E4E4E;}
	.st38{fill:#3B2F14;}
	.st39{fill:#F58772;}
	.st40{fill:#F05233;}
	.st41{fill:#433527;}
	.st42{fill:#DD1E34;}
	.st43{fill:#C32033;}
	.st44{fill:#F9F9FA;}
	.st45{fill:#7253A2;}
	.st46{fill:#4674B9;stroke:#FFFFFF;stroke-width:8;stroke-miterlimit:10;}
	.st47{fill:#EF4623;}
	.st48{fill:#4EB987;}
	.st49{fill:#455567;}
	.st50{fill:#F1F2F2;}
	.st51{fill:#70CEEF;}
	.st52{fill:#70CFF0;}
	.st53{opacity:0.7;fill:#2C384A;enable-background:new    ;}
	.st54{fill:url(#path-2_00000016073737214493169340000017443067721805296017_);}
	.st55{filter:url(#Adobe_OpacityMaskFilter);}
	.st56{mask:url(#mask-3_3_);}
	.st57{fill:#F9A01B;}
	.st58{fill:#F47D20;}
	.st59{fill:#FFCB2A;}
	.st60{fill:#FFFFFF;fill-opacity:0.2;}
	.st61{opacity:0.2;fill:#A52A22;enable-background:new    ;}
	.st62{filter:url(#Adobe_OpacityMaskFilter_00000019640672031770461860000006407179478080479107_);}
	.st63{mask:url(#mask-3_2_);fill:none;}
	.st64{filter:url(#Adobe_OpacityMaskFilter_00000136375193231655955310000001449549992783266195_);}
	.st65{mask:url(#mask-3_1_);fill:url(#_Path_5_00000007413143870506687510000006160976907496378788_);}
	.st66{fill:#5BADE0;}
	.st67{fill:#4699D4;}
	.st68{fill:#318ECD;}
	.st69{fill:#3390CE;}
	.st70{fill:#1773B0;}
	.st71{fill:#489BD5;}
	.st72{fill:#2884C6;}
	.st73{fill:#2682C5;}
	.st74{fill:#2480C4;}
	.st75{fill:#237EC2;}
	.st76{fill:#4497D2;}
	.st77{fill:#1571AF;}
	.st78{fill:#237DC1;}
	.st79{fill:#1B72AD;}
	.st80{fill:#1B6CA3;}
	.st81{fill:#196FA9;}
	.st82{fill:#1D77BD;}
	.st83{fill:#207ABF;}
	.st84{fill:#2D7FB8;}
	.st85{fill:#3383BA;}
	.st86{fill:#287EB6;}
	.st87{fill:#63B0E1;}
	.st88{fill:#3887BC;}
	.st89{fill:#3B89BD;}
	.st90{fill:#3792D0;}
	.st91{fill:#2A78AC;}
	.st92{fill:#2973A8;}
	.st93{fill:#2A7CB3;}
	.st94{fill:#3F88BA;}
	.st95{fill:#59ABDF;}
	.st96{fill:#3A7FAF;}
	.st97{fill:#317BAC;}
	.st98{fill:#367DAE;}
	.st99{fill:#2C8BCB;}
	.st100{fill:#2E8DCC;}
	.st101{fill:#1A75B1;}
	.st102{fill:#1F77B2;}
	.st103{fill:#1D74AF;}
	.st104{fill:#1D72AA;}
	.st105{fill:#206FA5;}
	.st106{fill:#499FD8;}
	.st107{fill:#489CD6;}
	.st108{fill:#4DA1D9;}
	.st109{fill:#51A6DC;}
	.st110{fill:#4FA4DB;}
	.st111{fill:#0F72B7;}
	.st112{fill:#0770B7;}
	.st113{fill:#56A8DD;}
	.st114{fill:#2A88C9;}
	.st115{fill:#227FC3;}
	.st116{fill:#1F7DC1;}
	.st117{fill:#1D7BC0;}
	.st118{fill:#1474BB;}
	.st119{fill:#1071B9;}
	.st120{fill:#1E79BF;}
	.st121{fill:#1875BC;}
	.st122{fill:#3381B5;}
	.st123{fill:#2F7FB4;}
	.st124{fill:#3883B6;}
	.st125{fill:#267BB5;}
	.st126{fill:#297AB2;}
	.st127{fill:#3E86B6;}
	.st128{fill:#3C81B1;}
	.st129{fill:#3B87B9;}
	.st130{fill:#3A85B8;}
	.st131{fill:#2378B1;}
	.st132{fill:#2675AC;}
	.st133{fill:#2572A6;}
	.st134{fill:#0D74B8;}
	.st135{fill:#3882B4;}
	.st136{fill:#367FB2;}
	.st137{fill:#307CAF;}
	.st138{fill:#337EB0;}
	.st139{fill:#2271A5;}
	.st140{fill:#0E75BB;}
	.st141{fill:#0D73BB;}
	.st142{fill:#0B74BC;}
	.st143{fill:#1578BC;}
	.st144{fill:#1C7CC1;}
	.st145{fill:#2575AB;}
	.st146{fill:#1B7BC0;}
	.st147{fill:#1876BD;}
	.st148{fill:#1978BE;}
	.st149{fill:#3C84B4;}
	.st150{fill-rule:evenodd;clip-rule:evenodd;fill:#687E91;}
	.st151{fill:#037690;}
	.st152{fill:#F29220;}
	.st153{fill-rule:evenodd;clip-rule:evenodd;fill:#F29220;}
	.st154{fill-rule:evenodd;clip-rule:evenodd;fill:#037690;}
	.st155{display:none;}
	.st156{display:inline;fill-rule:evenodd;clip-rule:evenodd;fill:#2BB673;}
	.st157{display:inline;opacity:0.15;fill-rule:evenodd;clip-rule:evenodd;fill:#2BB673;}
</style>
<g id="Fondos_1_">
	<rect x="0" class="st14" width="300" height="300"/>
</g>
<g id="Texto">
	<g>
		<path class="st24" d="M138.35,121.68c-14.97,0-29.95,0.02-44.92-0.02c-2.37-0.01-4.69,1.65-4.62,4.64
			c0.05,2.23,0.13,4.46,0.33,6.69c0.52,5.52,1.65,10.89,3.6,16.09c1.82,4.85,4.32,9.3,7.86,13.12c4.08,4.41,9.19,7.05,14.88,8.67
			c8.22,2.34,16.62,2.98,25.12,2.65c4.82-0.19,9.59-0.7,14.31-1.69c7.41-1.56,14.47-4.07,21.02-7.92
			c8.75-5.15,15.67-12.16,21.06-20.73c3.12-4.96,5.62-10.22,7.78-15.66c0.24-0.61,0.54-0.8,1.18-0.78c2.33,0.06,4.65-0.16,6.9-0.8
			c6.42-1.83,11.06-5.63,13.29-12.08c0.14-0.4,0.08-0.62-0.26-0.91c-2.48-2.16-5.48-3.01-8.64-3.44c-2.96-0.4-5.91-0.25-8.85,0.22
			c-0.32,0.05-0.43-0.03-0.49-0.36c-0.18-1.1-0.44-2.19-0.83-3.24c-1.96-5.34-5.53-9.26-10.5-11.96c-0.35-0.19-0.5-0.09-0.71,0.19
			c-1.97,2.67-3.42,5.6-4.28,8.8c-1.45,5.42-1.12,10.66,1.79,15.58c0.27,0.45,0.13,0.61-0.28,0.8c-3.15,1.42-6.48,2.09-9.89,2.11
			C168.25,121.71,153.3,121.68,138.35,121.68z M124.24,103.49c1.96,0,3.92,0,5.89,0c0.93,0,1.33-0.4,1.33-1.34
			c0.01-3.4,0.01-6.8,0-10.2c0-1.03-0.38-1.42-1.4-1.42c-3.83-0.01-7.67-0.01-11.5,0c-1.02,0-1.4,0.39-1.41,1.42
			c-0.01,3.4-0.01,6.8,0,10.2c0,0.93,0.41,1.34,1.34,1.34C120.41,103.49,122.33,103.49,124.24,103.49z M124.35,106.09
			c-1.92,0-3.83,0-5.75,0c-1.07,0-1.45,0.36-1.45,1.43c0,3.35,0,6.71,0,10.06c0,1.07,0.36,1.46,1.43,1.47
			c3.81,0.01,7.62,0.01,11.43,0c1.08,0,1.44-0.39,1.44-1.45c0-3.38,0.01-6.75,0-10.13c0-0.99-0.38-1.37-1.36-1.37
			C128.19,106.09,126.27,106.09,124.35,106.09z M141.32,106.09c-1.94,0-3.88,0-5.82,0c-0.97,0-1.37,0.39-1.37,1.37
			c-0.01,3.38-0.01,6.75,0,10.13c0,1.03,0.37,1.45,1.38,1.45c3.86,0.02,7.71,0.02,11.57,0c0.99,0,1.36-0.41,1.36-1.39
			c0.01-3.4,0.01-6.8,0-10.2c0-0.98-0.4-1.36-1.38-1.36C145.15,106.09,143.24,106.09,141.32,106.09z M174.99,106.09
			c-1.89,0-3.79,0-5.68,0c-1.08,0-1.47,0.36-1.47,1.41c-0.01,3.38-0.01,6.75,0,10.13c0,0.99,0.37,1.41,1.35,1.41
			c3.88,0.02,7.76,0.02,11.64,0c0.95,0,1.33-0.42,1.33-1.36c0.01-3.42,0.01-6.84,0-10.27c0-0.94-0.4-1.32-1.34-1.32
			C178.87,106.09,176.93,106.09,174.99,106.09z M141.29,103.49c1.89,0,3.79,0,5.68,0c1.1,0,1.48-0.37,1.48-1.48
			c0.01-3.33,0-6.66,0-9.99c0-1.12-0.37-1.49-1.47-1.49c-3.79,0-7.57,0-11.36,0c-1.1,0-1.48,0.38-1.48,1.49
			c-0.01,3.35-0.01,6.71,0,10.06c0,1.02,0.4,1.41,1.4,1.42C137.45,103.49,139.37,103.49,141.29,103.49z M107.57,119
			c1.94,0,3.88,0,5.81,0c0.97,0,1.35-0.34,1.35-1.3c0.02-3.44,0.02-6.89,0-10.33c0-0.89-0.43-1.28-1.32-1.28c-3.88,0-7.75,0-11.63,0
			c-0.94,0-1.34,0.39-1.35,1.32c-0.01,3.42-0.01,6.84,0,10.26c0,0.97,0.36,1.33,1.32,1.33C103.69,119.01,105.63,119,107.57,119z
			 M158.11,90.57c-1.96,0-3.92,0-5.88,0c-0.94,0-1.28,0.34-1.28,1.28c0,3.44,0,6.88,0,10.33c0,0.92,0.38,1.3,1.28,1.3
			c3.9,0.01,7.8,0.01,11.7,0c0.9,0,1.28-0.39,1.28-1.3c0-3.44,0-6.88,0-10.33c0-0.93-0.35-1.28-1.28-1.28
			C161.98,90.57,160.04,90.57,158.11,90.57z M158.08,87.91c1.92,0,3.83,0,5.75,0c1.02,0,1.37-0.34,1.37-1.34c0-3.4,0-6.8,0-10.2
			c0-1.01-0.35-1.37-1.35-1.37c-3.86,0-7.72,0-11.57,0c-0.97,0-1.33,0.36-1.33,1.31c0,3.42,0,6.85,0,10.27
			c0,0.98,0.34,1.32,1.31,1.33C154.19,87.92,156.13,87.91,158.08,87.91z M158.07,119c1.94,0,3.88,0,5.82,0
			c0.96,0,1.3-0.36,1.31-1.33c0-3.4,0-6.8,0-10.2c0-1.01-0.35-1.37-1.34-1.37c-3.86,0-7.72,0-11.57,0c-0.97,0-1.34,0.36-1.34,1.31
			c0,3.42,0,6.85,0,10.27c0,0.98,0.33,1.32,1.31,1.33C154.19,119.01,156.13,119,158.07,119z"/>
		<path class="st24" d="M59.72,212.24c0.28-0.93,0.31-1.92,0.64-2.84c2.11-5.91,6.15-9.61,12.42-10.58
			c4.14-0.64,7.98,0.28,11.36,2.83c0.09,0.06,0.18,0.11,0.37,0.23c0.02-0.32,0.04-0.55,0.04-0.79c0-4.13,0-8.26,0-12.39
			c0-1.97,1.18-3.21,2.97-3.16c1.54,0.04,2.74,1.21,2.74,2.75c0.01,8.85,0.09,17.71-0.04,26.56c-0.07,4.81-2.43,8.55-6.22,11.42
			c-2.06,1.56-4.4,2.46-6.96,2.81c-0.13,0.02-0.28-0.03-0.34,0.15c-1.1,0-2.19,0-3.29,0c-0.09-0.19-0.27-0.12-0.42-0.14
			c-6.07-0.77-11.26-5.31-12.79-11.23c-0.2-0.76-0.32-1.55-0.48-2.32C59.72,214.43,59.72,213.33,59.72,212.24z M84.55,213.99
			c0.03-5.28-4.23-9.62-9.49-9.66c-5.22-0.05-9.57,4.24-9.6,9.48c-0.03,5.31,4.17,9.64,9.38,9.67
			C80.22,223.5,84.53,219.3,84.55,213.99z"/>
		<path class="st24" d="M196.98,229.22c-0.6-0.11-1.2-0.21-1.79-0.34c-6.26-1.4-10.93-6.49-11.79-12.87
			c-0.9-6.61,2.43-12.99,8.48-15.84c9.81-4.62,20.3,1.77,21.79,11.35c0.12,0.76,0.18,1.54,0.17,2.32c-0.02,1.76-1.14,2.93-2.91,2.93
			c-6.8,0.01-13.6,0.01-20.4,0.01c-0.18,0-0.37,0.02-0.55,0c-0.56-0.06-0.6,0.17-0.42,0.63c1.01,2.49,2.72,4.35,5.21,5.33
			c3.7,1.45,7.15,1,10.19-1.71c1.27-1.13,2.96-1.12,4.05,0.02c1.11,1.16,1.07,3.01-0.17,4.17c-2.33,2.19-5.08,3.5-8.27,3.88
			c-0.16,0.02-0.32-0.01-0.44,0.13C199.08,229.22,198.03,229.22,196.98,229.22z M198.55,211.12c2.78,0,5.57,0,8.35,0
			c0.87,0,0.86,0,0.53-0.81c-1.38-3.37-5.06-6.26-9.54-5.89c-3.9,0.32-6.69,2.3-8.29,5.9c-0.33,0.74-0.27,0.8,0.52,0.8
			C192.94,211.13,195.75,211.12,198.55,211.12z"/>
		<path class="st24" d="M158.49,229.22c-0.61-0.25-1.22-0.47-1.66-1.01c-0.4-0.49-0.68-1.02-0.69-1.67c0-0.16-0.01-0.32-0.01-0.48
			c0-12.46,0-24.92-0.01-37.38c0-1.08,0.28-1.98,1.19-2.61c0.92-0.64,1.91-0.73,2.91-0.23c1,0.5,1.56,1.32,1.57,2.46
			c0.01,3.33,0.01,6.66,0.01,10c0,3.74,0,7.48,0,11.23c0.32,0.09,0.48-0.15,0.67-0.28c5.15-3.34,10.29-6.69,15.43-10.03
			c1.96-1.27,4.26-0.32,4.6,1.92c0.17,1.15-0.24,2.09-1.26,2.74c-3.53,2.27-7.04,4.57-10.57,6.84c-0.52,0.33-0.62,0.52-0.16,1.03
			c3.75,4.17,7.48,8.37,11.2,12.57c1.56,1.76,0.84,4.12-1.42,4.79c-0.06,0.02-0.11,0.07-0.17,0.11c-0.32,0-0.64,0-0.96,0
			c-0.95-0.26-1.57-0.93-2.2-1.63c-3.81-4.31-7.64-8.59-11.46-12.89c-0.3-0.34-0.52-0.31-0.86-0.08c-0.75,0.52-1.51,1.03-2.29,1.5
			c-0.42,0.25-0.57,0.55-0.57,1.04c0.02,3.01,0.02,6.03,0.01,9.04c-0.01,1.52-0.73,2.47-2.19,2.92c-0.06,0.02-0.11,0.07-0.17,0.11
			C159.12,229.22,158.81,229.22,158.49,229.22z"/>
		<path class="st24" d="M106.84,229.22c-0.71-0.31-1.49-0.3-2.23-0.5c-5.99-1.62-10.38-6.57-11.23-12.71
			c-1.08-7.82,3.88-15.14,11.52-16.98c8.38-2.02,16.82,3.29,18.6,11.69c1.75,8.3-3.49,16.36-11.81,18.17
			c-0.52,0.11-1.08,0.05-1.57,0.33C109.04,229.22,107.94,229.22,106.84,229.22z M118.09,213.9c0-5.23-4.31-9.56-9.52-9.58
			c-5.25-0.02-9.62,4.33-9.63,9.56c0,5.28,4.3,9.59,9.58,9.59C113.81,223.47,118.09,219.19,118.09,213.9z"/>
		<path class="st24" d="M140.27,229.22c-0.97-0.37-2.03-0.36-3.01-0.73c-5.87-2.21-9.56-6.28-10.41-12.57
			c-0.94-6.96,2.62-13.38,9.08-16.04c5.64-2.33,11.03-1.6,15.85,2.32c0.97,0.79,1.3,1.81,1.06,2.99c-0.2,1.01-0.83,1.73-1.84,2.02
			c-1.05,0.3-2.02,0.13-2.89-0.58c-1.53-1.25-3.25-2.05-5.26-2.24c-4.33-0.41-8.51,2.23-9.95,6.36c-1.41,4.05,0.01,8.49,3.53,10.98
			c3.5,2.48,8.16,2.32,11.51-0.39c1.91-1.54,4.43-0.76,4.86,1.51c0.2,1.1-0.18,2.02-1.02,2.75c-2.21,1.93-4.79,3.05-7.68,3.46
			c-0.14,0.02-0.33-0.05-0.41,0.15C142.55,229.22,141.41,229.22,140.27,229.22z"/>
		<path class="st24" d="M219.17,229.22c-0.07-0.05-0.14-0.11-0.22-0.14c-1.36-0.5-2.08-1.45-2.08-2.89
			c-0.01-8.19-0.01-16.38,0-24.57c0-1.55,1.06-2.8,2.41-2.95c1.57-0.18,2.88,0.67,3.23,2.1c0.09,0.35,0.08,0.72,0.12,1.14
			c0.57-0.37,1.11-0.74,1.66-1.09c3.14-1.94,6.56-2.47,10.18-2.06c1.35,0.15,2.66,0.4,3.85,1.1c1.39,0.82,1.92,1.93,1.6,3.23
			c-0.44,1.76-2.14,2.6-3.9,1.97c-4.07-1.45-7.73-0.83-10.81,2.29c-1.74,1.76-2.59,3.96-2.61,6.43c-0.03,3.95-0.01,7.89-0.01,11.84
			c0,2.12-0.42,2.77-2.34,3.59C219.9,229.22,219.53,229.22,219.17,229.22z"/>
		<path class="st24" d="M138.35,121.68c14.95,0,29.9,0.03,44.85-0.02c3.42-0.01,6.75-0.68,9.89-2.11c0.42-0.19,0.55-0.34,0.28-0.8
			c-2.9-4.92-3.24-10.16-1.79-15.58c0.86-3.21,2.31-6.13,4.28-8.8c0.21-0.28,0.36-0.38,0.71-0.19c4.97,2.7,8.54,6.62,10.5,11.96
			c0.39,1.05,0.65,2.14,0.83,3.24c0.05,0.33,0.16,0.41,0.49,0.36c2.94-0.47,5.89-0.62,8.85-0.22c3.16,0.43,6.16,1.27,8.64,3.44
			c0.34,0.29,0.4,0.51,0.26,0.91c-2.24,6.44-6.88,10.25-13.29,12.08c-2.25,0.64-4.57,0.87-6.9,0.8c-0.65-0.02-0.94,0.17-1.18,0.78
			c-2.15,5.44-4.66,10.7-7.78,15.66c-5.39,8.57-12.31,15.58-21.06,20.73c-6.55,3.85-13.6,6.36-21.02,7.92
			c-4.72,0.99-9.49,1.51-14.31,1.69c-8.5,0.33-16.9-0.31-25.12-2.65c-5.69-1.62-10.81-4.26-14.88-8.67
			c-3.54-3.83-6.03-8.28-7.86-13.12c-1.95-5.19-3.09-10.57-3.6-16.09c-0.21-2.23-0.28-4.46-0.33-6.69
			c-0.07-2.99,2.25-4.65,4.62-4.64C108.4,121.71,123.37,121.68,138.35,121.68z"/>
		<path class="st24" d="M124.24,103.49c-1.92,0-3.83,0-5.75,0c-0.92,0-1.33-0.41-1.34-1.34c-0.01-3.4-0.01-6.8,0-10.2
			c0-1.03,0.39-1.42,1.41-1.42c3.83-0.01,7.67-0.01,11.5,0c1.02,0,1.4,0.39,1.4,1.42c0.01,3.4,0.01,6.8,0,10.2
			c0,0.94-0.41,1.34-1.33,1.34C128.17,103.49,126.21,103.49,124.24,103.49z"/>
		<path class="st24" d="M124.35,106.09c1.92,0,3.83,0,5.75,0c0.98,0,1.36,0.38,1.36,1.37c0.01,3.38,0.01,6.75,0,10.13
			c0,1.07-0.37,1.45-1.44,1.45c-3.81,0.01-7.62,0.01-11.43,0c-1.07,0-1.43-0.39-1.43-1.47c0-3.35,0-6.71,0-10.06
			c0-1.06,0.38-1.43,1.45-1.43C120.52,106.09,122.44,106.09,124.35,106.09z"/>
		<path class="st24" d="M141.32,106.09c1.92,0,3.83,0,5.75,0c0.98,0,1.38,0.38,1.38,1.36c0.01,3.4,0.01,6.8,0,10.2
			c0,0.98-0.38,1.39-1.36,1.39c-3.86,0.02-7.71,0.02-11.57,0c-1.01,0-1.38-0.42-1.38-1.45c-0.01-3.38-0.01-6.75,0-10.13
			c0-0.98,0.4-1.37,1.37-1.37C137.44,106.09,139.38,106.09,141.32,106.09z"/>
		<path class="st24" d="M174.99,106.09c1.94,0,3.88,0,5.82,0c0.94,0,1.34,0.39,1.34,1.32c0.01,3.42,0.01,6.84,0,10.27
			c0,0.94-0.38,1.35-1.33,1.36c-3.88,0.02-7.76,0.02-11.64,0c-0.97,0-1.35-0.42-1.35-1.41c-0.01-3.38-0.01-6.75,0-10.13
			c0-1.05,0.4-1.41,1.47-1.41C171.2,106.09,173.1,106.09,174.99,106.09z"/>
		<path class="st24" d="M141.29,103.49c-1.92,0-3.83,0-5.75,0c-1.01,0-1.4-0.4-1.4-1.42c-0.01-3.35-0.01-6.71,0-10.06
			c0-1.11,0.38-1.48,1.48-1.49c3.79,0,7.57,0,11.36,0c1.11,0,1.47,0.37,1.47,1.49c0,3.33,0,6.66,0,9.99c0,1.11-0.38,1.48-1.48,1.48
			C145.07,103.49,143.18,103.49,141.29,103.49z"/>
		<path class="st24" d="M107.57,119c-1.94,0-3.88,0.01-5.81,0c-0.95,0-1.32-0.36-1.32-1.33c-0.01-3.42-0.01-6.84,0-10.26
			c0-0.93,0.41-1.32,1.35-1.32c3.88,0,7.75,0,11.63,0c0.89,0,1.32,0.38,1.32,1.28c0.02,3.44,0.02,6.89,0,10.33
			c0,0.97-0.38,1.3-1.35,1.3C111.45,119.01,109.51,119,107.57,119z"/>
		<path class="st24" d="M158.11,90.57c1.94,0,3.88,0,5.81,0c0.93,0,1.28,0.35,1.28,1.28c0,3.44,0,6.88,0,10.33
			c0,0.91-0.38,1.3-1.28,1.3c-3.9,0.01-7.8,0.01-11.7,0c-0.9,0-1.28-0.39-1.28-1.3c0-3.44,0-6.88,0-10.33
			c0-0.93,0.34-1.28,1.28-1.28C154.18,90.57,156.15,90.57,158.11,90.57z"/>
		<path class="st24" d="M158.08,87.91c-1.94,0-3.88,0-5.82,0c-0.97,0-1.31-0.34-1.31-1.33c0-3.42,0-6.85,0-10.27
			c0-0.95,0.37-1.31,1.33-1.31c3.86,0,7.72,0,11.57,0c0.99,0,1.35,0.36,1.35,1.37c0,3.4,0,6.8,0,10.2c0,1-0.35,1.33-1.37,1.34
			C161.91,87.91,159.99,87.91,158.08,87.91z"/>
		<path class="st24" d="M158.07,119c-1.94,0-3.88,0-5.82,0c-0.97,0-1.31-0.34-1.31-1.33c0-3.42,0-6.85,0-10.27
			c0-0.95,0.37-1.31,1.34-1.31c3.86,0,7.72,0,11.57,0c0.99,0,1.34,0.36,1.34,1.37c0,3.4,0,6.8,0,10.2c0,0.97-0.35,1.33-1.31,1.33
			C161.95,119.01,160.01,119,158.07,119z"/>
	</g>
</g>
<g id="Guides">
</g>
<g id="Layer_5" class="st155">
	<rect x="59.79" y="59.6" class="st156" width="180.21" height="180.21"/>
</g>
</svg>
