<svg xmlns="http://www.w3.org/2000/svg" viewBox="0 0 300 300"><defs><style>.cls-1{fill:#4791ce;}.cls-2{fill:#fff;}</style></defs><g id="Fondos"><rect class="cls-1" width="300" height="300"/></g><g id="Texto"><path class="cls-2" d="M138.35,121.68c-15,0-29.95,0-44.93,0a4.44,4.44,0,0,0-4.62,4.64c.06,2.23.13,4.46.34,6.69a61.62,61.62,0,0,0,3.6,16.09,39.43,39.43,0,0,0,7.86,13.12,31.29,31.29,0,0,0,14.88,8.67,79.72,79.72,0,0,0,25.12,2.65,85,85,0,0,0,14.31-1.69,69.06,69.06,0,0,0,21-7.92A61.55,61.55,0,0,0,197,143.18a95.16,95.16,0,0,0,7.78-15.66,1,1,0,0,1,1.18-.78,23,23,0,0,0,6.9-.8c6.42-1.83,11.06-5.63,13.3-12.08a.7.7,0,0,0-.26-.91,15.77,15.77,0,0,0-8.64-3.43,30.18,30.18,0,0,0-8.85.22c-.33.05-.43,0-.49-.36a17.32,17.32,0,0,0-.83-3.24,21.91,21.91,0,0,0-10.5-12c-.35-.19-.5-.09-.71.19a26.23,26.23,0,0,0-4.28,8.81c-1.45,5.42-1.12,10.65,1.79,15.58.26.45.13.61-.29.79a23.83,23.83,0,0,1-9.89,2.11C168.25,121.71,153.3,121.68,138.35,121.68Zm-14.11-18.19h5.89c.93,0,1.33-.4,1.33-1.34q0-5.08,0-10.19c0-1-.38-1.42-1.4-1.43h-11.5c-1,0-1.4.4-1.4,1.43,0,3.4,0,6.79,0,10.19,0,.94.41,1.34,1.33,1.34Zm.11,2.6H118.6c-1.07,0-1.44.37-1.44,1.43,0,3.35,0,6.71,0,10.06,0,1.07.36,1.46,1.43,1.47q5.72,0,11.43,0c1.08,0,1.44-.39,1.44-1.46q0-5.06,0-10.13c0-1-.38-1.37-1.36-1.37Zm17,0H135.5c-1,0-1.36.39-1.36,1.38,0,3.37,0,6.75,0,10.12,0,1,.37,1.45,1.39,1.45,3.85,0,7.71,0,11.56,0,1,0,1.37-.41,1.37-1.39,0-3.4,0-6.8,0-10.2,0-1-.4-1.36-1.38-1.36Zm33.67,0h-5.68c-1.07,0-1.47.36-1.47,1.41,0,3.38,0,6.75,0,10.13,0,1,.37,1.41,1.35,1.41,3.88,0,7.75,0,11.63,0,1,0,1.33-.42,1.33-1.36q0-5.13,0-10.26c0-.94-.4-1.33-1.34-1.33Zm-33.7-2.6H147c1.1,0,1.48-.37,1.48-1.48V92c0-1.12-.37-1.5-1.47-1.5H135.62c-1.11,0-1.48.38-1.49,1.49v10.06c0,1,.4,1.41,1.41,1.41ZM107.57,119c1.94,0,3.88,0,5.82,0,1,0,1.34-.34,1.35-1.3,0-3.45,0-6.89,0-10.33,0-.9-.43-1.28-1.33-1.28H101.79c-.94,0-1.35.39-1.35,1.32q0,5.13,0,10.26c0,1,.36,1.33,1.32,1.33C103.69,119,105.63,119,107.57,119Zm50.54-28.43h-5.89c-.93,0-1.27.35-1.27,1.28,0,3.44,0,6.89,0,10.33,0,.91.37,1.3,1.27,1.3h11.7c.9,0,1.28-.38,1.28-1.3V91.86c0-.93-.35-1.28-1.28-1.29Zm0-2.66h5.75c1,0,1.37-.34,1.37-1.34V76.37c0-1-.35-1.37-1.35-1.37H152.28c-1,0-1.33.36-1.33,1.31q0,5.14,0,10.27c0,1,.33,1.33,1.3,1.33C154.19,87.92,156.13,87.91,158.08,87.91Zm0,31.09c1.94,0,3.88,0,5.82,0,1,0,1.31-.36,1.31-1.33v-10.2c0-1-.35-1.38-1.34-1.38H152.28c-1,0-1.33.36-1.33,1.31q0,5.14,0,10.27c0,1,.33,1.33,1.3,1.33C154.19,119,156.13,119,158.07,119Z"/><path class="cls-2" d="M59.72,212.24c.28-.93.31-1.92.64-2.84,2.12-5.91,6.15-9.61,12.42-10.58a14.54,14.54,0,0,1,11.37,2.83c.08.06.18.11.37.23,0-.32,0-.56,0-.79,0-4.13,0-8.26,0-12.39,0-2,1.19-3.21,3-3.16a2.75,2.75,0,0,1,2.74,2.75c0,8.86.08,17.71,0,26.56-.06,4.81-2.43,8.55-6.22,11.42a14.59,14.59,0,0,1-7,2.81c-.12,0-.28,0-.34.14H73.42c-.09-.19-.27-.12-.42-.14a15.38,15.38,0,0,1-12.8-11.23c-.19-.77-.32-1.55-.48-2.32ZM84.55,214a9.55,9.55,0,1,0-9.71,9.48A9.61,9.61,0,0,0,84.55,214Z"/><path class="cls-2" d="M197,229.22c-.6-.11-1.2-.21-1.8-.34a15.31,15.31,0,1,1,18.48-17.36,15,15,0,0,1,.17,2.32,2.76,2.76,0,0,1-2.91,2.93h-20.4a5,5,0,0,1-.55,0c-.56-.05-.6.17-.41.64a9.11,9.11,0,0,0,5.21,5.32A9.22,9.22,0,0,0,205,221a2.83,2.83,0,0,1,4,0,2.92,2.92,0,0,1-.17,4.18,14.15,14.15,0,0,1-8.27,3.87c-.15,0-.32,0-.44.13Zm1.57-18.1h8.36c.86,0,.86,0,.53-.8a9.58,9.58,0,0,0-9.54-5.89,9.36,9.36,0,0,0-8.29,5.89c-.33.75-.27.8.52.8Z"/><path class="cls-2" d="M158.49,229.22a3.84,3.84,0,0,1-1.67-1,2.65,2.65,0,0,1-.68-1.67c0-.16,0-.32,0-.48q0-18.69,0-37.38a2.89,2.89,0,0,1,1.19-2.61,2.74,2.74,0,0,1,2.92-.23,2.64,2.64,0,0,1,1.57,2.45c0,3.34,0,6.67,0,10v11.23c.32.09.48-.15.67-.27l15.44-10a2.86,2.86,0,0,1,4.59,1.92,2.58,2.58,0,0,1-1.26,2.74c-3.52,2.27-7,4.57-10.57,6.84-.52.33-.62.52-.15,1q5.63,6.25,11.19,12.57a2.84,2.84,0,0,1-1.41,4.79.71.71,0,0,0-.17.11h-1a4.7,4.7,0,0,1-2.2-1.63c-3.81-4.31-7.64-8.59-11.46-12.9-.3-.34-.52-.31-.86-.07-.75.52-1.51,1-2.29,1.49a1.07,1.07,0,0,0-.57,1c0,3,0,6,0,9a2.79,2.79,0,0,1-2.19,2.91c-.06,0-.11.08-.17.11Z"/><path class="cls-2" d="M106.84,229.22a16.59,16.59,0,0,0-2.22-.5,15.32,15.32,0,1,1,7.08.17,5.64,5.64,0,0,0-1.57.33Zm11.25-15.32a9.58,9.58,0,1,0-9.57,9.57A9.62,9.62,0,0,0,118.09,213.9Z"/><path class="cls-2" d="M140.27,229.22c-1-.37-2-.36-3-.73-5.88-2.2-9.56-6.28-10.41-12.57a15.26,15.26,0,0,1,24.94-13.72,2.91,2.91,0,0,1,1.06,3,2.54,2.54,0,0,1-1.84,2,3,3,0,0,1-2.89-.59,9.55,9.55,0,1,0-.17,14.71c1.9-1.54,4.43-.76,4.85,1.51a2.81,2.81,0,0,1-1,2.76,14.51,14.51,0,0,1-7.69,3.46c-.14,0-.33,0-.41.15Z"/><path class="cls-2" d="M219.17,229.22a1,1,0,0,0-.22-.13,2.88,2.88,0,0,1-2.08-2.89q0-12.28,0-24.57a2.88,2.88,0,0,1,2.42-2.95,2.83,2.83,0,0,1,3.23,2.1,8.88,8.88,0,0,1,.12,1.14c.57-.38,1.11-.75,1.66-1.09a15.44,15.44,0,0,1,10.18-2.06,9.55,9.55,0,0,1,3.85,1.1,2.78,2.78,0,0,1,1.59,3.23,2.84,2.84,0,0,1-3.89,2c-4.07-1.46-7.74-.83-10.82,2.29a9,9,0,0,0-2.6,6.43c0,3.94,0,7.89,0,11.83,0,2.13-.42,2.78-2.34,3.59Z"/><path class="cls-2" d="M138.35,121.68c15,0,29.9,0,44.85,0a23.83,23.83,0,0,0,9.89-2.11c.42-.18.55-.34.29-.79-2.91-4.93-3.24-10.16-1.79-15.58a26.23,26.23,0,0,1,4.28-8.81c.21-.28.36-.38.71-.19a21.91,21.91,0,0,1,10.5,12,17.32,17.32,0,0,1,.83,3.24c.06.33.16.41.49.36a30.18,30.18,0,0,1,8.85-.22,15.77,15.77,0,0,1,8.64,3.43.7.7,0,0,1,.26.91c-2.24,6.45-6.88,10.25-13.3,12.08a23,23,0,0,1-6.9.8,1,1,0,0,0-1.18.78A95.16,95.16,0,0,1,197,143.18a61.55,61.55,0,0,1-21.07,20.73,69.06,69.06,0,0,1-21,7.92,85,85,0,0,1-14.31,1.69,79.72,79.72,0,0,1-25.12-2.65,31.29,31.29,0,0,1-14.88-8.67,39.43,39.43,0,0,1-7.86-13.12A61.62,61.62,0,0,1,89.14,133c-.21-2.23-.28-4.46-.34-6.69a4.44,4.44,0,0,1,4.62-4.64C108.4,121.71,123.37,121.68,138.35,121.68Z"/><path class="cls-2" d="M124.24,103.49h-5.75c-.92,0-1.33-.4-1.33-1.34,0-3.4,0-6.79,0-10.19,0-1,.38-1.42,1.4-1.43h11.5c1,0,1.4.4,1.4,1.43q0,5.1,0,10.19c0,.94-.4,1.34-1.33,1.34Z"/><path class="cls-2" d="M124.35,106.09h5.75c1,0,1.36.38,1.36,1.37q0,5.07,0,10.13c0,1.07-.36,1.45-1.44,1.46q-5.72,0-11.43,0c-1.07,0-1.43-.4-1.43-1.47,0-3.35,0-6.71,0-10.06,0-1.06.37-1.43,1.44-1.43Z"/><path class="cls-2" d="M141.32,106.09h5.75c1,0,1.38.38,1.38,1.36,0,3.4,0,6.8,0,10.2,0,1-.38,1.39-1.37,1.39-3.85,0-7.71,0-11.56,0-1,0-1.38-.41-1.39-1.45,0-3.37,0-6.75,0-10.12,0-1,.4-1.38,1.36-1.38Z"/><path class="cls-2" d="M175,106.09h5.82c.94,0,1.34.39,1.34,1.33q0,5.13,0,10.26c0,.94-.38,1.36-1.33,1.36-3.88,0-7.75,0-11.63,0-1,0-1.35-.42-1.35-1.41,0-3.38,0-6.75,0-10.13,0-1,.4-1.41,1.47-1.41Z"/><path class="cls-2" d="M141.29,103.49h-5.75c-1,0-1.4-.39-1.41-1.41V92c0-1.11.38-1.49,1.49-1.49H147c1.1,0,1.47.38,1.47,1.5v10c0,1.11-.38,1.47-1.48,1.48Z"/><path class="cls-2" d="M107.57,119c-1.94,0-3.88,0-5.81,0-1,0-1.32-.36-1.32-1.33q0-5.13,0-10.26c0-.93.41-1.32,1.35-1.32h11.62c.9,0,1.32.38,1.33,1.28,0,3.44,0,6.88,0,10.33,0,1-.38,1.3-1.35,1.3C111.45,119,109.51,119,107.57,119Z"/><path class="cls-2" d="M158.11,90.57h5.81c.93,0,1.28.36,1.28,1.29v10.32c0,.92-.38,1.3-1.28,1.3h-11.7c-.9,0-1.27-.39-1.27-1.3,0-3.44,0-6.89,0-10.33,0-.93.34-1.27,1.27-1.28Z"/><path class="cls-2" d="M158.08,87.91c-2,0-3.89,0-5.83,0-1,0-1.3-.34-1.3-1.33q0-5.13,0-10.27c0-1,.36-1.31,1.33-1.31h11.57c1,0,1.35.36,1.35,1.37v10.2c0,1-.35,1.34-1.37,1.34Z"/><path class="cls-2" d="M158.07,119c-1.94,0-3.88,0-5.82,0-1,0-1.3-.34-1.3-1.33q0-5.13,0-10.27c0-1,.37-1.31,1.33-1.31h11.58c1,0,1.34.36,1.34,1.38v10.2c0,1-.35,1.33-1.31,1.33C162,119,160,119,158.07,119Z"/></g></svg>