<?xml version="1.0" encoding="utf-8"?>
<!-- Generator: Adobe Illustrator 25.4.1, SVG Export Plug-In . SVG Version: 6.00 Build 0)  -->
<svg version="1.1" xmlns="http://www.w3.org/2000/svg" xmlns:xlink="http://www.w3.org/1999/xlink" x="0px" y="0px"
	 viewBox="0 0 300 300" style="enable-background:new 0 0 300 300;" xml:space="preserve">
<style type="text/css">
	.st0{fill:#4674B9;}
	.st1{fill:#2C2C32;}
	.st2{fill:#010101;}
	.st3{fill:#F6DF19;}
	.st4{fill:#2363AF;}
	.st5{fill:#F0672B;}
	.st6{fill:#101215;}
	.st7{fill:#492D8C;}
	.st8{fill:#F36C3D;}
	.st9{fill:#7756A3;}
	.st10{fill:#679E63;}
	.st11{fill:#484848;}
	.st12{fill:#1B1F23;}
	.st13{fill:#EF7729;}
	.st14{fill:#4791CE;}
	.st15{fill:#F6F6F6;}
	.st16{fill:#4A4A4D;}
	.st17{fill:#C54027;}
	.st18{fill:#3978BD;}
	.st19{fill:#CC6899;}
	.st20{fill:#12364F;}
	.st21{fill:#316A9A;}
	.st22{fill:#FFD53E;}
	.st23{fill:#693994;}
	.st24{fill:#FFFFFF;}
	.st25{fill-rule:evenodd;clip-rule:evenodd;fill:#FFFFFF;}
	.st26{fill-rule:evenodd;clip-rule:evenodd;fill:url(#XMLID_00000126316587539284603060000008288648245172619437_);}
	.st27{clip-path:url(#XMLID_00000003827615655116530550000011408729359992499879_);}
	.st28{fill:none;}
	.st29{opacity:0.66;fill:#4B4B4B;}
	.st30{fill:url(#SVGID_1_);}
	.st31{opacity:0.05;fill:#010101;enable-background:new    ;}
	.st32{fill:#17AA4F;}
	.st33{fill:#B8C4C2;}
	.st34{fill:#14924F;}
	.st35{fill:#22323D;}
	.st36{fill:#F26424;}
	.st37{fill:#4E4E4E;}
	.st38{fill:#3B2F14;}
	.st39{fill:#F58772;}
	.st40{fill:#F05233;}
	.st41{fill:#433527;}
	.st42{fill:#DD1E34;}
	.st43{fill:#C32033;}
	.st44{fill:#F9F9FA;}
	.st45{fill:#7253A2;}
	.st46{fill:#4674B9;stroke:#FFFFFF;stroke-width:8;stroke-miterlimit:10;}
	.st47{fill:#EF4623;}
	.st48{fill:#4EB987;}
	.st49{fill:#455567;}
	.st50{fill:#F1F2F2;}
	.st51{fill:#70CEEF;}
	.st52{fill:#70CFF0;}
	.st53{opacity:0.7;fill:#2C384A;enable-background:new    ;}
	.st54{fill:url(#path-2_00000059281183731335612220000010791860794337775784_);}
	.st55{filter:url(#Adobe_OpacityMaskFilter);}
	.st56{mask:url(#mask-3_3_);}
	.st57{fill:#F9A01B;}
	.st58{fill:#F47D20;}
	.st59{fill:#FFCB2A;}
	.st60{fill:#FFFFFF;fill-opacity:0.2;}
	.st61{opacity:0.2;fill:#A52A22;enable-background:new    ;}
	.st62{filter:url(#Adobe_OpacityMaskFilter_00000048481236225264197920000012939560290029801876_);}
	.st63{mask:url(#mask-3_2_);fill:none;}
	.st64{filter:url(#Adobe_OpacityMaskFilter_00000060024856145488821750000001162322640583817115_);}
	.st65{mask:url(#mask-3_1_);fill:url(#_Path_5_00000034072186293739583300000013584362011247869370_);}
	.st66{fill:#5BADE0;}
	.st67{fill:#4699D4;}
	.st68{fill:#318ECD;}
	.st69{fill:#3390CE;}
	.st70{fill:#1773B0;}
	.st71{fill:#489BD5;}
	.st72{fill:#2884C6;}
	.st73{fill:#2682C5;}
	.st74{fill:#2480C4;}
	.st75{fill:#237EC2;}
	.st76{fill:#4497D2;}
	.st77{fill:#1571AF;}
	.st78{fill:#237DC1;}
	.st79{fill:#1B72AD;}
	.st80{fill:#1B6CA3;}
	.st81{fill:#196FA9;}
	.st82{fill:#1D77BD;}
	.st83{fill:#207ABF;}
	.st84{fill:#2D7FB8;}
	.st85{fill:#3383BA;}
	.st86{fill:#287EB6;}
	.st87{fill:#63B0E1;}
	.st88{fill:#3887BC;}
	.st89{fill:#3B89BD;}
	.st90{fill:#3792D0;}
	.st91{fill:#2A78AC;}
	.st92{fill:#2973A8;}
	.st93{fill:#2A7CB3;}
	.st94{fill:#3F88BA;}
	.st95{fill:#59ABDF;}
	.st96{fill:#3A7FAF;}
	.st97{fill:#317BAC;}
	.st98{fill:#367DAE;}
	.st99{fill:#2C8BCB;}
	.st100{fill:#2E8DCC;}
	.st101{fill:#1A75B1;}
	.st102{fill:#1F77B2;}
	.st103{fill:#1D74AF;}
	.st104{fill:#1D72AA;}
	.st105{fill:#206FA5;}
	.st106{fill:#499FD8;}
	.st107{fill:#489CD6;}
	.st108{fill:#4DA1D9;}
	.st109{fill:#51A6DC;}
	.st110{fill:#4FA4DB;}
	.st111{fill:#0F72B7;}
	.st112{fill:#0770B7;}
	.st113{fill:#56A8DD;}
	.st114{fill:#2A88C9;}
	.st115{fill:#227FC3;}
	.st116{fill:#1F7DC1;}
	.st117{fill:#1D7BC0;}
	.st118{fill:#1474BB;}
	.st119{fill:#1071B9;}
	.st120{fill:#1E79BF;}
	.st121{fill:#1875BC;}
	.st122{fill:#3381B5;}
	.st123{fill:#2F7FB4;}
	.st124{fill:#3883B6;}
	.st125{fill:#267BB5;}
	.st126{fill:#297AB2;}
	.st127{fill:#3E86B6;}
	.st128{fill:#3C81B1;}
	.st129{fill:#3B87B9;}
	.st130{fill:#3A85B8;}
	.st131{fill:#2378B1;}
	.st132{fill:#2675AC;}
	.st133{fill:#2572A6;}
	.st134{fill:#0D74B8;}
	.st135{fill:#3882B4;}
	.st136{fill:#367FB2;}
	.st137{fill:#307CAF;}
	.st138{fill:#337EB0;}
	.st139{fill:#2271A5;}
	.st140{fill:#0E75BB;}
	.st141{fill:#0D73BB;}
	.st142{fill:#0B74BC;}
	.st143{fill:#1578BC;}
	.st144{fill:#1C7CC1;}
	.st145{fill:#2575AB;}
	.st146{fill:#1B7BC0;}
	.st147{fill:#1876BD;}
	.st148{fill:#1978BE;}
	.st149{fill:#3C84B4;}
	.st150{fill-rule:evenodd;clip-rule:evenodd;fill:#687E91;}
	.st151{fill:#037690;}
	.st152{fill:#F29220;}
	.st153{fill-rule:evenodd;clip-rule:evenodd;fill:#F29220;}
	.st154{fill-rule:evenodd;clip-rule:evenodd;fill:#037690;}
	.st155{display:none;}
	.st156{display:inline;fill-rule:evenodd;clip-rule:evenodd;fill:#2BB673;}
	.st157{display:inline;opacity:0.15;fill-rule:evenodd;clip-rule:evenodd;fill:#2BB673;}
</style>
<g id="Fondos_1_">
	<rect class="st0" width="300" height="300"/>
</g>
<g id="Texto">
	<g>
		<path class="st46" d="M60.72,173.22c1.22-5.44,2.63-11.86,4.1-18.26c3.68-16.03,7.46-32.03,11.03-48.08c1.16-5.2,4-8.56,8.8-10.82
			c19.65-9.25,39.24-18.62,58.79-28.07c4.52-2.19,8.7-2.17,13.2,0c19.56,9.44,39.15,18.81,58.8,28.07
			c4.78,2.25,7.65,5.56,8.82,10.79c4.73,21.19,9.59,42.34,14.56,63.47c1.09,4.63,0.28,8.51-2.67,12.17
			c-13.89,17.22-27.76,34.47-41.57,51.75c-2.95,3.69-6.66,5.36-11.31,5.36c-22-0.01-44,0-66.01,0.06
			c-4.95,0.01-8.83-1.78-11.96-5.71c-13.63-17.09-27.37-34.1-41.09-51.12C62.17,180.29,60.64,177.6,60.72,173.22z"/>
		<path class="st24" d="M198.35,156.32c-0.03,7.77,0.86,8.7,8.81,9.32c1.57,0.12,3.15,0.29,4.69,0.62c2.3,0.49,4.04,1.86,3.61,4.36
			c-0.48,2.8-2.81,3.37-5.2,2.78c-2.54-0.62-4.97-1.69-7.47-2.46c-4.71-1.45-6.32-0.7-8.17,3.72c-3.6,8.6-9.14,15.71-16.9,20.86
			c-3.28,2.18-3.35,4.58-1.8,7.52c1.1,2.09,2.48,4.03,3.75,6.03c1.17,1.84,2.05,3.78,0.95,5.92c-0.64,1.23-1.81,1.96-3.28,1.73
			c-2.44-0.38-3.38-2.3-4.12-4.32c-0.86-2.34-1.49-4.79-2.52-7.05c-1.31-2.86-3.14-4.32-6.8-3.15c-8.99,2.88-18.14,2.77-27.22,0.12
			c-3.92-1.14-5.94-0.24-7.51,3.64c-0.84,2.07-1.4,4.24-2.15,6.35c-0.72,2.01-1.57,3.99-4,4.45c-1.46,0.28-2.66-0.35-3.36-1.57
			c-1.3-2.28-0.28-4.29,0.97-6.24c1.28-1.99,2.72-3.92,3.71-6.05c1.33-2.85,1.54-5.31-1.84-7.52c-7.92-5.17-13.63-12.4-17.02-21.22
			c-1.43-3.73-3.81-4.3-7.04-3.42c-2.53,0.69-4.94,1.81-7.47,2.52c-2.53,0.7-5.14,0.9-6.25-2.26c-0.8-2.3,1.35-4.21,4.82-4.91
			c3.66-0.73,7.8,0.4,10.89-2.58c3.29-3.16,0.93-7.16,1.33-10.74c0.81-7.31,2.48-14.31,6.33-20.56c2.04-3.31,0.8-5.44-1.61-7.33
			c-2.16-1.69-4.67-2.95-6.96-4.48c-2.35-1.57-3.75-3.75-1.75-6.27c1.92-2.41,4.29-1.36,6.2,0.36c2.15,1.94,4.02,4.19,6.23,6.04
			c2.28,1.91,4.52,2.46,7.17-0.08c6.82-6.53,15.04-10.49,24.39-12.05c4.58-0.77,5.61-2.06,5.36-6.82c-0.12-2.36-0.62-4.69-0.79-7.05
			c-0.19-2.71,0.39-5.16,3.6-5.59c2.46-0.33,4.21,2.34,3.9,5.69c-0.08,0.91-0.36,1.81-0.49,2.72c-1.2,8.72-0.64,9.54,7.83,11.63
			c7.95,1.96,15.15,5.49,21.03,11.16c3.09,2.98,5.53,2.21,8.13,0.01c2.1-1.78,3.88-3.94,5.92-5.8c1.94-1.77,4.29-2.64,6.18-0.2
			c1.84,2.39,0.53,4.51-1.63,6.01c-2.27,1.57-4.78,2.81-6.96,4.48c-2.71,2.07-3.87,4.38-1.69,7.94
			C196.56,139.8,198.4,147.85,198.35,156.32z"/>
		<path class="st0" d="M170.9,188.32c-2.48-5.93-4.97-11.56-7.17-17.3c-1.37-3.56,0.51-5.7,4.26-5.11
			c5.31,0.84,10.58,1.85,15.89,2.68c1.59,0.25,2.54,0.57,1.72,2.43C182.45,178.14,177.78,183.95,170.9,188.32z"/>
		<path class="st0" d="M145.07,122.26c-0.21,4.32-0.38,8.65-0.65,12.97c-0.31,5.17-2.64,6.38-6.8,3.52
			c-4.21-2.9-8.32-5.97-12.56-8.83c-1.66-1.12-1.75-1.84-0.18-3.16c4.71-3.96,9.99-6.72,15.97-8.15
			C145.4,117.51,145.43,117.51,145.07,122.26z"/>
		<path class="st0" d="M111.49,154.84c0.28-5.45,1.57-11.15,4.26-16.53c1.09-2.19,1.96-2.26,3.68-0.63
			c3.71,3.52,7.64,6.82,11.37,10.32c3.18,2.99,2.59,5.57-1.58,6.88c-4.37,1.38-8.81,2.55-13.22,3.82
			C111.43,160.02,111.43,160.02,111.49,154.84z"/>
		<path class="st0" d="M188.65,155.41c0.1,4.43,0.02,4.5-4.22,3.28c-4.53-1.3-9.09-2.49-13.58-3.92c-4.17-1.33-4.73-3.91-1.54-6.87
			c3.75-3.47,7.67-6.76,11.37-10.29c1.86-1.77,2.64-1.23,3.64,0.78C187,143.78,188.31,149.46,188.65,155.41z"/>
		<path class="st0" d="M150.24,194.59c-3.28-0.22-6.53-0.6-9.76-1.33c-2.1-0.48-2.62-1.21-1.47-3.19c2.7-4.66,5.17-9.46,7.9-14.11
			c1.75-2.98,4.44-3.12,6.17-0.24c2.91,4.84,5.49,9.88,8.29,14.79c1.02,1.78,0.15,2.26-1.38,2.67
			C156.79,194.04,153.52,194.29,150.24,194.59z"/>
		<path class="st0" d="M155.04,121.97c-0.97-3.91,0.66-4.38,3.91-3.5c5.66,1.53,10.79,3.97,15.38,7.62c1.9,1.51,2.67,2.6,0.04,4.28
			c-4.08,2.61-7.92,5.6-11.92,8.34c-4.03,2.77-6.42,1.66-6.73-3.15C155.42,130.98,155.26,126.4,155.04,121.97z"/>
		<path class="st0" d="M133.33,165.79c2.76,0.26,4.18,1.95,3.24,4.54c-2,5.56-4.41,10.96-6.63,16.44c-0.62,1.53-1.43,1.06-2.39,0.37
			c-5.66-4.12-9.9-9.38-12.74-15.77c-0.5-1.13-0.96-2.33,0.94-2.64C121.59,167.76,127.42,166.78,133.33,165.79z"/>
		<path class="st0" d="M150.25,149.79c3.08,0.03,6.2,2.87,6.2,5.65c0,3.52-3.19,7.03-6.39,7.03c-3.22,0-6.39-3.49-6.4-7.02
			C143.66,152.5,146.86,149.75,150.25,149.79z"/>
	</g>
</g>
<g id="Guides">
</g>
<g id="Layer_5" class="st155">
	<rect x="59.79" y="59.6" class="st156" width="180.21" height="180.21"/>
</g>
</svg>
