<svg xmlns="http://www.w3.org/2000/svg" viewBox="0 0 300 300"><defs><style>.cls-1{fill:#c54027;}.cls-2{fill:#fff;}</style></defs><g id="Fondos"><rect class="cls-1" width="300" height="300"/></g><g id="Texto"><path class="cls-2" d="M240,41.44c-.16.38-.33.76-.46,1.16q-2.82,8.3-5.61,16.61-3,8.73-5.92,17.45l-6,17.75q-3,8.86-6,17.74l-1.23,3.61c-.08.23-.13.47-.2.72.88.24,1.69.45,2.5.69a22.13,22.13,0,0,1,8.31,4.63,23,23,0,0,1,4.94,28.57,1.26,1.26,0,0,0,0,1.48,37.06,37.06,0,0,1,4.85,15,35.8,35.8,0,0,1-9.57,28.27,37.11,37.11,0,0,1-10.26,7.69,48.48,48.48,0,0,1-10.46,3.8c-3.27.81-6.59,1.4-9.91,1.91-4.61.72-9.23,1.28-13.8,2.2A89.76,89.76,0,0,0,165,215.78c-4.33,1.76-8.57,3.71-12.76,5.78-3.81,1.88-7.61,3.77-11.43,5.63-5.72,2.8-11.47,5.53-17.43,7.81a78.94,78.94,0,0,1-15.53,4.36,47.49,47.49,0,0,1-4.91.51,53.66,53.66,0,0,1-5.38.1,37.85,37.85,0,0,1-6.08-.76,40.08,40.08,0,0,1-9.87-3.41,40.69,40.69,0,0,1-9.2-6.14,35.64,35.64,0,0,1-9.87-15,51.8,51.8,0,0,1-2.51-18.37,68,68,0,0,1,2.69-16.14,101.52,101.52,0,0,1,5.19-13.24c1.68-3.57,3.4-7.12,5.11-10.68.28-.6.27-.59-.19-1.09a22.62,22.62,0,0,1-6.32-14.29,22.39,22.39,0,0,1,5.62-16.74,22.14,22.14,0,0,1,13.37-7.52,22.44,22.44,0,0,1,14.33,2.14,22.72,22.72,0,0,1,9.86,9.64,22.25,22.25,0,0,1,2.66,9.21,22.56,22.56,0,0,1-5.69,16.85,22.12,22.12,0,0,1-8.94,6.23,1.86,1.86,0,0,0-1.11,1.1,21.83,21.83,0,0,0-1.76,6.09,17.64,17.64,0,0,0,1.31,8.94,20,20,0,0,0,7.56,9.08,1,1,0,0,0,1.1.1,67.49,67.49,0,0,0,11.34-5.91,71.82,71.82,0,0,0,8.81-6.71,76.84,76.84,0,0,0,11.13-12.22c.57-.78,1.11-1.58,1.69-2.4-8.18-5.79-11.89-13.51-10.51-23.49,2-9.84,8-15.87,17.66-18.68Q132.26,79,119.49,41.37c.28,0,.46-.06.65-.07H240ZM179.85,92.89l-.2,0q-7.17,14.52-14.38,29.09l.36.3a23.81,23.81,0,0,1,4.58,5.89A22.9,22.9,0,0,1,173,138.75a21.23,21.23,0,0,1-.28,3.73,23,23,0,0,1-25.51,19.45,1,1,0,0,0-1.09.51,82.61,82.61,0,0,1-9.3,11.94,80,80,0,0,1-32.18,21.31,2.14,2.14,0,0,1-2.16-.18,10.3,10.3,0,0,0-1-.52,29.15,29.15,0,0,1-9.3-7.57c-5.83-7.31-7.76-15.51-5.46-24.63,0-.19.09-.38.13-.55l-6-1.5c-.34.68-.68,1.4-1,2.12-2.08,4.3-4.19,8.57-6,13a58.47,58.47,0,0,0-4.71,20.25,44.16,44.16,0,0,0,1.19,13,27,27,0,0,0,11.5,16.43,32.68,32.68,0,0,0,14.56,5.35,39.77,39.77,0,0,0,12.59-.8,73.88,73.88,0,0,0,11.72-3.62c5.52-2.15,10.85-4.73,16.17-7.32,5.95-2.91,11.89-5.84,17.87-8.67a133.42,133.42,0,0,1,15.8-6.26,119.62,119.62,0,0,1,19.56-4.06c3.6-.53,7.2-1.12,10.77-1.83a39.34,39.34,0,0,0,10.73-3.7,27.08,27.08,0,0,0,14.69-26.22,29.12,29.12,0,0,0-2.44-9.53c-.12-.26-.26-.52-.43-.86a25,25,0,0,1-5.09,2.66,23.13,23.13,0,0,1-16.83-.3,22.75,22.75,0,0,1-4.94-2.81,23.07,23.07,0,0,1-4.15-4,23.07,23.07,0,0,1,2-31.12Q187.07,107.63,179.85,92.89Zm-.07-20.6L202,117.63a20.18,20.18,0,0,1,2.09-.64,1.32,1.32,0,0,0,1.11-1q3.16-9.43,6.38-18.88,7.8-23,15.59-46c.08-.25.16-.51.25-.82H132c.12.39.21.72.32,1.05l19.74,58.26q1.08,3.2,2.17,6.38c.08.25.09.55.44.64l2.79.72Zm-90.32,81a14,14,0,1,0-14-14A14,14,0,0,0,89.46,153.26Zm120.83-.11a14,14,0,1,0-14-14A14.06,14.06,0,0,0,210.29,153.15Zm-60.3,0a14,14,0,1,0-14-13.8A14.05,14.05,0,0,0,150,153.15Z"/><path class="cls-1" d="M179.85,92.89q7.23,14.76,14.49,29.56a23.07,23.07,0,0,0-2,31.12,23.07,23.07,0,0,0,4.15,4A22.79,22.79,0,0,0,207,161.88a22.85,22.85,0,0,0,11.28-1.21,25,25,0,0,0,5.09-2.66c.17.34.31.6.43.86a29.12,29.12,0,0,1,2.44,9.53,27.08,27.08,0,0,1-14.69,26.22,39.34,39.34,0,0,1-10.73,3.7c-3.57.71-7.17,1.3-10.77,1.83a119.62,119.62,0,0,0-19.56,4.06,133.42,133.42,0,0,0-15.8,6.26c-6,2.83-11.92,5.76-17.87,8.67-5.32,2.59-10.65,5.17-16.17,7.32A73.88,73.88,0,0,1,109,230.08a39.77,39.77,0,0,1-12.59.8,32.68,32.68,0,0,1-14.56-5.35A27,27,0,0,1,70.3,209.1a44.16,44.16,0,0,1-1.19-13,58.47,58.47,0,0,1,4.71-20.25c1.83-4.41,3.94-8.68,6-13,.35-.72.69-1.44,1-2.12l6,1.5c0,.17-.08.36-.13.55-2.3,9.12-.37,17.32,5.46,24.63a29.15,29.15,0,0,0,9.3,7.57,10.3,10.3,0,0,1,1,.52,2.14,2.14,0,0,0,2.16.18,80,80,0,0,0,32.18-21.31,82.61,82.61,0,0,0,9.3-11.94,1,1,0,0,1,1.09-.51,23,23,0,0,0,25.51-19.45,21.23,21.23,0,0,0,.28-3.73,22.9,22.9,0,0,0-2.79-10.61,23.81,23.81,0,0,0-4.58-5.89l-.36-.3q7.22-14.6,14.38-29.09Z"/><path class="cls-1" d="M179.78,72.29l-22.29,45.05-2.79-.72c-.35-.09-.36-.39-.44-.64q-1.09-3.18-2.17-6.38L132.35,51.34c-.11-.33-.2-.66-.32-1.05h95.4c-.09.31-.17.57-.25.82q-7.8,23-15.59,46-3.19,9.45-6.38,18.88a1.32,1.32,0,0,1-1.11,1,20.18,20.18,0,0,0-2.09.64Z"/><path class="cls-1" d="M89.46,153.26a14,14,0,1,1,14-13.95A14,14,0,0,1,89.46,153.26Z"/><path class="cls-1" d="M210.29,153.15a14,14,0,1,1,14-14.07A14,14,0,0,1,210.29,153.15Z"/><path class="cls-1" d="M150,153.15a14,14,0,1,1,14-14.06A14.12,14.12,0,0,1,150,153.15Z"/></g></svg>