<?xml version="1.0" encoding="utf-8"?>
<!-- Generator: Adobe Illustrator 25.4.1, SVG Export Plug-In . SVG Version: 6.00 Build 0)  -->
<svg version="1.1" xmlns="http://www.w3.org/2000/svg" xmlns:xlink="http://www.w3.org/1999/xlink" x="0px" y="0px"
	 viewBox="0 0 300 300" style="enable-background:new 0 0 300 300;" xml:space="preserve">
<style type="text/css">
	.st0{fill:#4674B9;}
	.st1{fill:#2C2C32;}
	.st2{fill:#010101;}
	.st3{fill:#F6DF19;}
	.st4{fill:#2363AF;}
	.st5{fill:#F0672B;}
	.st6{fill:#101215;}
	.st7{fill:#492D8C;}
	.st8{fill:#F36C3D;}
	.st9{fill:#7756A3;}
	.st10{fill:#679E63;}
	.st11{fill:#484848;}
	.st12{fill:#1B1F23;}
	.st13{fill:#EF7729;}
	.st14{fill:#4791CE;}
	.st15{fill:#F6F6F6;}
	.st16{fill:#4A4A4D;}
	.st17{fill:#C54027;}
	.st18{fill:#3978BD;}
	.st19{fill:#CC6899;}
	.st20{fill:#12364F;}
	.st21{fill:#316A9A;}
	.st22{fill:#FFD53E;}
	.st23{fill:#693994;}
	.st24{fill:#FFFFFF;}
	.st25{fill-rule:evenodd;clip-rule:evenodd;fill:#FFFFFF;}
	.st26{fill-rule:evenodd;clip-rule:evenodd;fill:url(#XMLID_00000150102698884865520070000016579514387104947868_);}
	.st27{clip-path:url(#XMLID_00000135688184024555204160000017004643128697923463_);}
	.st28{fill:none;}
	.st29{opacity:0.66;fill:#4B4B4B;}
	.st30{fill:url(#SVGID_1_);}
	.st31{opacity:0.05;fill:#010101;enable-background:new    ;}
	.st32{fill:#17AA4F;}
	.st33{fill:#B8C4C2;}
	.st34{fill:#14924F;}
	.st35{fill:#22323D;}
	.st36{fill:#F26424;}
	.st37{fill:#4E4E4E;}
	.st38{fill:#3B2F14;}
	.st39{fill:#F58772;}
	.st40{fill:#F05233;}
	.st41{fill:#433527;}
	.st42{fill:#DD1E34;}
	.st43{fill:#C32033;}
	.st44{fill:#F9F9FA;}
	.st45{fill:#7253A2;}
	.st46{fill:#4674B9;stroke:#FFFFFF;stroke-width:8;stroke-miterlimit:10;}
	.st47{fill:#EF4623;}
	.st48{fill:#4EB987;}
	.st49{fill:#455567;}
	.st50{fill:#F1F2F2;}
	.st51{fill:#70CEEF;}
	.st52{fill:#70CFF0;}
	.st53{opacity:0.7;fill:#2C384A;enable-background:new    ;}
	.st54{fill:url(#path-2_00000140734383744403240930000014249310501099547325_);}
	.st55{filter:url(#Adobe_OpacityMaskFilter);}
	.st56{mask:url(#mask-3_3_);}
	.st57{fill:#F9A01B;}
	.st58{fill:#F47D20;}
	.st59{fill:#FFCB2A;}
	.st60{fill:#FFFFFF;fill-opacity:0.2;}
	.st61{opacity:0.2;fill:#A52A22;enable-background:new    ;}
	.st62{filter:url(#Adobe_OpacityMaskFilter_00000054259868606866886680000001506526693461196443_);}
	.st63{mask:url(#mask-3_2_);fill:none;}
	.st64{filter:url(#Adobe_OpacityMaskFilter_00000155139687837131558200000013381673805116373142_);}
	.st65{mask:url(#mask-3_1_);fill:url(#_Path_5_00000152942837238115092010000011945784456633821855_);}
	.st66{fill:#5BADE0;}
	.st67{fill:#4699D4;}
	.st68{fill:#318ECD;}
	.st69{fill:#3390CE;}
	.st70{fill:#1773B0;}
	.st71{fill:#489BD5;}
	.st72{fill:#2884C6;}
	.st73{fill:#2682C5;}
	.st74{fill:#2480C4;}
	.st75{fill:#237EC2;}
	.st76{fill:#4497D2;}
	.st77{fill:#1571AF;}
	.st78{fill:#237DC1;}
	.st79{fill:#1B72AD;}
	.st80{fill:#1B6CA3;}
	.st81{fill:#196FA9;}
	.st82{fill:#1D77BD;}
	.st83{fill:#207ABF;}
	.st84{fill:#2D7FB8;}
	.st85{fill:#3383BA;}
	.st86{fill:#287EB6;}
	.st87{fill:#63B0E1;}
	.st88{fill:#3887BC;}
	.st89{fill:#3B89BD;}
	.st90{fill:#3792D0;}
	.st91{fill:#2A78AC;}
	.st92{fill:#2973A8;}
	.st93{fill:#2A7CB3;}
	.st94{fill:#3F88BA;}
	.st95{fill:#59ABDF;}
	.st96{fill:#3A7FAF;}
	.st97{fill:#317BAC;}
	.st98{fill:#367DAE;}
	.st99{fill:#2C8BCB;}
	.st100{fill:#2E8DCC;}
	.st101{fill:#1A75B1;}
	.st102{fill:#1F77B2;}
	.st103{fill:#1D74AF;}
	.st104{fill:#1D72AA;}
	.st105{fill:#206FA5;}
	.st106{fill:#499FD8;}
	.st107{fill:#489CD6;}
	.st108{fill:#4DA1D9;}
	.st109{fill:#51A6DC;}
	.st110{fill:#4FA4DB;}
	.st111{fill:#0F72B7;}
	.st112{fill:#0770B7;}
	.st113{fill:#56A8DD;}
	.st114{fill:#2A88C9;}
	.st115{fill:#227FC3;}
	.st116{fill:#1F7DC1;}
	.st117{fill:#1D7BC0;}
	.st118{fill:#1474BB;}
	.st119{fill:#1071B9;}
	.st120{fill:#1E79BF;}
	.st121{fill:#1875BC;}
	.st122{fill:#3381B5;}
	.st123{fill:#2F7FB4;}
	.st124{fill:#3883B6;}
	.st125{fill:#267BB5;}
	.st126{fill:#297AB2;}
	.st127{fill:#3E86B6;}
	.st128{fill:#3C81B1;}
	.st129{fill:#3B87B9;}
	.st130{fill:#3A85B8;}
	.st131{fill:#2378B1;}
	.st132{fill:#2675AC;}
	.st133{fill:#2572A6;}
	.st134{fill:#0D74B8;}
	.st135{fill:#3882B4;}
	.st136{fill:#367FB2;}
	.st137{fill:#307CAF;}
	.st138{fill:#337EB0;}
	.st139{fill:#2271A5;}
	.st140{fill:#0E75BB;}
	.st141{fill:#0D73BB;}
	.st142{fill:#0B74BC;}
	.st143{fill:#1578BC;}
	.st144{fill:#1C7CC1;}
	.st145{fill:#2575AB;}
	.st146{fill:#1B7BC0;}
	.st147{fill:#1876BD;}
	.st148{fill:#1978BE;}
	.st149{fill:#3C84B4;}
	.st150{fill-rule:evenodd;clip-rule:evenodd;fill:#687E91;}
	.st151{fill:#037690;}
	.st152{fill:#F29220;}
	.st153{fill-rule:evenodd;clip-rule:evenodd;fill:#F29220;}
	.st154{fill-rule:evenodd;clip-rule:evenodd;fill:#037690;}
	.st155{display:none;}
	.st156{display:inline;fill-rule:evenodd;clip-rule:evenodd;fill:#2BB673;}
	.st157{display:inline;opacity:0.15;fill-rule:evenodd;clip-rule:evenodd;fill:#2BB673;}
</style>
<g id="Fondos_1_">
	<rect class="st17" width="300" height="300"/>
</g>
<g id="Texto">
	<g>
		<path class="st24" d="M240,41.44c-0.16,0.39-0.33,0.77-0.46,1.16c-1.87,5.54-3.74,11.07-5.61,16.61
			c-1.97,5.82-3.95,11.64-5.92,17.46c-2.01,5.91-4.01,11.83-6.02,17.74c-2.01,5.91-4.01,11.83-6.02,17.74
			c-0.41,1.21-0.82,2.41-1.22,3.62c-0.08,0.23-0.13,0.47-0.2,0.71c0.88,0.24,1.7,0.45,2.51,0.69c3.11,0.93,5.88,2.5,8.31,4.63
			c4.3,3.78,6.89,8.52,7.67,14.19c0.69,5.07-0.2,9.9-2.74,14.38c-0.3,0.53-0.33,0.91,0,1.47c2.68,4.65,4.33,9.65,4.85,15
			c0.7,7.22-0.6,14.08-3.99,20.51c-1.5,2.84-3.38,5.41-5.58,7.76c-2.97,3.18-6.41,5.71-10.26,7.69c-3.32,1.7-6.84,2.91-10.46,3.81
			c-3.27,0.81-6.58,1.4-9.91,1.91c-4.6,0.71-9.23,1.28-13.8,2.2c-5.55,1.12-10.89,2.93-16.12,5.06c-4.33,1.76-8.57,3.71-12.76,5.78
			c-3.81,1.88-7.61,3.77-11.43,5.64c-5.72,2.8-11.47,5.53-17.43,7.81c-5.05,1.93-10.2,3.49-15.54,4.36
			c-1.62,0.26-3.26,0.42-4.9,0.51c-1.79,0.11-3.59,0.17-5.38,0.1c-2.04-0.08-4.07-0.35-6.07-0.76c-3.44-0.71-6.74-1.84-9.88-3.41
			c-3.32-1.66-6.43-3.65-9.2-6.14c-4.59-4.13-7.83-9.16-9.87-14.98c-1.29-3.7-2-7.52-2.35-11.41c-0.21-2.32-0.29-4.64-0.16-6.96
			c0.31-5.47,1.07-10.87,2.69-16.13c1.4-4.55,3.17-8.94,5.19-13.24c1.68-3.57,3.4-7.12,5.11-10.68c0.29-0.6,0.28-0.59-0.19-1.09
			c-3.77-4.03-5.95-8.77-6.32-14.29c-0.43-6.35,1.47-11.94,5.62-16.73c3.54-4.09,8.03-6.61,13.37-7.53c5-0.85,9.81-0.17,14.33,2.14
			c4.28,2.19,7.58,5.4,9.86,9.64c1.55,2.88,2.45,5.94,2.66,9.21c0.41,6.4-1.48,12.02-5.69,16.85c-2.46,2.82-5.45,4.9-8.94,6.23
			c-0.56,0.21-0.87,0.55-1.1,1.1c-0.84,1.96-1.52,3.95-1.76,6.09c-0.35,3.1,0.11,6.08,1.3,8.94c1.59,3.79,4.15,6.79,7.56,9.08
			c0.38,0.25,0.68,0.28,1.1,0.11c3.97-1.61,7.75-3.58,11.34-5.91c3.11-2.01,6.05-4.25,8.81-6.71c4.14-3.68,7.86-7.75,11.12-12.22
			c0.57-0.78,1.12-1.58,1.69-2.41c-8.18-5.79-11.89-13.51-10.51-23.48c2-9.84,8.04-15.88,17.66-18.68
			C136.5,91.55,128,66.5,119.49,41.37c0.28-0.03,0.46-0.06,0.65-0.07c0.27-0.01,0.55,0,0.82,0c39.3,0,78.61,0,117.91,0
			c0.37,0,0.75-0.01,1.12-0.01C240,41.34,240,41.39,240,41.44z M179.85,92.89c-0.07-0.01-0.13-0.03-0.2-0.04
			c-4.79,9.68-9.57,19.36-14.39,29.09c0.13,0.11,0.26,0.2,0.36,0.3c1.83,1.73,3.36,3.68,4.58,5.89c1.81,3.3,2.7,6.86,2.79,10.61
			c0.03,1.24-0.1,2.5-0.29,3.73c-0.93,5.99-3.75,10.93-8.51,14.68c-4.99,3.94-10.69,5.48-17,4.78c-0.54-0.06-0.81,0.08-1.09,0.51
			c-2.73,4.26-5.84,8.24-9.3,11.93c-9.04,9.65-19.65,16.93-32.18,21.31c-0.81,0.28-1.46,0.33-2.16-0.17
			c-0.3-0.22-0.66-0.35-0.99-0.52c-3.6-1.91-6.76-4.38-9.3-7.56c-5.82-7.31-7.76-15.51-5.45-24.63c0.05-0.19,0.08-0.38,0.12-0.55
			c-2.01-0.5-3.97-1-5.99-1.5c-0.33,0.69-0.68,1.4-1.03,2.12c-2.08,4.3-4.19,8.57-6.02,12.98c-2.7,6.49-4.43,13.2-4.71,20.25
			c-0.17,4.39,0.08,8.74,1.2,13.01c1.8,6.9,5.48,12.48,11.5,16.43c4.44,2.92,9.27,4.77,14.56,5.35c4.24,0.46,8.43,0.08,12.59-0.8
			c4.02-0.85,7.9-2.13,11.72-3.62c5.52-2.16,10.85-4.73,16.17-7.33c5.95-2.9,11.88-5.83,17.87-8.67c5.13-2.43,10.4-4.51,15.8-6.26
			c6.37-2.06,12.96-3.09,19.56-4.06c3.6-0.53,7.21-1.12,10.78-1.83c3.73-0.74,7.34-1.92,10.73-3.7
			c9.77-5.12,15.58-15.29,14.69-26.22c-0.27-3.32-1.09-6.49-2.44-9.53c-0.12-0.27-0.26-0.52-0.43-0.87
			c-1.65,1.1-3.31,1.99-5.09,2.66c-1.81,0.68-3.68,1.12-5.6,1.32c-1.9,0.2-3.79,0.16-5.68-0.11c-1.91-0.28-3.76-0.78-5.55-1.51
			c-1.76-0.73-3.41-1.67-4.94-2.81c-1.55-1.16-2.94-2.49-4.15-3.99c-3.26-4.05-4.98-8.7-5.11-13.88
			c-0.18-6.75,2.33-12.45,7.07-17.23C189.49,112.57,184.67,102.73,179.85,92.89z M179.78,72.29c7.46,15.21,14.84,30.27,22.23,45.34
			c0.76-0.24,1.42-0.51,2.1-0.64c0.63-0.12,0.91-0.44,1.1-1.03c2.11-6.3,4.25-12.59,6.38-18.88c5.2-15.33,10.39-30.65,15.59-45.98
			c0.09-0.25,0.16-0.51,0.25-0.81c-31.84,0-63.58,0-95.41,0c0.12,0.39,0.21,0.72,0.32,1.05c6.58,19.42,13.16,38.84,19.74,58.26
			c0.72,2.13,1.44,4.26,2.17,6.38c0.08,0.25,0.1,0.55,0.44,0.64c0.91,0.23,1.82,0.47,2.79,0.73
			C164.9,102.36,172.31,87.39,179.78,72.29z M89.46,153.26c7.42,0.05,13.99-5.97,14.02-13.95c0.03-8.09-6.62-14.05-13.98-14.07
			c-7.28-0.02-14.04,5.82-14.05,14C75.43,147.35,82.09,153.32,89.46,153.26z M210.29,153.15c7.72-0.02,14.03-6.35,13.99-14.07
			c-0.04-7.88-6.53-14.04-14.16-13.97c-7.24,0.07-13.87,5.88-13.87,14.03C196.24,147.1,202.7,153.13,210.29,153.15z M149.99,153.15
			c7.74-0.02,13.99-6.32,13.99-14.06c0-7.66-6.33-14.05-14.14-13.98c-8.01,0.08-14.02,6.83-13.89,14.24
			C136.09,146.9,142.37,153.17,149.99,153.15z"/>
		<path class="st17" d="M179.85,92.89c4.82,9.84,9.64,19.67,14.49,29.56c-4.74,4.78-7.24,10.49-7.07,17.23
			c0.14,5.18,1.85,9.83,5.11,13.88c1.21,1.51,2.6,2.84,4.15,3.99c1.53,1.14,3.17,2.08,4.94,2.81c1.79,0.74,3.63,1.24,5.55,1.51
			c1.89,0.27,3.79,0.31,5.68,0.11c1.92-0.2,3.79-0.64,5.6-1.32c1.78-0.67,3.44-1.56,5.09-2.66c0.17,0.34,0.31,0.6,0.43,0.87
			c1.35,3.04,2.17,6.21,2.44,9.53c0.89,10.93-4.92,21.1-14.69,26.22c-3.39,1.78-7,2.95-10.73,3.7c-3.57,0.71-7.17,1.3-10.78,1.83
			c-6.6,0.97-13.18,2-19.56,4.06c-5.4,1.75-10.67,3.83-15.8,6.26c-5.98,2.83-11.92,5.76-17.87,8.67c-5.32,2.6-10.65,5.17-16.17,7.33
			c-3.82,1.49-7.7,2.77-11.72,3.62c-4.16,0.88-8.35,1.26-12.59,0.8c-5.29-0.58-10.12-2.43-14.56-5.35
			c-6.02-3.95-9.7-9.53-11.5-16.43c-1.11-4.27-1.37-8.62-1.2-13.01c0.28-7.05,2.01-13.76,4.71-20.25c1.83-4.41,3.95-8.69,6.02-12.98
			c0.35-0.72,0.69-1.43,1.03-2.12c2.02,0.51,3.98,1,5.99,1.5c-0.04,0.18-0.08,0.37-0.12,0.55c-2.3,9.12-0.37,17.32,5.45,24.63
			c2.54,3.19,5.7,5.66,9.3,7.56c0.33,0.18,0.69,0.31,0.99,0.52c0.7,0.5,1.35,0.46,2.16,0.17c12.53-4.38,23.14-11.66,32.18-21.31
			c3.46-3.69,6.57-7.67,9.3-11.93c0.28-0.43,0.54-0.57,1.09-0.51c6.31,0.71,12.01-0.84,17-4.78c4.76-3.76,7.58-8.69,8.51-14.68
			c0.19-1.23,0.32-2.49,0.29-3.73c-0.1-3.74-0.98-7.3-2.79-10.61c-1.21-2.21-2.75-4.16-4.58-5.89c-0.11-0.1-0.23-0.19-0.36-0.3
			c4.81-9.73,9.6-19.41,14.39-29.09C179.72,92.87,179.79,92.88,179.85,92.89z"/>
		<path class="st17" d="M179.78,72.29c-7.47,15.11-14.87,30.07-22.29,45.06c-0.97-0.25-1.88-0.5-2.79-0.73
			c-0.35-0.09-0.36-0.39-0.44-0.64c-0.73-2.13-1.45-4.25-2.17-6.38c-6.58-19.42-13.16-38.84-19.74-58.26
			c-0.11-0.33-0.2-0.66-0.32-1.05c31.82,0,63.57,0,95.41,0c-0.09,0.31-0.17,0.56-0.25,0.81c-5.2,15.33-10.39,30.65-15.59,45.98
			c-2.13,6.29-4.27,12.58-6.38,18.88c-0.2,0.59-0.47,0.91-1.1,1.03c-0.68,0.13-1.33,0.4-2.1,0.64
			C194.62,102.55,187.23,87.49,179.78,72.29z"/>
		<path class="st17" d="M89.46,153.26c-7.37,0.05-14.03-5.92-14.02-14.02c0.01-8.18,6.78-14.02,14.05-14
			c7.35,0.02,14.01,5.98,13.98,14.07C103.45,147.29,96.88,153.31,89.46,153.26z"/>
		<path class="st17" d="M210.29,153.15c-7.59-0.02-14.05-6.05-14.04-14.01c0-8.15,6.63-13.96,13.87-14.03
			c7.63-0.07,14.12,6.09,14.16,13.97C224.31,146.8,218.01,153.13,210.29,153.15z"/>
		<path class="st17" d="M149.99,153.15c-7.63,0.02-13.9-6.25-14.04-13.8c-0.13-7.41,5.88-14.16,13.89-14.24
			c7.82-0.08,14.14,6.31,14.14,13.98C163.99,146.83,157.73,153.13,149.99,153.15z"/>
	</g>
</g>
<g id="Guides">
</g>
<g id="Layer_5" class="st155">
	<rect x="59.79" y="59.6" class="st156" width="180.21" height="180.21"/>
</g>
</svg>
