<svg xmlns="http://www.w3.org/2000/svg" viewBox="0 0 300 300"><defs><style>.cls-1{fill:#4a4a4d;}.cls-2{fill:#fff;}</style></defs><g id="Fondos"><rect class="cls-1" width="300" height="300"/></g><g id="Texto"><path class="cls-1" d="M150.06,70A80,80,0,1,0,230,150.1,79.93,79.93,0,0,0,150.06,70Z"/><path class="cls-2" d="M150.06,70a80,80,0,1,1-80,79.1A79.93,79.93,0,0,1,150.06,70Zm30.8,102.39c-.12-.45-.21-.7-.27-.95L171.8,135q-2.34-9.69-4.68-19.37c-.14-.57-.42-.71-1-.7H147.64a7.18,7.18,0,0,0-.83.08c.12.43.22.79.33,1.14q6.35,20.4,12.7,40.79,5.4,17.31,10.82,34.63a1.33,1.33,0,0,1-.29,1.47,17.43,17.43,0,0,1-8.43,5.49c-2.78.77-5.63,1.31-8.46,1.95-.45.1-.93,0-.81.79q.95,6.13,1.82,12.29c.09.59.33.75.85.7a63.79,63.79,0,0,0,10.88-1.86,35.08,35.08,0,0,0,15.88-9,42.06,42.06,0,0,0,10-16.75c2.48-7.49,4.85-15,7.27-22.52L214,118.66c.39-1.2.76-2.41,1.15-3.66a4.78,4.78,0,0,0-.55-.08c-6.14,0-12.28,0-18.42,0-.54,0-.7.25-.81.69-.4,1.58-.82,3.14-1.22,4.72q-6.15,24.12-12.29,48.23C181.57,169.77,181.24,171,180.86,172.39Zm-35.07-50.95a1.48,1.48,0,0,0-.2-.3,32.58,32.58,0,0,0-11.88-6.74,38.85,38.85,0,0,0-14.11-1.47A31.61,31.61,0,0,0,106,116.84c-7.34,4.13-12,10.43-14.71,18.3A49.24,49.24,0,0,0,89.2,156a38.93,38.93,0,0,0,4.37,15,29.38,29.38,0,0,0,16.73,14.3,38.51,38.51,0,0,0,18,1.54,34.79,34.79,0,0,0,16.91-7.28c.57-.44.58-.77.18-1.34-1.62-2.27-3.19-4.57-4.79-6.86-1-1.42-2-2.83-3-4.21l-.18,0-1.71,1A23.85,23.85,0,0,1,124.78,172c-7.26.4-12.4-3.1-14.48-10.05a34.36,34.36,0,0,1-1.3-8.84c-.17-5.18,0-10.34,1.56-15.34a15.19,15.19,0,0,1,4.45-7.26c2.86-2.44,6.22-3.11,9.89-2.95a20.67,20.67,0,0,1,10.8,3.71c.61.41,1.21.85,1.85,1.3Z"/><path class="cls-1" d="M180.86,172.39c.38-1.4.71-2.62,1-3.85q6.15-24.1,12.29-48.23c.4-1.58.82-3.14,1.22-4.72.11-.44.27-.69.81-.69,6.14,0,12.28,0,18.42,0a4.78,4.78,0,0,1,.55.08c-.39,1.25-.76,2.46-1.15,3.66l-14.66,45.47c-2.42,7.51-4.79,15-7.27,22.52a42.06,42.06,0,0,1-10,16.75,35.08,35.08,0,0,1-15.88,9,63.79,63.79,0,0,1-10.88,1.86c-.52.05-.76-.11-.85-.7q-.87-6.15-1.82-12.29c-.12-.75.36-.69.81-.79,2.83-.64,5.68-1.18,8.46-1.95a17.43,17.43,0,0,0,8.43-5.49,1.33,1.33,0,0,0,.29-1.47q-5.41-17.31-10.82-34.63-6.36-20.4-12.7-40.79c-.11-.35-.21-.71-.33-1.14a7.18,7.18,0,0,1,.83-.08h18.51c.55,0,.83.13,1,.7q2.32,9.69,4.68,19.37l8.79,36.46C180.65,171.69,180.74,171.94,180.86,172.39Z"/><path class="cls-1" d="M145.79,121.44l-8.24,11.16c-.64-.45-1.24-.89-1.85-1.3a20.67,20.67,0,0,0-10.8-3.71c-3.67-.16-7,.51-9.89,2.95a15.19,15.19,0,0,0-4.45,7.26c-1.58,5-1.73,10.16-1.56,15.34a34.36,34.36,0,0,0,1.3,8.84c2.08,7,7.22,10.45,14.48,10.05a23.85,23.85,0,0,0,10.91-3.78l1.71-1,.18,0c1,1.38,2,2.79,3,4.21,1.6,2.29,3.17,4.59,4.79,6.86.4.57.39.9-.18,1.34a34.79,34.79,0,0,1-16.91,7.28,38.51,38.51,0,0,1-18-1.54A29.38,29.38,0,0,1,93.57,171a38.93,38.93,0,0,1-4.37-15,49.24,49.24,0,0,1,2.1-20.88C94,127.27,98.67,121,106,116.84a31.61,31.61,0,0,1,13.59-3.91,38.85,38.85,0,0,1,14.11,1.47,32.58,32.58,0,0,1,11.88,6.74A1.48,1.48,0,0,1,145.79,121.44Z"/></g></svg>