<?xml version="1.0" encoding="utf-8"?>
<!-- Generator: Adobe Illustrator 25.4.1, SVG Export Plug-In . SVG Version: 6.00 Build 0)  -->
<svg version="1.1" xmlns="http://www.w3.org/2000/svg" xmlns:xlink="http://www.w3.org/1999/xlink" x="0px" y="0px"
	 viewBox="0 0 300 300" style="enable-background:new 0 0 300 300;" xml:space="preserve">
<style type="text/css">
	.st0{fill:#4674B9;}
	.st1{fill:#2C2C32;}
	.st2{fill:#010101;}
	.st3{fill:#F6DF19;}
	.st4{fill:#2363AF;}
	.st5{fill:#F0672B;}
	.st6{fill:#101215;}
	.st7{fill:#492D8C;}
	.st8{fill:#F36C3D;}
	.st9{fill:#7756A3;}
	.st10{fill:#679E63;}
	.st11{fill:#484848;}
	.st12{fill:#1B1F23;}
	.st13{fill:#EF7729;}
	.st14{fill:#4791CE;}
	.st15{fill:#F6F6F6;}
	.st16{fill:#4A4A4D;}
	.st17{fill:#C54027;}
	.st18{fill:#3978BD;}
	.st19{fill:#CC6899;}
	.st20{fill:#12364F;}
	.st21{fill:#316A9A;}
	.st22{fill:#FFD53E;}
	.st23{fill:#693994;}
	.st24{fill:#FFFFFF;}
	.st25{fill-rule:evenodd;clip-rule:evenodd;fill:#FFFFFF;}
	.st26{fill-rule:evenodd;clip-rule:evenodd;fill:url(#XMLID_00000080198949553825319130000000951189330189854365_);}
	.st27{clip-path:url(#XMLID_00000137811043295246941140000008041385119545648785_);}
	.st28{fill:none;}
	.st29{opacity:0.66;fill:#4B4B4B;}
	.st30{fill:url(#SVGID_1_);}
	.st31{opacity:0.05;fill:#010101;enable-background:new    ;}
	.st32{fill:#17AA4F;}
	.st33{fill:#B8C4C2;}
	.st34{fill:#14924F;}
	.st35{fill:#22323D;}
	.st36{fill:#F26424;}
	.st37{fill:#4E4E4E;}
	.st38{fill:#3B2F14;}
	.st39{fill:#F58772;}
	.st40{fill:#F05233;}
	.st41{fill:#433527;}
	.st42{fill:#DD1E34;}
	.st43{fill:#C32033;}
	.st44{fill:#F9F9FA;}
	.st45{fill:#7253A2;}
	.st46{fill:#4674B9;stroke:#FFFFFF;stroke-width:8;stroke-miterlimit:10;}
	.st47{fill:#EF4623;}
	.st48{fill:#4EB987;}
	.st49{fill:#455567;}
	.st50{fill:#F1F2F2;}
	.st51{fill:#70CEEF;}
	.st52{fill:#70CFF0;}
	.st53{opacity:0.7;fill:#2C384A;enable-background:new    ;}
	.st54{fill:url(#path-2_00000116940877860742258970000013492038196097320077_);}
	.st55{filter:url(#Adobe_OpacityMaskFilter);}
	.st56{mask:url(#mask-3_3_);}
	.st57{fill:#F9A01B;}
	.st58{fill:#F47D20;}
	.st59{fill:#FFCB2A;}
	.st60{fill:#FFFFFF;fill-opacity:0.2;}
	.st61{opacity:0.2;fill:#A52A22;enable-background:new    ;}
	.st62{filter:url(#Adobe_OpacityMaskFilter_00000062906328879112745470000004567105421526689717_);}
	.st63{mask:url(#mask-3_2_);fill:none;}
	.st64{filter:url(#Adobe_OpacityMaskFilter_00000113326836114159564290000003257914347673039748_);}
	.st65{mask:url(#mask-3_1_);fill:url(#_Path_5_00000130636084167621574790000010955583840782106496_);}
	.st66{fill:#5BADE0;}
	.st67{fill:#4699D4;}
	.st68{fill:#318ECD;}
	.st69{fill:#3390CE;}
	.st70{fill:#1773B0;}
	.st71{fill:#489BD5;}
	.st72{fill:#2884C6;}
	.st73{fill:#2682C5;}
	.st74{fill:#2480C4;}
	.st75{fill:#237EC2;}
	.st76{fill:#4497D2;}
	.st77{fill:#1571AF;}
	.st78{fill:#237DC1;}
	.st79{fill:#1B72AD;}
	.st80{fill:#1B6CA3;}
	.st81{fill:#196FA9;}
	.st82{fill:#1D77BD;}
	.st83{fill:#207ABF;}
	.st84{fill:#2D7FB8;}
	.st85{fill:#3383BA;}
	.st86{fill:#287EB6;}
	.st87{fill:#63B0E1;}
	.st88{fill:#3887BC;}
	.st89{fill:#3B89BD;}
	.st90{fill:#3792D0;}
	.st91{fill:#2A78AC;}
	.st92{fill:#2973A8;}
	.st93{fill:#2A7CB3;}
	.st94{fill:#3F88BA;}
	.st95{fill:#59ABDF;}
	.st96{fill:#3A7FAF;}
	.st97{fill:#317BAC;}
	.st98{fill:#367DAE;}
	.st99{fill:#2C8BCB;}
	.st100{fill:#2E8DCC;}
	.st101{fill:#1A75B1;}
	.st102{fill:#1F77B2;}
	.st103{fill:#1D74AF;}
	.st104{fill:#1D72AA;}
	.st105{fill:#206FA5;}
	.st106{fill:#499FD8;}
	.st107{fill:#489CD6;}
	.st108{fill:#4DA1D9;}
	.st109{fill:#51A6DC;}
	.st110{fill:#4FA4DB;}
	.st111{fill:#0F72B7;}
	.st112{fill:#0770B7;}
	.st113{fill:#56A8DD;}
	.st114{fill:#2A88C9;}
	.st115{fill:#227FC3;}
	.st116{fill:#1F7DC1;}
	.st117{fill:#1D7BC0;}
	.st118{fill:#1474BB;}
	.st119{fill:#1071B9;}
	.st120{fill:#1E79BF;}
	.st121{fill:#1875BC;}
	.st122{fill:#3381B5;}
	.st123{fill:#2F7FB4;}
	.st124{fill:#3883B6;}
	.st125{fill:#267BB5;}
	.st126{fill:#297AB2;}
	.st127{fill:#3E86B6;}
	.st128{fill:#3C81B1;}
	.st129{fill:#3B87B9;}
	.st130{fill:#3A85B8;}
	.st131{fill:#2378B1;}
	.st132{fill:#2675AC;}
	.st133{fill:#2572A6;}
	.st134{fill:#0D74B8;}
	.st135{fill:#3882B4;}
	.st136{fill:#367FB2;}
	.st137{fill:#307CAF;}
	.st138{fill:#337EB0;}
	.st139{fill:#2271A5;}
	.st140{fill:#0E75BB;}
	.st141{fill:#0D73BB;}
	.st142{fill:#0B74BC;}
	.st143{fill:#1578BC;}
	.st144{fill:#1C7CC1;}
	.st145{fill:#2575AB;}
	.st146{fill:#1B7BC0;}
	.st147{fill:#1876BD;}
	.st148{fill:#1978BE;}
	.st149{fill:#3C84B4;}
	.st150{fill-rule:evenodd;clip-rule:evenodd;fill:#687E91;}
	.st151{fill:#037690;}
	.st152{fill:#F29220;}
	.st153{fill-rule:evenodd;clip-rule:evenodd;fill:#F29220;}
	.st154{fill-rule:evenodd;clip-rule:evenodd;fill:#037690;}
	.st155{display:none;}
	.st156{display:inline;fill-rule:evenodd;clip-rule:evenodd;fill:#2BB673;}
	.st157{display:inline;opacity:0.15;fill-rule:evenodd;clip-rule:evenodd;fill:#2BB673;}
</style>
<g id="Fondos_1_">
	<rect class="st16" width="300" height="300"/>
</g>
<g id="Texto">
	<g>
		<path class="st16" d="M150.06,70c-44.21-0.02-79.59,35.58-80.03,79.1c-0.45,44.94,35.71,80.84,79.82,80.9
			c44.36,0.05,80.07-35.74,80.12-79.9C230.03,105.76,194.19,70.02,150.06,70z"/>
		<path class="st24" d="M150.06,70c44.13,0.02,79.97,35.76,79.92,80.1c-0.05,44.16-35.76,79.96-80.12,79.9
			c-44.11-0.05-80.28-35.96-79.82-80.9C70.46,105.58,105.85,69.98,150.06,70z M180.86,172.39c-0.13-0.45-0.21-0.7-0.27-0.95
			c-2.93-12.15-5.86-24.31-8.8-36.46c-1.56-6.46-3.13-12.91-4.68-19.37c-0.14-0.57-0.42-0.71-0.97-0.7
			c-6.17,0.02-12.34,0.01-18.51,0.01c-0.25,0-0.5,0.04-0.83,0.08c0.12,0.44,0.21,0.8,0.32,1.15c4.23,13.59,8.46,27.19,12.7,40.78
			c3.6,11.55,7.21,23.09,10.83,34.63c0.18,0.58,0.12,1-0.29,1.47c-2.31,2.61-5.07,4.56-8.43,5.49c-2.79,0.77-5.64,1.32-8.46,1.95
			c-0.45,0.1-0.93,0.05-0.81,0.79c0.63,4.1,1.25,8.19,1.83,12.3c0.08,0.58,0.33,0.74,0.85,0.69c3.67-0.36,7.31-0.87,10.87-1.86
			c6.04-1.68,11.43-4.51,15.89-8.98c4.72-4.75,7.91-10.44,10-16.75c2.48-7.49,4.85-15.01,7.27-22.52
			c4.89-15.16,9.78-30.31,14.66-45.47c0.39-1.2,0.76-2.41,1.15-3.66c-0.27-0.04-0.41-0.08-0.55-0.08c-6.14,0-12.28,0-18.42-0.02
			c-0.54,0-0.7,0.25-0.81,0.69c-0.4,1.57-0.82,3.14-1.22,4.72c-4.1,16.08-8.2,32.16-12.3,48.24
			C181.57,169.77,181.24,170.99,180.86,172.39z M145.79,121.44c-0.1-0.15-0.14-0.24-0.2-0.29c-3.52-3.03-7.42-5.39-11.88-6.74
			c-4.6-1.4-9.31-1.79-14.11-1.47c-4.83,0.33-9.38,1.54-13.59,3.91c-7.34,4.13-12.04,10.43-14.71,18.3
			c-2.31,6.79-2.79,13.77-2.1,20.88c0.51,5.29,1.84,10.33,4.37,15.02c3.73,6.92,9.3,11.71,16.74,14.29
			c5.85,2.04,11.86,2.34,17.95,1.54c6.31-0.83,11.89-3.41,16.91-7.28c0.57-0.44,0.58-0.77,0.18-1.34c-1.62-2.27-3.19-4.57-4.79-6.86
			c-0.99-1.42-2-2.84-2.97-4.22c-0.13,0.02-0.16,0.01-0.19,0.03c-0.57,0.34-1.14,0.7-1.71,1.04c-3.37,2.01-6.88,3.55-10.9,3.77
			c-7.27,0.4-12.41-3.1-14.49-10.05c-0.86-2.88-1.21-5.85-1.3-8.84c-0.16-5.18-0.02-10.34,1.57-15.34c0.88-2.78,2.18-5.32,4.44-7.25
			c2.86-2.44,6.22-3.12,9.89-2.95c3.99,0.18,7.53,1.51,10.8,3.71c0.62,0.41,1.22,0.85,1.86,1.3
			C140.33,128.84,143.05,125.15,145.79,121.44z"/>
		<path class="st16" d="M180.86,172.39c0.37-1.4,0.71-2.62,1.02-3.84c4.1-16.08,8.2-32.16,12.3-48.24c0.4-1.57,0.82-3.14,1.22-4.72
			c0.11-0.44,0.27-0.69,0.81-0.69c6.14,0.02,12.28,0.01,18.42,0.02c0.14,0,0.28,0.04,0.55,0.08c-0.39,1.25-0.76,2.46-1.15,3.66
			c-4.89,15.16-9.77,30.31-14.66,45.47c-2.42,7.51-4.79,15.03-7.27,22.52c-2.09,6.31-5.28,12-10,16.75
			c-4.45,4.48-9.84,7.3-15.89,8.98c-3.56,0.99-7.2,1.51-10.87,1.86c-0.52,0.05-0.77-0.11-0.85-0.69c-0.58-4.1-1.19-8.2-1.83-12.3
			c-0.11-0.74,0.36-0.69,0.81-0.79c2.83-0.63,5.68-1.18,8.46-1.95c3.36-0.93,6.12-2.88,8.43-5.49c0.42-0.47,0.47-0.89,0.29-1.47
			c-3.62-11.54-7.22-23.09-10.83-34.63c-4.24-13.59-8.47-27.19-12.7-40.78c-0.11-0.35-0.2-0.71-0.32-1.15
			c0.33-0.03,0.58-0.08,0.83-0.08c6.17,0,12.34,0,18.51-0.01c0.55,0,0.84,0.14,0.97,0.7c1.55,6.46,3.12,12.91,4.68,19.37
			c2.93,12.15,5.86,24.31,8.8,36.46C180.65,171.69,180.74,171.94,180.86,172.39z"/>
		<path class="st16" d="M145.79,121.44c-2.74,3.72-5.47,7.41-8.24,11.16c-0.64-0.45-1.24-0.89-1.86-1.3
			c-3.27-2.19-6.81-3.53-10.8-3.71c-3.67-0.17-7.04,0.51-9.89,2.95c-2.26,1.93-3.56,4.48-4.44,7.25c-1.59,5-1.73,10.16-1.57,15.34
			c0.09,2.99,0.44,5.96,1.3,8.84c2.08,6.95,7.22,10.45,14.49,10.05c4.02-0.22,7.53-1.76,10.9-3.77c0.57-0.34,1.14-0.69,1.71-1.04
			c0.02-0.01,0.06-0.01,0.19-0.03c0.97,1.38,1.98,2.79,2.97,4.22c1.6,2.29,3.17,4.59,4.79,6.86c0.4,0.57,0.39,0.9-0.18,1.34
			c-5.02,3.87-10.59,6.45-16.91,7.28c-6.09,0.8-12.1,0.49-17.95-1.54c-7.43-2.59-13-7.37-16.74-14.29
			c-2.53-4.69-3.86-9.73-4.37-15.02c-0.69-7.11-0.2-14.09,2.1-20.88c2.67-7.88,7.37-14.17,14.71-18.3
			c4.22-2.37,8.77-3.59,13.59-3.91c4.8-0.32,9.51,0.07,14.11,1.47c4.46,1.35,8.36,3.71,11.88,6.74
			C145.65,121.19,145.69,121.28,145.79,121.44z"/>
	</g>
</g>
<g id="Guides">
</g>
<g id="Layer_5" class="st155">
	<rect x="59.79" y="59.6" class="st156" width="180.21" height="180.21"/>
</g>
</svg>
