<svg xmlns="http://www.w3.org/2000/svg" viewBox="0 0 300 300"><defs><style>.cls-1{fill:#3978bd;}.cls-2{fill:#fff;fill-rule:evenodd;}</style></defs><g id="Fondos"><rect class="cls-1" width="300" height="300"/></g><g id="Texto"><path class="cls-2" d="M199.12,235.11V255a42.25,42.25,0,0,0,11.49,3.74,75.64,75.64,0,0,0,14,1.24,65.46,65.46,0,0,0,13.6-1.37,33.38,33.38,0,0,0,11.3-4.51,22.94,22.94,0,0,0,7.69-8.21,28.94,28.94,0,0,0,1.21-22,22.11,22.11,0,0,0-4.67-7.25,34.31,34.31,0,0,0-7.31-5.69,77.7,77.7,0,0,0-9.62-4.76c-2.61-1.08-5-2.13-7-3.14a36.28,36.28,0,0,1-5.29-3.11,13.36,13.36,0,0,1-3.36-3.36,7.09,7.09,0,0,1-1.19-4,6.75,6.75,0,0,1,1.06-3.7,9.16,9.16,0,0,1,3-2.83,16,16,0,0,1,4.73-1.84,27.76,27.76,0,0,1,6.22-.65,40.88,40.88,0,0,1,5.26.37,41.64,41.64,0,0,1,5.58,1.16,37.54,37.54,0,0,1,5.44,2,29.94,29.94,0,0,1,4.89,2.73v-18.6a48.72,48.72,0,0,0-9.93-2.58,80.94,80.94,0,0,0-12.36-.84,57.71,57.71,0,0,0-13.44,1.52A34.16,34.16,0,0,0,209.18,174a23.82,23.82,0,0,0-7.63,8.25,24.11,24.11,0,0,0-2.8,12,23.22,23.22,0,0,0,5.14,15.19q5.13,6.27,15.59,10.63,4.11,1.68,7.65,3.3a43.2,43.2,0,0,1,6.14,3.36,15.94,15.94,0,0,1,4.07,3.8,7.7,7.7,0,0,1,1.5,4.66,7.07,7.07,0,0,1-.94,3.58,8.21,8.21,0,0,1-2.83,2.86,15.37,15.37,0,0,1-4.73,1.9,28.25,28.25,0,0,1-6.63.69,37.65,37.65,0,0,1-12.82-2.28,38.2,38.2,0,0,1-11.77-6.81Zm-33.47-49.05h25.54V169.72H120v16.34h25.42v72.75h20.23Z"/></g></svg>