<svg xmlns="http://www.w3.org/2000/svg" viewBox="0 0 300 300"><defs><style>.cls-1{fill:#ef4623;}.cls-2{fill:#fff;}</style></defs><g id="Texto"><path class="cls-1" d="M211.1,94.75C195.64,72.48,164.86,66,142.74,80l-39,25a44.37,44.37,0,0,0-20.14,29.93,46.49,46.49,0,0,0,4.68,30.21,42.75,42.75,0,0,0-6.66,16.73,47.76,47.76,0,0,0,8.08,36c15.6,22.26,46.24,28.79,68.36,14.75l39-24.82a44.37,44.37,0,0,0,20.14-29.93,46.49,46.49,0,0,0-4.68-30.21,42.85,42.85,0,0,0,6.66-16.74,46.75,46.75,0,0,0-8.08-36.16"/><path class="cls-2" d="M138.91,220a30.91,30.91,0,0,1-33.19-12.34,28.74,28.74,0,0,1-5-21.7c.29-1.27.57-2.41.86-3.68l.7-2.27,2,1.42a51.78,51.78,0,0,0,15.32,7.65l1.42.43-.15,1.42a9.53,9.53,0,0,0,1.56,5.81,9.36,9.36,0,0,0,10.07,3.83,11.68,11.68,0,0,0,2.42-1l38.86-24.82a8,8,0,0,0,3.68-5.39,8.79,8.79,0,0,0-1.41-6.52A9.31,9.31,0,0,0,166,159.14a12.25,12.25,0,0,0-2.42,1l-14.89,9.5a26.36,26.36,0,0,1-7.94,3.41,30.92,30.92,0,0,1-33.19-12.34,28.67,28.67,0,0,1-4.82-21.7,26.86,26.86,0,0,1,12.2-18l39-24.82A30,30,0,0,1,195.07,105a28.7,28.7,0,0,1,5,21.7,33.61,33.61,0,0,1-1,3.69l-.71,2.27-2-1.42A51.57,51.57,0,0,0,181,123.54l-1.42-.43.14-1.41a9.47,9.47,0,0,0-1.56-5.82,9.32,9.32,0,0,0-10.07-3.69,12.43,12.43,0,0,0-2.41,1L126.85,138a8.06,8.06,0,0,0-3.69,5.39,8.85,8.85,0,0,0,1.42,6.52,9.32,9.32,0,0,0,10.07,3.69,12.43,12.43,0,0,0,2.41-1l14.89-9.5a30.06,30.06,0,0,1,41.13,8.8,28.7,28.7,0,0,1,5,21.7,26.88,26.88,0,0,1-12.2,18l-39,24.82a30.89,30.89,0,0,1-7.94,3.54"/></g></svg>