<?xml version="1.0" encoding="utf-8"?>
<!-- Generator: Adobe Illustrator 25.4.1, SVG Export Plug-In . SVG Version: 6.00 Build 0)  -->
<svg version="1.1" xmlns="http://www.w3.org/2000/svg" xmlns:xlink="http://www.w3.org/1999/xlink" x="0px" y="0px"
	 viewBox="0 0 300 300" style="enable-background:new 0 0 300 300;" xml:space="preserve">
<style type="text/css">
	.st0{fill:#4674B9;}
	.st1{fill:#2C2C32;}
	.st2{fill:#010101;}
	.st3{fill:#F6DF19;}
	.st4{fill:#2363AF;}
	.st5{fill:#F0672B;}
	.st6{fill:#101215;}
	.st7{fill:#492D8C;}
	.st8{fill:#F36C3D;}
	.st9{fill:#7756A3;}
	.st10{fill:#679E63;}
	.st11{fill:#484848;}
	.st12{fill:#1B1F23;}
	.st13{fill:#EF7729;}
	.st14{fill:#4791CE;}
	.st15{fill:#F6F6F6;}
	.st16{fill:#4A4A4D;}
	.st17{fill:#C54027;}
	.st18{fill:#3978BD;}
	.st19{fill:#CC6899;}
	.st20{fill:#12364F;}
	.st21{fill:#316A9A;}
	.st22{fill:#FFD53E;}
	.st23{fill:#693994;}
	.st24{fill:#FFFFFF;}
	.st25{fill-rule:evenodd;clip-rule:evenodd;fill:#FFFFFF;}
	.st26{fill-rule:evenodd;clip-rule:evenodd;fill:url(#XMLID_00000078748047952493353140000011102753851766887601_);}
	.st27{clip-path:url(#XMLID_00000158740526662088580120000017714763630032812720_);}
	.st28{fill:none;}
	.st29{opacity:0.66;fill:#4B4B4B;}
	.st30{fill:url(#SVGID_1_);}
	.st31{opacity:0.05;fill:#010101;enable-background:new    ;}
	.st32{fill:#17AA4F;}
	.st33{fill:#B8C4C2;}
	.st34{fill:#14924F;}
	.st35{fill:#22323D;}
	.st36{fill:#F26424;}
	.st37{fill:#4E4E4E;}
	.st38{fill:#3B2F14;}
	.st39{fill:#F58772;}
	.st40{fill:#F05233;}
	.st41{fill:#433527;}
	.st42{fill:#DD1E34;}
	.st43{fill:#C32033;}
	.st44{fill:#F9F9FA;}
	.st45{fill:#7253A2;}
	.st46{fill:#4674B9;stroke:#FFFFFF;stroke-width:8;stroke-miterlimit:10;}
	.st47{fill:#EF4623;}
	.st48{fill:#4EB987;}
	.st49{fill:#455567;}
	.st50{fill:#F1F2F2;}
	.st51{fill:#70CEEF;}
	.st52{fill:#70CFF0;}
	.st53{opacity:0.7;fill:#2C384A;enable-background:new    ;}
	.st54{fill:url(#path-2_00000026142057825977919440000014936347500803870362_);}
	.st55{filter:url(#Adobe_OpacityMaskFilter);}
	.st56{mask:url(#mask-3_3_);}
	.st57{fill:#F9A01B;}
	.st58{fill:#F47D20;}
	.st59{fill:#FFCB2A;}
	.st60{fill:#FFFFFF;fill-opacity:0.2;}
	.st61{opacity:0.2;fill:#A52A22;enable-background:new    ;}
	.st62{filter:url(#Adobe_OpacityMaskFilter_00000174575126881775623810000009451895858383944121_);}
	.st63{mask:url(#mask-3_2_);fill:none;}
	.st64{filter:url(#Adobe_OpacityMaskFilter_00000082370545898938069560000006850395905155773597_);}
	.st65{mask:url(#mask-3_1_);fill:url(#_Path_5_00000158025159336720868010000006955771609415842704_);}
	.st66{fill:#5BADE0;}
	.st67{fill:#4699D4;}
	.st68{fill:#318ECD;}
	.st69{fill:#3390CE;}
	.st70{fill:#1773B0;}
	.st71{fill:#489BD5;}
	.st72{fill:#2884C6;}
	.st73{fill:#2682C5;}
	.st74{fill:#2480C4;}
	.st75{fill:#237EC2;}
	.st76{fill:#4497D2;}
	.st77{fill:#1571AF;}
	.st78{fill:#237DC1;}
	.st79{fill:#1B72AD;}
	.st80{fill:#1B6CA3;}
	.st81{fill:#196FA9;}
	.st82{fill:#1D77BD;}
	.st83{fill:#207ABF;}
	.st84{fill:#2D7FB8;}
	.st85{fill:#3383BA;}
	.st86{fill:#287EB6;}
	.st87{fill:#63B0E1;}
	.st88{fill:#3887BC;}
	.st89{fill:#3B89BD;}
	.st90{fill:#3792D0;}
	.st91{fill:#2A78AC;}
	.st92{fill:#2973A8;}
	.st93{fill:#2A7CB3;}
	.st94{fill:#3F88BA;}
	.st95{fill:#59ABDF;}
	.st96{fill:#3A7FAF;}
	.st97{fill:#317BAC;}
	.st98{fill:#367DAE;}
	.st99{fill:#2C8BCB;}
	.st100{fill:#2E8DCC;}
	.st101{fill:#1A75B1;}
	.st102{fill:#1F77B2;}
	.st103{fill:#1D74AF;}
	.st104{fill:#1D72AA;}
	.st105{fill:#206FA5;}
	.st106{fill:#499FD8;}
	.st107{fill:#489CD6;}
	.st108{fill:#4DA1D9;}
	.st109{fill:#51A6DC;}
	.st110{fill:#4FA4DB;}
	.st111{fill:#0F72B7;}
	.st112{fill:#0770B7;}
	.st113{fill:#56A8DD;}
	.st114{fill:#2A88C9;}
	.st115{fill:#227FC3;}
	.st116{fill:#1F7DC1;}
	.st117{fill:#1D7BC0;}
	.st118{fill:#1474BB;}
	.st119{fill:#1071B9;}
	.st120{fill:#1E79BF;}
	.st121{fill:#1875BC;}
	.st122{fill:#3381B5;}
	.st123{fill:#2F7FB4;}
	.st124{fill:#3883B6;}
	.st125{fill:#267BB5;}
	.st126{fill:#297AB2;}
	.st127{fill:#3E86B6;}
	.st128{fill:#3C81B1;}
	.st129{fill:#3B87B9;}
	.st130{fill:#3A85B8;}
	.st131{fill:#2378B1;}
	.st132{fill:#2675AC;}
	.st133{fill:#2572A6;}
	.st134{fill:#0D74B8;}
	.st135{fill:#3882B4;}
	.st136{fill:#367FB2;}
	.st137{fill:#307CAF;}
	.st138{fill:#337EB0;}
	.st139{fill:#2271A5;}
	.st140{fill:#0E75BB;}
	.st141{fill:#0D73BB;}
	.st142{fill:#0B74BC;}
	.st143{fill:#1578BC;}
	.st144{fill:#1C7CC1;}
	.st145{fill:#2575AB;}
	.st146{fill:#1B7BC0;}
	.st147{fill:#1876BD;}
	.st148{fill:#1978BE;}
	.st149{fill:#3C84B4;}
	.st150{fill-rule:evenodd;clip-rule:evenodd;fill:#687E91;}
	.st151{fill:#037690;}
	.st152{fill:#F29220;}
	.st153{fill-rule:evenodd;clip-rule:evenodd;fill:#F29220;}
	.st154{fill-rule:evenodd;clip-rule:evenodd;fill:#037690;}
	.st155{display:none;}
	.st156{display:inline;fill-rule:evenodd;clip-rule:evenodd;fill:#2BB673;}
	.st157{display:inline;opacity:0.15;fill-rule:evenodd;clip-rule:evenodd;fill:#2BB673;}
</style>
<g id="Fondos_1_">
	<rect class="st11" width="300" height="300"/>
</g>
<g id="Texto">
	<g>
		<path class="st24" d="M161.79,228.69c-3.99,0-7.98,0-11.97,0c-0.13-0.37-0.46-0.27-0.73-0.3c-3.53-0.35-7.02-0.94-10.47-1.76
			c-28.44-6.78-50.57-31.02-54.82-59.99c-0.23-1.6-0.15-3.25-0.8-4.78c0-4.09,0-8.17,0-12.26c0.37-0.13,0.27-0.46,0.3-0.73
			c0.35-3.53,0.94-7.02,1.76-10.47c6.79-28.45,31.01-50.57,59.98-54.82c1.69-0.25,3.44-0.17,5.08-0.8c3.89,0,7.78,0,11.67,0
			c0.14,0.37,0.47,0.26,0.74,0.29c3.53,0.32,7.02,0.91,10.47,1.72c28.67,6.79,50.83,30.94,55.11,60.04c0.25,1.69,0.17,3.44,0.8,5.08
			c0,3.99,0,7.98,0,11.97c-0.37,0.13-0.27,0.46-0.3,0.73c-0.35,3.53-0.94,7.02-1.76,10.47c-6.77,28.42-31.01,50.57-59.98,54.82
			C165.17,228.13,163.42,228.05,161.79,228.69z M139.73,195.51c0.07-0.13,0.14-0.24,0.18-0.36c4.61-13.81,9.21-27.62,13.84-41.42
			c0.2-0.61,0.11-1.11-0.1-1.68c-3.17-8.66-6.33-17.31-9.45-25.99c-0.32-0.9-0.83-1.16-1.7-1.21c-1.94-0.13-3.88-0.28-5.8-0.55
			c-1.56-0.21-2.42-1.41-2.26-2.86c0.17-1.52,1.18-2.47,2.72-2.48c0.78-0.01,1.55,0.07,2.33,0.12c5.53,0.37,11.06,0.77,16.61,0.68
			c5.2-0.09,10.4-0.4,15.59-0.8c1.2-0.09,2.23,0.15,2.88,1.27c1.02,1.76,0.03,3.8-2.11,4.11c-1.87,0.27-3.77,0.36-5.66,0.5
			c-1.8,0.13-1.8,0.12-1.24,1.78c7.52,22.39,15.04,44.79,22.59,67.18c0.14,0.4,0.06,1,0.66,1.17c2.92-9.63,5.83-19.24,8.74-28.85
			c0.41-1.35,0.76-2.71,1.15-4.06c1.83-6.3,2.13-12.62,0.14-18.95c-1.29-4.11-3.4-7.82-5.66-11.45c-1.82-2.93-3.56-5.9-4.39-9.31
			c-1.35-5.58,0.87-11.13,5.49-13.73c1.72-0.97,3.59-1.33,5.98-1.38c-17.09-14.55-36.26-20.05-57.9-15.62
			c-17.43,3.57-30.95,13.21-41.29,28.16c2.06,0,3.66,0.03,5.25-0.01c4.91-0.12,9.82-0.33,14.71-0.73c0.68-0.05,1.36-0.1,2.04-0.09
			c1.46,0.03,2.42,0.87,2.59,2.24c0.2,1.57-0.51,2.8-2.02,3.04c-2.06,0.32-4.15,0.51-6.23,0.59c-1.36,0.05-1.58,0.4-1.14,1.71
			c7.63,22.57,15.2,45.15,22.81,67.72C139.21,194.67,139.19,195.23,139.73,195.51z M157.26,161.95c-0.11,0.01-0.21,0.01-0.32,0.02
			c-1.06,3.07-2.11,6.14-3.17,9.21c-5.29,15.36-10.59,30.72-15.87,46.08c-0.22,0.65-0.83,1.34,0.55,1.7
			c12.84,3.41,25.56,3.14,38.19-1c0.75-0.25,0.96-0.41,0.64-1.28c-5.2-14.11-10.34-28.23-15.5-42.36
			C160.28,170.21,158.77,166.08,157.26,161.95z M127.25,214.58c-10.45-28.62-20.78-56.93-31.19-85.45
			C81.42,162.15,96.4,199.88,127.25,214.58z M189.36,212.22c16.48-10.32,27.07-24.74,30.9-43.82c3.04-15.11,0.78-29.54-6.42-43.16
			c-0.1,0.93-0.05,1.85,0.02,2.76c0.26,3.12,0.06,6.22-0.29,9.31c-0.7,6.18-2.73,11.98-4.78,17.81
			c-6.48,18.44-12.82,36.93-19.2,55.4C189.44,210.99,189.05,211.46,189.36,212.22z"/>
	</g>
</g>
<g id="Guides">
</g>
<g id="Layer_5" class="st155">
	<rect x="59.79" y="59.6" class="st156" width="180.21" height="180.21"/>
</g>
</svg>
