<?xml version="1.0" encoding="UTF-8"?><svg id="Fondos" xmlns="http://www.w3.org/2000/svg" viewBox="0 0 300 300"><defs><style>.cls-1{fill:#12364f;}.cls-2{fill:#ffd53e;}.cls-3{fill:#316a9a;}</style></defs><rect class="cls-1" y=".85" width="300" height="300"/><g><path id="path1948" class="cls-3" d="m149.9,55.84c-7.68-.05-15.02.53-21.49,1.6-19.05,3.15-22.57,10.15-22.71,23.11l-.18,17.12,44.92.48-.06,5.71-44.92-.48-16.86-.18c-13.06-.14-24.57,7.58-28.31,22.47-4.31,17.07-4.61,27.74-.49,45.66,3.05,13.33,10.57,22.89,23.63,23.03l15.45.17.22-20.52c.16-14.83,13.13-27.77,28.36-27.61l44.87.48c12.49.13,22.57-10.04,22.71-22.59l.46-42.78c.13-12.17-10.04-21.43-22.21-23.59-7.7-1.37-15.7-2.04-23.38-2.08Zm-24.44,13.51c4.64.05,8.39,3.94,8.34,8.68-.05,4.72-3.88,8.49-8.52,8.44s-8.39-3.91-8.34-8.62c.05-4.74,3.86-8.55,8.52-8.5Z"/><path id="path1950" class="cls-2" d="m200.86,104.41l-.21,19.95c-.17,15.47-13.42,28.34-28.37,28.18l-44.87-.48c-12.29-.13-22.57,10.28-22.71,22.59l-.46,42.78c-.13,12.17,10.38,19.45,22.22,23.07,14.18,4.33,27.8,5.24,44.87.48,11.34-3.15,22.57-9.62,22.71-22.59l.18-17.12-44.87-.48.06-5.71,44.87.48,22.46.24c13.06.14,18.02-8.91,22.71-22.53,4.84-14.02,4.79-27.56.49-45.66-3.09-13.03-9.14-22.88-22.22-23.02l-16.86-.18Zm-26.4,108.06c4.66.05,8.39,3.91,8.34,8.62s-3.86,8.55-8.52,8.5-8.39-3.94-8.34-8.68,3.88-8.49,8.52-8.44Z"/></g></svg>