<?xml version="1.0" encoding="UTF-8"?>
<svg xmlns="http://www.w3.org/2000/svg" xmlns:xlink="http://www.w3.org/1999/xlink" viewBox="0 0 300 300">
  <defs>
    <style>
      .cls-1 {
        fill: #f15f22;
      }

      .cls-1, .cls-2, .cls-3 {
        fill-rule: evenodd;
      }

      .cls-2 {
        fill: url(#linear-gradient-2);
      }

      .cls-4 {
        fill: url(#linear-gradient);
      }

      .cls-3 {
        fill: url(#linear-gradient-3);
      }
    </style>
    <linearGradient id="linear-gradient" x1="0" y1="150" x2="300" y2="150" gradientUnits="userSpaceOnUse">
      <stop offset="0" stop-color="#0c0d17"/>
      <stop offset="1" stop-color="#191026"/>
    </linearGradient>
    <linearGradient id="linear-gradient-2" x1="1338.54" y1="885.16" x2="1297.6" y2="744.26" gradientTransform="translate(-1147.6 929.01) scale(1 -1)" gradientUnits="userSpaceOnUse">
      <stop offset="0" stop-color="#fff"/>
      <stop offset="1" stop-color="#f9fbfc"/>
    </linearGradient>
    <linearGradient id="linear-gradient-3" x1="1328.09" y1="794.75" x2="1292.63" y2="720.51" gradientTransform="translate(-1147.6 929.01) scale(1 -1)" gradientUnits="userSpaceOnUse">
      <stop offset="0" stop-color="#ee2740"/>
      <stop offset="1" stop-color="#ee2740" stop-opacity="0"/>
    </linearGradient>
  </defs>
  <g id="Fondos">
    <rect class="cls-4" width="300" height="300"/>
  </g>
  <g id="Texto">
    <g>
      <path class="cls-2" d="M179.54,55.18c1.63,2.02,2.46,4.76,4.13,10.22l36.33,119.35c-13.43-6.97-28.04-11.99-43.44-14.71l-23.66-79.94c-.39-1.31-1.59-2.21-2.95-2.21s-2.57,.9-2.96,2.21l-23.37,79.89c-15.47,2.7-30.14,7.73-43.63,14.73l36.51-119.36h0c1.67-5.45,2.5-8.18,4.13-10.2,1.44-1.78,3.31-3.17,5.44-4.02,2.41-.97,5.26-.97,10.96-.97h26.08c5.71,0,8.57,0,10.98,.97,2.13,.86,4,2.24,5.44,4.03Z"/>
      <path class="cls-1" d="M183.89,190.43c-5.99,5.12-17.94,8.61-31.71,8.61-16.9,0-31.07-5.26-34.83-12.34-1.34,4.06-1.65,8.7-1.65,11.66,0,0-.89,14.56,9.24,24.69,0-5.26,4.26-9.52,9.52-9.52,9.01,0,9,7.86,8.99,14.24,0,.19,0,.38,0,.57,0,9.68,5.92,17.98,14.33,21.48-1.26-2.59-1.96-5.49-1.96-8.56,0-9.23,5.42-12.67,11.72-16.67h0c5.01-3.18,10.58-6.71,14.42-13.8,2-3.7,3.14-7.93,3.14-12.43,0-2.77-.43-5.43-1.23-7.94Z"/>
      <path class="cls-3" d="M183.89,190.43c-5.99,5.12-17.94,8.61-31.71,8.61-16.9,0-31.07-5.26-34.83-12.34-1.34,4.06-1.65,8.7-1.65,11.66,0,0-.89,14.56,9.24,24.69,0-5.26,4.26-9.52,9.52-9.52,9.01,0,9,7.86,8.99,14.24,0,.19,0,.38,0,.57,0,9.68,5.92,17.98,14.33,21.48-1.26-2.59-1.96-5.49-1.96-8.56,0-9.23,5.42-12.67,11.72-16.67h0c5.01-3.18,10.58-6.71,14.42-13.8,2-3.7,3.14-7.93,3.14-12.43,0-2.77-.43-5.43-1.23-7.94Z"/>
    </g>
  </g>
</svg>