<?xml version="1.0" encoding="UTF-8"?>
<svg xmlns="http://www.w3.org/2000/svg" viewBox="0 0 300 300">
  <defs>
    <style>
      .cls-1 {
        fill: #fff;
      }

      .cls-2 {
        fill: #231f20;
      }
    </style>
  </defs>
  <g id="Fondos">
    <rect class="cls-2" width="300" height="300"/>
  </g>
  <g id="Texto">
    <path class="cls-1" d="M185.52,160.78c-7.79,0-14.77,3.45-19.55,8.88l-12.25-8.67c1.3-3.58,2.05-7.43,2.05-11.45s-.72-7.74-1.98-11.26l12.22-8.58c4.78,5.41,11.75,8.84,19.51,8.84,14.38,0,26.07-11.7,26.07-26.07s-11.7-26.07-26.07-26.07-26.07,11.7-26.07,26.07c0,2.57,.39,5.05,1.09,7.4l-12.23,8.59c-5.11-6.34-12.47-10.77-20.85-12.12v-14.74c11.81-2.48,20.71-12.97,20.71-25.51,0-14.38-11.7-26.07-26.07-26.07s-26.07,11.7-26.07,26.07c0,12.37,8.67,22.73,20.24,25.39v14.93c-15.8,2.77-27.85,16.56-27.85,33.14s12.17,30.49,28.08,33.17v15.77c-11.69,2.57-20.48,13-20.48,25.45,0,14.38,11.7,26.07,26.07,26.07s26.07-11.7,26.07-26.07c0-12.45-8.78-22.88-20.48-25.45v-15.77c8.05-1.36,15.34-5.59,20.5-11.92l12.33,8.73c-.68,2.33-1.07,4.79-1.07,7.33,0,14.38,11.7,26.07,26.07,26.07s26.07-11.7,26.07-26.07-11.7-26.07-26.07-26.07Zm0-60.96c6.97,0,12.64,5.67,12.64,12.64s-5.67,12.64-12.64,12.64-12.64-5.67-12.64-12.64,5.67-12.64,12.64-12.64Zm-76.07-23.74c0-6.97,5.67-12.64,12.64-12.64s12.64,5.67,12.64,12.64-5.67,12.64-12.64,12.64-12.64-5.67-12.64-12.64Zm25.28,147.86c0,6.97-5.67,12.64-12.64,12.64s-12.64-5.67-12.64-12.64,5.67-12.64,12.64-12.64,12.64,5.67,12.64,12.64Zm-12.64-56.76c-9.72,0-17.63-7.91-17.63-17.63s7.91-17.63,17.63-17.63,17.63,7.91,17.63,17.63-7.91,17.63-17.63,17.63Zm63.43,32.33c-6.97,0-12.64-5.67-12.64-12.64s5.67-12.64,12.64-12.64,12.64,5.67,12.64,12.64-5.67,12.64-12.64,12.64Z"/>
  </g>
</svg>