<?xml version="1.0" encoding="UTF-8"?><svg xmlns="http://www.w3.org/2000/svg" viewBox="0 0 300 300"><defs><style>.cls-1{fill:#fff;}.cls-2{fill:#ea4535;}.cls-3{fill:#36a852;}.cls-4{fill:#f9bc15;}.cls-5{fill:#557ebf;}</style></defs><g id="Fondos-Blancos"><rect class="cls-1" width="300" height="300"/></g><g id="Texto"><g><path class="cls-2" d="m182.85,114.17l17.3-17.3,1.15-7.28c-31.52-28.67-81.64-25.42-110.06,6.78-7.9,8.94-13.75,20.09-16.87,31.61l6.19-.88,34.6-5.7,2.67-2.73c15.39-16.91,41.42-19.18,59.18-4.8l5.83.3Z"/><path class="cls-5" d="m224.8,127.46c-3.97-14.64-12.14-27.81-23.49-37.88l-24.28,24.28c10.26,8.38,16.09,20.99,15.84,34.23v4.31c11.93,0,21.61,9.68,21.61,21.61s-9.68,21.37-21.61,21.37h-43.28l-4.25,4.61v25.93l4.25,4.07h43.28c31.04.25,56.4-24.49,56.65-55.53.15-18.82-9.13-36.46-24.71-47.01"/><path class="cls-3" d="m106.36,230h43.23v-34.6h-43.23c-3.06,0-6.08-.67-8.86-1.94l-6.13,1.88-17.42,17.3-1.52,5.89c9.77,7.38,21.7,11.53,33.94,11.48"/><path class="cls-4" d="m106.36,117.75c-31.05.18-56.06,25.5-55.88,56.55.11,17.34,8.2,33.65,21.94,44.23l25.07-25.07c-10.88-4.91-15.71-17.71-10.8-28.59,4.91-10.88,17.71-15.71,28.59-10.8,4.79,2.17,8.63,6,10.8,10.8l25.07-25.07c-10.67-13.95-27.25-22.1-44.81-22.04"/></g></g></svg>