<?xml version="1.0" encoding="UTF-8"?>
<svg id="Texto" xmlns="http://www.w3.org/2000/svg" viewBox="0 0 300 300">
  <defs>
    <style>
      .cls-1 {
        fill: #c14c42;
      }

      .cls-2 {
        fill: #d65348;
      }

      .cls-3 {
        fill: #2e4652;
      }

      .cls-4 {
        fill: #e2584d;
      }

      .cls-5 {
        fill: #248e44;
      }

      .cls-6 {
        fill: #32ad4a;
      }
    </style>
  </defs>
  <path class="cls-3" d="M113.63,160.4c-7.97,2.26-13.19,6.23-16.64,10.19,3.3-2.89,7.72-5.54,13.67-7.22,6.1-1.73,11.3-1.72,15.59-.89v-3.36c-3.67-.34-7.87-.07-12.63,1.28Zm-17-28.24l-29.59,7.8s.54,.76,1.54,1.78l25.09-6.61s-.36,4.58-3.44,8.68c5.84-4.42,6.41-11.64,6.41-11.64Zm24.77,69.54c-41.64,11.22-63.67-37.04-70.34-62.09-3.08-11.56-4.43-20.32-4.79-25.97-.04-.59-.02-1.08,.02-1.53-2.16,.13-3.19,1.25-2.98,4.5,.36,5.65,1.7,14.4,4.79,25.97,6.67,25.04,28.7,73.3,70.34,62.09,9.06-2.44,15.87-6.89,20.98-12.57-4.71,4.26-10.61,7.61-18.02,9.61Zm7.83-99.07v2.96h16.33c-.34-1.05-.67-1.99-1.01-2.96h-15.33Z"/>
  <path class="cls-3" d="M149.21,127.03c7.35,2.09,11.23,7.24,13.28,11.79l8.19,2.33s-1.12-15.95-15.54-20.05c-13.5-3.83-21.8,7.5-22.81,8.97,3.93-2.8,9.66-5.09,16.88-3.04Zm65.19,11.87c-13.51-3.85-21.81,7.51-22.81,8.95,3.93-2.79,9.66-5.08,16.88-3.03,7.33,2.09,11.22,7.23,13.27,11.79l8.2,2.33s-1.14-15.95-15.55-20.05Zm-8.14,42.06l-68.13-19.05s.74,3.74,3.57,8.58l57.36,16.04c4.72-2.73,7.2-5.57,7.2-5.57Zm-47.24,41c-53.95-14.46-47.42-83.2-38.7-115.77,3.59-13.42,7.29-23.4,10.35-30.09-1.83-.38-3.34,.59-4.84,3.63-3.25,6.6-7.41,17.34-11.44,32.38-8.73,32.57-15.25,101.3,38.7,115.77,25.43,6.81,45.23-3.54,60-19.8-14.02,12.69-31.91,19.81-54.07,13.88Z"/>
  <path class="cls-4" d="M129.22,185.59v-13.87l-38.54,10.93s2.85-16.55,22.95-22.25c6.1-1.73,11.3-1.72,15.59-.89v-56.89h19.3c-2.1-6.49-4.13-11.49-5.84-14.96-2.82-5.75-5.72-1.94-12.29,3.56-4.63,3.87-16.33,12.12-33.93,16.86-17.6,4.75-31.84,3.49-37.77,2.46-8.42-1.45-12.82-3.3-12.41,3.1,.36,5.65,1.7,14.4,4.79,25.97,6.67,25.04,28.7,73.3,70.34,62.09,10.88-2.93,18.55-8.72,23.88-16.11h-16.05Zm-62.19-45.63l29.59-7.8s-.86,11.38-11.96,14.31c-11.1,2.92-17.64-6.51-17.64-6.51Z"/>
  <path class="cls-6" d="M240.6,103.28c-7.69,1.35-26.15,3.03-48.95-3.08-22.81-6.11-37.95-16.79-43.95-21.82-8.5-7.12-12.24-12.07-15.92-4.58-3.25,6.6-7.41,17.35-11.44,32.39-8.73,32.57-15.25,101.3,38.7,115.77,53.93,14.45,82.64-48.34,91.37-80.91,4.03-15.04,5.79-26.42,6.28-33.77,.55-8.32-5.16-5.9-16.08-3.99Zm-108.38,26.95s8.5-13.22,22.92-9.12c14.43,4.1,15.54,20.05,15.54,20.05l-38.46-10.92Zm35.2,59.33c-25.36-7.43-29.27-27.65-29.27-27.65l68.13,19.05s-13.75,15.94-38.86,8.6Zm24.09-41.56s8.49-13.21,22.9-9.1c14.42,4.1,15.55,20.05,15.55,20.05l-38.46-10.95Z"/>
  <path class="cls-2" d="M115.76,175.54l-25.07,7.11s2.72-15.51,21.19-21.66l-14.2-53.28-1.23,.37c-17.6,4.75-31.84,3.49-37.77,2.46-8.42-1.45-12.82-3.3-12.41,3.1,.36,5.65,1.7,14.4,4.79,25.97,6.67,25.04,28.7,73.3,70.34,62.09l1.23-.39-6.87-25.77Zm-48.72-35.59l29.59-7.8s-.86,11.38-11.96,14.31c-11.1,2.92-17.64-6.51-17.64-6.51Z"/>
  <path class="cls-5" d="M168.55,189.84l-1.15-.28c-25.36-7.43-29.27-27.65-29.27-27.65l35.13,9.82,18.6-71.47-.23-.06c-22.81-6.11-37.95-16.79-43.95-21.82-8.5-7.12-12.24-12.07-15.92-4.58-3.25,6.6-7.41,17.35-11.44,32.39-8.73,32.57-15.25,101.3,38.7,115.77l1.11,.25,8.42-32.36Zm-36.34-59.61s8.5-13.22,22.92-9.12c14.43,4.1,15.54,20.05,15.54,20.05l-38.46-10.92Z"/>
  <path class="cls-1" d="M117.03,175.18l-6.72,1.91c1.59,8.95,4.39,17.55,8.78,25.14,.76-.17,1.52-.31,2.3-.53,2.04-.55,3.93-1.23,5.76-1.98-4.91-7.29-8.16-15.68-10.12-24.54Zm-2.63-63.07c-3.46,12.9-6.55,31.46-5.7,50.07,1.52-.66,3.13-1.28,4.92-1.78l1.24-.28c-1.52-19.89,1.76-40.15,5.46-53.94,.94-3.49,1.88-6.73,2.81-9.76-1.51,.96-3.13,1.94-4.98,2.96-1.25,3.85-2.51,8.06-3.76,12.73Z"/>
</svg>