<?xml version="1.0" encoding="UTF-8"?>
<svg id="Fondos" xmlns="http://www.w3.org/2000/svg" xmlns:xlink="http://www.w3.org/1999/xlink" viewBox="0 0 300 300">
  <defs>
    <style>
      .cls-1 {
        fill: url(#radial-gradient);
      }
    </style>
    <radialGradient id="radial-gradient" cx="5.07" cy="304.21" fx="5.07" fy="304.21" r=".78" gradientTransform="translate(-1147.6 77829.01) scale(256 -256)" gradientUnits="userSpaceOnUse">
      <stop offset="0" stop-color="#3bbeb3"/>
      <stop offset="1" stop-color="#4e9abf"/>
    </radialGradient>
  </defs>
  <path class="cls-1" d="M194.95,119.41l-.07-.03s-.08-.03-.12-.07c-.12-.13-.18-.31-.15-.49l4.04-24.65,18.93,18.91-19.69,8.37c-.05,.02-.11,.03-.17,.03h-.08s-.05-.04-.1-.09c-.73-.81-1.61-1.49-2.58-1.99Zm27.46-1.5l20.24,20.22c4.2,4.2,6.31,6.3,7.08,8.73,.11,.36,.21,.72,.28,1.09l-48.37-20.46s-.05-.02-.08-.03c-.19-.08-.42-.17-.42-.37s.23-.29,.42-.37l.06-.03,20.78-8.78Zm26.77,36.53c-1.04,1.96-3.08,4-6.53,7.44l-22.82,22.79-29.51-6.14-.16-.03c-.26-.04-.54-.09-.54-.32-.23-2.46-1.47-4.71-3.42-6.22-.12-.12-.09-.31-.05-.48,0-.03,0-.05,.01-.07l5.55-34.04,.02-.11c.03-.26,.08-.56,.31-.56,2.4-.3,4.59-1.55,6.06-3.47,.05-.05,.08-.11,.14-.14,.17-.08,.37,0,.54,.07l50.39,21.29h0Zm-34.59,35.47l-37.52,37.48,6.42-39.43v-.05c.02-.05,.03-.1,.04-.15,.05-.13,.19-.18,.32-.23l.06-.03c1.41-.6,2.65-1.52,3.63-2.7,.13-.15,.28-.29,.47-.31,.05,0,.1,0,.15,0l26.42,5.42h0Zm-45.47,45.41l-4.23,4.23-46.76-67.51s-.03-.05-.05-.07c-.07-.1-.15-.2-.14-.31,0-.08,.06-.16,.11-.22l.05-.07c.14-.21,.26-.42,.39-.64l.1-.18,.02-.02c.07-.13,.14-.25,.27-.31,.11-.05,.26-.03,.38,0l51.81,10.67c.14,.02,.28,.08,.4,.17,.07,.07,.08,.14,.1,.22,.73,2.77,2.72,5.04,5.37,6.13,.15,.07,.08,.23,.02,.41-.03,.08-.06,.15-.08,.23-.65,3.96-6.25,38.07-7.75,47.27Zm-8.84,8.82c-3.12,3.08-4.96,4.72-7.03,5.37-2.05,.65-4.25,.65-6.3,0-2.43-.77-4.54-2.87-8.74-7.07l-46.96-46.91,12.27-19c.06-.09,.11-.18,.21-.25,.13-.09,.32-.05,.48,0,2.82,.85,5.84,.7,8.55-.43,.14-.05,.28-.09,.39,.01,.05,.05,.1,.11,.15,.17l46.99,68.12h0Zm-73.56-53.14l-10.77-10.76,21.27-9.07c.05-.02,.11-.04,.17-.04,.18,0,.28,.18,.38,.34,.21,.33,.44,.65,.68,.96l.07,.08c.06,.09,.02,.18-.04,.26l-11.75,18.22h0Zm-15.54-15.52l-13.63-13.61c-2.32-2.32-4-4-5.17-5.44l41.44,8.59c.05,0,.1,.02,.16,.03,.26,.04,.54,.09,.54,.33,0,.26-.31,.38-.57,.48l-.12,.05-22.65,9.58Zm-21.18-26.05c.05-.88,.21-1.74,.47-2.58,.77-2.43,2.87-4.53,7.08-8.73l17.44-17.42c8.03,11.64,16.08,23.27,24.16,34.88,.14,.19,.3,.4,.14,.55-.76,.84-1.52,1.76-2.06,2.75-.06,.13-.15,.24-.26,.32-.07,.04-.14,.03-.22,.01h-.01l-46.73-9.79h0Zm29.66-33.39l23.45-23.43c2.2,.96,10.22,4.35,17.4,7.38,5.43,2.3,10.38,4.38,11.94,5.06,.16,.06,.3,.13,.37,.28,.04,.09,.02,.21,0,.31-.75,3.43,.27,7.02,2.73,9.53,.16,.16,0,.38-.14,.57l-.07,.11-23.81,36.84c-.06,.1-.12,.19-.22,.26-.13,.08-.3,.04-.45,0-.93-.24-1.88-.37-2.84-.39-.86,0-1.79,.16-2.73,.33h0c-.1,.02-.2,.04-.28-.03-.09-.08-.17-.17-.23-.27l-25.11-36.58Zm28.19-28.16l30.36-30.33c4.2-4.2,6.31-6.3,8.74-7.07,2.05-.65,4.25-.65,6.3,0,2.43,.77,4.54,2.87,8.74,7.07l6.58,6.57-21.59,33.4c-.05,.1-.13,.18-.21,.25-.13,.09-.31,.05-.47,0-3.46-1.05-7.21-.33-10.03,1.93-.14,.15-.35,.06-.53-.02-2.82-1.23-24.75-10.48-27.89-11.81Zm65.3-19.17l19.94,19.91-4.8,29.72v.08c0,.07-.02,.13-.04,.2-.05,.1-.16,.13-.26,.16-1.03,.31-1.99,.79-2.86,1.42-.04,.03-.07,.06-.1,.09-.06,.06-.11,.12-.21,.13-.08,0-.15-.01-.22-.04l-30.38-12.89-.06-.03c-.19-.08-.42-.17-.42-.37-.18-1.69-.73-3.32-1.62-4.77-.15-.24-.31-.49-.18-.74l21.23-32.88Zm-20.53,44.89l28.48,12.05c.16,.07,.33,.14,.4,.3,.03,.1,.03,.2,0,.3-.08,.42-.16,.89-.16,1.37v.8c0,.2-.2,.28-.39,.36l-.06,.02c-4.51,1.92-63.34,26.98-63.43,26.98s-.18,0-.27-.09c-.16-.16,0-.38,.14-.57,.02-.03,.05-.07,.07-.1l23.4-36.2,.04-.06c.14-.22,.29-.46,.54-.46l.23,.04c.53,.07,1,.14,1.48,.14,3.55,0,6.84-1.73,8.82-4.68,.05-.08,.11-.15,.18-.21,.14-.1,.35-.05,.51,.02Zm-32.62,47.91l64.12-27.32s.09,0,.18,.09c.35,.35,.65,.58,.93,.8l.14,.09c.13,.07,.26,.16,.27,.29,0,.05,0,.08-.01,.13l-5.49,33.71-.02,.14c-.04,.26-.07,.56-.32,.56-2.97,.2-5.66,1.85-7.17,4.42l-.03,.04c-.07,.12-.14,.23-.26,.3-.11,.05-.25,.03-.37,0l-51.14-10.54c-.05-.01-.79-2.71-.85-2.71Z"/>
</svg>