<?xml version="1.0" encoding="UTF-8"?>
<svg xmlns="http://www.w3.org/2000/svg" viewBox="0 0 300 300">
  <defs>
    <style>
      .cls-1 {
        fill: #fff;
      }

      .cls-2 {
        fill: #4354a5;
      }
    </style>
  </defs>
  <g id="Fondos">
    <rect class="cls-2" width="300" height="300"/>
  </g>
  <g id="Texto">
    <g>
      <path class="cls-1" d="M216.56,129.81c-9.4-29.49-36.7-49.59-67.65-49.81-26-.15-49.95,14.08-62.25,36.98-28.78,5.16-47.93,32.67-42.78,61.45,3.06,17.05,14.26,31.53,30,38.77l1.33,.6h.09v-15.06c-18.59-11.41-24.41-35.73-13-54.32,6.4-10.43,17.29-17.31,29.46-18.61l3.72-.39,1.63-3.35c9.45-20.03,29.65-32.76,51.79-32.66,26.59,.19,49.64,18.45,55.9,44.3l1.28,5.07h5.32c17.82,.37,32.1,14.88,32.16,32.71,0,12.49-7.21,22.72-19.49,27.89v14.28l.89-.28c19.74-6.47,32-22.52,32-41.89-.17-23.18-17.41-42.68-40.4-45.68Z"/>
      <path class="cls-1" d="M122.93,216.07l2.94,2.94c.23,.23,.22,.6-.01,.83-.11,.1-.25,.16-.4,.17h-23.21c-5.87,0-10.63-4.76-10.63-10.63v-45.08c0-.32-.26-.58-.58-.58h-4.96c-.32,0-.59-.26-.59-.58,0-.15,.06-.3,.17-.41l19.7-19.7c.23-.23,.6-.23,.83,0,0,0,0,0,0,0l19.69,19.7c.23,.23,.22,.6-.01,.83-.11,.1-.25,.16-.4,.17h-5.03c-.33,0-.59,.26-.6,.58v44.3c0,2.8,1.12,5.49,3.1,7.48Zm43.54,0l2.96,2.94c.23,.23,.22,.6-.01,.83-.11,.11-.26,.17-.41,.17h-23.16c-5.87,0-10.63-4.76-10.63-10.63v-33.68c0-.33-.26-.59-.58-.6h-5.01c-.32,0-.58-.27-.57-.6,0-.15,.06-.29,.17-.4l19.69-19.67c.23-.23,.6-.23,.83,0,0,0,0,0,0,0l19.7,19.63c.23,.23,.22,.6-.01,.83-.11,.11-.26,.17-.41,.17h-5.03c-.33,0-.58,.28-.58,.6v32.94c0,2.8,1.11,5.49,3.08,7.48Zm43.55,0l2.94,2.94c.23,.23,.22,.6-.01,.83-.11,.1-.25,.16-.4,.17h-23.23c-5.87,0-10.63-4.76-10.63-10.63v-22.38c0-.32-.26-.58-.58-.58h-4.96c-.32,0-.59-.26-.59-.58,0-.16,.06-.32,.18-.43l19.7-19.69c.22-.23,.58-.23,.8-.01,0,0,0,0,.01,.01l19.7,19.69c.23,.22,.25,.59,.02,.83-.11,.12-.27,.19-.43,.18h-5.05c-.32,0-.58,.26-.58,.58h0v21.6c0,2.8,1.12,5.49,3.1,7.48Z"/>
    </g>
  </g>
</svg>