<?xml version="1.0" encoding="UTF-8"?>
<svg id="Texto" xmlns="http://www.w3.org/2000/svg" viewBox="0 0 300 300">
  <defs>
    <style>
      .cls-1 {
        fill: #4a7ec1;
      }

      .cls-2 {
        fill: #86b4e0;
      }
    </style>
  </defs>
  <path class="cls-1" d="M91.88,50c23.13,0,41.88,18.74,41.88,41.87s-18.12,41.21-40.7,41.84c0,1.92,.08,5.56,1.17,7.75,1.51,3.04,10.57,8.71,19.45,8.71h3.19c2.01-14.27,14.26-25.26,29.09-25.26s26.99,10.9,29.07,25.09h16.51c2.08-14.19,14.3-25.09,29.07-25.09,16.23,0,29.39,13.15,29.39,29.38s-13.16,29.38-29.39,29.38c-14.77,0-26.99-10.9-29.07-25.09h-16.51c-2.08,14.19-14.3,25.09-29.07,25.09s-26.95-10.85-29.06-25.01h0l-3.53,.11c-5.81-.04-11.94-1.59-16.87-4.94-1.34-.91-2.67-1.87-4.05-2.78h0v1.91c0,.62-.12,9.89-.13,20.18v2.18c0,6.75,.06,13.71,.22,18.78,.35,11.13,9.4,20.11,19.39,22.22,1.3,.27,3.53,.31,4.94,.19,2.01-14.27,14.27-25.25,29.09-25.25,16.23,0,29.39,13.15,29.39,29.38s-13.16,29.38-29.39,29.38c-14.66,0-26.81-10.74-29.03-24.78h-2.54c-19.09-1.04-30.96-18.55-30.75-32.75,.26-17.87,.06-35.75,.06-53.63h0v-5.91c-19.21-3.8-33.7-20.74-33.7-41.06,0-23.12,18.75-41.87,41.88-41.87Zm54.08,149.83c-11.49,0-20.8,9.31-20.8,20.79s9.31,20.79,20.8,20.79,20.8-9.31,20.8-20.79-9.31-20.79-20.8-20.79Zm0-66.34c-11.49,0-20.8,9.31-20.8,20.79s9.31,20.79,20.8,20.79,20.8-9.31,20.8-20.79-9.31-20.79-20.8-20.79Zm74.65,0c-11.49,0-20.8,9.31-20.8,20.79s9.31,20.79,20.8,20.79,20.8-9.31,20.8-20.79-9.31-20.79-20.8-20.79Zm11.84,12.04c1.64,1.63,1.68,4.26,.13,5.94l-.13,.13-12.74,12.77c-1.62,1.63-4.23,1.68-5.92,.15l-.13-.13-6.24-6.14c-1.69-1.66-1.71-4.38-.05-6.07,1.62-1.65,4.25-1.71,5.94-.17l.13,.13,3.2,3.15,9.73-9.75c1.68-1.68,4.39-1.68,6.07,0Zm-74.99-.06c1.64,1.63,1.68,4.26,.13,5.94l-.13,.13-12.74,12.77c-1.62,1.63-4.23,1.68-5.92,.15l-.13-.13-6.24-6.14c-1.69-1.66-1.71-4.38-.05-6.07,1.62-1.65,4.25-1.71,5.94-.17l.13,.12,3.2,3.15,9.73-9.75c1.68-1.68,4.39-1.68,6.07,0ZM91.88,58.59c-18.38,0-33.29,14.9-33.29,33.28s14.9,33.28,33.29,33.28,33.29-14.9,33.29-33.28-14.9-33.28-33.29-33.28Zm-3.46,13.39c7,4.21,13.91,8.56,20.73,13.06,5.71,3.77,5.69,10.6-.08,14.37-6.94,4.54-13.98,8.89-21.14,13.06-5.82,3.39-12.34-.51-12.5-7.3-.1-4.38-.02-8.76-.02-13.14,0-4.26-.09-8.52,.01-12.78,.17-7.22,6.83-10.99,13-7.26Zm-4.62,6.93v3.02c0,1.5,0,2.97,0,4.43v2.9s0,4.28,0,4.28c0,3.31,0,6.56,0,9.81,0,1.53,.8,1.47,1.83,.83,5.94-3.68,11.89-7.36,17.83-11.04,.98-.61,1.01-1.24,.05-1.85-6.37-4.01-12.75-8.01-19.72-12.39Z"/>
  <path class="cls-2" d="M154.08,224.91c2.37,0,4.3-1.92,4.3-4.29s-1.92-4.29-4.3-4.29-4.3,1.92-4.3,4.29,1.92,4.29,4.3,4.29"/>
  <path class="cls-2" d="M137.64,224.91c2.37,0,4.3-1.92,4.3-4.29s-1.92-4.29-4.3-4.29-4.3,1.92-4.3,4.29,1.92,4.29,4.3,4.29"/>
  <path class="cls-2" d="M220.61,241.41c-11.49,0-20.8-9.31-20.8-20.79s9.31-20.79,20.8-20.79,20.8,9.31,20.8,20.79-9.31,20.79-20.8,20.79m0-50.17c-14.77,0-26.99,10.9-29.07,25.09h-4.81c-2.1,0-3.8,1.92-3.8,4.29s1.7,4.29,3.8,4.29h4.81c2.08,14.19,14.3,25.09,29.07,25.09,16.23,0,29.39-13.15,29.39-29.38s-13.16-29.38-29.39-29.38"/>
</svg>