<?xml version="1.0" encoding="UTF-8"?><svg xmlns="http://www.w3.org/2000/svg" viewBox="0 0 300 300"><defs><style>.cls-1{fill:#fff;}.cls-2{fill:#242b55;}</style></defs><g id="Fondos-Blancos"><rect class="cls-1" width="300" height="300"/></g><g id="Texto"><g><path class="cls-2" d="m61.84,143.25c-3.91,0-7.76,1.01-11.16,2.93v32.57c0,.91-.71,1.67-1.62,1.71h-7.44c-.91-.04-1.63-.79-1.62-1.71v-42.38c.01-.89.73-1.61,1.62-1.62h7.05c.89.01,1.61.73,1.62,1.62v1.71c3.33-2.54,7.41-3.91,11.6-3.9.89.01,1.61.73,1.62,1.62v5.82c-.05.89-.77,1.6-1.67,1.62Z"/><path class="cls-2" d="m104.53,161.34h-26.4v.26c0,4.68,1.93,10.29,9.72,10.29,4.99-.04,9.94-.31,14.89-.83h.26c.83,0,1.44.39,1.44,1.23v5.34c0,1.31-.26,1.88-1.71,2.1-5.17,1.02-10.44,1.48-15.72,1.36-8.1,0-19.61-4.38-19.61-20.31v-6c0-12.65,7.05-20.58,19.44-20.58s19.26,8.49,19.26,20.58v4.55c.04,1.3-.45,2.01-1.58,2.01h0Zm-9.15-7.92c0-6.3-3.5-9.98-8.49-9.98s-8.67,3.55-8.67,9.98v.31h17.16v-.31Z"/><path class="cls-2" d="m151.07,180.42h-7.44c-.91-.04-1.63-.79-1.62-1.71v-26.36c0-7.05-.66-9.06-6.87-9.06-3.24.24-6.38,1.25-9.15,2.93v32.57c0,.91-.71,1.67-1.62,1.71h-7.44c-.91-.04-1.63-.79-1.62-1.71v-42.38c.01-.89.73-1.61,1.62-1.62h7.05c.89.01,1.61.73,1.62,1.62v1.71c3.82-2.72,8.45-4.09,13.13-3.9,11.64,0,14.01,7.84,14.01,18.13v26.4c-.04.9-.77,1.62-1.67,1.67Z"/><path class="cls-2" d="m197.25,179.03c-5.32,1.35-10.79,2.06-16.29,2.1-13.04,0-19.35-7.71-19.35-20.31v-6.26c0-12.65,6.3-20.31,19.35-20.31,2.61.03,5.21.22,7.79.57v-14.32c.01-.89.73-1.61,1.62-1.62h7.44c.89.01,1.61.73,1.62,1.62v56.38c0,1.14-.35,1.67-2.19,2.16h0Zm-8.48-35.52c-2.58-.34-5.19-.53-7.79-.57-6.96,0-8.67,4.94-8.67,11.6v6.22c0,6.66,1.71,11.6,8.67,11.6,2.61,0,5.21-.18,7.79-.57v-28.28Z"/><path class="cls-2" d="m245.68,161.34h-26.4v.26c0,4.68,1.93,10.29,9.72,10.29,4.99-.04,9.94-.31,14.89-.83h.26c.79,0,1.44.39,1.44,1.23v5.34c0,1.31-.26,1.88-1.71,2.1-5.17,1.02-10.44,1.48-15.72,1.36-8.1,0-19.61-4.38-19.61-20.31v-6c0-12.65,7.05-20.58,19.44-20.58s19.26,8.49,19.26,20.58v4.55c.04,1.3-.45,2.01-1.58,2.01h0Zm-9.15-7.92c0-6.3-3.5-9.98-8.49-9.98s-8.67,3.55-8.67,9.98v.31h17.16v-.31Z"/><path class="cls-2" d="m278.34,143.25c-3.91,0-7.76,1.01-11.16,2.93v32.57c0,.91-.71,1.67-1.62,1.71h-7.44c-.91-.04-1.63-.79-1.62-1.71v-42.38c.01-.89.73-1.61,1.62-1.62h7.05c.89.01,1.61.73,1.62,1.62v1.71c3.33-2.54,7.41-3.91,11.6-3.9.89.01,1.61.73,1.62,1.62v5.82c-.03.9-.76,1.61-1.66,1.62h0Z"/></g></g></svg>