<?xml version="1.0" encoding="UTF-8"?>
<svg id="Texto" xmlns="http://www.w3.org/2000/svg" viewBox="0 0 300 300">
  <defs>
    <style>
      .cls-1 {
        fill: #5f63ad;
        fill-rule: evenodd;
      }
    </style>
  </defs>
  <path class="cls-1" d="M260,155.76c0-15.64-7.58-27.99-22.06-27.99s-23.34,12.34-23.34,27.87c0,18.39,10.39,27.68,25.3,27.68,7.27,0,12.77-1.65,16.93-3.97v-12.22c-4.16,2.08-8.92,3.36-14.97,3.36s-11.18-2.08-11.86-9.29h29.88c0-.79,.12-3.97,.12-5.44Zm-30.19-5.81c0-6.91,4.22-9.78,8.07-9.78s7.7,2.87,7.7,9.78h-15.77Zm-38.81-22.18c-5.99,0-9.84,2.81-11.98,4.77l-.79-3.79h-13.44v71.26l15.28-3.24,.06-17.29c2.2,1.59,5.44,3.85,10.82,3.85,10.94,0,20.9-8.8,20.9-28.17-.06-17.72-10.14-27.38-20.84-27.38h0Zm-3.67,42.11c-3.61,0-5.74-1.28-7.21-2.87l-.06-22.67c1.59-1.77,3.79-2.99,7.27-2.99,5.56,0,9.41,6.23,9.41,14.24s-3.79,14.3-9.41,14.3Zm-43.57-45.71l15.34-3.3v-12.41l-15.34,3.24v12.47Zm0,4.64h15.34v53.47h-15.34v-53.47Zm-16.44,4.52l-.98-4.52h-13.2v53.47h15.28v-36.24c3.61-4.71,9.72-3.85,11.61-3.18v-14.06c-1.96-.73-9.11-2.08-12.71,4.52h0Zm-30.56-17.78l-14.91,3.18-.06,48.95c0,9.04,6.78,15.71,15.83,15.71,5.01,0,8.68-.92,10.69-2.02v-12.41c-1.96,.79-11.61,3.61-11.61-5.44v-21.69h11.61v-13.02h-11.61s.06-13.26,.06-13.26Zm-41.31,28.78c0-2.38,1.96-3.3,5.19-3.3,4.64,0,10.51,1.41,15.16,3.91v-14.36c-5.07-2.02-10.08-2.81-15.16-2.81-12.41,0-20.66,6.48-20.66,17.29,0,16.87,23.22,14.18,23.22,21.45,0,2.81-2.44,3.73-5.87,3.73-5.07,0-11.55-2.08-16.68-4.89v14.54c5.68,2.44,11.43,3.48,16.68,3.48,12.71,0,21.45-6.29,21.45-17.23-.06-18.21-23.34-14.97-23.34-21.82h0Z"/>
</svg>