<?xml version="1.0" encoding="UTF-8"?><svg xmlns="http://www.w3.org/2000/svg" viewBox="0 0 300 300"><defs><style>.cls-1{fill:#fff;}.cls-2{fill:#5f63ad;fill-rule:evenodd;}</style></defs><g id="Fondos-Blancos"><rect class="cls-1" width="300" height="300"/></g><g id="Texto"><path class="cls-2" d="m265,151.6c0-16.36-7.92-29.26-23.06-29.26s-24.41,12.91-24.41,29.13c0,19.23,10.86,28.94,26.45,28.94,7.6,0,13.35-1.72,17.7-4.15v-12.78c-4.34,2.17-9.33,3.51-15.65,3.51s-11.69-2.17-12.39-9.71h31.24c0-.83.13-4.15.13-5.69Zm-31.56-6.07c0-7.22,4.41-10.22,8.43-10.22s8.05,3,8.05,10.22h-16.48Zm-40.57-23.19c-6.26,0-10.29,2.94-12.52,4.98l-.83-3.96h-14.06v74.49l15.97-3.39.06-18.08c2.3,1.66,5.69,4.03,11.31,4.03,11.44,0,21.85-9.2,21.85-29.45-.06-18.53-10.61-28.62-21.79-28.62h0Zm-3.83,44.02c-3.77,0-6.01-1.34-7.54-3l-.06-23.7c1.66-1.85,3.96-3.13,7.6-3.13,5.81,0,9.84,6.52,9.84,14.89s-3.96,14.95-9.84,14.95Zm-45.55-47.79l16.04-3.45v-12.97l-16.04,3.39v13.03Zm0,4.86h16.04v55.9h-16.04v-55.9Zm-17.19,4.73l-1.02-4.73h-13.8v55.9h15.97v-37.89c3.77-4.92,10.16-4.03,12.14-3.32v-14.69c-2.04-.77-9.52-2.17-13.29,4.73h0Zm-31.94-18.59l-15.59,3.32-.06,51.17c0,9.46,7.09,16.42,16.55,16.42,5.24,0,9.07-.96,11.18-2.11v-12.97c-2.04.83-12.14,3.77-12.14-5.69v-22.68h12.14v-13.61h-12.14s.06-13.86.06-13.86Zm-43.19,30.09c0-2.49,2.04-3.45,5.43-3.45,4.86,0,10.99,1.47,15.84,4.09v-15.01c-5.3-2.11-10.54-2.94-15.84-2.94-12.97,0-21.59,6.77-21.59,18.08,0,17.63,24.28,14.82,24.28,22.42,0,2.94-2.56,3.9-6.13,3.9-5.3,0-12.08-2.17-17.44-5.11v15.21c5.94,2.56,11.95,3.64,17.44,3.64,13.29,0,22.42-6.58,22.42-18.02-.06-19.04-24.41-15.65-24.41-22.81h0Z"/></g></svg>