<?xml version="1.0" encoding="UTF-8"?>
<svg id="Texto" xmlns="http://www.w3.org/2000/svg" viewBox="0 0 300 300">
  <defs>
    <style>
      .cls-1 {
        fill: #00b6d5;
      }
    </style>
  </defs>
  <path class="cls-1" d="M147.39,77.99c-42.22,1.34-54.77,31.5-57.65,47.84,3.75-6.06,15.56-19.35,32.94-19.35,20.26,0,35.69,22.61,45.1,29.67,11.43,8.58,34.41,19.9,64.58,10.72,24.05-7.32,35.21-32.85,37.65-44.97-11.63,15.82-29.28,25.32-51.11,14.12-15.03-7.71-26.27-39.48-71.5-38.04Z"/>
  <path class="cls-1" d="M87.65,149.76c-42.22,1.34-54.77,31.5-57.65,47.84,3.75-6.06,15.56-19.35,32.94-19.35,20.26,0,35.69,22.61,45.1,29.67,11.43,8.58,34.41,19.9,64.58,10.72,24.05-7.32,35.21-32.85,37.65-44.97-11.63,15.82-29.28,25.32-51.11,14.12-15.03-7.71-26.27-39.48-71.5-38.04Z"/>
</svg>