<?xml version="1.0" encoding="UTF-8"?>
<svg id="Texto" xmlns="http://www.w3.org/2000/svg" viewBox="0 0 300 300">
  <defs>
    <style>
      .cls-1 {
        fill: #f7a199;
      }

      .cls-2 {
        fill: #f04b3a;
      }

      .cls-3 {
        fill: #f37369;
      }
    </style>
  </defs>
  <polygon class="cls-3" points="209.08 142.95 209.08 173.41 199.27 173.41 199.27 138.18 209.08 142.95"/>
  <path class="cls-1" d="M70.2,167.75l7.36,6.41,31.01-16.15-3.2-7.7-35.16,17.44Zm129.06-19.63l24.94-12.95-4.22-7.29-20.72,10.29v9.95Z"/>
  <path class="cls-3" d="M129.08,140.56v32.84h-9.4v-46.81l9.4,13.97Zm-58.88,27.19l7.36,6.41,14.17-35.43-4.57-12.13-16.97,41.16Z"/>
  <path class="cls-2" d="M87.17,126.59h9.68l17.92,46.81h-9.95l-17.65-46.81Zm43.34,0l20.65,31.96v14.86l-31.48-46.81h10.83Zm38.36,0h9.74v46.81h-9.74v-46.81Zm30.39,8.59h-14.99v-8.59h34.96l4.97,8.59h-24.94Z"/>
  <polyline class="cls-1" points="253.03 155.62 253.03 173.41 243.36 173.41 243.36 155.62"/>
  <polygon class="cls-2" points="259.71 126.59 243.36 155.62 253.03 155.62 270 126.59 259.71 126.59"/>
  <polygon class="cls-3" points="243.36 155.62 226.46 126.59 237.09 126.59 248.47 146.49 243.36 155.62"/>
  <path class="cls-2" d="M33.88,132.04c0,6.47,4.02,10.36,12.06,12.4l8.52,1.98c7.63,1.77,12.27,6.13,12.27,13.22,.07,3.07-.95,6.06-2.79,8.52,0-7.09-3.68-10.9-12.47-13.22l-8.38-1.91c-6.75-1.5-11.93-5.11-11.93-12.81,0-2.93,.95-5.86,2.73-8.18"/>
  <polygon class="cls-3" points="151.16 156.17 151.16 126.59 160.56 126.59 160.56 173.41 151.16 173.41 151.16 156.17"/>
  <path class="cls-3" d="M58.69,157.87c3.61,2.32,5.25,5.59,5.25,10.29-3.07,3.88-8.31,6-14.51,6-10.43,0-17.85-5.18-19.42-14.11h10.02c1.29,4.09,4.7,6,9.34,6,5.52,.07,9.27-2.93,9.34-8.18m-24.8-25.89c2.93-3.82,7.97-6.13,14.11-6.13,10.7,0,16.83,5.66,18.4,13.56h-9.68c-1.09-3.13-3.75-5.59-8.59-5.59-5.25,.07-8.79,3.07-8.99,7.84-3.51-1.94-5.38-5.72-5.25-9.68Z"/>
</svg>